<svg width="46" height="45" viewBox="0 0 46 45" fill="none" xmlns="http://www.w3.org/2000/svg">
<path d="M34.4254 34.4237V35.8861H32.288V37.0111C32.288 37.3486 32.063 37.5736 31.7255 37.5736H31.0505C30.713 37.5736 30.3756 37.2361 30.3756 36.8986V35.7736H29.3631V34.3112H30.3756V33.5237H29.3631V31.9488H30.3756V28.6864C30.3756 28.2364 30.713 27.8989 31.163 27.8989H33.188C34.2004 27.8989 34.4254 28.0114 34.8754 28.1239C35.3254 28.3489 35.6629 28.5739 36.0003 29.0239C36.2253 29.4739 36.4503 29.9239 36.4503 30.5988C36.4503 31.0488 36.3378 31.4988 36.2253 31.8363C36.1128 32.1738 36.0003 32.3988 35.7754 32.6237C35.5504 32.8487 35.3254 32.9612 35.1004 33.1862C34.8754 33.4112 34.5379 33.4112 34.2004 33.4112C33.8629 33.4112 34.0879 33.5237 33.6379 33.5237C33.188 33.5237 32.963 33.5237 32.513 33.5237H32.288V34.3112H34.4254V34.4237ZM32.288 32.0613H32.4005C33.3004 32.0613 33.4129 32.0613 33.6379 31.9488C33.8629 31.8363 34.0879 31.7238 34.2004 31.4988C34.3129 31.2738 34.4254 31.0488 34.4254 30.8238C34.4254 30.4863 34.3129 30.2613 34.2004 30.0363C34.0879 29.8114 33.7504 29.6989 33.4129 29.6989C33.3004 29.6989 33.6379 29.6989 33.4129 29.6989C33.188 29.6989 32.8505 29.6989 32.513 29.6989H32.288V32.0613ZM32.8505 44.9983C25.7632 44.8858 20.3634 39.261 20.5884 32.1738C20.8134 25.874 26.2132 20.1367 33.4129 20.4742C39.9377 20.8117 45.225 26.099 45.1125 33.1862C45 39.711 39.3752 45.1108 32.8505 44.9983ZM22.3884 32.7362C22.3884 38.4735 27.0007 43.1983 32.8505 43.3108C38.5877 43.3108 43.3126 38.586 43.4251 32.8487C43.4251 27.1115 38.8127 22.3866 32.963 22.3866C27.1132 22.2741 22.3884 26.999 22.3884 32.7362ZM12.2638 24.5241C5.28902 24.5241 -0.11077 19.0118 0.00172608 11.812C0.114222 5.51229 5.28902 0 12.3763 0C19.126 0 24.6383 5.62478 24.5258 12.5995C24.5258 19.3493 18.7885 24.6366 12.2638 24.5241ZM12.2638 1.68744C6.52648 1.68744 1.80166 6.41225 1.80166 12.037C1.80166 17.8868 6.41398 22.6116 12.2638 22.7241C18.001 22.7241 22.7259 17.9993 22.7259 12.262C22.8384 6.52475 18.1135 1.68744 12.2638 1.68744ZM6.41398 32.6237C6.86396 32.9612 7.20145 33.4112 7.65143 33.7487C8.10142 34.1987 8.66389 34.1987 9.00138 33.8612C9.33887 33.4112 9.33887 32.9612 8.88889 32.5113C7.98892 31.6113 7.08895 30.7113 6.18899 29.8114C5.62651 29.2489 5.28902 29.2489 4.61405 29.8114C3.71408 30.5988 2.81412 31.4988 1.91415 32.3988C1.46417 32.8487 1.35167 33.4112 1.68916 33.7487C2.02665 34.1987 2.58913 34.1987 3.03911 33.6362C3.48909 33.2987 3.82658 32.8487 4.38906 32.3988C4.38906 32.7362 4.38906 32.9612 4.38906 33.0737C4.38906 34.4237 4.38906 35.8861 4.38906 37.2361C4.38906 38.9235 5.62651 40.386 7.42644 40.386C9.78885 40.4984 12.1513 40.386 14.6262 40.386C14.7387 40.386 14.7387 40.386 14.8512 40.386C15.4136 40.2735 15.6386 39.936 15.6386 39.486C15.6386 39.036 15.4136 38.6985 14.8512 38.586C14.6262 38.586 14.4012 38.586 14.2887 38.586C12.1513 38.586 10.0138 38.586 7.87642 38.586C6.97646 38.586 6.30148 38.136 6.30148 37.3486C6.30148 35.8861 6.30148 34.1987 6.41398 32.6237ZM37.5753 11.2496C37.1253 10.7996 36.5628 10.6871 36.2253 11.1371C35.7754 11.5871 35.7754 12.037 36.3378 12.5995C37.2378 13.4995 38.1378 14.3994 39.0377 15.2994C39.6002 15.8619 39.9377 15.8619 40.5002 15.2994C41.4001 14.3994 42.4126 13.4995 43.3126 12.5995C43.7625 12.1495 43.875 11.5871 43.4251 11.2496C43.0876 10.7996 42.5251 10.9121 42.0751 11.3621C41.6251 11.812 41.2876 12.1495 40.7252 12.712C40.7252 12.262 40.7252 12.1495 40.7252 11.9245C40.7252 10.4621 40.7252 8.99965 40.7252 7.64971C40.5002 5.84978 39.2627 4.61232 37.6878 4.49983C35.4379 4.38733 33.0755 4.49983 30.8255 4.49983C29.8131 4.49983 29.4756 4.72482 29.4756 5.39979C29.4756 6.07477 29.8131 6.29976 30.8255 6.29976C32.963 6.29976 34.9879 6.29976 37.1253 6.29976C38.0253 6.29976 38.7002 6.74974 38.7002 7.53721C38.8127 9.22465 38.7002 10.7996 38.7002 12.5995C38.3628 12.037 37.9128 11.5871 37.5753 11.2496ZM18.7885 15.4119V8.88716C18.7885 8.43718 18.5635 8.21218 18.226 8.09969L12.4887 5.84978C12.2638 5.73728 11.9263 5.73728 11.7013 5.84978L6.07649 8.09969C5.73901 8.21218 5.51401 8.43718 5.51401 8.88716V15.4119C5.51401 15.8619 5.73901 16.0869 6.07649 16.3119C7.98892 17.0993 9.78885 17.8868 11.7013 18.7868C11.9263 18.8993 12.0388 18.8993 12.2638 18.8993C12.4887 18.8993 12.6012 18.8993 12.8262 18.7868C13.8387 18.3368 14.8512 17.8868 15.9761 17.4368L17.4386 16.7619C17.776 16.6494 18.001 16.5369 18.3385 16.3119C18.676 16.1994 18.901 15.8619 18.901 15.5244L18.7885 15.4119ZM17.2136 15.0744C15.8636 15.6369 14.4012 16.3119 13.0512 16.8744V12.037L17.2136 10.1246V15.0744ZM11.4763 12.037V16.8744L7.08895 14.9619C7.08895 13.4995 7.08895 11.9245 7.08895 10.4621V10.0121L11.4763 12.037ZM12.1513 7.31222C13.5012 7.8747 14.7387 8.32468 16.0886 8.88716C15.7511 8.99965 15.5261 9.11215 15.1886 9.22465C13.9512 8.66217 12.7137 8.09969 11.4763 7.53721C11.7013 7.42472 11.9263 7.42472 12.1513 7.31222ZM12.1513 10.6871L8.32641 8.88716L9.56386 8.32468L13.3887 10.1246L12.8262 10.3496C12.6012 10.4621 12.3763 10.5746 12.1513 10.6871Z" fill="url(#paint0_linear)"/>
<defs>
<linearGradient id="paint0_linear" x1="45.1466" y1="22.4991" x2="0.00172752" y2="22.4991" gradientUnits="userSpaceOnUse">
<stop stop-color="#2153DA"/>
<stop offset="1" stop-color="#072C8D"/>
</linearGradient>
</defs>
</svg>
