<svg width="50" height="45" viewBox="0 0 50 45" fill="none" xmlns="http://www.w3.org/2000/svg">
<path d="M28.125 13.8375V15.3H25.9875V16.425C25.9875 16.7625 25.7625 16.9875 25.425 16.9875H24.75C24.4125 16.9875 24.075 16.65 24.075 16.3125V15.1875H23.0625V13.725H24.075V12.9375H23.0625V11.3625H24.075V8.21253C24.075 7.76253 24.4125 7.42502 24.8625 7.42502H26.8875C27.9 7.42502 28.125 7.53753 28.575 7.65003C29.025 7.87503 29.3625 8.10003 29.7 8.55002C29.925 9.00002 30.15 9.56252 30.15 10.125C30.15 10.575 30.0375 11.025 29.925 11.3625C29.8125 11.7 29.7 11.925 29.475 12.15C29.25 12.375 29.025 12.4875 28.8 12.7125C28.575 12.9375 28.2375 12.9375 27.9 12.9375C27.5625 12.9375 27.7875 13.05 27.3375 13.05C26.8875 13.05 26.6625 13.05 26.2125 13.05H25.9875V13.8375H28.125ZM25.9875 11.475H26.1C27 11.475 27.1125 11.475 27.3375 11.3625C27.5625 11.25 27.7875 11.1375 27.9 10.9125C28.0125 10.6875 28.125 10.575 28.125 10.2375C28.125 9.90003 28.0125 9.67502 27.9 9.45002C27.7875 9.22502 27.45 9.11252 27.1125 9.11252C27.3375 9.11252 27 9.11252 27.1125 9.11252C26.8875 9.11252 26.55 9.11252 26.2125 9.11252H25.9875V11.475Z" fill="url(#paint0_linear)"/>
<path d="M8.10001 14.7375C8.10001 12.825 8.10001 11.025 8.10001 9C7.87501 9 7.65001 9 7.42501 9C6.86251 9 6.52501 8.6625 6.52501 8.1C6.52501 5.7375 6.52501 3.2625 6.52501 0.9C6.52501 0.3375 6.86251 0 7.42501 0C7.53751 0 7.76251 0 7.87501 0C19.0125 0 32.625 0 43.7625 0C44.8875 0 45.1125 0.225 45.1125 1.35C45.1125 3.15 45.1125 4.95 45.1125 6.75C45.1125 6.975 45.1125 7.0875 45.1125 7.3125C45.45 7.3125 45.675 7.3125 45.9 7.3125C46.35 7.3125 46.6875 7.65 46.6875 8.1C46.6875 10.575 46.6875 13.05 46.6875 15.4125C46.6875 15.975 46.35 16.2 45.9 16.2C45.675 16.2 45.45 16.2 45.1125 16.2C45.1125 16.425 45.1125 16.5375 45.1125 16.7625C45.1125 18.675 45.1125 20.5875 45.1125 22.5C45.1125 23.4 44.8875 23.625 43.9875 23.625C32.7375 23.625 19.0125 23.625 7.76251 23.625C6.86251 23.625 6.63751 23.4 6.63751 22.5C6.63751 20.25 6.63751 18.1125 6.63751 15.8625C6.63751 14.85 6.86251 14.625 7.87501 14.625C7.87501 14.7375 7.98751 14.7375 8.10001 14.7375ZM18.7875 22.05C22.6125 22.05 28.9125 22.05 32.625 22.05C32.625 20.1375 32.625 18.225 32.625 16.425C32.4 16.425 32.0625 16.425 31.8375 16.3125C31.8375 15.75 31.8375 15.3 31.8375 14.7375C32.625 14.7375 33.4125 14.7375 34.2 14.7375C34.2 12.825 34.2 10.9125 34.2 9C33.4125 9 32.625 9 31.8375 9C31.8375 8.4375 31.8375 7.875 31.8375 7.425C32.0625 7.425 32.4 7.425 32.625 7.425C32.625 5.5125 32.625 3.6 32.625 1.6875C28.8 1.6875 22.5 1.6875 18.7875 1.6875C18.7875 3.6 18.7875 5.5125 18.7875 7.425C19.575 7.425 20.3625 7.425 21.15 7.425C21.15 7.9875 21.15 8.4375 21.15 9C20.925 9 20.5875 9 20.3625 9.1125C20.3625 11.025 20.3625 12.9375 20.3625 14.7375C20.5875 14.7375 20.8125 14.7375 21.15 14.7375C21.15 15.3 21.15 15.75 21.15 16.3125C20.3625 16.3125 19.575 16.3125 18.7875 16.3125C18.7875 18.225 18.7875 20.1375 18.7875 22.05ZM43.3125 1.6875C40.275 1.6875 37.35 1.6875 34.3125 1.6875C34.3125 1.9125 34.3125 2.25 34.3125 2.475C37.35 2.475 40.275 2.475 43.3125 2.475C43.3125 2.1375 43.3125 1.9125 43.3125 1.6875ZM34.425 7.3125C37.4625 7.3125 40.3875 7.3125 43.425 7.3125C43.425 7.0875 43.425 6.75 43.425 6.525C40.3875 6.525 37.4625 6.525 34.425 6.525C34.425 6.8625 34.425 7.0875 34.425 7.3125ZM34.425 22.05C37.4625 22.05 40.3875 22.05 43.425 22.05C43.425 21.825 43.425 21.4875 43.425 21.2625C40.3875 21.2625 37.4625 21.2625 34.425 21.2625C34.425 21.6 34.425 21.825 34.425 22.05ZM34.425 16.425C34.3125 17.2125 34.3125 17.2125 35.1 17.2125C37.6875 17.2125 40.275 17.2125 42.75 17.2125C43.425 17.2125 43.5375 17.1 43.3125 16.425C40.3875 16.425 37.35 16.425 34.425 16.425ZM34.425 19.575C37.4625 19.575 40.3875 19.575 43.425 19.575C43.425 19.35 43.425 19.125 43.425 18.9C40.3875 18.9 37.4625 18.9 34.425 18.9C34.425 19.125 34.425 19.35 34.425 19.575ZM17.1 1.6875C14.0625 1.6875 11.1375 1.6875 8.21251 1.6875C8.21251 1.9125 8.21251 2.25 8.21251 2.475C11.25 2.475 14.175 2.475 17.1 2.475C17.1 2.1375 17.1 1.9125 17.1 1.6875ZM8.21251 7.3125C11.25 7.3125 14.175 7.3125 17.1 7.3125C17.1 7.0875 17.1 6.75 17.1 6.525C14.0625 6.525 11.1375 6.525 8.21251 6.525C8.21251 6.8625 8.21251 7.0875 8.21251 7.3125ZM18.7875 9C15.75 9 12.825 9 9.78751 9C9.78751 9.225 9.78751 9.45 9.78751 9.7875C12.825 9.7875 15.75 9.7875 18.675 9.7875C18.7875 9.5625 18.7875 9.3375 18.7875 9ZM45 9C41.9625 9 39.0375 9 36 9C36 9.225 36 9.45 36 9.7875C39.0375 9.7875 41.9625 9.7875 45 9.7875C45 9.5625 45 9.3375 45 9ZM9.78751 11.475C9.78751 11.8125 9.78751 12.0375 9.78751 12.2625C12.825 12.2625 15.75 12.2625 18.675 12.2625C18.675 12.0375 18.675 11.7 18.675 11.475C15.75 11.475 12.825 11.475 9.78751 11.475ZM45 11.475C41.9625 11.475 39.0375 11.475 36.1125 11.475C36.1125 11.7 36.1125 12.0375 36.1125 12.2625C39.15 12.2625 42.075 12.2625 45 12.2625C45 12.0375 45 11.8125 45 11.475ZM18.7875 13.95C15.75 13.95 12.825 13.95 9.78751 13.95C9.78751 14.175 9.78751 14.4 9.78751 14.7375C12.825 14.7375 15.75 14.7375 18.7875 14.7375C18.7875 14.4 18.7875 14.175 18.7875 13.95ZM36 14.7375C39.0375 14.7375 41.9625 14.7375 44.8875 14.7375C44.8875 14.5125 44.8875 14.2875 44.8875 13.95C41.85 13.95 38.925 13.95 36 13.95C36 14.175 36 14.4 36 14.7375ZM8.21251 17.1C11.25 17.1 14.175 17.1 17.1 17.1C17.1 16.875 17.1 16.5375 17.1 16.3125C14.0625 16.3125 11.1375 16.3125 8.21251 16.3125C8.21251 16.65 8.21251 16.875 8.21251 17.1ZM17.1 18.9C14.0625 18.9 11.1375 18.9 8.21251 18.9C8.21251 19.125 8.21251 19.35 8.21251 19.6875C11.25 19.6875 14.175 19.6875 17.1 19.6875C17.1 19.35 17.1 19.125 17.1 18.9ZM17.1 21.2625C14.0625 21.2625 11.1375 21.2625 8.21251 21.2625C8.21251 21.4875 8.21251 21.7125 8.21251 22.05C11.25 22.05 14.175 22.05 17.1 22.05C17.1 21.825 17.1 21.6 17.1 21.2625ZM34.425 4.8375C34.65 4.8375 34.7625 4.8375 34.9875 4.8375C37.575 4.8375 40.1625 4.8375 42.75 4.8375C43.425 4.8375 43.5375 4.8375 43.3125 4.05C40.3875 4.05 37.35 4.05 34.425 4.05C34.425 4.3875 34.425 4.6125 34.425 4.8375ZM8.21251 4.8375C11.25 4.8375 14.175 4.8375 17.1 4.8375C17.1 4.6125 17.1 4.3875 17.1 4.1625C14.0625 4.1625 11.1375 4.1625 8.21251 4.1625C8.21251 4.3875 8.21251 4.6125 8.21251 4.8375Z" fill="url(#paint1_linear)"/>
<path d="M9.7875 30.2625C10.4625 30.2625 11.1375 30.2625 11.7 30.2625C11.8125 30.2625 12.0375 30.15 12.15 30.0375C13.3875 28.0125 15.075 27.1125 17.4375 27.1125C21.375 27.1125 25.3125 27.1125 29.1375 27.1125C30.825 27.1125 32.175 27.7875 32.9625 29.3625C33.525 30.375 33.525 31.5 33.1875 32.625C33.1875 32.7375 33.075 32.85 33.075 32.9625C33.075 32.9625 33.075 32.9625 33.075 33.075C33.3 32.9625 33.4125 32.9625 33.525 32.85C36.7875 31.3875 40.05 29.8125 43.3125 28.35C44.8875 27.5625 46.4625 27.675 47.925 28.8C50.0625 30.4875 49.8375 33.975 47.475 35.325C46.125 36.1125 44.6625 36.675 43.3125 37.35C39.9375 38.925 36.675 40.5 33.3 41.9625C32.4 42.4125 31.5 42.6375 30.4875 42.6375C23.7375 42.6375 17.1 42.6375 10.35 42.6375C10.125 42.6375 9.9 42.6375 9.675 42.6375C9.675 43.0875 9.675 43.5375 9.675 43.9875C9.675 44.775 9.3375 45 8.6625 45C6.075 45 3.4875 45 0.9 45C0.225 45 0 44.6625 0 43.9875C0 38.7 0 33.4125 0 28.125C0 27.225 0.225 27 1.0125 27C3.6 27 6.1875 27 8.6625 27C9.45 27 9.675 27.3375 9.675 28.125C9.9 28.8 9.7875 29.475 9.7875 30.2625ZM9.9 40.95C10.125 40.95 10.35 40.95 10.575 40.95C17.325 40.95 24.075 40.95 30.7125 40.95C31.3875 40.95 32.0625 40.725 32.7375 40.5C34.7625 39.6 36.675 38.7 38.5875 37.8C41.175 36.5625 43.65 35.4375 46.2375 34.2C47.8125 33.4125 48.375 31.725 47.3625 30.4875C46.6875 29.475 45.45 29.25 44.2125 29.8125C40.725 31.5 37.125 33.075 33.6375 34.7625C32.85 35.1 31.95 35.325 31.05 35.325C28.2375 35.325 25.425 35.325 22.725 35.325C22.5 35.325 22.3875 35.325 22.1625 35.325C22.1625 34.7625 22.1625 34.2 22.1625 33.75C22.3875 33.75 22.6125 33.75 22.725 33.75C24.8625 33.75 27 33.75 29.1375 33.75C29.7 33.75 30.375 33.6375 30.825 33.3C31.725 32.7375 32.0625 31.6125 31.725 30.6C31.3875 29.475 30.4875 28.8 29.25 28.8C25.2 28.8 21.15 28.8 17.1 28.8C15.3 28.8 14.0625 29.7 13.3875 31.275C13.1625 31.8375 12.825 32.0625 12.15 32.0625C11.3625 32.0625 10.575 32.0625 9.7875 32.0625C9.9 34.875 9.9 37.9125 9.9 40.95ZM8.1 43.3125C8.1 38.3625 8.1 33.525 8.1 28.6875C5.9625 28.6875 3.825 28.6875 1.6875 28.6875C1.6875 33.6375 1.6875 38.475 1.6875 43.3125C3.825 43.3125 5.9625 43.3125 8.1 43.3125Z" fill="url(#paint2_linear)"/>
<defs>
<linearGradient id="paint0_linear" x1="4.08011e-08" y1="32.5" x2="49" y2="31.5" gradientUnits="userSpaceOnUse">
<stop stop-color="#072C8D"/>
<stop offset="1" stop-color="#2153DA"/>
</linearGradient>
<linearGradient id="paint1_linear" x1="4.08011e-08" y1="32.5" x2="49" y2="31.5" gradientUnits="userSpaceOnUse">
<stop stop-color="#072C8D"/>
<stop offset="1" stop-color="#2153DA"/>
</linearGradient>
<linearGradient id="paint2_linear" x1="4.08011e-08" y1="32.5" x2="49" y2="31.5" gradientUnits="userSpaceOnUse">
<stop stop-color="#072C8D"/>
<stop offset="1" stop-color="#2153DA"/>
</linearGradient>
</defs>
</svg>
