<svg width="45" height="45" viewBox="0 0 45 45" fill="none" xmlns="http://www.w3.org/2000/svg">
<path d="M11.2219 16.4963C11.2219 16.8329 11.5586 17.1696 11.8953 17.1696H12.5686C12.9052 17.1696 13.1297 16.9451 13.1297 16.6085V15.4863H15.2618V14.0274H13.1297V13.2419H13.4663C13.803 13.2419 14.1397 13.2419 14.4763 13.2419C14.813 13.2419 14.7007 13.2419 15.0374 13.1297C15.3741 13.0175 15.7107 13.0175 15.9352 12.9052C16.1596 12.793 16.4963 12.5686 16.6085 12.4564C16.8329 12.2319 16.9451 12.0075 17.0574 11.6708C17.1696 11.3342 17.2818 10.9975 17.2818 10.4364C17.2818 9.87531 17.1696 9.31421 16.8329 8.97756C16.4963 8.52868 16.1596 8.19202 15.7107 8.0798C15.2618 7.85536 15.0374 7.85536 14.0274 7.85536H12.0075C11.5586 7.63092 11.2219 7.96758 11.2219 8.41646V11.6708H10.212V13.2419H11.2219V14.0274H10.212V15.4863H11.2219V16.4963ZM13.1297 9.202H13.3541C13.803 9.202 14.0274 9.202 14.2519 9.202C14.4763 9.202 14.1397 9.202 14.2519 9.202C14.5885 9.202 14.813 9.42643 15.0374 9.53865C15.1496 9.76309 15.2618 9.98753 15.2618 10.3242C15.2618 10.6608 15.1496 10.8853 15.0374 10.9975C14.9252 11.2219 14.7007 11.3342 14.4763 11.4464C14.2519 11.5586 14.1397 11.5586 13.2419 11.5586H13.1297V9.202ZM43.4289 38.7157C43.4289 37.818 43.2045 37.5935 42.3067 37.4813C42.1945 37.4813 42.0823 37.4813 41.9701 37.4813V32.3192C41.9701 28.3915 41.9701 24.4638 41.9701 20.5362C41.9701 18.7407 41.5212 17.394 40.399 16.2718C39.389 15.2618 38.4913 14.2519 37.4813 13.3541C37.0324 12.9052 36.5835 12.4564 36.1347 12.0075C36.1347 12.0075 36.0224 11.8953 36.0224 11.783C36.1347 11.783 36.1347 11.783 36.2469 11.783C37.3691 11.783 38.6035 11.783 39.8379 11.6708C42.6434 11.3342 44.8878 8.75312 44.8878 5.94763C44.8878 2.58105 42.3067 0 38.8279 0C29.9626 0.112219 20.6484 0.112219 11.1097 0.112219C10.5486 0.112219 9.98753 0.112219 9.53865 0.336658C6.73317 1.00998 5.04988 3.25436 5.04988 6.17207C5.04988 12.793 5.04988 19.414 5.04988 26.1471V33.217C4.93766 33.217 4.93766 33.217 4.82544 33.217C3.25436 33.5536 1.79551 34.4514 0.897756 35.9102C0 37.3691 -0.224439 39.0524 0.224439 40.6234C1.00998 43.3167 3.25436 45 6.17207 45C8.75312 45 11.3342 45 13.9152 45C18.6284 45 23.3416 45 27.9426 45C29.0648 45 30.2993 44.8878 31.5337 44.3267C31.6459 44.7756 31.9825 45 32.5436 45H35.9102C38.0424 45 40.1746 45 42.419 45C43.0923 45 43.4289 44.6633 43.4289 43.8778C43.4289 43.5411 43.4289 43.0923 43.4289 42.7556V41.0723C43.4289 40.2868 43.4289 39.5012 43.4289 38.7157ZM42.98 6.95761C42.5312 8.6409 40.9601 9.98753 39.2768 10.0998C38.2668 10.0998 37.1446 10.0998 36.0224 10.0998C35.5736 10.0998 35.1247 10.0998 34.5636 10.0998C34.5636 9.53865 34.5636 9.08978 34.5636 8.52868C34.5636 7.29426 34.5636 6.05985 34.788 4.82544C35.0125 3.81546 35.5736 3.02993 36.4713 2.46883C37.4813 1.90773 38.6035 1.68329 39.6135 1.90773C42.1945 2.58105 43.5411 4.71322 42.98 6.95761ZM31.6459 41.7456C31.6459 42.0823 31.5337 42.3067 31.197 42.5312C29.5137 43.6534 27.1571 43.4289 25.8105 41.8579C24.3516 40.2868 24.3516 37.9302 25.6983 36.3591C26.4838 35.4613 27.4938 35.0125 28.7282 34.9002C28.9526 34.9002 29.0648 34.9002 29.2893 34.788C29.6259 34.6758 29.8504 34.3392 29.7382 33.8903C29.6259 33.4414 29.4015 33.217 29.0648 33.217C28.9526 33.217 28.8404 33.217 28.616 33.217C28.616 33.217 28.616 33.217 28.5037 33.217H6.73317V26.2594C6.73317 19.6384 6.73317 13.0175 6.73317 6.39651C6.73317 4.48878 7.5187 3.14214 9.08978 2.35661C9.65087 2.13217 10.3242 1.90773 10.9975 1.90773C17.2818 1.90773 23.5661 1.90773 29.7382 1.90773H34.788C34.788 1.90773 34.788 1.90773 34.788 2.01995C33.5536 3.25436 32.9925 4.71322 32.9925 6.50873C32.9925 11.4464 32.9925 16.2718 32.9925 21.2095V25.1372C32.9925 25.2494 32.9925 25.4738 32.9925 25.586C32.8803 25.9227 32.6559 26.1471 32.4314 26.0349C32.0948 26.0349 31.8703 25.8105 31.8703 25.4738C31.8703 25.0249 31.8703 24.5761 31.8703 24.1272C31.8703 23.9027 31.8703 23.6783 31.8703 23.4539C31.8703 23.2294 31.8703 22.8928 31.8703 22.6683C31.8703 21.995 31.8703 21.3217 31.8703 20.6484C31.7581 19.3017 30.6359 18.2918 29.2893 18.2918C27.9426 18.2918 26.8204 19.3017 26.7082 20.5362C26.596 21.0973 26.7082 21.5461 26.7082 22.1072V22.2195C26.7082 22.5561 26.7082 23.005 26.7082 23.3416C26.7082 24.4638 26.7082 25.6983 26.7082 26.9327C26.8204 28.616 27.3815 30.0748 28.616 31.3092C29.4015 32.0948 30.187 32.9925 30.9726 33.7781L31.7581 34.5636C32.6559 35.4613 33.1047 36.4713 33.1047 37.5935C32.9925 37.5935 32.8803 37.5935 32.7681 37.5935C31.9825 37.5935 31.6459 37.9302 31.6459 38.7157C31.6459 38.9402 31.6459 39.2768 31.6459 39.5012C31.5337 40.1746 31.5337 40.9601 31.6459 41.7456ZM40.1746 37.3691C40.1746 37.4813 40.1746 37.4813 40.1746 37.3691L34.788 37.4813C34.788 37.3691 34.788 37.2569 34.6758 37.0324C34.5636 36.6958 34.5636 36.2469 34.4514 35.9102C34.2269 34.9002 33.6658 34.0025 32.7681 33.217L32.207 32.6559C31.4214 31.8703 30.5237 30.9726 29.7382 30.0748C28.8404 29.0648 28.2793 27.8304 28.2793 26.2594C28.2793 24.3516 28.2793 22.4439 28.2793 20.8728C28.2793 20.1995 28.616 19.8628 29.1771 19.7506C29.4015 19.7506 29.6259 19.8628 29.8504 19.9751C30.0748 20.1995 30.187 20.4239 30.187 20.8728C30.187 21.5461 30.187 22.2195 30.187 22.7806C30.187 23.5661 30.187 24.3516 30.187 25.1372C30.187 26.3716 30.8603 27.2693 31.8703 27.4938C32.5436 27.606 33.3292 27.4938 33.8903 27.0449C34.4514 26.596 34.788 25.9227 34.788 25.1372C34.788 23.9027 34.788 22.5561 34.788 21.3217V19.414C35.0125 19.6384 35.2369 19.8628 35.4613 20.0873L35.5736 20.1995L36.9202 18.9651L36.3591 18.5162C35.9102 18.0673 35.4613 17.7307 35.1247 17.2818C34.788 17.2818 34.788 17.0574 34.788 16.9451C34.788 15.9352 34.788 14.9252 34.788 14.0274V13.1297L35.798 14.1397C36.9202 15.2618 38.0424 16.4963 39.1646 17.6185C39.8379 18.2918 40.1746 19.1895 40.1746 20.3117C40.1746 24.6883 40.1746 29.0648 40.1746 33.4414V37.3691ZM24.6883 43.2045H24.5761H21.7706C16.6085 43.2045 11.4464 43.2045 6.17207 43.2045C4.0399 43.2045 2.46883 42.0823 1.90773 39.9501C1.57107 38.9401 1.79551 37.7057 2.46883 36.6958C3.14214 35.6858 4.15212 35.0125 5.16209 34.9002C5.49875 34.9002 5.83541 34.9002 6.28429 34.9002C9.65087 34.9002 13.0175 34.9002 16.384 34.9002C17.7307 34.9002 19.0773 34.9002 20.4239 34.9002H24.6883C23.5661 36.0224 23.005 37.4813 23.005 39.0524C23.005 40.5112 23.5661 42.0823 24.6883 43.2045ZM33.3292 43.2045V39.2768H41.6334V43.2045H33.3292ZM30.4115 13.3541H20.0873V11.6708H30.4115V13.3541ZM20.0873 14.4763H30.4115V16.1596H20.0873V14.4763ZM9.31421 27.4938H21.0973V29.1771H9.31421V27.4938ZM9.31421 24.5761H18.1796V26.2594H9.31421V24.5761ZM27.4938 10.4364H20.0873V8.75312H27.4938V10.4364ZM12.2319 21.7706H21.0973V23.4539H12.2319V21.7706ZM21.0973 24.5761V26.2594H19.414V24.5761H21.0973ZM30.4115 10.4364H28.7282V8.75312H30.4115V10.4364ZM10.9975 23.3416H9.31421V21.6584H10.9975V23.3416Z" fill="url(#paint0_linear)"/>
<defs>
<linearGradient id="paint0_linear" x1="44.8275" y1="22.5561" x2="0" y2="22.5561" gradientUnits="userSpaceOnUse">
<stop stop-color="#2153DA"/>
<stop offset="1" stop-color="#072C8D"/>
</linearGradient>
</defs>
</svg>
