<svg width="17" height="15" viewBox="0 0 17 15" fill="none" xmlns="http://www.w3.org/2000/svg">
<path d="M16.58 6.38L13.82 9.18C13.66 9.34 13.46 9.42 13.24 9.42C13.02 9.42 12.82 9.34 12.66 9.18L9.9 6.38C9.6 6.06 9.6 5.56 9.9 5.24C10.22 4.94 10.72 4.94 11.04 5.24L12.58 6.8C12.38 3.9 10 1.6 7.1 1.6C4.06 1.6 1.6 4.12 1.6 7.2C1.6 10.28 4.06 12.8 7.1 12.8C8.22 12.8 9.3 12.46 10.2 11.82C10.56 11.56 11.06 11.66 11.32 12.02C11.58 12.38 11.48 12.88 11.12 13.14C9.93999 13.96 8.54 14.4 7.1 14.4C3.18 14.4 0 11.18 0 7.2C0 3.22 3.18 0 7.1 0C10.78 0 13.82 2.86 14.16 6.52L15.42 5.24C15.74 4.92 16.24 4.92 16.56 5.24C16.88 5.56 16.88 6.06 16.58 6.38Z" fill="#84D04F"/>
</svg>
