<svg width="1920" height="925" viewBox="0 0 1920 925" fill="none" xmlns="http://www.w3.org/2000/svg">
<path d="M0 0H1920V733C1920 733 1506.5 925 960 925C413.5 925 0 733 0 733V0Z" fill="url(#paint0_linear)"/>
<mask id="mask0" mask-type="alpha" maskUnits="userSpaceOnUse" x="0" y="0" width="1920" height="925">
<path d="M0 0H1920V733C1920 733 1506.5 925 960 925C413.5 925 0 733 0 733V0Z" fill="url(#paint1_linear)"/>
</mask>
<g mask="url(#mask0)">
<path d="M1970.97 1491.31L1931.94 1468.72L1971.79 1445.72L1972.2 1445.31V1398.9L2010.41 1421.08V1418.61L1973.43 1397.26L2010.41 1375.9V1373.44L1972.2 1395.62V1350.44L2010.41 1328.26V1325.8L1971.38 1348.39L1932.35 1325.8L1971.38 1303.21L2010.41 1325.8V1323.33L1972.2 1301.16V1255.98L2010.41 1278.16V1275.69L1973.43 1254.34L2010.41 1232.98V1230.52L1972.2 1252.7V1207.52L2010.41 1185.34V1182.88L1971.38 1205.47L1932.35 1182.88L1971.38 1160.29L2010.41 1182.88V1180.41L1972.2 1158.24V1113.06L2010.41 1135.24V1132.77L1973.43 1111.42L2010.41 1090.06V1087.6L1972.2 1109.78V1064.6L2010.41 1042.42V1039.96L1971.38 1062.55L1932.35 1039.96L1971.38 1017.37L2010.41 1039.96V1037.5L1972.2 1015.32V970.142L2010.41 992.319V989.855L1973.43 968.499L2010.41 947.143V944.679L1972.2 966.857V921.681L2010.41 899.503V897.039L1971.38 919.627L1939.33 901.146L1932.35 897.039L1971.38 874.451L2010.41 897.039V894.575L1972.2 872.398V827.222L2010.41 849.399V846.935L1973.43 825.579L2010.41 804.224V801.759L1972.2 823.937V778.761L2010.41 756.584V754.941L1971.38 777.529L1932.35 754.941L1971.38 732.353L2010.41 754.941V752.477L1972.2 730.3V685.124L2010.41 707.301V704.837L1973.43 683.481L2010.41 662.125V659.661L1972.2 681.838V636.662L2010.41 614.485V612.021L1971.38 634.609L1932.35 612.021L1971.38 589.433L2010.41 612.021V609.557L1972.2 587.38V542.204L2010.41 564.381V561.917L1973.43 540.561L2010.41 519.205V516.741L1972.2 538.918V493.743L2010.41 471.565V469.101L1971.38 491.689L1939.33 473.208L1932.35 469.101L1971.38 446.513L2010.41 469.101V466.637L1972.2 444.46V399.284L2010.41 421.461V418.997L1972.2 396.82L1970.15 395.588L1929.47 373L1889.21 395.999H1887.16L1847.31 373L1807.04 395.999H1804.99L1764.73 373L1724.46 395.999H1722.41L1682.15 373L1641.88 395.999H1639.83L1599.98 373L1559.72 395.999H1557.66L1517.4 373L1477.14 395.999H1475.08L1434.82 373L1394.56 395.999H1392.5L1352.65 373L1312.39 395.999H1310.33L1270.07 373L1229.81 395.999H1227.75L1187.49 373L1147.23 395.999H1145.17L1105.32 373L1065.06 395.999H1063.01L1022.74 373L982.48 395.999H980.426L940.163 373L899.901 395.999H897.846L857.995 373L817.732 395.999H815.678L775.415 373L735.152 395.999H733.098L692.835 373L652.573 395.999H650.518L610.256 373L569.993 395.999H567.939L528.087 373L487.824 395.999H485.77L445.508 373L405.245 395.999H403.191L362.928 373L322.665 395.999H320.611L280.759 373L240.497 395.999H238.442L198.18 373L157.917 395.999H155.863L115.6 373L75.3374 395.999H73.2832L33.4314 373L-6.83128 395.999H-8.8855L-49.1482 373L-89 395.999V398.463L-49.1482 375.464L-10.118 398.052L-49.9699 421.051L-50.3807 421.461V467.459L-89 445.281V447.745L-51.2024 469.512L-89 491.278V493.743L-49.9699 471.155V516.331L-89 538.918V543.025L-49.9699 565.613V610.789L-52.4349 609.557L-89 587.79V590.255L-53.6674 610.789L-51.2024 612.021L-89 633.788V636.252L-49.9699 613.664V658.84L-89 681.428V685.534L-49.9699 708.122V753.298L-53.2566 751.245L-89 730.71V733.174L-54.4891 753.298L-51.2024 754.941L-89 776.707V779.172L-49.9699 756.584V801.759L-89 824.347V828.454L-49.9699 851.042V896.218L-89 873.219V875.684L-51.2024 897.45L-89 919.627V922.091L-49.9699 899.503V944.679L-89 966.857V970.963L-49.9699 993.551V1038.73L-89 1016.14V1018.6L-51.2024 1040.37L-89 1062.14V1064.6L-49.9699 1042.01V1087.19L-89 1109.78V1113.88L-49.9699 1136.47V1181.65L-56.9542 1177.54L-89 1159.06V1161.52L-53.6674 1182.06L-51.2024 1183.29L-89 1205.06V1207.52L-49.9699 1184.93V1230.11L-89 1252.7V1256.8L-49.9699 1279.39V1324.57L-53.2566 1322.51L-89 1301.98V1304.44L-54.4891 1324.57L-51.2024 1326.62L-89 1347.57V1350.03L-49.9699 1327.44V1372.62L-89 1395.21V1399.31L-49.9699 1421.9V1467.08L-89 1444.49V1446.95L-51.2024 1468.72L-89 1490.49V1492.95L-49.9699 1470.36V1516.77L-9.70718 1539.77L-7.65297 1541L-5.59875 1539.77L33.4314 1517.18L72.4615 1539.77L74.5157 1541L76.57 1539.77L115.6 1517.18L154.63 1539.77L156.684 1541L158.739 1539.77L197.769 1517.18L236.799 1539.77L238.853 1541L240.907 1539.77L279.938 1517.18L318.968 1539.77L321.022 1541L323.076 1539.77L362.106 1517.18L401.136 1539.77L403.191 1541L405.245 1539.77L444.275 1517.18L483.305 1539.77L485.359 1541L487.414 1539.77L526.444 1517.18L565.474 1539.77L567.528 1541L569.582 1539.77L608.612 1517.18L647.643 1539.77L649.697 1541L651.751 1539.77L690.781 1517.18L729.811 1539.77L731.866 1541L733.92 1539.77L772.95 1517.18L811.98 1539.77L814.034 1541L816.089 1539.77L855.119 1517.18L894.149 1539.77L896.203 1541L898.257 1539.77L937.287 1517.18L976.317 1539.77L978.372 1541L980.426 1539.77L1019.46 1517.18L1058.49 1539.77L1060.54 1541L1062.59 1539.77L1101.62 1517.18L1140.65 1539.77L1142.71 1541L1144.76 1539.77L1183.79 1517.18L1222.82 1539.77L1224.88 1541L1226.93 1539.77L1265.96 1517.18L1304.99 1539.77L1307.05 1541L1309.1 1539.77L1348.13 1517.18L1387.16 1539.77L1389.22 1541L1391.27 1539.77L1430.3 1517.18L1469.33 1539.77L1471.38 1541L1473.44 1539.77L1512.47 1517.18L1551.5 1539.77L1553.55 1541L1555.61 1539.77L1594.64 1517.18L1633.67 1539.77L1635.72 1541L1637.78 1539.77L1676.81 1517.18L1715.84 1539.77L1717.89 1541L1719.94 1539.77L1758.97 1517.18L1798 1539.77L1800.06 1541L1802.11 1539.77L1841.14 1517.18L1880.17 1539.77L1882.23 1541L1884.28 1539.77L1924.13 1516.77L1924.54 1516.36V1469.95L1964.81 1492.95L2003.84 1470.36V1467.9L1970.97 1491.31ZM1969.74 1350.44V1395.62L1930.71 1373.03V1327.85L1969.74 1350.44ZM1856.34 901.557L1849.36 897.45L1888.39 874.862L1927.42 897.45L1888.39 920.038L1856.34 901.557ZM1887.57 922.091V967.267L1848.54 944.679V899.503L1887.57 922.091ZM1848.13 895.807V850.632L1887.16 828.044V873.219L1848.13 895.807ZM1887.57 824.347L1848.54 801.759V756.584L1887.57 779.172V824.347ZM1886.34 826.401L1847.31 848.989L1808.28 826.401L1847.31 803.813L1886.34 826.401ZM1846.07 801.759L1807.04 824.347V779.172L1846.07 756.584V801.759ZM1846.07 850.632V895.807L1807.04 873.219V828.044L1846.07 850.632ZM1845.25 897.45L1806.22 920.038L1774.18 901.557L1767.19 897.45L1806.22 874.862L1845.25 897.45ZM1846.07 899.503V944.679L1807.04 967.267V922.091L1846.07 899.503ZM1804.99 922.091V967.267L1765.96 944.679V899.503L1804.99 922.091ZM1765.96 895.807V850.632L1804.99 828.044V873.219L1765.96 895.807ZM1804.99 824.347L1765.96 801.759V756.584L1804.99 779.172V824.347ZM1803.76 826.401L1764.73 848.989L1725.7 826.401L1764.73 803.813L1803.76 826.401ZM1763.9 801.759L1724.87 824.347V779.172L1763.9 756.584V801.759ZM1763.9 850.632V895.807L1724.87 873.219V828.044L1763.9 850.632ZM1762.67 897.45L1723.64 920.038L1691.6 901.557L1684.61 897.45L1723.64 874.862L1762.67 897.45ZM1763.9 899.503V944.679L1724.87 967.267V922.091L1763.9 899.503ZM1722.41 922.091V967.267L1683.38 944.679V899.503L1722.41 922.091ZM1683.38 895.807V850.632L1722.41 828.044V873.219L1683.38 895.807ZM1722.41 824.347L1683.38 801.759V756.584L1722.41 779.172V824.347ZM1721.59 826.401L1682.56 848.989L1643.53 826.401L1682.56 803.813L1721.59 826.401ZM1681.33 801.759L1642.29 824.347V779.172L1681.33 756.584V801.759ZM1681.33 850.632V895.807L1642.29 873.219V828.044L1681.33 850.632ZM1680.09 897.45L1641.06 920.038L1609.02 901.557L1602.03 897.45L1641.06 874.862L1680.09 897.45ZM1681.33 899.503V944.679L1642.29 967.267V922.091L1681.33 899.503ZM1640.24 922.091V967.267L1601.21 944.679V899.503L1640.24 922.091ZM1600.8 895.807V850.632L1639.83 828.044V873.219L1600.8 895.807ZM1640.24 824.347L1601.21 801.759V756.584L1640.24 779.172V824.347ZM1639.01 826.401L1599.98 848.989L1560.95 826.401L1599.98 803.813L1639.01 826.401ZM1598.75 801.759L1559.72 824.347V779.172L1598.75 756.584V801.759ZM1598.75 850.632V895.807L1559.72 873.219V828.044L1598.75 850.632ZM1597.92 897.45L1558.89 920.038L1526.85 901.557L1519.86 897.45L1558.89 874.862L1597.92 897.45ZM1598.75 899.503V944.679L1559.72 967.267V922.091L1598.75 899.503ZM1557.66 922.091V967.267L1518.63 944.679V899.503L1557.66 922.091ZM1518.22 895.807V850.632L1557.25 828.044V873.219L1518.22 895.807ZM1557.66 824.347L1518.63 801.759V756.584L1557.66 779.172V824.347ZM1556.43 826.401L1517.4 848.989L1478.37 826.401L1517.4 803.813L1556.43 826.401ZM1516.17 801.759L1477.14 824.347V779.172L1516.17 756.584V801.759ZM1516.17 850.632V895.807L1477.14 873.219V828.044L1516.17 850.632ZM1515.34 897.45L1476.31 920.038L1444.27 901.557L1437.28 897.45L1476.31 874.862L1515.34 897.45ZM1516.17 899.503V944.679L1477.14 967.267V922.091L1516.17 899.503ZM1475.08 922.091V967.267L1436.05 944.679V899.503L1475.08 922.091ZM1436.05 895.807V850.632L1475.08 828.044V873.219L1436.05 895.807ZM1475.08 824.347L1436.05 801.759V756.584L1475.08 779.172V824.347ZM1474.26 826.401L1435.23 848.989L1396.2 826.401L1435.23 803.813L1474.26 826.401ZM1434 801.759L1394.97 824.347V779.172L1434 756.584V801.759ZM1434 850.632V895.807L1394.97 873.219V828.044L1434 850.632ZM1432.76 897.45L1393.73 920.038L1361.69 901.557L1354.7 897.45L1393.73 874.862L1432.76 897.45ZM1434 899.503V944.679L1394.97 967.267V922.091L1434 899.503ZM1392.5 922.091V967.267L1353.47 944.679V899.503L1392.5 922.091ZM1353.47 895.807V850.632L1392.5 828.044V873.219L1353.47 895.807ZM1392.5 824.347L1353.47 801.759V756.584L1392.5 779.172V824.347ZM1391.68 826.401L1352.65 848.989L1313.62 826.401L1352.65 803.813L1391.68 826.401ZM1351.42 801.759L1312.39 824.347V779.172L1351.42 756.584V801.759ZM1351.42 850.632V895.807L1312.39 873.219V828.044L1351.42 850.632ZM1350.6 897.45L1311.57 920.038L1279.52 901.557L1272.54 897.45L1311.57 874.862L1350.6 897.45ZM1351.42 899.503V944.679L1312.39 967.267V922.091L1351.42 899.503ZM1310.33 922.091V967.267L1271.3 944.679V899.503L1310.33 922.091ZM1270.89 895.807V850.632L1309.92 828.044V873.219L1270.89 895.807ZM1310.33 824.347L1271.3 801.759V756.584L1310.33 779.172V824.347ZM1309.1 826.401L1270.07 848.989L1231.04 826.401L1270.07 803.813L1309.1 826.401ZM1268.84 801.759L1229.81 824.347V779.172L1268.84 756.584V801.759ZM1268.84 850.632V895.807L1229.81 873.219V828.044L1268.84 850.632ZM1268.02 897.45L1228.99 920.038L1196.94 901.557L1189.96 897.45L1228.99 874.862L1268.02 897.45ZM1268.84 899.503V944.679L1229.81 967.267V922.091L1268.84 899.503ZM1227.75 922.091V967.267L1188.72 944.679V899.503L1227.75 922.091ZM1188.72 895.807V850.632L1227.75 828.044V873.219L1188.72 895.807ZM1227.75 824.347L1188.72 801.759V756.584L1227.75 779.172V824.347ZM1226.93 826.401L1187.9 848.989L1148.87 826.401L1187.9 803.813L1226.93 826.401ZM1186.67 801.759L1147.64 824.347V779.172L1186.67 756.584V801.759ZM1186.67 850.632V895.807L1147.64 873.219V828.044L1186.67 850.632ZM1185.44 897.45L1146.41 920.038L1114.36 901.557L1107.38 897.45L1146.41 874.862L1185.44 897.45ZM1186.67 899.503V944.679L1147.64 967.267V922.091L1186.67 899.503ZM1145.17 922.091V967.267L1106.14 944.679V899.503L1145.17 922.091ZM1106.14 895.807V850.632L1145.17 828.044V873.219L1106.14 895.807ZM1145.17 824.347L1106.14 801.759V756.584L1145.17 779.172V824.347ZM1144.35 826.401L1105.32 848.989L1066.29 826.401L1105.32 803.813L1144.35 826.401ZM1104.09 801.759L1065.06 824.347V779.172L1104.09 756.584V801.759ZM1104.09 850.632V895.807L1065.06 873.219V828.044L1104.09 850.632ZM1103.27 897.45L1064.24 920.038L1032.19 901.557L1025.21 897.45L1064.24 874.862L1103.27 897.45ZM1104.09 899.503V944.679L1065.06 967.267V922.091L1104.09 899.503ZM1063.01 922.091V967.267L1023.98 944.679V899.503L1063.01 922.091ZM1023.56 895.807V850.632L1062.59 828.044V873.219L1023.56 895.807ZM1063.01 824.347L1023.98 801.759V756.584L1063.01 779.172V824.347ZM1061.77 826.401L1022.74 848.989L983.713 826.401L1022.74 803.813L1061.77 826.401ZM1021.51 801.759L982.48 824.347V779.172L1021.51 756.584V801.759ZM1021.51 850.632V895.807L982.48 873.219V828.044L1021.51 850.632ZM1020.69 897.45L981.658 920.038L949.613 901.557L942.628 897.45L981.658 874.862L1020.69 897.45ZM1021.51 899.503V944.679L982.48 967.267V922.091L1021.51 899.503ZM980.426 922.091V967.267L941.396 944.679V899.503L980.426 922.091ZM941.396 895.807V850.632L980.426 828.044V873.219L941.396 895.807ZM980.426 824.347L941.396 801.759V756.584L980.426 779.172V824.347ZM979.604 826.401L940.574 848.989L901.544 826.401L940.574 803.813L979.604 826.401ZM939.342 801.759L900.311 824.347V779.172L939.342 756.584V801.759ZM939.342 850.632V895.807L900.311 873.219V828.044L939.342 850.632ZM938.109 897.45L899.079 920.038L867.033 901.557L860.049 897.45L899.079 874.862L938.109 897.45ZM939.342 899.503V944.679L900.311 967.267V922.091L939.342 899.503ZM897.846 922.091V967.267L858.816 944.679V899.503L897.846 922.091ZM858.816 895.807V850.632L897.846 828.044V873.219L858.816 895.807ZM897.846 824.347L858.816 801.759V756.584L897.846 779.172V824.347ZM897.025 826.401L857.995 848.989L818.964 826.401L857.995 803.813L897.025 826.401ZM856.762 801.759L817.732 824.347V779.172L856.762 756.584V801.759ZM856.762 850.632V895.807L817.732 873.219V828.044L856.762 850.632ZM855.94 897.45L816.91 920.038L784.864 901.557L777.88 897.45L816.91 874.862L855.94 897.45ZM856.762 899.503V944.679L817.732 967.267V922.091L856.762 899.503ZM815.678 922.091V967.267L776.647 944.679V899.503L815.678 922.091ZM776.237 895.807V850.632L815.267 828.044V873.219L776.237 895.807ZM815.678 824.347L776.647 801.759V756.584L815.678 779.172V824.347ZM814.445 826.401L775.415 848.989L736.385 826.401L775.415 803.813L814.445 826.401ZM774.182 801.759L735.152 824.347V779.172L774.182 756.584V801.759ZM774.182 850.632V895.807L735.152 873.219V828.044L774.182 850.632ZM773.361 897.45L734.331 920.038L702.285 901.557L695.3 897.45L734.331 874.862L773.361 897.45ZM774.182 899.503V944.679L735.152 967.267V922.091L774.182 899.503ZM733.098 922.091V967.267L694.068 944.679V899.503L733.098 922.091ZM694.068 895.807V850.632L733.098 828.044V873.219L694.068 895.807ZM733.098 824.347L694.068 801.759V756.584L733.098 779.172V824.347ZM732.276 826.401L693.246 848.989L654.216 826.401L693.246 803.813L732.276 826.401ZM692.014 801.759L652.984 824.347V779.172L692.014 756.584V801.759ZM692.014 850.632V895.807L652.984 873.219V828.044L692.014 850.632ZM690.781 897.45L651.751 920.038L619.705 901.557L612.721 897.45L651.751 874.862L690.781 897.45ZM692.014 899.503V944.679L652.984 967.267V922.091L692.014 899.503ZM650.518 922.091V967.267L611.488 944.679V899.503L650.518 922.091ZM611.488 895.807V850.632L650.518 828.044V873.219L611.488 895.807ZM650.518 824.347L611.488 801.759V756.584L650.518 779.172V824.347ZM649.697 826.401L610.667 848.989L571.637 826.401L610.667 803.813L649.697 826.401ZM609.434 801.759L570.404 824.347V779.172L609.434 756.584V801.759ZM609.434 850.632V895.807L570.404 873.219V828.044L609.434 850.632ZM608.202 897.45L569.171 920.038L537.126 901.557L530.141 897.45L569.171 874.862L608.202 897.45ZM609.434 899.503V944.679L570.404 967.267V922.091L609.434 899.503ZM568.35 922.091V967.267L529.32 944.679V899.503L568.35 922.091ZM528.909 895.807V850.632L567.939 828.044V873.219L528.909 895.807ZM568.35 824.347L529.32 801.759V756.584L568.35 779.172V824.347ZM567.117 826.401L528.087 848.989L489.057 826.401L528.087 803.813L567.117 826.401ZM526.855 801.759L487.824 824.347V779.172L526.855 756.584V801.759ZM526.855 850.632V895.807L487.824 873.219V828.044L526.855 850.632ZM526.033 897.45L487.003 920.038L454.957 901.557L447.973 897.45L487.003 874.862L526.033 897.45ZM526.855 899.503V944.679L487.824 967.267V922.091L526.855 899.503ZM485.77 922.091V967.267L446.74 944.679V899.503L485.77 922.091ZM446.74 895.807V850.632L485.77 828.044V873.219L446.74 895.807ZM485.77 824.347L446.74 801.759V756.584L485.77 779.172V824.347ZM484.538 826.401L445.508 848.989L406.477 826.401L445.508 803.813L484.538 826.401ZM444.686 801.759L405.656 824.347V779.172L444.686 756.584V801.759ZM444.686 850.632V895.807L405.656 873.219V828.044L444.686 850.632ZM443.453 897.45L404.423 920.038L372.377 901.557L365.393 897.45L404.423 874.862L443.453 897.45ZM444.686 899.503V944.679L405.656 967.267V922.091L444.686 899.503ZM403.191 922.091V967.267L364.161 944.679V899.503L403.191 922.091ZM364.161 895.807V850.632L403.191 828.044V873.219L364.161 895.807ZM403.191 824.347L364.161 801.759V756.584L403.191 779.172V824.347ZM402.369 826.401L363.339 848.989L324.309 826.401L363.339 803.813L402.369 826.401ZM362.106 801.759L323.076 824.347V779.172L362.106 756.584V801.759ZM362.106 850.632V895.807L323.076 873.219V828.044L362.106 850.632ZM360.874 897.45L321.844 920.038L289.798 901.557L282.813 897.45L321.844 874.862L360.874 897.45ZM362.106 899.503V944.679L323.076 967.267V922.091L362.106 899.503ZM321.022 922.091V967.267L281.992 944.679V899.503L321.022 922.091ZM281.581 895.807V850.632L320.611 828.044V873.219L281.581 895.807ZM321.022 824.347L281.992 801.759V756.584L321.022 779.172V824.347ZM319.789 826.401L280.759 848.989L241.729 826.401L280.759 803.813L319.789 826.401ZM279.527 801.759L240.497 824.347V779.172L279.527 756.584V801.759ZM279.527 850.632V895.807L240.497 873.219V828.044L279.527 850.632ZM278.705 897.45L239.675 920.038L207.629 901.557L200.645 897.45L239.675 874.862L278.705 897.45ZM279.527 899.503V944.679L240.497 967.267V922.091L279.527 899.503ZM238.442 922.091V967.267L199.412 944.679V899.503L238.442 922.091ZM199.412 895.807V850.632L238.442 828.044V873.219L199.412 895.807ZM238.442 824.347L199.412 801.759V756.584L238.442 779.172V824.347ZM237.21 826.401L198.18 848.989L159.15 826.401L198.18 803.813L237.21 826.401ZM197.358 801.759L158.328 824.347V779.172L197.358 756.584V801.759ZM197.358 850.632V895.807L158.328 873.219V828.044L197.358 850.632ZM196.125 897.45L157.095 920.038L125.05 901.557L118.065 897.45L157.095 874.862L196.125 897.45ZM197.358 899.503V944.679L158.328 967.267V922.091L197.358 899.503ZM155.863 922.091V967.267L116.833 944.679V899.503L155.863 922.091ZM116.833 895.807V850.632L155.863 828.044V873.219L116.833 895.807ZM155.863 824.347L116.833 801.759V756.584L155.863 779.172V824.347ZM155.041 826.401L116.011 848.989L76.9808 826.401L116.011 803.813L155.041 826.401ZM114.778 801.759L75.7483 824.347V779.172L114.778 756.584V801.759ZM114.778 850.632V895.807L75.7483 873.219V828.044L114.778 850.632ZM113.546 897.45L74.5157 920.038L42.47 901.557L35.4856 897.45L74.5157 874.862L113.546 897.45ZM114.778 899.503V944.679L75.7483 967.267V922.091L114.778 899.503ZM73.6941 922.091V967.267L34.6639 944.679V899.503L73.6941 922.091ZM34.2531 895.807V850.632L73.2832 828.044V873.219L34.2531 895.807ZM73.6941 824.347L34.6639 801.759V756.584L73.6941 779.172V824.347ZM72.4615 826.401L33.4314 848.989L-5.59875 826.401L33.4314 803.813L72.4615 826.401ZM32.1989 801.759L-6.83128 824.347V779.172L32.1989 756.584V801.759ZM32.1989 850.632V895.807L-6.83128 873.219V828.044L32.1989 850.632ZM0.974747 973.017L-6.00959 968.91L33.0206 946.322L72.0507 968.91L33.0206 991.498L0.974747 973.017ZM32.1989 993.551V1038.73L-6.83128 1016.14V970.963L0.153069 975.07L32.1989 993.551ZM-6.83128 967.267V922.091L32.1989 899.503V944.679L-6.83128 967.267ZM73.6941 970.963V1016.14L34.6639 1038.73V993.551L73.6941 970.963ZM34.2531 1042.01L73.2832 1064.6V1109.78L34.2531 1087.19V1042.01ZM35.4856 1040.37L74.5157 1017.78L113.546 1040.37L74.5157 1062.96L35.4856 1040.37ZM75.7483 1064.6L114.778 1042.01V1087.19L75.7483 1109.78V1064.6ZM75.7483 1016.14V970.963L82.7326 975.07L114.778 993.551V1038.73L75.7483 1016.14ZM83.5543 973.017L76.57 968.91L115.6 946.322L154.63 968.91L115.6 991.498L83.5543 973.017ZM155.863 970.963V1016.14L116.833 1038.73V993.551L155.863 970.963ZM116.833 1042.01L155.863 1064.6V1109.78L116.833 1087.19V1042.01ZM117.654 1040.37L156.684 1017.78L195.715 1040.37L156.684 1062.96L117.654 1040.37ZM157.917 1064.6L196.947 1042.01V1087.19L157.917 1109.78V1064.6ZM157.917 1016.14V970.963L164.901 975.07L196.947 993.551V1038.73L157.917 1016.14ZM166.134 973.017L159.15 968.91L198.18 946.322L237.21 968.91L198.18 991.498L166.134 973.017ZM238.442 970.963V1016.14L199.412 1038.73V993.551L238.442 970.963ZM199.412 1042.01L238.442 1064.6V1109.78L199.412 1087.19V1042.01ZM200.234 1040.37L239.264 1017.78L278.294 1040.37L239.264 1062.96L200.234 1040.37ZM240.497 1064.6L279.527 1042.01V1087.19L240.497 1109.78V1064.6ZM240.497 1016.14V970.963L247.481 975.07L279.527 993.551V1038.73L240.497 1016.14ZM248.303 973.017L241.318 968.91L280.348 946.322L319.379 968.91L280.348 991.498L248.303 973.017ZM321.022 970.963V1016.14L281.992 1038.73V993.551L321.022 970.963ZM281.581 1042.01L320.611 1064.6V1109.78L281.581 1087.19V1042.01ZM282.813 1040.37L321.844 1017.78L360.874 1040.37L321.844 1062.96L282.813 1040.37ZM323.076 1064.6L362.106 1042.01V1087.19L323.076 1109.78V1064.6ZM323.076 1016.14V970.963L330.06 975.07L362.106 993.551V1038.73L323.076 1016.14ZM330.882 973.017L323.898 968.91L362.928 946.322L401.958 968.91L362.928 991.498L330.882 973.017ZM403.191 970.963V1016.14L364.161 1038.73V993.551L403.191 970.963ZM364.161 1042.01L403.191 1064.6V1109.78L364.161 1087.19V1042.01ZM364.982 1040.37L404.012 1017.78L443.042 1040.37L404.012 1062.96L364.982 1040.37ZM405.245 1064.6L444.275 1042.01V1087.19L405.245 1109.78V1064.6ZM405.245 1016.14V970.963L412.229 975.07L444.275 993.551V1038.73L405.245 1016.14ZM413.462 973.017L406.477 968.91L445.508 946.322L484.538 968.91L445.508 991.498L413.462 973.017ZM485.77 970.963V1016.14L446.74 1038.73V993.551L485.77 970.963ZM446.74 1042.01L485.77 1064.6V1109.78L446.74 1087.19V1042.01ZM447.562 1040.37L486.592 1017.78L525.622 1040.37L486.592 1062.96L447.562 1040.37ZM487.824 1064.6L526.855 1042.01V1087.19L487.824 1109.78V1064.6ZM487.824 1016.14V970.963L494.809 975.07L526.855 993.551V1038.73L487.824 1016.14ZM495.63 973.017L488.646 968.91L527.676 946.322L566.706 968.91L527.676 991.498L495.63 973.017ZM568.35 970.963V1016.14L529.32 1038.73V993.551L568.35 970.963ZM528.909 1042.01L567.939 1064.6V1109.78L528.909 1087.19V1042.01ZM530.141 1040.37L569.171 1017.78L608.202 1040.37L569.171 1062.96L530.141 1040.37ZM570.404 1064.6L609.434 1042.01V1087.19L570.404 1109.78V1064.6ZM570.404 1016.14V970.963L577.388 975.07L609.434 993.551V1038.73L570.404 1016.14ZM578.21 973.017L571.226 968.91L610.256 946.322L649.286 968.91L610.256 991.498L578.21 973.017ZM650.518 970.963V1016.14L611.488 1038.73V993.551L650.518 970.963ZM611.488 1042.01L650.518 1064.6V1109.78L611.488 1087.19V1042.01ZM612.31 1040.37L651.34 1017.78L690.37 1040.37L651.34 1062.96L612.31 1040.37ZM652.573 1064.6L691.603 1042.01V1087.19L652.573 1109.78V1064.6ZM652.573 1016.14V970.963L659.557 975.07L691.603 993.551V1038.73L652.573 1016.14ZM660.79 973.017L653.805 968.91L692.835 946.322L731.866 968.91L692.835 991.498L660.79 973.017ZM733.098 970.963V1016.14L694.068 1038.73V993.551L733.098 970.963ZM694.068 1042.01L733.098 1064.6V1109.78L694.068 1087.19V1042.01ZM694.89 1040.37L733.92 1017.78L772.95 1040.37L733.92 1062.96L694.89 1040.37ZM735.152 1064.6L774.182 1042.01V1087.19L735.152 1109.78V1064.6ZM735.152 1016.14V970.963L742.137 975.07L774.182 993.551V1038.73L735.152 1016.14ZM743.369 973.017L736.385 968.91L775.415 946.322L814.445 968.91L775.415 991.498L743.369 973.017ZM815.678 970.963V1016.14L776.647 1038.73V993.551L815.678 970.963ZM776.237 1042.01L815.267 1064.6V1109.78L776.237 1087.19V1042.01ZM777.469 1040.37L816.499 1017.78L855.529 1040.37L816.499 1062.96L777.469 1040.37ZM817.732 1064.6L856.762 1042.01V1087.19L817.732 1109.78V1064.6ZM817.732 1016.14V970.963L824.716 975.07L856.762 993.551V1038.73L817.732 1016.14ZM825.538 973.017L818.554 968.91L857.584 946.322L896.614 968.91L857.584 991.498L825.538 973.017ZM897.846 970.963V1016.14L858.816 1038.73V993.551L897.846 970.963ZM858.816 1042.01L897.846 1064.6V1109.78L858.816 1087.19V1042.01ZM860.049 1040.37L899.079 1017.78L938.109 1040.37L899.079 1062.96L860.049 1040.37ZM899.901 1064.6L938.931 1042.01V1087.19L899.901 1109.78V1064.6ZM899.901 1016.14V970.963L906.885 975.07L938.931 993.551V1038.73L899.901 1016.14ZM908.117 973.017L901.133 968.91L940.163 946.322L979.193 968.91L940.163 991.498L908.117 973.017ZM980.426 970.963V1016.14L941.396 1038.73V993.551L980.426 970.963ZM941.396 1042.01L980.426 1064.6V1109.78L941.396 1087.19V1042.01ZM942.217 1040.37L981.248 1017.78L1020.28 1040.37L981.248 1062.96L942.217 1040.37ZM982.48 1064.6L1021.51 1042.01V1087.19L982.48 1109.78V1064.6ZM982.48 1016.14V970.963L989.464 975.07L1021.51 993.551V1038.73L982.48 1016.14ZM990.697 973.017L983.713 968.91L1022.74 946.322L1061.77 968.91L1022.74 991.498L990.697 973.017ZM1063.01 970.963V1016.14L1023.98 1038.73V993.551L1063.01 970.963ZM1023.56 1042.01L1062.59 1064.6V1109.78L1023.56 1087.19V1042.01ZM1024.8 1040.37L1063.83 1017.78L1102.86 1040.37L1063.83 1062.96L1024.8 1040.37ZM1065.06 1064.6L1104.09 1042.01V1087.19L1065.06 1109.78V1064.6ZM1065.06 1016.14V970.963L1072.04 975.07L1104.09 993.551V1038.73L1065.06 1016.14ZM1072.87 973.017L1065.88 968.91L1104.91 946.322L1143.94 968.91L1104.91 991.498L1072.87 973.017ZM1145.17 970.963V1016.14L1106.14 1038.73V993.551L1145.17 970.963ZM1106.14 1042.01L1145.17 1064.6V1109.78L1106.14 1087.19V1042.01ZM1107.38 1040.37L1146.41 1017.78L1185.44 1040.37L1146.41 1062.96L1107.38 1040.37ZM1147.23 1064.6L1186.26 1042.01V1087.19L1147.23 1109.78V1064.6ZM1147.23 1016.14V970.963L1154.21 975.07L1186.26 993.551V1038.73L1147.23 1016.14ZM1155.45 973.017L1148.46 968.91L1187.49 946.322L1226.52 968.91L1187.49 991.498L1155.45 973.017ZM1227.75 970.963V1016.14L1188.72 1038.73V993.551L1227.75 970.963ZM1188.72 1042.01L1227.75 1064.6V1109.78L1188.72 1087.19V1042.01ZM1189.55 1040.37L1228.58 1017.78L1267.61 1040.37L1228.58 1062.96L1189.55 1040.37ZM1229.81 1064.6L1268.84 1042.01V1087.19L1229.81 1109.78V1064.6ZM1229.81 1016.14V970.963L1236.79 975.07L1268.84 993.551V1038.73L1229.81 1016.14ZM1238.02 973.017L1231.04 968.91L1270.07 946.322L1309.1 968.91L1270.07 991.498L1238.02 973.017ZM1310.33 970.963V1016.14L1271.3 1038.73V993.551L1310.33 970.963ZM1270.89 1042.01L1309.92 1064.6V1109.78L1270.89 1087.19V1042.01ZM1272.12 1040.37L1311.16 1017.78L1350.19 1040.37L1311.16 1062.96L1272.12 1040.37ZM1312.39 1064.6L1351.42 1042.01V1087.19L1312.39 1109.78V1064.6ZM1312.39 1016.14V970.963L1319.37 975.07L1351.42 993.551V1038.73L1312.39 1016.14ZM1320.19 973.017L1313.21 968.91L1352.24 946.322L1391.27 968.91L1352.24 991.498L1320.19 973.017ZM1392.5 970.963V1016.14L1353.47 1038.73V993.551L1392.5 970.963ZM1353.47 1042.01L1392.5 1064.6V1109.78L1353.47 1087.19V1042.01ZM1354.7 1040.37L1393.73 1017.78L1432.76 1040.37L1393.73 1062.96L1354.7 1040.37ZM1394.56 1064.6L1433.59 1042.01V1087.19L1394.56 1109.78V1064.6ZM1394.56 1016.14V970.963L1401.54 975.07L1433.59 993.551V1038.73L1394.56 1016.14ZM1402.77 973.017L1395.79 968.91L1434.82 946.322L1473.85 968.91L1434.82 991.498L1402.77 973.017ZM1475.08 970.963V1016.14L1436.05 1038.73V993.551L1475.08 970.963ZM1436.05 1042.01L1475.08 1064.6V1109.78L1436.05 1087.19V1042.01ZM1436.87 1040.37L1475.9 1017.78L1514.93 1040.37L1476.31 1062.96L1436.87 1040.37ZM1477.14 1064.6L1516.17 1042.01V1087.19L1477.14 1109.78V1064.6ZM1477.14 1016.14V970.963L1484.12 975.07L1516.17 993.551V1038.73L1477.14 1016.14ZM1485.35 973.017L1478.37 968.91L1517.4 946.322L1556.43 968.91L1517.4 991.498L1485.35 973.017ZM1557.66 970.963V1016.14L1518.63 1038.73V993.551L1557.66 970.963ZM1518.22 1042.01L1557.25 1064.6V1109.78L1518.22 1087.19V1042.01ZM1519.45 1040.37L1558.48 1017.78L1597.51 1040.37L1558.48 1062.96L1519.45 1040.37ZM1559.72 1064.6L1598.75 1042.01V1087.19L1559.72 1109.78V1064.6ZM1559.72 1016.14V970.963L1566.7 975.07L1598.75 993.551V1038.73L1559.72 1016.14ZM1567.52 973.017L1560.54 968.91L1599.57 946.322L1638.6 968.91L1599.57 991.498L1567.52 973.017ZM1640.24 970.963V1016.14L1601.21 1038.73V993.551L1640.24 970.963ZM1600.8 1042.01L1639.83 1064.6V1109.78L1600.8 1087.19V1042.01ZM1602.03 1040.37L1641.06 1017.78L1680.09 1040.37L1641.06 1062.96L1602.03 1040.37ZM1642.29 1064.6L1681.33 1042.01V1087.19L1642.29 1109.78V1064.6ZM1642.29 1016.14V970.963L1649.28 975.07L1681.33 993.551V1038.73L1642.29 1016.14ZM1650.1 973.017L1643.12 968.91L1682.15 946.322L1721.18 968.91L1682.15 991.498L1650.1 973.017ZM1722.41 970.963V1016.14L1683.38 1038.73V993.551L1722.41 970.963ZM1683.38 1042.01L1722.41 1064.6V1109.78L1683.38 1087.19V1042.01ZM1684.2 1040.37L1723.23 1017.78L1762.26 1040.37L1723.23 1062.96L1684.2 1040.37ZM1724.46 1064.6L1763.49 1042.01V1087.19L1724.46 1109.78V1064.6ZM1724.46 1016.14V970.963L1731.45 975.07L1763.49 993.551V1038.73L1724.46 1016.14ZM1732.68 973.017L1725.7 968.91L1764.73 946.322L1803.76 968.91L1764.73 991.498L1732.68 973.017ZM1804.99 970.963V1016.14L1765.96 1038.73V993.551L1804.99 970.963ZM1765.96 1042.01L1804.99 1064.6V1109.78L1765.96 1087.19V1042.01ZM1766.78 1040.37L1805.81 1017.78L1844.84 1040.37L1805.81 1062.96L1766.78 1040.37ZM1807.04 1064.6L1846.07 1042.01V1087.19L1807.04 1109.78V1064.6ZM1807.04 1016.14V970.963L1814.03 975.07L1846.07 993.551V1038.73L1807.04 1016.14ZM1814.85 973.017L1807.86 968.91L1846.9 946.322L1885.93 968.91L1846.9 991.498L1814.85 973.017ZM1887.57 970.963V1016.14L1848.54 1038.73V993.551L1887.57 970.963ZM1848.13 1042.01L1887.16 1064.6V1109.78L1848.13 1087.19V1042.01ZM1849.36 1040.37L1888.39 1017.78L1927.42 1040.37L1888.39 1062.96L1849.36 1040.37ZM1889.62 1064.6L1928.65 1042.01V1087.19L1889.62 1109.78V1064.6ZM1889.62 1016.14V970.963L1896.61 975.07L1928.65 993.551V1038.73L1889.62 1016.14ZM1889.62 922.091L1928.65 899.503V944.679L1889.62 967.267V922.091ZM1889.62 873.219V828.044L1928.65 850.632V895.807L1889.62 873.219ZM1924.54 752.887L1927.83 754.941L1888.8 777.529L1849.77 754.941L1888.8 732.353L1924.54 752.887ZM1889.62 730.3V685.124L1928.65 707.712V752.887L1925.37 750.834L1889.62 730.3ZM1928.65 756.584V801.759L1889.62 824.347V779.172L1928.65 756.584ZM1848.13 752.887V707.712L1887.16 685.124V730.3L1848.13 752.887ZM1887.57 681.838L1880.58 677.731L1848.54 659.25V614.075L1887.57 636.662V681.838ZM1883.87 682.249L1886.34 683.481L1847.31 706.069L1808.28 683.481L1847.31 660.893L1883.87 682.249ZM1846.07 659.25L1807.04 681.838V636.662L1846.07 614.075V659.25ZM1846.07 707.712V752.887L1842.79 750.834L1806.63 729.889V685.124L1846.07 707.712ZM1841.96 752.887L1845.25 754.941L1806.22 777.529L1767.19 754.941L1806.22 732.353L1841.96 752.887ZM1765.96 752.887V707.712L1804.99 685.124V730.3L1765.96 752.887ZM1804.99 681.838L1798 677.731L1765.96 659.25V614.075L1804.99 636.662V681.838ZM1801.7 682.249L1804.17 683.481L1765.14 706.069L1726.11 683.481L1765.14 660.893L1801.7 682.249ZM1763.9 659.25L1724.87 681.838V636.662L1763.9 614.075V659.25ZM1763.9 707.712V752.887L1760.62 750.834L1724.87 729.889V685.124L1763.9 707.712ZM1759.39 752.887L1762.67 754.941L1723.64 777.529L1684.61 754.941L1723.64 732.353L1759.39 752.887ZM1683.38 752.887V707.712L1722.41 685.124V730.3L1683.38 752.887ZM1722.41 681.838L1715.43 677.731L1683.38 659.25V614.075L1722.41 636.662V681.838ZM1719.12 682.249L1721.59 683.481L1682.56 706.069L1643.53 683.481L1682.56 660.893L1719.12 682.249ZM1681.33 659.25L1642.29 681.838V636.662L1681.33 614.075V659.25ZM1681.33 707.712V752.887L1678.04 750.834L1641.88 729.889V685.124L1681.33 707.712ZM1677.22 752.887L1680.5 754.941L1641.47 777.529L1602.44 754.941L1641.47 732.353L1677.22 752.887ZM1600.8 752.887V707.712L1639.83 685.124V730.3L1600.8 752.887ZM1640.24 681.838L1633.26 677.731L1601.21 659.25V614.075L1640.24 636.662V681.838ZM1636.54 682.249L1639.01 683.481L1599.98 706.069L1560.95 683.481L1599.98 660.893L1636.54 682.249ZM1598.75 659.25L1559.72 681.838V636.662L1598.75 614.075V659.25ZM1598.75 707.712V752.887L1595.46 750.834L1559.72 729.889V685.124L1598.75 707.712ZM1594.64 752.887L1597.92 754.941L1558.89 777.529L1519.86 754.941L1558.89 732.353L1594.64 752.887ZM1518.22 752.887V707.712L1557.25 685.124V730.3L1518.22 752.887ZM1557.66 681.838L1550.68 677.731L1518.63 659.25V614.075L1557.66 636.662V681.838ZM1554.37 682.249L1556.84 683.481L1517.81 706.069L1478.78 683.481L1517.81 660.893L1554.37 682.249ZM1516.17 659.25L1477.14 681.838V636.662L1516.17 614.075V659.25ZM1516.17 707.712V752.887L1512.88 750.834L1477.14 729.889V685.124L1516.17 707.712ZM1512.06 752.887L1515.34 754.941L1476.31 777.529L1437.28 754.941L1476.31 732.353L1512.06 752.887ZM1436.05 752.887V707.712L1475.08 685.124V730.3L1436.05 752.887ZM1475.08 681.838L1468.1 677.731L1436.05 659.25V614.075L1475.08 636.662V681.838ZM1471.79 682.249L1474.26 683.481L1435.23 706.069L1396.2 683.481L1435.23 660.893L1471.79 682.249ZM1434 659.25L1394.97 681.838V636.662L1434 614.075V659.25ZM1434 707.712V752.887L1430.71 750.834L1394.56 729.889V685.124L1434 707.712ZM1429.48 752.887L1432.76 754.941L1393.73 777.529L1354.7 754.941L1393.73 732.353L1429.48 752.887ZM1353.47 752.887V707.712L1392.5 685.124V730.3L1353.47 752.887ZM1392.5 681.838L1385.52 677.731L1353.47 659.25V614.075L1392.5 636.662V681.838ZM1389.22 682.249L1391.68 683.481L1352.65 706.069L1313.62 683.481L1352.65 660.893L1389.22 682.249ZM1351.42 659.25L1312.39 681.838V636.662L1351.42 614.075V659.25ZM1351.42 707.712V752.887L1348.13 750.834L1312.39 729.889V685.124L1351.42 707.712ZM1347.31 752.887L1350.6 754.941L1311.57 777.529L1272.54 754.941L1311.57 732.353L1347.31 752.887ZM1270.89 752.887V707.712L1309.92 685.124V730.3L1270.89 752.887ZM1310.33 681.838L1303.35 677.731L1271.3 659.25V614.075L1310.33 636.662V681.838ZM1307.05 682.249L1309.51 683.481L1270.48 706.069L1231.45 683.481L1270.48 660.893L1307.05 682.249ZM1268.84 659.25L1229.81 681.838V636.662L1268.84 614.075V659.25ZM1268.84 707.712V752.887L1265.55 750.834L1229.81 730.3V685.124L1268.84 707.712ZM1264.73 752.887L1268.02 754.941L1228.99 777.529L1189.96 754.941L1228.99 732.353L1264.73 752.887ZM1188.72 752.887V707.712L1227.75 685.124V730.3L1188.72 752.887ZM1227.75 681.838L1220.77 677.731L1188.72 659.25V614.075L1227.75 636.662V681.838ZM1224.47 682.249L1226.93 683.481L1187.9 706.069L1148.87 683.481L1187.9 660.893L1224.47 682.249ZM1186.67 659.25L1147.64 681.838V636.662L1186.67 614.075V659.25ZM1186.67 707.712V752.887L1183.38 750.834L1147.64 729.889V685.124L1186.67 707.712ZM1182.15 752.887L1185.44 754.941L1146.41 777.529L1107.38 754.941L1146.41 732.353L1182.15 752.887ZM1106.14 752.887V707.712L1145.17 685.124V730.3L1106.14 752.887ZM1145.17 681.838L1138.19 677.731L1106.14 659.25V614.075L1145.17 636.662V681.838ZM1141.89 682.249L1144.35 683.481L1105.32 706.069L1066.29 683.481L1105.32 660.893L1141.89 682.249ZM1104.09 659.25L1065.06 681.838V636.662L1104.09 614.075V659.25ZM1104.09 707.712V752.887L1100.8 750.834L1064.65 729.889V685.124L1104.09 707.712ZM1099.98 752.887L1103.27 754.941L1064.24 777.529L1025.21 754.941L1064.24 732.353L1099.98 752.887ZM1023.56 752.887V707.712L1062.59 685.124V730.3L1023.56 752.887ZM1063.01 681.838L1056.02 677.731L1023.98 659.25V614.075L1063.01 636.662V681.838ZM1059.72 682.249L1062.18 683.481L1023.15 706.069L984.124 683.481L1023.15 660.893L1059.72 682.249ZM1021.51 659.25L982.48 681.838V636.662L1021.51 614.075V659.25ZM1021.51 707.712V752.887L1018.22 750.834L982.48 729.889V685.124L1021.51 707.712ZM1017.4 752.887L1020.69 754.941L981.658 777.529L942.217 754.941L981.248 732.353L1017.4 752.887ZM941.396 752.887V707.712L980.426 685.124V730.3L941.396 752.887ZM980.426 681.838L973.442 677.731L941.396 659.25V614.075L980.426 636.662V681.838ZM977.139 682.249L979.604 683.481L940.574 706.069L901.544 683.481L940.574 660.893L977.139 682.249ZM939.342 659.25L900.311 681.838V636.662L939.342 614.075V659.25ZM939.342 707.712V752.887L936.055 750.834L900.311 729.889V685.124L939.342 707.712ZM934.822 752.887L938.109 754.941L899.079 777.529L860.049 754.941L899.079 732.353L934.822 752.887ZM858.816 752.887V707.712L897.846 685.124V730.3L858.816 752.887ZM897.846 681.838L890.862 677.731L858.816 659.25V614.075L897.846 636.662V681.838ZM894.56 682.249L897.025 683.481L857.995 706.069L818.964 683.481L857.995 660.893L894.56 682.249ZM856.762 659.25L817.732 681.838V636.662L856.762 614.075V659.25ZM856.762 707.712V752.887L853.475 750.834L817.321 729.889V685.124L856.762 707.712ZM852.654 752.887L855.94 754.941L816.91 777.529L777.88 754.941L816.91 732.353L852.654 752.887ZM776.237 752.887V707.712L815.267 685.124V730.3L776.237 752.887ZM815.678 681.838L808.693 677.731L776.647 659.25V614.075L815.678 636.662V681.838ZM811.98 682.249L814.445 683.481L775.415 706.069L736.385 683.481L775.415 660.893L811.98 682.249ZM774.182 659.25L735.152 681.838V636.662L774.182 614.075V659.25ZM774.182 707.712V752.887L770.896 750.834L735.152 729.889V685.124L774.182 707.712ZM770.074 752.887L773.361 754.941L734.331 777.529L695.3 754.941L734.331 732.353L770.074 752.887ZM694.068 752.887V707.712L733.098 685.124V730.3L694.068 752.887ZM733.098 681.838L726.114 677.731L694.068 659.25V614.075L733.098 636.662V681.838ZM729.811 682.249L732.276 683.481L693.246 706.069L654.216 683.481L693.246 660.893L729.811 682.249ZM692.014 659.25L652.984 681.838V636.662L692.014 614.075V659.25ZM692.014 707.712V752.887L688.727 750.834L652.573 729.889V685.124L692.014 707.712ZM687.494 752.887L690.781 754.941L651.751 777.529L612.721 754.941L651.751 732.353L687.494 752.887ZM611.488 752.887V707.712L650.518 685.124V730.3L611.488 752.887ZM650.518 681.838L643.534 677.731L611.488 659.25V614.075L650.518 636.662V681.838ZM647.232 682.249L649.697 683.481L610.667 706.069L571.637 683.481L610.667 660.893L647.232 682.249ZM609.434 659.25L570.404 681.838V636.662L609.434 614.075V659.25ZM609.434 707.712V752.887L606.147 750.834L570.404 729.889V685.124L609.434 707.712ZM605.326 752.887L608.612 754.941L569.582 777.529L530.552 754.941L569.582 732.353L605.326 752.887ZM528.909 752.887V707.712L568.35 685.124V730.3L528.909 752.887ZM568.35 681.838L561.365 677.731L529.32 659.25V614.075L568.35 636.662V681.838ZM564.652 682.249L567.117 683.481L528.087 706.069L489.057 683.481L528.087 660.893L564.652 682.249ZM526.855 659.25L487.824 681.838V636.662L526.855 614.075V659.25ZM526.855 707.712V752.887L523.568 750.834L487.824 729.889V685.124L526.855 707.712ZM522.746 752.887L526.033 754.941L487.003 777.529L447.973 754.941L487.003 732.353L522.746 752.887ZM446.74 752.887V707.712L485.77 685.124V730.3L446.74 752.887ZM485.77 681.838L478.786 677.731L446.74 659.25V614.075L485.77 636.662V681.838ZM482.483 682.249L484.948 683.481L445.918 706.069L406.888 683.481L445.918 660.893L482.483 682.249ZM444.686 659.25L405.656 681.838V636.662L444.686 614.075V659.25ZM444.686 707.712V752.887L441.399 750.834L405.245 729.889V685.124L444.686 707.712ZM440.167 752.887L443.453 754.941L404.423 777.529L365.393 754.941L404.423 732.353L440.167 752.887ZM364.161 752.887V707.712L403.191 685.124V730.3L364.161 752.887ZM403.191 681.838L396.206 677.731L364.161 659.25V614.075L403.191 636.662V681.838ZM399.904 682.249L402.369 683.481L363.339 706.069L324.309 683.481L363.339 660.893L399.904 682.249ZM362.106 659.25L323.076 681.838V636.662L362.106 614.075V659.25ZM362.106 707.712V752.887L358.82 750.834L323.076 729.889V685.124L362.106 707.712ZM357.998 752.887L361.285 754.941L322.254 777.529L282.813 754.941L321.844 732.353L357.998 752.887ZM281.581 752.887V707.712L320.611 685.124V730.3L281.581 752.887ZM321.022 681.838L314.038 677.731L281.992 659.25V614.075L321.022 636.662V681.838ZM317.324 682.249L319.789 683.481L280.759 706.069L241.729 683.481L280.759 660.893L317.324 682.249ZM279.527 659.25L240.497 681.838V636.662L279.527 614.075V659.25ZM279.527 707.712V752.887L276.24 750.834L240.497 730.3V685.124L279.527 707.712ZM275.418 752.887L278.705 754.941L239.675 777.529L200.234 754.941L239.264 732.353L275.418 752.887ZM199.412 752.887V707.712L238.442 685.124V730.3L199.412 752.887ZM238.442 681.838L231.458 677.731L199.412 659.25V614.075L238.442 636.662V681.838ZM235.156 682.249L237.621 683.481L198.591 706.069L159.56 683.481L198.591 660.893L235.156 682.249ZM197.358 659.25L158.328 681.838V636.662L197.358 614.075V659.25ZM197.358 707.712V752.887L194.071 750.834L157.917 730.3V685.124L197.358 707.712ZM192.839 752.887L196.125 754.941L157.095 777.529L117.654 754.941L156.684 732.353L192.839 752.887ZM116.833 752.887V707.712L155.863 685.124V730.3L116.833 752.887ZM155.863 681.838L148.878 677.731L116.833 659.25V614.075L155.863 636.662V681.838ZM152.576 682.249L155.041 683.481L116.011 706.069L76.9808 683.481L116.011 660.893L152.576 682.249ZM114.778 659.25L75.7483 681.838V636.662L114.778 614.075V659.25ZM114.778 707.712V752.887L111.492 750.834L75.7483 730.3V685.124L114.778 707.712ZM110.67 752.887L113.957 754.941L74.9266 777.529L35.4856 754.941L74.5157 732.353L110.67 752.887ZM34.2531 752.887V707.712L73.2832 685.124V730.3L34.2531 752.887ZM73.6941 681.838L66.7097 677.731L34.2531 659.25V614.075L73.2832 636.662V681.838H73.6941ZM69.9965 682.249L72.4615 683.481L33.4314 706.069L-5.59875 683.481L33.4314 660.893L69.9965 682.249ZM32.1989 659.25L-6.83128 681.838V636.662L32.1989 614.075V659.25ZM32.1989 707.712V752.887L28.9121 750.834L-6.83128 730.3V685.124L32.1989 707.712ZM28.0904 752.887L31.3772 754.941L-7.65297 777.529L-47.094 754.941L-8.0638 732.353L28.0904 752.887ZM31.3772 897.45L-7.65297 920.038L-39.6988 901.557L-46.6831 897.45L-7.65297 874.862L31.3772 897.45ZM31.3772 1040.37L-7.65297 1062.96L-46.6831 1040.37L-7.65297 1017.78L31.3772 1040.37ZM32.1989 1042.01V1087.19L-6.83128 1109.78V1064.6L32.1989 1042.01ZM28.9121 1181.65L31.3772 1182.88L-7.65297 1205.47L-46.6831 1182.88L-7.65297 1160.29L28.9121 1181.65ZM-6.83128 1207.52L32.1989 1184.93V1230.11L-6.83128 1252.7V1207.52ZM25.2145 1177.13L-6.83128 1158.65V1113.47L32.1989 1136.06V1181.24L25.2145 1177.13ZM-6.00959 1111.83L33.0206 1089.24L72.0507 1111.83L33.0206 1134.42L-6.00959 1111.83ZM73.6941 1113.47V1158.65L34.6639 1181.24V1136.06L73.6941 1113.47ZM34.2531 1184.93L73.2832 1207.52V1252.7L69.9965 1250.64L33.8422 1229.7V1184.93H34.2531ZM35.4856 1183.29L74.5157 1160.7L111.492 1182.06L113.957 1183.29L74.9266 1205.88L35.4856 1183.29ZM75.7483 1207.52L114.778 1184.93V1230.11L75.7483 1252.7V1207.52ZM107.794 1177.13L75.7483 1158.65V1113.47L114.778 1136.06V1181.24L107.794 1177.13ZM76.57 1111.83L115.6 1089.24L154.63 1111.83L115.6 1134.42L76.57 1111.83ZM155.863 1113.47V1158.65L116.833 1181.24V1136.06L155.863 1113.47ZM116.833 1184.93L155.863 1207.52V1252.7L152.576 1250.64L116.833 1229.7V1184.93ZM117.654 1183.29L156.684 1160.7L193.66 1182.06L196.125 1183.29L157.095 1205.88L117.654 1183.29ZM157.917 1207.52L196.947 1184.93V1230.11L157.917 1252.7V1207.52ZM189.963 1177.13L157.917 1158.65V1113.47L196.947 1136.06V1181.24L189.963 1177.13ZM159.15 1111.83L198.18 1089.24L237.21 1111.83L198.18 1134.42L159.15 1111.83ZM238.442 1113.47V1158.65L199.412 1181.24V1136.06L238.442 1113.47ZM199.412 1184.93L238.442 1207.52V1252.7L235.156 1250.64L199.001 1229.7V1184.93H199.412ZM200.234 1183.29L239.264 1160.7L276.24 1182.06L278.705 1183.29L239.675 1205.88L200.234 1183.29ZM240.497 1207.52L279.527 1184.93V1230.11L240.497 1252.7V1207.52ZM272.542 1177.13L240.497 1158.65V1113.47L279.527 1136.06V1181.24L272.542 1177.13ZM241.318 1111.83L280.348 1089.24L319.379 1111.83L280.348 1134.42L241.318 1111.83ZM321.022 1113.47V1158.65L281.992 1181.24V1136.06L321.022 1113.47ZM281.581 1184.93L320.611 1207.52V1252.7L317.324 1250.64L281.581 1229.7V1184.93ZM282.813 1183.29L321.844 1160.7L358.82 1182.06L361.285 1183.29L322.254 1205.88L282.813 1183.29ZM323.076 1207.52L362.106 1184.93V1230.11L323.076 1252.7V1207.52ZM355.122 1177.13L323.076 1158.65V1113.47L362.106 1136.06V1181.24L355.122 1177.13ZM323.898 1111.83L362.928 1089.24L401.958 1111.83L362.928 1134.42L323.898 1111.83ZM403.191 1113.47V1158.65L364.161 1181.24V1136.06L403.191 1113.47ZM364.161 1184.93L403.191 1207.52V1252.7L399.904 1250.64L364.161 1229.7V1184.93ZM364.982 1183.29L404.012 1160.7L440.988 1182.06L443.453 1183.29L404.423 1205.88L364.982 1183.29ZM405.245 1207.52L444.275 1184.93V1230.11L405.245 1252.7V1207.52ZM437.701 1177.13L405.656 1158.65V1113.47L444.686 1136.06V1181.24L437.701 1177.13ZM406.477 1111.83L445.508 1089.24L484.538 1111.83L445.508 1134.42L406.477 1111.83ZM485.77 1113.47V1158.65L446.74 1181.24V1136.06L485.77 1113.47ZM446.74 1184.93L485.77 1207.52V1252.7L482.483 1250.64L446.329 1229.7V1184.93H446.74ZM447.562 1183.29L486.592 1160.7L523.568 1182.06L526.033 1183.29L487.003 1205.88L447.562 1183.29ZM487.824 1207.52L526.855 1184.93V1230.11L487.824 1252.7V1207.52ZM519.87 1177.13L487.824 1158.65V1113.47L526.855 1136.06V1181.24L519.87 1177.13ZM488.646 1111.83L527.676 1089.24L566.706 1111.83L527.676 1134.42L488.646 1111.83ZM568.35 1113.47V1158.65L529.32 1181.24V1136.06L568.35 1113.47ZM528.909 1184.93L567.939 1207.52V1252.7L564.652 1250.64L528.909 1229.7V1184.93ZM530.141 1183.29L569.171 1160.7L606.147 1182.06L608.612 1183.29L569.582 1205.88L530.141 1183.29ZM570.404 1207.52L609.434 1184.93V1230.11L570.404 1252.7V1207.52ZM602.45 1177.13L570.404 1158.65V1113.47L609.434 1136.06V1181.24L602.45 1177.13ZM571.226 1111.83L610.256 1089.24L649.286 1111.83L610.256 1134.42L571.226 1111.83ZM650.518 1113.47V1158.65L611.488 1181.24V1136.06L650.518 1113.47ZM611.488 1184.93L650.518 1207.52V1252.7L647.232 1250.64L611.078 1229.7V1184.93H611.488ZM612.31 1183.29L651.34 1160.7L688.316 1182.06L690.781 1183.29L651.751 1205.88L612.31 1183.29ZM652.573 1207.52L691.603 1184.93V1230.11L652.573 1252.7V1207.52ZM685.029 1177.13L652.984 1158.65V1113.47L692.014 1136.06V1181.24L685.029 1177.13ZM653.805 1111.83L692.835 1089.24L731.866 1111.83L692.835 1134.42L653.805 1111.83ZM733.098 1113.47V1158.65L694.068 1181.24V1136.06L733.098 1113.47ZM694.068 1184.93L733.098 1207.52V1252.7L729.811 1250.64L694.068 1229.7V1184.93ZM694.89 1183.29L733.92 1160.7L770.896 1182.06L773.361 1183.29L734.331 1205.88L694.89 1183.29ZM735.152 1207.52L774.182 1184.93V1230.11L735.152 1252.7V1207.52ZM767.198 1177.13L735.152 1158.65V1113.47L774.182 1136.06V1181.24L767.198 1177.13ZM736.385 1111.83L775.415 1089.24L814.445 1111.83L775.415 1134.42L736.385 1111.83ZM815.678 1113.47V1158.65L776.647 1181.24V1136.06L815.678 1113.47ZM776.237 1184.93L815.267 1207.52V1252.7L811.98 1250.64L776.237 1229.7V1184.93ZM777.469 1183.29L816.499 1160.7L853.475 1182.06L855.94 1183.29L816.91 1205.88L777.469 1183.29ZM817.732 1207.52L856.762 1184.93V1230.11L817.732 1252.7V1207.52ZM849.778 1177.13L817.732 1158.65V1113.47L856.762 1136.06V1181.24L849.778 1177.13ZM818.554 1111.83L857.584 1089.24L896.614 1111.83L857.584 1134.42L818.554 1111.83ZM897.846 1113.47V1158.65L858.816 1181.24V1136.06L897.846 1113.47ZM858.816 1184.93L897.846 1207.52V1252.7L894.56 1250.64L858.405 1229.7V1184.93H858.816ZM860.049 1183.29L899.079 1160.7L936.055 1182.06L938.52 1183.29L899.49 1205.88L860.049 1183.29ZM899.901 1207.52L938.931 1184.93V1230.11L899.901 1252.7V1207.52ZM932.357 1177.13L900.311 1158.65V1113.47L939.342 1136.06V1181.24L932.357 1177.13ZM901.133 1111.83L940.163 1089.24L979.193 1111.83L940.163 1134.42L901.133 1111.83ZM980.426 1113.47V1158.65L941.396 1181.24V1136.06L980.426 1113.47ZM941.396 1184.93L980.426 1207.52V1252.7L977.139 1250.64L941.396 1229.7V1184.93ZM942.217 1183.29L981.248 1160.7L1018.22 1182.06L1020.69 1183.29L981.658 1205.88L942.217 1183.29ZM982.48 1207.52L1021.51 1184.93V1230.11L982.48 1252.7V1207.52ZM1014.53 1177.13L982.48 1158.65V1113.47L1021.51 1136.06V1181.24L1014.53 1177.13ZM983.713 1111.83L1022.74 1089.24L1061.77 1111.83L1022.74 1134.42L983.713 1111.83ZM1063.01 1113.47V1158.65L1023.98 1181.24V1136.06L1063.01 1113.47ZM1023.56 1184.93L1062.59 1207.52V1252.7L1059.31 1250.64L1023.15 1229.7V1184.93H1023.56ZM1024.8 1183.29L1063.83 1160.7L1100.8 1182.06L1103.27 1183.29L1064.24 1205.88L1024.8 1183.29ZM1065.06 1207.52L1104.09 1184.93V1230.11L1065.06 1252.7V1207.52ZM1097.11 1177.13L1065.06 1158.65V1113.47L1104.09 1136.06V1181.24L1097.11 1177.13ZM1065.88 1111.83L1104.91 1089.24L1143.94 1111.83L1104.91 1134.42L1065.88 1111.83ZM1145.17 1113.47V1158.65L1106.14 1181.24V1136.06L1145.17 1113.47ZM1106.14 1184.93L1145.17 1207.52V1252.7L1141.89 1250.64L1106.14 1229.7V1184.93ZM1107.38 1183.29L1146.41 1160.7L1183.38 1182.06L1185.85 1183.29L1146.82 1205.88L1107.38 1183.29ZM1147.23 1207.52L1186.26 1184.93V1230.11L1147.23 1252.7V1207.52ZM1179.69 1177.13L1147.64 1158.65V1113.47L1186.67 1136.06V1181.24L1179.69 1177.13ZM1148.46 1111.83L1187.49 1089.24L1226.52 1111.83L1187.49 1134.42L1148.46 1111.83ZM1227.75 1113.47V1158.65L1188.72 1181.24V1136.06L1227.75 1113.47ZM1188.72 1184.93L1227.75 1207.52V1252.7L1224.47 1250.64L1188.72 1229.7V1184.93ZM1189.55 1183.29L1228.58 1160.7L1265.55 1182.06L1268.02 1183.29L1228.99 1205.88L1189.55 1183.29ZM1229.81 1207.52L1268.84 1184.93V1230.11L1229.81 1252.7V1207.52ZM1261.85 1177.13L1229.81 1158.65V1113.47L1268.84 1136.06V1181.24L1261.85 1177.13ZM1231.04 1111.83L1270.07 1089.24L1309.1 1111.83L1270.07 1134.42L1231.04 1111.83ZM1310.33 1113.47V1158.65L1271.3 1181.24V1136.06L1310.33 1113.47ZM1270.89 1184.93L1309.92 1207.52V1252.7L1306.64 1250.64L1270.48 1229.7V1184.93H1270.89ZM1272.12 1183.29L1311.16 1160.7L1348.13 1182.06L1350.6 1183.29L1311.57 1205.88L1272.12 1183.29ZM1312.39 1207.52L1351.42 1184.93V1230.11L1312.39 1252.7V1207.52ZM1344.43 1177.13L1312.39 1158.65V1113.47L1351.42 1136.06V1181.24L1344.43 1177.13ZM1313.21 1111.83L1352.24 1089.24L1391.27 1111.83L1352.24 1134.42L1313.21 1111.83ZM1392.5 1113.47V1158.65L1353.47 1181.24V1136.06L1392.5 1113.47ZM1353.47 1184.93L1392.5 1207.52V1252.7L1389.22 1250.64L1353.47 1229.7V1184.93ZM1354.7 1183.29L1393.73 1160.7L1430.71 1182.06L1433.18 1183.29L1394.15 1205.88L1354.7 1183.29ZM1394.56 1207.52L1433.59 1184.93V1230.11L1394.56 1252.7V1207.52ZM1427.01 1177.13L1394.97 1158.65V1113.47L1434 1136.06V1181.24L1427.01 1177.13ZM1395.79 1111.83L1434.82 1089.24L1473.85 1111.83L1434.82 1134.42L1395.79 1111.83ZM1475.08 1113.47V1158.65L1436.05 1181.24V1136.06L1475.08 1113.47ZM1436.05 1184.93L1475.08 1207.52V1252.7L1471.79 1250.64L1435.64 1229.7V1184.93H1436.05ZM1436.87 1183.29L1475.9 1160.7L1512.88 1182.06L1515.34 1183.29L1476.31 1205.88L1436.87 1183.29ZM1477.14 1207.52L1516.17 1184.93V1230.11L1477.14 1252.7V1207.52ZM1509.18 1177.13L1477.14 1158.65V1113.47L1516.17 1136.06V1181.24L1509.18 1177.13ZM1478.37 1111.83L1517.4 1089.24L1556.43 1111.83L1517.4 1134.42L1478.37 1111.83ZM1557.66 1113.47V1158.65L1518.63 1181.24V1136.06L1557.66 1113.47ZM1518.22 1184.93L1557.25 1207.52V1252.7L1553.96 1250.64L1518.22 1229.7V1184.93ZM1519.45 1183.29L1558.48 1160.7L1595.46 1182.06L1597.92 1183.29L1558.89 1205.88L1519.45 1183.29ZM1559.72 1207.52L1598.75 1184.93V1230.11L1559.72 1252.7V1207.52ZM1591.76 1177.13L1559.72 1158.65V1113.47L1598.75 1136.06V1181.24L1591.76 1177.13ZM1560.54 1111.83L1599.57 1089.24L1638.6 1111.83L1599.57 1134.42L1560.54 1111.83ZM1640.24 1113.47V1158.65L1601.21 1181.24V1136.06L1640.24 1113.47ZM1600.8 1184.93L1639.83 1207.52V1252.7L1636.54 1250.64L1600.39 1229.7V1184.93H1600.8ZM1602.03 1183.29L1641.06 1160.7L1678.04 1182.06L1680.5 1183.29L1641.47 1205.88L1602.03 1183.29ZM1642.29 1207.52L1681.33 1184.93V1230.11L1642.29 1252.7V1207.52ZM1674.34 1177.13L1642.29 1158.65V1113.47L1681.33 1136.06V1181.24L1674.34 1177.13ZM1643.12 1111.83L1682.15 1089.24L1721.18 1111.83L1682.15 1134.42L1643.12 1111.83ZM1722.41 1113.47V1158.65L1683.38 1181.24V1136.06L1722.41 1113.47ZM1683.38 1184.93L1722.41 1207.52V1252.7L1719.12 1250.64L1683.38 1229.7V1184.93ZM1684.2 1183.29L1723.23 1160.7L1760.21 1182.06L1762.67 1183.29L1723.64 1205.88L1684.2 1183.29ZM1724.46 1207.52L1763.49 1184.93V1230.11L1724.46 1252.7V1207.52ZM1756.51 1177.13L1724.46 1158.65V1113.47L1763.49 1136.06V1181.24L1756.51 1177.13ZM1725.7 1111.83L1764.73 1089.24L1803.76 1111.83L1764.73 1134.42L1725.7 1111.83ZM1804.99 1113.47V1158.65L1765.96 1181.24V1136.06L1804.99 1113.47ZM1765.96 1184.93L1804.99 1207.52V1252.7L1801.7 1250.64L1765.96 1229.7V1184.93ZM1766.78 1183.29L1805.81 1160.7L1842.79 1182.06L1845.25 1183.29L1806.22 1205.88L1766.78 1183.29ZM1807.04 1207.52L1846.07 1184.93V1230.11L1807.04 1252.7V1207.52ZM1839.09 1177.13L1807.04 1158.65V1113.47L1846.07 1136.06V1181.24L1839.09 1177.13ZM1807.86 1111.83L1846.9 1089.24L1885.93 1111.83L1846.9 1134.42L1807.86 1111.83ZM1887.57 1113.47V1158.65L1848.54 1181.24V1136.06L1887.57 1113.47ZM1848.13 1184.93L1887.16 1207.52V1252.7L1883.87 1250.64L1847.72 1229.7V1184.93H1848.13ZM1849.36 1183.29L1888.39 1160.7L1925.37 1182.06L1927.83 1183.29L1888.8 1205.88L1849.36 1183.29ZM1889.62 1207.52L1928.65 1184.93V1230.11L1889.62 1252.7V1207.52ZM1921.67 1177.13L1889.62 1158.65V1113.47L1928.65 1136.06V1181.24L1921.67 1177.13ZM1890.44 1111.83L1929.47 1089.24L1968.5 1111.83L1929.47 1134.42L1890.44 1111.83ZM1897.43 973.017L1890.44 968.91L1929.47 946.322L1968.5 968.91L1929.47 991.498L1897.43 973.017ZM1890.44 826.401L1929.47 803.813L1968.5 826.401L1929.47 848.989L1890.44 826.401ZM1890.44 683.481L1929.47 660.893L1968.5 683.481L1929.47 706.069L1890.44 683.481ZM1889.62 681.838V636.662L1928.65 614.075V659.25L1889.62 681.838ZM1890.44 540.561L1929.47 517.973L1968.5 540.561L1929.47 563.149L1890.44 540.561ZM1928.65 516.331L1889.62 538.918V493.743L1928.65 471.155V516.331ZM1928.65 565.203V610.378L1926.19 609.146L1889.21 587.79V542.615L1928.65 565.203ZM1925.37 610.789L1927.83 612.021L1888.8 634.609L1849.77 612.021L1888.8 589.433L1925.37 610.789ZM1848.13 610.378V565.203L1887.16 542.615V587.79L1848.13 610.378ZM1887.57 538.918L1848.54 516.331V471.155L1855.52 475.262L1887.57 493.743V538.918ZM1886.34 540.561L1847.31 563.149L1808.28 540.561L1847.31 517.973L1886.34 540.561ZM1846.07 516.331L1807.04 538.918V493.743L1846.07 471.155V516.331ZM1846.07 565.203V610.378L1843.61 609.146L1806.63 587.79V542.615L1846.07 565.203ZM1842.79 610.789L1845.25 612.021L1806.22 634.609L1767.19 612.021L1806.22 589.433L1842.79 610.789ZM1765.96 610.378V565.203L1804.99 542.615V587.79L1765.96 610.378ZM1804.99 538.918L1765.96 516.331V471.155L1772.94 475.262L1804.99 493.743V538.918ZM1803.76 540.561L1764.73 563.149L1725.7 540.561L1764.73 517.973L1803.76 540.561ZM1763.9 516.331L1724.87 538.918V493.743L1763.9 471.155V516.331ZM1763.9 565.203V610.378L1761.44 609.146L1724.46 587.79V542.615L1763.9 565.203ZM1760.21 610.789L1762.67 612.021L1723.64 634.609L1684.61 612.021L1723.64 589.433L1760.21 610.789ZM1683.38 610.378V565.203L1722.41 542.615V587.79L1683.38 610.378ZM1722.41 538.918L1683.38 516.331V471.155L1690.36 475.262L1722.41 493.743V538.918ZM1721.59 540.561L1682.56 563.149L1643.53 540.561L1682.56 517.973L1721.59 540.561ZM1681.33 516.331L1642.29 538.918V493.743L1681.33 471.155V516.331ZM1681.33 565.203V610.378L1678.86 609.146L1641.88 587.79V542.615L1681.33 565.203ZM1678.04 610.789L1680.5 612.021L1641.47 634.609L1602.44 612.021L1641.47 589.433L1678.04 610.789ZM1600.8 610.378V565.203L1639.83 542.615V587.79L1600.8 610.378ZM1640.24 538.918L1601.21 516.331V471.155L1608.19 475.262L1640.24 493.743V538.918ZM1639.01 540.561L1599.98 563.149L1560.95 540.561L1599.98 517.973L1639.01 540.561ZM1598.75 516.331L1559.72 538.918V493.743L1598.75 471.155V516.331ZM1598.75 565.203V610.378L1596.28 609.146L1559.3 587.79V542.615L1598.75 565.203ZM1595.46 610.789L1597.92 612.021L1558.89 634.609L1519.86 612.021L1558.89 589.433L1595.46 610.789ZM1518.22 610.378V565.203L1557.25 542.615V587.79L1518.22 610.378ZM1557.66 538.918L1518.63 516.331V471.155L1525.62 475.262L1557.66 493.743V538.918ZM1556.43 540.561L1517.4 563.149L1478.37 540.561L1517.4 517.973L1556.43 540.561ZM1516.17 516.331L1477.14 538.918V493.743L1516.17 471.155V516.331ZM1516.17 565.203V610.378L1513.7 609.146L1476.72 587.79V542.615L1516.17 565.203ZM1512.88 610.789L1515.34 612.021L1476.31 634.609L1437.28 612.021L1476.31 589.433L1512.88 610.789ZM1436.05 610.378V565.203L1475.08 542.615V587.79L1436.05 610.378ZM1475.08 538.918L1436.05 516.331V471.155L1443.04 475.262L1475.08 493.743V538.918ZM1474.26 540.561L1435.23 563.149L1396.2 540.561L1435.23 517.973L1474.26 540.561ZM1434 516.331L1394.97 538.918V493.743L1434 471.155V516.331ZM1434 565.203V610.378L1431.53 609.146L1394.56 587.79V542.615L1434 565.203ZM1430.71 610.789L1433.18 612.021L1394.15 634.609L1355.12 612.021L1394.15 589.433L1430.71 610.789ZM1353.47 610.378V565.203L1392.5 542.615V587.79L1353.47 610.378ZM1392.5 538.918L1353.47 516.331V471.155L1360.46 475.262L1392.5 493.743V538.918ZM1391.68 540.561L1352.65 563.149L1313.62 540.561L1352.65 517.973L1391.68 540.561ZM1351.42 516.331L1312.39 538.918V493.743L1351.42 471.155V516.331ZM1351.42 565.203V610.378L1348.95 609.146L1311.98 587.79V542.615L1351.42 565.203ZM1348.13 610.789L1350.6 612.021L1311.57 634.609L1272.54 612.021L1311.57 589.433L1348.13 610.789ZM1270.89 610.378V565.203L1309.92 542.615V587.79L1270.89 610.378ZM1310.33 538.918L1271.3 516.331V471.155L1278.29 475.262L1310.33 493.743V538.918ZM1309.1 540.561L1270.07 563.149L1231.04 540.561L1270.07 517.973L1309.1 540.561ZM1268.84 516.331L1229.81 538.918V493.743L1268.84 471.155V516.331ZM1268.84 565.203V610.378L1266.37 609.146L1229.4 587.79V542.615L1268.84 565.203ZM1265.55 610.789L1268.02 612.021L1228.99 634.609L1189.96 612.021L1228.99 589.433L1265.55 610.789ZM1188.72 610.378V565.203L1227.75 542.615V587.79L1188.72 610.378ZM1227.75 538.918L1188.72 516.331V471.155L1195.71 475.262L1227.75 493.743V538.918ZM1226.93 540.561L1187.9 563.149L1148.87 540.561L1187.9 517.973L1226.93 540.561ZM1186.67 516.331L1147.64 538.918V493.743L1186.67 471.155V516.331ZM1186.67 565.203V610.378L1184.2 609.146L1147.23 587.79V542.615L1186.67 565.203ZM1183.38 610.789L1185.85 612.021L1146.82 634.609L1107.79 612.021L1146.82 589.433L1183.38 610.789ZM1106.14 610.378V565.203L1145.17 542.615V587.79L1106.14 610.378ZM1145.17 538.918L1106.14 516.331V471.155L1113.13 475.262L1145.17 493.743V538.918ZM1144.35 540.561L1105.32 563.149L1066.29 540.561L1105.32 517.973L1144.35 540.561ZM1104.09 516.331L1065.06 538.918V493.743L1104.09 471.155V516.331ZM1104.09 565.203V610.378L1101.62 609.146L1064.65 587.79V542.615L1104.09 565.203ZM1100.8 610.789L1103.27 612.021L1064.24 634.609L1025.21 612.021L1064.24 589.433L1100.8 610.789ZM1023.56 610.378V565.203L1062.59 542.615V587.79L1023.56 610.378ZM1063.01 538.918L1023.98 516.331V471.155L1030.96 475.262L1063.01 493.743V538.918ZM1061.77 540.561L1022.74 563.149L983.713 540.561L1022.74 517.973L1061.77 540.561ZM1021.51 516.331L982.48 538.918V493.743L1021.51 471.155V516.331ZM1021.51 565.203V610.378L1019.05 609.146L982.069 587.79V542.615L1021.51 565.203ZM1018.22 610.789L1020.69 612.021L981.658 634.609L942.628 612.021L981.658 589.433L1018.22 610.789ZM941.396 610.378V565.203L980.426 542.615V587.79L941.396 610.378ZM980.426 538.918L941.396 516.331V471.155L948.38 475.262L980.426 493.743V538.918ZM979.604 540.561L940.574 563.149L901.544 540.561L940.574 517.973L979.604 540.561ZM939.342 516.331L900.311 538.918V493.743L939.342 471.155V516.331ZM939.342 565.203V610.378L936.876 609.146L899.901 587.79V542.615L939.342 565.203ZM936.055 610.789L938.52 612.021L899.49 634.609L860.46 612.021L899.49 589.433L936.055 610.789ZM858.816 610.378V565.203L897.846 542.615V587.79L858.816 610.378ZM897.846 538.918L858.816 516.331V471.155L865.801 475.262L897.846 493.743V538.918ZM897.025 540.561L857.995 563.149L818.964 540.561L857.995 517.973L897.025 540.561ZM856.762 516.331L817.732 538.918V493.743L856.762 471.155V516.331ZM856.762 565.203V610.378L854.297 609.146L817.321 587.79V542.615L856.762 565.203ZM853.475 610.789L855.94 612.021L816.91 634.609L777.88 612.021L816.91 589.433L853.475 610.789ZM776.237 610.378V565.203L815.267 542.615V587.79L776.237 610.378ZM815.678 538.918L776.647 516.331V471.155L783.632 475.262L815.678 493.743V538.918ZM814.445 540.561L775.415 563.149L736.385 540.561L775.415 517.973L814.445 540.561ZM774.182 516.331L735.152 538.918V493.743L774.182 471.155V516.331ZM774.182 565.203V610.378L771.717 609.146L734.741 587.79V542.615L774.182 565.203ZM770.896 610.789L773.361 612.021L734.331 634.609L695.3 612.021L734.331 589.433L770.896 610.789ZM694.068 610.378V565.203L733.098 542.615V587.79L694.068 610.378ZM733.098 538.918L694.068 516.331V471.155L701.052 475.262L733.098 493.743V538.918ZM732.276 540.561L693.246 563.149L654.216 540.561L693.246 517.973L732.276 540.561ZM692.014 516.331L652.984 538.918V493.743L692.014 471.155V516.331ZM692.014 565.203V610.378L689.549 609.146L652.573 587.79V542.615L692.014 565.203ZM688.316 610.789L690.781 612.021L651.751 634.609L612.721 612.021L651.751 589.433L688.316 610.789ZM611.488 610.378V565.203L650.518 542.615V587.79L611.488 610.378ZM650.518 538.918L611.488 516.331V471.155L618.473 475.262L650.518 493.743V538.918ZM649.697 540.561L610.667 563.149L571.637 540.561L610.667 517.973L649.697 540.561ZM609.434 516.331L570.404 538.918V493.743L609.434 471.155V516.331ZM609.434 565.203V610.378L606.969 609.146L569.993 587.79V542.615L609.434 565.203ZM606.147 610.789L608.612 612.021L569.582 634.609L530.552 612.021L569.582 589.433L606.147 610.789ZM528.909 610.378V565.203L567.939 542.615V587.79L528.909 610.378ZM568.35 538.918L529.32 516.331V471.155L536.304 475.262L568.35 493.743V538.918ZM567.117 540.561L528.087 563.149L489.057 540.561L528.087 517.973L567.117 540.561ZM526.855 516.331L487.824 538.918V493.743L526.855 471.155V516.331ZM526.855 565.203V610.378L524.39 609.146L487.414 587.79V542.615L526.855 565.203ZM523.568 610.789L526.033 612.021L487.003 634.609L447.973 612.021L487.003 589.433L523.568 610.789ZM446.74 610.378V565.203L485.77 542.615V587.79L446.74 610.378ZM485.77 538.918L446.74 516.331V471.155L453.724 475.262L485.77 493.743V538.918ZM484.538 540.561L445.508 563.149L406.477 540.561L445.508 517.973L484.538 540.561ZM444.686 516.331L405.656 538.918V493.743L444.686 471.155V516.331ZM444.686 565.203V610.378L442.221 609.146L405.245 587.79V542.615L444.686 565.203ZM440.988 610.789L443.453 612.021L404.423 634.609L365.393 612.021L404.423 589.433L440.988 610.789ZM364.161 610.378V565.203L403.191 542.615V587.79L364.161 610.378ZM403.191 538.918L364.161 516.331V471.155L371.145 475.262L403.191 493.743V538.918ZM402.369 540.561L363.339 563.149L324.309 540.561L363.339 517.973L402.369 540.561ZM362.106 516.331L323.076 538.918V493.743L362.106 471.155V516.331ZM362.106 565.203V610.378L359.641 609.146L322.665 587.79V542.615L362.106 565.203ZM358.82 610.789L361.285 612.021L322.254 634.609L283.224 612.021L322.254 589.433L358.82 610.789ZM281.581 610.378V565.203L320.611 542.615V587.79L281.581 610.378ZM321.022 538.918L281.992 516.331V471.155L288.976 475.262L321.022 493.743V538.918ZM319.789 540.561L280.759 563.149L241.729 540.561L280.759 517.973L319.789 540.561ZM279.527 516.331L240.497 538.918V493.743L279.527 471.155V516.331ZM279.527 565.203V610.378L277.062 609.146L240.086 587.79V542.615L279.527 565.203ZM276.24 610.789L278.705 612.021L239.675 634.609L200.645 612.021L239.675 589.433L276.24 610.789ZM199.412 610.378V565.203L238.442 542.615V587.79L199.412 610.378ZM238.442 538.918L199.412 516.331V471.155L206.397 475.262L238.442 493.743V538.918ZM237.21 540.561L198.18 563.149L159.15 540.561L198.18 517.973L237.21 540.561ZM197.358 516.331L158.328 538.918V493.743L197.358 471.155V516.331ZM197.358 565.203V610.378L194.893 609.146L157.917 587.79V542.615L197.358 565.203ZM193.66 610.789L196.125 612.021L157.095 634.609L118.065 612.021L157.095 589.433L193.66 610.789ZM116.833 610.378V565.203L155.863 542.615V587.79L116.833 610.378ZM155.863 538.918L116.833 516.331V471.155L123.817 475.262L155.863 493.743V538.918ZM155.041 540.561L116.011 563.149L76.9808 540.561L116.011 517.973L155.041 540.561ZM114.778 516.331L75.7483 538.918V493.743L114.778 471.155V516.331ZM114.778 565.203V610.378L112.313 609.146L75.3374 587.79V542.615L114.778 565.203ZM111.492 610.789L113.957 612.021L74.9266 634.609L35.8965 612.021L74.9266 589.433L111.492 610.789ZM34.2531 610.378V565.203L73.2832 542.615V587.79L34.2531 610.378ZM73.6941 538.918L34.2531 516.331V471.155L41.2374 475.262L73.2832 493.743V538.918H73.6941ZM72.4615 540.561L33.4314 563.149L-5.59875 540.561L33.4314 517.973L72.4615 540.561ZM32.1989 516.331L-6.83128 538.918V493.743L32.1989 471.155V516.331ZM32.1989 565.203V610.378L30.1446 609.146L-6.83128 587.79V542.615L32.1989 565.203ZM28.9121 610.789L31.3772 612.021L-7.65297 634.609L-46.6831 612.021L-7.65297 589.433L28.9121 610.789ZM-8.8855 587.79L-47.9156 610.378V565.203L-8.8855 542.615V587.79ZM-8.8855 636.662V681.838L-15.8698 677.731L-47.9156 659.25V614.075L-8.8855 636.662ZM-8.8855 730.3L-47.9156 752.887V707.712L-8.8855 685.124V730.3ZM-8.8855 779.172V824.347L-47.9156 801.759V756.584L-8.8855 779.172ZM-8.8855 873.219L-47.9156 895.807V850.632L-8.8855 828.044V873.219ZM-8.8855 922.091V967.267L-47.9156 944.679V899.503L-8.8855 922.091ZM-8.8855 1016.14L-47.9156 1038.73V993.551L-8.8855 970.963V1016.14ZM-8.8855 1064.6V1109.78L-47.9156 1087.19V1042.01L-8.8855 1064.6ZM-8.8855 1158.65L-47.9156 1181.24V1136.06L-8.8855 1113.47V1158.65ZM-8.8855 1207.52V1252.7L-12.1722 1250.64L-47.9156 1229.7V1184.52L-8.8855 1207.52ZM-8.0638 1446.13L30.9663 1468.72L-8.0638 1491.31L-47.094 1468.72L-8.0638 1446.13ZM-47.9156 1466.67V1421.49L-8.8855 1398.9V1444.08L-47.9156 1466.67ZM-47.9156 1373.03V1327.85L-8.8855 1350.44V1395.62L-47.9156 1373.03ZM-47.094 1325.8L-8.0638 1303.21L28.0904 1324.16L31.3772 1326.21L-7.65297 1348.8L-47.094 1325.8ZM-47.9156 1324.16V1278.98L-8.8855 1256.39V1301.57L-47.9156 1324.16ZM-6.83128 1350.44L32.1989 1327.85V1373.03L-6.83128 1395.62V1350.44ZM28.9121 1322.1L-7.24213 1301.16V1255.98L31.788 1278.57V1323.75L28.9121 1322.1ZM-6.00959 1254.34L33.0206 1231.75L69.1748 1252.7L72.4615 1254.75L33.4314 1277.34L-6.00959 1254.34ZM73.6941 1256.39V1301.57L34.6639 1324.16V1278.98L73.6941 1256.39ZM34.2531 1327.85L73.2832 1350.44V1395.62L34.2531 1373.03V1327.85ZM74.5157 1446.13L113.546 1468.72L74.5157 1491.31L35.4856 1468.72L74.5157 1446.13ZM34.2531 1466.67V1421.49L73.2832 1398.9V1444.08L34.2531 1466.67ZM35.4856 1325.8L74.5157 1303.21L110.259 1324.16L113.546 1326.21L74.5157 1348.8L35.4856 1325.8ZM75.7483 1350.44L114.778 1327.85V1373.03L75.7483 1395.62V1350.44ZM111.492 1322.1L75.7483 1301.16V1255.98L114.778 1278.57V1323.75L111.492 1322.1ZM76.57 1254.34L115.6 1231.75L151.344 1252.7L154.63 1254.75L115.6 1277.34L76.57 1254.34ZM155.863 1256.39V1301.57L116.833 1324.16V1278.98L155.863 1256.39ZM116.833 1327.85L155.863 1350.44V1395.62L116.833 1373.03V1327.85ZM157.095 1446.13L196.125 1468.72L157.095 1491.31L118.065 1468.72L157.095 1446.13ZM116.833 1466.67V1421.49L155.863 1398.9V1444.08L116.833 1466.67ZM117.654 1325.8L156.684 1303.21L192.428 1324.16L195.715 1326.21L156.684 1348.8L117.654 1325.8ZM157.917 1350.44L196.947 1327.85V1373.03L157.917 1395.62V1350.44ZM194.071 1322.1L158.328 1301.16V1255.98L197.358 1278.57V1323.75L194.071 1322.1ZM159.15 1254.34L198.18 1231.75L234.334 1252.7L237.621 1254.75L198.591 1277.34L159.15 1254.34ZM238.442 1256.39V1301.57L199.412 1324.16V1278.98L238.442 1256.39ZM199.412 1327.85L238.442 1350.44V1395.62L199.412 1373.03V1327.85ZM239.264 1446.13L278.294 1468.72L239.264 1491.31L200.234 1468.72L239.264 1446.13ZM199.412 1466.67V1421.49L238.442 1398.9V1444.08L199.412 1466.67ZM200.234 1325.8L239.264 1303.21L275.418 1324.16L278.705 1326.21L239.675 1348.8L200.234 1325.8ZM240.497 1350.44L279.527 1327.85V1373.03L240.497 1395.62V1350.44ZM276.24 1322.1L240.086 1301.16V1255.98L279.116 1278.57V1323.75L276.24 1322.1ZM241.318 1254.34L280.348 1231.75L316.092 1252.7L319.379 1254.75L280.348 1277.34L241.318 1254.34ZM321.022 1256.39V1301.57L281.992 1324.16V1278.98L321.022 1256.39ZM281.581 1327.85L320.611 1350.44V1395.62L281.581 1373.03V1327.85ZM321.844 1446.13L360.874 1468.72L321.844 1491.31L282.813 1468.72L321.844 1446.13ZM281.581 1466.67V1421.49L320.611 1398.9V1444.08L281.581 1466.67ZM282.813 1325.8L321.844 1303.21L357.587 1324.16L360.874 1326.21L321.844 1348.8L282.813 1325.8ZM323.076 1350.44L362.106 1327.85V1373.03L323.076 1395.62V1350.44ZM358.82 1322.1L323.076 1301.16V1255.98L362.106 1278.57V1323.75L358.82 1322.1ZM323.898 1254.34L362.928 1231.75L398.671 1252.7L401.958 1254.75L362.928 1277.34L323.898 1254.34ZM403.191 1256.39V1301.57L364.161 1324.16V1278.98L403.191 1256.39ZM364.161 1327.85L403.191 1350.44V1395.62L364.161 1373.03V1327.85ZM404.423 1446.13L443.453 1468.72L404.423 1491.31L365.393 1468.72L404.423 1446.13ZM364.161 1466.67V1421.49L403.191 1398.9V1444.08L364.161 1466.67ZM364.982 1325.8L404.012 1303.21L440.167 1324.16L443.453 1326.21L404.423 1348.8L364.982 1325.8ZM405.245 1350.44L444.275 1327.85V1373.03L405.245 1395.62V1350.44ZM441.399 1322.1L405.245 1301.16V1255.98L444.275 1278.57V1323.75L441.399 1322.1ZM406.477 1254.34L445.508 1231.75L481.662 1252.7L484.948 1254.75L445.918 1277.34L406.477 1254.34ZM485.77 1256.39V1301.57L446.74 1324.16V1278.98L485.77 1256.39ZM446.74 1327.85L485.77 1350.44V1395.62L446.74 1373.03V1327.85ZM486.592 1446.13L525.622 1468.72L486.592 1491.31L447.562 1468.72L486.592 1446.13ZM446.74 1466.67V1421.49L485.77 1398.9V1444.08L446.74 1466.67ZM447.562 1325.8L486.592 1303.21L522.335 1324.16L525.622 1326.21L486.592 1348.8L447.562 1325.8ZM487.824 1350.44L526.855 1327.85V1373.03L487.824 1395.62V1350.44ZM523.568 1322.1L487.824 1301.16V1255.98L526.855 1278.57V1323.75L523.568 1322.1ZM488.646 1254.34L527.676 1231.75L563.42 1252.7L566.706 1254.75L527.676 1277.34L488.646 1254.34ZM568.35 1256.39V1301.57L529.32 1324.16V1278.98L568.35 1256.39ZM528.909 1327.85L567.939 1350.44V1395.62L528.909 1373.03V1327.85ZM569.171 1446.13L608.202 1468.72L569.171 1491.31L530.141 1468.72L569.171 1446.13ZM528.909 1466.67V1421.49L567.939 1398.9V1444.08L528.909 1466.67ZM530.141 1325.8L569.171 1303.21L604.915 1324.16L608.202 1326.21L569.171 1348.8L530.141 1325.8ZM570.404 1350.44L609.434 1327.85V1373.03L570.404 1395.62V1350.44ZM606.147 1322.1L570.404 1301.16V1255.98L609.434 1278.57V1323.75L606.147 1322.1ZM571.226 1254.34L610.256 1231.75L646.41 1252.7L649.697 1254.75L610.667 1277.34L571.226 1254.34ZM650.518 1256.39V1301.57L611.488 1324.16V1278.98L650.518 1256.39ZM611.488 1327.85L650.518 1350.44V1395.62L611.488 1373.03V1327.85ZM651.751 1446.13L690.781 1468.72L651.751 1491.31L612.721 1468.72L651.751 1446.13ZM611.488 1466.67V1421.49L650.518 1398.9V1444.08L611.488 1466.67ZM612.31 1325.8L651.34 1303.21L687.494 1324.16L690.781 1326.21L651.751 1348.8L612.31 1325.8ZM652.573 1350.44L691.603 1327.85V1373.03L652.573 1395.62V1350.44ZM688.727 1322.1L652.573 1301.16V1255.98L691.603 1278.57V1323.75L688.727 1322.1ZM653.805 1254.34L692.835 1231.75L728.579 1252.7L731.866 1254.75L692.835 1277.34L653.805 1254.34ZM733.098 1256.39V1301.57L694.068 1324.16V1278.98L733.098 1256.39ZM694.068 1327.85L733.098 1350.44V1395.62L694.068 1373.03V1327.85ZM733.92 1446.13L772.95 1468.72L733.92 1491.31L694.89 1468.72L733.92 1446.13ZM694.068 1466.67V1421.49L733.098 1398.9V1444.08L694.068 1466.67ZM694.89 1325.8L733.92 1303.21L769.663 1324.16L772.95 1326.21L733.92 1348.8L694.89 1325.8ZM735.152 1350.44L774.182 1327.85V1373.03L735.152 1395.62V1350.44ZM770.896 1322.1L735.152 1301.16V1255.98L774.182 1278.57V1323.75L770.896 1322.1ZM736.385 1254.34L775.415 1231.75L811.158 1252.7L814.445 1254.75L775.415 1277.34L736.385 1254.34ZM815.678 1256.39V1301.57L776.647 1324.16V1278.98L815.678 1256.39ZM776.237 1327.85L815.267 1350.44V1395.62L776.237 1373.03V1327.85ZM816.499 1446.13L855.529 1468.72L816.499 1491.31L777.469 1468.72L816.499 1446.13ZM776.237 1466.67V1421.49L815.267 1398.9V1444.08L776.237 1466.67ZM777.469 1325.8L816.499 1303.21L852.654 1324.16L855.94 1326.21L816.91 1348.8L777.469 1325.8ZM817.732 1350.44L856.762 1327.85V1373.03L817.732 1395.62V1350.44ZM853.475 1322.1L817.321 1301.16V1255.98L856.351 1278.57V1323.75L853.475 1322.1ZM818.554 1254.34L857.584 1231.75L893.738 1252.7L897.025 1254.75L857.995 1277.34L818.554 1254.34ZM897.846 1256.39V1301.57L858.816 1324.16V1278.98L897.846 1256.39ZM858.816 1327.85L897.846 1350.44V1395.62L858.816 1373.03V1327.85ZM899.079 1446.13L938.109 1468.72L899.079 1491.31L860.049 1468.72L899.079 1446.13ZM858.816 1466.67V1421.49L897.846 1398.9V1444.08L858.816 1466.67ZM860.049 1325.8L899.079 1303.21L934.822 1324.16L938.109 1326.21L899.079 1348.8L860.049 1325.8ZM899.901 1350.44L938.931 1327.85V1373.03L899.901 1395.62V1350.44ZM936.055 1322.1L900.311 1301.16V1255.98L939.342 1278.57V1323.75L936.055 1322.1ZM901.133 1254.34L940.163 1231.75L975.907 1252.7L979.193 1254.75L940.163 1277.34L901.133 1254.34ZM980.426 1256.39V1301.57L941.396 1324.16V1278.98L980.426 1256.39ZM941.396 1327.85L980.426 1350.44V1395.62L941.396 1373.03V1327.85ZM981.658 1446.13L1020.69 1468.72L981.658 1491.31L942.628 1468.72L981.658 1446.13ZM941.396 1466.67V1421.49L980.426 1398.9V1444.08L941.396 1466.67ZM942.217 1325.8L981.248 1303.21L1016.99 1324.16L1020.28 1326.21L981.248 1348.8L942.217 1325.8ZM982.48 1350.44L1021.51 1327.85V1373.03L982.48 1395.62V1350.44ZM1018.63 1322.1L982.891 1301.16V1255.98L1021.92 1278.57V1323.75L1018.63 1322.1ZM983.713 1254.34L1022.74 1231.75L1058.9 1252.7L1062.18 1254.75L1023.15 1277.34L983.713 1254.34ZM1063.01 1256.39V1301.57L1023.98 1324.16V1278.98L1063.01 1256.39ZM1023.56 1327.85L1062.59 1350.44V1395.62L1023.56 1373.03V1327.85ZM1063.83 1446.13L1102.86 1468.72L1063.83 1491.31L1024.8 1468.72L1063.83 1446.13ZM1023.56 1466.67V1421.49L1062.59 1398.9V1444.08L1023.56 1466.67ZM1024.8 1325.8L1063.83 1303.21L1099.98 1324.16L1103.27 1326.21L1064.24 1348.8L1024.8 1325.8ZM1065.06 1350.44L1104.09 1327.85V1373.03L1065.06 1395.62V1350.44ZM1100.8 1322.1L1064.65 1301.16V1255.98L1103.68 1278.57V1323.75L1100.8 1322.1ZM1065.88 1254.34L1104.91 1231.75L1140.65 1252.7L1143.94 1254.75L1104.91 1277.34L1065.88 1254.34ZM1145.17 1256.39V1301.57L1106.14 1324.16V1278.98L1145.17 1256.39ZM1106.14 1327.85L1145.17 1350.44V1395.62L1106.14 1373.03V1327.85ZM1146.41 1446.13L1185.44 1468.72L1146.41 1491.31L1107.38 1468.72L1146.41 1446.13ZM1106.14 1466.67V1421.49L1145.17 1398.9V1444.08L1106.14 1466.67ZM1107.38 1325.8L1146.41 1303.21L1182.15 1324.16L1185.44 1326.21L1146.41 1348.8L1107.38 1325.8ZM1147.23 1350.44L1186.26 1327.85V1373.03L1147.23 1395.62V1350.44ZM1183.38 1322.1L1147.64 1301.16V1255.98L1186.67 1278.57V1323.75L1183.38 1322.1ZM1148.46 1254.34L1187.49 1231.75L1223.23 1252.7L1226.52 1254.75L1187.49 1277.34L1148.46 1254.34ZM1227.75 1256.39V1301.57L1188.72 1324.16V1278.98L1227.75 1256.39ZM1188.72 1327.85L1227.75 1350.44V1395.62L1188.72 1373.03V1327.85ZM1228.99 1446.13L1268.02 1468.72L1228.99 1491.31L1189.96 1468.72L1228.99 1446.13ZM1188.72 1466.67V1421.49L1227.75 1398.9V1444.08L1188.72 1466.67ZM1189.55 1325.8L1228.58 1303.21L1264.73 1324.16L1268.02 1326.21L1228.99 1348.8L1189.55 1325.8ZM1229.81 1350.44L1268.84 1327.85V1373.03L1229.81 1395.62V1350.44ZM1265.96 1322.1L1229.81 1301.16V1255.98L1268.84 1278.57V1323.75L1265.96 1322.1ZM1231.04 1254.34L1270.07 1231.75L1306.22 1252.7L1309.51 1254.75L1270.48 1277.34L1231.04 1254.34ZM1310.33 1256.39V1301.57L1271.3 1324.16V1278.98L1310.33 1256.39ZM1270.89 1327.85L1309.92 1350.44V1395.62L1270.89 1373.03V1327.85ZM1311.16 1446.13L1350.19 1468.72L1311.16 1491.31L1272.12 1468.72L1311.16 1446.13ZM1270.89 1466.67V1421.49L1309.92 1398.9V1444.08L1270.89 1466.67ZM1272.12 1325.8L1311.16 1303.21L1346.9 1324.16L1350.19 1326.21L1311.16 1348.8L1272.12 1325.8ZM1312.39 1350.44L1351.42 1327.85V1373.03L1312.39 1395.62V1350.44ZM1348.13 1322.1L1312.39 1301.16V1255.98L1351.42 1278.57V1323.75L1348.13 1322.1ZM1313.21 1254.34L1352.24 1231.75L1387.98 1252.7L1391.27 1254.75L1352.24 1277.34L1313.21 1254.34ZM1392.5 1256.39V1301.57L1353.47 1324.16V1278.98L1392.5 1256.39ZM1353.47 1327.85L1392.5 1350.44V1395.62L1353.47 1373.03V1327.85ZM1393.73 1446.13L1432.76 1468.72L1393.73 1491.31L1354.7 1468.72L1393.73 1446.13ZM1353.47 1466.67V1421.49L1392.5 1398.9V1444.08L1353.47 1466.67ZM1354.7 1325.8L1393.73 1303.21L1429.89 1324.16L1433.18 1326.21L1394.15 1348.8L1354.7 1325.8ZM1394.56 1350.44L1433.59 1327.85V1373.03L1394.56 1395.62V1350.44ZM1430.71 1322.1L1394.56 1301.16V1255.98L1433.59 1278.57V1323.75L1430.71 1322.1ZM1395.79 1254.34L1434.82 1231.75L1470.97 1252.7L1474.26 1254.75L1435.23 1277.34L1395.79 1254.34ZM1475.08 1256.39V1301.57L1436.05 1324.16V1278.98L1475.08 1256.39ZM1436.05 1327.85L1475.08 1350.44V1395.62L1436.05 1373.03V1327.85ZM1476.31 1446.13L1515.34 1468.72L1476.31 1491.31L1437.28 1468.72L1476.31 1446.13ZM1436.05 1466.67V1421.49L1475.08 1398.9V1444.08L1436.05 1466.67ZM1436.87 1325.8L1475.9 1303.21L1511.65 1324.16L1514.93 1326.21L1475.9 1348.8L1436.87 1325.8ZM1477.14 1350.44L1516.17 1327.85V1373.03L1477.14 1395.62V1350.44ZM1513.29 1322.1L1477.55 1301.16V1255.98L1516.58 1278.57V1323.75L1513.29 1322.1ZM1478.37 1254.34L1517.4 1231.75L1553.14 1252.7L1556.43 1254.75L1517.4 1277.34L1478.37 1254.34ZM1557.66 1256.39V1301.57L1518.63 1324.16V1278.98L1557.66 1256.39ZM1518.22 1327.85L1557.25 1350.44V1395.62L1518.22 1373.03V1327.85ZM1558.48 1446.13L1597.51 1468.72L1558.48 1491.31L1519.45 1468.72L1558.48 1446.13ZM1518.22 1466.67V1421.49L1557.25 1398.9V1444.08L1518.22 1466.67ZM1519.45 1325.8L1558.48 1303.21L1594.23 1324.16L1597.51 1326.21L1558.48 1348.8L1519.45 1325.8ZM1559.72 1350.44L1598.75 1327.85V1373.03L1559.72 1395.62V1350.44ZM1595.46 1322.1L1559.72 1301.16V1255.98L1598.75 1278.57V1323.75L1595.46 1322.1ZM1560.54 1254.34L1599.57 1231.75L1635.72 1252.7L1639.01 1254.75L1599.98 1277.34L1560.54 1254.34ZM1640.24 1256.39V1301.57L1601.21 1324.16V1278.98L1640.24 1256.39ZM1600.8 1327.85L1639.83 1350.44V1395.62L1600.8 1373.03V1327.85ZM1641.06 1446.13L1680.09 1468.72L1641.06 1491.31L1602.03 1468.72L1641.06 1446.13ZM1600.8 1466.67V1421.49L1639.83 1398.9V1444.08L1600.8 1466.67ZM1602.03 1325.8L1641.06 1303.21L1677.22 1324.16L1680.5 1326.21L1641.47 1348.8L1602.03 1325.8ZM1642.29 1350.44L1681.33 1327.85V1373.03L1642.29 1395.62V1350.44ZM1678.04 1322.1L1641.88 1301.16V1255.98L1680.91 1278.57V1323.75L1678.04 1322.1ZM1643.12 1254.34L1682.15 1231.75L1717.89 1252.7L1721.18 1254.75L1682.15 1277.34L1643.12 1254.34ZM1722.41 1256.39V1301.57L1683.38 1324.16V1278.98L1722.41 1256.39ZM1683.38 1327.85L1722.41 1350.44V1395.62L1683.38 1373.03V1327.85ZM1723.64 1446.13L1762.67 1468.72L1723.64 1491.31L1684.61 1468.72L1723.64 1446.13ZM1683.38 1466.67V1421.49L1722.41 1398.9V1444.08L1683.38 1466.67ZM1684.2 1325.8L1723.23 1303.21L1758.97 1324.16L1762.26 1326.21L1723.23 1348.8L1684.2 1325.8ZM1724.46 1350.44L1763.49 1327.85V1373.03L1724.46 1395.62V1350.44ZM1760.62 1322.1L1724.87 1301.16V1255.98L1763.9 1278.57V1323.75L1760.62 1322.1ZM1725.7 1254.34L1764.73 1231.75L1800.47 1252.7L1803.76 1254.75L1764.73 1277.34L1725.7 1254.34ZM1804.99 1256.39V1301.57L1765.96 1324.16V1278.98L1804.99 1256.39ZM1765.96 1327.85L1804.99 1350.44V1395.62L1765.96 1373.03V1327.85ZM1805.81 1446.13L1844.84 1468.72L1805.81 1491.31L1766.78 1468.72L1805.81 1446.13ZM1765.96 1466.67V1421.49L1804.99 1398.9V1444.08L1765.96 1466.67ZM1766.78 1325.8L1805.81 1303.21L1841.96 1324.16L1845.25 1326.21L1806.22 1348.8L1766.78 1325.8ZM1807.04 1350.44L1846.07 1327.85V1373.03L1807.04 1395.62V1350.44ZM1842.79 1322.1L1806.63 1301.16V1255.98L1845.66 1278.57V1323.75L1842.79 1322.1ZM1807.86 1254.34L1846.9 1231.75L1883.05 1252.7L1886.34 1254.75L1847.31 1277.34L1807.86 1254.34ZM1887.57 1256.39V1301.57L1848.54 1324.16V1278.98L1887.57 1256.39ZM1848.13 1327.85L1887.16 1350.44V1395.62L1848.13 1373.03V1327.85ZM1888.39 1446.13L1927.42 1468.72L1888.39 1491.31L1849.36 1468.72L1888.39 1446.13ZM1848.13 1466.67V1421.49L1887.16 1398.9V1444.08L1848.13 1466.67ZM1849.36 1325.8L1888.39 1303.21L1924.13 1324.16L1927.42 1326.21L1888.39 1348.8L1849.36 1325.8ZM1889.62 1350.44L1928.65 1327.85V1373.03L1889.62 1395.62V1350.44ZM1925.37 1322.1L1889.62 1301.16V1255.98L1928.65 1278.57V1323.75L1925.37 1322.1ZM1890.44 1254.34L1929.47 1231.75L1968.5 1254.34L1929.47 1276.93L1890.44 1254.34ZM1969.74 1301.57L1930.71 1324.16V1278.98L1969.74 1256.39V1301.57ZM1969.74 1207.52V1252.7L1930.71 1230.11V1184.93L1969.74 1207.52ZM1969.74 1158.65L1930.71 1181.24V1136.06L1969.74 1113.47V1158.65ZM1969.74 1064.6V1109.78L1930.71 1087.19V1042.01L1969.74 1064.6ZM1969.74 1016.14L1930.71 1038.73V993.551L1969.74 970.963V1016.14ZM1969.74 922.091V967.267L1930.71 944.679V899.503L1969.74 922.091ZM1969.74 873.219L1930.71 895.807V850.632L1969.74 828.044V873.219ZM1969.74 779.172V824.347L1930.71 801.759V756.584L1969.74 779.172ZM1969.74 730.3L1930.71 752.887V707.712L1969.74 685.124V730.3ZM1969.74 636.662V681.838L1930.71 659.25V614.075L1969.74 636.662ZM1969.74 587.79L1930.71 610.378V565.203L1969.74 542.615V587.79ZM1937.69 475.262L1969.74 493.743V538.918L1930.71 516.331V471.155L1937.69 475.262ZM1929.47 375.464L1969.74 398.463V444.871L1930.71 467.459V421.051L1890.44 398.052L1929.47 375.464ZM1889.62 399.695L1928.65 422.283V467.459L1889.62 444.871V399.695ZM1888.39 446.924L1927.42 469.512L1888.39 492.1L1856.34 473.619L1849.36 469.512L1888.39 446.924ZM1887.57 444.871L1848.54 467.459V422.283L1887.57 399.695V444.871ZM1847.31 375.464L1886.34 398.052L1847.31 420.64L1808.28 398.052L1847.31 375.464ZM1807.04 399.695L1846.07 422.283V467.459L1807.04 444.871V399.695ZM1805.81 446.924L1844.84 469.512L1805.81 492.1L1773.76 473.619L1766.78 469.512L1805.81 446.924ZM1804.99 444.871L1765.96 467.459V422.283L1804.99 399.695V444.871ZM1764.73 375.464L1803.76 398.052L1764.73 420.64L1725.7 398.052L1764.73 375.464ZM1724.46 399.695L1763.9 422.283V467.459L1724.87 444.871V399.695H1724.46ZM1723.64 446.924L1762.67 469.512L1723.64 492.1L1691.6 473.619L1684.61 469.512L1723.64 446.924ZM1722.41 444.871L1683.38 467.459V422.283L1722.41 399.695V444.871ZM1682.15 375.464L1721.18 398.052L1682.15 420.64L1643.12 398.052L1682.15 375.464ZM1642.29 399.695L1681.33 422.283V467.459L1642.29 444.871V399.695ZM1641.06 446.924L1680.09 469.512L1641.06 492.1L1609.02 473.619L1602.03 469.512L1641.06 446.924ZM1640.24 444.871L1601.21 467.459V422.283L1640.24 399.695V444.871ZM1599.98 375.464L1639.01 398.052L1599.98 420.64L1560.95 398.052L1599.98 375.464ZM1559.72 399.695L1598.75 422.283V467.459L1559.72 444.871V399.695ZM1558.48 446.924L1597.51 469.512L1558.48 492.1L1526.44 473.619L1519.45 469.512L1558.48 446.924ZM1557.66 444.871L1518.63 467.459V422.283L1557.66 399.695V444.871ZM1517.4 375.464L1556.43 398.052L1517.4 420.64L1478.37 398.052L1517.4 375.464ZM1477.14 399.695L1516.17 422.283V467.459L1477.14 444.871V399.695ZM1476.31 446.924L1515.34 469.512L1476.31 492.1L1444.27 473.619L1437.28 469.512L1476.31 446.924ZM1475.08 444.871L1436.05 467.459V422.283L1475.08 399.695V444.871ZM1434.82 375.464L1473.85 398.052L1434.82 420.64L1395.79 398.052L1434.82 375.464ZM1394.56 399.695L1433.59 422.283V467.459L1394.56 444.871V399.695ZM1393.73 446.924L1432.76 469.512L1393.73 492.1L1361.69 473.619L1354.7 469.512L1393.73 446.924ZM1392.5 444.871L1353.47 467.459V422.283L1392.5 399.695V444.871ZM1352.65 375.464L1391.68 398.052L1352.65 420.64L1313.62 398.052L1352.65 375.464ZM1312.39 399.695L1351.42 422.283V467.459L1312.39 444.871V399.695ZM1311.16 446.924L1350.19 469.512L1311.16 492.1L1279.11 473.619L1272.12 469.512L1311.16 446.924ZM1310.33 444.871L1270.89 467.459V422.283L1309.92 399.695V444.871H1310.33ZM1270.07 375.464L1309.1 398.052L1270.07 420.64L1231.04 398.052L1270.07 375.464ZM1229.81 399.695L1268.84 422.283V467.459L1229.81 444.871V399.695ZM1228.99 446.924L1268.02 469.512L1228.99 492.1L1196.94 473.619L1189.96 469.512L1228.99 446.924ZM1227.75 444.871L1188.72 467.459V422.283L1227.75 399.695V444.871ZM1187.49 375.464L1226.52 398.052L1187.49 420.64L1148.46 398.052L1187.49 375.464ZM1147.23 399.695L1186.26 422.283V467.459L1147.23 444.871V399.695ZM1146.41 446.924L1185.44 469.512L1146.41 492.1L1114.36 473.619L1107.38 469.512L1146.41 446.924ZM1145.17 444.871L1106.14 467.459V422.283L1145.17 399.695V444.871ZM1105.32 375.464L1144.35 398.052L1105.32 420.64L1066.29 398.052L1105.32 375.464ZM1065.06 399.695L1104.09 422.283V467.459L1065.06 444.871V399.695ZM1063.83 446.924L1102.86 469.512L1063.83 492.1L1031.78 473.619L1024.8 469.512L1063.83 446.924ZM1063.01 444.871L1023.98 467.459V422.283L1063.01 399.695V444.871ZM1022.74 375.464L1061.77 398.052L1022.74 420.64L983.713 398.052L1022.74 375.464ZM982.48 399.695L1021.51 422.283V467.459L982.48 444.871V399.695ZM981.658 446.924L1020.69 469.512L981.658 492.1L949.613 473.619L942.628 469.512L981.658 446.924ZM980.426 444.871L941.396 467.459V422.283L980.426 399.695V444.871ZM940.163 375.464L979.193 398.052L940.163 420.64L901.133 398.052L940.163 375.464ZM899.901 399.695L938.931 422.283V467.459L899.901 444.871V399.695ZM899.079 446.924L938.109 469.512L899.079 492.1L867.033 473.619L860.049 469.512L899.079 446.924ZM897.846 444.871L858.816 467.459V422.283L897.846 399.695V444.871ZM857.995 375.464L897.025 398.052L857.995 420.64L818.964 398.052L857.995 375.464ZM817.732 399.695L856.762 422.283V467.459L817.732 444.871V399.695ZM816.499 446.924L855.529 469.512L816.499 492.1L784.454 473.619L777.469 469.512L816.499 446.924ZM815.678 444.871L776.647 467.459V422.283L815.678 399.695V444.871ZM775.415 375.464L814.445 398.052L775.415 420.64L736.385 398.052L775.415 375.464ZM735.152 399.695L774.182 422.283V467.459L735.152 444.871V399.695ZM733.92 446.924L772.95 469.512L733.92 492.1L701.874 473.619L694.89 469.512L733.92 446.924ZM733.098 444.871L694.068 467.459V422.283L733.098 399.695V444.871ZM692.835 375.464L731.866 398.052L692.835 420.64L653.805 398.052L692.835 375.464ZM652.573 399.695L691.603 422.283V467.459L652.573 444.871V399.695ZM651.751 446.924L690.781 469.512L651.751 492.1L619.705 473.619L612.721 469.512L651.751 446.924ZM650.518 444.871L611.488 467.459V422.283L650.518 399.695V444.871ZM610.256 375.464L649.286 398.052L610.256 420.64L571.226 398.052L610.256 375.464ZM570.404 399.695L609.434 422.283V467.459L570.404 444.871V399.695ZM569.171 446.924L608.202 469.512L569.171 492.1L537.126 473.619L530.141 469.512L569.171 446.924ZM568.35 444.871L529.32 467.459V422.283L568.35 399.695V444.871ZM528.087 375.464L567.117 398.052L528.087 420.64L489.057 398.052L528.087 375.464ZM487.824 399.695L526.855 422.283V467.459L487.824 444.871V399.695ZM486.592 446.924L525.622 469.512L486.592 492.1L454.546 473.619L447.562 469.512L486.592 446.924ZM485.77 444.871L446.74 467.459V422.283L485.77 399.695V444.871ZM445.508 375.464L484.538 398.052L445.508 420.64L406.477 398.052L445.508 375.464ZM405.245 399.695L444.275 422.283V467.459L405.245 444.871V399.695ZM404.423 446.924L443.453 469.512L404.423 492.1L372.377 473.619L365.393 469.512L404.423 446.924ZM403.191 444.871L364.161 467.459V422.283L403.191 399.695V444.871ZM362.928 375.464L401.958 398.052L362.928 420.64L323.898 398.052L362.928 375.464ZM323.076 399.695L362.106 422.283V467.459L323.076 444.871V399.695ZM321.844 446.924L360.874 469.512L321.844 492.1L289.798 473.619L282.813 469.512L321.844 446.924ZM321.022 444.871L281.581 467.459V422.283L320.611 399.695V444.871H321.022ZM280.759 375.464L319.789 398.052L280.759 420.64L241.729 398.052L280.759 375.464ZM240.497 399.695L279.527 422.283V467.459L240.497 444.871V399.695ZM239.264 446.924L278.294 469.512L239.264 492.1L207.218 473.619L200.234 469.512L239.264 446.924ZM238.442 444.871L199.412 467.459V422.283L238.442 399.695V444.871ZM198.18 375.464L237.21 398.052L198.18 420.64L159.15 398.052L198.18 375.464ZM157.917 399.695L196.947 422.283V467.459L157.917 444.871V399.695ZM157.095 446.924L196.125 469.512L157.095 492.1L124.639 473.208L117.654 469.101L157.095 446.924ZM155.863 444.871L116.833 467.459V422.283L155.863 399.695V444.871ZM115.6 375.464L154.63 398.052L115.6 420.64L76.57 398.052L115.6 375.464ZM75.7483 399.695L114.778 422.283V467.459L75.7483 444.871V399.695ZM74.5157 446.924L113.546 469.512L74.5157 492.1L42.47 473.208L35.4856 469.101L74.5157 446.924ZM73.6941 444.871L34.2531 467.459V422.283L73.2832 399.695V444.871H73.6941ZM33.4314 375.464L72.4615 398.052L33.4314 420.64L-5.59875 398.052L33.4314 375.464ZM-6.83128 399.695L32.1989 422.283V467.459L-6.83128 444.871V399.695ZM-8.0638 446.924L30.9663 469.512L-8.0638 492.1L-40.1096 473.619L-47.094 469.512L-8.0638 446.924ZM-47.9156 422.283L-8.8855 399.695V444.871L-47.9156 467.459V422.283ZM-47.9156 471.155L-40.9313 475.262L-8.8855 493.743V538.918L-47.9156 516.331V471.155ZM-88.1783 540.561L-49.1482 517.973L-10.118 540.561L-49.1482 563.149L-88.1783 540.561ZM-88.1783 683.481L-49.1482 660.893L-12.1722 682.249L-9.70718 683.481L-48.7373 706.069L-88.1783 683.481ZM-88.1783 826.401L-49.1482 803.813L-10.118 826.401L-49.1482 848.989L-88.1783 826.401ZM-88.1783 968.91L-49.1482 946.322L-10.118 968.91L-49.1482 991.498L-88.1783 968.91ZM-88.1783 1111.83L-49.1482 1089.24L-10.118 1111.83L-49.1482 1134.42L-88.1783 1111.83ZM-88.1783 1254.34L-49.1482 1231.75L-13.4048 1252.7L-10.118 1254.75L-49.1482 1277.34L-88.1783 1254.34ZM-88.1783 1397.26L-49.1482 1374.67L-10.118 1397.26L-49.1482 1419.85L-88.1783 1397.26ZM32.1989 1515.54L-8.0638 1538.54L-48.3265 1515.54V1470.36L-8.0638 1493.36L32.1989 1470.36V1515.54ZM32.1989 1466.67L-6.83128 1444.08V1398.9L32.1989 1421.49V1466.67ZM-6.00959 1397.26L33.0206 1374.67L72.0507 1397.26L33.0206 1419.85L-6.00959 1397.26ZM114.778 1515.54L74.5157 1538.54L34.2531 1515.54V1470.36L74.5157 1493.36L114.778 1470.36V1515.54ZM114.778 1466.67L75.7483 1444.08V1398.9L114.778 1421.49V1466.67ZM76.57 1397.26L115.6 1374.67L154.63 1397.26L115.6 1419.85L76.57 1397.26ZM197.358 1515.54L157.095 1538.54L116.833 1515.54V1470.36L157.095 1493.36L197.358 1470.36V1515.54ZM197.358 1466.67L158.328 1444.08V1398.9L197.358 1421.49V1466.67ZM159.15 1397.26L198.18 1374.67L237.21 1397.26L198.18 1419.85L159.15 1397.26ZM279.527 1515.54L239.264 1538.54L199.001 1515.54V1470.36L239.264 1493.36L279.527 1470.36V1515.54ZM279.527 1466.67L240.497 1444.08V1398.9L279.527 1421.49V1466.67ZM241.318 1397.26L280.348 1374.67L319.379 1397.26L280.348 1419.85L241.318 1397.26ZM362.106 1515.54L321.844 1538.54L281.581 1515.54V1470.36L321.844 1493.36L362.106 1470.36V1515.54ZM362.106 1466.67L323.076 1444.08V1398.9L362.106 1421.49V1466.67ZM323.898 1397.26L362.928 1374.67L401.958 1397.26L362.928 1419.85L323.898 1397.26ZM444.686 1515.54L404.423 1538.54L364.161 1515.54V1470.36L404.423 1493.36L444.686 1470.36V1515.54ZM444.686 1466.67L405.656 1444.08V1398.9L444.686 1421.49V1466.67ZM406.477 1397.26L445.508 1374.67L484.538 1397.26L445.508 1419.85L406.477 1397.26ZM526.855 1515.54L486.592 1538.54L446.329 1515.54V1470.36L486.592 1493.36L526.855 1470.36V1515.54ZM526.855 1466.67L487.824 1444.08V1398.9L526.855 1421.49V1466.67ZM488.646 1397.26L527.676 1374.67L566.706 1397.26L527.676 1419.85L488.646 1397.26ZM609.434 1515.54L569.171 1538.54L528.909 1515.54V1470.36L569.171 1493.36L609.434 1470.36V1515.54ZM609.434 1466.67L570.404 1444.08V1398.9L609.434 1421.49V1466.67ZM571.226 1397.26L610.256 1374.67L649.286 1397.26L610.256 1419.85L571.226 1397.26ZM692.014 1515.54L651.751 1538.54L611.488 1515.54V1470.36L651.751 1493.36L692.014 1470.36V1515.54ZM692.014 1466.67L652.984 1444.08V1398.9L692.014 1421.49V1466.67ZM653.805 1397.26L692.835 1374.67L731.866 1397.26L692.835 1419.85L653.805 1397.26ZM774.182 1515.54L733.92 1538.54L693.657 1515.54V1470.36L733.92 1493.36L774.182 1470.36V1515.54ZM774.182 1466.67L735.152 1444.08V1398.9L774.182 1421.49V1466.67ZM736.385 1397.26L775.415 1374.67L814.445 1397.26L775.415 1419.85L736.385 1397.26ZM856.762 1515.54L816.499 1538.54L776.237 1515.54V1470.36L816.499 1493.36L856.762 1470.36V1515.54ZM856.762 1466.67L817.732 1444.08V1398.9L856.762 1421.49V1466.67ZM818.554 1397.26L857.584 1374.67L896.614 1397.26L857.584 1419.85L818.554 1397.26ZM939.342 1515.54L899.079 1538.54L858.816 1515.54V1470.36L899.079 1493.36L939.342 1470.36V1515.54ZM939.342 1466.67L900.311 1444.08V1398.9L939.342 1421.49V1466.67ZM901.133 1397.26L940.163 1374.67L979.193 1397.26L940.163 1419.85L901.133 1397.26ZM1021.51 1515.54L981.248 1538.54L940.985 1515.54V1470.36L981.248 1493.36L1021.51 1470.36V1515.54ZM1021.51 1466.67L982.48 1444.08V1398.9L1021.51 1421.49V1466.67ZM983.713 1397.26L1022.74 1374.67L1061.77 1397.26L1022.74 1419.85L983.713 1397.26ZM1104.09 1515.54L1063.83 1538.54L1023.56 1515.54V1470.36L1063.83 1493.36L1104.09 1470.36V1515.54ZM1104.09 1466.67L1065.06 1444.08V1398.9L1104.09 1421.49V1466.67ZM1065.88 1397.26L1104.91 1374.67L1143.94 1397.26L1104.91 1419.85L1065.88 1397.26ZM1186.67 1515.54L1146.41 1538.54L1106.14 1515.54V1470.36L1146.41 1493.36L1186.67 1470.36V1515.54ZM1186.67 1466.67L1147.64 1444.08V1398.9L1186.67 1421.49V1466.67ZM1148.46 1397.26L1187.49 1374.67L1226.52 1397.26L1187.49 1419.85L1148.46 1397.26ZM1268.84 1515.54L1228.58 1538.54L1188.31 1515.54V1470.36L1228.58 1493.36L1268.84 1470.36V1515.54ZM1268.84 1466.67L1229.81 1444.08V1398.9L1268.84 1421.49V1466.67ZM1231.04 1397.26L1270.07 1374.67L1309.1 1397.26L1270.07 1419.85L1231.04 1397.26ZM1351.42 1515.54L1311.16 1538.54L1270.89 1515.54V1470.36L1311.16 1493.36L1351.42 1470.36V1515.54ZM1351.42 1466.67L1312.39 1444.08V1398.9L1351.42 1421.49V1466.67ZM1313.21 1397.26L1352.24 1374.67L1391.27 1397.26L1352.24 1419.85L1313.21 1397.26ZM1434 1515.54L1393.73 1538.54L1353.47 1515.54V1470.36L1393.73 1493.36L1434 1470.36V1515.54ZM1434 1466.67L1394.97 1444.08V1398.9L1434 1421.49V1466.67ZM1395.79 1397.26L1434.82 1374.67L1473.85 1397.26L1434.82 1419.85L1395.79 1397.26ZM1516.17 1515.54L1475.9 1538.54L1435.64 1515.54V1470.36L1475.9 1493.36L1516.17 1470.36V1515.54ZM1516.17 1466.67L1477.14 1444.08V1398.9L1516.17 1421.49V1466.67ZM1478.37 1397.26L1517.4 1374.67L1556.43 1397.26L1517.4 1419.85L1478.37 1397.26ZM1598.75 1515.54L1558.48 1538.54L1518.22 1515.54V1470.36L1558.48 1493.36L1598.75 1470.36V1515.54ZM1598.75 1466.67L1559.72 1444.08V1398.9L1598.75 1421.49V1466.67ZM1560.54 1397.26L1599.57 1374.67L1638.6 1397.26L1599.57 1419.85L1560.54 1397.26ZM1681.33 1515.54L1641.06 1538.54L1600.8 1515.54V1470.36L1641.06 1493.36L1681.33 1470.36V1515.54ZM1681.33 1466.67L1642.29 1444.08V1398.9L1681.33 1421.49V1466.67ZM1643.12 1397.26L1682.15 1374.67L1721.18 1397.26L1682.15 1419.85L1643.12 1397.26ZM1763.9 1515.54L1723.64 1538.54L1683.38 1515.54V1470.36L1723.64 1493.36L1763.9 1470.36V1515.54ZM1763.9 1466.67L1724.87 1444.08V1398.9L1763.9 1421.49V1466.67ZM1725.7 1397.26L1764.73 1374.67L1803.76 1397.26L1764.73 1419.85L1725.7 1397.26ZM1846.07 1515.54L1805.81 1538.54L1765.55 1515.54V1470.36L1805.81 1493.36L1846.07 1470.36V1515.54ZM1846.07 1466.67L1807.04 1444.08V1398.9L1846.07 1421.49V1466.67ZM1807.86 1397.26L1846.9 1374.67L1885.93 1397.26L1846.9 1419.85L1807.86 1397.26ZM1928.65 1515.54L1888.39 1538.54L1848.13 1515.54V1470.36L1888.39 1493.36L1928.65 1470.36V1515.54ZM1928.65 1466.67L1889.62 1444.08V1398.9L1928.65 1421.49V1466.67ZM1929.47 1419.85L1890.44 1397.26L1929.47 1374.67L1968.5 1397.26L1929.47 1419.85ZM1930.71 1421.49L1969.74 1398.9V1444.08L1930.71 1466.67V1421.49Z" fill="url(#paint2_linear)"/>
</g>
<defs>
<linearGradient id="paint0_linear" x1="1920" y1="299.659" x2="-3.18546e-06" y2="302.506" gradientUnits="userSpaceOnUse">
<stop stop-color="#2153DA"/>
<stop offset="1" stop-color="#072C8D"/>
</linearGradient>
<linearGradient id="paint1_linear" x1="1920" y1="299.659" x2="-3.18546e-06" y2="302.506" gradientUnits="userSpaceOnUse">
<stop stop-color="#2153DA"/>
<stop offset="1" stop-color="#072C8D"/>
</linearGradient>
<linearGradient id="paint2_linear" x1="960.705" y1="373" x2="960.705" y2="1541" gradientUnits="userSpaceOnUse">
<stop offset="0.085021" stop-color="white" stop-opacity="0"/>
<stop offset="0.477305" stop-color="white" stop-opacity="0.15"/>
<stop offset="1" stop-color="white" stop-opacity="0.3"/>
</linearGradient>
</defs>
</svg>
