<svg width="91" height="70" viewBox="0 0 91 70" fill="none" xmlns="http://www.w3.org/2000/svg">
<path d="M33.5 69.9555C33.2 69.9555 32.8 69.9555 32.5 69.9555C22 69.9555 11.6 69.9555 1.1 69.9555C0.3 70.0556 0 69.8554 0 68.8543C0 62.7477 0 56.541 0 50.4344C0.1 45.8294 2.3 42.3256 6.3 40.0232C6.8 39.7228 7.2 39.7228 7.8 40.1233C13.2 44.1276 20.5 44.1276 25.9 40.1233C26.4 39.7228 26.8 39.7228 27.4 40.0232C31.2 42.2255 33.5 45.429 33.6 49.8337C33.8 56.4409 33.7 63.048 33.6 69.6551C33.6 69.7552 33.6 69.7552 33.5 69.9555Z" fill="#94ACED"/>
<path d="M56.8 69.9555C56.8 69.5551 56.8 69.2548 56.8 69.0546C56.8 62.8479 56.8 56.541 56.8 50.3343C56.8 45.7294 59.1 42.4258 63 40.1233C63.6 39.823 64 39.823 64.6 40.2234C69.9 44.1277 77.2001 44.1277 82.5 40.2234C83.1 39.7229 83.6 39.7229 84.2 40.1233C88.3 42.5259 90.3001 46.1298 90.4001 50.8349C90.5 56.8414 90.4001 62.948 90.4001 68.9544C90.4001 69.6552 90.3 69.9555 89.5 69.9555C78.8 69.9555 68.1001 69.9555 57.4001 69.9555C57.3001 70.0556 57.1 69.9555 56.8 69.9555Z" fill="#94ACED"/>
<path d="M52.0999 69.9554C47.3999 69.9554 42.8999 69.9554 38.2999 69.9554C38.2999 69.555 38.2999 69.1546 38.2999 68.7541C38.2999 62.9479 38.2999 57.1416 38.2999 51.2352C38.2999 44.8283 35.7999 39.8229 30.3999 36.3191C30.1999 36.219 30.0999 36.1189 29.8999 35.9187C30.9999 34.7174 32.2999 33.9165 33.7999 33.3159C34.0999 33.2158 34.4999 33.416 34.7999 33.6162C38.1999 36.3191 41.9999 37.5204 46.3999 37.2201C49.6999 37.0199 52.6999 35.8186 55.2999 33.7163C55.9999 33.1157 56.5999 33.1157 57.2999 33.5161C58.3999 34.2169 59.4999 34.9176 60.4999 35.6184C58.9999 36.9198 57.5999 38.021 56.2999 39.3224C53.4999 42.3256 52.0999 45.9295 52.0999 50.0339C52.0999 56.2406 52.0999 62.4473 52.0999 68.5539C52.0999 69.1546 52.0999 69.555 52.0999 69.9554ZM57.0999 21.0026C57.0999 14.3955 51.8999 9.08973 45.2999 8.98962C38.7999 8.98962 33.3999 14.3955 33.3999 20.9025C33.3999 27.4095 38.6999 32.7152 45.2999 32.7152C51.7999 32.8153 56.9999 27.5096 57.0999 21.0026Z" fill="url(#paint0_linear)"/>
<path d="M16.8001 38.5216C11.0001 38.5216 6.20012 33.7164 6.30012 27.9101C6.30012 22.1038 11.1001 17.2986 16.9001 17.3988C22.7001 17.3988 27.5001 22.2039 27.5001 28.0102C27.4001 33.8165 22.6001 38.5216 16.8001 38.5216Z" fill="#94ACED"/>
<path d="M73.6 38.5214C67.8 38.5214 63 33.7162 63 27.9099C63 22.1036 67.7 17.2985 73.6 17.2985C79.5 17.2985 84.2 22.1036 84.2 27.9099C84.1 33.8163 79.4 38.5214 73.6 38.5214Z" fill="#94ACED"/>
<path d="M53 6.28679C54.7 2.6829 57.5 0.580632 61.3 0.0800922C68.2 -0.720772 73.7 4.58495 73.3 11.4924C73.3 12.2933 73.1 12.5936 72.2 12.6937C68 13.0941 64.6 14.8961 61.9 18.0995C61.8 18.1996 61.8 18.1996 61.6 18.2998C61.1 15.6969 60.2 13.3945 58.8 11.2922C57.3 9.18992 55.4 7.5882 53 6.28679Z" fill="#94ACED"/>
<path d="M37.1 6.38643C32.5 9.08935 29.8 13.0937 28.8 18.3994C25.7 14.7955 21.9 12.8935 17.4 12.5931C16.2 8.4887 19.3 2.88265 23.8 1.18081C29 -0.821349 34.9 1.48114 37.1 6.38643Z" fill="#94ACED"/>
<defs>
<linearGradient id="paint0_linear" x1="29.9233" y1="39.488" x2="60.5252" y2="39.488" gradientUnits="userSpaceOnUse">
<stop stop-color="#2153DA"/>
<stop offset="1" stop-color="#072C8D"/>
</linearGradient>
</defs>
</svg>
