<svg width="73" height="70" viewBox="0 0 73 70" fill="none" xmlns="http://www.w3.org/2000/svg">
<path d="M53.4 63.5966C37.3 63.5966 21.3 63.5966 5.20001 63.5966C5.30001 62.1966 5.30001 60.8966 5.50001 59.4966C6.50001 52.1966 9.80001 45.9966 15.2 40.9966C19.6 36.9966 24.7 34.4966 30.5 33.3966C31 33.2966 31.2 33.0966 31.1 32.5966C31 31.0966 31.2 29.7966 32.3 28.6966C33.6 27.1966 35.6 26.6966 37.5 27.3966C39.2 27.9966 40.4 29.6966 40.5 31.5966C40.5 32.0966 40.5 32.6966 40.5 33.2966C50 34.9966 57.3 39.7966 62.3 47.9966C65.2 52.7966 66.6 57.9966 66.6 63.5966C64.3 63.5966 62.1 63.5966 59.8 63.5966C59.7 56.1966 56.8 49.9966 51.3 44.9966C48.3 42.3966 43.6 39.9966 40.3 39.5966C44.3 42.3966 47.5 45.8966 49.8 49.9966C52 54.2966 53.2 58.7966 53.4 63.5966Z" fill="#94ACED"/>
<path d="M35.9 69.9966C24.8 69.9966 13.7 69.9966 2.7 69.9966C1.2 69.9966 0.1 69.3966 0 68.1966C0 68.1966 0 68.1966 0 67.9966C0 66.9966 1 66.3966 2.1 66.1966C2.4 66.1966 2.6 66.1966 2.9 66.1966C25 66.1966 47.1 66.1966 69.2 66.1966C69.6 66.1966 69.9 66.1966 70.3 66.2966C71.4 66.4966 72 67.1966 72.1 68.1966C71.6 68.5966 71.9 68.3966 72.1 68.1966C72.1 69.0966 71.3 69.9966 69.9 69.9966C69.6 69.9966 69.3 69.9966 68.9 69.9966C57.8 69.9966 46.8 69.9966 35.9 69.9966ZM33.1 19.3966C33.7 20.2966 34.4 21.0966 35 21.9966C35.4 22.4966 35.9 22.7966 36.5 22.4966C37.2 22.1966 37.1 21.5966 36.9 20.9966C36.4 19.0966 36.6 17.2966 37.5 15.5966C38.2 14.2966 38.9 12.8966 39.6 11.5966C40.5 9.49657 40.5 7.39657 39.4 5.39657C38.5 3.69657 37.3 2.19657 36.3 0.496575C36 -0.00342545 35.5 -0.103425 35 0.0965745C34.5 0.296575 34.3 0.696575 34.4 1.19657C34.5 1.79657 34.6 2.29657 34.7 2.89657C35.6 6.09657 35.3 8.99657 33.1 11.5966C32.2 12.6966 32 14.0966 32 15.7966C32 16.8966 32.3 18.1966 33.1 19.3966ZM27.5 6.89657C26.8 4.29657 25 2.39657 23.6 0.296575C23.5 0.0965746 22.8 -0.00342546 22.6 0.0965745C22.3 0.296575 22 0.696575 21.9 0.996575C21.8 1.19657 21.9 1.59657 22 1.89657C22.2 3.09657 22.5 4.29657 22.6 5.59657C22.9 7.69657 22.1 9.59657 20.8 11.1966C19.5 12.8966 19.1 14.7966 19.5 16.8966C19.9 19.0966 21.4 20.6966 22.8 22.1966C23 22.3966 23.7 22.3966 24 22.2966C24.6 22.0966 24.5 21.4966 24.3 20.9966C23.8 19.0966 24 17.2966 24.9 15.5966C25.5 14.4966 26 13.3966 26.6 12.3966C27.2 11.1966 27.6 9.99657 27.6 8.69657C27.6 7.99657 27.6 7.49657 27.5 6.89657ZM51.8 4.99657C50.8 3.49657 49.9 2.09657 48.9 0.596575C48.6 0.0965745 48.2 -0.103425 47.6 0.0965745C47 0.296575 46.9 0.796574 47 1.29657C47.1 1.99657 47.2 2.79657 47.4 3.49657C48.1 6.39657 47.7 8.99657 45.8 11.2966C44.4 12.9966 44.2 15.0966 44.7 17.2966C45.2 19.2966 46.6 20.6966 47.8 22.1966C48.3 22.7966 49.4 22.3966 49.5 21.6966C49.5 21.4966 49.5 21.2966 49.4 21.0966C48.8 19.0966 49.1 17.1966 50.1 15.2966C50.7 14.2966 51.2 13.2966 51.7 12.2966C52.3 11.1966 52.7 9.99657 52.7 8.79657C52.7 7.29657 52.5 6.09657 51.8 4.99657Z" fill="url(#paint0_linear)"/>
<defs>
<linearGradient id="paint0_linear" x1="-0.1" y1="34.9966" x2="71.9077" y2="34.9966" gradientUnits="userSpaceOnUse">
<stop stop-color="#2153DA"/>
<stop offset="1" stop-color="#072C8D"/>
</linearGradient>
</defs>
</svg>
