<svg width="59" height="70" viewBox="0 0 59 70" fill="none" xmlns="http://www.w3.org/2000/svg">
<path d="M0 6.5C0.9 4.3 1.8 2.2 2.8 0C3.8 0.4 4.7 0.8 5.6 1.2C8.2 2.3 10.9 3.4 13.5 4.5C14 4.7 14.2 5 14.2 5.5C14.2 15 14.2 24.4 14.2 33.9C14.2 34.1 14.2 34.4 14.2 34.6C14.3 35.8 14.9 36.4 16.1 36.5C16.4 36.5 16.7 36.5 16.9 36.5C27.5 36.5 38.1 36.5 48.7 36.5C50.5 36.5 51.1 35.9 51.1 34.1C51.1 30 51.1 25.8 51.1 21.7C51.1 21.4 51.1 21.2 51.1 20.8C53.4 20.8 55.7 20.8 58 20.8C58 20.9 58.1 21 58.1 21.1C58.1 25.8 58.2 30.5 58 35.2C57.9 39.5 54.4 43 50.2 43.4C49.5 43.5 48.9 43.5 48.2 43.5C37.8 43.5 27.4 43.5 17 43.5C16.1 43.5 15.2 43.5 14.2 43.5C14.2 43.6 14.2 43.8 14.2 44C14.2 45.1 14.2 46.2 14.2 47.3C14.2 48.7 14.9 49.4 16.3 49.4C17.7 49.4 19 49.4 20.4 49.4C31.5 49.4 42.6 49.4 53.6 49.4C53.9 49.4 54.2 49.4 54.5 49.4C54.5 51.8 54.5 54.1 54.5 56.4C54.3 56.4 54 56.4 53.8 56.4C41.3 56.4 28.8 56.4 16.2 56.4C11.9 56.4 8.6 53.7 7.5 50.3C7.2 49.2 7.1 48.1 7.1 47C7.1 34.8 7.1 22.5 7.1 10.3C7.1 9.6 6.9 9.3 6.3 9C4.2 8.3 2.1 7.4 0 6.5Z" fill="#94ACED"/>
<path d="M30 5.29995C30 7.99995 30 10.7 30 13.4C31.8 13.4 33.4001 13.4 35.2001 13.4C35.2001 10.7 35.2001 8.09995 35.2001 5.29995C35.5 5.29995 35.7001 5.29995 35.9001 5.29995C38.4001 5.29995 40.9 5.29995 43.3 5.29995C44.9 5.29995 45.7001 6.09995 45.7001 7.69995C45.7001 14.9 45.7001 22.2 45.7001 29.4C45.7001 31 44.9 31.7999 43.3 31.7999C36.1 31.7999 28.9001 31.7999 21.7001 31.7999C20.0001 31.7999 19.3 31 19.3 29.2999C19.3 22.0999 19.3 14.9 19.3 7.69995C19.3 5.89995 20 5.19995 21.8 5.19995C24.3 5.19995 26.7001 5.19995 29.2001 5.19995C29.4001 5.29995 29.7 5.29995 30 5.29995Z" fill="url(#paint0_linear)"/>
<path d="M23.7001 70C21.0001 70 18.8 67.9 18.8 65.2C18.8 62.5 20.9 60.3 23.6 60.3C26.3 60.3 28.5 62.4 28.5 65.2C28.5 67.8 26.4001 70 23.7001 70Z" fill="#94ACED"/>
<path d="M41.4 70C38.7 70 36.6 67.9 36.6 65.2C36.6 62.5 38.8 60.3 41.5 60.3C44.2 60.3 46.3 62.5 46.3 65.2C46.2 67.8 44 70 41.4 70Z" fill="#94ACED"/>
<defs>
<linearGradient id="paint0_linear" x1="19.3014" y1="18.6192" x2="45.7399" y2="18.6192" gradientUnits="userSpaceOnUse">
<stop stop-color="#2153DA"/>
<stop offset="1" stop-color="#072C8D"/>
</linearGradient>
</defs>
</svg>
