<svg width="18" height="18" viewBox="0 0 18 18" fill="none" xmlns="http://www.w3.org/2000/svg">
<path d="M9 0C4.03043 0 0 4.03043 0 9C0 13.9696 4.03043 18 9 18C13.9696 18 18 13.9696 18 9C18 4.03043 13.9696 0 9 0ZM9 16.4348C4.8913 16.4348 1.56522 13.1087 1.56522 9C1.56522 4.8913 4.8913 1.56522 9 1.56522C13.1087 1.56522 16.4348 4.8913 16.4348 9C16.4348 13.1087 13.1087 16.4348 9 16.4348ZM11.9935 10.8783C12.3065 11.1913 12.3065 11.6804 11.9935 11.9935C11.837 12.15 11.6413 12.2283 11.4457 12.2283C11.25 12.2283 11.0543 12.15 10.8978 11.9935L8.47175 9.56737C8.31523 9.41085 8.23695 9.21524 8.23695 9.01958V4.36305C8.23695 3.93262 8.58912 3.58044 9.01956 3.58044C9.44999 3.58044 9.80217 3.93262 9.80217 4.36305V8.70652L11.9935 10.8783Z" fill="white"/>
</svg>
