<svg width="15" height="15" viewBox="0 0 15 15" fill="none" xmlns="http://www.w3.org/2000/svg">
<path d="M14.6113 12.781C15.1295 13.2997 15.1295 14.1066 14.6113 14.6254C14.3522 14.8847 14.0355 15 13.69 15C13.3445 15 13.0278 14.8847 12.7687 14.6254L7.5 9.35159L2.23127 14.6254C1.97215 14.8847 1.65547 15 1.30998 15C0.964491 15 0.647807 14.8847 0.38869 14.6254C-0.129544 14.1066 -0.129544 13.2997 0.38869 12.781L5.65738 7.5072L0.38869 2.23343C-0.129544 1.7147 -0.129544 0.907777 0.38869 0.389045C0.906924 -0.129687 1.71304 -0.129687 2.23127 0.389045L7.5 5.66282L12.7687 0.389045C13.287 -0.129687 14.0931 -0.129687 14.6113 0.389045C15.1295 0.907777 15.1295 1.7147 14.6113 2.23343L9.34258 7.5072L14.6113 12.781Z" fill="#9495AA"/>
</svg>
