<svg width="18" height="16" viewBox="0 0 18 16" fill="none" xmlns="http://www.w3.org/2000/svg">
<path d="M17.7652 3.3065C17.6087 3.14998 17.413 3.13043 17.2174 3.13043H13.1087V0.782609C13.1087 0.352174 12.7174 0 12.287 0H5.71303C5.2826 0 4.8913 0.352174 4.8913 0.782609V3.13043H0.782609C0.352174 3.13043 0 3.38478 0 3.81522V14.8696C0 15.3 0.352174 15.6522 0.782609 15.6522H17.2174C17.6478 15.6522 18 15.3 18 14.8696V3.85434C18 3.63912 17.9217 3.46302 17.7652 3.3065ZM6.45652 1.56522H11.5435V3.13043H6.45652V1.56522ZM16.4348 4.69565V8.80435H10.9565V8.51087C10.9565 8.17826 10.6435 8.02174 10.3109 8.02174H7.66956C7.33695 8.02174 7.02392 8.19783 7.02392 8.51087V8.80435H1.54566V4.69565H16.4348ZM9.78261 9.19565V9.58696H8.21739V9.19565H9.78261ZM1.56522 14.087V9.97826H7.04348V10.1739C7.04348 10.5065 7.35653 10.7609 7.68914 10.7609H10.3304C10.6631 10.7609 10.9761 10.487 10.9761 10.1739V9.97826H16.4543V14.087H1.56522Z" fill="#2153DA"/>
</svg>
