<svg width="90" height="70" viewBox="0 0 90 70" fill="none" xmlns="http://www.w3.org/2000/svg">
<path d="M0 24.3C0 12.8 8.2 2.8 19.4 0.499996C33 -2.3 46.2 7.1 48.2 20.8C49 26.3 48 31.5 45.3 36.3C39.3 46.7 33.3 57.1 27.3 67.4C27.1 67.7 27 68 26.8 68.3C26.3 69.3 25.5 69.9 24.4 69.9C23.2 69.9 22.4 69.4 21.8 68.4C19.2 63.9 16.6 59.4 14 54.8C10.4 48.5 6.7 42.3 3.2 36C1 32.5 0 28.5 0 24.3ZM34.4 24.3C34.4 18.7 29.8 14.1 24.3 14.1C18.7 14.1 14.1 18.7 14.1 24.3C14.1 29.9 18.7 34.4 24.3 34.4C29.8 34.5 34.4 29.9 34.4 24.3Z" fill="#94ACED"/>
<path d="M30.8 68.8999C31.5 67.7999 32 66.7999 32.5 65.8999C34.6 62.2999 36.7 58.6999 38.7 55.0999C39 54.5999 39.3 54.2999 39.9 54.1999C47.5 52.9999 55.2 51.8999 62.8 50.6999C63.2 50.5999 63.5 50.5999 64.1 50.4999C60 48.3999 56 46.2999 51.8 44.0999C60.4 43.3999 68.8 42.5999 77.2 41.8999C77.2 41.9999 77.2 41.9999 77.2 42.0999C72.7 43.1999 68.3 44.2999 63.8 45.3999C63.8 45.4999 63.8 45.4999 63.8 45.5999C70.3 47.7999 76.7 49.8999 83.2 52.0999C83.2 52.1999 83.2 52.1999 83.2 52.2999C65.9 57.7999 48.4 63.2999 30.8 68.8999Z" fill="#94ACED"/>
<path d="M77 10.6001C80.5 10.7001 83.7 12.4001 85.7 16.1001C87.7 19.7001 87.5 23.2001 85.4 26.7001C82.9 31.0001 80.4 35.4001 77.9 39.8001C77 41.4001 76.1 41.4001 75.1 39.8001C72.5 35.4001 70 30.9001 67.4 26.5001C63.3 19.3001 68.3 10.6001 77 10.6001ZM76.5 16.7001C74.1 16.7001 72.1 18.7001 72.1 21.2001C72.1 23.6001 74.1 25.5001 76.5 25.5001C78.9 25.5001 80.9 23.4001 80.9 21.0001C80.8 18.7001 78.8 16.7001 76.5 16.7001Z" fill="url(#paint0_linear)"/>
<path d="M53.4 29.7C54.9 29.7 56.3 30.5 57.1 32C57.9 33.5 57.8 35 57 36.5C55.9 38.4 54.9 40.1999 53.8 42.0999C53.4 42.7999 53 42.7999 52.6 42.0999C51.5 40.1999 50.4 38.3 49.3 36.4C47.6 33.4 49.7 29.7 53.4 29.7ZM53.2 32.2999C52.2 32.2999 51.3 33.2 51.3 34.2C51.3 35.2 52.2 36.0999 53.2 36.0999C54.2 36.0999 55.1 35.2 55.1 34.2C55.1 33.1 54.2 32.2999 53.2 32.2999Z" fill="url(#paint1_linear)"/>
<path d="M84.8 38.5C86.3 38.5 87.7 39.3 88.5 40.8C89.3 42.3 89.2 43.8 88.4 45.3C87.3 47.2 86.3 49 85.2 50.9C84.8 51.6 84.4 51.6 84 50.9C82.9 49 81.8 47.1 80.7 45.2C78.9 42.3 81.1 38.6 84.8 38.5ZM84.6 41.2C83.6 41.2 82.7 42.1 82.7 43.1C82.7 44.1 83.6 45 84.6 45C85.6 45 86.5 44.1 86.5 43.1C86.4 42 85.6 41.1 84.6 41.2Z" fill="url(#paint2_linear)"/>
<defs>
<linearGradient id="paint0_linear" x1="65.9447" y1="25.7671" x2="87.0357" y2="25.7671" gradientUnits="userSpaceOnUse">
<stop stop-color="#2153DA"/>
<stop offset="1" stop-color="#072C8D"/>
</linearGradient>
<linearGradient id="paint1_linear" x1="48.7198" y1="36.1636" x2="57.7311" y2="36.1636" gradientUnits="userSpaceOnUse">
<stop stop-color="#2153DA"/>
<stop offset="1" stop-color="#072C8D"/>
</linearGradient>
<linearGradient id="paint2_linear" x1="80.0704" y1="45.0341" x2="89.0818" y2="45.0341" gradientUnits="userSpaceOnUse">
<stop stop-color="#2153DA"/>
<stop offset="1" stop-color="#072C8D"/>
</linearGradient>
</defs>
</svg>
