<svg width="71" height="70" viewBox="0 0 71 70" fill="none" xmlns="http://www.w3.org/2000/svg">
<path d="M26.5444 43.1C25.6444 42.4 25.2444 41.7 25.3444 40.6C25.4444 39 25.3444 37.3 25.3444 35.6C25.3444 34.3 24.5444 33.8 23.3444 34.3C20.1444 35.8 18.3444 38.4 18.1444 41.9C17.9444 45.4 19.5444 48.1 22.4444 49.9C22.6444 50 22.9444 50.3 22.9444 50.5C22.9444 52.1 22.9444 53.8 22.9444 55.4C17.6444 55.4 12.5444 55.4 7.24438 55.4C7.24438 45 7.24438 34.6 7.24438 24.1C8.84438 24.1 10.3444 24.1 12.0444 24.1C12.0444 25.6 12.0444 27 12.0444 28.4C12.0444 28.9 12.0444 29.5 12.0444 30C12.1444 30.8 12.5444 31.1 13.2444 31.2C13.4444 31.2 13.7444 31.2 13.9444 31.2C27.9444 31.2 41.8444 31.2 55.8444 31.2C56.0444 31.2 56.1444 31.2 56.3444 31.2C57.3444 31.2 57.7444 30.8 57.7444 29.7C57.7444 28.1 57.7444 26.5 57.7444 24.9C57.7444 24.6 57.7444 24.4 57.7444 24C59.3444 24 60.9444 24 62.5444 24C62.5444 34.4 62.5444 44.8 62.5444 55.2C58.1444 55.2 53.7444 55.2 49.2444 55.2C49.2444 53.6 49.3444 51.9 49.2444 50.3C49.1444 49 49.4444 48 50.5444 47.2C51.5444 46.5 51.7444 45.6 51.7444 44.4C51.6444 41.3 51.7444 38.3 51.7444 35.2C51.7444 33.8 51.4444 33.5 50.0444 33.5C47.1444 33.5 44.3444 33.5 41.4444 33.5C40.1444 33.5 39.6444 33.9 39.6444 35.2C39.6444 38.5 39.6444 41.8 39.6444 45.1C39.6444 45.6 39.9444 46.4 40.3444 46.7C41.8444 47.9 42.3444 49.3 42.1444 51.1C42.0444 52.4 42.1444 53.8 42.1444 55.2C38.1444 55.2 34.1444 55.2 30.1444 55.2C30.1444 53.5 30.1444 51.9 30.1444 50.2C30.1444 50 30.4444 49.8 30.6444 49.6C33.2444 47.9 34.7444 45.4 34.8444 42.3C35.0444 38.7 32.7444 35.2 29.3444 33.9C28.4444 33.5 27.6444 34.1 27.6444 35.2C27.6444 36.9 27.6444 38.6 27.6444 40.3C27.7444 42.1 27.7444 42.1 26.5444 43.1Z" fill="#94ACED"/>
<path d="M2.44446 60.2999C2.44446 59.8999 2.44446 59.7 2.44446 59.4C2.44446 46.7 2.44446 33.9999 2.44446 21.2999C2.44446 19.5999 2.74446 19.2999 4.44446 19.2999C6.94446 19.2999 9.44446 19.2999 12.0445 19.2999C12.0445 20.0999 12.0445 20.9 12.0445 21.7C11.7445 21.7 11.5445 21.7 11.2445 21.7C9.64446 21.7 8.04446 21.7 6.44446 21.7C5.24446 21.7 4.84446 22.0999 4.84446 23.2999C4.84446 34.2999 4.84446 45.2999 4.84446 56.2999C4.84446 57.5 5.24446 57.9 6.44446 57.9C25.4445 57.9 44.5445 57.9 63.5445 57.9C64.7445 57.9 65.1445 57.5 65.1445 56.2999C65.1445 45.2999 65.1445 34.2999 65.1445 23.2999C65.1445 22.1999 64.7445 21.7 63.5445 21.7C61.9445 21.7 60.3445 21.7 58.7445 21.7C58.4445 21.7 58.2445 21.7 57.9445 21.7C57.9445 20.9 57.9445 20.0999 57.9445 19.2999C58.1445 19.2999 58.3445 19.2 58.5445 19.2C61.0445 19.2 63.4445 19.2 65.9445 19.2C67.1445 19.2 67.5445 19.6999 67.5445 20.9C67.5445 33.7999 67.5445 46.6 67.5445 59.5C67.5445 59.7 67.5445 59.9 67.5445 60.2C45.8445 60.2999 24.1445 60.2999 2.44446 60.2999Z" fill="#94ACED"/>
<path d="M30.1445 37.3C31.9445 38.8 32.6445 40.5 32.5445 42.5C32.4445 45.1 31.2445 47.1 28.7445 48.2001C28.0445 48.5001 27.7445 49 27.7445 49.8C27.7445 51.7 27.7445 53.5001 27.7445 55.4001C26.9445 55.4001 26.2445 55.4001 25.3445 55.4001C25.3445 54.7001 25.3445 54.1001 25.3445 53.4001C25.3445 52.2001 25.3445 51 25.3445 49.8C25.3445 49 25.0445 48.5 24.2445 48.1C21.1445 46.7 19.6445 43.2 20.8445 40C21.2445 38.9 21.8445 38.1 22.8445 37.3C22.8445 38.9 22.8445 40.3001 22.8445 41.7001C22.8445 42.5001 23.0445 43.1 23.6445 43.6C24.2445 44.1 24.7445 44.7 25.3445 45.3C26.2445 46.2 26.7445 46.1 27.6445 45.3C29.6445 43.7 30.5445 41.8 30.1445 39.3C30.0445 38.9 30.1445 38.2 30.1445 37.3Z" fill="#94ACED"/>
<path d="M49.4445 41.1001C49.4445 42.5001 49.4445 43.8001 49.4445 45.1001C49.4445 45.3001 49.2445 45.6001 49.0445 45.7001C47.2445 46.9001 46.8445 48.6001 47.0445 50.7001C47.1445 52.2001 47.0445 53.8001 47.0445 55.4001C46.2445 55.4001 45.5445 55.4001 44.6445 55.4001C44.6445 55.1001 44.6445 54.7001 44.6445 54.4001C44.6445 52.5001 44.6445 50.6001 44.6445 48.8001C44.6445 48.1001 44.5445 47.5001 43.9445 47.1001C42.4445 46.0001 41.9445 44.6001 42.2445 42.8001C42.3445 42.2001 42.2445 41.7001 42.2445 41.1001C44.6445 41.1001 47.0445 41.1001 49.4445 41.1001Z" fill="#94ACED"/>
<path d="M42.2444 38.6C42.2444 37.8 42.2444 37.1 42.2444 36.3C44.6444 36.3 46.9444 36.3 49.3444 36.3C49.3444 37.1 49.3444 37.8 49.3444 38.6C47.0444 38.6 44.7444 38.6 42.2444 38.6Z" fill="#94ACED"/>
<path d="M0.0444444 62.8C0.0444444 64.2 -0.0555556 65.6001 0.0444444 66.9001C0.244444 68.4001 1.24444 69.4001 2.64444 69.9001C3.24444 70.0001 3.84444 70 4.34444 70C24.7444 70 45.2444 70 65.6444 70C65.9444 70 66.2444 70 66.6444 70C68.1444 69.8 69.4444 69 69.7444 67.5C70.0444 66 70.0444 64.4 70.1444 62.8C46.6444 62.8 23.3444 62.8 0.0444444 62.8Z" fill="#94ACED"/>
<path d="M35.0445 29C28.5445 29 22.0445 29 15.6445 29C14.5445 29 14.5445 29 14.5445 27.9C14.5445 22.1 14.5445 16.4 14.5445 10.6C14.5445 9.9 14.7445 9.7 15.4445 9.7C28.5445 9.7 41.6445 9.7 54.7445 9.7C55.4445 9.7 55.6445 9.9 55.6445 10.6C55.6445 16.5 55.6445 22.3 55.6445 28.2C55.6445 28.9 55.4445 29.1 54.7445 29.1C48.0445 29 41.5445 29 35.0445 29ZM24.1445 21.7C25.4445 21.7 26.6445 21.7 27.8445 21.7C29.0445 21.7 29.0445 21.7 29.0445 22.9C29.0445 24.1 29.0445 25.3 29.0445 26.5C29.8445 26.5 30.6445 26.5 31.3445 26.5C31.3445 23 31.5445 19.5 31.2445 16.1C31.0445 13.4 27.8445 11.5 25.2445 12.3C23.0445 13 21.8445 14.7 21.7445 17.3C21.7445 19.8 21.7445 22.3 21.7445 24.9C21.7445 26.6 21.7445 26.6 23.4445 26.6C24.0445 26.6 24.1445 26.4 24.1445 25.9C24.1445 24.5 24.1445 23.2 24.1445 21.7ZM36.2445 21.7C37.2445 21.7 38.1445 21.8 39.0445 21.7C41.6445 21.5 43.5445 19.4 43.5445 16.9C43.4445 13.9 41.0445 12.1 38.6445 12.1C37.5445 12.1 36.4445 12.1 35.3445 12.1C34.2445 12.1 33.8445 12.4 33.8445 13.6C33.8445 17.7 33.8445 21.7 33.8445 25.8C33.8445 26 33.8445 26.3 33.8445 26.5C34.6445 26.5 35.3445 26.5 36.1445 26.5C36.2445 24.9 36.2445 23.4 36.2445 21.7ZM48.2445 12.1C47.6445 12.1 47.2445 12.1 46.7445 12.1C46.0445 12 45.8445 12.3 45.8445 13C45.8445 17 45.8445 21 45.8445 24.9C45.8445 26.8 45.5445 26.5 47.5445 26.5C48.1445 26.5 48.3445 26.3 48.3445 25.7C48.3445 21.4 48.3445 17.1 48.3445 12.8C48.2445 12.7 48.2445 12.5 48.2445 12.1ZM55.4445 7.3C55.0445 7.3 54.7445 7.3 54.4445 7.3C41.4445 7.3 28.3445 7.3 15.3445 7.3C14.6445 7.3 14.3445 7.1 14.3445 6.4C14.4445 4.6 14.3445 2.7 14.3445 0.9C14.3445 0.2 14.5445 0 15.2445 0C28.3445 0 41.4445 0 54.5445 0C55.1445 0 55.3445 0.1 55.3445 0.8C55.4445 2.9 55.4445 5 55.4445 7.3ZM51.9445 2.5C50.6445 2.5 50.7445 2.3 50.6445 3.8V3.9C50.5445 4.7 50.8445 4.9 51.5445 4.8C53.0445 4.7 53.0445 4.8 53.0445 3.2C53.0445 2.5 52.8445 2.3 52.2445 2.4C52.1445 2.5 52.0445 2.5 51.9445 2.5ZM42.2445 4.8C43.5445 4.8 43.4445 5 43.4445 3.6C43.4445 2.3 43.5445 2.5 42.1445 2.5C41.0445 2.5 41.0445 2.2 41.0445 3.7C41.0445 5.1 41.0445 4.8 42.2445 4.8ZM48.2445 2.5C47.5445 2.5 46.8445 2.4 46.3445 2.5C45.5445 2.7 46.0445 3.5 45.9445 4C45.8445 4.3 45.7445 4.8 46.3445 4.8C46.9445 4.8 47.6445 4.8 48.2445 4.8C48.2445 4 48.2445 3.3 48.2445 2.5ZM28.9445 16.7C28.8445 15.6 27.9445 14.6 26.7445 14.6C25.4445 14.5 24.3445 15.3 24.1445 16.5C24.0445 17.4 24.1445 18.4 24.1445 19.4C25.7445 19.4 27.2445 19.4 28.9445 19.4C28.9445 18.4 28.9445 17.5 28.9445 16.7ZM36.2445 19.3C37.1445 19.3 38.0445 19.3 38.9445 19.3C40.1445 19.2 40.9445 18.2 41.0445 17C41.0445 15.8 40.1445 14.7 38.9445 14.6C38.0445 14.5 37.1445 14.6 36.2445 14.6C36.2445 16.2 36.2445 17.7 36.2445 19.3Z" fill="url(#paint0_linear)"/>
<defs>
<linearGradient id="paint0_linear" x1="14.4743" y1="14.529" x2="55.5016" y2="14.529" gradientUnits="userSpaceOnUse">
<stop stop-color="#2153DA"/>
<stop offset="1" stop-color="#072C8D"/>
</linearGradient>
</defs>
</svg>
