<svg width="71" height="70" viewBox="0 0 71 70" fill="none" xmlns="http://www.w3.org/2000/svg">
<path d="M40.05 41.2999C36.55 43.6999 35.55 45.4999 36.25 48.2999C36.85 50.8999 39.15 52.8999 41.75 53.1999C44.35 53.4999 46.35 52.2999 47.95 49.1999C48.95 50.2999 50.05 51.1999 50.85 52.2999C51.65 53.3999 51.35 54.8999 50.25 55.9999C49.15 57.0999 48.05 58.1999 46.95 59.2999C46.35 59.8999 45.75 60.5999 46.05 61.5999C46.35 62.5999 47.25 62.6999 48.05 62.8999C49.85 63.1999 50.95 64.4999 50.85 66.1999C50.75 67.8999 49.15 69.4999 47.55 69.5999C45.95 69.6999 44.65 68.6999 44.35 66.8999C44.35 66.7999 44.35 66.5999 44.25 66.4999C43.85 65.8999 43.55 64.9999 43.05 64.7999C42.55 64.5999 41.65 64.9999 41.15 65.3999C39.95 66.3999 38.85 67.5999 37.75 68.6999C36.05 70.3999 34.55 70.3999 32.85 68.6999C31.75 67.5999 30.75 66.5999 29.65 65.4999C29.05 64.8999 28.35 64.3999 27.45 64.7999C26.55 65.0999 26.35 65.8999 26.15 66.7999C25.85 68.6999 24.55 69.8999 22.95 69.7999C21.15 69.6999 19.55 68.0999 19.45 66.3999C19.35 64.7999 20.55 63.4999 22.45 63.1999C23.35 63.0999 24.05 62.8999 24.45 61.9999C24.75 61.0999 24.35 60.2999 23.75 59.6999C22.65 58.4999 21.45 57.3999 20.25 56.1999C18.85 54.6999 18.85 53.1999 20.25 51.7999C21.35 50.6999 22.45 49.5999 23.55 48.4999C24.15 47.8999 24.65 47.1999 24.35 46.2999C24.05 45.3999 23.25 45.1999 22.35 45.0999C20.25 44.7999 19.05 43.0999 19.55 41.2999C20.05 39.2999 22.05 37.9999 23.85 38.5999C25.05 38.9999 25.65 39.8999 25.95 41.0999C26.05 41.3999 26.05 41.6999 26.05 41.8999C26.45 43.5999 27.75 43.9999 29.05 42.8999C30.25 41.8999 31.35 40.6999 32.45 39.5999C34.45 37.5999 35.75 37.5999 37.85 39.5999C38.75 40.0999 39.35 40.6999 40.05 41.2999Z" fill="#94ACED"/>
<path d="M30.85 28.4999C34.05 26.5999 35.25 24.6999 34.85 22.1999C34.35 19.2999 32.25 17.1999 29.45 16.6999C26.85 16.1999 24.95 17.2999 23.05 20.3999C22.15 19.4999 21.05 18.6999 20.25 17.6999C19.25 16.4999 19.45 14.8999 20.65 13.7999C21.75 12.7999 22.85 11.7999 23.95 10.7999C24.65 10.1999 25.15 9.4999 24.95 8.5999C24.75 7.5999 23.85 7.3999 22.95 7.1999C21.05 6.7999 19.95 5.4999 20.15 3.7999C20.25 1.9999 21.95 0.399902 23.65 0.399902C25.05 0.399902 26.25 1.3999 26.65 2.9999C26.85 3.8999 26.85 4.9999 27.95 5.1999C29.05 5.4999 29.75 4.6999 30.45 3.9999C31.35 3.0999 32.25 2.1999 33.25 1.2999C34.95 -0.400098 36.45 -0.400098 38.15 1.2999C39.15 2.2999 40.15 3.2999 41.15 4.2999C41.75 4.8999 42.45 5.5999 43.45 5.2999C44.45 4.9999 44.65 4.0999 44.75 3.1999C45.05 1.1999 46.45 0.199902 48.25 0.399902C50.15 0.699902 51.55 2.4999 51.25 4.2999C51.05 5.4999 50.15 6.4999 48.85 6.8999C48.55 6.9999 48.25 6.9999 48.05 6.9999C46.25 7.3999 45.75 8.7999 46.95 10.1999C48.05 11.3999 49.35 12.4999 50.45 13.7999C50.95 14.3999 51.45 15.1999 51.45 15.8999C51.45 16.6999 51.05 17.4999 50.45 18.1999C49.45 19.3999 48.25 20.4999 47.05 21.5999C46.45 22.1999 45.95 22.7999 46.25 23.6999C46.55 24.5999 47.25 24.7999 48.05 24.9999C49.85 25.2999 51.05 26.3999 51.15 27.8999C51.25 29.4999 49.95 31.0999 48.35 31.4999C46.85 31.8999 45.35 30.9999 44.75 29.4999C44.65 29.1999 44.65 28.7999 44.45 28.4999C44.15 27.8999 43.85 27.0999 43.25 26.6999C42.55 26.1999 41.75 26.7999 41.15 27.2999C39.95 28.4999 38.85 29.5999 37.65 30.7999C36.15 32.2999 34.55 32.2999 33.05 30.7999C32.45 29.9999 31.65 29.2999 30.85 28.4999Z" fill="#94ACED"/>
<path d="M28.95 39.8C26.75 36.3 24.85 35.3 22.05 35.9C19.65 36.4 17.45 38.6 17.05 41.1C16.55 43.9 17.55 45.8 20.85 47.7C19.95 48.6 19.05 49.6 18.05 50.4C16.95 51.4 15.25 51.2 14.15 50.1C12.95 49 11.85 47.8 10.65 46.6C10.05 46 9.35 45.5 8.45 45.8C7.55 46.1 7.35 46.9 7.25 47.8C7.05 49.2 6.35 50.3 4.85 50.7C3.35 51.1 2.15 50.4 1.25 49.2C0.45 48.1 0.25 46.9 0.95 45.6C1.45 44.6 2.35 44.2 3.45 44.1C4.25 44 5.15 43.8 5.25 42.9C5.35 42.2 5.05 41.4 4.55 40.8C3.45 39.5 2.25 38.4 1.05 37.3C-0.35 35.9 -0.35 34.3 1.05 33C2.15 31.9 3.35 30.8 4.45 29.7C5.15 29 5.75 28.3 5.45 27.3C5.15 26.3 4.25 26.1 3.35 26C1.45 25.6 0.35 24.2 0.55 22.6C0.75 20.8 2.45 19.4 4.35 19.5C5.75 19.6 6.85 20.7 7.15 22.3C7.25 22.7 7.25 23.2 7.45 23.5C7.95 24.7 9.25 24.9 10.35 23.9C11.55 22.8 12.75 21.6 13.85 20.4C15.55 18.7 16.95 18.7 18.65 20.4C19.65 21.4 20.75 22.5 21.75 23.5C22.35 24.1 23.05 24.7 24.05 24.3C25.05 24 25.15 23.1 25.25 22.3C25.55 20.4 26.95 19.2 28.55 19.4C30.45 19.6 31.95 21.5 31.75 23.3C31.65 24.7 30.55 25.8 29.05 26C28.55 26.1 28.05 26.2 27.65 26.4C26.55 27 26.45 28.1 27.35 29.1C28.45 30.3 29.65 31.4 30.85 32.6C32.65 34.4 32.65 35.8 30.85 37.6C30.35 38.2 29.65 39 28.95 39.8ZM39.55 32.7C38.25 34.1 38.25 35.6 39.55 37C40.55 38.1 41.65 39.1 42.65 40.1C43.35 40.8 44.25 41.5 43.85 42.7C43.55 43.8 42.45 43.8 41.45 44C39.85 44.3 38.85 45.5 38.85 47C38.85 48.7 40.25 50.3 42.05 50.5C43.85 50.7 45.05 49.7 45.45 47.7C45.65 46.8 45.85 46 46.75 45.7C47.75 45.4 48.35 46.1 48.95 46.7C49.95 47.7 50.95 48.7 51.95 49.7C53.65 51.4 55.15 51.4 56.85 49.7C57.85 48.7 58.75 47.8 59.75 46.8C59.95 46.6 60.25 46.3 60.45 46.2C61.75 45.2 63.05 45.7 63.45 47.4C63.45 47.6 63.55 47.8 63.55 48C63.95 49.8 65.25 50.9 66.85 50.8C68.65 50.7 70.15 49.1 70.15 47.3C70.15 45.7 69.05 44.4 67.15 44.2C66.25 44.1 65.45 43.9 65.15 43C64.85 42.1 65.25 41.3 65.95 40.7C67.05 39.6 68.15 38.5 69.25 37.4C70.65 36 70.65 34.4 69.25 33C68.15 31.9 67.05 30.8 65.95 29.6C65.35 29 64.85 28.3 65.15 27.4C65.45 26.4 66.25 26.3 67.15 26.2C67.65 26.1 68.25 25.9 68.75 25.6C69.95 24.9 70.35 23.5 69.95 22.2C69.45 20.7 67.85 19.5 66.35 19.6C64.85 19.7 63.75 20.7 63.45 22.5C63.35 23.3 63.15 24.1 62.25 24.4C61.35 24.7 60.55 24.2 59.95 23.6C58.85 22.5 57.65 21.3 56.55 20.2C55.35 19.1 53.75 19 52.65 19.9C51.65 20.7 50.85 21.7 49.95 22.6C52.85 23.8 54.25 25.8 54.05 28.5C53.85 31.3 51.65 33.7 48.85 34.3C46.05 34.9 43.95 33.7 42.15 30.3C41.15 31 40.35 31.9 39.55 32.7Z" fill="url(#paint0_linear)"/>
<defs>
<linearGradient id="paint0_linear" x1="0.25" y1="34.9939" x2="70.4799" y2="34.9939" gradientUnits="userSpaceOnUse">
<stop stop-color="#2153DA"/>
<stop offset="1" stop-color="#072C8D"/>
</linearGradient>
</defs>
</svg>
