<svg width="1920" height="903" viewBox="0 0 1920 903" fill="none" xmlns="http://www.w3.org/2000/svg">
<path d="M1970.97 1118.31L1931.94 1095.72L1971.79 1072.72L1972.2 1072.31V1025.9L2010.41 1048.08V1045.61L1973.43 1024.26L2010.41 1002.9V1000.44L1972.2 1022.62V977.44L2010.41 955.263V952.799L1971.38 975.387L1932.35 952.799L1971.38 930.211L2010.41 952.799V950.335L1972.2 928.158V882.982L2010.41 905.159V902.695L1973.43 881.339L2010.41 859.983V857.519L1972.2 879.696V834.52L2010.41 812.343V809.879L1971.38 832.467L1932.35 809.879L1971.38 787.291L2010.41 809.879V807.415L1972.2 785.238V740.062L2010.41 762.239V759.775L1973.43 738.419L2010.41 717.063V714.599L1972.2 736.776V691.601L2010.41 669.423V666.959L1971.38 689.547L1932.35 666.959L1971.38 644.371L2010.41 666.959V664.495L1972.2 642.318V597.142L2010.41 619.319V616.855L1973.43 595.499L2010.41 574.143V571.679L1972.2 593.857V548.681L2010.41 526.503V524.039L1971.38 546.627L1939.33 528.146L1932.35 524.039L1971.38 501.451L2010.41 524.039V521.575L1972.2 499.398V454.222L2010.41 476.399V473.935L1973.43 452.579L2010.41 431.224V428.759L1972.2 450.937V405.761L2010.41 383.584V381.941L1971.38 404.529L1932.35 381.941L1971.38 359.353L2010.41 381.941V379.477L1972.2 357.3V312.124L2010.41 334.301V331.837L1973.43 310.481L2010.41 289.125V286.661L1972.2 308.838V263.662L2010.41 241.485V239.021L1971.38 261.609L1932.35 239.021L1971.38 216.433L2010.41 239.021V236.557L1972.2 214.38V169.204L2010.41 191.381V188.917L1973.43 167.561L2010.41 146.205V143.741L1972.2 165.918V120.743L2010.41 98.5654V96.1013L1971.38 118.689L1939.33 100.208L1932.35 96.1013L1971.38 73.5134L2010.41 96.1013V93.6371L1972.2 71.4599V26.2841L2010.41 48.4613V45.9972L1972.2 23.82L1970.15 22.5879L1929.47 0L1889.21 22.9986H1887.16L1847.31 0L1807.04 22.9986H1804.99L1764.73 0L1724.46 22.9986H1722.41L1682.15 0L1641.88 22.9986H1639.83L1599.98 0L1559.72 22.9986H1557.66L1517.4 0L1477.14 22.9986H1475.08L1434.82 0L1394.56 22.9986H1392.5L1352.65 0L1312.39 22.9986H1310.33L1270.07 0L1229.81 22.9986H1227.75L1187.49 0L1147.23 22.9986H1145.17L1105.32 0L1065.06 22.9986H1063.01L1022.74 0L982.48 22.9986H980.426L940.163 0L899.901 22.9986H897.846L857.995 0L817.732 22.9986H815.678L775.415 0L735.152 22.9986H733.098L692.835 0L652.573 22.9986H650.518L610.256 0L569.993 22.9986H567.939L528.087 0L487.824 22.9986H485.77L445.508 0L405.245 22.9986H403.191L362.928 0L322.665 22.9986H320.611L280.759 0L240.497 22.9986H238.442L198.18 0L157.917 22.9986H155.863L115.6 0L75.3374 22.9986H73.2832L33.4314 0L-6.83128 22.9986H-8.8855L-49.1482 0L-89 22.9986V25.4627L-49.1482 2.46414L-10.118 25.052L-49.9699 48.0506L-50.3807 48.4613V94.4585L-89 72.2813V74.7454L-51.2024 96.512L-89 118.278V120.743L-49.9699 98.1547V143.331L-89 165.918V170.025L-49.9699 192.613V237.789L-52.4349 236.557L-89 214.79V217.255L-53.6674 237.789L-51.2024 239.021L-89 260.788V263.252L-49.9699 240.664V285.84L-89 308.428V312.534L-49.9699 335.122V380.298L-53.2566 378.245L-89 357.71V360.174L-54.4891 380.298L-51.2024 381.941L-89 403.707V406.172L-49.9699 383.584V428.759L-89 451.347V455.454L-49.9699 478.042V523.218L-89 500.219V502.684L-51.2024 524.45L-89 546.627V549.091L-49.9699 526.503V571.679L-89 593.857V597.963L-49.9699 620.551V665.727L-89 643.139V645.603L-51.2024 667.37L-89 689.136V691.601L-49.9699 669.013V714.188L-89 736.776V740.883L-49.9699 763.471V808.647L-56.9542 804.54L-89 786.059V788.523L-53.6674 809.058L-51.2024 810.29L-89 832.056V834.52L-49.9699 811.932V857.108L-89 879.696V883.803L-49.9699 906.391V951.567L-53.2566 949.513L-89 928.979V931.443L-54.4891 951.567L-51.2024 953.62L-89 974.565V977.029L-49.9699 954.442V999.617L-89 1022.21V1026.31L-49.9699 1048.9V1094.08L-89 1071.49V1073.95L-51.2024 1095.72L-89 1117.49V1119.95L-49.9699 1097.36V1143.77L-9.70718 1166.77L-7.65297 1168L-5.59875 1166.77L33.4314 1144.18L72.4615 1166.77L74.5157 1168L76.57 1166.77L115.6 1144.18L154.63 1166.77L156.684 1168L158.739 1166.77L197.769 1144.18L236.799 1166.77L238.853 1168L240.907 1166.77L279.938 1144.18L318.968 1166.77L321.022 1168L323.076 1166.77L362.106 1144.18L401.136 1166.77L403.191 1168L405.245 1166.77L444.275 1144.18L483.305 1166.77L485.359 1168L487.414 1166.77L526.444 1144.18L565.474 1166.77L567.528 1168L569.582 1166.77L608.612 1144.18L647.643 1166.77L649.697 1168L651.751 1166.77L690.781 1144.18L729.811 1166.77L731.866 1168L733.92 1166.77L772.95 1144.18L811.98 1166.77L814.034 1168L816.089 1166.77L855.119 1144.18L894.149 1166.77L896.203 1168L898.257 1166.77L937.287 1144.18L976.317 1166.77L978.372 1168L980.426 1166.77L1019.46 1144.18L1058.49 1166.77L1060.54 1168L1062.59 1166.77L1101.62 1144.18L1140.65 1166.77L1142.71 1168L1144.76 1166.77L1183.79 1144.18L1222.82 1166.77L1224.88 1168L1226.93 1166.77L1265.96 1144.18L1304.99 1166.77L1307.05 1168L1309.1 1166.77L1348.13 1144.18L1387.16 1166.77L1389.22 1168L1391.27 1166.77L1430.3 1144.18L1469.33 1166.77L1471.38 1168L1473.44 1166.77L1512.47 1144.18L1551.5 1166.77L1553.55 1168L1555.61 1166.77L1594.64 1144.18L1633.67 1166.77L1635.72 1168L1637.78 1166.77L1676.81 1144.18L1715.84 1166.77L1717.89 1168L1719.94 1166.77L1758.97 1144.18L1798 1166.77L1800.06 1168L1802.11 1166.77L1841.14 1144.18L1880.17 1166.77L1882.23 1168L1884.28 1166.77L1924.13 1143.77L1924.54 1143.36V1096.95L1964.81 1119.95L2003.84 1097.36V1094.9L1970.97 1118.31ZM1969.74 977.44V1022.62L1930.71 1000.03V954.852L1969.74 977.44ZM1856.34 528.557L1849.36 524.45L1888.39 501.862L1927.42 524.45L1888.39 547.038L1856.34 528.557ZM1887.57 549.091V594.267L1848.54 571.679V526.503L1887.57 549.091ZM1848.13 522.807V477.632L1887.16 455.044V500.219L1848.13 522.807ZM1887.57 451.347L1848.54 428.759V383.584L1887.57 406.172V451.347ZM1886.34 453.401L1847.31 475.989L1808.28 453.401L1847.31 430.813L1886.34 453.401ZM1846.07 428.759L1807.04 451.347V406.172L1846.07 383.584V428.759ZM1846.07 477.632V522.807L1807.04 500.219V455.044L1846.07 477.632ZM1845.25 524.45L1806.22 547.038L1774.18 528.557L1767.19 524.45L1806.22 501.862L1845.25 524.45ZM1846.07 526.503V571.679L1807.04 594.267V549.091L1846.07 526.503ZM1804.99 549.091V594.267L1765.96 571.679V526.503L1804.99 549.091ZM1765.96 522.807V477.632L1804.99 455.044V500.219L1765.96 522.807ZM1804.99 451.347L1765.96 428.759V383.584L1804.99 406.172V451.347ZM1803.76 453.401L1764.73 475.989L1725.7 453.401L1764.73 430.813L1803.76 453.401ZM1763.9 428.759L1724.87 451.347V406.172L1763.9 383.584V428.759ZM1763.9 477.632V522.807L1724.87 500.219V455.044L1763.9 477.632ZM1762.67 524.45L1723.64 547.038L1691.6 528.557L1684.61 524.45L1723.64 501.862L1762.67 524.45ZM1763.9 526.503V571.679L1724.87 594.267V549.091L1763.9 526.503ZM1722.41 549.091V594.267L1683.38 571.679V526.503L1722.41 549.091ZM1683.38 522.807V477.632L1722.41 455.044V500.219L1683.38 522.807ZM1722.41 451.347L1683.38 428.759V383.584L1722.41 406.172V451.347ZM1721.59 453.401L1682.56 475.989L1643.53 453.401L1682.56 430.813L1721.59 453.401ZM1681.33 428.759L1642.29 451.347V406.172L1681.33 383.584V428.759ZM1681.33 477.632V522.807L1642.29 500.219V455.044L1681.33 477.632ZM1680.09 524.45L1641.06 547.038L1609.02 528.557L1602.03 524.45L1641.06 501.862L1680.09 524.45ZM1681.33 526.503V571.679L1642.29 594.267V549.091L1681.33 526.503ZM1640.24 549.091V594.267L1601.21 571.679V526.503L1640.24 549.091ZM1600.8 522.807V477.632L1639.83 455.044V500.219L1600.8 522.807ZM1640.24 451.347L1601.21 428.759V383.584L1640.24 406.172V451.347ZM1639.01 453.401L1599.98 475.989L1560.95 453.401L1599.98 430.813L1639.01 453.401ZM1598.75 428.759L1559.72 451.347V406.172L1598.75 383.584V428.759ZM1598.75 477.632V522.807L1559.72 500.219V455.044L1598.75 477.632ZM1597.92 524.45L1558.89 547.038L1526.85 528.557L1519.86 524.45L1558.89 501.862L1597.92 524.45ZM1598.75 526.503V571.679L1559.72 594.267V549.091L1598.75 526.503ZM1557.66 549.091V594.267L1518.63 571.679V526.503L1557.66 549.091ZM1518.22 522.807V477.632L1557.25 455.044V500.219L1518.22 522.807ZM1557.66 451.347L1518.63 428.759V383.584L1557.66 406.172V451.347ZM1556.43 453.401L1517.4 475.989L1478.37 453.401L1517.4 430.813L1556.43 453.401ZM1516.17 428.759L1477.14 451.347V406.172L1516.17 383.584V428.759ZM1516.17 477.632V522.807L1477.14 500.219V455.044L1516.17 477.632ZM1515.34 524.45L1476.31 547.038L1444.27 528.557L1437.28 524.45L1476.31 501.862L1515.34 524.45ZM1516.17 526.503V571.679L1477.14 594.267V549.091L1516.17 526.503ZM1475.08 549.091V594.267L1436.05 571.679V526.503L1475.08 549.091ZM1436.05 522.807V477.632L1475.08 455.044V500.219L1436.05 522.807ZM1475.08 451.347L1436.05 428.759V383.584L1475.08 406.172V451.347ZM1474.26 453.401L1435.23 475.989L1396.2 453.401L1435.23 430.813L1474.26 453.401ZM1434 428.759L1394.97 451.347V406.172L1434 383.584V428.759ZM1434 477.632V522.807L1394.97 500.219V455.044L1434 477.632ZM1432.76 524.45L1393.73 547.038L1361.69 528.557L1354.7 524.45L1393.73 501.862L1432.76 524.45ZM1434 526.503V571.679L1394.97 594.267V549.091L1434 526.503ZM1392.5 549.091V594.267L1353.47 571.679V526.503L1392.5 549.091ZM1353.47 522.807V477.632L1392.5 455.044V500.219L1353.47 522.807ZM1392.5 451.347L1353.47 428.759V383.584L1392.5 406.172V451.347ZM1391.68 453.401L1352.65 475.989L1313.62 453.401L1352.65 430.813L1391.68 453.401ZM1351.42 428.759L1312.39 451.347V406.172L1351.42 383.584V428.759ZM1351.42 477.632V522.807L1312.39 500.219V455.044L1351.42 477.632ZM1350.6 524.45L1311.57 547.038L1279.52 528.557L1272.54 524.45L1311.57 501.862L1350.6 524.45ZM1351.42 526.503V571.679L1312.39 594.267V549.091L1351.42 526.503ZM1310.33 549.091V594.267L1271.3 571.679V526.503L1310.33 549.091ZM1270.89 522.807V477.632L1309.92 455.044V500.219L1270.89 522.807ZM1310.33 451.347L1271.3 428.759V383.584L1310.33 406.172V451.347ZM1309.1 453.401L1270.07 475.989L1231.04 453.401L1270.07 430.813L1309.1 453.401ZM1268.84 428.759L1229.81 451.347V406.172L1268.84 383.584V428.759ZM1268.84 477.632V522.807L1229.81 500.219V455.044L1268.84 477.632ZM1268.02 524.45L1228.99 547.038L1196.94 528.557L1189.96 524.45L1228.99 501.862L1268.02 524.45ZM1268.84 526.503V571.679L1229.81 594.267V549.091L1268.84 526.503ZM1227.75 549.091V594.267L1188.72 571.679V526.503L1227.75 549.091ZM1188.72 522.807V477.632L1227.75 455.044V500.219L1188.72 522.807ZM1227.75 451.347L1188.72 428.759V383.584L1227.75 406.172V451.347ZM1226.93 453.401L1187.9 475.989L1148.87 453.401L1187.9 430.813L1226.93 453.401ZM1186.67 428.759L1147.64 451.347V406.172L1186.67 383.584V428.759ZM1186.67 477.632V522.807L1147.64 500.219V455.044L1186.67 477.632ZM1185.44 524.45L1146.41 547.038L1114.36 528.557L1107.38 524.45L1146.41 501.862L1185.44 524.45ZM1186.67 526.503V571.679L1147.64 594.267V549.091L1186.67 526.503ZM1145.17 549.091V594.267L1106.14 571.679V526.503L1145.17 549.091ZM1106.14 522.807V477.632L1145.17 455.044V500.219L1106.14 522.807ZM1145.17 451.347L1106.14 428.759V383.584L1145.17 406.172V451.347ZM1144.35 453.401L1105.32 475.989L1066.29 453.401L1105.32 430.813L1144.35 453.401ZM1104.09 428.759L1065.06 451.347V406.172L1104.09 383.584V428.759ZM1104.09 477.632V522.807L1065.06 500.219V455.044L1104.09 477.632ZM1103.27 524.45L1064.24 547.038L1032.19 528.557L1025.21 524.45L1064.24 501.862L1103.27 524.45ZM1104.09 526.503V571.679L1065.06 594.267V549.091L1104.09 526.503ZM1063.01 549.091V594.267L1023.98 571.679V526.503L1063.01 549.091ZM1023.56 522.807V477.632L1062.59 455.044V500.219L1023.56 522.807ZM1063.01 451.347L1023.98 428.759V383.584L1063.01 406.172V451.347ZM1061.77 453.401L1022.74 475.989L983.713 453.401L1022.74 430.813L1061.77 453.401ZM1021.51 428.759L982.48 451.347V406.172L1021.51 383.584V428.759ZM1021.51 477.632V522.807L982.48 500.219V455.044L1021.51 477.632ZM1020.69 524.45L981.658 547.038L949.613 528.557L942.628 524.45L981.658 501.862L1020.69 524.45ZM1021.51 526.503V571.679L982.48 594.267V549.091L1021.51 526.503ZM980.426 549.091V594.267L941.396 571.679V526.503L980.426 549.091ZM941.396 522.807V477.632L980.426 455.044V500.219L941.396 522.807ZM980.426 451.347L941.396 428.759V383.584L980.426 406.172V451.347ZM979.604 453.401L940.574 475.989L901.544 453.401L940.574 430.813L979.604 453.401ZM939.342 428.759L900.311 451.347V406.172L939.342 383.584V428.759ZM939.342 477.632V522.807L900.311 500.219V455.044L939.342 477.632ZM938.109 524.45L899.079 547.038L867.033 528.557L860.049 524.45L899.079 501.862L938.109 524.45ZM939.342 526.503V571.679L900.311 594.267V549.091L939.342 526.503ZM897.846 549.091V594.267L858.816 571.679V526.503L897.846 549.091ZM858.816 522.807V477.632L897.846 455.044V500.219L858.816 522.807ZM897.846 451.347L858.816 428.759V383.584L897.846 406.172V451.347ZM897.025 453.401L857.995 475.989L818.964 453.401L857.995 430.813L897.025 453.401ZM856.762 428.759L817.732 451.347V406.172L856.762 383.584V428.759ZM856.762 477.632V522.807L817.732 500.219V455.044L856.762 477.632ZM855.94 524.45L816.91 547.038L784.864 528.557L777.88 524.45L816.91 501.862L855.94 524.45ZM856.762 526.503V571.679L817.732 594.267V549.091L856.762 526.503ZM815.678 549.091V594.267L776.647 571.679V526.503L815.678 549.091ZM776.237 522.807V477.632L815.267 455.044V500.219L776.237 522.807ZM815.678 451.347L776.647 428.759V383.584L815.678 406.172V451.347ZM814.445 453.401L775.415 475.989L736.385 453.401L775.415 430.813L814.445 453.401ZM774.182 428.759L735.152 451.347V406.172L774.182 383.584V428.759ZM774.182 477.632V522.807L735.152 500.219V455.044L774.182 477.632ZM773.361 524.45L734.331 547.038L702.285 528.557L695.3 524.45L734.331 501.862L773.361 524.45ZM774.182 526.503V571.679L735.152 594.267V549.091L774.182 526.503ZM733.098 549.091V594.267L694.068 571.679V526.503L733.098 549.091ZM694.068 522.807V477.632L733.098 455.044V500.219L694.068 522.807ZM733.098 451.347L694.068 428.759V383.584L733.098 406.172V451.347ZM732.276 453.401L693.246 475.989L654.216 453.401L693.246 430.813L732.276 453.401ZM692.014 428.759L652.984 451.347V406.172L692.014 383.584V428.759ZM692.014 477.632V522.807L652.984 500.219V455.044L692.014 477.632ZM690.781 524.45L651.751 547.038L619.705 528.557L612.721 524.45L651.751 501.862L690.781 524.45ZM692.014 526.503V571.679L652.984 594.267V549.091L692.014 526.503ZM650.518 549.091V594.267L611.488 571.679V526.503L650.518 549.091ZM611.488 522.807V477.632L650.518 455.044V500.219L611.488 522.807ZM650.518 451.347L611.488 428.759V383.584L650.518 406.172V451.347ZM649.697 453.401L610.667 475.989L571.637 453.401L610.667 430.813L649.697 453.401ZM609.434 428.759L570.404 451.347V406.172L609.434 383.584V428.759ZM609.434 477.632V522.807L570.404 500.219V455.044L609.434 477.632ZM608.202 524.45L569.171 547.038L537.126 528.557L530.141 524.45L569.171 501.862L608.202 524.45ZM609.434 526.503V571.679L570.404 594.267V549.091L609.434 526.503ZM568.35 549.091V594.267L529.32 571.679V526.503L568.35 549.091ZM528.909 522.807V477.632L567.939 455.044V500.219L528.909 522.807ZM568.35 451.347L529.32 428.759V383.584L568.35 406.172V451.347ZM567.117 453.401L528.087 475.989L489.057 453.401L528.087 430.813L567.117 453.401ZM526.855 428.759L487.824 451.347V406.172L526.855 383.584V428.759ZM526.855 477.632V522.807L487.824 500.219V455.044L526.855 477.632ZM526.033 524.45L487.003 547.038L454.957 528.557L447.973 524.45L487.003 501.862L526.033 524.45ZM526.855 526.503V571.679L487.824 594.267V549.091L526.855 526.503ZM485.77 549.091V594.267L446.74 571.679V526.503L485.77 549.091ZM446.74 522.807V477.632L485.77 455.044V500.219L446.74 522.807ZM485.77 451.347L446.74 428.759V383.584L485.77 406.172V451.347ZM484.538 453.401L445.508 475.989L406.477 453.401L445.508 430.813L484.538 453.401ZM444.686 428.759L405.656 451.347V406.172L444.686 383.584V428.759ZM444.686 477.632V522.807L405.656 500.219V455.044L444.686 477.632ZM443.453 524.45L404.423 547.038L372.377 528.557L365.393 524.45L404.423 501.862L443.453 524.45ZM444.686 526.503V571.679L405.656 594.267V549.091L444.686 526.503ZM403.191 549.091V594.267L364.161 571.679V526.503L403.191 549.091ZM364.161 522.807V477.632L403.191 455.044V500.219L364.161 522.807ZM403.191 451.347L364.161 428.759V383.584L403.191 406.172V451.347ZM402.369 453.401L363.339 475.989L324.309 453.401L363.339 430.813L402.369 453.401ZM362.106 428.759L323.076 451.347V406.172L362.106 383.584V428.759ZM362.106 477.632V522.807L323.076 500.219V455.044L362.106 477.632ZM360.874 524.45L321.844 547.038L289.798 528.557L282.813 524.45L321.844 501.862L360.874 524.45ZM362.106 526.503V571.679L323.076 594.267V549.091L362.106 526.503ZM321.022 549.091V594.267L281.992 571.679V526.503L321.022 549.091ZM281.581 522.807V477.632L320.611 455.044V500.219L281.581 522.807ZM321.022 451.347L281.992 428.759V383.584L321.022 406.172V451.347ZM319.789 453.401L280.759 475.989L241.729 453.401L280.759 430.813L319.789 453.401ZM279.527 428.759L240.497 451.347V406.172L279.527 383.584V428.759ZM279.527 477.632V522.807L240.497 500.219V455.044L279.527 477.632ZM278.705 524.45L239.675 547.038L207.629 528.557L200.645 524.45L239.675 501.862L278.705 524.45ZM279.527 526.503V571.679L240.497 594.267V549.091L279.527 526.503ZM238.442 549.091V594.267L199.412 571.679V526.503L238.442 549.091ZM199.412 522.807V477.632L238.442 455.044V500.219L199.412 522.807ZM238.442 451.347L199.412 428.759V383.584L238.442 406.172V451.347ZM237.21 453.401L198.18 475.989L159.15 453.401L198.18 430.813L237.21 453.401ZM197.358 428.759L158.328 451.347V406.172L197.358 383.584V428.759ZM197.358 477.632V522.807L158.328 500.219V455.044L197.358 477.632ZM196.125 524.45L157.095 547.038L125.05 528.557L118.065 524.45L157.095 501.862L196.125 524.45ZM197.358 526.503V571.679L158.328 594.267V549.091L197.358 526.503ZM155.863 549.091V594.267L116.833 571.679V526.503L155.863 549.091ZM116.833 522.807V477.632L155.863 455.044V500.219L116.833 522.807ZM155.863 451.347L116.833 428.759V383.584L155.863 406.172V451.347ZM155.041 453.401L116.011 475.989L76.9808 453.401L116.011 430.813L155.041 453.401ZM114.778 428.759L75.7483 451.347V406.172L114.778 383.584V428.759ZM114.778 477.632V522.807L75.7483 500.219V455.044L114.778 477.632ZM113.546 524.45L74.5157 547.038L42.47 528.557L35.4856 524.45L74.5157 501.862L113.546 524.45ZM114.778 526.503V571.679L75.7483 594.267V549.091L114.778 526.503ZM73.6941 549.091V594.267L34.6639 571.679V526.503L73.6941 549.091ZM34.2531 522.807V477.632L73.2832 455.044V500.219L34.2531 522.807ZM73.6941 451.347L34.6639 428.759V383.584L73.6941 406.172V451.347ZM72.4615 453.401L33.4314 475.989L-5.59875 453.401L33.4314 430.813L72.4615 453.401ZM32.1989 428.759L-6.83128 451.347V406.172L32.1989 383.584V428.759ZM32.1989 477.632V522.807L-6.83128 500.219V455.044L32.1989 477.632ZM0.974747 600.017L-6.00959 595.91L33.0206 573.322L72.0507 595.91L33.0206 618.498L0.974747 600.017ZM32.1989 620.551V665.727L-6.83128 643.139V597.963L0.153069 602.07L32.1989 620.551ZM-6.83128 594.267V549.091L32.1989 526.503V571.679L-6.83128 594.267ZM73.6941 597.963V643.139L34.6639 665.727V620.551L73.6941 597.963ZM34.2531 669.013L73.2832 691.601V736.776L34.2531 714.188V669.013ZM35.4856 667.37L74.5157 644.782L113.546 667.37L74.5157 689.958L35.4856 667.37ZM75.7483 691.601L114.778 669.013V714.188L75.7483 736.776V691.601ZM75.7483 643.139V597.963L82.7326 602.07L114.778 620.551V665.727L75.7483 643.139ZM83.5543 600.017L76.57 595.91L115.6 573.322L154.63 595.91L115.6 618.498L83.5543 600.017ZM155.863 597.963V643.139L116.833 665.727V620.551L155.863 597.963ZM116.833 669.013L155.863 691.601V736.776L116.833 714.188V669.013ZM117.654 667.37L156.684 644.782L195.715 667.37L156.684 689.958L117.654 667.37ZM157.917 691.601L196.947 669.013V714.188L157.917 736.776V691.601ZM157.917 643.139V597.963L164.901 602.07L196.947 620.551V665.727L157.917 643.139ZM166.134 600.017L159.15 595.91L198.18 573.322L237.21 595.91L198.18 618.498L166.134 600.017ZM238.442 597.963V643.139L199.412 665.727V620.551L238.442 597.963ZM199.412 669.013L238.442 691.601V736.776L199.412 714.188V669.013ZM200.234 667.37L239.264 644.782L278.294 667.37L239.264 689.958L200.234 667.37ZM240.497 691.601L279.527 669.013V714.188L240.497 736.776V691.601ZM240.497 643.139V597.963L247.481 602.07L279.527 620.551V665.727L240.497 643.139ZM248.303 600.017L241.318 595.91L280.348 573.322L319.379 595.91L280.348 618.498L248.303 600.017ZM321.022 597.963V643.139L281.992 665.727V620.551L321.022 597.963ZM281.581 669.013L320.611 691.601V736.776L281.581 714.188V669.013ZM282.813 667.37L321.844 644.782L360.874 667.37L321.844 689.958L282.813 667.37ZM323.076 691.601L362.106 669.013V714.188L323.076 736.776V691.601ZM323.076 643.139V597.963L330.06 602.07L362.106 620.551V665.727L323.076 643.139ZM330.882 600.017L323.898 595.91L362.928 573.322L401.958 595.91L362.928 618.498L330.882 600.017ZM403.191 597.963V643.139L364.161 665.727V620.551L403.191 597.963ZM364.161 669.013L403.191 691.601V736.776L364.161 714.188V669.013ZM364.982 667.37L404.012 644.782L443.042 667.37L404.012 689.958L364.982 667.37ZM405.245 691.601L444.275 669.013V714.188L405.245 736.776V691.601ZM405.245 643.139V597.963L412.229 602.07L444.275 620.551V665.727L405.245 643.139ZM413.462 600.017L406.477 595.91L445.508 573.322L484.538 595.91L445.508 618.498L413.462 600.017ZM485.77 597.963V643.139L446.74 665.727V620.551L485.77 597.963ZM446.74 669.013L485.77 691.601V736.776L446.74 714.188V669.013ZM447.562 667.37L486.592 644.782L525.622 667.37L486.592 689.958L447.562 667.37ZM487.824 691.601L526.855 669.013V714.188L487.824 736.776V691.601ZM487.824 643.139V597.963L494.809 602.07L526.855 620.551V665.727L487.824 643.139ZM495.63 600.017L488.646 595.91L527.676 573.322L566.706 595.91L527.676 618.498L495.63 600.017ZM568.35 597.963V643.139L529.32 665.727V620.551L568.35 597.963ZM528.909 669.013L567.939 691.601V736.776L528.909 714.188V669.013ZM530.141 667.37L569.171 644.782L608.202 667.37L569.171 689.958L530.141 667.37ZM570.404 691.601L609.434 669.013V714.188L570.404 736.776V691.601ZM570.404 643.139V597.963L577.388 602.07L609.434 620.551V665.727L570.404 643.139ZM578.21 600.017L571.226 595.91L610.256 573.322L649.286 595.91L610.256 618.498L578.21 600.017ZM650.518 597.963V643.139L611.488 665.727V620.551L650.518 597.963ZM611.488 669.013L650.518 691.601V736.776L611.488 714.188V669.013ZM612.31 667.37L651.34 644.782L690.37 667.37L651.34 689.958L612.31 667.37ZM652.573 691.601L691.603 669.013V714.188L652.573 736.776V691.601ZM652.573 643.139V597.963L659.557 602.07L691.603 620.551V665.727L652.573 643.139ZM660.79 600.017L653.805 595.91L692.835 573.322L731.866 595.91L692.835 618.498L660.79 600.017ZM733.098 597.963V643.139L694.068 665.727V620.551L733.098 597.963ZM694.068 669.013L733.098 691.601V736.776L694.068 714.188V669.013ZM694.89 667.37L733.92 644.782L772.95 667.37L733.92 689.958L694.89 667.37ZM735.152 691.601L774.182 669.013V714.188L735.152 736.776V691.601ZM735.152 643.139V597.963L742.137 602.07L774.182 620.551V665.727L735.152 643.139ZM743.369 600.017L736.385 595.91L775.415 573.322L814.445 595.91L775.415 618.498L743.369 600.017ZM815.678 597.963V643.139L776.647 665.727V620.551L815.678 597.963ZM776.237 669.013L815.267 691.601V736.776L776.237 714.188V669.013ZM777.469 667.37L816.499 644.782L855.529 667.37L816.499 689.958L777.469 667.37ZM817.732 691.601L856.762 669.013V714.188L817.732 736.776V691.601ZM817.732 643.139V597.963L824.716 602.07L856.762 620.551V665.727L817.732 643.139ZM825.538 600.017L818.554 595.91L857.584 573.322L896.614 595.91L857.584 618.498L825.538 600.017ZM897.846 597.963V643.139L858.816 665.727V620.551L897.846 597.963ZM858.816 669.013L897.846 691.601V736.776L858.816 714.188V669.013ZM860.049 667.37L899.079 644.782L938.109 667.37L899.079 689.958L860.049 667.37ZM899.901 691.601L938.931 669.013V714.188L899.901 736.776V691.601ZM899.901 643.139V597.963L906.885 602.07L938.931 620.551V665.727L899.901 643.139ZM908.117 600.017L901.133 595.91L940.163 573.322L979.193 595.91L940.163 618.498L908.117 600.017ZM980.426 597.963V643.139L941.396 665.727V620.551L980.426 597.963ZM941.396 669.013L980.426 691.601V736.776L941.396 714.188V669.013ZM942.217 667.37L981.248 644.782L1020.28 667.37L981.248 689.958L942.217 667.37ZM982.48 691.601L1021.51 669.013V714.188L982.48 736.776V691.601ZM982.48 643.139V597.963L989.464 602.07L1021.51 620.551V665.727L982.48 643.139ZM990.697 600.017L983.713 595.91L1022.74 573.322L1061.77 595.91L1022.74 618.498L990.697 600.017ZM1063.01 597.963V643.139L1023.98 665.727V620.551L1063.01 597.963ZM1023.56 669.013L1062.59 691.601V736.776L1023.56 714.188V669.013ZM1024.8 667.37L1063.83 644.782L1102.86 667.37L1063.83 689.958L1024.8 667.37ZM1065.06 691.601L1104.09 669.013V714.188L1065.06 736.776V691.601ZM1065.06 643.139V597.963L1072.04 602.07L1104.09 620.551V665.727L1065.06 643.139ZM1072.87 600.017L1065.88 595.91L1104.91 573.322L1143.94 595.91L1104.91 618.498L1072.87 600.017ZM1145.17 597.963V643.139L1106.14 665.727V620.551L1145.17 597.963ZM1106.14 669.013L1145.17 691.601V736.776L1106.14 714.188V669.013ZM1107.38 667.37L1146.41 644.782L1185.44 667.37L1146.41 689.958L1107.38 667.37ZM1147.23 691.601L1186.26 669.013V714.188L1147.23 736.776V691.601ZM1147.23 643.139V597.963L1154.21 602.07L1186.26 620.551V665.727L1147.23 643.139ZM1155.45 600.017L1148.46 595.91L1187.49 573.322L1226.52 595.91L1187.49 618.498L1155.45 600.017ZM1227.75 597.963V643.139L1188.72 665.727V620.551L1227.75 597.963ZM1188.72 669.013L1227.75 691.601V736.776L1188.72 714.188V669.013ZM1189.55 667.37L1228.58 644.782L1267.61 667.37L1228.58 689.958L1189.55 667.37ZM1229.81 691.601L1268.84 669.013V714.188L1229.81 736.776V691.601ZM1229.81 643.139V597.963L1236.79 602.07L1268.84 620.551V665.727L1229.81 643.139ZM1238.02 600.017L1231.04 595.91L1270.07 573.322L1309.1 595.91L1270.07 618.498L1238.02 600.017ZM1310.33 597.963V643.139L1271.3 665.727V620.551L1310.33 597.963ZM1270.89 669.013L1309.92 691.601V736.776L1270.89 714.188V669.013ZM1272.12 667.37L1311.16 644.782L1350.19 667.37L1311.16 689.958L1272.12 667.37ZM1312.39 691.601L1351.42 669.013V714.188L1312.39 736.776V691.601ZM1312.39 643.139V597.963L1319.37 602.07L1351.42 620.551V665.727L1312.39 643.139ZM1320.19 600.017L1313.21 595.91L1352.24 573.322L1391.27 595.91L1352.24 618.498L1320.19 600.017ZM1392.5 597.963V643.139L1353.47 665.727V620.551L1392.5 597.963ZM1353.47 669.013L1392.5 691.601V736.776L1353.47 714.188V669.013ZM1354.7 667.37L1393.73 644.782L1432.76 667.37L1393.73 689.958L1354.7 667.37ZM1394.56 691.601L1433.59 669.013V714.188L1394.56 736.776V691.601ZM1394.56 643.139V597.963L1401.54 602.07L1433.59 620.551V665.727L1394.56 643.139ZM1402.77 600.017L1395.79 595.91L1434.82 573.322L1473.85 595.91L1434.82 618.498L1402.77 600.017ZM1475.08 597.963V643.139L1436.05 665.727V620.551L1475.08 597.963ZM1436.05 669.013L1475.08 691.601V736.776L1436.05 714.188V669.013ZM1436.87 667.37L1475.9 644.782L1514.93 667.37L1476.31 689.958L1436.87 667.37ZM1477.14 691.601L1516.17 669.013V714.188L1477.14 736.776V691.601ZM1477.14 643.139V597.963L1484.12 602.07L1516.17 620.551V665.727L1477.14 643.139ZM1485.35 600.017L1478.37 595.91L1517.4 573.322L1556.43 595.91L1517.4 618.498L1485.35 600.017ZM1557.66 597.963V643.139L1518.63 665.727V620.551L1557.66 597.963ZM1518.22 669.013L1557.25 691.601V736.776L1518.22 714.188V669.013ZM1519.45 667.37L1558.48 644.782L1597.51 667.37L1558.48 689.958L1519.45 667.37ZM1559.72 691.601L1598.75 669.013V714.188L1559.72 736.776V691.601ZM1559.72 643.139V597.963L1566.7 602.07L1598.75 620.551V665.727L1559.72 643.139ZM1567.52 600.017L1560.54 595.91L1599.57 573.322L1638.6 595.91L1599.57 618.498L1567.52 600.017ZM1640.24 597.963V643.139L1601.21 665.727V620.551L1640.24 597.963ZM1600.8 669.013L1639.83 691.601V736.776L1600.8 714.188V669.013ZM1602.03 667.37L1641.06 644.782L1680.09 667.37L1641.06 689.958L1602.03 667.37ZM1642.29 691.601L1681.33 669.013V714.188L1642.29 736.776V691.601ZM1642.29 643.139V597.963L1649.28 602.07L1681.33 620.551V665.727L1642.29 643.139ZM1650.1 600.017L1643.12 595.91L1682.15 573.322L1721.18 595.91L1682.15 618.498L1650.1 600.017ZM1722.41 597.963V643.139L1683.38 665.727V620.551L1722.41 597.963ZM1683.38 669.013L1722.41 691.601V736.776L1683.38 714.188V669.013ZM1684.2 667.37L1723.23 644.782L1762.26 667.37L1723.23 689.958L1684.2 667.37ZM1724.46 691.601L1763.49 669.013V714.188L1724.46 736.776V691.601ZM1724.46 643.139V597.963L1731.45 602.07L1763.49 620.551V665.727L1724.46 643.139ZM1732.68 600.017L1725.7 595.91L1764.73 573.322L1803.76 595.91L1764.73 618.498L1732.68 600.017ZM1804.99 597.963V643.139L1765.96 665.727V620.551L1804.99 597.963ZM1765.96 669.013L1804.99 691.601V736.776L1765.96 714.188V669.013ZM1766.78 667.37L1805.81 644.782L1844.84 667.37L1805.81 689.958L1766.78 667.37ZM1807.04 691.601L1846.07 669.013V714.188L1807.04 736.776V691.601ZM1807.04 643.139V597.963L1814.03 602.07L1846.07 620.551V665.727L1807.04 643.139ZM1814.85 600.017L1807.86 595.91L1846.9 573.322L1885.93 595.91L1846.9 618.498L1814.85 600.017ZM1887.57 597.963V643.139L1848.54 665.727V620.551L1887.57 597.963ZM1848.13 669.013L1887.16 691.601V736.776L1848.13 714.188V669.013ZM1849.36 667.37L1888.39 644.782L1927.42 667.37L1888.39 689.958L1849.36 667.37ZM1889.62 691.601L1928.65 669.013V714.188L1889.62 736.776V691.601ZM1889.62 643.139V597.963L1896.61 602.07L1928.65 620.551V665.727L1889.62 643.139ZM1889.62 549.091L1928.65 526.503V571.679L1889.62 594.267V549.091ZM1889.62 500.219V455.044L1928.65 477.632V522.807L1889.62 500.219ZM1924.54 379.887L1927.83 381.941L1888.8 404.529L1849.77 381.941L1888.8 359.353L1924.54 379.887ZM1889.62 357.3V312.124L1928.65 334.712V379.887L1925.37 377.834L1889.62 357.3ZM1928.65 383.584V428.759L1889.62 451.347V406.172L1928.65 383.584ZM1848.13 379.887V334.712L1887.16 312.124V357.3L1848.13 379.887ZM1887.57 308.838L1880.58 304.731L1848.54 286.25V241.075L1887.57 263.662V308.838ZM1883.87 309.249L1886.34 310.481L1847.31 333.069L1808.28 310.481L1847.31 287.893L1883.87 309.249ZM1846.07 286.25L1807.04 308.838V263.662L1846.07 241.075V286.25ZM1846.07 334.712V379.887L1842.79 377.834L1806.63 356.889V312.124L1846.07 334.712ZM1841.96 379.887L1845.25 381.941L1806.22 404.529L1767.19 381.941L1806.22 359.353L1841.96 379.887ZM1765.96 379.887V334.712L1804.99 312.124V357.3L1765.96 379.887ZM1804.99 308.838L1798 304.731L1765.96 286.25V241.075L1804.99 263.662V308.838ZM1801.7 309.249L1804.17 310.481L1765.14 333.069L1726.11 310.481L1765.14 287.893L1801.7 309.249ZM1763.9 286.25L1724.87 308.838V263.662L1763.9 241.075V286.25ZM1763.9 334.712V379.887L1760.62 377.834L1724.87 356.889V312.124L1763.9 334.712ZM1759.39 379.887L1762.67 381.941L1723.64 404.529L1684.61 381.941L1723.64 359.353L1759.39 379.887ZM1683.38 379.887V334.712L1722.41 312.124V357.3L1683.38 379.887ZM1722.41 308.838L1715.43 304.731L1683.38 286.25V241.075L1722.41 263.662V308.838ZM1719.12 309.249L1721.59 310.481L1682.56 333.069L1643.53 310.481L1682.56 287.893L1719.12 309.249ZM1681.33 286.25L1642.29 308.838V263.662L1681.33 241.075V286.25ZM1681.33 334.712V379.887L1678.04 377.834L1641.88 356.889V312.124L1681.33 334.712ZM1677.22 379.887L1680.5 381.941L1641.47 404.529L1602.44 381.941L1641.47 359.353L1677.22 379.887ZM1600.8 379.887V334.712L1639.83 312.124V357.3L1600.8 379.887ZM1640.24 308.838L1633.26 304.731L1601.21 286.25V241.075L1640.24 263.662V308.838ZM1636.54 309.249L1639.01 310.481L1599.98 333.069L1560.95 310.481L1599.98 287.893L1636.54 309.249ZM1598.75 286.25L1559.72 308.838V263.662L1598.75 241.075V286.25ZM1598.75 334.712V379.887L1595.46 377.834L1559.72 356.889V312.124L1598.75 334.712ZM1594.64 379.887L1597.92 381.941L1558.89 404.529L1519.86 381.941L1558.89 359.353L1594.64 379.887ZM1518.22 379.887V334.712L1557.25 312.124V357.3L1518.22 379.887ZM1557.66 308.838L1550.68 304.731L1518.63 286.25V241.075L1557.66 263.662V308.838ZM1554.37 309.249L1556.84 310.481L1517.81 333.069L1478.78 310.481L1517.81 287.893L1554.37 309.249ZM1516.17 286.25L1477.14 308.838V263.662L1516.17 241.075V286.25ZM1516.17 334.712V379.887L1512.88 377.834L1477.14 356.889V312.124L1516.17 334.712ZM1512.06 379.887L1515.34 381.941L1476.31 404.529L1437.28 381.941L1476.31 359.353L1512.06 379.887ZM1436.05 379.887V334.712L1475.08 312.124V357.3L1436.05 379.887ZM1475.08 308.838L1468.1 304.731L1436.05 286.25V241.075L1475.08 263.662V308.838ZM1471.79 309.249L1474.26 310.481L1435.23 333.069L1396.2 310.481L1435.23 287.893L1471.79 309.249ZM1434 286.25L1394.97 308.838V263.662L1434 241.075V286.25ZM1434 334.712V379.887L1430.71 377.834L1394.56 356.889V312.124L1434 334.712ZM1429.48 379.887L1432.76 381.941L1393.73 404.529L1354.7 381.941L1393.73 359.353L1429.48 379.887ZM1353.47 379.887V334.712L1392.5 312.124V357.3L1353.47 379.887ZM1392.5 308.838L1385.52 304.731L1353.47 286.25V241.075L1392.5 263.662V308.838ZM1389.22 309.249L1391.68 310.481L1352.65 333.069L1313.62 310.481L1352.65 287.893L1389.22 309.249ZM1351.42 286.25L1312.39 308.838V263.662L1351.42 241.075V286.25ZM1351.42 334.712V379.887L1348.13 377.834L1312.39 356.889V312.124L1351.42 334.712ZM1347.31 379.887L1350.6 381.941L1311.57 404.529L1272.54 381.941L1311.57 359.353L1347.31 379.887ZM1270.89 379.887V334.712L1309.92 312.124V357.3L1270.89 379.887ZM1310.33 308.838L1303.35 304.731L1271.3 286.25V241.075L1310.33 263.662V308.838ZM1307.05 309.249L1309.51 310.481L1270.48 333.069L1231.45 310.481L1270.48 287.893L1307.05 309.249ZM1268.84 286.25L1229.81 308.838V263.662L1268.84 241.075V286.25ZM1268.84 334.712V379.887L1265.55 377.834L1229.81 357.3V312.124L1268.84 334.712ZM1264.73 379.887L1268.02 381.941L1228.99 404.529L1189.96 381.941L1228.99 359.353L1264.73 379.887ZM1188.72 379.887V334.712L1227.75 312.124V357.3L1188.72 379.887ZM1227.75 308.838L1220.77 304.731L1188.72 286.25V241.075L1227.75 263.662V308.838ZM1224.47 309.249L1226.93 310.481L1187.9 333.069L1148.87 310.481L1187.9 287.893L1224.47 309.249ZM1186.67 286.25L1147.64 308.838V263.662L1186.67 241.075V286.25ZM1186.67 334.712V379.887L1183.38 377.834L1147.64 356.889V312.124L1186.67 334.712ZM1182.15 379.887L1185.44 381.941L1146.41 404.529L1107.38 381.941L1146.41 359.353L1182.15 379.887ZM1106.14 379.887V334.712L1145.17 312.124V357.3L1106.14 379.887ZM1145.17 308.838L1138.19 304.731L1106.14 286.25V241.075L1145.17 263.662V308.838ZM1141.89 309.249L1144.35 310.481L1105.32 333.069L1066.29 310.481L1105.32 287.893L1141.89 309.249ZM1104.09 286.25L1065.06 308.838V263.662L1104.09 241.075V286.25ZM1104.09 334.712V379.887L1100.8 377.834L1064.65 356.889V312.124L1104.09 334.712ZM1099.98 379.887L1103.27 381.941L1064.24 404.529L1025.21 381.941L1064.24 359.353L1099.98 379.887ZM1023.56 379.887V334.712L1062.59 312.124V357.3L1023.56 379.887ZM1063.01 308.838L1056.02 304.731L1023.98 286.25V241.075L1063.01 263.662V308.838ZM1059.72 309.249L1062.18 310.481L1023.15 333.069L984.124 310.481L1023.15 287.893L1059.72 309.249ZM1021.51 286.25L982.48 308.838V263.662L1021.51 241.075V286.25ZM1021.51 334.712V379.887L1018.22 377.834L982.48 356.889V312.124L1021.51 334.712ZM1017.4 379.887L1020.69 381.941L981.658 404.529L942.217 381.941L981.248 359.353L1017.4 379.887ZM941.396 379.887V334.712L980.426 312.124V357.3L941.396 379.887ZM980.426 308.838L973.442 304.731L941.396 286.25V241.075L980.426 263.662V308.838ZM977.139 309.249L979.604 310.481L940.574 333.069L901.544 310.481L940.574 287.893L977.139 309.249ZM939.342 286.25L900.311 308.838V263.662L939.342 241.075V286.25ZM939.342 334.712V379.887L936.055 377.834L900.311 356.889V312.124L939.342 334.712ZM934.822 379.887L938.109 381.941L899.079 404.529L860.049 381.941L899.079 359.353L934.822 379.887ZM858.816 379.887V334.712L897.846 312.124V357.3L858.816 379.887ZM897.846 308.838L890.862 304.731L858.816 286.25V241.075L897.846 263.662V308.838ZM894.56 309.249L897.025 310.481L857.995 333.069L818.964 310.481L857.995 287.893L894.56 309.249ZM856.762 286.25L817.732 308.838V263.662L856.762 241.075V286.25ZM856.762 334.712V379.887L853.475 377.834L817.321 356.889V312.124L856.762 334.712ZM852.654 379.887L855.94 381.941L816.91 404.529L777.88 381.941L816.91 359.353L852.654 379.887ZM776.237 379.887V334.712L815.267 312.124V357.3L776.237 379.887ZM815.678 308.838L808.693 304.731L776.647 286.25V241.075L815.678 263.662V308.838ZM811.98 309.249L814.445 310.481L775.415 333.069L736.385 310.481L775.415 287.893L811.98 309.249ZM774.182 286.25L735.152 308.838V263.662L774.182 241.075V286.25ZM774.182 334.712V379.887L770.896 377.834L735.152 356.889V312.124L774.182 334.712ZM770.074 379.887L773.361 381.941L734.331 404.529L695.3 381.941L734.331 359.353L770.074 379.887ZM694.068 379.887V334.712L733.098 312.124V357.3L694.068 379.887ZM733.098 308.838L726.114 304.731L694.068 286.25V241.075L733.098 263.662V308.838ZM729.811 309.249L732.276 310.481L693.246 333.069L654.216 310.481L693.246 287.893L729.811 309.249ZM692.014 286.25L652.984 308.838V263.662L692.014 241.075V286.25ZM692.014 334.712V379.887L688.727 377.834L652.573 356.889V312.124L692.014 334.712ZM687.494 379.887L690.781 381.941L651.751 404.529L612.721 381.941L651.751 359.353L687.494 379.887ZM611.488 379.887V334.712L650.518 312.124V357.3L611.488 379.887ZM650.518 308.838L643.534 304.731L611.488 286.25V241.075L650.518 263.662V308.838ZM647.232 309.249L649.697 310.481L610.667 333.069L571.637 310.481L610.667 287.893L647.232 309.249ZM609.434 286.25L570.404 308.838V263.662L609.434 241.075V286.25ZM609.434 334.712V379.887L606.147 377.834L570.404 356.889V312.124L609.434 334.712ZM605.326 379.887L608.612 381.941L569.582 404.529L530.552 381.941L569.582 359.353L605.326 379.887ZM528.909 379.887V334.712L568.35 312.124V357.3L528.909 379.887ZM568.35 308.838L561.365 304.731L529.32 286.25V241.075L568.35 263.662V308.838ZM564.652 309.249L567.117 310.481L528.087 333.069L489.057 310.481L528.087 287.893L564.652 309.249ZM526.855 286.25L487.824 308.838V263.662L526.855 241.075V286.25ZM526.855 334.712V379.887L523.568 377.834L487.824 356.889V312.124L526.855 334.712ZM522.746 379.887L526.033 381.941L487.003 404.529L447.973 381.941L487.003 359.353L522.746 379.887ZM446.74 379.887V334.712L485.77 312.124V357.3L446.74 379.887ZM485.77 308.838L478.786 304.731L446.74 286.25V241.075L485.77 263.662V308.838ZM482.483 309.249L484.948 310.481L445.918 333.069L406.888 310.481L445.918 287.893L482.483 309.249ZM444.686 286.25L405.656 308.838V263.662L444.686 241.075V286.25ZM444.686 334.712V379.887L441.399 377.834L405.245 356.889V312.124L444.686 334.712ZM440.167 379.887L443.453 381.941L404.423 404.529L365.393 381.941L404.423 359.353L440.167 379.887ZM364.161 379.887V334.712L403.191 312.124V357.3L364.161 379.887ZM403.191 308.838L396.206 304.731L364.161 286.25V241.075L403.191 263.662V308.838ZM399.904 309.249L402.369 310.481L363.339 333.069L324.309 310.481L363.339 287.893L399.904 309.249ZM362.106 286.25L323.076 308.838V263.662L362.106 241.075V286.25ZM362.106 334.712V379.887L358.82 377.834L323.076 356.889V312.124L362.106 334.712ZM357.998 379.887L361.285 381.941L322.254 404.529L282.813 381.941L321.844 359.353L357.998 379.887ZM281.581 379.887V334.712L320.611 312.124V357.3L281.581 379.887ZM321.022 308.838L314.038 304.731L281.992 286.25V241.075L321.022 263.662V308.838ZM317.324 309.249L319.789 310.481L280.759 333.069L241.729 310.481L280.759 287.893L317.324 309.249ZM279.527 286.25L240.497 308.838V263.662L279.527 241.075V286.25ZM279.527 334.712V379.887L276.24 377.834L240.497 357.3V312.124L279.527 334.712ZM275.418 379.887L278.705 381.941L239.675 404.529L200.234 381.941L239.264 359.353L275.418 379.887ZM199.412 379.887V334.712L238.442 312.124V357.3L199.412 379.887ZM238.442 308.838L231.458 304.731L199.412 286.25V241.075L238.442 263.662V308.838ZM235.156 309.249L237.621 310.481L198.591 333.069L159.56 310.481L198.591 287.893L235.156 309.249ZM197.358 286.25L158.328 308.838V263.662L197.358 241.075V286.25ZM197.358 334.712V379.887L194.071 377.834L157.917 357.3V312.124L197.358 334.712ZM192.839 379.887L196.125 381.941L157.095 404.529L117.654 381.941L156.684 359.353L192.839 379.887ZM116.833 379.887V334.712L155.863 312.124V357.3L116.833 379.887ZM155.863 308.838L148.878 304.731L116.833 286.25V241.075L155.863 263.662V308.838ZM152.576 309.249L155.041 310.481L116.011 333.069L76.9808 310.481L116.011 287.893L152.576 309.249ZM114.778 286.25L75.7483 308.838V263.662L114.778 241.075V286.25ZM114.778 334.712V379.887L111.492 377.834L75.7483 357.3V312.124L114.778 334.712ZM110.67 379.887L113.957 381.941L74.9266 404.529L35.4856 381.941L74.5157 359.353L110.67 379.887ZM34.2531 379.887V334.712L73.2832 312.124V357.3L34.2531 379.887ZM73.6941 308.838L66.7097 304.731L34.2531 286.25V241.075L73.2832 263.662V308.838H73.6941ZM69.9965 309.249L72.4615 310.481L33.4314 333.069L-5.59875 310.481L33.4314 287.893L69.9965 309.249ZM32.1989 286.25L-6.83128 308.838V263.662L32.1989 241.075V286.25ZM32.1989 334.712V379.887L28.9121 377.834L-6.83128 357.3V312.124L32.1989 334.712ZM28.0904 379.887L31.3772 381.941L-7.65297 404.529L-47.094 381.941L-8.0638 359.353L28.0904 379.887ZM31.3772 524.45L-7.65297 547.038L-39.6988 528.557L-46.6831 524.45L-7.65297 501.862L31.3772 524.45ZM31.3772 667.37L-7.65297 689.958L-46.6831 667.37L-7.65297 644.782L31.3772 667.37ZM32.1989 669.013V714.188L-6.83128 736.776V691.601L32.1989 669.013ZM28.9121 808.647L31.3772 809.879L-7.65297 832.467L-46.6831 809.879L-7.65297 787.291L28.9121 808.647ZM-6.83128 834.52L32.1989 811.932V857.108L-6.83128 879.696V834.52ZM25.2145 804.129L-6.83128 785.648V740.473L32.1989 763.06V808.236L25.2145 804.129ZM-6.00959 738.83L33.0206 716.242L72.0507 738.83L33.0206 761.418L-6.00959 738.83ZM73.6941 740.473V785.648L34.6639 808.236V763.06L73.6941 740.473ZM34.2531 811.932L73.2832 834.52V879.696L69.9965 877.643L33.8422 856.698V811.932H34.2531ZM35.4856 810.29L74.5157 787.702L111.492 809.058L113.957 810.29L74.9266 832.878L35.4856 810.29ZM75.7483 834.52L114.778 811.932V857.108L75.7483 879.696V834.52ZM107.794 804.129L75.7483 785.648V740.473L114.778 763.06V808.236L107.794 804.129ZM76.57 738.83L115.6 716.242L154.63 738.83L115.6 761.418L76.57 738.83ZM155.863 740.473V785.648L116.833 808.236V763.06L155.863 740.473ZM116.833 811.932L155.863 834.52V879.696L152.576 877.643L116.833 856.698V811.932ZM117.654 810.29L156.684 787.702L193.66 809.058L196.125 810.29L157.095 832.878L117.654 810.29ZM157.917 834.52L196.947 811.932V857.108L157.917 879.696V834.52ZM189.963 804.129L157.917 785.648V740.473L196.947 763.06V808.236L189.963 804.129ZM159.15 738.83L198.18 716.242L237.21 738.83L198.18 761.418L159.15 738.83ZM238.442 740.473V785.648L199.412 808.236V763.06L238.442 740.473ZM199.412 811.932L238.442 834.52V879.696L235.156 877.643L199.001 856.698V811.932H199.412ZM200.234 810.29L239.264 787.702L276.24 809.058L278.705 810.29L239.675 832.878L200.234 810.29ZM240.497 834.52L279.527 811.932V857.108L240.497 879.696V834.52ZM272.542 804.129L240.497 785.648V740.473L279.527 763.06V808.236L272.542 804.129ZM241.318 738.83L280.348 716.242L319.379 738.83L280.348 761.418L241.318 738.83ZM321.022 740.473V785.648L281.992 808.236V763.06L321.022 740.473ZM281.581 811.932L320.611 834.52V879.696L317.324 877.643L281.581 856.698V811.932ZM282.813 810.29L321.844 787.702L358.82 809.058L361.285 810.29L322.254 832.878L282.813 810.29ZM323.076 834.52L362.106 811.932V857.108L323.076 879.696V834.52ZM355.122 804.129L323.076 785.648V740.473L362.106 763.06V808.236L355.122 804.129ZM323.898 738.83L362.928 716.242L401.958 738.83L362.928 761.418L323.898 738.83ZM403.191 740.473V785.648L364.161 808.236V763.06L403.191 740.473ZM364.161 811.932L403.191 834.52V879.696L399.904 877.643L364.161 856.698V811.932ZM364.982 810.29L404.012 787.702L440.988 809.058L443.453 810.29L404.423 832.878L364.982 810.29ZM405.245 834.52L444.275 811.932V857.108L405.245 879.696V834.52ZM437.701 804.129L405.656 785.648V740.473L444.686 763.06V808.236L437.701 804.129ZM406.477 738.83L445.508 716.242L484.538 738.83L445.508 761.418L406.477 738.83ZM485.77 740.473V785.648L446.74 808.236V763.06L485.77 740.473ZM446.74 811.932L485.77 834.52V879.696L482.483 877.643L446.329 856.698V811.932H446.74ZM447.562 810.29L486.592 787.702L523.568 809.058L526.033 810.29L487.003 832.878L447.562 810.29ZM487.824 834.52L526.855 811.932V857.108L487.824 879.696V834.52ZM519.87 804.129L487.824 785.648V740.473L526.855 763.06V808.236L519.87 804.129ZM488.646 738.83L527.676 716.242L566.706 738.83L527.676 761.418L488.646 738.83ZM568.35 740.473V785.648L529.32 808.236V763.06L568.35 740.473ZM528.909 811.932L567.939 834.52V879.696L564.652 877.643L528.909 856.698V811.932ZM530.141 810.29L569.171 787.702L606.147 809.058L608.612 810.29L569.582 832.878L530.141 810.29ZM570.404 834.52L609.434 811.932V857.108L570.404 879.696V834.52ZM602.45 804.129L570.404 785.648V740.473L609.434 763.06V808.236L602.45 804.129ZM571.226 738.83L610.256 716.242L649.286 738.83L610.256 761.418L571.226 738.83ZM650.518 740.473V785.648L611.488 808.236V763.06L650.518 740.473ZM611.488 811.932L650.518 834.52V879.696L647.232 877.643L611.078 856.698V811.932H611.488ZM612.31 810.29L651.34 787.702L688.316 809.058L690.781 810.29L651.751 832.878L612.31 810.29ZM652.573 834.52L691.603 811.932V857.108L652.573 879.696V834.52ZM685.029 804.129L652.984 785.648V740.473L692.014 763.06V808.236L685.029 804.129ZM653.805 738.83L692.835 716.242L731.866 738.83L692.835 761.418L653.805 738.83ZM733.098 740.473V785.648L694.068 808.236V763.06L733.098 740.473ZM694.068 811.932L733.098 834.52V879.696L729.811 877.643L694.068 856.698V811.932ZM694.89 810.29L733.92 787.702L770.896 809.058L773.361 810.29L734.331 832.878L694.89 810.29ZM735.152 834.52L774.182 811.932V857.108L735.152 879.696V834.52ZM767.198 804.129L735.152 785.648V740.473L774.182 763.06V808.236L767.198 804.129ZM736.385 738.83L775.415 716.242L814.445 738.83L775.415 761.418L736.385 738.83ZM815.678 740.473V785.648L776.647 808.236V763.06L815.678 740.473ZM776.237 811.932L815.267 834.52V879.696L811.98 877.643L776.237 856.698V811.932ZM777.469 810.29L816.499 787.702L853.475 809.058L855.94 810.29L816.91 832.878L777.469 810.29ZM817.732 834.52L856.762 811.932V857.108L817.732 879.696V834.52ZM849.778 804.129L817.732 785.648V740.473L856.762 763.06V808.236L849.778 804.129ZM818.554 738.83L857.584 716.242L896.614 738.83L857.584 761.418L818.554 738.83ZM897.846 740.473V785.648L858.816 808.236V763.06L897.846 740.473ZM858.816 811.932L897.846 834.52V879.696L894.56 877.643L858.405 856.698V811.932H858.816ZM860.049 810.29L899.079 787.702L936.055 809.058L938.52 810.29L899.49 832.878L860.049 810.29ZM899.901 834.52L938.931 811.932V857.108L899.901 879.696V834.52ZM932.357 804.129L900.311 785.648V740.473L939.342 763.06V808.236L932.357 804.129ZM901.133 738.83L940.163 716.242L979.193 738.83L940.163 761.418L901.133 738.83ZM980.426 740.473V785.648L941.396 808.236V763.06L980.426 740.473ZM941.396 811.932L980.426 834.52V879.696L977.139 877.643L941.396 856.698V811.932ZM942.217 810.29L981.248 787.702L1018.22 809.058L1020.69 810.29L981.658 832.878L942.217 810.29ZM982.48 834.52L1021.51 811.932V857.108L982.48 879.696V834.52ZM1014.53 804.129L982.48 785.648V740.473L1021.51 763.06V808.236L1014.53 804.129ZM983.713 738.83L1022.74 716.242L1061.77 738.83L1022.74 761.418L983.713 738.83ZM1063.01 740.473V785.648L1023.98 808.236V763.06L1063.01 740.473ZM1023.56 811.932L1062.59 834.52V879.696L1059.31 877.643L1023.15 856.698V811.932H1023.56ZM1024.8 810.29L1063.83 787.702L1100.8 809.058L1103.27 810.29L1064.24 832.878L1024.8 810.29ZM1065.06 834.52L1104.09 811.932V857.108L1065.06 879.696V834.52ZM1097.11 804.129L1065.06 785.648V740.473L1104.09 763.06V808.236L1097.11 804.129ZM1065.88 738.83L1104.91 716.242L1143.94 738.83L1104.91 761.418L1065.88 738.83ZM1145.17 740.473V785.648L1106.14 808.236V763.06L1145.17 740.473ZM1106.14 811.932L1145.17 834.52V879.696L1141.89 877.643L1106.14 856.698V811.932ZM1107.38 810.29L1146.41 787.702L1183.38 809.058L1185.85 810.29L1146.82 832.878L1107.38 810.29ZM1147.23 834.52L1186.26 811.932V857.108L1147.23 879.696V834.52ZM1179.69 804.129L1147.64 785.648V740.473L1186.67 763.06V808.236L1179.69 804.129ZM1148.46 738.83L1187.49 716.242L1226.52 738.83L1187.49 761.418L1148.46 738.83ZM1227.75 740.473V785.648L1188.72 808.236V763.06L1227.75 740.473ZM1188.72 811.932L1227.75 834.52V879.696L1224.47 877.643L1188.72 856.698V811.932ZM1189.55 810.29L1228.58 787.702L1265.55 809.058L1268.02 810.29L1228.99 832.878L1189.55 810.29ZM1229.81 834.52L1268.84 811.932V857.108L1229.81 879.696V834.52ZM1261.85 804.129L1229.81 785.648V740.473L1268.84 763.06V808.236L1261.85 804.129ZM1231.04 738.83L1270.07 716.242L1309.1 738.83L1270.07 761.418L1231.04 738.83ZM1310.33 740.473V785.648L1271.3 808.236V763.06L1310.33 740.473ZM1270.89 811.932L1309.92 834.52V879.696L1306.64 877.643L1270.48 856.698V811.932H1270.89ZM1272.12 810.29L1311.16 787.702L1348.13 809.058L1350.6 810.29L1311.57 832.878L1272.12 810.29ZM1312.39 834.52L1351.42 811.932V857.108L1312.39 879.696V834.52ZM1344.43 804.129L1312.39 785.648V740.473L1351.42 763.06V808.236L1344.43 804.129ZM1313.21 738.83L1352.24 716.242L1391.27 738.83L1352.24 761.418L1313.21 738.83ZM1392.5 740.473V785.648L1353.47 808.236V763.06L1392.5 740.473ZM1353.47 811.932L1392.5 834.52V879.696L1389.22 877.643L1353.47 856.698V811.932ZM1354.7 810.29L1393.73 787.702L1430.71 809.058L1433.18 810.29L1394.15 832.878L1354.7 810.29ZM1394.56 834.52L1433.59 811.932V857.108L1394.56 879.696V834.52ZM1427.01 804.129L1394.97 785.648V740.473L1434 763.06V808.236L1427.01 804.129ZM1395.79 738.83L1434.82 716.242L1473.85 738.83L1434.82 761.418L1395.79 738.83ZM1475.08 740.473V785.648L1436.05 808.236V763.06L1475.08 740.473ZM1436.05 811.932L1475.08 834.52V879.696L1471.79 877.643L1435.64 856.698V811.932H1436.05ZM1436.87 810.29L1475.9 787.702L1512.88 809.058L1515.34 810.29L1476.31 832.878L1436.87 810.29ZM1477.14 834.52L1516.17 811.932V857.108L1477.14 879.696V834.52ZM1509.18 804.129L1477.14 785.648V740.473L1516.17 763.06V808.236L1509.18 804.129ZM1478.37 738.83L1517.4 716.242L1556.43 738.83L1517.4 761.418L1478.37 738.83ZM1557.66 740.473V785.648L1518.63 808.236V763.06L1557.66 740.473ZM1518.22 811.932L1557.25 834.52V879.696L1553.96 877.643L1518.22 856.698V811.932ZM1519.45 810.29L1558.48 787.702L1595.46 809.058L1597.92 810.29L1558.89 832.878L1519.45 810.29ZM1559.72 834.52L1598.75 811.932V857.108L1559.72 879.696V834.52ZM1591.76 804.129L1559.72 785.648V740.473L1598.75 763.06V808.236L1591.76 804.129ZM1560.54 738.83L1599.57 716.242L1638.6 738.83L1599.57 761.418L1560.54 738.83ZM1640.24 740.473V785.648L1601.21 808.236V763.06L1640.24 740.473ZM1600.8 811.932L1639.83 834.52V879.696L1636.54 877.643L1600.39 856.698V811.932H1600.8ZM1602.03 810.29L1641.06 787.702L1678.04 809.058L1680.5 810.29L1641.47 832.878L1602.03 810.29ZM1642.29 834.52L1681.33 811.932V857.108L1642.29 879.696V834.52ZM1674.34 804.129L1642.29 785.648V740.473L1681.33 763.06V808.236L1674.34 804.129ZM1643.12 738.83L1682.15 716.242L1721.18 738.83L1682.15 761.418L1643.12 738.83ZM1722.41 740.473V785.648L1683.38 808.236V763.06L1722.41 740.473ZM1683.38 811.932L1722.41 834.52V879.696L1719.12 877.643L1683.38 856.698V811.932ZM1684.2 810.29L1723.23 787.702L1760.21 809.058L1762.67 810.29L1723.64 832.878L1684.2 810.29ZM1724.46 834.52L1763.49 811.932V857.108L1724.46 879.696V834.52ZM1756.51 804.129L1724.46 785.648V740.473L1763.49 763.06V808.236L1756.51 804.129ZM1725.7 738.83L1764.73 716.242L1803.76 738.83L1764.73 761.418L1725.7 738.83ZM1804.99 740.473V785.648L1765.96 808.236V763.06L1804.99 740.473ZM1765.96 811.932L1804.99 834.52V879.696L1801.7 877.643L1765.96 856.698V811.932ZM1766.78 810.29L1805.81 787.702L1842.79 809.058L1845.25 810.29L1806.22 832.878L1766.78 810.29ZM1807.04 834.52L1846.07 811.932V857.108L1807.04 879.696V834.52ZM1839.09 804.129L1807.04 785.648V740.473L1846.07 763.06V808.236L1839.09 804.129ZM1807.86 738.83L1846.9 716.242L1885.93 738.83L1846.9 761.418L1807.86 738.83ZM1887.57 740.473V785.648L1848.54 808.236V763.06L1887.57 740.473ZM1848.13 811.932L1887.16 834.52V879.696L1883.87 877.643L1847.72 856.698V811.932H1848.13ZM1849.36 810.29L1888.39 787.702L1925.37 809.058L1927.83 810.29L1888.8 832.878L1849.36 810.29ZM1889.62 834.52L1928.65 811.932V857.108L1889.62 879.696V834.52ZM1921.67 804.129L1889.62 785.648V740.473L1928.65 763.06V808.236L1921.67 804.129ZM1890.44 738.83L1929.47 716.242L1968.5 738.83L1929.47 761.418L1890.44 738.83ZM1897.43 600.017L1890.44 595.91L1929.47 573.322L1968.5 595.91L1929.47 618.498L1897.43 600.017ZM1890.44 453.401L1929.47 430.813L1968.5 453.401L1929.47 475.989L1890.44 453.401ZM1890.44 310.481L1929.47 287.893L1968.5 310.481L1929.47 333.069L1890.44 310.481ZM1889.62 308.838V263.662L1928.65 241.075V286.25L1889.62 308.838ZM1890.44 167.561L1929.47 144.973L1968.5 167.561L1929.47 190.149L1890.44 167.561ZM1928.65 143.331L1889.62 165.918V120.743L1928.65 98.1547V143.331ZM1928.65 192.203V237.378L1926.19 236.146L1889.21 214.79V169.615L1928.65 192.203ZM1925.37 237.789L1927.83 239.021L1888.8 261.609L1849.77 239.021L1888.8 216.433L1925.37 237.789ZM1848.13 237.378V192.203L1887.16 169.615V214.79L1848.13 237.378ZM1887.57 165.918L1848.54 143.331V98.1547L1855.52 102.262L1887.57 120.743V165.918ZM1886.34 167.561L1847.31 190.149L1808.28 167.561L1847.31 144.973L1886.34 167.561ZM1846.07 143.331L1807.04 165.918V120.743L1846.07 98.1547V143.331ZM1846.07 192.203V237.378L1843.61 236.146L1806.63 214.79V169.615L1846.07 192.203ZM1842.79 237.789L1845.25 239.021L1806.22 261.609L1767.19 239.021L1806.22 216.433L1842.79 237.789ZM1765.96 237.378V192.203L1804.99 169.615V214.79L1765.96 237.378ZM1804.99 165.918L1765.96 143.331V98.1547L1772.94 102.262L1804.99 120.743V165.918ZM1803.76 167.561L1764.73 190.149L1725.7 167.561L1764.73 144.973L1803.76 167.561ZM1763.9 143.331L1724.87 165.918V120.743L1763.9 98.1547V143.331ZM1763.9 192.203V237.378L1761.44 236.146L1724.46 214.79V169.615L1763.9 192.203ZM1760.21 237.789L1762.67 239.021L1723.64 261.609L1684.61 239.021L1723.64 216.433L1760.21 237.789ZM1683.38 237.378V192.203L1722.41 169.615V214.79L1683.38 237.378ZM1722.41 165.918L1683.38 143.331V98.1547L1690.36 102.262L1722.41 120.743V165.918ZM1721.59 167.561L1682.56 190.149L1643.53 167.561L1682.56 144.973L1721.59 167.561ZM1681.33 143.331L1642.29 165.918V120.743L1681.33 98.1547V143.331ZM1681.33 192.203V237.378L1678.86 236.146L1641.88 214.79V169.615L1681.33 192.203ZM1678.04 237.789L1680.5 239.021L1641.47 261.609L1602.44 239.021L1641.47 216.433L1678.04 237.789ZM1600.8 237.378V192.203L1639.83 169.615V214.79L1600.8 237.378ZM1640.24 165.918L1601.21 143.331V98.1547L1608.19 102.262L1640.24 120.743V165.918ZM1639.01 167.561L1599.98 190.149L1560.95 167.561L1599.98 144.973L1639.01 167.561ZM1598.75 143.331L1559.72 165.918V120.743L1598.75 98.1547V143.331ZM1598.75 192.203V237.378L1596.28 236.146L1559.3 214.79V169.615L1598.75 192.203ZM1595.46 237.789L1597.92 239.021L1558.89 261.609L1519.86 239.021L1558.89 216.433L1595.46 237.789ZM1518.22 237.378V192.203L1557.25 169.615V214.79L1518.22 237.378ZM1557.66 165.918L1518.63 143.331V98.1547L1525.62 102.262L1557.66 120.743V165.918ZM1556.43 167.561L1517.4 190.149L1478.37 167.561L1517.4 144.973L1556.43 167.561ZM1516.17 143.331L1477.14 165.918V120.743L1516.17 98.1547V143.331ZM1516.17 192.203V237.378L1513.7 236.146L1476.72 214.79V169.615L1516.17 192.203ZM1512.88 237.789L1515.34 239.021L1476.31 261.609L1437.28 239.021L1476.31 216.433L1512.88 237.789ZM1436.05 237.378V192.203L1475.08 169.615V214.79L1436.05 237.378ZM1475.08 165.918L1436.05 143.331V98.1547L1443.04 102.262L1475.08 120.743V165.918ZM1474.26 167.561L1435.23 190.149L1396.2 167.561L1435.23 144.973L1474.26 167.561ZM1434 143.331L1394.97 165.918V120.743L1434 98.1547V143.331ZM1434 192.203V237.378L1431.53 236.146L1394.56 214.79V169.615L1434 192.203ZM1430.71 237.789L1433.18 239.021L1394.15 261.609L1355.12 239.021L1394.15 216.433L1430.71 237.789ZM1353.47 237.378V192.203L1392.5 169.615V214.79L1353.47 237.378ZM1392.5 165.918L1353.47 143.331V98.1547L1360.46 102.262L1392.5 120.743V165.918ZM1391.68 167.561L1352.65 190.149L1313.62 167.561L1352.65 144.973L1391.68 167.561ZM1351.42 143.331L1312.39 165.918V120.743L1351.42 98.1547V143.331ZM1351.42 192.203V237.378L1348.95 236.146L1311.98 214.79V169.615L1351.42 192.203ZM1348.13 237.789L1350.6 239.021L1311.57 261.609L1272.54 239.021L1311.57 216.433L1348.13 237.789ZM1270.89 237.378V192.203L1309.92 169.615V214.79L1270.89 237.378ZM1310.33 165.918L1271.3 143.331V98.1547L1278.29 102.262L1310.33 120.743V165.918ZM1309.1 167.561L1270.07 190.149L1231.04 167.561L1270.07 144.973L1309.1 167.561ZM1268.84 143.331L1229.81 165.918V120.743L1268.84 98.1547V143.331ZM1268.84 192.203V237.378L1266.37 236.146L1229.4 214.79V169.615L1268.84 192.203ZM1265.55 237.789L1268.02 239.021L1228.99 261.609L1189.96 239.021L1228.99 216.433L1265.55 237.789ZM1188.72 237.378V192.203L1227.75 169.615V214.79L1188.72 237.378ZM1227.75 165.918L1188.72 143.331V98.1547L1195.71 102.262L1227.75 120.743V165.918ZM1226.93 167.561L1187.9 190.149L1148.87 167.561L1187.9 144.973L1226.93 167.561ZM1186.67 143.331L1147.64 165.918V120.743L1186.67 98.1547V143.331ZM1186.67 192.203V237.378L1184.2 236.146L1147.23 214.79V169.615L1186.67 192.203ZM1183.38 237.789L1185.85 239.021L1146.82 261.609L1107.79 239.021L1146.82 216.433L1183.38 237.789ZM1106.14 237.378V192.203L1145.17 169.615V214.79L1106.14 237.378ZM1145.17 165.918L1106.14 143.331V98.1547L1113.13 102.262L1145.17 120.743V165.918ZM1144.35 167.561L1105.32 190.149L1066.29 167.561L1105.32 144.973L1144.35 167.561ZM1104.09 143.331L1065.06 165.918V120.743L1104.09 98.1547V143.331ZM1104.09 192.203V237.378L1101.62 236.146L1064.65 214.79V169.615L1104.09 192.203ZM1100.8 237.789L1103.27 239.021L1064.24 261.609L1025.21 239.021L1064.24 216.433L1100.8 237.789ZM1023.56 237.378V192.203L1062.59 169.615V214.79L1023.56 237.378ZM1063.01 165.918L1023.98 143.331V98.1547L1030.96 102.262L1063.01 120.743V165.918ZM1061.77 167.561L1022.74 190.149L983.713 167.561L1022.74 144.973L1061.77 167.561ZM1021.51 143.331L982.48 165.918V120.743L1021.51 98.1547V143.331ZM1021.51 192.203V237.378L1019.05 236.146L982.069 214.79V169.615L1021.51 192.203ZM1018.22 237.789L1020.69 239.021L981.658 261.609L942.628 239.021L981.658 216.433L1018.22 237.789ZM941.396 237.378V192.203L980.426 169.615V214.79L941.396 237.378ZM980.426 165.918L941.396 143.331V98.1547L948.38 102.262L980.426 120.743V165.918ZM979.604 167.561L940.574 190.149L901.544 167.561L940.574 144.973L979.604 167.561ZM939.342 143.331L900.311 165.918V120.743L939.342 98.1547V143.331ZM939.342 192.203V237.378L936.876 236.146L899.901 214.79V169.615L939.342 192.203ZM936.055 237.789L938.52 239.021L899.49 261.609L860.46 239.021L899.49 216.433L936.055 237.789ZM858.816 237.378V192.203L897.846 169.615V214.79L858.816 237.378ZM897.846 165.918L858.816 143.331V98.1547L865.801 102.262L897.846 120.743V165.918ZM897.025 167.561L857.995 190.149L818.964 167.561L857.995 144.973L897.025 167.561ZM856.762 143.331L817.732 165.918V120.743L856.762 98.1547V143.331ZM856.762 192.203V237.378L854.297 236.146L817.321 214.79V169.615L856.762 192.203ZM853.475 237.789L855.94 239.021L816.91 261.609L777.88 239.021L816.91 216.433L853.475 237.789ZM776.237 237.378V192.203L815.267 169.615V214.79L776.237 237.378ZM815.678 165.918L776.647 143.331V98.1547L783.632 102.262L815.678 120.743V165.918ZM814.445 167.561L775.415 190.149L736.385 167.561L775.415 144.973L814.445 167.561ZM774.182 143.331L735.152 165.918V120.743L774.182 98.1547V143.331ZM774.182 192.203V237.378L771.717 236.146L734.741 214.79V169.615L774.182 192.203ZM770.896 237.789L773.361 239.021L734.331 261.609L695.3 239.021L734.331 216.433L770.896 237.789ZM694.068 237.378V192.203L733.098 169.615V214.79L694.068 237.378ZM733.098 165.918L694.068 143.331V98.1547L701.052 102.262L733.098 120.743V165.918ZM732.276 167.561L693.246 190.149L654.216 167.561L693.246 144.973L732.276 167.561ZM692.014 143.331L652.984 165.918V120.743L692.014 98.1547V143.331ZM692.014 192.203V237.378L689.549 236.146L652.573 214.79V169.615L692.014 192.203ZM688.316 237.789L690.781 239.021L651.751 261.609L612.721 239.021L651.751 216.433L688.316 237.789ZM611.488 237.378V192.203L650.518 169.615V214.79L611.488 237.378ZM650.518 165.918L611.488 143.331V98.1547L618.473 102.262L650.518 120.743V165.918ZM649.697 167.561L610.667 190.149L571.637 167.561L610.667 144.973L649.697 167.561ZM609.434 143.331L570.404 165.918V120.743L609.434 98.1547V143.331ZM609.434 192.203V237.378L606.969 236.146L569.993 214.79V169.615L609.434 192.203ZM606.147 237.789L608.612 239.021L569.582 261.609L530.552 239.021L569.582 216.433L606.147 237.789ZM528.909 237.378V192.203L567.939 169.615V214.79L528.909 237.378ZM568.35 165.918L529.32 143.331V98.1547L536.304 102.262L568.35 120.743V165.918ZM567.117 167.561L528.087 190.149L489.057 167.561L528.087 144.973L567.117 167.561ZM526.855 143.331L487.824 165.918V120.743L526.855 98.1547V143.331ZM526.855 192.203V237.378L524.39 236.146L487.414 214.79V169.615L526.855 192.203ZM523.568 237.789L526.033 239.021L487.003 261.609L447.973 239.021L487.003 216.433L523.568 237.789ZM446.74 237.378V192.203L485.77 169.615V214.79L446.74 237.378ZM485.77 165.918L446.74 143.331V98.1547L453.724 102.262L485.77 120.743V165.918ZM484.538 167.561L445.508 190.149L406.477 167.561L445.508 144.973L484.538 167.561ZM444.686 143.331L405.656 165.918V120.743L444.686 98.1547V143.331ZM444.686 192.203V237.378L442.221 236.146L405.245 214.79V169.615L444.686 192.203ZM440.988 237.789L443.453 239.021L404.423 261.609L365.393 239.021L404.423 216.433L440.988 237.789ZM364.161 237.378V192.203L403.191 169.615V214.79L364.161 237.378ZM403.191 165.918L364.161 143.331V98.1547L371.145 102.262L403.191 120.743V165.918ZM402.369 167.561L363.339 190.149L324.309 167.561L363.339 144.973L402.369 167.561ZM362.106 143.331L323.076 165.918V120.743L362.106 98.1547V143.331ZM362.106 192.203V237.378L359.641 236.146L322.665 214.79V169.615L362.106 192.203ZM358.82 237.789L361.285 239.021L322.254 261.609L283.224 239.021L322.254 216.433L358.82 237.789ZM281.581 237.378V192.203L320.611 169.615V214.79L281.581 237.378ZM321.022 165.918L281.992 143.331V98.1547L288.976 102.262L321.022 120.743V165.918ZM319.789 167.561L280.759 190.149L241.729 167.561L280.759 144.973L319.789 167.561ZM279.527 143.331L240.497 165.918V120.743L279.527 98.1547V143.331ZM279.527 192.203V237.378L277.062 236.146L240.086 214.79V169.615L279.527 192.203ZM276.24 237.789L278.705 239.021L239.675 261.609L200.645 239.021L239.675 216.433L276.24 237.789ZM199.412 237.378V192.203L238.442 169.615V214.79L199.412 237.378ZM238.442 165.918L199.412 143.331V98.1547L206.397 102.262L238.442 120.743V165.918ZM237.21 167.561L198.18 190.149L159.15 167.561L198.18 144.973L237.21 167.561ZM197.358 143.331L158.328 165.918V120.743L197.358 98.1547V143.331ZM197.358 192.203V237.378L194.893 236.146L157.917 214.79V169.615L197.358 192.203ZM193.66 237.789L196.125 239.021L157.095 261.609L118.065 239.021L157.095 216.433L193.66 237.789ZM116.833 237.378V192.203L155.863 169.615V214.79L116.833 237.378ZM155.863 165.918L116.833 143.331V98.1547L123.817 102.262L155.863 120.743V165.918ZM155.041 167.561L116.011 190.149L76.9808 167.561L116.011 144.973L155.041 167.561ZM114.778 143.331L75.7483 165.918V120.743L114.778 98.1547V143.331ZM114.778 192.203V237.378L112.313 236.146L75.3374 214.79V169.615L114.778 192.203ZM111.492 237.789L113.957 239.021L74.9266 261.609L35.8965 239.021L74.9266 216.433L111.492 237.789ZM34.2531 237.378V192.203L73.2832 169.615V214.79L34.2531 237.378ZM73.6941 165.918L34.2531 143.331V98.1547L41.2374 102.262L73.2832 120.743V165.918H73.6941ZM72.4615 167.561L33.4314 190.149L-5.59875 167.561L33.4314 144.973L72.4615 167.561ZM32.1989 143.331L-6.83128 165.918V120.743L32.1989 98.1547V143.331ZM32.1989 192.203V237.378L30.1446 236.146L-6.83128 214.79V169.615L32.1989 192.203ZM28.9121 237.789L31.3772 239.021L-7.65297 261.609L-46.6831 239.021L-7.65297 216.433L28.9121 237.789ZM-8.8855 214.79L-47.9156 237.378V192.203L-8.8855 169.615V214.79ZM-8.8855 263.662V308.838L-15.8698 304.731L-47.9156 286.25V241.075L-8.8855 263.662ZM-8.8855 357.3L-47.9156 379.887V334.712L-8.8855 312.124V357.3ZM-8.8855 406.172V451.347L-47.9156 428.759V383.584L-8.8855 406.172ZM-8.8855 500.219L-47.9156 522.807V477.632L-8.8855 455.044V500.219ZM-8.8855 549.091V594.267L-47.9156 571.679V526.503L-8.8855 549.091ZM-8.8855 643.139L-47.9156 665.727V620.551L-8.8855 597.963V643.139ZM-8.8855 691.601V736.776L-47.9156 714.188V669.013L-8.8855 691.601ZM-8.8855 785.648L-47.9156 808.236V763.06L-8.8855 740.473V785.648ZM-8.8855 834.52V879.696L-12.1722 877.643L-47.9156 856.698V811.522L-8.8855 834.52ZM-8.0638 1073.13L30.9663 1095.72L-8.0638 1118.31L-47.094 1095.72L-8.0638 1073.13ZM-47.9156 1093.67V1048.49L-8.8855 1025.9V1071.08L-47.9156 1093.67ZM-47.9156 1000.03V954.852L-8.8855 977.44V1022.62L-47.9156 1000.03ZM-47.094 952.799L-8.0638 930.211L28.0904 951.156L31.3772 953.21L-7.65297 975.797L-47.094 952.799ZM-47.9156 951.156V905.98L-8.8855 883.392V928.568L-47.9156 951.156ZM-6.83128 977.44L32.1989 954.852V1000.03L-6.83128 1022.62V977.44ZM28.9121 949.103L-7.24213 928.158V882.982L31.788 905.57V950.745L28.9121 949.103ZM-6.00959 881.339L33.0206 858.751L69.1748 879.696L72.4615 881.75L33.4314 904.338L-6.00959 881.339ZM73.6941 883.392V928.568L34.6639 951.156V905.98L73.6941 883.392ZM34.2531 954.852L73.2832 977.44V1022.62L34.2531 1000.03V954.852ZM74.5157 1073.13L113.546 1095.72L74.5157 1118.31L35.4856 1095.72L74.5157 1073.13ZM34.2531 1093.67V1048.49L73.2832 1025.9V1071.08L34.2531 1093.67ZM35.4856 952.799L74.5157 930.211L110.259 951.156L113.546 953.21L74.5157 975.797L35.4856 952.799ZM75.7483 977.44L114.778 954.852V1000.03L75.7483 1022.62V977.44ZM111.492 949.103L75.7483 928.158V882.982L114.778 905.57V950.745L111.492 949.103ZM76.57 881.339L115.6 858.751L151.344 879.696L154.63 881.75L115.6 904.338L76.57 881.339ZM155.863 883.392V928.568L116.833 951.156V905.98L155.863 883.392ZM116.833 954.852L155.863 977.44V1022.62L116.833 1000.03V954.852ZM157.095 1073.13L196.125 1095.72L157.095 1118.31L118.065 1095.72L157.095 1073.13ZM116.833 1093.67V1048.49L155.863 1025.9V1071.08L116.833 1093.67ZM117.654 952.799L156.684 930.211L192.428 951.156L195.715 953.21L156.684 975.797L117.654 952.799ZM157.917 977.44L196.947 954.852V1000.03L157.917 1022.62V977.44ZM194.071 949.103L158.328 928.158V882.982L197.358 905.57V950.745L194.071 949.103ZM159.15 881.339L198.18 858.751L234.334 879.696L237.621 881.75L198.591 904.338L159.15 881.339ZM238.442 883.392V928.568L199.412 951.156V905.98L238.442 883.392ZM199.412 954.852L238.442 977.44V1022.62L199.412 1000.03V954.852ZM239.264 1073.13L278.294 1095.72L239.264 1118.31L200.234 1095.72L239.264 1073.13ZM199.412 1093.67V1048.49L238.442 1025.9V1071.08L199.412 1093.67ZM200.234 952.799L239.264 930.211L275.418 951.156L278.705 953.21L239.675 975.797L200.234 952.799ZM240.497 977.44L279.527 954.852V1000.03L240.497 1022.62V977.44ZM276.24 949.103L240.086 928.158V882.982L279.116 905.57V950.745L276.24 949.103ZM241.318 881.339L280.348 858.751L316.092 879.696L319.379 881.75L280.348 904.338L241.318 881.339ZM321.022 883.392V928.568L281.992 951.156V905.98L321.022 883.392ZM281.581 954.852L320.611 977.44V1022.62L281.581 1000.03V954.852ZM321.844 1073.13L360.874 1095.72L321.844 1118.31L282.813 1095.72L321.844 1073.13ZM281.581 1093.67V1048.49L320.611 1025.9V1071.08L281.581 1093.67ZM282.813 952.799L321.844 930.211L357.587 951.156L360.874 953.21L321.844 975.797L282.813 952.799ZM323.076 977.44L362.106 954.852V1000.03L323.076 1022.62V977.44ZM358.82 949.103L323.076 928.158V882.982L362.106 905.57V950.745L358.82 949.103ZM323.898 881.339L362.928 858.751L398.671 879.696L401.958 881.75L362.928 904.338L323.898 881.339ZM403.191 883.392V928.568L364.161 951.156V905.98L403.191 883.392ZM364.161 954.852L403.191 977.44V1022.62L364.161 1000.03V954.852ZM404.423 1073.13L443.453 1095.72L404.423 1118.31L365.393 1095.72L404.423 1073.13ZM364.161 1093.67V1048.49L403.191 1025.9V1071.08L364.161 1093.67ZM364.982 952.799L404.012 930.211L440.167 951.156L443.453 953.21L404.423 975.797L364.982 952.799ZM405.245 977.44L444.275 954.852V1000.03L405.245 1022.62V977.44ZM441.399 949.103L405.245 928.158V882.982L444.275 905.57V950.745L441.399 949.103ZM406.477 881.339L445.508 858.751L481.662 879.696L484.948 881.75L445.918 904.338L406.477 881.339ZM485.77 883.392V928.568L446.74 951.156V905.98L485.77 883.392ZM446.74 954.852L485.77 977.44V1022.62L446.74 1000.03V954.852ZM486.592 1073.13L525.622 1095.72L486.592 1118.31L447.562 1095.72L486.592 1073.13ZM446.74 1093.67V1048.49L485.77 1025.9V1071.08L446.74 1093.67ZM447.562 952.799L486.592 930.211L522.335 951.156L525.622 953.21L486.592 975.797L447.562 952.799ZM487.824 977.44L526.855 954.852V1000.03L487.824 1022.62V977.44ZM523.568 949.103L487.824 928.158V882.982L526.855 905.57V950.745L523.568 949.103ZM488.646 881.339L527.676 858.751L563.42 879.696L566.706 881.75L527.676 904.338L488.646 881.339ZM568.35 883.392V928.568L529.32 951.156V905.98L568.35 883.392ZM528.909 954.852L567.939 977.44V1022.62L528.909 1000.03V954.852ZM569.171 1073.13L608.202 1095.72L569.171 1118.31L530.141 1095.72L569.171 1073.13ZM528.909 1093.67V1048.49L567.939 1025.9V1071.08L528.909 1093.67ZM530.141 952.799L569.171 930.211L604.915 951.156L608.202 953.21L569.171 975.797L530.141 952.799ZM570.404 977.44L609.434 954.852V1000.03L570.404 1022.62V977.44ZM606.147 949.103L570.404 928.158V882.982L609.434 905.57V950.745L606.147 949.103ZM571.226 881.339L610.256 858.751L646.41 879.696L649.697 881.75L610.667 904.338L571.226 881.339ZM650.518 883.392V928.568L611.488 951.156V905.98L650.518 883.392ZM611.488 954.852L650.518 977.44V1022.62L611.488 1000.03V954.852ZM651.751 1073.13L690.781 1095.72L651.751 1118.31L612.721 1095.72L651.751 1073.13ZM611.488 1093.67V1048.49L650.518 1025.9V1071.08L611.488 1093.67ZM612.31 952.799L651.34 930.211L687.494 951.156L690.781 953.21L651.751 975.797L612.31 952.799ZM652.573 977.44L691.603 954.852V1000.03L652.573 1022.62V977.44ZM688.727 949.103L652.573 928.158V882.982L691.603 905.57V950.745L688.727 949.103ZM653.805 881.339L692.835 858.751L728.579 879.696L731.866 881.75L692.835 904.338L653.805 881.339ZM733.098 883.392V928.568L694.068 951.156V905.98L733.098 883.392ZM694.068 954.852L733.098 977.44V1022.62L694.068 1000.03V954.852ZM733.92 1073.13L772.95 1095.72L733.92 1118.31L694.89 1095.72L733.92 1073.13ZM694.068 1093.67V1048.49L733.098 1025.9V1071.08L694.068 1093.67ZM694.89 952.799L733.92 930.211L769.663 951.156L772.95 953.21L733.92 975.797L694.89 952.799ZM735.152 977.44L774.182 954.852V1000.03L735.152 1022.62V977.44ZM770.896 949.103L735.152 928.158V882.982L774.182 905.57V950.745L770.896 949.103ZM736.385 881.339L775.415 858.751L811.158 879.696L814.445 881.75L775.415 904.338L736.385 881.339ZM815.678 883.392V928.568L776.647 951.156V905.98L815.678 883.392ZM776.237 954.852L815.267 977.44V1022.62L776.237 1000.03V954.852ZM816.499 1073.13L855.529 1095.72L816.499 1118.31L777.469 1095.72L816.499 1073.13ZM776.237 1093.67V1048.49L815.267 1025.9V1071.08L776.237 1093.67ZM777.469 952.799L816.499 930.211L852.654 951.156L855.94 953.21L816.91 975.797L777.469 952.799ZM817.732 977.44L856.762 954.852V1000.03L817.732 1022.62V977.44ZM853.475 949.103L817.321 928.158V882.982L856.351 905.57V950.745L853.475 949.103ZM818.554 881.339L857.584 858.751L893.738 879.696L897.025 881.75L857.995 904.338L818.554 881.339ZM897.846 883.392V928.568L858.816 951.156V905.98L897.846 883.392ZM858.816 954.852L897.846 977.44V1022.62L858.816 1000.03V954.852ZM899.079 1073.13L938.109 1095.72L899.079 1118.31L860.049 1095.72L899.079 1073.13ZM858.816 1093.67V1048.49L897.846 1025.9V1071.08L858.816 1093.67ZM860.049 952.799L899.079 930.211L934.822 951.156L938.109 953.21L899.079 975.797L860.049 952.799ZM899.901 977.44L938.931 954.852V1000.03L899.901 1022.62V977.44ZM936.055 949.103L900.311 928.158V882.982L939.342 905.57V950.745L936.055 949.103ZM901.133 881.339L940.163 858.751L975.907 879.696L979.193 881.75L940.163 904.338L901.133 881.339ZM980.426 883.392V928.568L941.396 951.156V905.98L980.426 883.392ZM941.396 954.852L980.426 977.44V1022.62L941.396 1000.03V954.852ZM981.658 1073.13L1020.69 1095.72L981.658 1118.31L942.628 1095.72L981.658 1073.13ZM941.396 1093.67V1048.49L980.426 1025.9V1071.08L941.396 1093.67ZM942.217 952.799L981.248 930.211L1016.99 951.156L1020.28 953.21L981.248 975.797L942.217 952.799ZM982.48 977.44L1021.51 954.852V1000.03L982.48 1022.62V977.44ZM1018.63 949.103L982.891 928.158V882.982L1021.92 905.57V950.745L1018.63 949.103ZM983.713 881.339L1022.74 858.751L1058.9 879.696L1062.18 881.75L1023.15 904.338L983.713 881.339ZM1063.01 883.392V928.568L1023.98 951.156V905.98L1063.01 883.392ZM1023.56 954.852L1062.59 977.44V1022.62L1023.56 1000.03V954.852ZM1063.83 1073.13L1102.86 1095.72L1063.83 1118.31L1024.8 1095.72L1063.83 1073.13ZM1023.56 1093.67V1048.49L1062.59 1025.9V1071.08L1023.56 1093.67ZM1024.8 952.799L1063.83 930.211L1099.98 951.156L1103.27 953.21L1064.24 975.797L1024.8 952.799ZM1065.06 977.44L1104.09 954.852V1000.03L1065.06 1022.62V977.44ZM1100.8 949.103L1064.65 928.158V882.982L1103.68 905.57V950.745L1100.8 949.103ZM1065.88 881.339L1104.91 858.751L1140.65 879.696L1143.94 881.75L1104.91 904.338L1065.88 881.339ZM1145.17 883.392V928.568L1106.14 951.156V905.98L1145.17 883.392ZM1106.14 954.852L1145.17 977.44V1022.62L1106.14 1000.03V954.852ZM1146.41 1073.13L1185.44 1095.72L1146.41 1118.31L1107.38 1095.72L1146.41 1073.13ZM1106.14 1093.67V1048.49L1145.17 1025.9V1071.08L1106.14 1093.67ZM1107.38 952.799L1146.41 930.211L1182.15 951.156L1185.44 953.21L1146.41 975.797L1107.38 952.799ZM1147.23 977.44L1186.26 954.852V1000.03L1147.23 1022.62V977.44ZM1183.38 949.103L1147.64 928.158V882.982L1186.67 905.57V950.745L1183.38 949.103ZM1148.46 881.339L1187.49 858.751L1223.23 879.696L1226.52 881.75L1187.49 904.338L1148.46 881.339ZM1227.75 883.392V928.568L1188.72 951.156V905.98L1227.75 883.392ZM1188.72 954.852L1227.75 977.44V1022.62L1188.72 1000.03V954.852ZM1228.99 1073.13L1268.02 1095.72L1228.99 1118.31L1189.96 1095.72L1228.99 1073.13ZM1188.72 1093.67V1048.49L1227.75 1025.9V1071.08L1188.72 1093.67ZM1189.55 952.799L1228.58 930.211L1264.73 951.156L1268.02 953.21L1228.99 975.797L1189.55 952.799ZM1229.81 977.44L1268.84 954.852V1000.03L1229.81 1022.62V977.44ZM1265.96 949.103L1229.81 928.158V882.982L1268.84 905.57V950.745L1265.96 949.103ZM1231.04 881.339L1270.07 858.751L1306.22 879.696L1309.51 881.75L1270.48 904.338L1231.04 881.339ZM1310.33 883.392V928.568L1271.3 951.156V905.98L1310.33 883.392ZM1270.89 954.852L1309.92 977.44V1022.62L1270.89 1000.03V954.852ZM1311.16 1073.13L1350.19 1095.72L1311.16 1118.31L1272.12 1095.72L1311.16 1073.13ZM1270.89 1093.67V1048.49L1309.92 1025.9V1071.08L1270.89 1093.67ZM1272.12 952.799L1311.16 930.211L1346.9 951.156L1350.19 953.21L1311.16 975.797L1272.12 952.799ZM1312.39 977.44L1351.42 954.852V1000.03L1312.39 1022.62V977.44ZM1348.13 949.103L1312.39 928.158V882.982L1351.42 905.57V950.745L1348.13 949.103ZM1313.21 881.339L1352.24 858.751L1387.98 879.696L1391.27 881.75L1352.24 904.338L1313.21 881.339ZM1392.5 883.392V928.568L1353.47 951.156V905.98L1392.5 883.392ZM1353.47 954.852L1392.5 977.44V1022.62L1353.47 1000.03V954.852ZM1393.73 1073.13L1432.76 1095.72L1393.73 1118.31L1354.7 1095.72L1393.73 1073.13ZM1353.47 1093.67V1048.49L1392.5 1025.9V1071.08L1353.47 1093.67ZM1354.7 952.799L1393.73 930.211L1429.89 951.156L1433.18 953.21L1394.15 975.797L1354.7 952.799ZM1394.56 977.44L1433.59 954.852V1000.03L1394.56 1022.62V977.44ZM1430.71 949.103L1394.56 928.158V882.982L1433.59 905.57V950.745L1430.71 949.103ZM1395.79 881.339L1434.82 858.751L1470.97 879.696L1474.26 881.75L1435.23 904.338L1395.79 881.339ZM1475.08 883.392V928.568L1436.05 951.156V905.98L1475.08 883.392ZM1436.05 954.852L1475.08 977.44V1022.62L1436.05 1000.03V954.852ZM1476.31 1073.13L1515.34 1095.72L1476.31 1118.31L1437.28 1095.72L1476.31 1073.13ZM1436.05 1093.67V1048.49L1475.08 1025.9V1071.08L1436.05 1093.67ZM1436.87 952.799L1475.9 930.211L1511.65 951.156L1514.93 953.21L1475.9 975.797L1436.87 952.799ZM1477.14 977.44L1516.17 954.852V1000.03L1477.14 1022.62V977.44ZM1513.29 949.103L1477.55 928.158V882.982L1516.58 905.57V950.745L1513.29 949.103ZM1478.37 881.339L1517.4 858.751L1553.14 879.696L1556.43 881.75L1517.4 904.338L1478.37 881.339ZM1557.66 883.392V928.568L1518.63 951.156V905.98L1557.66 883.392ZM1518.22 954.852L1557.25 977.44V1022.62L1518.22 1000.03V954.852ZM1558.48 1073.13L1597.51 1095.72L1558.48 1118.31L1519.45 1095.72L1558.48 1073.13ZM1518.22 1093.67V1048.49L1557.25 1025.9V1071.08L1518.22 1093.67ZM1519.45 952.799L1558.48 930.211L1594.23 951.156L1597.51 953.21L1558.48 975.797L1519.45 952.799ZM1559.72 977.44L1598.75 954.852V1000.03L1559.72 1022.62V977.44ZM1595.46 949.103L1559.72 928.158V882.982L1598.75 905.57V950.745L1595.46 949.103ZM1560.54 881.339L1599.57 858.751L1635.72 879.696L1639.01 881.75L1599.98 904.338L1560.54 881.339ZM1640.24 883.392V928.568L1601.21 951.156V905.98L1640.24 883.392ZM1600.8 954.852L1639.83 977.44V1022.62L1600.8 1000.03V954.852ZM1641.06 1073.13L1680.09 1095.72L1641.06 1118.31L1602.03 1095.72L1641.06 1073.13ZM1600.8 1093.67V1048.49L1639.83 1025.9V1071.08L1600.8 1093.67ZM1602.03 952.799L1641.06 930.211L1677.22 951.156L1680.5 953.21L1641.47 975.797L1602.03 952.799ZM1642.29 977.44L1681.33 954.852V1000.03L1642.29 1022.62V977.44ZM1678.04 949.103L1641.88 928.158V882.982L1680.91 905.57V950.745L1678.04 949.103ZM1643.12 881.339L1682.15 858.751L1717.89 879.696L1721.18 881.75L1682.15 904.338L1643.12 881.339ZM1722.41 883.392V928.568L1683.38 951.156V905.98L1722.41 883.392ZM1683.38 954.852L1722.41 977.44V1022.62L1683.38 1000.03V954.852ZM1723.64 1073.13L1762.67 1095.72L1723.64 1118.31L1684.61 1095.72L1723.64 1073.13ZM1683.38 1093.67V1048.49L1722.41 1025.9V1071.08L1683.38 1093.67ZM1684.2 952.799L1723.23 930.211L1758.97 951.156L1762.26 953.21L1723.23 975.797L1684.2 952.799ZM1724.46 977.44L1763.49 954.852V1000.03L1724.46 1022.62V977.44ZM1760.62 949.103L1724.87 928.158V882.982L1763.9 905.57V950.745L1760.62 949.103ZM1725.7 881.339L1764.73 858.751L1800.47 879.696L1803.76 881.75L1764.73 904.338L1725.7 881.339ZM1804.99 883.392V928.568L1765.96 951.156V905.98L1804.99 883.392ZM1765.96 954.852L1804.99 977.44V1022.62L1765.96 1000.03V954.852ZM1805.81 1073.13L1844.84 1095.72L1805.81 1118.31L1766.78 1095.72L1805.81 1073.13ZM1765.96 1093.67V1048.49L1804.99 1025.9V1071.08L1765.96 1093.67ZM1766.78 952.799L1805.81 930.211L1841.96 951.156L1845.25 953.21L1806.22 975.797L1766.78 952.799ZM1807.04 977.44L1846.07 954.852V1000.03L1807.04 1022.62V977.44ZM1842.79 949.103L1806.63 928.158V882.982L1845.66 905.57V950.745L1842.79 949.103ZM1807.86 881.339L1846.9 858.751L1883.05 879.696L1886.34 881.75L1847.31 904.338L1807.86 881.339ZM1887.57 883.392V928.568L1848.54 951.156V905.98L1887.57 883.392ZM1848.13 954.852L1887.16 977.44V1022.62L1848.13 1000.03V954.852ZM1888.39 1073.13L1927.42 1095.72L1888.39 1118.31L1849.36 1095.72L1888.39 1073.13ZM1848.13 1093.67V1048.49L1887.16 1025.9V1071.08L1848.13 1093.67ZM1849.36 952.799L1888.39 930.211L1924.13 951.156L1927.42 953.21L1888.39 975.797L1849.36 952.799ZM1889.62 977.44L1928.65 954.852V1000.03L1889.62 1022.62V977.44ZM1925.37 949.103L1889.62 928.158V882.982L1928.65 905.57V950.745L1925.37 949.103ZM1890.44 881.339L1929.47 858.751L1968.5 881.339L1929.47 903.927L1890.44 881.339ZM1969.74 928.568L1930.71 951.156V905.98L1969.74 883.392V928.568ZM1969.74 834.52V879.696L1930.71 857.108V811.932L1969.74 834.52ZM1969.74 785.648L1930.71 808.236V763.06L1969.74 740.473V785.648ZM1969.74 691.601V736.776L1930.71 714.188V669.013L1969.74 691.601ZM1969.74 643.139L1930.71 665.727V620.551L1969.74 597.963V643.139ZM1969.74 549.091V594.267L1930.71 571.679V526.503L1969.74 549.091ZM1969.74 500.219L1930.71 522.807V477.632L1969.74 455.044V500.219ZM1969.74 406.172V451.347L1930.71 428.759V383.584L1969.74 406.172ZM1969.74 357.3L1930.71 379.887V334.712L1969.74 312.124V357.3ZM1969.74 263.662V308.838L1930.71 286.25V241.075L1969.74 263.662ZM1969.74 214.79L1930.71 237.378V192.203L1969.74 169.615V214.79ZM1937.69 102.262L1969.74 120.743V165.918L1930.71 143.331V98.1547L1937.69 102.262ZM1929.47 2.46414L1969.74 25.4627V71.8706L1930.71 94.4585V48.0506L1890.44 25.052L1929.47 2.46414ZM1889.62 26.6948L1928.65 49.2827V94.4585L1889.62 71.8706V26.6948ZM1888.39 73.924L1927.42 96.512L1888.39 119.1L1856.34 100.619L1849.36 96.512L1888.39 73.924ZM1887.57 71.8706L1848.54 94.4585V49.2827L1887.57 26.6948V71.8706ZM1847.31 2.46414L1886.34 25.052L1847.31 47.6399L1808.28 25.052L1847.31 2.46414ZM1807.04 26.6948L1846.07 49.2827V94.4585L1807.04 71.8706V26.6948ZM1805.81 73.924L1844.84 96.512L1805.81 119.1L1773.76 100.619L1766.78 96.512L1805.81 73.924ZM1804.99 71.8706L1765.96 94.4585V49.2827L1804.99 26.6948V71.8706ZM1764.73 2.46414L1803.76 25.052L1764.73 47.6399L1725.7 25.052L1764.73 2.46414ZM1724.46 26.6948L1763.9 49.2827V94.4585L1724.87 71.8706V26.6948H1724.46ZM1723.64 73.924L1762.67 96.512L1723.64 119.1L1691.6 100.619L1684.61 96.512L1723.64 73.924ZM1722.41 71.8706L1683.38 94.4585V49.2827L1722.41 26.6948V71.8706ZM1682.15 2.46414L1721.18 25.052L1682.15 47.6399L1643.12 25.052L1682.15 2.46414ZM1642.29 26.6948L1681.33 49.2827V94.4585L1642.29 71.8706V26.6948ZM1641.06 73.924L1680.09 96.512L1641.06 119.1L1609.02 100.619L1602.03 96.512L1641.06 73.924ZM1640.24 71.8706L1601.21 94.4585V49.2827L1640.24 26.6948V71.8706ZM1599.98 2.46414L1639.01 25.052L1599.98 47.6399L1560.95 25.052L1599.98 2.46414ZM1559.72 26.6948L1598.75 49.2827V94.4585L1559.72 71.8706V26.6948ZM1558.48 73.924L1597.51 96.512L1558.48 119.1L1526.44 100.619L1519.45 96.512L1558.48 73.924ZM1557.66 71.8706L1518.63 94.4585V49.2827L1557.66 26.6948V71.8706ZM1517.4 2.46414L1556.43 25.052L1517.4 47.6399L1478.37 25.052L1517.4 2.46414ZM1477.14 26.6948L1516.17 49.2827V94.4585L1477.14 71.8706V26.6948ZM1476.31 73.924L1515.34 96.512L1476.31 119.1L1444.27 100.619L1437.28 96.512L1476.31 73.924ZM1475.08 71.8706L1436.05 94.4585V49.2827L1475.08 26.6948V71.8706ZM1434.82 2.46414L1473.85 25.052L1434.82 47.6399L1395.79 25.052L1434.82 2.46414ZM1394.56 26.6948L1433.59 49.2827V94.4585L1394.56 71.8706V26.6948ZM1393.73 73.924L1432.76 96.512L1393.73 119.1L1361.69 100.619L1354.7 96.512L1393.73 73.924ZM1392.5 71.8706L1353.47 94.4585V49.2827L1392.5 26.6948V71.8706ZM1352.65 2.46414L1391.68 25.052L1352.65 47.6399L1313.62 25.052L1352.65 2.46414ZM1312.39 26.6948L1351.42 49.2827V94.4585L1312.39 71.8706V26.6948ZM1311.16 73.924L1350.19 96.512L1311.16 119.1L1279.11 100.619L1272.12 96.512L1311.16 73.924ZM1310.33 71.8706L1270.89 94.4585V49.2827L1309.92 26.6948V71.8706H1310.33ZM1270.07 2.46414L1309.1 25.052L1270.07 47.6399L1231.04 25.052L1270.07 2.46414ZM1229.81 26.6948L1268.84 49.2827V94.4585L1229.81 71.8706V26.6948ZM1228.99 73.924L1268.02 96.512L1228.99 119.1L1196.94 100.619L1189.96 96.512L1228.99 73.924ZM1227.75 71.8706L1188.72 94.4585V49.2827L1227.75 26.6948V71.8706ZM1187.49 2.46414L1226.52 25.052L1187.49 47.6399L1148.46 25.052L1187.49 2.46414ZM1147.23 26.6948L1186.26 49.2827V94.4585L1147.23 71.8706V26.6948ZM1146.41 73.924L1185.44 96.512L1146.41 119.1L1114.36 100.619L1107.38 96.512L1146.41 73.924ZM1145.17 71.8706L1106.14 94.4585V49.2827L1145.17 26.6948V71.8706ZM1105.32 2.46414L1144.35 25.052L1105.32 47.6399L1066.29 25.052L1105.32 2.46414ZM1065.06 26.6948L1104.09 49.2827V94.4585L1065.06 71.8706V26.6948ZM1063.83 73.924L1102.86 96.512L1063.83 119.1L1031.78 100.619L1024.8 96.512L1063.83 73.924ZM1063.01 71.8706L1023.98 94.4585V49.2827L1063.01 26.6948V71.8706ZM1022.74 2.46414L1061.77 25.052L1022.74 47.6399L983.713 25.052L1022.74 2.46414ZM982.48 26.6948L1021.51 49.2827V94.4585L982.48 71.8706V26.6948ZM981.658 73.924L1020.69 96.512L981.658 119.1L949.613 100.619L942.628 96.512L981.658 73.924ZM980.426 71.8706L941.396 94.4585V49.2827L980.426 26.6948V71.8706ZM940.163 2.46414L979.193 25.052L940.163 47.6399L901.133 25.052L940.163 2.46414ZM899.901 26.6948L938.931 49.2827V94.4585L899.901 71.8706V26.6948ZM899.079 73.924L938.109 96.512L899.079 119.1L867.033 100.619L860.049 96.512L899.079 73.924ZM897.846 71.8706L858.816 94.4585V49.2827L897.846 26.6948V71.8706ZM857.995 2.46414L897.025 25.052L857.995 47.6399L818.964 25.052L857.995 2.46414ZM817.732 26.6948L856.762 49.2827V94.4585L817.732 71.8706V26.6948ZM816.499 73.924L855.529 96.512L816.499 119.1L784.454 100.619L777.469 96.512L816.499 73.924ZM815.678 71.8706L776.647 94.4585V49.2827L815.678 26.6948V71.8706ZM775.415 2.46414L814.445 25.052L775.415 47.6399L736.385 25.052L775.415 2.46414ZM735.152 26.6948L774.182 49.2827V94.4585L735.152 71.8706V26.6948ZM733.92 73.924L772.95 96.512L733.92 119.1L701.874 100.619L694.89 96.512L733.92 73.924ZM733.098 71.8706L694.068 94.4585V49.2827L733.098 26.6948V71.8706ZM692.835 2.46414L731.866 25.052L692.835 47.6399L653.805 25.052L692.835 2.46414ZM652.573 26.6948L691.603 49.2827V94.4585L652.573 71.8706V26.6948ZM651.751 73.924L690.781 96.512L651.751 119.1L619.705 100.619L612.721 96.512L651.751 73.924ZM650.518 71.8706L611.488 94.4585V49.2827L650.518 26.6948V71.8706ZM610.256 2.46414L649.286 25.052L610.256 47.6399L571.226 25.052L610.256 2.46414ZM570.404 26.6948L609.434 49.2827V94.4585L570.404 71.8706V26.6948ZM569.171 73.924L608.202 96.512L569.171 119.1L537.126 100.619L530.141 96.512L569.171 73.924ZM568.35 71.8706L529.32 94.4585V49.2827L568.35 26.6948V71.8706ZM528.087 2.46414L567.117 25.052L528.087 47.6399L489.057 25.052L528.087 2.46414ZM487.824 26.6948L526.855 49.2827V94.4585L487.824 71.8706V26.6948ZM486.592 73.924L525.622 96.512L486.592 119.1L454.546 100.619L447.562 96.512L486.592 73.924ZM485.77 71.8706L446.74 94.4585V49.2827L485.77 26.6948V71.8706ZM445.508 2.46414L484.538 25.052L445.508 47.6399L406.477 25.052L445.508 2.46414ZM405.245 26.6948L444.275 49.2827V94.4585L405.245 71.8706V26.6948ZM404.423 73.924L443.453 96.512L404.423 119.1L372.377 100.619L365.393 96.512L404.423 73.924ZM403.191 71.8706L364.161 94.4585V49.2827L403.191 26.6948V71.8706ZM362.928 2.46414L401.958 25.052L362.928 47.6399L323.898 25.052L362.928 2.46414ZM323.076 26.6948L362.106 49.2827V94.4585L323.076 71.8706V26.6948ZM321.844 73.924L360.874 96.512L321.844 119.1L289.798 100.619L282.813 96.512L321.844 73.924ZM321.022 71.8706L281.581 94.4585V49.2827L320.611 26.6948V71.8706H321.022ZM280.759 2.46414L319.789 25.052L280.759 47.6399L241.729 25.052L280.759 2.46414ZM240.497 26.6948L279.527 49.2827V94.4585L240.497 71.8706V26.6948ZM239.264 73.924L278.294 96.512L239.264 119.1L207.218 100.619L200.234 96.512L239.264 73.924ZM238.442 71.8706L199.412 94.4585V49.2827L238.442 26.6948V71.8706ZM198.18 2.46414L237.21 25.052L198.18 47.6399L159.15 25.052L198.18 2.46414ZM157.917 26.6948L196.947 49.2827V94.4585L157.917 71.8706V26.6948ZM157.095 73.924L196.125 96.512L157.095 119.1L124.639 100.208L117.654 96.1013L157.095 73.924ZM155.863 71.8706L116.833 94.4585V49.2827L155.863 26.6948V71.8706ZM115.6 2.46414L154.63 25.052L115.6 47.6399L76.57 25.052L115.6 2.46414ZM75.7483 26.6948L114.778 49.2827V94.4585L75.7483 71.8706V26.6948ZM74.5157 73.924L113.546 96.512L74.5157 119.1L42.47 100.208L35.4856 96.1013L74.5157 73.924ZM73.6941 71.8706L34.2531 94.4585V49.2827L73.2832 26.6948V71.8706H73.6941ZM33.4314 2.46414L72.4615 25.052L33.4314 47.6399L-5.59875 25.052L33.4314 2.46414ZM-6.83128 26.6948L32.1989 49.2827V94.4585L-6.83128 71.8706V26.6948ZM-8.0638 73.924L30.9663 96.512L-8.0638 119.1L-40.1096 100.619L-47.094 96.512L-8.0638 73.924ZM-47.9156 49.2827L-8.8855 26.6948V71.8706L-47.9156 94.4585V49.2827ZM-47.9156 98.1547L-40.9313 102.262L-8.8855 120.743V165.918L-47.9156 143.331V98.1547ZM-88.1783 167.561L-49.1482 144.973L-10.118 167.561L-49.1482 190.149L-88.1783 167.561ZM-88.1783 310.481L-49.1482 287.893L-12.1722 309.249L-9.70718 310.481L-48.7373 333.069L-88.1783 310.481ZM-88.1783 453.401L-49.1482 430.813L-10.118 453.401L-49.1482 475.989L-88.1783 453.401ZM-88.1783 595.91L-49.1482 573.322L-10.118 595.91L-49.1482 618.498L-88.1783 595.91ZM-88.1783 738.83L-49.1482 716.242L-10.118 738.83L-49.1482 761.418L-88.1783 738.83ZM-88.1783 881.339L-49.1482 858.751L-13.4048 879.696L-10.118 881.75L-49.1482 904.338L-88.1783 881.339ZM-88.1783 1024.26L-49.1482 1001.67L-10.118 1024.26L-49.1482 1046.85L-88.1783 1024.26ZM32.1989 1142.54L-8.0638 1165.54L-48.3265 1142.54V1097.36L-8.0638 1120.36L32.1989 1097.36V1142.54ZM32.1989 1093.67L-6.83128 1071.08V1025.9L32.1989 1048.49V1093.67ZM-6.00959 1024.26L33.0206 1001.67L72.0507 1024.26L33.0206 1046.85L-6.00959 1024.26ZM114.778 1142.54L74.5157 1165.54L34.2531 1142.54V1097.36L74.5157 1120.36L114.778 1097.36V1142.54ZM114.778 1093.67L75.7483 1071.08V1025.9L114.778 1048.49V1093.67ZM76.57 1024.26L115.6 1001.67L154.63 1024.26L115.6 1046.85L76.57 1024.26ZM197.358 1142.54L157.095 1165.54L116.833 1142.54V1097.36L157.095 1120.36L197.358 1097.36V1142.54ZM197.358 1093.67L158.328 1071.08V1025.9L197.358 1048.49V1093.67ZM159.15 1024.26L198.18 1001.67L237.21 1024.26L198.18 1046.85L159.15 1024.26ZM279.527 1142.54L239.264 1165.54L199.001 1142.54V1097.36L239.264 1120.36L279.527 1097.36V1142.54ZM279.527 1093.67L240.497 1071.08V1025.9L279.527 1048.49V1093.67ZM241.318 1024.26L280.348 1001.67L319.379 1024.26L280.348 1046.85L241.318 1024.26ZM362.106 1142.54L321.844 1165.54L281.581 1142.54V1097.36L321.844 1120.36L362.106 1097.36V1142.54ZM362.106 1093.67L323.076 1071.08V1025.9L362.106 1048.49V1093.67ZM323.898 1024.26L362.928 1001.67L401.958 1024.26L362.928 1046.85L323.898 1024.26ZM444.686 1142.54L404.423 1165.54L364.161 1142.54V1097.36L404.423 1120.36L444.686 1097.36V1142.54ZM444.686 1093.67L405.656 1071.08V1025.9L444.686 1048.49V1093.67ZM406.477 1024.26L445.508 1001.67L484.538 1024.26L445.508 1046.85L406.477 1024.26ZM526.855 1142.54L486.592 1165.54L446.329 1142.54V1097.36L486.592 1120.36L526.855 1097.36V1142.54ZM526.855 1093.67L487.824 1071.08V1025.9L526.855 1048.49V1093.67ZM488.646 1024.26L527.676 1001.67L566.706 1024.26L527.676 1046.85L488.646 1024.26ZM609.434 1142.54L569.171 1165.54L528.909 1142.54V1097.36L569.171 1120.36L609.434 1097.36V1142.54ZM609.434 1093.67L570.404 1071.08V1025.9L609.434 1048.49V1093.67ZM571.226 1024.26L610.256 1001.67L649.286 1024.26L610.256 1046.85L571.226 1024.26ZM692.014 1142.54L651.751 1165.54L611.488 1142.54V1097.36L651.751 1120.36L692.014 1097.36V1142.54ZM692.014 1093.67L652.984 1071.08V1025.9L692.014 1048.49V1093.67ZM653.805 1024.26L692.835 1001.67L731.866 1024.26L692.835 1046.85L653.805 1024.26ZM774.182 1142.54L733.92 1165.54L693.657 1142.54V1097.36L733.92 1120.36L774.182 1097.36V1142.54ZM774.182 1093.67L735.152 1071.08V1025.9L774.182 1048.49V1093.67ZM736.385 1024.26L775.415 1001.67L814.445 1024.26L775.415 1046.85L736.385 1024.26ZM856.762 1142.54L816.499 1165.54L776.237 1142.54V1097.36L816.499 1120.36L856.762 1097.36V1142.54ZM856.762 1093.67L817.732 1071.08V1025.9L856.762 1048.49V1093.67ZM818.554 1024.26L857.584 1001.67L896.614 1024.26L857.584 1046.85L818.554 1024.26ZM939.342 1142.54L899.079 1165.54L858.816 1142.54V1097.36L899.079 1120.36L939.342 1097.36V1142.54ZM939.342 1093.67L900.311 1071.08V1025.9L939.342 1048.49V1093.67ZM901.133 1024.26L940.163 1001.67L979.193 1024.26L940.163 1046.85L901.133 1024.26ZM1021.51 1142.54L981.248 1165.54L940.985 1142.54V1097.36L981.248 1120.36L1021.51 1097.36V1142.54ZM1021.51 1093.67L982.48 1071.08V1025.9L1021.51 1048.49V1093.67ZM983.713 1024.26L1022.74 1001.67L1061.77 1024.26L1022.74 1046.85L983.713 1024.26ZM1104.09 1142.54L1063.83 1165.54L1023.56 1142.54V1097.36L1063.83 1120.36L1104.09 1097.36V1142.54ZM1104.09 1093.67L1065.06 1071.08V1025.9L1104.09 1048.49V1093.67ZM1065.88 1024.26L1104.91 1001.67L1143.94 1024.26L1104.91 1046.85L1065.88 1024.26ZM1186.67 1142.54L1146.41 1165.54L1106.14 1142.54V1097.36L1146.41 1120.36L1186.67 1097.36V1142.54ZM1186.67 1093.67L1147.64 1071.08V1025.9L1186.67 1048.49V1093.67ZM1148.46 1024.26L1187.49 1001.67L1226.52 1024.26L1187.49 1046.85L1148.46 1024.26ZM1268.84 1142.54L1228.58 1165.54L1188.31 1142.54V1097.36L1228.58 1120.36L1268.84 1097.36V1142.54ZM1268.84 1093.67L1229.81 1071.08V1025.9L1268.84 1048.49V1093.67ZM1231.04 1024.26L1270.07 1001.67L1309.1 1024.26L1270.07 1046.85L1231.04 1024.26ZM1351.42 1142.54L1311.16 1165.54L1270.89 1142.54V1097.36L1311.16 1120.36L1351.42 1097.36V1142.54ZM1351.42 1093.67L1312.39 1071.08V1025.9L1351.42 1048.49V1093.67ZM1313.21 1024.26L1352.24 1001.67L1391.27 1024.26L1352.24 1046.85L1313.21 1024.26ZM1434 1142.54L1393.73 1165.54L1353.47 1142.54V1097.36L1393.73 1120.36L1434 1097.36V1142.54ZM1434 1093.67L1394.97 1071.08V1025.9L1434 1048.49V1093.67ZM1395.79 1024.26L1434.82 1001.67L1473.85 1024.26L1434.82 1046.85L1395.79 1024.26ZM1516.17 1142.54L1475.9 1165.54L1435.64 1142.54V1097.36L1475.9 1120.36L1516.17 1097.36V1142.54ZM1516.17 1093.67L1477.14 1071.08V1025.9L1516.17 1048.49V1093.67ZM1478.37 1024.26L1517.4 1001.67L1556.43 1024.26L1517.4 1046.85L1478.37 1024.26ZM1598.75 1142.54L1558.48 1165.54L1518.22 1142.54V1097.36L1558.48 1120.36L1598.75 1097.36V1142.54ZM1598.75 1093.67L1559.72 1071.08V1025.9L1598.75 1048.49V1093.67ZM1560.54 1024.26L1599.57 1001.67L1638.6 1024.26L1599.57 1046.85L1560.54 1024.26ZM1681.33 1142.54L1641.06 1165.54L1600.8 1142.54V1097.36L1641.06 1120.36L1681.33 1097.36V1142.54ZM1681.33 1093.67L1642.29 1071.08V1025.9L1681.33 1048.49V1093.67ZM1643.12 1024.26L1682.15 1001.67L1721.18 1024.26L1682.15 1046.85L1643.12 1024.26ZM1763.9 1142.54L1723.64 1165.54L1683.38 1142.54V1097.36L1723.64 1120.36L1763.9 1097.36V1142.54ZM1763.9 1093.67L1724.87 1071.08V1025.9L1763.9 1048.49V1093.67ZM1725.7 1024.26L1764.73 1001.67L1803.76 1024.26L1764.73 1046.85L1725.7 1024.26ZM1846.07 1142.54L1805.81 1165.54L1765.55 1142.54V1097.36L1805.81 1120.36L1846.07 1097.36V1142.54ZM1846.07 1093.67L1807.04 1071.08V1025.9L1846.07 1048.49V1093.67ZM1807.86 1024.26L1846.9 1001.67L1885.93 1024.26L1846.9 1046.85L1807.86 1024.26ZM1928.65 1142.54L1888.39 1165.54L1848.13 1142.54V1097.36L1888.39 1120.36L1928.65 1097.36V1142.54ZM1928.65 1093.67L1889.62 1071.08V1025.9L1928.65 1048.49V1093.67ZM1929.47 1046.85L1890.44 1024.26L1929.47 1001.67L1968.5 1024.26L1929.47 1046.85ZM1930.71 1048.49L1969.74 1025.9V1071.08L1930.71 1093.67V1048.49Z" fill="url(#paint0_linear)"/>
<defs>
<linearGradient id="paint0_linear" x1="960.705" y1="0" x2="960.705" y2="1168" gradientUnits="userSpaceOnUse">
<stop offset="0.0991262" stop-color="white" stop-opacity="0"/>
<stop offset="0.477305" stop-color="white" stop-opacity="0.05"/>
<stop offset="0.833919" stop-color="white" stop-opacity="0.15"/>
</linearGradient>
</defs>
</svg>
