<svg width="15" height="16" viewBox="0 0 15 16" fill="none" xmlns="http://www.w3.org/2000/svg">
<path fill-rule="evenodd" clip-rule="evenodd" d="M2.18182 2.90909C1.78016 2.90909 1.45455 3.2347 1.45455 3.63636V13.8182C1.45455 14.2198 1.78016 14.5455 2.18182 14.5455H12.3636C12.7653 14.5455 13.0909 14.2198 13.0909 13.8182V3.63636C13.0909 3.2347 12.7653 2.90909 12.3636 2.90909H2.18182ZM0 3.63636C0 2.43138 0.976833 1.45455 2.18182 1.45455H12.3636C13.5686 1.45455 14.5455 2.43138 14.5455 3.63636V13.8182C14.5455 15.0232 13.5686 16 12.3636 16H2.18182C0.976833 16 0 15.0232 0 13.8182V3.63636Z" fill="#2153DA"/>
<path fill-rule="evenodd" clip-rule="evenodd" d="M10.1818 0C10.5835 0 10.9091 0.325611 10.9091 0.727273V3.63636C10.9091 4.03803 10.5835 4.36364 10.1818 4.36364C9.78016 4.36364 9.45455 4.03803 9.45455 3.63636V0.727273C9.45455 0.325611 9.78016 0 10.1818 0Z" fill="#2153DA"/>
<path fill-rule="evenodd" clip-rule="evenodd" d="M4.36364 0C4.7653 0 5.09091 0.325611 5.09091 0.727273V3.63636C5.09091 4.03803 4.7653 4.36364 4.36364 4.36364C3.96197 4.36364 3.63636 4.03803 3.63636 3.63636V0.727273C3.63636 0.325611 3.96197 0 4.36364 0Z" fill="#2153DA"/>
<path fill-rule="evenodd" clip-rule="evenodd" d="M0 6.54545C0 6.14379 0.325611 5.81818 0.727273 5.81818H13.8182C14.2198 5.81818 14.5455 6.14379 14.5455 6.54545C14.5455 6.94712 14.2198 7.27273 13.8182 7.27273H0.727273C0.325611 7.27273 0 6.94712 0 6.54545Z" fill="#2153DA"/>
<path d="M3.63636 9.09091C3.63636 8.89008 3.79917 8.72727 4 8.72727H4.72727C4.9281 8.72727 5.09091 8.89008 5.09091 9.09091V9.81818C5.09091 10.019 4.9281 10.1818 4.72727 10.1818H4C3.79917 10.1818 3.63636 10.019 3.63636 9.81818V9.09091Z" fill="#2153DA"/>
<path d="M3.63636 12C3.63636 11.7992 3.79917 11.6364 4 11.6364H4.72727C4.9281 11.6364 5.09091 11.7992 5.09091 12V12.7273C5.09091 12.9281 4.9281 13.0909 4.72727 13.0909H4C3.79917 13.0909 3.63636 12.9281 3.63636 12.7273V12Z" fill="#2153DA"/>
<path d="M6.54545 9.09091C6.54545 8.89008 6.70826 8.72727 6.90909 8.72727H7.63636C7.83719 8.72727 8 8.89008 8 9.09091V9.81818C8 10.019 7.83719 10.1818 7.63636 10.1818H6.90909C6.70826 10.1818 6.54545 10.019 6.54545 9.81818V9.09091Z" fill="#2153DA"/>
<path d="M6.54545 12C6.54545 11.7992 6.70826 11.6364 6.90909 11.6364H7.63636C7.83719 11.6364 8 11.7992 8 12V12.7273C8 12.9281 7.83719 13.0909 7.63636 13.0909H6.90909C6.70826 13.0909 6.54545 12.9281 6.54545 12.7273V12Z" fill="#2153DA"/>
<path d="M9.45455 9.09091C9.45455 8.89008 9.61735 8.72727 9.81818 8.72727H10.5455C10.7463 8.72727 10.9091 8.89008 10.9091 9.09091V9.81818C10.9091 10.019 10.7463 10.1818 10.5455 10.1818H9.81818C9.61735 10.1818 9.45455 10.019 9.45455 9.81818V9.09091Z" fill="#2153DA"/>
<path d="M9.45455 12C9.45455 11.7992 9.61735 11.6364 9.81818 11.6364H10.5455C10.7463 11.6364 10.9091 11.7992 10.9091 12V12.7273C10.9091 12.9281 10.7463 13.0909 10.5455 13.0909H9.81818C9.61735 13.0909 9.45455 12.9281 9.45455 12.7273V12Z" fill="#2153DA"/>
</svg>
