<svg width="15" height="20" viewBox="0 0 15 20" fill="none" xmlns="http://www.w3.org/2000/svg">
<path d="M14.7988 14.0005C14.7321 11.8007 12.9989 10.0675 10.7991 10.0008C8.06599 10.0008 6.93275 10.0008 4.06633 10.0008C1.93317 10.0008 0.133322 11.734 0.0666611 13.8005C0 15.1337 0 16.4003 0 17.6669C0 18.2002 0 18.6668 0 19.2001C0 19.6667 0.266644 19.9333 0.733272 20C0.799933 20 0.866594 20 0.999916 20C0.999916 20 1.06658 20 1.13324 20H13.8655C13.9988 20 14.0655 20 14.1988 20C14.6654 19.9333 14.8654 19.7334 14.8654 19.2667V17.8002C14.7988 16.5336 14.7988 15.2671 14.7988 14.0005ZM13.4655 18.6001C13.3989 18.6668 13.3989 18.6668 13.4655 18.6001C11.6657 18.6668 10.3991 18.6668 8.93259 18.6668H5.79951C4.33297 18.6668 3.06641 18.6668 1.39988 18.6668H1.33322V18.6001C1.33322 17.6002 1.33322 16.6669 1.33322 15.667V14.0672C1.33322 12.8673 2.19982 11.8007 3.33305 11.4674C3.5997 11.4007 3.86634 11.3341 4.19965 11.3341C4.99958 11.3341 5.66619 11.3341 6.26614 11.3341C6.59945 11.3341 6.86609 11.3341 7.13274 11.3341C8.13265 11.3341 9.13257 11.3341 10.5325 11.3341C11.9323 11.3341 12.8656 12.2007 13.1322 13.0672C13.2656 13.4672 13.3322 13.8672 13.3322 14.3338C13.3322 15.2004 13.3322 16.0003 13.3322 16.8669C13.4655 17.4669 13.4655 18.0002 13.4655 18.6001Z" fill="#84D04F"/>
<path d="M7.39938 8.8676C7.46604 8.8676 7.46604 8.8676 7.5327 8.8676C8.7326 8.8676 9.86584 8.33431 10.6658 7.53438C11.4657 6.66778 11.9323 5.53454 11.9323 4.4013C11.799 1.86818 9.79918 -0.064988 7.33272 0.00167307C4.86626 0.0683342 2.93309 2.06817 2.99975 4.46797C2.99975 5.66787 3.53304 6.86777 4.39963 7.6677C5.26623 8.46763 6.26614 8.8676 7.39938 8.8676ZM7.46604 1.33489C9.13257 1.33489 10.4658 2.66812 10.5325 4.4013C10.5991 6.06783 9.19923 7.46772 7.5327 7.53438C5.86618 7.60104 4.39963 6.26782 4.39963 4.46797C4.39963 3.66803 4.66628 2.93476 5.19956 2.33481C5.73285 1.73486 6.53279 1.33489 7.39938 1.33489H7.46604Z" fill="#84D04F"/>
<path d="M10.9991 14.0005C10.7324 14.0005 10.4658 14.0005 10.1991 14.0005H9.53254C9.26589 14.0005 8.99925 14.0005 8.7326 14.0005C8.46596 14.0005 8.26597 14.0672 8.13265 14.2005C7.99933 14.3338 7.93267 14.4671 7.93267 14.6671C7.93267 15.0671 8.26597 15.3337 8.66594 15.3337C9.06591 15.3337 9.39921 15.3337 9.79918 15.3337C10.1991 15.3337 10.5325 15.3337 10.9324 15.3337C11.399 15.3337 11.6657 15.0671 11.6657 14.6671C11.6657 14.4671 11.599 14.3338 11.4657 14.2005C11.4657 14.0672 11.2657 14.0005 10.9991 14.0005Z" fill="#84D04F"/>
</svg>
