<svg width="15" height="21" viewBox="0 0 15 21" fill="none" xmlns="http://www.w3.org/2000/svg">
<path d="M14.7988 14.9985C14.7321 12.7987 12.9989 11.0655 10.7991 10.9989C8.06599 10.9989 6.93275 10.9989 4.06633 10.9989C1.93317 10.9989 0.133322 12.7321 0.0666611 14.7986C0 16.1318 0 17.3983 0 18.6649C0 19.1982 0 19.6648 0 20.1981C0 20.6647 0.266644 20.9314 0.733272 20.998C0.799933 20.998 0.866594 20.998 0.999916 20.998C0.999916 20.998 1.06658 20.998 1.13324 20.998H13.8655C13.9988 20.998 14.0655 20.998 14.1988 20.998C14.6654 20.9314 14.8654 20.7314 14.8654 20.2648V18.7982C14.7988 17.5317 14.7988 16.2651 14.7988 14.9985ZM13.4655 19.5982C13.3989 19.6648 13.3989 19.6648 13.4655 19.5982C11.6657 19.6648 10.3991 19.6648 8.93259 19.6648H5.79951C4.33297 19.6648 3.06641 19.6648 1.39988 19.6648H1.33322V19.5982C1.33322 18.5982 1.33322 17.665 1.33322 16.6651V15.0652C1.33322 13.8653 2.19982 12.7987 3.33305 12.4654C3.5997 12.3988 3.86634 12.3321 4.19965 12.3321C4.99958 12.3321 5.66619 12.3321 6.26614 12.3321C6.59945 12.3321 6.86609 12.3321 7.13274 12.3321C8.13265 12.3321 9.13257 12.3321 10.5325 12.3321C11.9323 12.3321 12.8656 13.1987 13.1322 14.0653C13.2656 14.4653 13.3322 14.8652 13.3322 15.3319C13.3322 16.1984 13.3322 16.9984 13.3322 17.865C13.4655 18.4649 13.4655 18.9982 13.4655 19.5982Z" fill="#2153DA"/>
<path d="M7.39938 9.86565C7.46604 9.86565 7.46604 9.86565 7.5327 9.86565C8.7326 9.86565 9.86584 9.33236 10.6658 8.53242C11.4657 7.66583 11.9323 6.53259 11.9323 5.39935C11.799 2.86623 9.79918 0.933059 7.33272 0.99972C4.86626 1.06638 2.93309 3.06621 2.99975 5.46601C2.99975 6.66591 3.53304 7.86581 4.39963 8.66575C5.26623 9.46568 6.26614 9.86565 7.39938 9.86565ZM7.46604 2.33294C9.13257 2.33294 10.4658 3.66616 10.5325 5.39935C10.5991 7.06588 9.19923 8.46576 7.5327 8.53242C5.86618 8.59908 4.39963 7.26586 4.39963 5.46601C4.39963 4.66608 4.66628 3.93281 5.19956 3.33286C5.73285 2.73291 6.53279 2.33294 7.39938 2.33294H7.46604Z" fill="#2153DA"/>
<path d="M10.9991 14.9985C10.7324 14.9985 10.4658 14.9985 10.1991 14.9985H9.53254C9.26589 14.9985 8.99925 14.9985 8.7326 14.9985C8.46596 14.9985 8.26597 15.0652 8.13265 15.1985C7.99933 15.3319 7.93267 15.4652 7.93267 15.6652C7.93267 16.0651 8.26597 16.3318 8.66594 16.3318C9.06591 16.3318 9.39921 16.3318 9.79918 16.3318C10.1991 16.3318 10.5325 16.3318 10.9324 16.3318C11.399 16.3318 11.6657 16.0651 11.6657 15.6652C11.6657 15.4652 11.599 15.3319 11.4657 15.1985C11.4657 15.0652 11.2657 14.9985 10.9991 14.9985Z" fill="#2153DA"/>
</svg>
