<svg width="20" height="20" viewBox="0 0 20 20" fill="none" xmlns="http://www.w3.org/2000/svg">
<path d="M19.5306 7.08398C18.6037 6.75295 17.6768 6.42192 16.75 6.0909C16.4189 5.95849 16.1541 6.0909 16.0217 6.42192C15.8893 6.68675 16.0879 7.01777 16.3527 7.08398C16.5513 7.15018 16.75 7.21639 16.8824 7.28259L17.2134 7.415C17.743 7.61362 18.2727 7.74603 18.8023 7.94465V12.7114L18.4051 12.579C16.8162 12.0494 15.2272 11.4535 13.6383 10.9239L13.5721 10.8577C13.5059 10.5929 13.3073 10.3942 13.0425 10.328C12.7776 10.328 12.5128 10.5267 12.5128 10.7915C12.5128 10.9239 12.4466 10.9239 12.3804 10.9239C11.5859 11.1887 10.7253 11.5197 9.93081 11.7846L7.48121 12.6452V11.5197C7.48121 10.328 7.48121 9.13634 7.48121 7.94465C7.48121 7.87844 7.48121 7.87844 7.54742 7.81224C7.94465 7.67983 8.34188 7.54742 8.73911 7.415L9.20255 7.21639C9.40117 7.15018 9.53358 7.08398 9.73219 7.01777C9.99701 6.88536 10.1294 6.68675 10.0632 6.42192C9.99701 6.1571 9.73219 6.02469 9.53358 6.02469C9.40117 6.02469 9.33496 6.0909 9.26876 6.0909L8.6067 6.35572C8.07706 6.55434 7.61362 6.68675 7.08398 6.88536C7.01777 6.88536 6.88536 6.88536 6.81916 6.88536C5.95849 6.68675 5.16402 6.42192 4.43576 6.1571L2.91304 5.62746C2.25098 5.36264 1.52272 5.16402 0.86067 4.8992C0.595849 4.83299 0.397232 4.83299 0.198616 4.8992C0.0662054 5.09782 0 5.23023 0 5.56125V17.2134C0 17.6106 0.0662054 17.743 0.463438 17.8755L1.85375 18.3389C3.37648 18.8685 5.03161 19.3982 6.55433 19.9278C6.68675 19.994 6.75295 19.994 6.88536 19.994C7.01777 19.994 7.15018 19.994 7.28259 19.9278C8.40809 19.5306 9.53358 19.0672 10.7253 18.6699C11.4535 18.4051 12.1818 18.1403 12.9101 17.8755C12.9763 17.8755 13.1087 17.8755 13.1749 17.8755C14.1018 18.2065 15.0948 18.5375 16.0217 18.8685L17.3458 19.332C17.9417 19.5306 18.5375 19.7292 19.0672 19.9278C19.3982 20.0602 19.5306 19.994 19.663 19.8616C19.7954 19.7954 19.8616 19.663 19.8616 19.332V18.2065C19.8616 17.6106 19.8616 17.081 19.8616 16.4851C19.8616 13.5721 19.8616 10.5929 19.8616 7.67983C19.8616 7.3488 19.7954 7.15018 19.5306 7.08398ZM18.8023 13.9031V18.6699L17.3458 18.2065C16.0879 17.8093 14.8962 17.3458 13.6383 16.9486C13.5721 16.9486 13.5059 16.8824 13.5059 16.8162C13.5059 15.6245 13.5059 14.499 13.5059 13.3073V12.1156L18.8023 13.9031ZM7.415 14.0355C7.415 13.9031 7.415 13.8369 7.54742 13.8369C8.80532 13.3735 10.0632 12.9101 11.3211 12.5128L12.3804 12.1156H12.4466V13.4397C12.4466 14.5652 12.4466 15.6245 12.4466 16.75C12.4466 16.8824 12.4466 16.8824 12.3142 16.9486C11.1225 17.3458 9.93081 17.8093 8.73911 18.2065L7.48121 18.6699C7.48121 18.6699 7.41501 18.6699 7.3488 18.6699V17.4782C7.41501 16.3527 7.415 15.161 7.415 14.0355ZM1.05929 10.9239V6.1571C1.39031 6.28951 1.65514 6.35572 1.98616 6.48813L3.04545 6.88536C4.10473 7.28259 5.16402 7.61362 6.22331 8.01085C6.28951 8.01085 6.35572 8.07706 6.35572 8.14326C6.35572 9.26876 6.35572 10.3942 6.35572 11.5197V12.7776L1.05929 10.9239ZM1.05929 12.0494L1.39031 12.1818C1.72134 12.3142 2.05237 12.3804 2.31719 12.5128L3.7075 12.9763C4.50197 13.2411 5.36264 13.5721 6.1571 13.8369C6.22331 13.8369 6.28951 13.9031 6.28951 13.9693C6.28951 15.0948 6.28951 16.2203 6.28951 17.3458V18.6037C6.28951 18.6037 6.28951 18.6037 6.28951 18.6699L6.0909 18.6037C5.95849 18.5375 5.75987 18.4713 5.62746 18.4051L4.50197 18.0079C3.37648 17.6106 2.31719 17.2796 1.1917 16.8824C1.05929 16.8162 1.05929 16.8162 1.05929 16.6838C1.05929 15.4921 1.05929 14.3666 1.05929 13.1749V12.0494Z" fill="#2153DA"/>
<path d="M11.3211 7.81224C11.7184 8.40809 12.0494 8.93773 12.4466 9.53358C12.6452 9.7984 12.8438 9.8646 12.9763 9.8646C13.1087 9.8646 13.3073 9.7984 13.5059 9.53358C14.3004 8.34188 15.161 7.08398 15.9555 5.89228C16.4851 5.09782 16.6838 4.30335 16.6176 3.37648C16.4189 1.52272 14.8962 0.0662054 12.9763 0C12.8438 0 12.7776 0.0662054 12.6452 0.0662054C12.3804 0.132411 12.1818 0.132411 11.917 0.198616C10.8577 0.529643 9.99701 1.39031 9.59978 2.4496C9.20255 3.57509 9.33496 4.76679 9.99702 5.82608C10.4605 6.48813 10.9239 7.15018 11.3211 7.81224ZM11.3211 1.78755C11.7846 1.39031 12.3804 1.12549 13.0425 1.12549C13.5721 1.12549 14.1018 1.2579 14.499 1.58893C15.5583 2.38339 15.8893 3.97232 15.161 5.09782C14.6314 5.89228 14.1018 6.68675 13.6383 7.415C13.4397 7.74603 13.2411 8.07706 12.9763 8.34188C12.7776 8.01085 12.579 7.74603 12.3804 7.415C11.8508 6.62054 11.3211 5.82608 10.7915 5.03161C10.1294 3.97232 10.328 2.64822 11.3211 1.78755Z" fill="#2153DA"/>
<path d="M12.9763 5.49505C13.9693 5.49505 14.83 4.70058 14.83 3.7075C14.83 3.24406 14.6976 2.71442 14.3004 2.38339C13.9693 2.05237 13.5059 1.78755 12.9763 1.78755C12.9763 1.78755 12.9763 1.78755 12.9101 1.78755C11.917 1.78755 11.1225 2.58201 11.0563 3.57509C11.0563 4.03853 11.2549 4.50197 11.5859 4.8992C11.9832 5.29643 12.5128 5.49505 12.9763 5.49505ZM12.9763 2.84683C13.1749 2.84683 13.3735 2.91304 13.5059 3.04545C13.6383 3.17786 13.7707 3.37648 13.7707 3.57509C13.7707 3.97232 13.4397 4.36956 12.9763 4.36956C12.7776 4.36956 12.579 4.30335 12.4466 4.17094C12.3142 4.03853 12.248 3.83991 12.248 3.6413C12.248 3.24406 12.579 2.84683 12.9763 2.84683Z" fill="#2153DA"/>
</svg>
