<svg width="12" height="20" viewBox="0 0 12 20" fill="none" xmlns="http://www.w3.org/2000/svg">
<path d="M9.19234 0C6.86095 0 4.59617 0 2.26478 0C2.06495 0 1.7985 0 1.66528 0.0666112C0.5995 0.333056 0 1.199 0 2.26478V12.1898C0 13.9883 0 15.8535 0 17.652C0 18.3181 0.199833 18.9176 0.666112 19.3172C1.06578 19.7169 1.66528 19.9833 2.26478 19.9833C3.19734 19.9833 4.12989 19.9833 5.12906 19.9833C6.26145 19.9833 7.32723 19.9833 8.45962 19.9833C8.85928 19.9833 9.32556 20.05 9.72523 19.9167C10.7244 19.6503 11.3905 18.851 11.3905 17.7186C11.3905 12.5895 11.3905 7.39384 11.3905 2.26478C11.4571 0.932556 10.5246 0 9.19234 0ZM6.72773 18.7177H2.33139C1.86511 18.7177 1.53206 18.5179 1.39883 18.1848C1.33222 18.1182 1.26561 17.985 1.26561 17.9184C1.26561 17.3189 1.26561 16.3197 1.26561 15.5204V15.1873H10.1915V15.6536C10.1915 16.3863 10.1915 17.2523 10.1915 17.7852C10.1915 18.3181 9.79184 18.6511 9.12573 18.6511C8.3264 18.7177 7.52706 18.7177 6.72773 18.7177ZM1.26561 13.9883V4.1965H10.1915V13.9883H1.26561ZM10.1915 2.93089H1.26561C1.199 2.33139 1.26561 1.93172 1.53206 1.66528C1.73189 1.39883 2.13156 1.26561 2.66445 1.26561H4.92923C6.32806 1.26561 7.66028 1.26561 9.19234 1.26561C9.5254 1.26561 9.79184 1.33222 9.99167 1.59867C10.1915 1.7985 10.2581 2.26478 10.1915 2.93089Z" fill="#2153DA"/>
<path d="M5.72856 15.3872C4.86262 15.3872 4.12989 16.1199 4.12989 16.9858C4.12989 17.3855 4.32973 17.7852 4.59617 18.1182C4.92923 18.4513 5.32889 18.5845 5.72856 18.5845C6.12823 18.5845 6.52789 18.3847 6.86095 18.1182C7.19401 17.7852 7.32723 17.3855 7.32723 16.9858C7.32723 16.5862 7.12739 16.1865 6.86095 15.8535C6.52789 15.5204 6.12823 15.3872 5.72856 15.3872ZM5.72856 16.453C5.86178 16.453 5.995 16.5196 6.06162 16.5862C6.12823 16.6528 6.19484 16.786 6.19484 16.9192C6.19484 17.1857 5.995 17.3855 5.66195 17.3855C5.3955 17.3855 5.19567 17.1857 5.19567 16.9192C5.19567 16.7194 5.46212 16.453 5.72856 16.453Z" fill="#2153DA"/>
<path d="M5.59534 1.39883C5.06245 1.39883 4.59617 1.39883 4.06328 1.39883C3.66361 1.39883 3.39717 1.66528 3.39717 1.99833C3.39717 2.19817 3.46378 2.33139 3.53039 2.46461C3.66361 2.53122 3.79684 2.66445 4.06328 2.66445C4.26311 2.66445 4.39634 2.66445 4.59617 2.66445H4.99584C5.06245 2.66445 5.12906 2.66445 5.26228 2.66445C5.3955 2.66445 5.46211 2.66445 5.59534 2.66445C5.995 2.66445 6.26145 2.398 6.26145 2.06495C6.26145 1.93172 6.19484 1.73189 6.12823 1.59867C5.995 1.53206 5.79517 1.39883 5.59534 1.39883Z" fill="#2153DA"/>
<path d="M7.26062 1.39883C6.52789 1.39883 6.46128 1.7985 6.46128 1.99833C6.46128 2.19817 6.52789 2.33139 6.5945 2.398C6.79434 2.66445 7.12739 2.66445 7.26062 2.66445C7.46045 2.66445 7.72689 2.66445 7.92673 2.46461C7.99334 2.398 8.12656 2.26478 8.05995 1.99833C8.05995 1.73189 7.92673 1.39883 7.26062 1.39883Z" fill="#2153DA"/>
</svg>
