<svg width="19" height="24" viewBox="0 0 19 24" fill="none" xmlns="http://www.w3.org/2000/svg">
<path d="M9.5 5.71926C9.32027 5.53646 9.08919 5.48422 8.85811 5.48422H1.18108C0.667569 5.48422 0 5.7976 0 6.29379V22.8248C0 23.3471 0.667569 24 1.18108 24H13.3514C13.8649 24 14.1216 23.321 14.1216 22.8248V10.8901C14.1216 10.655 14.0959 10.4461 13.9162 10.2633L9.5 5.71926ZM12.0419 10.9684H8.72973V7.59956L12.0419 10.9684ZM2.05405 21.9369V7.31229H6.93243V11.8041C6.93243 12.3264 7.39459 12.7965 7.9081 12.7965H12.3243V21.9369H2.05405ZM18.8459 4.70076L14.3784 0.156686C14.2243 -6.38204e-06 14.0703 0 13.8649 0H6.18784C5.75135 0 5.39189 0.235038 5.39189 0.652883V3.15995C5.39189 3.60391 5.72568 3.94341 6.16216 3.94341C6.59865 3.94341 6.93243 3.57779 6.93243 3.15995V1.54081H12.3243V5.95431C12.3243 6.39827 12.6838 6.76388 13.1203 6.76388H17.4595V16.4266H16.4068C15.9703 16.4266 15.6365 16.7661 15.6365 17.21C15.6365 17.654 15.9959 17.9935 16.4068 17.9935H18.3581C18.7946 17.9935 19 17.6017 19 17.1578V5.22307C19 5.06638 18.9743 4.85745 18.8459 4.70076ZM13.8649 1.82807L17.177 5.22307H13.8649V1.82807Z" fill="#2153DA"/>
</svg>
