<svg width="21" height="21" viewBox="0 0 21 21" fill="none" xmlns="http://www.w3.org/2000/svg">
<path d="M18.4116 6.78462L17.6547 20.1231C17.6302 20.6077 17.1907 21 16.6779 21H4.29767C3.78488 21 3.34534 20.6077 3.32092 20.1231L2.56395 6.78462C2.53954 6.27693 2.95466 5.83845 3.49187 5.81537C4.02908 5.7923 4.49302 6.18462 4.51744 6.69231L5.22559 19.1538H15.75L16.4581 6.69231C16.4826 6.18462 16.9465 5.7923 17.4837 5.81537C18.0209 5.83845 18.4361 6.27693 18.4116 6.78462ZM21 3.69231C21 4.2 20.5605 4.61538 20.0233 4.61538H0.976744C0.439535 4.61538 0 4.2 0 3.69231C0 3.18462 0.439535 2.76923 0.976744 2.76923H6.34884V0.692308C6.34884 0.253846 6.66627 0 7.13022 0H13.8698C14.3337 0 14.6512 0.253846 14.6512 0.692308V2.76923H20.0233C20.5605 2.76923 21 3.18462 21 3.69231ZM8.05814 2.76923H12.9419V1.61538H8.05814V2.76923ZM8.47324 17.7692C8.96162 17.7692 9.3279 17.3308 9.3279 16.8923L9.08371 6.92308C9.08371 6.48462 8.69302 6.11538 8.20465 6.11538C7.74069 6.11538 7.34999 6.48461 7.37441 6.94615L7.61859 16.9385C7.61859 17.3769 8.00929 17.7692 8.47324 17.7692ZM12.5023 17.7692C12.9663 17.7692 13.357 17.4 13.357 16.9615L13.6012 6.99232C13.6012 6.55386 13.2349 6.16153 12.7709 6.16153C12.2826 6.16153 11.9163 6.50769 11.8918 6.94615L11.6477 16.9154C11.6232 17.3769 12.0139 17.7692 12.5023 17.7692C12.4779 17.7692 12.4779 17.7692 12.5023 17.7692Z" fill="#2153DA"/>
</svg>
