<svg width="20" height="21" viewBox="0 0 20 21" fill="none" xmlns="http://www.w3.org/2000/svg">
<path d="M19.7807 1.8923L18.0027 0.207698C17.8545 0.0692364 17.6817 0 17.4841 0C17.2866 0 17.089 0.0692364 16.9655 0.207698L6.61829 10.0154C6.5442 10.0846 6.49479 10.1539 6.4454 10.2462L5.28475 12.9923C5.18597 13.2462 5.23535 13.5462 5.4576 13.7308C5.60577 13.8692 5.77863 13.9385 5.97619 13.9385C6.07497 13.9385 6.14908 13.9154 6.24786 13.8923L9.16186 12.8077C9.26064 12.7615 9.33473 12.7154 9.40881 12.6462L19.756 2.83847C20.0771 2.58463 20.0771 2.14614 19.7807 1.8923ZM8.49511 11.5846L7.30973 12.0231L7.77894 10.8923L17.4841 1.68463L18.225 2.37693L8.49511 11.5846ZM16.0518 10.7538V20.0769C16.0518 20.5846 15.5579 21 15.0146 21H0.987802C0.444511 21 0 20.5846 0 20.0769V2.49232C0 1.98463 0.444511 1.61538 0.987802 1.61538H11.2609C11.8042 1.61538 12.2487 2.03077 12.2487 2.53846C12.2487 3.04615 11.8042 3.46154 11.2609 3.46154H1.9756V19.1538H14.0762V10.7538C14.0762 10.2461 14.5207 9.83076 15.064 9.83076C15.6073 9.83076 16.0518 10.2461 16.0518 10.7538Z" fill="#2153DA"/>
</svg>
