<svg width="41" height="40" viewBox="0 0 41 40" fill="none" xmlns="http://www.w3.org/2000/svg">
<path d="M0.0121468 28.2376C0.0121468 26.2406 0.0121468 24.2436 0.0121468 22.3265C0.0121468 21.6875 0.251787 21.3679 0.810948 21.1283C3.68663 19.8502 6.48244 18.4923 9.35813 17.2142C9.75753 17.0544 9.91729 16.8148 9.91729 16.4154C9.91729 12.8208 9.91729 9.30604 9.91729 5.71143C9.91729 4.99251 10.1569 4.59311 10.796 4.27359C13.8314 2.91563 16.787 1.47778 19.8224 0.11982C20.2218 -0.0399401 20.6212 -0.0399401 21.0206 0.11982C24.0561 1.55766 27.0116 2.91563 30.0471 4.27359C30.6861 4.59311 30.9258 4.99251 30.9258 5.63155C30.9258 9.22616 30.9258 12.7409 30.9258 16.3355C30.9258 16.8148 31.0057 17.0544 31.4849 17.2142C34.2807 18.4923 37.0765 19.8502 39.9522 21.1283C40.5913 21.3679 40.8309 21.7673 40.8309 22.4863C40.8309 26.4004 40.8309 30.3145 40.8309 34.2287C40.8309 34.8677 40.5913 35.2671 39.9522 35.5866C36.9168 36.9446 33.8813 38.3824 30.8459 39.8203C30.3666 40.0599 29.9672 40.0599 29.4879 39.8203C26.6122 38.4623 23.7366 37.1043 20.781 35.8263C20.5413 35.6665 20.3017 35.6665 20.0621 35.8263C17.1864 37.1842 14.3107 38.4623 11.435 39.8203C10.9557 40.0599 10.4764 40.0599 9.99717 39.8203C6.88184 38.2227 3.8464 36.7848 0.810948 35.4269C0.251787 35.1872 -0.0677334 34.7878 0.0121468 34.1488C0.0121468 32.1518 0.0121468 30.2346 0.0121468 28.2376ZM30.8459 37.5037C31.0057 37.4239 31.1654 37.4239 31.3252 37.344C33.7216 36.2257 36.0381 35.1073 38.4345 34.0689C38.754 33.9091 38.8339 33.7494 38.8339 33.4299C38.8339 30.2346 38.8339 27.0394 38.8339 23.9241C38.8339 23.7644 38.8339 23.6046 38.8339 23.4448C38.6741 23.5247 38.5144 23.5247 38.4345 23.6046C36.0381 24.7229 33.7216 25.7614 31.3252 26.8797C31.0057 27.0394 30.9258 27.1992 30.9258 27.5187C30.9258 30.7139 30.9258 33.9091 30.9258 37.1043C30.8459 37.1842 30.8459 37.344 30.8459 37.5037ZM29.0086 37.4239C29.0086 37.2641 29.0086 37.1842 29.0086 37.1043C29.0086 33.8293 29.0086 30.634 29.0086 27.359C29.0086 27.0394 28.8489 26.9596 28.6891 26.8797C26.2927 25.7614 23.8164 24.643 21.42 23.6046C21.3402 23.5247 21.1804 23.5247 21.0206 23.4448C21.0206 26.8797 21.0206 30.1548 21.0206 33.5097C21.0206 33.6695 21.1804 33.8293 21.3402 33.9091C22.4585 34.4683 23.6567 35.0275 24.8549 35.5067C26.2128 36.1458 27.5708 36.7848 29.0086 37.4239ZM21.0206 20.649C21.2603 20.5691 21.3402 20.4893 21.4999 20.4094C23.8963 19.2911 26.2128 18.2526 28.6092 17.1343C28.9288 16.9745 29.0086 16.8148 29.0086 16.4953C29.0086 13.3799 29.0086 10.2646 29.0086 7.0694C29.0086 6.90964 29.0086 6.74988 29.0086 6.59011C28.9288 6.59011 28.8489 6.59012 28.769 6.67C26.2927 7.78832 23.8164 8.98652 21.2603 10.1048C21.0206 10.1847 21.0206 10.3445 21.0206 10.5841C21.0206 11.9421 21.0206 13.2202 21.0206 14.5781C21.0206 16.5751 21.0206 18.5721 21.0206 20.649ZM9.83741 37.5037C9.83741 37.4239 9.83741 37.2641 9.83741 37.1842C9.83741 33.9091 9.83741 30.634 9.83741 27.359C9.83741 27.0394 9.67765 26.9596 9.43801 26.8797C7.0416 25.7614 4.72508 24.7229 2.32867 23.6046C2.16891 23.5247 2.08903 23.5247 1.84939 23.4448C1.84939 23.6046 1.84939 23.7644 1.84939 23.9241C1.84939 27.1193 1.84939 30.3145 1.84939 33.5097C1.84939 33.8293 1.92927 33.989 2.24879 34.0689C4.6452 35.1872 7.0416 36.3055 9.35813 37.4239C9.51789 37.4239 9.67765 37.5037 9.83741 37.5037ZM11.6747 37.4239C11.9143 37.344 12.0741 37.2641 12.2338 37.1842C14.3906 36.1458 16.5473 35.1872 18.784 34.1488C19.1035 33.989 19.1834 33.8293 19.1834 33.5097C19.1834 30.3145 19.1834 27.1992 19.1834 24.004C19.1834 23.8442 19.1834 23.7644 19.1834 23.6046C19.0236 23.6845 18.8639 23.6845 18.784 23.7644C16.5473 24.8028 14.3107 25.7614 12.0741 26.7998C11.7545 26.9596 11.6747 27.1193 11.6747 27.4388C11.6747 30.634 11.6747 33.7494 11.6747 36.9446C11.6747 37.0245 11.6747 37.1842 11.6747 37.4239ZM11.7545 6.67C11.7545 6.82976 11.7545 6.90964 11.7545 6.98952C11.7545 10.1847 11.7545 13.4598 11.7545 16.655C11.7545 16.9745 11.9143 17.0544 12.1539 17.1343C14.3906 18.1727 16.5473 19.1313 18.784 20.1697C18.9437 20.2496 19.0236 20.2496 19.1834 20.3295C19.1834 20.2496 19.1834 20.1697 19.1834 20.1697C19.1834 16.8947 19.1834 13.6995 19.1834 10.4244C19.1834 10.2646 19.0236 10.1048 18.8639 10.025C17.9852 9.62556 17.1065 9.22616 16.2278 8.82676C14.79 8.10784 13.2723 7.38892 11.7545 6.67ZM37.3961 22.007C37.2363 21.9271 37.2363 21.9271 37.1564 21.8472C34.8399 20.8088 32.6033 19.6905 30.2867 18.652C30.127 18.5721 29.8074 18.5721 29.6477 18.652C27.411 19.6905 25.1744 20.7289 22.9378 21.7673C22.778 21.8472 22.6981 21.9271 22.5384 21.9271C22.6182 22.007 22.6182 22.007 22.6182 22.007C25.0146 23.1253 27.3312 24.1638 29.7276 25.2022C29.8075 25.2821 30.0471 25.2022 30.127 25.2022C32.5234 24.2436 34.9198 23.1253 37.3961 22.007ZM3.20735 22.007C3.28723 22.0869 3.28723 22.0869 3.36711 22.0869C5.76352 23.2052 8.08004 24.2436 10.4764 25.2821C10.6362 25.362 10.8759 25.2821 11.0356 25.2022C13.1924 24.2436 15.2693 23.2851 17.426 22.2466C17.6657 22.1667 17.9053 22.007 18.1449 21.9271C17.9053 21.8472 17.8254 21.7673 17.6657 21.6875C15.8284 20.8088 13.9113 20.01 12.0741 19.0514C11.1155 18.5721 10.2368 18.4923 9.35813 19.0514C9.19837 19.1313 9.11849 19.2112 8.95873 19.2112C7.0416 20.2496 5.12448 21.1283 3.20735 22.007ZM27.6507 5.23215C27.5708 5.15227 27.4909 5.07239 27.411 5.07239C25.1744 4.03395 22.8579 2.99551 20.6212 1.95706C20.4615 1.87718 20.2218 1.95706 20.0621 1.95706C18.784 2.51623 17.5059 3.07539 16.3077 3.71443C15.1894 4.19371 14.0711 4.67299 12.9527 5.23215C15.1894 6.27059 17.3461 7.22916 19.5029 8.2676C20.0621 8.58712 20.5413 8.50724 21.1005 8.2676C23.2573 7.22916 25.414 6.19071 27.6507 5.23215Z" fill="url(#paint0_linear)"/>
<defs>
<linearGradient id="paint0_linear" x1="39" y1="23.5" x2="1.09417e-07" y2="24.5" gradientUnits="userSpaceOnUse">
<stop stop-color="#2153DA"/>
<stop offset="1" stop-color="#072C8D"/>
</linearGradient>
</defs>
</svg>
