<svg width="41" height="42" viewBox="0 0 41 42" fill="none" xmlns="http://www.w3.org/2000/svg">
<path d="M39.8961 18.7663C40.6234 25.4156 38.4416 31.1299 33.5584 35.8052C29.7143 39.3377 25.1429 41.1039 19.3247 41.1039H19.2208C12.2597 40.7922 6.75325 37.4676 2.90909 31.4416C1.24675 28.8442 0.311688 25.9351 0.103896 22.7143C0.103896 22.1948 0 21.6754 0 21.1559C0 20.5325 0.415584 20.013 1.03896 20.013C1.66234 20.013 2.07792 20.4286 2.07792 21.1559C2.07792 23.8572 2.5974 26.2468 3.63636 28.4286C5.92208 33.4156 9.66234 36.7403 14.7532 38.1948C20.987 40.065 26.7013 38.8182 31.6883 34.5585C35.3247 31.4416 37.4026 27.078 37.7143 22.2987C38.026 17.4156 36.3636 12.8442 33.1429 9.20783C29.9221 5.36368 25.6623 3.28576 20.5714 3.07796C20.3636 3.07796 20.1558 3.07796 19.9481 3.07796C19.4286 3.07796 19.013 2.55848 19.013 2.039C19.013 1.51952 19.3247 1.00004 19.7403 1.00004C20.3636 0.896145 21.0909 0.896145 22.026 1.00004C25.4545 1.31173 28.4675 2.45459 31.1688 4.22082C36.2597 7.85718 39.1688 12.7403 39.8961 18.7663ZM7.79221 22.091C11.7403 22.091 15.7922 22.091 19.7403 22.091C20.6753 22.091 21.0909 21.6754 21.0909 20.7403C21.0909 19.1819 21.0909 17.5195 21.0909 15.9611V11.7013C21.0909 10.6624 21.0909 9.72731 21.0909 8.68835C21.0909 8.16887 20.8831 7.75329 20.4675 7.5455C20.1558 7.3377 19.7403 7.3377 19.4286 7.5455C19.1169 7.75329 18.9091 8.16887 18.9091 8.58446C18.9091 10.9741 18.9091 13.2598 18.9091 15.6494V19.078C18.9091 19.4935 18.5974 19.9091 18.0779 19.9091H11.6364C10.2857 19.9091 8.93507 19.9091 7.58442 19.9091C7.16883 19.9091 6.85714 20.013 6.64935 20.3247C6.44156 20.5325 6.33766 20.8442 6.44156 21.1559C6.54545 21.6754 7.06493 22.091 7.79221 22.091ZM3.63636 12.5325C4.25974 12.5325 4.67532 12.013 4.67532 11.4935C4.67532 10.8702 4.25974 10.4546 3.63636 10.4546C3.32468 10.4546 3.11688 10.5585 2.90909 10.7663C2.7013 10.9741 2.5974 11.2858 2.5974 11.5974C2.5974 11.9091 2.7013 12.1169 2.90909 12.3247C3.11688 12.4286 3.32468 12.5325 3.63636 12.5325ZM10.4935 5.67537C11.1169 5.67537 11.5325 5.25978 11.5325 4.6364C11.5325 4.32472 11.4286 4.11692 11.2208 3.90913C11.013 3.70134 10.8052 3.59744 10.4935 3.59744C9.87013 3.59744 9.35065 4.01303 9.35065 4.6364C9.45455 5.15589 9.87013 5.67537 10.4935 5.67537Z" fill="url(#paint0_linear)"/>
<defs>
<linearGradient id="paint0_linear" x1="39.999" y1="21.0006" x2="0" y2="21.0006" gradientUnits="userSpaceOnUse">
<stop stop-color="#2153DA"/>
<stop offset="1" stop-color="#072C8D"/>
</linearGradient>
</defs>
</svg>
