<svg width="30" height="40" viewBox="0 0 30 40" fill="none" xmlns="http://www.w3.org/2000/svg">
<path d="M28.0198 38.1024C28.0198 37.9026 28.0198 37.8027 28.0198 37.603C28.0198 34.6067 28.0198 31.6104 28.0198 28.6141C28.0198 24.5192 24.1584 21.0235 20.198 20.3244C19.5049 20.2245 18.9109 20.2245 18.2178 20.2245C16.6337 20.2245 15.0495 20.2245 13.4653 20.3244C11.2871 20.5241 8.51485 21.5229 7.12871 23.2208C6.63366 23.7202 6.33663 24.4193 5.84158 25.1184C6.13861 25.1184 6.33663 25.1184 6.43564 25.1184C9.40594 25.1184 12.2772 25.1184 15.2475 25.1184C16.2376 25.1184 16.5347 25.4181 16.5347 26.4168C16.5347 30.5117 16.5347 34.6067 16.5347 38.7016C16.5347 39.7004 16.2376 40 15.2475 40C10.5941 40 5.94059 40 1.28713 40C0.29703 40 0 39.6005 0 38.6017C0 34.5068 0 30.4119 0 26.3169C0 25.3182 0.29703 24.9187 1.38614 24.9187C2.17822 24.9187 2.87129 24.9187 3.66337 24.9187H3.76238C5.14851 21.5229 8.51485 19.2257 12.1782 18.3268C12.0792 18.227 12.0792 18.1271 11.9802 18.1271C10.495 16.8287 9.70297 15.0309 9.60396 13.0334C9.60396 10.8361 9.50495 8.53894 9.70297 6.34166C10.099 1.14809 15.9406 -1.74832 20.297 1.14809C22.3762 2.54636 23.4653 4.54389 23.5644 7.0408C23.5644 9.03833 23.5644 10.936 23.5644 12.9335C23.5644 14.931 22.7723 16.7288 21.2871 18.1271C21.1881 18.227 21.0891 18.227 20.9901 18.3268C21.6832 18.5266 22.2772 18.7263 22.8713 19.026C26.4356 20.7239 29.4059 23.5204 29.901 27.4156C30 28.0148 30 28.6141 30 29.2134C30 32.3095 30 35.5056 30 38.6017C30 39.6005 29.604 40 28.6139 40C26.7327 40 23.8614 40 21.9802 40C21.6832 40 21.4851 40 21.1881 39.9001C20.7921 39.7004 20.5941 39.4007 20.5941 38.9014C20.5941 38.5019 20.8911 38.1023 21.2871 38.0025C21.4851 37.9026 21.6832 37.9026 21.8812 37.9026C23.6634 38.1023 26.3366 38.1024 28.0198 38.1024ZM2.07921 27.2158C2.07921 30.9113 2.07921 34.5068 2.07921 38.1024C6.23762 38.1024 10.396 38.1024 14.5545 38.1024C14.5545 34.4069 14.5545 30.8114 14.5545 27.2158C13.8614 27.2158 13.1683 27.2158 12.3762 27.2158C12.3762 27.6153 12.3762 27.915 12.3762 28.2146C12.2772 29.7127 11.2871 30.7115 9.80198 30.7115C8.71287 30.7115 7.72277 30.7115 6.63366 30.7115C5.14851 30.6116 4.15842 29.6129 4.15842 28.1147C4.15842 27.8151 4.15842 27.5155 4.15842 27.2158C3.46535 27.2158 2.77228 27.2158 2.07921 27.2158ZM11.5842 10.7362C11.5842 11.5352 11.5842 12.2344 11.5842 12.9335C11.6832 13.6326 11.6832 14.2319 11.9802 14.8312C12.6733 16.6289 13.9604 17.7276 15.8416 17.9273C17.8218 18.227 19.4059 17.5278 20.5941 15.8299C21.7822 14.2319 21.4851 12.4341 21.4851 10.6363C18.2178 13.0334 14.9505 13.0334 11.5842 10.7362ZM21.3861 6.24179C20.9901 3.94463 18.8119 2.24673 16.5347 2.24673C13.9604 2.34661 12.0792 4.24426 11.8812 6.24179C14.9505 6.24179 18.1188 6.24179 21.3861 6.24179ZM12.1782 8.33919C13.3663 9.93721 14.9505 10.4366 16.8317 10.4366C18.5149 10.3367 19.901 9.83734 20.9901 8.33919C18.0198 8.33919 15.1485 8.33919 12.1782 8.33919ZM10.396 27.3157C9.0099 27.3157 7.62376 27.3157 6.13861 27.3157C6.13861 27.6153 6.13861 27.915 6.13861 28.2146C6.13861 28.6141 6.33663 28.8138 6.73267 28.8138C7.72277 28.8138 8.71287 28.8138 9.70297 28.8138C10.099 28.8138 10.297 28.6141 10.297 28.3145C10.396 27.915 10.396 27.6153 10.396 27.3157Z" fill="url(#paint0_linear)"/>
<defs>
<linearGradient id="paint0_linear" x1="30" y1="27" x2="1.27941e-06" y2="27" gradientUnits="userSpaceOnUse">
<stop stop-color="#2153DA"/>
<stop offset="1" stop-color="#072C8D"/>
</linearGradient>
</defs>
</svg>
