<svg width="23" height="31" viewBox="0 0 23 31" fill="none" xmlns="http://www.w3.org/2000/svg">
<path d="M22.2 21.0025C22.1 17.7025 19.5 15.1025 16.2 15.0025C12.1 15.0025 10.4 15.0025 6.1 15.0025C2.9 15.0025 0.2 17.6025 0.1 20.7025C0 22.7025 0 24.6025 0 26.5025C0 27.3025 0 28.0025 0 28.8025C0 29.5025 0.4 29.9025 1.1 30.0025C1.2 30.0025 1.3 30.0025 1.5 30.0025C1.5 30.0025 1.6 30.0025 1.7 30.0025H20.8C21 30.0025 21.1 30.0025 21.3 30.0025C22 29.9025 22.3 29.6025 22.3 28.9025V26.7025C22.2 24.8025 22.2 22.9025 22.2 21.0025ZM20.2 27.9025C20.1 28.0025 20.1 28.0025 20.2 27.9025C17.5 28.0025 15.6 28.0025 13.4 28.0025H8.7C6.5 28.0025 4.6 28.0025 2.1 28.0025H2V27.9025C2 26.4025 2 25.0025 2 23.5025V21.1025C2 19.3025 3.3 17.7025 5 17.2025C5.4 17.1025 5.8 17.0025 6.3 17.0025C7.5 17.0025 8.5 17.0025 9.4 17.0025C9.9 17.0025 10.3 17.0025 10.7 17.0025C12.2 17.0025 13.7 17.0025 15.8 17.0025C17.9 17.0025 19.3 18.3025 19.7 19.6025C19.9 20.2025 20 20.8025 20 21.5025C20 22.8025 20 24.0025 20 25.3025C20.2 26.2025 20.2 27.0025 20.2 27.9025Z" fill="#2153DA"/>
<path d="M11.1 13.3025C11.2 13.3025 11.2 13.3025 11.3 13.3025C13.1 13.3025 14.8 12.5025 16 11.3025C17.2 10.0025 17.9 8.30251 17.9 6.60251C17.7 2.80251 14.7 -0.0974902 11 0.00250981C7.3 0.10251 4.4 3.10251 4.5 6.70251C4.5 8.50251 5.3 10.3025 6.6 11.5025C7.9 12.7025 9.4 13.3025 11.1 13.3025ZM11.2 2.00251C13.7 2.00251 15.7 4.00251 15.8 6.60251C15.9 9.10251 13.8 11.2025 11.3 11.3025C8.8 11.4025 6.6 9.40251 6.6 6.70251C6.6 5.50251 7 4.40251 7.8 3.50251C8.6 2.60251 9.8 2.00251 11.1 2.00251H11.2Z" fill="#2153DA"/>
<path d="M16.5 21.0025C16.1 21.0025 15.7 21.0025 15.3 21.0025H14.3C13.9 21.0025 13.5 21.0025 13.1 21.0025C12.7 21.0025 12.4 21.1025 12.2 21.3025C12 21.5025 11.9 21.7025 11.9 22.0025C11.9 22.6025 12.4 23.0025 13 23.0025C13.6 23.0025 14.1 23.0025 14.7 23.0025C15.3 23.0025 15.8 23.0025 16.4 23.0025C17.1 23.0025 17.5 22.6025 17.5 22.0025C17.5 21.7025 17.4 21.5025 17.2 21.3025C17.2 21.1025 16.9 21.0025 16.5 21.0025Z" fill="#2153DA"/>
</svg>
