<svg width="30" height="25" viewBox="0 0 30 25" fill="none" xmlns="http://www.w3.org/2000/svg">
<path d="M19.5678 16.8609V22.8291C19.5678 23.5466 19.046 24.1336 18.3285 24.1336H1.30452C0.587034 24.1336 0 23.5466 0 22.8291V1.30452C0 0.587034 0.587034 0 1.30452 0H18.3285C19.046 0 19.5678 0.587034 19.5678 1.30452V7.27272C19.5678 7.99021 18.9808 8.57724 18.2633 8.57724C17.5458 8.57724 16.9588 7.99021 16.9588 7.27272V2.60904H2.60904V21.5246H16.9588V16.8609C16.9588 16.1434 17.5458 15.5564 18.2633 15.5564C18.9808 15.5564 19.5678 16.1434 19.5678 16.8609ZM29.6126 11.0884L24.4924 5.93555C23.9706 5.41375 23.1552 5.41375 22.6334 5.93555C22.1116 6.45736 22.1116 7.27267 22.6334 7.79448L25.536 10.7297L9.7187 10.7623C9.00121 10.7623 8.41418 11.3493 8.41418 12.0668C8.41418 12.7843 9.00121 13.3713 9.7187 13.3713L25.536 13.3387L22.6334 16.2739C22.1116 16.7957 22.1442 17.6111 22.6334 18.1329C22.8943 18.3938 23.2205 18.5242 23.5466 18.5242C23.8727 18.5242 24.2315 18.3938 24.4598 18.1329L29.58 12.98C30.1344 12.4256 30.1345 11.6102 29.6126 11.0884Z" fill="#2153DA"/>
</svg>
