<svg width="25" height="25" viewBox="0 0 25 25" fill="none" xmlns="http://www.w3.org/2000/svg">
<path d="M24.7363 1.29692C24.3671 0.548292 23.5759 0.126529 22.7743 0H2.21519C1.61392 0.126529 1.01266 0.358499 0.611814 0.843526C0.263713 1.22311 0.0949367 1.71868 0 2.20371V22.8806C0.116034 23.3762 0.28481 23.8929 0.654008 24.2619C1.03376 24.6837 1.57173 24.9262 2.12025 25H22.9008C24.0401 24.884 25.0211 23.8612 24.9895 22.7014C24.9895 16.0586 24.9895 9.41586 24.9895 2.77309C25.0105 2.27752 24.9895 1.75032 24.7363 1.29692ZM23.4283 22.7014C23.4494 23.0915 23.1013 23.4395 22.711 23.4289C21.8671 23.45 21.0127 23.4289 20.1688 23.4395C19.8418 23.4395 19.462 23.4289 19.2089 23.1864C18.808 22.849 18.7447 22.2902 18.6498 21.8051C18.1435 21.879 17.6266 21.879 17.1097 21.8262C17.0675 22.3218 16.9937 22.9017 16.5401 23.197C16.2869 23.3973 15.9494 23.4289 15.6435 23.4289C14.8207 23.4289 13.9979 23.4289 13.1751 23.4289C13.2489 23.1653 13.3017 22.8912 13.3017 22.617C13.3017 20.3712 13.3017 18.1253 13.3017 15.8688C13.3017 15.426 13.3333 14.962 13.1751 14.5297C12.943 13.8127 12.3418 13.2223 11.6034 13.0325C11.2658 12.9481 10.9072 12.927 10.5591 12.927C9.41983 12.927 8.29114 12.9165 7.1519 12.9376C6.47679 12.9481 5.79114 13.2223 5.3692 13.7706C4.9789 14.2029 4.82067 14.8039 4.82067 15.3733C4.82067 15.8477 4.77848 16.3328 4.92616 16.7862C5.11603 17.4821 5.65401 18.0725 6.32911 18.3151C6.77215 18.4521 7.24684 18.4627 7.70042 18.6208C7.827 18.8633 7.92194 19.127 7.97468 19.4011C8.49156 19.3378 8.98734 19.1797 9.50422 19.1269C9.38819 18.6314 9.27215 18.1147 8.92405 17.714C8.61814 17.3345 8.16456 17.0919 7.68987 16.997C7.34177 16.9338 6.95148 16.9338 6.64557 16.7334C6.30802 16.4277 6.38186 15.9426 6.38186 15.5314C6.39241 15.2784 6.35021 14.9726 6.55063 14.7722C6.72996 14.5086 7.07806 14.477 7.37342 14.4665C8.51266 14.4665 9.6519 14.4559 10.7806 14.4665C11.0759 14.477 11.4135 14.5403 11.5823 14.8039C11.7089 14.962 11.7089 15.1729 11.7089 15.3627C11.7089 17.7457 11.7089 20.1286 11.7089 22.5116C11.6983 22.7119 11.7194 22.965 11.5401 23.1126C11.2975 23.3551 10.9388 23.3973 10.6118 23.4078C7.85865 23.4078 5.11603 23.4078 2.36287 23.4078C1.91983 23.45 1.52954 23.0388 1.57173 22.596C1.57173 15.8477 1.57173 9.09954 1.57173 2.35133C1.54008 1.92957 1.93038 1.54998 2.35232 1.58161C5.15823 1.58161 7.96413 1.58161 10.77 1.58161C11.2658 1.59216 11.7827 1.62379 12.2363 1.84521C12.5527 2.11936 12.5105 2.59384 12.5844 2.98397C12.6055 5.20877 12.5844 7.43357 12.5949 9.65837C12.5949 9.89034 12.6055 10.1434 12.4684 10.3332C12.2574 10.5441 11.962 10.6073 11.6772 10.6706C11.7511 11.1873 11.8882 11.6934 11.9409 12.21C12.6582 12.0624 13.4177 11.7883 13.8186 11.1345C14.0928 10.7233 14.1456 10.2172 14.1456 9.74272C14.1456 7.62337 14.1456 5.51455 14.1456 3.39519C14.135 2.78364 14.1034 2.16154 13.8819 1.59216C16.7932 1.59216 19.6941 1.59216 22.6055 1.59216C23.0274 1.54998 23.4283 1.94011 23.3966 2.36187C23.3966 5.58836 23.3966 8.81485 23.3966 12.0413C23.3966 12.4736 23.3017 12.9165 23.0063 13.2434C22.6793 13.5808 22.2046 13.6862 21.7616 13.7706C21.8038 14.2872 21.8776 14.8039 21.9409 15.31C22.4367 15.2256 22.9536 15.1413 23.3966 14.8671C23.4283 17.4926 23.4283 20.097 23.4283 22.7014Z" fill="white"/>
<path d="M7.1625 6.29486C6.88824 6.41084 6.62452 6.6639 6.63507 6.98022C6.59288 7.42308 7.00427 7.84484 7.44731 7.82375C7.8798 7.8343 8.249 7.41253 8.21735 6.99077C8.2279 6.48465 7.62663 6.08398 7.1625 6.29486Z" fill="white"/>
</svg>
