<svg width="51" height="21" viewBox="0 0 51 21" fill="none" xmlns="http://www.w3.org/2000/svg">
<path d="M31.9365 9.02734C31.9365 10.071 31.5947 10.8708 30.9111 11.4268C30.2275 11.9827 29.2546 12.2607 27.9922 12.2607H26.9531V16H25.3193V6.00586H28.1973C29.446 6.00586 30.3802 6.26107 31 6.77148C31.6243 7.2819 31.9365 8.03385 31.9365 9.02734ZM26.9531 10.8867H27.8213C28.6598 10.8867 29.2751 10.7409 29.667 10.4492C30.0589 10.1576 30.2549 9.70182 30.2549 9.08203C30.2549 8.50781 30.0794 8.07943 29.7285 7.79688C29.3776 7.51432 28.8307 7.37305 28.0879 7.37305H26.9531V10.8867ZM42.0605 10.9072C42.0605 12.557 41.6025 13.8193 40.6865 14.6943C39.7705 15.5648 38.4512 16 36.7285 16H33.9326V6.00586H37.0225C38.613 6.00586 39.8503 6.43424 40.7344 7.29102C41.6185 8.14779 42.0605 9.35319 42.0605 10.9072ZM40.3379 10.9619C40.3379 8.56934 39.2191 7.37305 36.9814 7.37305H35.5664V14.626H36.7285C39.1348 14.626 40.3379 13.4046 40.3379 10.9619ZM45.834 16H44.2139V6.00586H49.8535V7.38672H45.834V10.5107H49.6006V11.8984H45.834V16Z" fill="white"/>
<path d="M15.6106 5.71303L15.6104 5.71328L15.6181 5.72015C15.7696 5.85464 15.85 6.04997 15.85 6.27615V20.0455C15.85 20.4896 15.4916 20.85 15.0588 20.85H0.941176C0.50836 20.85 0.15 20.4896 0.15 20.0455V0.954545C0.15 0.510387 0.50836 0.15 0.941176 0.15H9.83531C10.0288 0.15 10.226 0.22815 10.3871 0.391505C10.3872 0.391559 10.3872 0.391613 10.3873 0.391667L15.6106 5.71303ZM14.1176 6.83182H14.4737L14.225 6.57704L9.56615 1.80431L9.52201 1.75909H9.45881H9.41176H9.26176V1.90909V6.68182V6.83182H9.41176H14.1176ZM1.73235 19.0909V19.2409H1.88235H14.1176H14.2676V19.0909V8.59091V8.44091H14.1176H8.44706C8.02375 8.44091 7.67941 8.06664 7.67941 7.61251V1.90909V1.75909H7.52941H1.88235H1.73235V1.90909V19.0909ZM10.7912 13.483C10.7912 13.8555 10.4799 14.1682 10.1176 14.1682H5.88235C5.52012 14.1682 5.20882 13.8555 5.20882 13.483C5.20882 13.1104 5.52012 12.7977 5.88235 12.7977H10.1176C10.5006 12.7977 10.7912 13.1076 10.7912 13.483Z" fill="white" stroke="#84D04F" stroke-width="0.3"/>
</svg>
