<svg width="21" height="15" viewBox="0 0 21 15" fill="none" xmlns="http://www.w3.org/2000/svg">
<path d="M16.575 8.775C16.425 8.775 16.275 8.775 16.2 8.775C14.775 8.775 13.275 8.775 11.85 8.775C11.475 8.775 11.4 8.775 11.4 8.325C11.4 5.7 11.4 3 11.4 0.375C11.4 0 11.4 0 11.775 0C14.475 0 17.1 0 19.8 0C20.1 0 20.175 0.075 20.175 0.375C20.175 3.15 20.175 5.85 20.175 8.625C20.175 11.7 18.075 14.25 15.075 14.925C14.475 15 13.875 15 13.35 15C12.9 15 12.525 15 12.075 15C12 15 11.925 14.925 11.85 14.925C11.925 14.85 11.925 14.775 12 14.7C12.6 14.325 13.275 14.025 13.875 13.65C15.15 12.825 15.975 11.625 16.35 10.125C16.5 9.675 16.5 9.225 16.575 8.775Z" fill="white"/>
<path d="M8.7 4.725C8.7 6.15 8.775 7.575 8.7 9C8.55 11.175 7.575 12.825 5.7 14.025C4.725 14.7 3.525 15 2.325 15C1.8 15 1.275 15 0.75 15C0.675 15 0.525 14.925 0.45 14.925C0.525 14.85 0.6 14.775 0.675 14.7C1.275 14.4 1.8 14.1 2.4 13.725C4.125 12.675 5.025 11.025 5.175 9.075C5.175 8.85 5.1 8.775 4.875 8.85C3.375 8.85 1.875 8.85 0.375 8.85C0 8.85 0 8.85 0 8.475C0 5.7 0 3.075 0 0.375C0 0 0 0 0.375 0C3 0 5.7 0 8.325 0C8.7 0 8.7 0 8.7 0.45C8.775 1.875 8.775 3.3 8.7 4.725Z" fill="white"/>
</svg>
