<svg width="20" height="17" viewBox="0 0 20 17" fill="none" xmlns="http://www.w3.org/2000/svg">
<path d="M15.8674 15.1066V16.1934C15.8674 16.6716 15.4544 16.9542 14.9762 16.9542H0.782494C0.3043 16.9542 0 16.6933 0 16.1934V5.43403C0 4.95583 0.3043 4.52111 0.782494 4.52111H3.32562C3.80382 4.52111 4.19507 4.91236 4.19507 5.39055C4.19507 5.86875 3.80382 6.26 3.32562 6.26H1.73889V15.2153H14.1285V15.1066C14.1285 14.6284 14.5197 14.2371 14.9979 14.2371C15.4978 14.2154 15.8674 14.6284 15.8674 15.1066ZM19.7364 6.99903L14.3458 12.4983C14.085 12.7591 13.7155 12.8243 13.3894 12.6939C13.0634 12.5635 12.846 12.2374 12.846 11.8897V9.52041C11.1071 9.47694 6.93382 9.65083 5.4123 12.3244C5.26014 12.6069 4.95584 12.7808 4.65153 12.7808C4.58632 12.7808 4.49938 12.7808 4.43417 12.7591C4.04292 12.6504 3.78209 12.3026 3.78209 11.9114C3.78209 11.7592 3.78208 8.41188 6.30347 5.91222C7.89021 4.30375 10.0203 3.4343 12.846 3.28215V0.869445C12.846 0.521668 13.0634 0.195624 13.3894 0.0652069C13.7155 -0.0652097 14.1067 3.9353e-06 14.3458 0.260837L19.7581 5.76007C20.0842 6.10785 20.0842 6.65125 19.7364 6.99903ZM17.8671 6.36868L14.5632 3.02132V4.08639C14.5632 4.56458 14.1937 4.95583 13.6937 4.95583C10.9985 4.95583 8.93353 5.67313 7.52069 7.10771C6.8686 7.75979 6.43388 8.47708 6.15131 9.17264C8.19451 7.95542 10.7811 7.73805 12.3678 7.73805C13.1938 7.73805 13.7372 7.80327 13.8024 7.80327C14.2371 7.84674 14.5632 8.23799 14.5632 8.67271V9.73777L17.8671 6.36868Z" fill="#2153DA"/>
</svg>
