<svg width="15" height="19" viewBox="0 0 15 19" fill="none" xmlns="http://www.w3.org/2000/svg">
<path d="M7.4 4.38C7.26 4.24001 7.08 4.2 6.9 4.2H0.920001C0.520001 4.2 0 4.44 0 4.82V17.48C0 17.88 0.520001 18.38 0.920001 18.38H10.4C10.8 18.38 11 17.86 11 17.48V8.33999C11 8.15999 10.98 8.00001 10.84 7.86001L7.4 4.38ZM9.38 8.4H6.8V5.82L9.38 8.4ZM1.6 16.8V5.6H5.4V9.03999C5.4 9.43999 5.76 9.8 6.16 9.8H9.6V16.8H1.6ZM14.68 3.6L11.2 0.119995C11.08 -4.88758e-06 10.96 0 10.8 0H4.82C4.48 0 4.2 0.18 4.2 0.5V2.42C4.2 2.75999 4.46 3.02 4.8 3.02C5.14 3.02 5.4 2.74 5.4 2.42V1.18H9.6V4.56001C9.6 4.90001 9.88 5.18001 10.22 5.18001H13.6V12.58H12.78C12.44 12.58 12.18 12.84 12.18 13.18C12.18 13.52 12.46 13.78 12.78 13.78H14.3C14.64 13.78 14.8 13.48 14.8 13.14V4C14.8 3.88 14.78 3.72 14.68 3.6ZM10.8 1.4L13.38 4H10.8V1.4Z" fill="#2153DA"/>
</svg>
