<svg width="175" height="24" viewBox="0 0 175 24" fill="none" xmlns="http://www.w3.org/2000/svg">
<g clip-path="url(#clip0)">
<path d="M24.6667 2.56641H14.1667V21.4331H24.6667V2.56641Z" fill="#FF5F00"/>
<path d="M14.8331 11.9996C14.8331 8.33293 16.5331 4.83293 19.4331 2.56627C14.1998 -1.53373 6.66648 -0.633732 2.56648 4.5996C-1.53352 9.83293 -0.633519 17.3329 4.59981 21.4329C8.96648 24.8663 15.0665 24.8663 19.4331 21.4329C16.5331 19.1663 14.8331 15.6996 14.8331 11.9996Z" fill="#EB001B"/>
<path d="M38.8334 11.9998C38.8334 18.6332 33.4667 23.9998 26.8334 23.9998C24.1334 23.9998 21.5334 23.0998 19.4334 21.4332C24.6334 17.3332 25.5334 9.79985 21.4334 4.59984C20.8334 3.83318 20.1668 3.16651 19.4001 2.56651C24.6001 -1.53349 32.1668 -0.633488 36.2668 4.59984C37.9334 6.69985 38.8334 9.29984 38.8334 11.9998Z" fill="#F79E1B"/>
<path d="M37.7001 19.4332V19.0332H37.8668V18.9666H37.4668V19.0332H37.6334V19.4332H37.7001ZM38.4668 19.4332V18.9666H38.3334L38.2001 19.2999L38.0668 18.9666H37.9668V19.4332H38.0668V19.0999L38.2001 19.3999H38.3001L38.4334 19.0999V19.4666L38.4668 19.4332Z" fill="#F79E1B"/>
</g>
<mask id="mask0" mask-type="alpha" maskUnits="userSpaceOnUse" x="54" y="4" width="50" height="16">
<path d="M54.0001 4H103.409V20H54.0001" fill="white"/>
</mask>
<g mask="url(#mask0)">
<path d="M71.4089 19.698L73.9246 4.30176H77.8491L75.434 19.698H71.4089Z" fill="white"/>
</g>
<mask id="mask1" mask-type="alpha" maskUnits="userSpaceOnUse" x="54" y="4" width="50" height="16">
<path d="M54.0001 4H103.409V20H54.0001" fill="white"/>
</mask>
<g mask="url(#mask1)">
<path d="M89.9246 4.7044C89.1195 4.40252 87.912 4 86.3019 4C82.3774 4 79.5598 6.11321 79.5598 9.13208C79.5598 11.3459 81.5724 12.5535 83.0818 13.3585C84.5912 14.1635 85.195 14.566 85.195 15.2704C85.195 16.2767 83.9875 16.7799 82.7799 16.7799C81.1699 16.7799 80.3648 16.5786 79.0567 15.9748L78.5535 15.7736L77.9497 19.2956C78.8554 19.6981 80.5661 20.1006 82.3774 20.1006C86.6038 20.1006 89.3208 17.9874 89.3208 14.8679C89.3208 13.0566 88.3145 11.7484 86.0001 10.6415C84.5912 9.93711 83.7862 9.43396 83.7862 8.72956C83.7862 8.02516 84.4906 7.42138 86.1007 7.42138C87.4089 7.42138 88.3145 7.72327 89.1196 8.02516H89.3208L89.9246 4.7044Z" fill="white"/>
</g>
<path d="M100.189 4.30176H97.0692C96.1636 4.30176 95.3585 4.60364 94.956 5.60993L89.0189 19.7986H93.2453C93.2453 19.7986 93.9497 17.8867 94.0504 17.4841H99.1824C99.2831 17.9873 99.6856 19.7986 99.6856 19.7986H103.409L100.189 4.30176ZM95.2579 14.264C95.5598 13.3584 96.868 9.93698 96.868 9.93698C96.868 9.93698 97.1699 9.03132 97.3711 8.42754L97.673 9.73572C97.673 9.73572 98.478 13.459 98.5787 14.1634H95.2579V14.264Z" fill="white"/>
<path d="M68.0881 4.3018L64.1636 14.8678L63.6604 12.654C62.956 10.1383 60.6416 7.52193 58.1259 6.21375L61.7485 19.698H65.9749L72.2139 4.20117H68.0881" fill="white"/>
<path d="M60.5409 4.30176H54.1007L54.0001 4.60364C59.0315 5.91182 62.3523 8.93069 63.6604 12.654L62.3523 5.60993C62.0504 4.60364 61.346 4.30176 60.5409 4.30176Z" fill="white"/>
<path d="M168.714 4H158.086C158.657 7.54286 162.086 10.8571 165.857 10.8571H174.314C174.429 10.5143 174.429 10.0571 174.429 9.71429C174.429 6.51429 171.914 4 168.714 4Z" fill="url(#paint0_linear)"/>
<path d="M159 11.4287V20.0001H164.143V15.4287H168.714C171.229 15.4287 173.4 13.7144 174.086 11.4287H159Z" fill="#4DB45F"/>
<path d="M140.714 4V20H145.286C145.286 20 146.429 20 147 18.8571C150.086 12.6857 151 10.8571 151 10.8571H151.571V20H156.714V4H152.143C152.143 4 151 4.11429 150.429 5.14286C147.8 10.4 146.429 13.1429 146.429 13.1429H145.857V4H140.714Z" fill="#4DB45F"/>
<path d="M119 20V4H124.143C124.143 4 125.629 4 126.429 6.28571C128.486 12.3429 128.714 13.1429 128.714 13.1429C128.714 13.1429 129.171 11.6571 131 6.28571C131.8 4 133.286 4 133.286 4H138.429V20H133.286V11.4286H132.714L129.857 20H127.571L124.714 11.4286H124.143V20H119Z" fill="#4DB45F"/>
<defs>
<linearGradient id="paint0_linear" x1="158.056" y1="7.42857" x2="174.429" y2="7.42857" gradientUnits="userSpaceOnUse">
<stop stop-color="#00B4E6"/>
<stop offset="1" stop-color="#088CCB"/>
</linearGradient>
<clipPath id="clip0">
<rect width="38.8333" height="24" fill="white" transform="translate(6.10352e-05 -0.000244141)"/>
</clipPath>
</defs>
</svg>
