<svg width="320" height="533" viewBox="0 0 320 533" fill="none" xmlns="http://www.w3.org/2000/svg">
<path d="M695.372 585.004L674.959 573.188L695.802 561.157L696.017 560.943V536.666L716 548.267V546.978L696.661 535.806L716 524.635V523.346L696.017 534.947V511.315L716 499.714V498.425L695.587 510.241L675.174 498.425L695.587 486.608L716 498.425V497.135L696.017 485.534V461.902L716 473.503V472.214L696.661 461.043L716 449.871V448.582L696.017 460.183V436.551L716 424.95V423.661L695.587 435.477L675.174 423.661L695.587 411.845L716 423.661V422.372L696.017 410.771V387.138L716 398.74V397.451L696.661 386.279L716 375.107V373.818L696.017 385.42V361.787L716 350.186V348.897L695.587 360.713L675.174 348.897L695.587 337.081L716 348.897V347.608L696.017 336.007V312.375L716 323.976V322.687L696.661 311.515L716 300.344V299.055L696.017 310.656V287.024L716 275.422V274.133L695.587 285.949L678.827 276.282L675.174 274.133L695.587 262.317L716 274.133V272.844L696.017 261.243V237.611L716 249.212V247.923L696.661 236.752L716 225.58V224.291L696.017 235.892V212.26L716 200.659V199.799L695.587 211.615L675.174 199.799L695.587 187.983L716 199.799V198.51L696.017 186.909V163.277L716 174.878V173.589L696.661 162.417L716 151.246V149.957L696.017 161.558V137.926L716 126.325V125.036L695.587 136.852L675.174 125.036L695.587 113.22L716 125.036V123.747L696.017 112.145V88.5131L716 100.114V98.8254L696.661 87.6538L716 76.4822V75.1931L696.017 86.7944V63.1622L716 51.5609V50.2719L695.587 62.088L678.827 52.4203L675.174 50.2719L695.587 38.4558L716 50.2719V48.9829L696.017 37.3816V13.7494L716 25.3507V24.0616L696.017 12.4604L694.943 11.8159L673.67 -0.000244141L652.612 12.0307H651.538L630.695 -0.000244141L609.638 12.0307H608.564L587.506 -0.000244141L566.449 12.0307H565.374L544.317 -0.000244141L523.259 12.0307H522.185L501.342 -0.000244141L480.285 12.0307H479.21L458.153 -0.000244141L437.095 12.0307H436.021L414.963 -0.000244141L393.906 12.0307H392.831L371.989 -0.000244141L350.931 12.0307H349.857L328.799 -0.000244141L307.742 12.0307H306.667L285.61 -0.000244141L264.552 12.0307H263.478L242.635 -0.000244141L221.578 12.0307H220.503L199.446 -0.000244141L178.388 12.0307H177.314L156.256 -0.000244141L135.199 12.0307H134.125L113.282 -0.000244141L92.2243 12.0307H91.1499L70.0924 -0.000244141L49.0349 12.0307H47.9605L26.903 -0.000244141L5.84546 12.0307H4.77109L-16.2865 -0.000244141L-37.344 12.0307H-38.4184L-59.261 -0.000244141L-80.3185 12.0307H-81.3929L-102.45 -0.000244141L-123.508 12.0307H-124.582L-145.64 -0.000244141L-166.697 12.0307H-167.772L-188.614 -0.000244141L-209.672 12.0307H-210.746L-231.804 -0.000244141L-252.861 12.0307H-253.936L-274.993 -0.000244141L-296.051 12.0307H-297.125L-317.968 -0.000244141L-339.025 12.0307H-340.1L-361.157 -0.000244141L-382 12.0307V13.3197L-361.157 1.28879L-340.744 13.1049L-361.587 25.1358L-361.802 25.3507V49.4126L-382 37.8113V39.1003L-362.232 50.4867L-382 61.8732V63.1622L-361.587 51.3461V74.9783L-382 86.7944V88.9428L-361.587 100.759V124.391L-362.876 123.747L-382 112.36V113.649L-363.521 124.391L-362.232 125.036L-382 136.422V137.711L-361.587 125.895V149.527L-382 161.343V163.492L-361.587 175.308V198.94L-363.306 197.866L-382 187.124V188.413L-363.951 198.94L-362.232 199.799L-382 211.186V212.475L-361.587 200.659V224.291L-382 236.107V238.255L-361.587 250.072V273.704L-382 261.673V262.962L-362.232 274.348L-382 285.949V287.239L-361.587 275.422V299.055L-382 310.656V312.804L-361.587 324.62V348.253L-382 336.436V337.725L-362.232 349.112L-382 360.498V361.787L-361.587 349.971V373.603L-382 385.42V387.568L-361.587 399.384V423.016L-365.24 420.868L-382 411.2V412.489L-363.521 423.231L-362.232 423.876L-382 435.262V436.551L-361.587 424.735V448.367L-382 460.183V462.332L-361.587 474.148V497.78L-363.306 496.706L-382 485.964V487.253L-363.951 497.78L-362.232 498.854L-382 509.811V511.1L-361.587 499.284V522.916L-382 534.732V536.881L-361.587 548.697V572.329L-382 560.513V561.802L-362.232 573.188L-382 584.575V585.864L-361.587 574.048V598.324L-340.529 610.355L-339.455 611L-338.381 610.355L-317.968 598.539L-297.555 610.355L-296.481 611L-295.406 610.355L-274.993 598.539L-254.58 610.355L-253.506 611L-252.432 610.355L-232.019 598.539L-211.606 610.355L-210.531 611L-209.457 610.355L-189.044 598.539L-168.631 610.355L-167.557 611L-166.483 610.355L-146.07 598.539L-125.657 610.355L-124.582 611L-123.508 610.355L-103.095 598.539L-82.6821 610.355L-81.6078 611L-80.5334 610.355L-60.1205 598.539L-39.7076 610.355L-38.6332 611L-37.5588 610.355L-17.1459 598.539L3.26697 610.355L4.34134 611L5.41571 610.355L25.8286 598.539L46.2415 610.355L47.3159 611L48.3903 610.355L68.8032 598.539L89.2161 610.355L90.2905 611L91.3648 610.355L111.778 598.539L132.191 610.355L133.265 611L134.339 610.355L154.752 598.539L175.165 610.355L176.24 611L177.314 610.355L197.727 598.539L218.14 610.355L219.214 611L220.288 610.355L240.701 598.539L261.114 610.355L262.189 611L263.263 610.355L283.676 598.539L304.089 610.355L305.163 611L306.238 610.355L326.651 598.539L347.063 610.355L348.138 611L349.212 610.355L369.625 598.539L390.038 610.355L391.112 611L392.187 610.355L412.6 598.539L433.013 610.355L434.087 611L435.161 610.355L455.574 598.539L475.987 610.355L477.061 611L478.136 610.355L498.549 598.539L518.962 610.355L520.036 611L521.11 610.355L541.523 598.539L561.936 610.355L563.011 611L564.085 610.355L584.498 598.539L604.911 610.355L605.985 611L607.06 610.355L627.472 598.539L647.885 610.355L648.96 611L650.034 610.355L670.877 598.324L671.092 598.109V573.833L692.149 585.864L712.562 574.048V572.759L695.372 585.004ZM694.728 511.315V534.947L674.315 523.131V499.499L694.728 511.315ZM635.423 276.497L631.77 274.348L652.183 262.532L672.596 274.348L652.183 286.164L635.423 276.497ZM651.753 287.239V310.871L631.34 299.055V275.422L651.753 287.239ZM631.125 273.489V249.857L651.538 238.041V261.673L631.125 273.489ZM651.753 236.107L631.34 224.291V200.659L651.753 212.475V236.107ZM651.108 237.181L630.695 248.997L610.283 237.181L630.695 225.365L651.108 237.181ZM630.051 224.291L609.638 236.107V212.475L630.051 200.659V224.291ZM630.051 249.857V273.489L609.638 261.673V238.041L630.051 249.857ZM629.621 274.348L609.208 286.164L592.448 276.497L588.795 274.348L609.208 262.532L629.621 274.348ZM630.051 275.422V299.055L609.638 310.871V287.239L630.051 275.422ZM608.564 287.239V310.871L588.151 299.055V275.422L608.564 287.239ZM588.151 273.489V249.857L608.564 238.041V261.673L588.151 273.489ZM608.564 236.107L588.151 224.291V200.659L608.564 212.475V236.107ZM607.919 237.181L587.506 248.997L567.093 237.181L587.506 225.365L607.919 237.181ZM587.076 224.291L566.663 236.107V212.475L587.076 200.659V224.291ZM587.076 249.857V273.489L566.663 261.673V238.041L587.076 249.857ZM586.432 274.348L566.019 286.164L549.259 276.497L545.606 274.348L566.019 262.532L586.432 274.348ZM587.076 275.422V299.055L566.663 310.871V287.239L587.076 275.422ZM565.374 287.239V310.871L544.961 299.055V275.422L565.374 287.239ZM544.961 273.489V249.857L565.374 238.041V261.673L544.961 273.489ZM565.374 236.107L544.961 224.291V200.659L565.374 212.475V236.107ZM564.944 237.181L544.532 248.997L524.119 237.181L544.532 225.365L564.944 237.181ZM543.887 224.291L523.474 236.107V212.475L543.887 200.659V224.291ZM543.887 249.857V273.489L523.474 261.673V238.041L543.887 249.857ZM543.242 274.348L522.829 286.164L506.069 276.497L502.417 274.348L522.829 262.532L543.242 274.348ZM543.887 275.422V299.055L523.474 310.871V287.239L543.887 275.422ZM522.4 287.239V310.871L501.987 299.055V275.422L522.4 287.239ZM501.772 273.489V249.857L522.185 238.041V261.673L501.772 273.489ZM522.4 236.107L501.987 224.291V200.659L522.4 212.475V236.107ZM521.755 237.181L501.342 248.997L480.929 237.181L501.342 225.365L521.755 237.181ZM500.697 224.291L480.285 236.107V212.475L500.697 200.659V224.291ZM500.697 249.857V273.489L480.285 261.673V238.041L500.697 249.857ZM500.268 274.348L479.855 286.164L463.095 276.497L459.442 274.348L479.855 262.532L500.268 274.348ZM500.697 275.422V299.055L480.285 310.871V287.239L500.697 275.422ZM479.21 287.239V310.871L458.797 299.055V275.422L479.21 287.239ZM458.582 273.489V249.857L478.995 238.041V261.673L458.582 273.489ZM479.21 236.107L458.797 224.291V200.659L479.21 212.475V236.107ZM478.566 237.181L458.153 248.997L437.74 237.181L458.153 225.365L478.566 237.181ZM457.508 224.291L437.095 236.107V212.475L457.508 200.659V224.291ZM457.508 249.857V273.489L437.095 261.673V238.041L457.508 249.857ZM457.078 274.348L436.665 286.164L419.905 276.497L416.253 274.348L436.665 262.532L457.078 274.348ZM457.508 275.422V299.055L437.095 310.871V287.239L457.508 275.422ZM436.021 287.239V310.871L415.608 299.055V275.422L436.021 287.239ZM415.608 273.489V249.857L436.021 238.041V261.673L415.608 273.489ZM436.021 236.107L415.608 224.291V200.659L436.021 212.475V236.107ZM435.591 237.181L415.178 248.997L394.765 237.181L415.178 225.365L435.591 237.181ZM414.534 224.291L394.121 236.107V212.475L414.534 200.659V224.291ZM414.534 249.857V273.489L394.121 261.673V238.041L414.534 249.857ZM413.889 274.348L393.476 286.164L376.716 276.497L373.063 274.348L393.476 262.532L413.889 274.348ZM414.534 275.422V299.055L394.121 310.871V287.239L414.534 275.422ZM392.831 287.239V310.871L372.418 299.055V275.422L392.831 287.239ZM372.418 273.489V249.857L392.831 238.041V261.673L372.418 273.489ZM392.831 236.107L372.418 224.291V200.659L392.831 212.475V236.107ZM392.402 237.181L371.989 248.997L351.576 237.181L371.989 225.365L392.402 237.181ZM371.344 224.291L350.931 236.107V212.475L371.344 200.659V224.291ZM371.344 249.857V273.489L350.931 261.673V238.041L371.344 249.857ZM370.914 274.348L350.501 286.164L333.741 276.497L330.089 274.348L350.501 262.532L370.914 274.348ZM371.344 275.422V299.055L350.931 310.871V287.239L371.344 275.422ZM349.857 287.239V310.871L329.444 299.055V275.422L349.857 287.239ZM329.229 273.489V249.857L349.642 238.041V261.673L329.229 273.489ZM349.857 236.107L329.444 224.291V200.659L349.857 212.475V236.107ZM349.212 237.181L328.799 248.997L308.386 237.181L328.799 225.365L349.212 237.181ZM328.155 224.291L307.742 236.107V212.475L328.155 200.659V224.291ZM328.155 249.857V273.489L307.742 261.673V238.041L328.155 249.857ZM327.725 274.348L307.312 286.164L290.552 276.497L286.899 274.348L307.312 262.532L327.725 274.348ZM328.155 275.422V299.055L307.742 310.871V287.239L328.155 275.422ZM306.667 287.239V310.871L286.254 299.055V275.422L306.667 287.239ZM286.254 273.489V249.857L306.667 238.041V261.673L286.254 273.489ZM306.667 236.107L286.254 224.291V200.659L306.667 212.475V236.107ZM306.238 237.181L285.825 248.997L265.412 237.181L285.825 225.365L306.238 237.181ZM285.18 224.291L264.767 236.107V212.475L285.18 200.659V224.291ZM285.18 249.857V273.489L264.767 261.673V238.041L285.18 249.857ZM284.535 274.348L264.123 286.164L247.362 276.497L243.71 274.348L264.123 262.532L284.535 274.348ZM285.18 275.422V299.055L264.767 310.871V287.239L285.18 275.422ZM263.478 287.239V310.871L243.065 299.055V275.422L263.478 287.239ZM243.065 273.489V249.857L263.478 238.041V261.673L243.065 273.489ZM263.478 236.107L243.065 224.291V200.659L263.478 212.475V236.107ZM263.048 237.181L242.635 248.997L222.222 237.181L242.635 225.365L263.048 237.181ZM241.991 224.291L221.578 236.107V212.475L241.991 200.659V224.291ZM241.991 249.857V273.489L221.578 261.673V238.041L241.991 249.857ZM241.561 274.348L221.148 286.164L204.388 276.497L200.735 274.348L221.148 262.532L241.561 274.348ZM241.991 275.422V299.055L221.578 310.871V287.239L241.991 275.422ZM220.503 287.239V310.871L200.09 299.055V275.422L220.503 287.239ZM199.876 273.489V249.857L220.288 238.041V261.673L199.876 273.489ZM220.503 236.107L200.09 224.291V200.659L220.503 212.475V236.107ZM219.859 237.181L199.446 248.997L179.033 237.181L199.446 225.365L219.859 237.181ZM198.801 224.291L178.388 236.107V212.475L198.801 200.659V224.291ZM198.801 249.857V273.489L178.388 261.673V238.041L198.801 249.857ZM198.371 274.348L177.959 286.164L161.198 276.497L157.546 274.348L177.959 262.532L198.371 274.348ZM198.801 275.422V299.055L178.388 310.871V287.239L198.801 275.422ZM177.314 287.239V310.871L156.901 299.055V275.422L177.314 287.239ZM156.901 273.489V249.857L177.314 238.041V261.673L156.901 273.489ZM177.314 236.107L156.901 224.291V200.659L177.314 212.475V236.107ZM176.884 237.181L156.471 248.997L136.058 237.181L156.471 225.365L176.884 237.181ZM155.827 224.291L135.414 236.107V212.475L155.827 200.659V224.291ZM155.827 249.857V273.489L135.414 261.673V238.041L155.827 249.857ZM155.182 274.348L134.769 286.164L118.009 276.497L114.356 274.348L134.769 262.532L155.182 274.348ZM155.827 275.422V299.055L135.414 310.871V287.239L155.827 275.422ZM134.125 287.239V310.871L113.712 299.055V275.422L134.125 287.239ZM113.712 273.489V249.857L134.125 238.041V261.673L113.712 273.489ZM134.125 236.107L113.712 224.291V200.659L134.125 212.475V236.107ZM133.695 237.181L113.282 248.997L92.8689 237.181L113.282 225.365L133.695 237.181ZM112.637 224.291L92.2243 236.107V212.475L112.637 200.659V224.291ZM112.637 249.857V273.489L92.2243 261.673V238.041L112.637 249.857ZM112.207 274.348L91.7946 286.164L75.0345 276.497L71.3817 274.348L91.7946 262.532L112.207 274.348ZM112.637 275.422V299.055L92.2243 310.871V287.239L112.637 275.422ZM91.1499 287.239V310.871L70.737 299.055V275.422L91.1499 287.239ZM70.5222 273.489V249.857L90.9351 238.041V261.673L70.5222 273.489ZM91.1499 236.107L70.737 224.291V200.659L91.1499 212.475V236.107ZM90.5053 237.181L70.0924 248.997L49.6795 237.181L70.0924 225.365L90.5053 237.181ZM69.4478 224.291L49.0349 236.107V212.475L69.4478 200.659V224.291ZM69.4478 249.857V273.489L49.0349 261.673V238.041L69.4478 249.857ZM69.018 274.348L48.6051 286.164L31.8451 276.497L28.1922 274.348L48.6051 262.532L69.018 274.348ZM69.4478 275.422V299.055L49.0349 310.871V287.239L69.4478 275.422ZM47.9605 287.239V310.871L27.5476 299.055V275.422L47.9605 287.239ZM27.5476 273.489V249.857L47.9605 238.041V261.673L27.5476 273.489ZM47.9605 236.107L27.5476 224.291V200.659L47.9605 212.475V236.107ZM47.5308 237.181L27.1178 248.997L6.70493 237.181L27.1178 225.365L47.5308 237.181ZM26.4732 224.291L6.06033 236.107V212.475L26.4732 200.659V224.291ZM26.4732 249.857V273.489L6.06033 261.673V238.041L26.4732 249.857ZM25.8286 274.348L5.41571 286.164L-11.3444 276.497L-14.9972 274.348L5.41571 262.532L25.8286 274.348ZM26.4732 275.422V299.055L6.06033 310.871V287.239L26.4732 275.422ZM4.77109 287.239V310.871L-15.6418 299.055V275.422L4.77109 287.239ZM-15.6418 273.489V249.857L4.77109 238.041V261.673L-15.6418 273.489ZM4.77109 236.107L-15.6418 224.291V200.659L4.77109 212.475V236.107ZM4.34134 237.181L-16.0716 248.997L-36.4845 237.181L-16.0716 225.365L4.34134 237.181ZM-16.7162 224.291L-37.1291 236.107V212.475L-16.7162 200.659V224.291ZM-16.7162 249.857V273.489L-37.1291 261.673V238.041L-16.7162 249.857ZM-17.3608 274.348L-37.7737 286.164L-54.5338 276.497L-58.1866 274.348L-37.7737 262.532L-17.3608 274.348ZM-16.7162 275.422V299.055L-37.1291 310.871V287.239L-16.7162 275.422ZM-38.2035 287.239V310.871L-58.6164 299.055V275.422L-38.2035 287.239ZM-58.8313 273.489V249.857L-38.4184 238.041V261.673L-58.8313 273.489ZM-38.2035 236.107L-58.6164 224.291V200.659L-38.2035 212.475V236.107ZM-38.8481 237.181L-59.261 248.997L-79.6739 237.181L-59.261 225.365L-38.8481 237.181ZM-59.9056 224.291L-80.3185 236.107V212.475L-59.9056 200.659V224.291ZM-59.9056 249.857V273.489L-80.3185 261.673V238.041L-59.9056 249.857ZM-60.3354 274.348L-80.7483 286.164L-97.5084 276.497L-101.161 274.348L-80.7483 262.532L-60.3354 274.348ZM-59.9056 275.422V299.055L-80.3185 310.871V287.239L-59.9056 275.422ZM-81.3929 287.239V310.871L-101.806 299.055V275.422L-81.3929 287.239ZM-101.806 273.489V249.857L-81.3929 238.041V261.673L-101.806 273.489ZM-81.3929 236.107L-101.806 224.291V200.659L-81.3929 212.475V236.107ZM-82.0375 237.181L-102.45 248.997L-122.863 237.181L-102.45 225.365L-82.0375 237.181ZM-102.88 224.291L-123.293 236.107V212.475L-102.88 200.659V224.291ZM-102.88 249.857V273.489L-123.293 261.673V238.041L-102.88 249.857ZM-103.525 274.348L-123.938 286.164L-140.698 276.497L-144.351 274.348L-123.938 262.532L-103.525 274.348ZM-102.88 275.422V299.055L-123.293 310.871V287.239L-102.88 275.422ZM-124.582 287.239V310.871L-144.995 299.055V275.422L-124.582 287.239ZM-144.995 273.489V249.857L-124.582 238.041V261.673L-144.995 273.489ZM-124.582 236.107L-144.995 224.291V200.659L-124.582 212.475V236.107ZM-125.012 237.181L-145.425 248.997L-165.838 237.181L-145.425 225.365L-125.012 237.181ZM-146.07 224.291L-166.483 236.107V212.475L-146.07 200.659V224.291ZM-146.07 249.857V273.489L-166.483 261.673V238.041L-146.07 249.857ZM-146.714 274.348L-167.127 286.164L-183.887 276.497L-187.54 274.348L-167.127 262.532L-146.714 274.348ZM-146.07 275.422V299.055L-166.483 310.871V287.239L-146.07 275.422ZM-167.557 287.239V310.871L-187.97 299.055V275.422L-167.557 287.239ZM-188.185 273.489V249.857L-167.772 238.041V261.673L-188.185 273.489ZM-167.557 236.107L-187.97 224.291V200.659L-167.557 212.475V236.107ZM-168.202 237.181L-188.614 248.997L-209.027 237.181L-188.614 225.365L-168.202 237.181ZM-189.259 224.291L-209.672 236.107V212.475L-189.259 200.659V224.291ZM-189.259 249.857V273.489L-209.672 261.673V238.041L-189.259 249.857ZM-189.689 274.348L-210.102 286.164L-226.862 276.497L-230.515 274.348L-210.102 262.532L-189.689 274.348ZM-189.259 275.422V299.055L-209.672 310.871V287.239L-189.259 275.422ZM-210.746 287.239V310.871L-231.159 299.055V275.422L-210.746 287.239ZM-231.159 273.489V249.857L-210.746 238.041V261.673L-231.159 273.489ZM-210.746 236.107L-231.159 224.291V200.659L-210.746 212.475V236.107ZM-211.391 237.181L-231.804 248.997L-252.217 237.181L-231.804 225.365L-211.391 237.181ZM-232.234 224.291L-252.647 236.107V212.475L-232.234 200.659V224.291ZM-232.234 249.857V273.489L-252.647 261.673V238.041L-232.234 249.857ZM-232.878 274.348L-253.291 286.164L-270.051 276.497L-273.704 274.348L-253.291 262.532L-232.878 274.348ZM-232.234 275.422V299.055L-252.647 310.871V287.239L-232.234 275.422ZM-253.936 287.239V310.871L-274.349 299.055V275.422L-253.936 287.239ZM-274.349 273.489V249.857L-253.936 238.041V261.673L-274.349 273.489ZM-253.936 236.107L-274.349 224.291V200.659L-253.936 212.475V236.107ZM-254.366 237.181L-274.778 248.997L-295.191 237.181L-274.778 225.365L-254.366 237.181ZM-275.423 224.291L-295.836 236.107V212.475L-275.423 200.659V224.291ZM-275.423 249.857V273.489L-295.836 261.673V238.041L-275.423 249.857ZM-276.068 274.348L-296.481 286.164L-313.241 276.497L-316.893 274.348L-296.481 262.532L-276.068 274.348ZM-275.423 275.422V299.055L-295.836 310.871V287.239L-275.423 275.422ZM-296.91 287.239V310.871L-317.323 299.055V275.422L-296.91 287.239ZM-317.538 273.489V249.857L-297.125 238.041V261.673L-317.538 273.489ZM-296.91 236.107L-317.323 224.291V200.659L-296.91 212.475V236.107ZM-297.555 237.181L-317.968 248.997L-338.381 237.181L-317.968 225.365L-297.555 237.181ZM-318.612 224.291L-339.025 236.107V212.475L-318.612 200.659V224.291ZM-318.612 249.857V273.489L-339.025 261.673V238.041L-318.612 249.857ZM-334.943 313.878L-338.596 311.73L-318.183 299.914L-297.77 311.73L-318.183 323.546L-334.943 313.878ZM-318.612 324.62V348.253L-339.025 336.436V312.804L-335.373 314.953L-318.612 324.62ZM-339.025 310.871V287.239L-318.612 275.422V299.055L-339.025 310.871ZM-296.91 312.804V336.436L-317.323 348.253V324.62L-296.91 312.804ZM-317.538 349.971L-297.125 361.787V385.42L-317.538 373.603V349.971ZM-316.893 349.112L-296.481 337.296L-276.068 349.112L-296.481 360.928L-316.893 349.112ZM-295.836 361.787L-275.423 349.971V373.603L-295.836 385.42V361.787ZM-295.836 336.436V312.804L-292.183 314.953L-275.423 324.62V348.253L-295.836 336.436ZM-291.753 313.878L-295.406 311.73L-274.993 299.914L-254.58 311.73L-274.993 323.546L-291.753 313.878ZM-253.936 312.804V336.436L-274.349 348.253V324.62L-253.936 312.804ZM-274.349 349.971L-253.936 361.787V385.42L-274.349 373.603V349.971ZM-273.919 349.112L-253.506 337.296L-233.093 349.112L-253.506 360.928L-273.919 349.112ZM-252.861 361.787L-232.448 349.971V373.603L-252.861 385.42V361.787ZM-252.861 336.436V312.804L-249.209 314.953L-232.448 324.62V348.253L-252.861 336.436ZM-248.564 313.878L-252.217 311.73L-231.804 299.914L-211.391 311.73L-231.804 323.546L-248.564 313.878ZM-210.746 312.804V336.436L-231.159 348.253V324.62L-210.746 312.804ZM-231.159 349.971L-210.746 361.787V385.42L-231.159 373.603V349.971ZM-230.729 349.112L-210.317 337.296L-189.904 349.112L-210.317 360.928L-230.729 349.112ZM-209.672 361.787L-189.259 349.971V373.603L-209.672 385.42V361.787ZM-209.672 336.436V312.804L-206.019 314.953L-189.259 324.62V348.253L-209.672 336.436ZM-205.589 313.878L-209.242 311.73L-188.829 299.914L-168.416 311.73L-188.829 323.546L-205.589 313.878ZM-167.557 312.804V336.436L-187.97 348.253V324.62L-167.557 312.804ZM-188.185 349.971L-167.772 361.787V385.42L-188.185 373.603V349.971ZM-187.54 349.112L-167.127 337.296L-146.714 349.112L-167.127 360.928L-187.54 349.112ZM-166.483 361.787L-146.07 349.971V373.603L-166.483 385.42V361.787ZM-166.483 336.436V312.804L-162.83 314.953L-146.07 324.62V348.253L-166.483 336.436ZM-162.4 313.878L-166.053 311.73L-145.64 299.914L-125.227 311.73L-145.64 323.546L-162.4 313.878ZM-124.582 312.804V336.436L-144.995 348.253V324.62L-124.582 312.804ZM-144.995 349.971L-124.582 361.787V385.42L-144.995 373.603V349.971ZM-144.566 349.112L-124.153 337.296L-103.74 349.112L-124.153 360.928L-144.566 349.112ZM-123.508 361.787L-103.095 349.971V373.603L-123.508 385.42V361.787ZM-123.508 336.436V312.804L-119.855 314.953L-103.095 324.62V348.253L-123.508 336.436ZM-119.211 313.878L-122.863 311.73L-102.45 299.914L-82.0375 311.73L-102.45 323.546L-119.211 313.878ZM-81.3929 312.804V336.436L-101.806 348.253V324.62L-81.3929 312.804ZM-101.806 349.971L-81.3929 361.787V385.42L-101.806 373.603V349.971ZM-101.376 349.112L-80.9631 337.296L-60.5502 349.112L-80.9631 360.928L-101.376 349.112ZM-80.3185 361.787L-59.9056 349.971V373.603L-80.3185 385.42V361.787ZM-80.3185 336.436V312.804L-76.6657 314.953L-59.9056 324.62V348.253L-80.3185 336.436ZM-76.236 313.878L-79.8888 311.73L-59.4759 299.914L-39.063 311.73L-59.4759 323.546L-76.236 313.878ZM-38.2035 312.804V336.436L-58.6164 348.253V324.62L-38.2035 312.804ZM-58.8313 349.971L-38.4184 361.787V385.42L-58.8313 373.603V349.971ZM-58.1866 349.112L-37.7737 337.296L-17.3608 349.112L-37.7737 360.928L-58.1866 349.112ZM-37.1291 361.787L-16.7162 349.971V373.603L-37.1291 385.42V361.787ZM-37.1291 336.436V312.804L-33.4763 314.953L-16.7162 324.62V348.253L-37.1291 336.436ZM-33.0465 313.878L-36.6994 311.73L-16.2865 299.914L4.12646 311.73L-16.2865 323.546L-33.0465 313.878ZM4.77109 312.804V336.436L-15.6418 348.253V324.62L4.77109 312.804ZM-15.6418 349.971L4.77109 361.787V385.42L-15.6418 373.603V349.971ZM-15.2121 349.112L5.20084 337.296L25.6137 349.112L5.20084 360.928L-15.2121 349.112ZM5.84546 361.787L26.2584 349.971V373.603L5.84546 385.42V361.787ZM5.84546 336.436V312.804L9.49829 314.953L26.2584 324.62V348.253L5.84546 336.436ZM10.1429 313.878L6.49008 311.73L26.903 299.914L47.3159 311.73L26.903 323.546L10.1429 313.878ZM47.9605 312.804V336.436L27.5476 348.253V324.62L47.9605 312.804ZM27.5476 349.971L47.9605 361.787V385.42L27.5476 373.603V349.971ZM27.9774 349.112L48.3903 337.296L68.8032 349.112L48.3903 360.928L27.9774 349.112ZM49.0349 361.787L69.4478 349.971V373.603L49.0349 385.42V361.787ZM49.0349 336.436V312.804L52.6877 314.953L69.4478 324.62V348.253L49.0349 336.436ZM53.3323 313.878L49.6795 311.73L70.0924 299.914L90.5053 311.73L70.0924 323.546L53.3323 313.878ZM91.1499 312.804V336.436L70.737 348.253V324.62L91.1499 312.804ZM70.5222 349.971L90.9351 361.787V385.42L70.5222 373.603V349.971ZM71.1667 349.112L91.5797 337.296L111.993 349.112L91.5797 360.928L71.1667 349.112ZM92.2243 361.787L112.637 349.971V373.603L92.2243 385.42V361.787ZM92.2243 336.436V312.804L95.8771 314.953L112.637 324.62V348.253L92.2243 336.436ZM96.3069 313.878L92.6541 311.73L113.067 299.914L133.48 311.73L113.067 323.546L96.3069 313.878ZM134.125 312.804V336.436L113.712 348.253V324.62L134.125 312.804ZM113.712 349.971L134.125 361.787V385.42L113.712 373.603V349.971ZM114.356 349.112L134.769 337.296L155.182 349.112L134.769 360.928L114.356 349.112ZM135.199 361.787L155.612 349.971V373.603L135.199 385.42V361.787ZM135.199 336.436V312.804L138.852 314.953L155.612 324.62V348.253L135.199 336.436ZM139.496 313.878L135.844 311.73L156.256 299.914L176.669 311.73L156.256 323.546L139.496 313.878ZM177.314 312.804V336.436L156.901 348.253V324.62L177.314 312.804ZM156.901 349.971L177.314 361.787V385.42L156.901 373.603V349.971ZM157.331 349.112L177.744 337.296L198.157 349.112L177.744 360.928L157.331 349.112ZM178.388 361.787L198.801 349.971V373.603L178.388 385.42V361.787ZM178.388 336.436V312.804L182.041 314.953L198.801 324.62V348.253L178.388 336.436ZM182.686 313.878L179.033 311.73L199.446 299.914L219.859 311.73L199.446 323.546L182.686 313.878ZM220.503 312.804V336.436L200.09 348.253V324.62L220.503 312.804ZM199.876 349.971L220.288 361.787V385.42L199.876 373.603V349.971ZM200.52 349.112L220.933 337.296L241.346 349.112L220.933 360.928L200.52 349.112ZM221.578 361.787L241.991 349.971V373.603L221.578 385.42V361.787ZM221.578 336.436V312.804L225.231 314.953L241.991 324.62V348.253L221.578 336.436ZM225.66 313.878L222.008 311.73L242.42 299.914L262.833 311.73L242.42 323.546L225.66 313.878ZM263.478 312.804V336.436L243.065 348.253V324.62L263.478 312.804ZM243.065 349.971L263.478 361.787V385.42L243.065 373.603V349.971ZM243.71 349.112L264.123 337.296L284.535 349.112L264.123 360.928L243.71 349.112ZM264.552 361.787L284.965 349.971V373.603L264.552 385.42V361.787ZM264.552 336.436V312.804L268.205 314.953L284.965 324.62V348.253L264.552 336.436ZM268.85 313.878L265.197 311.73L285.61 299.914L306.023 311.73L285.61 323.546L268.85 313.878ZM306.667 312.804V336.436L286.254 348.253V324.62L306.667 312.804ZM286.254 349.971L306.667 361.787V385.42L286.254 373.603V349.971ZM286.684 349.112L307.097 337.296L327.51 349.112L307.097 360.928L286.684 349.112ZM307.742 361.787L328.155 349.971V373.603L307.742 385.42V361.787ZM307.742 336.436V312.804L311.395 314.953L328.155 324.62V348.253L307.742 336.436ZM312.039 313.878L308.386 311.73L328.799 299.914L349.212 311.73L328.799 323.546L312.039 313.878ZM349.857 312.804V336.436L329.444 348.253V324.62L349.857 312.804ZM329.229 349.971L349.642 361.787V385.42L329.229 373.603V349.971ZM329.874 349.112L350.286 337.296L370.699 349.112L350.286 360.928L329.874 349.112ZM350.931 361.787L371.344 349.971V373.603L350.931 385.42V361.787ZM350.931 336.436V312.804L354.584 314.953L371.344 324.62V348.253L350.931 336.436ZM355.014 313.878L351.361 311.73L371.774 299.914L392.187 311.73L371.774 323.546L355.014 313.878ZM392.831 312.804V336.436L372.418 348.253V324.62L392.831 312.804ZM372.418 349.971L392.831 361.787V385.42L372.418 373.603V349.971ZM373.063 349.112L393.476 337.296L413.889 349.112L393.476 360.928L373.063 349.112ZM393.906 361.787L414.319 349.971V373.603L393.906 385.42V361.787ZM393.906 336.436V312.804L397.559 314.953L414.319 324.62V348.253L393.906 336.436ZM398.203 313.878L394.55 311.73L414.963 299.914L435.376 311.73L414.963 323.546L398.203 313.878ZM436.021 312.804V336.436L415.608 348.253V324.62L436.021 312.804ZM415.608 349.971L436.021 361.787V385.42L415.608 373.603V349.971ZM416.038 349.112L436.451 337.296L456.863 349.112L436.665 360.928L416.038 349.112ZM437.095 361.787L457.508 349.971V373.603L437.095 385.42V361.787ZM437.095 336.436V312.804L440.748 314.953L457.508 324.62V348.253L437.095 336.436ZM441.393 313.878L437.74 311.73L458.153 299.914L478.566 311.73L458.153 323.546L441.393 313.878ZM479.21 312.804V336.436L458.797 348.253V324.62L479.21 312.804ZM458.582 349.971L478.995 361.787V385.42L458.582 373.603V349.971ZM459.227 349.112L479.64 337.296L500.053 349.112L479.64 360.928L459.227 349.112ZM480.285 361.787L500.697 349.971V373.603L480.285 385.42V361.787ZM480.285 336.436V312.804L483.937 314.953L500.697 324.62V348.253L480.285 336.436ZM484.367 313.878L480.714 311.73L501.127 299.914L521.54 311.73L501.127 323.546L484.367 313.878ZM522.4 312.804V336.436L501.987 348.253V324.62L522.4 312.804ZM501.772 349.971L522.185 361.787V385.42L501.772 373.603V349.971ZM502.417 349.112L522.829 337.296L543.242 349.112L522.829 360.928L502.417 349.112ZM523.474 361.787L543.887 349.971V373.603L523.474 385.42V361.787ZM523.474 336.436V312.804L527.127 314.953L543.887 324.62V348.253L523.474 336.436ZM527.557 313.878L523.904 311.73L544.317 299.914L564.73 311.73L544.317 323.546L527.557 313.878ZM565.374 312.804V336.436L544.961 348.253V324.62L565.374 312.804ZM544.961 349.971L565.374 361.787V385.42L544.961 373.603V349.971ZM545.391 349.112L565.804 337.296L586.217 349.112L565.804 360.928L545.391 349.112ZM566.449 361.787L586.861 349.971V373.603L566.449 385.42V361.787ZM566.449 336.436V312.804L570.101 314.953L586.861 324.62V348.253L566.449 336.436ZM570.746 313.878L567.093 311.73L587.506 299.914L607.919 311.73L587.506 323.546L570.746 313.878ZM608.564 312.804V336.436L588.151 348.253V324.62L608.564 312.804ZM588.151 349.971L608.564 361.787V385.42L588.151 373.603V349.971ZM588.581 349.112L608.993 337.296L629.406 349.112L608.993 360.928L588.581 349.112ZM609.638 361.787L630.051 349.971V373.603L609.638 385.42V361.787ZM609.638 336.436V312.804L613.291 314.953L630.051 324.62V348.253L609.638 336.436ZM613.721 313.878L610.068 311.73L630.481 299.914L650.894 311.73L630.481 323.546L613.721 313.878ZM651.753 312.804V336.436L631.34 348.253V324.62L651.753 312.804ZM631.125 349.971L651.538 361.787V385.42L631.125 373.603V349.971ZM631.77 349.112L652.183 337.296L672.596 349.112L652.183 360.928L631.77 349.112ZM652.827 361.787L673.24 349.971V373.603L652.827 385.42V361.787ZM652.827 336.436V312.804L656.48 314.953L673.24 324.62V348.253L652.827 336.436ZM652.827 287.239L673.24 275.422V299.055L652.827 310.871V287.239ZM652.827 261.673V238.041L673.24 249.857V273.489L652.827 261.673ZM671.092 198.725L672.811 199.799L652.398 211.615L631.985 199.799L652.398 187.983L671.092 198.725ZM652.827 186.909V163.277L673.24 175.093V198.725L671.521 197.651L652.827 186.909ZM673.24 200.659V224.291L652.827 236.107V212.475L673.24 200.659ZM631.125 198.725V175.093L651.538 163.277V186.909L631.125 198.725ZM651.753 161.558L648.1 159.41L631.34 149.742V126.11L651.753 137.926V161.558ZM649.819 161.773L651.108 162.417L630.695 174.234L610.283 162.417L630.695 150.601L649.819 161.773ZM630.051 149.742L609.638 161.558V137.926L630.051 126.11V149.742ZM630.051 175.093V198.725L628.332 197.651L609.423 186.694V163.277L630.051 175.093ZM627.902 198.725L629.621 199.799L609.208 211.615L588.795 199.799L609.208 187.983L627.902 198.725ZM588.151 198.725V175.093L608.564 163.277V186.909L588.151 198.725ZM608.564 161.558L604.911 159.41L588.151 149.742V126.11L608.564 137.926V161.558ZM606.845 161.773L608.134 162.417L587.721 174.234L567.308 162.417L587.721 150.601L606.845 161.773ZM587.076 149.742L566.663 161.558V137.926L587.076 126.11V149.742ZM587.076 175.093V198.725L585.357 197.651L566.663 186.694V163.277L587.076 175.093ZM584.713 198.725L586.432 199.799L566.019 211.615L545.606 199.799L566.019 187.983L584.713 198.725ZM544.961 198.725V175.093L565.374 163.277V186.909L544.961 198.725ZM565.374 161.558L561.721 159.41L544.961 149.742V126.11L565.374 137.926V161.558ZM563.655 161.773L564.944 162.417L544.532 174.234L524.119 162.417L544.532 150.601L563.655 161.773ZM543.887 149.742L523.474 161.558V137.926L543.887 126.11V149.742ZM543.887 175.093V198.725L542.168 197.651L523.259 186.694V163.277L543.887 175.093ZM541.738 198.725L543.457 199.799L523.044 211.615L502.631 199.799L523.044 187.983L541.738 198.725ZM501.772 198.725V175.093L522.185 163.277V186.909L501.772 198.725ZM522.4 161.558L518.747 159.41L501.987 149.742V126.11L522.4 137.926V161.558ZM520.466 161.773L521.755 162.417L501.342 174.234L480.929 162.417L501.342 150.601L520.466 161.773ZM500.697 149.742L480.285 161.558V137.926L500.697 126.11V149.742ZM500.697 175.093V198.725L498.979 197.651L480.285 186.694V163.277L500.697 175.093ZM498.549 198.725L500.268 199.799L479.855 211.615L459.442 199.799L479.855 187.983L498.549 198.725ZM458.582 198.725V175.093L478.995 163.277V186.909L458.582 198.725ZM479.21 161.558L475.557 159.41L458.797 149.742V126.11L479.21 137.926V161.558ZM477.491 161.773L478.78 162.417L458.368 174.234L437.955 162.417L458.368 150.601L477.491 161.773ZM457.508 149.742L437.095 161.558V137.926L457.508 126.11V149.742ZM457.508 175.093V198.725L455.789 197.651L437.095 186.694V163.277L457.508 175.093ZM455.359 198.725L457.078 199.799L436.665 211.615L416.253 199.799L436.665 187.983L455.359 198.725ZM415.608 198.725V175.093L436.021 163.277V186.909L415.608 198.725ZM436.021 161.558L432.368 159.41L415.608 149.742V126.11L436.021 137.926V161.558ZM434.302 161.773L435.591 162.417L415.178 174.234L394.765 162.417L415.178 150.601L434.302 161.773ZM414.534 149.742L394.121 161.558V137.926L414.534 126.11V149.742ZM414.534 175.093V198.725L412.815 197.651L393.906 186.694V163.277L414.534 175.093ZM412.17 198.725L413.889 199.799L393.476 211.615L373.063 199.799L393.476 187.983L412.17 198.725ZM372.418 198.725V175.093L392.831 163.277V186.909L372.418 198.725ZM392.831 161.558L389.178 159.41L372.418 149.742V126.11L392.831 137.926V161.558ZM391.112 161.773L392.402 162.417L371.989 174.234L351.576 162.417L371.989 150.601L391.112 161.773ZM371.344 149.742L350.931 161.558V137.926L371.344 126.11V149.742ZM371.344 175.093V198.725L369.625 197.651L350.931 186.694V163.277L371.344 175.093ZM369.195 198.725L370.914 199.799L350.501 211.615L330.089 199.799L350.501 187.983L369.195 198.725ZM329.229 198.725V175.093L349.642 163.277V186.909L329.229 198.725ZM349.857 161.558L346.204 159.41L329.444 149.742V126.11L349.857 137.926V161.558ZM348.138 161.773L349.427 162.417L329.014 174.234L308.601 162.417L329.014 150.601L348.138 161.773ZM328.155 149.742L307.742 161.558V137.926L328.155 126.11V149.742ZM328.155 175.093V198.725L326.436 197.651L307.742 186.909V163.277L328.155 175.093ZM326.006 198.725L327.725 199.799L307.312 211.615L286.899 199.799L307.312 187.983L326.006 198.725ZM286.254 198.725V175.093L306.667 163.277V186.909L286.254 198.725ZM306.667 161.558L303.014 159.41L286.254 149.742V126.11L306.667 137.926V161.558ZM304.948 161.773L306.238 162.417L285.825 174.234L265.412 162.417L285.825 150.601L304.948 161.773ZM285.18 149.742L264.767 161.558V137.926L285.18 126.11V149.742ZM285.18 175.093V198.725L283.461 197.651L264.767 186.694V163.277L285.18 175.093ZM282.816 198.725L284.535 199.799L264.123 211.615L243.71 199.799L264.123 187.983L282.816 198.725ZM243.065 198.725V175.093L263.478 163.277V186.909L243.065 198.725ZM263.478 161.558L259.825 159.41L243.065 149.742V126.11L263.478 137.926V161.558ZM261.759 161.773L263.048 162.417L242.635 174.234L222.222 162.417L242.635 150.601L261.759 161.773ZM241.991 149.742L221.578 161.558V137.926L241.991 126.11V149.742ZM241.991 175.093V198.725L240.272 197.651L221.363 186.694V163.277L241.991 175.093ZM239.842 198.725L241.561 199.799L221.148 211.615L200.735 199.799L221.148 187.983L239.842 198.725ZM199.876 198.725V175.093L220.288 163.277V186.909L199.876 198.725ZM220.503 161.558L216.851 159.41L200.09 149.742V126.11L220.503 137.926V161.558ZM218.784 161.773L220.074 162.417L199.661 174.234L179.248 162.417L199.661 150.601L218.784 161.773ZM198.801 149.742L178.388 161.558V137.926L198.801 126.11V149.742ZM198.801 175.093V198.725L197.082 197.651L178.388 186.694V163.277L198.801 175.093ZM196.652 198.725L198.371 199.799L177.959 211.615L157.331 199.799L177.744 187.983L196.652 198.725ZM156.901 198.725V175.093L177.314 163.277V186.909L156.901 198.725ZM177.314 161.558L173.661 159.41L156.901 149.742V126.11L177.314 137.926V161.558ZM175.595 161.773L176.884 162.417L156.471 174.234L136.058 162.417L156.471 150.601L175.595 161.773ZM155.827 149.742L135.414 161.558V137.926L155.827 126.11V149.742ZM155.827 175.093V198.725L154.108 197.651L135.414 186.694V163.277L155.827 175.093ZM153.463 198.725L155.182 199.799L134.769 211.615L114.356 199.799L134.769 187.983L153.463 198.725ZM113.712 198.725V175.093L134.125 163.277V186.909L113.712 198.725ZM134.125 161.558L130.472 159.41L113.712 149.742V126.11L134.125 137.926V161.558ZM132.406 161.773L133.695 162.417L113.282 174.234L92.8689 162.417L113.282 150.601L132.406 161.773ZM112.637 149.742L92.2243 161.558V137.926L112.637 126.11V149.742ZM112.637 175.093V198.725L110.918 197.651L92.0095 186.694V163.277L112.637 175.093ZM110.488 198.725L112.207 199.799L91.7946 211.615L71.3817 199.799L91.7946 187.983L110.488 198.725ZM70.5222 198.725V175.093L90.9351 163.277V186.909L70.5222 198.725ZM91.1499 161.558L87.4971 159.41L70.737 149.742V126.11L91.1499 137.926V161.558ZM89.2161 161.773L90.5053 162.417L70.0924 174.234L49.6795 162.417L70.0924 150.601L89.2161 161.773ZM69.4478 149.742L49.0349 161.558V137.926L69.4478 126.11V149.742ZM69.4478 175.093V198.725L67.7288 197.651L49.0349 186.694V163.277L69.4478 175.093ZM67.2991 198.725L69.018 199.799L48.6051 211.615L28.1922 199.799L48.6051 187.983L67.2991 198.725ZM27.5476 198.725V175.093L47.9605 163.277V186.909L27.5476 198.725ZM47.9605 161.558L44.3076 159.41L27.5476 149.742V126.11L47.9605 137.926V161.558ZM46.2415 161.773L47.5308 162.417L27.1178 174.234L6.70493 162.417L27.1178 150.601L46.2415 161.773ZM26.4732 149.742L6.06033 161.558V137.926L26.4732 126.11V149.742ZM26.4732 175.093V198.725L24.7543 197.651L5.84546 186.694V163.277L26.4732 175.093ZM24.1096 198.725L25.8286 199.799L5.41571 211.615L-14.9972 199.799L5.41571 187.983L24.1096 198.725ZM-15.6418 198.725V175.093L4.77109 163.277V186.909L-15.6418 198.725ZM4.77109 161.558L1.11826 159.41L-15.6418 149.742V126.11L4.77109 137.926V161.558ZM3.05209 161.773L4.34134 162.417L-16.0716 174.234L-36.4845 162.417L-16.0716 150.601L3.05209 161.773ZM-16.7162 149.742L-37.1291 161.558V137.926L-16.7162 126.11V149.742ZM-16.7162 175.093V198.725L-18.4352 197.651L-37.1291 186.694V163.277L-16.7162 175.093ZM-18.8649 198.725L-17.1459 199.799L-37.5588 211.615L-57.9718 199.799L-37.5588 187.983L-18.8649 198.725ZM-58.8313 198.725V175.093L-38.2035 163.277V186.909L-58.8313 198.725ZM-38.2035 161.558L-41.8563 159.41L-58.6164 149.742V126.11L-38.2035 137.926V161.558ZM-40.1373 161.773L-38.8481 162.417L-59.261 174.234L-79.6739 162.417L-59.261 150.601L-40.1373 161.773ZM-59.9056 149.742L-80.3185 161.558V137.926L-59.9056 126.11V149.742ZM-59.9056 175.093V198.725L-61.6246 197.651L-80.3185 186.694V163.277L-59.9056 175.093ZM-62.0544 198.725L-60.3354 199.799L-80.7483 211.615L-101.161 199.799L-80.7483 187.983L-62.0544 198.725ZM-101.806 198.725V175.093L-81.3929 163.277V186.909L-101.806 198.725ZM-81.3929 161.558L-85.0457 159.41L-101.806 149.742V126.11L-81.3929 137.926V161.558ZM-83.1119 161.773L-81.8227 162.417L-102.236 174.234L-122.648 162.417L-102.236 150.601L-83.1119 161.773ZM-102.88 149.742L-123.293 161.558V137.926L-102.88 126.11V149.742ZM-102.88 175.093V198.725L-104.599 197.651L-123.508 186.694V163.277L-102.88 175.093ZM-105.244 198.725L-103.525 199.799L-123.938 211.615L-144.351 199.799L-123.938 187.983L-105.244 198.725ZM-144.995 198.725V175.093L-124.582 163.277V186.909L-144.995 198.725ZM-124.582 161.558L-128.235 159.41L-144.995 149.742V126.11L-124.582 137.926V161.558ZM-126.301 161.773L-125.012 162.417L-145.425 174.234L-165.838 162.417L-145.425 150.601L-126.301 161.773ZM-146.07 149.742L-166.483 161.558V137.926L-146.07 126.11V149.742ZM-146.07 175.093V198.725L-147.789 197.651L-166.483 186.694V163.277L-146.07 175.093ZM-148.218 198.725L-146.499 199.799L-166.912 211.615L-187.54 199.799L-167.127 187.983L-148.218 198.725ZM-188.185 198.725V175.093L-167.772 163.277V186.909L-188.185 198.725ZM-167.557 161.558L-171.21 159.41L-187.97 149.742V126.11L-167.557 137.926V161.558ZM-169.491 161.773L-168.202 162.417L-188.614 174.234L-209.027 162.417L-188.614 150.601L-169.491 161.773ZM-189.259 149.742L-209.672 161.558V137.926L-189.259 126.11V149.742ZM-189.259 175.093V198.725L-190.978 197.651L-209.672 186.909V163.277L-189.259 175.093ZM-191.408 198.725L-189.689 199.799L-210.102 211.615L-230.729 199.799L-210.317 187.983L-191.408 198.725ZM-231.159 198.725V175.093L-210.746 163.277V186.909L-231.159 198.725ZM-210.746 161.558L-214.399 159.41L-231.159 149.742V126.11L-210.746 137.926V161.558ZM-212.465 161.773L-211.176 162.417L-231.589 174.234L-252.002 162.417L-231.589 150.601L-212.465 161.773ZM-232.234 149.742L-252.647 161.558V137.926L-232.234 126.11V149.742ZM-232.234 175.093V198.725L-233.953 197.651L-252.861 186.909V163.277L-232.234 175.093ZM-234.597 198.725L-232.878 199.799L-253.291 211.615L-273.919 199.799L-253.506 187.983L-234.597 198.725ZM-274.349 198.725V175.093L-253.936 163.277V186.909L-274.349 198.725ZM-253.936 161.558L-257.589 159.41L-274.349 149.742V126.11L-253.936 137.926V161.558ZM-255.655 161.773L-254.366 162.417L-274.778 174.234L-295.191 162.417L-274.778 150.601L-255.655 161.773ZM-275.423 149.742L-295.836 161.558V137.926L-275.423 126.11V149.742ZM-275.423 175.093V198.725L-277.142 197.651L-295.836 186.909V163.277L-275.423 175.093ZM-277.572 198.725L-275.853 199.799L-296.266 211.615L-316.893 199.799L-296.481 187.983L-277.572 198.725ZM-317.538 198.725V175.093L-297.125 163.277V186.909L-317.538 198.725ZM-296.91 161.558L-300.563 159.41L-317.538 149.742V126.11L-297.125 137.926V161.558H-296.91ZM-298.844 161.773L-297.555 162.417L-317.968 174.234L-338.381 162.417L-317.968 150.601L-298.844 161.773ZM-318.612 149.742L-339.025 161.558V137.926L-318.612 126.11V149.742ZM-318.612 175.093V198.725L-320.331 197.651L-339.025 186.909V163.277L-318.612 175.093ZM-320.761 198.725L-319.042 199.799L-339.455 211.615L-360.083 199.799L-339.67 187.983L-320.761 198.725ZM-319.042 274.348L-339.455 286.164L-356.215 276.497L-359.868 274.348L-339.455 262.532L-319.042 274.348ZM-319.042 349.112L-339.455 360.928L-359.868 349.112L-339.455 337.296L-319.042 349.112ZM-318.612 349.971V373.603L-339.025 385.42V361.787L-318.612 349.971ZM-320.331 423.016L-319.042 423.661L-339.455 435.477L-359.868 423.661L-339.455 411.845L-320.331 423.016ZM-339.025 436.551L-318.612 424.735V448.367L-339.025 460.183V436.551ZM-322.265 420.653L-339.025 410.985V387.353L-318.612 399.169V422.801L-322.265 420.653ZM-338.596 386.494L-318.183 374.678L-297.77 386.494L-318.183 398.31L-338.596 386.494ZM-296.91 387.353V410.985L-317.323 422.801V399.169L-296.91 387.353ZM-317.538 424.735L-297.125 436.551V460.183L-298.844 459.109L-317.753 448.152V424.735H-317.538ZM-316.893 423.876L-296.481 412.06L-277.142 423.231L-275.853 423.876L-296.266 435.692L-316.893 423.876ZM-295.836 436.551L-275.423 424.735V448.367L-295.836 460.183V436.551ZM-279.076 420.653L-295.836 410.985V387.353L-275.423 399.169V422.801L-279.076 420.653ZM-295.406 386.494L-274.993 374.678L-254.58 386.494L-274.993 398.31L-295.406 386.494ZM-253.936 387.353V410.985L-274.349 422.801V399.169L-253.936 387.353ZM-274.349 424.735L-253.936 436.551V460.183L-255.655 459.109L-274.349 448.152V424.735ZM-273.919 423.876L-253.506 412.06L-234.167 423.231L-232.878 423.876L-253.291 435.692L-273.919 423.876ZM-252.861 436.551L-232.448 424.735V448.367L-252.861 460.183V436.551ZM-236.101 420.653L-252.861 410.985V387.353L-232.448 399.169V422.801L-236.101 420.653ZM-252.217 386.494L-231.804 374.678L-211.391 386.494L-231.804 398.31L-252.217 386.494ZM-210.746 387.353V410.985L-231.159 422.801V399.169L-210.746 387.353ZM-231.159 424.735L-210.746 436.551V460.183L-212.465 459.109L-231.374 448.152V424.735H-231.159ZM-230.729 423.876L-210.317 412.06L-190.978 423.231L-189.689 423.876L-210.102 435.692L-230.729 423.876ZM-209.672 436.551L-189.259 424.735V448.367L-209.672 460.183V436.551ZM-192.912 420.653L-209.672 410.985V387.353L-189.259 399.169V422.801L-192.912 420.653ZM-209.242 386.494L-188.829 374.678L-168.416 386.494L-188.829 398.31L-209.242 386.494ZM-167.557 387.353V410.985L-187.97 422.801V399.169L-167.557 387.353ZM-188.185 424.735L-167.772 436.551V460.183L-169.491 459.109L-188.185 448.152V424.735ZM-187.54 423.876L-167.127 412.06L-147.789 423.231L-146.499 423.876L-166.912 435.692L-187.54 423.876ZM-166.483 436.551L-146.07 424.735V448.367L-166.483 460.183V436.551ZM-149.722 420.653L-166.483 410.985V387.353L-146.07 399.169V422.801L-149.722 420.653ZM-166.053 386.494L-145.64 374.678L-125.227 386.494L-145.64 398.31L-166.053 386.494ZM-124.582 387.353V410.985L-144.995 422.801V399.169L-124.582 387.353ZM-144.995 424.735L-124.582 436.551V460.183L-126.301 459.109L-144.995 448.152V424.735ZM-144.566 423.876L-124.153 412.06L-104.814 423.231L-103.525 423.876L-123.938 435.692L-144.566 423.876ZM-123.508 436.551L-103.095 424.735V448.367L-123.508 460.183V436.551ZM-106.533 420.653L-123.293 410.985V387.353L-102.88 399.169V422.801L-106.533 420.653ZM-122.863 386.494L-102.45 374.678L-82.0375 386.494L-102.45 398.31L-122.863 386.494ZM-81.3929 387.353V410.985L-101.806 422.801V399.169L-81.3929 387.353ZM-101.806 424.735L-81.3929 436.551V460.183L-83.1119 459.109L-102.021 448.152V424.735H-101.806ZM-101.376 423.876L-80.9631 412.06L-61.6246 423.231L-60.3354 423.876L-80.7483 435.692L-101.376 423.876ZM-80.3185 436.551L-59.9056 424.735V448.367L-80.3185 460.183V436.551ZM-63.5585 420.653L-80.3185 410.985V387.353L-59.9056 399.169V422.801L-63.5585 420.653ZM-79.8888 386.494L-59.4759 374.678L-39.063 386.494L-59.4759 398.31L-79.8888 386.494ZM-38.2035 387.353V410.985L-58.6164 422.801V399.169L-38.2035 387.353ZM-58.8313 424.735L-38.4184 436.551V460.183L-40.1373 459.109L-58.8313 448.152V424.735ZM-58.1866 423.876L-37.7737 412.06L-18.4352 423.231L-17.1459 423.876L-37.5588 435.692L-58.1866 423.876ZM-37.1291 436.551L-16.7162 424.735V448.367L-37.1291 460.183V436.551ZM-20.369 420.653L-37.1291 410.985V387.353L-16.7162 399.169V422.801L-20.369 420.653ZM-36.6994 386.494L-16.2865 374.678L4.12646 386.494L-16.2865 398.31L-36.6994 386.494ZM4.77109 387.353V410.985L-15.6418 422.801V399.169L4.77109 387.353ZM-15.6418 424.735L4.77109 436.551V460.183L3.05209 459.109L-15.8567 448.152V424.735H-15.6418ZM-15.2121 423.876L5.20084 412.06L24.5394 423.231L25.8286 423.876L5.41571 435.692L-15.2121 423.876ZM5.84546 436.551L26.2584 424.735V448.367L5.84546 460.183V436.551ZM22.8204 420.653L6.06033 410.985V387.353L26.4732 399.169V422.801L22.8204 420.653ZM6.49008 386.494L26.903 374.678L47.3159 386.494L26.903 398.31L6.49008 386.494ZM47.9605 387.353V410.985L27.5476 422.801V399.169L47.9605 387.353ZM27.5476 424.735L47.9605 436.551V460.183L46.2415 459.109L27.5476 448.152V424.735ZM27.9774 423.876L48.3903 412.06L67.7288 423.231L69.018 423.876L48.6051 435.692L27.9774 423.876ZM49.0349 436.551L69.4478 424.735V448.367L49.0349 460.183V436.551ZM65.795 420.653L49.0349 410.985V387.353L69.4478 399.169V422.801L65.795 420.653ZM49.6795 386.494L70.0924 374.678L90.5053 386.494L70.0924 398.31L49.6795 386.494ZM91.1499 387.353V410.985L70.737 422.801V399.169L91.1499 387.353ZM70.5222 424.735L90.9351 436.551V460.183L89.2161 459.109L70.5222 448.152V424.735ZM71.1667 423.876L91.5797 412.06L110.918 423.231L112.207 423.876L91.7946 435.692L71.1667 423.876ZM92.2243 436.551L112.637 424.735V448.367L92.2243 460.183V436.551ZM108.984 420.653L92.2243 410.985V387.353L112.637 399.169V422.801L108.984 420.653ZM92.6541 386.494L113.067 374.678L133.48 386.494L113.067 398.31L92.6541 386.494ZM134.125 387.353V410.985L113.712 422.801V399.169L134.125 387.353ZM113.712 424.735L134.125 436.551V460.183L132.406 459.109L113.497 448.152V424.735H113.712ZM114.356 423.876L134.769 412.06L154.108 423.231L155.397 423.876L134.984 435.692L114.356 423.876ZM135.199 436.551L155.612 424.735V448.367L135.199 460.183V436.551ZM152.174 420.653L135.414 410.985V387.353L155.827 399.169V422.801L152.174 420.653ZM135.844 386.494L156.256 374.678L176.669 386.494L156.256 398.31L135.844 386.494ZM177.314 387.353V410.985L156.901 422.801V399.169L177.314 387.353ZM156.901 424.735L177.314 436.551V460.183L175.595 459.109L156.901 448.152V424.735ZM157.331 423.876L177.744 412.06L197.082 423.231L198.371 423.876L177.959 435.692L157.331 423.876ZM178.388 436.551L198.801 424.735V448.367L178.388 460.183V436.551ZM195.148 420.653L178.388 410.985V387.353L198.801 399.169V422.801L195.148 420.653ZM179.033 386.494L199.446 374.678L219.859 386.494L199.446 398.31L179.033 386.494ZM220.503 387.353V410.985L200.09 422.801V399.169L220.503 387.353ZM199.876 424.735L220.288 436.551V460.183L218.57 459.109L199.661 448.152V424.735H199.876ZM200.52 423.876L220.933 412.06L240.272 423.231L241.561 423.876L221.148 435.692L200.52 423.876ZM221.578 436.551L241.991 424.735V448.367L221.578 460.183V436.551ZM238.338 420.653L221.578 410.985V387.353L241.991 399.169V422.801L238.338 420.653ZM222.008 386.494L242.42 374.678L262.833 386.494L242.42 398.31L222.008 386.494ZM263.478 387.353V410.985L243.065 422.801V399.169L263.478 387.353ZM243.065 424.735L263.478 436.551V460.183L261.759 459.109L243.065 448.152V424.735ZM243.71 423.876L264.123 412.06L283.461 423.231L284.75 423.876L264.337 435.692L243.71 423.876ZM264.552 436.551L284.965 424.735V448.367L264.552 460.183V436.551ZM281.527 420.653L264.767 410.985V387.353L285.18 399.169V422.801L281.527 420.653ZM265.197 386.494L285.61 374.678L306.023 386.494L285.61 398.31L265.197 386.494ZM306.667 387.353V410.985L286.254 422.801V399.169L306.667 387.353ZM286.254 424.735L306.667 436.551V460.183L304.948 459.109L286.254 448.152V424.735ZM286.684 423.876L307.097 412.06L326.436 423.231L327.725 423.876L307.312 435.692L286.684 423.876ZM307.742 436.551L328.155 424.735V448.367L307.742 460.183V436.551ZM324.502 420.653L307.742 410.985V387.353L328.155 399.169V422.801L324.502 420.653ZM308.386 386.494L328.799 374.678L349.212 386.494L328.799 398.31L308.386 386.494ZM349.857 387.353V410.985L329.444 422.801V399.169L349.857 387.353ZM329.229 424.735L349.642 436.551V460.183L347.923 459.109L329.014 448.152V424.735H329.229ZM329.874 423.876L350.286 412.06L369.625 423.231L370.914 423.876L350.501 435.692L329.874 423.876ZM350.931 436.551L371.344 424.735V448.367L350.931 460.183V436.551ZM367.691 420.653L350.931 410.985V387.353L371.344 399.169V422.801L367.691 420.653ZM351.361 386.494L371.774 374.678L392.187 386.494L371.774 398.31L351.361 386.494ZM392.831 387.353V410.985L372.418 422.801V399.169L392.831 387.353ZM372.418 424.735L392.831 436.551V460.183L391.112 459.109L372.418 448.152V424.735ZM373.063 423.876L393.476 412.06L412.815 423.231L414.104 423.876L393.691 435.692L373.063 423.876ZM393.906 436.551L414.319 424.735V448.367L393.906 460.183V436.551ZM410.881 420.653L394.121 410.985V387.353L414.534 399.169V422.801L410.881 420.653ZM394.55 386.494L414.963 374.678L435.376 386.494L414.963 398.31L394.55 386.494ZM436.021 387.353V410.985L415.608 422.801V399.169L436.021 387.353ZM415.608 424.735L436.021 436.551V460.183L434.302 459.109L415.393 448.152V424.735H415.608ZM416.038 423.876L436.451 412.06L455.789 423.231L457.078 423.876L436.665 435.692L416.038 423.876ZM437.095 436.551L457.508 424.735V448.367L437.095 460.183V436.551ZM453.855 420.653L437.095 410.985V387.353L457.508 399.169V422.801L453.855 420.653ZM437.74 386.494L458.153 374.678L478.566 386.494L458.153 398.31L437.74 386.494ZM479.21 387.353V410.985L458.797 422.801V399.169L479.21 387.353ZM458.582 424.735L478.995 436.551V460.183L477.276 459.109L458.582 448.152V424.735ZM459.227 423.876L479.64 412.06L498.979 423.231L500.268 423.876L479.855 435.692L459.227 423.876ZM480.285 436.551L500.697 424.735V448.367L480.285 460.183V436.551ZM497.045 420.653L480.285 410.985V387.353L500.697 399.169V422.801L497.045 420.653ZM480.714 386.494L501.127 374.678L521.54 386.494L501.127 398.31L480.714 386.494ZM522.4 387.353V410.985L501.987 422.801V399.169L522.4 387.353ZM501.772 424.735L522.185 436.551V460.183L520.466 459.109L501.557 448.152V424.735H501.772ZM502.417 423.876L522.829 412.06L542.168 423.231L543.457 423.876L523.044 435.692L502.417 423.876ZM523.474 436.551L543.887 424.735V448.367L523.474 460.183V436.551ZM540.234 420.653L523.474 410.985V387.353L543.887 399.169V422.801L540.234 420.653ZM523.904 386.494L544.317 374.678L564.73 386.494L544.317 398.31L523.904 386.494ZM565.374 387.353V410.985L544.961 422.801V399.169L565.374 387.353ZM544.961 424.735L565.374 436.551V460.183L563.655 459.109L544.961 448.152V424.735ZM545.391 423.876L565.804 412.06L585.143 423.231L586.432 423.876L566.019 435.692L545.391 423.876ZM566.449 436.551L586.861 424.735V448.367L566.449 460.183V436.551ZM583.209 420.653L566.449 410.985V387.353L586.861 399.169V422.801L583.209 420.653ZM567.093 386.494L587.506 374.678L607.919 386.494L587.506 398.31L567.093 386.494ZM608.564 387.353V410.985L588.151 422.801V399.169L608.564 387.353ZM588.151 424.735L608.564 436.551V460.183L606.845 459.109L588.151 448.152V424.735ZM588.581 423.876L608.993 412.06L628.332 423.231L629.621 423.876L609.208 435.692L588.581 423.876ZM609.638 436.551L630.051 424.735V448.367L609.638 460.183V436.551ZM626.398 420.653L609.638 410.985V387.353L630.051 399.169V422.801L626.398 420.653ZM610.068 386.494L630.481 374.678L650.894 386.494L630.481 398.31L610.068 386.494ZM651.753 387.353V410.985L631.34 422.801V399.169L651.753 387.353ZM631.125 424.735L651.538 436.551V460.183L649.819 459.109L630.91 448.152V424.735H631.125ZM631.77 423.876L652.183 412.06L671.521 423.231L672.811 423.876L652.398 435.692L631.77 423.876ZM652.827 436.551L673.24 424.735V448.367L652.827 460.183V436.551ZM669.587 420.653L652.827 410.985V387.353L673.24 399.169V422.801L669.587 420.653ZM653.257 386.494L673.67 374.678L694.083 386.494L673.67 398.31L653.257 386.494ZM656.91 313.878L653.257 311.73L673.67 299.914L694.083 311.73L673.67 323.546L656.91 313.878ZM653.257 237.181L673.67 225.365L694.083 237.181L673.67 248.997L653.257 237.181ZM653.257 162.417L673.67 150.601L694.083 162.417L673.67 174.234L653.257 162.417ZM652.827 161.558V137.926L673.24 126.11V149.742L652.827 161.558ZM653.257 87.6538L673.67 75.8377L694.083 87.6538L673.67 99.4699L653.257 87.6538ZM673.24 74.9783L652.827 86.7944V63.1622L673.24 51.3461V74.9783ZM673.24 100.544V124.176L671.951 123.532L652.612 112.36V88.728L673.24 100.544ZM671.521 124.391L672.811 125.036L652.398 136.852L631.985 125.036L652.398 113.22L671.521 124.391ZM631.125 124.176V100.544L651.538 88.728V112.36L631.125 124.176ZM651.753 86.7944L631.34 74.9783V51.3461L634.993 53.4945L651.753 63.1622V86.7944ZM651.108 87.6538L630.695 99.4699L610.283 87.6538L630.695 75.8377L651.108 87.6538ZM630.051 74.9783L609.638 86.7944V63.1622L630.051 51.3461V74.9783ZM630.051 100.544V124.176L628.762 123.532L609.423 112.36V88.728L630.051 100.544ZM628.332 124.391L629.621 125.036L609.208 136.852L588.795 125.036L609.208 113.22L628.332 124.391ZM588.151 124.176V100.544L608.564 88.728V112.36L588.151 124.176ZM608.564 86.7944L588.151 74.9783V51.3461L591.804 53.4945L608.564 63.1622V86.7944ZM607.919 87.6538L587.506 99.4699L567.093 87.6538L587.506 75.8377L607.919 87.6538ZM587.076 74.9783L566.663 86.7944V63.1622L587.076 51.3461V74.9783ZM587.076 100.544V124.176L585.787 123.532L566.449 112.36V88.728L587.076 100.544ZM585.143 124.391L586.432 125.036L566.019 136.852L545.606 125.036L566.019 113.22L585.143 124.391ZM544.961 124.176V100.544L565.374 88.728V112.36L544.961 124.176ZM565.374 86.7944L544.961 74.9783V51.3461L548.614 53.4945L565.374 63.1622V86.7944ZM564.944 87.6538L544.532 99.4699L524.119 87.6538L544.532 75.8377L564.944 87.6538ZM543.887 74.9783L523.474 86.7944V63.1622L543.887 51.3461V74.9783ZM543.887 100.544V124.176L542.598 123.532L523.259 112.36V88.728L543.887 100.544ZM542.168 124.391L543.457 125.036L523.044 136.852L502.631 125.036L523.044 113.22L542.168 124.391ZM501.772 124.176V100.544L522.185 88.728V112.36L501.772 124.176ZM522.4 86.7944L501.987 74.9783V51.3461L505.64 53.4945L522.4 63.1622V86.7944ZM521.755 87.6538L501.342 99.4699L480.929 87.6538L501.342 75.8377L521.755 87.6538ZM500.697 74.9783L480.285 86.7944V63.1622L500.697 51.3461V74.9783ZM500.697 100.544V124.176L499.408 123.532L480.07 112.36V88.728L500.697 100.544ZM498.979 124.391L500.268 125.036L479.855 136.852L459.442 125.036L479.855 113.22L498.979 124.391ZM458.582 124.176V100.544L478.995 88.728V112.36L458.582 124.176ZM479.21 86.7944L458.797 74.9783V51.3461L462.45 53.4945L479.21 63.1622V86.7944ZM478.566 87.6538L458.153 99.4699L437.74 87.6538L458.153 75.8377L478.566 87.6538ZM457.508 74.9783L437.095 86.7944V63.1622L457.508 51.3461V74.9783ZM457.508 100.544V124.176L456.219 123.532L436.88 112.36V88.728L457.508 100.544ZM455.789 124.391L457.078 125.036L436.665 136.852L416.253 125.036L436.665 113.22L455.789 124.391ZM415.608 124.176V100.544L436.021 88.728V112.36L415.608 124.176ZM436.021 86.7944L415.608 74.9783V51.3461L419.261 53.4945L436.021 63.1622V86.7944ZM435.591 87.6538L415.178 99.4699L394.765 87.6538L415.178 75.8377L435.591 87.6538ZM414.534 74.9783L394.121 86.7944V63.1622L414.534 51.3461V74.9783ZM414.534 100.544V124.176L413.244 123.532L393.906 112.36V88.728L414.534 100.544ZM412.815 124.391L414.104 125.036L393.691 136.852L373.278 125.036L393.691 113.22L412.815 124.391ZM372.418 124.176V100.544L392.831 88.728V112.36L372.418 124.176ZM392.831 86.7944L372.418 74.9783V51.3461L376.071 53.4945L392.831 63.1622V86.7944ZM392.402 87.6538L371.989 99.4699L351.576 87.6538L371.989 75.8377L392.402 87.6538ZM371.344 74.9783L350.931 86.7944V63.1622L371.344 51.3461V74.9783ZM371.344 100.544V124.176L370.055 123.532L350.716 112.36V88.728L371.344 100.544ZM369.625 124.391L370.914 125.036L350.501 136.852L330.089 125.036L350.501 113.22L369.625 124.391ZM329.229 124.176V100.544L349.642 88.728V112.36L329.229 124.176ZM349.857 86.7944L329.444 74.9783V51.3461L333.097 53.4945L349.857 63.1622V86.7944ZM349.212 87.6538L328.799 99.4699L308.386 87.6538L328.799 75.8377L349.212 87.6538ZM328.155 74.9783L307.742 86.7944V63.1622L328.155 51.3461V74.9783ZM328.155 100.544V124.176L326.865 123.532L307.527 112.36V88.728L328.155 100.544ZM326.436 124.391L327.725 125.036L307.312 136.852L286.899 125.036L307.312 113.22L326.436 124.391ZM286.254 124.176V100.544L306.667 88.728V112.36L286.254 124.176ZM306.667 86.7944L286.254 74.9783V51.3461L289.907 53.4945L306.667 63.1622V86.7944ZM306.238 87.6538L285.825 99.4699L265.412 87.6538L285.825 75.8377L306.238 87.6538ZM285.18 74.9783L264.767 86.7944V63.1622L285.18 51.3461V74.9783ZM285.18 100.544V124.176L283.891 123.532L264.552 112.36V88.728L285.18 100.544ZM283.461 124.391L284.75 125.036L264.337 136.852L243.924 125.036L264.337 113.22L283.461 124.391ZM243.065 124.176V100.544L263.478 88.728V112.36L243.065 124.176ZM263.478 86.7944L243.065 74.9783V51.3461L246.718 53.4945L263.478 63.1622V86.7944ZM263.048 87.6538L242.635 99.4699L222.222 87.6538L242.635 75.8377L263.048 87.6538ZM241.991 74.9783L221.578 86.7944V63.1622L241.991 51.3461V74.9783ZM241.991 100.544V124.176L240.701 123.532L221.363 112.36V88.728L241.991 100.544ZM240.272 124.391L241.561 125.036L221.148 136.852L200.735 125.036L221.148 113.22L240.272 124.391ZM199.876 124.176V100.544L220.288 88.728V112.36L199.876 124.176ZM220.503 86.7944L200.09 74.9783V51.3461L203.743 53.4945L220.503 63.1622V86.7944ZM219.859 87.6538L199.446 99.4699L179.033 87.6538L199.446 75.8377L219.859 87.6538ZM198.801 74.9783L178.388 86.7944V63.1622L198.801 51.3461V74.9783ZM198.801 100.544V124.176L197.512 123.532L178.173 112.36V88.728L198.801 100.544ZM197.082 124.391L198.371 125.036L177.959 136.852L157.546 125.036L177.959 113.22L197.082 124.391ZM156.901 124.176V100.544L177.314 88.728V112.36L156.901 124.176ZM177.314 86.7944L156.901 74.9783V51.3461L160.554 53.4945L177.314 63.1622V86.7944ZM176.884 87.6538L156.471 99.4699L136.058 87.6538L156.471 75.8377L176.884 87.6538ZM155.827 74.9783L135.414 86.7944V63.1622L155.827 51.3461V74.9783ZM155.827 100.544V124.176L154.537 123.532L135.199 112.36V88.728L155.827 100.544ZM154.108 124.391L155.397 125.036L134.984 136.852L114.571 125.036L134.984 113.22L154.108 124.391ZM113.712 124.176V100.544L134.125 88.728V112.36L113.712 124.176ZM134.125 86.7944L113.712 74.9783V51.3461L117.364 53.4945L134.125 63.1622V86.7944ZM133.695 87.6538L113.282 99.4699L92.8689 87.6538L113.282 75.8377L133.695 87.6538ZM112.637 74.9783L92.2243 86.7944V63.1622L112.637 51.3461V74.9783ZM112.637 100.544V124.176L111.348 123.532L92.0095 112.36V88.728L112.637 100.544ZM110.918 124.391L112.207 125.036L91.7946 136.852L71.3817 125.036L91.7946 113.22L110.918 124.391ZM70.5222 124.176V100.544L90.9351 88.728V112.36L70.5222 124.176ZM91.1499 86.7944L70.737 74.9783V51.3461L74.3899 53.4945L91.1499 63.1622V86.7944ZM90.5053 87.6538L70.0924 99.4699L49.6795 87.6538L70.0924 75.8377L90.5053 87.6538ZM69.4478 74.9783L49.0349 86.7944V63.1622L69.4478 51.3461V74.9783ZM69.4478 100.544V124.176L68.1586 123.532L48.82 112.36V88.728L69.4478 100.544ZM67.7288 124.391L69.018 125.036L48.6051 136.852L28.1922 125.036L48.6051 113.22L67.7288 124.391ZM27.5476 124.176V100.544L47.9605 88.728V112.36L27.5476 124.176ZM47.9605 86.7944L27.5476 74.9783V51.3461L31.2004 53.4945L47.9605 63.1622V86.7944ZM47.5308 87.6538L27.1178 99.4699L6.70493 87.6538L27.1178 75.8377L47.5308 87.6538ZM26.4732 74.9783L6.06033 86.7944V63.1622L26.4732 51.3461V74.9783ZM26.4732 100.544V124.176L25.184 123.532L5.84546 112.36V88.728L26.4732 100.544ZM24.5394 124.391L25.8286 125.036L5.41571 136.852L-14.9972 125.036L5.41571 113.22L24.5394 124.391ZM-15.6418 124.176V100.544L4.77109 88.728V112.36L-15.6418 124.176ZM4.77109 86.7944L-15.6418 74.9783V51.3461L-11.989 53.4945L4.77109 63.1622V86.7944ZM4.34134 87.6538L-16.0716 99.4699L-36.4845 87.6538L-16.0716 75.8377L4.34134 87.6538ZM-16.7162 74.9783L-37.1291 86.7944V63.1622L-16.7162 51.3461V74.9783ZM-16.7162 100.544V124.176L-18.0054 123.532L-37.344 112.36V88.728L-16.7162 100.544ZM-18.4352 124.391L-17.1459 125.036L-37.5588 136.852L-57.9718 125.036L-37.5588 113.22L-18.4352 124.391ZM-58.8313 124.176V100.544L-38.4184 88.728V112.36L-58.8313 124.176ZM-38.2035 86.7944L-58.6164 74.9783V51.3461L-54.9636 53.4945L-38.2035 63.1622V86.7944ZM-38.8481 87.6538L-59.261 99.4699L-79.6739 87.6538L-59.261 75.8377L-38.8481 87.6538ZM-59.9056 74.9783L-80.3185 86.7944V63.1622L-59.9056 51.3461V74.9783ZM-59.9056 100.544V124.176L-61.1949 123.532L-80.5334 112.36V88.728L-59.9056 100.544ZM-61.6246 124.391L-60.3354 125.036L-80.7483 136.852L-101.161 125.036L-80.7483 113.22L-61.6246 124.391ZM-101.806 124.176V100.544L-81.3929 88.728V112.36L-101.806 124.176ZM-81.3929 86.7944L-101.806 74.9783V51.3461L-98.153 53.4945L-81.3929 63.1622V86.7944ZM-82.0375 87.6538L-102.45 99.4699L-122.863 87.6538L-102.45 75.8377L-82.0375 87.6538ZM-102.88 74.9783L-123.293 86.7944V63.1622L-102.88 51.3461V74.9783ZM-102.88 100.544V124.176L-104.169 123.532L-123.508 112.36V88.728L-102.88 100.544ZM-104.814 124.391L-103.525 125.036L-123.938 136.852L-144.351 125.036L-123.938 113.22L-104.814 124.391ZM-144.995 124.176V100.544L-124.582 88.728V112.36L-144.995 124.176ZM-124.582 86.7944L-144.995 74.9783V51.3461L-141.342 53.4945L-124.582 63.1622V86.7944ZM-125.012 87.6538L-145.425 99.4699L-165.838 87.6538L-145.425 75.8377L-125.012 87.6538ZM-146.07 74.9783L-166.483 86.7944V63.1622L-146.07 51.3461V74.9783ZM-146.07 100.544V124.176L-147.359 123.532L-166.697 112.36V88.728L-146.07 100.544ZM-147.789 124.391L-146.499 125.036L-166.912 136.852L-187.325 125.036L-166.912 113.22L-147.789 124.391ZM-188.185 124.176V100.544L-167.772 88.728V112.36L-188.185 124.176ZM-167.557 86.7944L-187.97 74.9783V51.3461L-184.317 53.4945L-167.557 63.1622V86.7944ZM-168.202 87.6538L-188.614 99.4699L-209.027 87.6538L-188.614 75.8377L-168.202 87.6538ZM-189.259 74.9783L-209.672 86.7944V63.1622L-189.259 51.3461V74.9783ZM-189.259 100.544V124.176L-190.548 123.532L-209.887 112.36V88.728L-189.259 100.544ZM-190.978 124.391L-189.689 125.036L-210.102 136.852L-230.515 125.036L-210.102 113.22L-190.978 124.391ZM-231.159 124.176V100.544L-210.746 88.728V112.36L-231.159 124.176ZM-210.746 86.7944L-231.159 74.9783V51.3461L-227.506 53.4945L-210.746 63.1622V86.7944ZM-211.391 87.6538L-231.804 99.4699L-252.217 87.6538L-231.804 75.8377L-211.391 87.6538ZM-232.234 74.9783L-252.647 86.7944V63.1622L-232.234 51.3461V74.9783ZM-232.234 100.544V124.176L-233.523 123.532L-252.861 112.36V88.728L-232.234 100.544ZM-234.167 124.391L-232.878 125.036L-253.291 136.852L-273.704 125.036L-253.291 113.22L-234.167 124.391ZM-274.349 124.176V100.544L-253.936 88.728V112.36L-274.349 124.176ZM-253.936 86.7944L-274.349 74.9783V51.3461L-270.696 53.4945L-253.936 63.1622V86.7944ZM-254.366 87.6538L-274.778 99.4699L-295.191 87.6538L-274.778 75.8377L-254.366 87.6538ZM-275.423 74.9783L-295.836 86.7944V63.1622L-275.423 51.3461V74.9783ZM-275.423 100.544V124.176L-276.712 123.532L-296.051 112.36V88.728L-275.423 100.544ZM-277.142 124.391L-275.853 125.036L-296.266 136.852L-316.679 125.036L-296.266 113.22L-277.142 124.391ZM-317.538 124.176V100.544L-297.125 88.728V112.36L-317.538 124.176ZM-296.91 86.7944L-317.538 74.9783V51.3461L-313.885 53.4945L-297.125 63.1622V86.7944H-296.91ZM-297.555 87.6538L-317.968 99.4699L-338.381 87.6538L-317.968 75.8377L-297.555 87.6538ZM-318.612 74.9783L-339.025 86.7944V63.1622L-318.612 51.3461V74.9783ZM-318.612 100.544V124.176L-319.687 123.532L-339.025 112.36V88.728L-318.612 100.544ZM-320.331 124.391L-319.042 125.036L-339.455 136.852L-359.868 125.036L-339.455 113.22L-320.331 124.391ZM-340.1 112.36L-360.513 124.176V100.544L-340.1 88.728V112.36ZM-340.1 137.926V161.558L-343.753 159.41L-360.513 149.742V126.11L-340.1 137.926ZM-340.1 186.909L-360.513 198.725V175.093L-340.1 163.277V186.909ZM-340.1 212.475V236.107L-360.513 224.291V200.659L-340.1 212.475ZM-340.1 261.673L-360.513 273.489V249.857L-340.1 238.041V261.673ZM-340.1 287.239V310.871L-360.513 299.055V275.422L-340.1 287.239ZM-340.1 336.436L-360.513 348.253V324.62L-340.1 312.804V336.436ZM-340.1 361.787V385.42L-360.513 373.603V349.971L-340.1 361.787ZM-340.1 410.985L-360.513 422.801V399.169L-340.1 387.353V410.985ZM-340.1 436.551V460.183L-341.819 459.109L-360.513 448.152V424.52L-340.1 436.551ZM-339.67 561.372L-319.257 573.188L-339.67 585.004L-360.083 573.188L-339.67 561.372ZM-360.513 572.114V548.482L-340.1 536.666V560.298L-360.513 572.114ZM-360.513 523.131V499.499L-340.1 511.315V534.947L-360.513 523.131ZM-360.083 498.425L-339.67 486.608L-320.761 497.565L-319.042 498.639L-339.455 510.455L-360.083 498.425ZM-360.513 497.565V473.933L-340.1 462.117V485.749L-360.513 497.565ZM-339.025 511.315L-318.612 499.499V523.131L-339.025 534.947V511.315ZM-320.331 496.491L-339.24 485.534V461.902L-318.827 473.718V497.35L-320.331 496.491ZM-338.596 461.043L-318.183 449.227L-299.274 460.183L-297.555 461.258L-317.968 473.074L-338.596 461.043ZM-296.91 462.117V485.749L-317.323 497.565V473.933L-296.91 462.117ZM-317.538 499.499L-297.125 511.315V534.947L-317.538 523.131V499.499ZM-296.481 561.372L-276.068 573.188L-296.481 585.004L-316.893 573.188L-296.481 561.372ZM-317.538 572.114V548.482L-297.125 536.666V560.298L-317.538 572.114ZM-316.893 498.425L-296.481 486.608L-277.787 497.565L-276.068 498.639L-296.481 510.455L-316.893 498.425ZM-295.836 511.315L-275.423 499.499V523.131L-295.836 534.947V511.315ZM-277.142 496.491L-295.836 485.534V461.902L-275.423 473.718V497.35L-277.142 496.491ZM-295.406 461.043L-274.993 449.227L-256.299 460.183L-254.58 461.258L-274.993 473.074L-295.406 461.043ZM-253.936 462.117V485.749L-274.349 497.565V473.933L-253.936 462.117ZM-274.349 499.499L-253.936 511.315V534.947L-274.349 523.131V499.499ZM-253.291 561.372L-232.878 573.188L-253.291 585.004L-273.704 573.188L-253.291 561.372ZM-274.349 572.114V548.482L-253.936 536.666V560.298L-274.349 572.114ZM-273.919 498.425L-253.506 486.608L-234.812 497.565L-233.093 498.639L-253.506 510.455L-273.919 498.425ZM-252.861 511.315L-232.448 499.499V523.131L-252.861 534.947V511.315ZM-233.953 496.491L-252.647 485.534V461.902L-232.234 473.718V497.35L-233.953 496.491ZM-252.217 461.043L-231.804 449.227L-212.895 460.183L-211.176 461.258L-231.589 473.074L-252.217 461.043ZM-210.746 462.117V485.749L-231.159 497.565V473.933L-210.746 462.117ZM-231.159 499.499L-210.746 511.315V534.947L-231.159 523.131V499.499ZM-210.317 561.372L-189.904 573.188L-210.317 585.004L-230.729 573.188L-210.317 561.372ZM-231.159 572.114V548.482L-210.746 536.666V560.298L-231.159 572.114ZM-230.729 498.425L-210.317 486.608L-191.408 497.565L-189.689 498.639L-210.102 510.455L-230.729 498.425ZM-209.672 511.315L-189.259 499.499V523.131L-209.672 534.947V511.315ZM-190.978 496.491L-209.887 485.534V461.902L-189.474 473.718V497.35L-190.978 496.491ZM-209.242 461.043L-188.829 449.227L-170.135 460.183L-168.416 461.258L-188.829 473.074L-209.242 461.043ZM-167.557 462.117V485.749L-187.97 497.565V473.933L-167.557 462.117ZM-188.185 499.499L-167.772 511.315V534.947L-188.185 523.131V499.499ZM-167.127 561.372L-146.714 573.188L-167.127 585.004L-187.54 573.188L-167.127 561.372ZM-188.185 572.114V548.482L-167.772 536.666V560.298L-188.185 572.114ZM-187.54 498.425L-167.127 486.608L-148.433 497.565L-146.714 498.639L-167.127 510.455L-187.54 498.425ZM-166.483 511.315L-146.07 499.499V523.131L-166.483 534.947V511.315ZM-147.789 496.491L-166.483 485.534V461.902L-146.07 473.718V497.35L-147.789 496.491ZM-166.053 461.043L-145.64 449.227L-126.946 460.183L-125.227 461.258L-145.64 473.074L-166.053 461.043ZM-124.582 462.117V485.749L-144.995 497.565V473.933L-124.582 462.117ZM-144.995 499.499L-124.582 511.315V534.947L-144.995 523.131V499.499ZM-123.938 561.372L-103.525 573.188L-123.938 585.004L-144.351 573.188L-123.938 561.372ZM-144.995 572.114V548.482L-124.582 536.666V560.298L-144.995 572.114ZM-144.566 498.425L-124.153 486.608L-105.244 497.565L-103.525 498.639L-123.938 510.455L-144.566 498.425ZM-123.508 511.315L-103.095 499.499V523.131L-123.508 534.947V511.315ZM-104.599 496.491L-123.508 485.534V461.902L-103.095 473.718V497.35L-104.599 496.491ZM-122.863 461.043L-102.45 449.227L-83.5417 460.183L-81.8227 461.258L-102.236 473.074L-122.863 461.043ZM-81.3929 462.117V485.749L-101.806 497.565V473.933L-81.3929 462.117ZM-101.806 499.499L-81.3929 511.315V534.947L-101.806 523.131V499.499ZM-80.9631 561.372L-60.5502 573.188L-80.9631 585.004L-101.376 573.188L-80.9631 561.372ZM-101.806 572.114V548.482L-81.3929 536.666V560.298L-101.806 572.114ZM-101.376 498.425L-80.9631 486.608L-62.2692 497.565L-60.5502 498.639L-80.9631 510.455L-101.376 498.425ZM-80.3185 511.315L-59.9056 499.499V523.131L-80.3185 534.947V511.315ZM-61.6246 496.491L-80.3185 485.534V461.902L-59.9056 473.718V497.35L-61.6246 496.491ZM-79.8888 461.043L-59.4759 449.227L-40.782 460.183L-39.063 461.258L-59.4759 473.074L-79.8888 461.043ZM-38.2035 462.117V485.749L-58.6164 497.565V473.933L-38.2035 462.117ZM-58.8313 499.499L-38.4184 511.315V534.947L-58.8313 523.131V499.499ZM-37.7737 561.372L-17.3608 573.188L-37.7737 585.004L-58.1866 573.188L-37.7737 561.372ZM-58.8313 572.114V548.482L-38.4184 536.666V560.298L-58.8313 572.114ZM-58.1866 498.425L-37.7737 486.608L-19.0798 497.565L-17.3608 498.639L-37.7737 510.455L-58.1866 498.425ZM-37.1291 511.315L-16.7162 499.499V523.131L-37.1291 534.947V511.315ZM-18.4352 496.491L-37.1291 485.534V461.902L-16.7162 473.718V497.35L-18.4352 496.491ZM-36.6994 461.043L-16.2865 449.227L2.62234 460.183L4.34134 461.258L-16.0716 473.074L-36.6994 461.043ZM4.77109 462.117V485.749L-15.6418 497.565V473.933L4.77109 462.117ZM-15.6418 499.499L4.77109 511.315V534.947L-15.6418 523.131V499.499ZM5.41571 561.372L25.8286 573.188L5.41571 585.004L-14.9972 573.188L5.41571 561.372ZM-15.6418 572.114V548.482L4.77109 536.666V560.298L-15.6418 572.114ZM-15.2121 498.425L5.20084 486.608L24.1096 497.565L25.8286 498.639L5.41571 510.455L-15.2121 498.425ZM5.84546 511.315L26.2584 499.499V523.131L5.84546 534.947V511.315ZM24.7543 496.491L5.84546 485.534V461.902L26.2584 473.718V497.35L24.7543 496.491ZM6.49008 461.043L26.903 449.227L45.5969 460.183L47.3159 461.258L26.903 473.074L6.49008 461.043ZM47.9605 462.117V485.749L27.5476 497.565V473.933L47.9605 462.117ZM27.5476 499.499L47.9605 511.315V534.947L27.5476 523.131V499.499ZM48.3903 561.372L68.8032 573.188L48.3903 585.004L27.9774 573.188L48.3903 561.372ZM27.5476 572.114V548.482L47.9605 536.666V560.298L27.5476 572.114ZM27.9774 498.425L48.3903 486.608L67.0842 497.565L68.8032 498.639L48.3903 510.455L27.9774 498.425ZM49.0349 511.315L69.4478 499.499V523.131L49.0349 534.947V511.315ZM67.7288 496.491L49.0349 485.534V461.902L69.4478 473.718V497.35L67.7288 496.491ZM49.6795 461.043L70.0924 449.227L88.7863 460.183L90.5053 461.258L70.0924 473.074L49.6795 461.043ZM91.1499 462.117V485.749L70.737 497.565V473.933L91.1499 462.117ZM70.5222 499.499L90.9351 511.315V534.947L70.5222 523.131V499.499ZM91.5797 561.372L111.993 573.188L91.5797 585.004L71.1667 573.188L91.5797 561.372ZM70.5222 572.114V548.482L90.9351 536.666V560.298L70.5222 572.114ZM71.1667 498.425L91.5797 486.608L110.488 497.565L112.207 498.639L91.7946 510.455L71.1667 498.425ZM92.2243 511.315L112.637 499.499V523.131L92.2243 534.947V511.315ZM110.918 496.491L92.0095 485.534V461.902L112.422 473.718V497.35L110.918 496.491ZM92.6541 461.043L113.067 449.227L131.976 460.183L133.695 461.258L113.282 473.074L92.6541 461.043ZM134.125 462.117V485.749L113.712 497.565V473.933L134.125 462.117ZM113.712 499.499L134.125 511.315V534.947L113.712 523.131V499.499ZM134.769 561.372L155.182 573.188L134.769 585.004L114.356 573.188L134.769 561.372ZM113.712 572.114V548.482L134.125 536.666V560.298L113.712 572.114ZM114.356 498.425L134.769 486.608L153.463 497.565L155.182 498.639L134.769 510.455L114.356 498.425ZM135.199 511.315L155.612 499.499V523.131L135.199 534.947V511.315ZM154.108 496.491L135.414 485.534V461.902L155.827 473.718V497.35L154.108 496.491ZM135.844 461.043L156.256 449.227L174.95 460.183L176.669 461.258L156.256 473.074L135.844 461.043ZM177.314 462.117V485.749L156.901 497.565V473.933L177.314 462.117ZM156.901 499.499L177.314 511.315V534.947L156.901 523.131V499.499ZM177.959 561.372L198.371 573.188L177.959 585.004L157.546 573.188L177.959 561.372ZM156.901 572.114V548.482L177.314 536.666V560.298L156.901 572.114ZM157.331 498.425L177.744 486.608L196.438 497.565L198.157 498.639L177.744 510.455L157.331 498.425ZM178.388 511.315L198.801 499.499V523.131L178.388 534.947V511.315ZM197.297 496.491L178.603 485.534V461.902L199.016 473.718V497.35L197.297 496.491ZM179.033 461.043L199.446 449.227L218.355 460.183L220.074 461.258L199.661 473.074L179.033 461.043ZM220.503 462.117V485.749L200.09 497.565V473.933L220.503 462.117ZM199.876 499.499L220.288 511.315V534.947L199.876 523.131V499.499ZM220.933 561.372L241.346 573.188L220.933 585.004L200.52 573.188L220.933 561.372ZM199.876 572.114V548.482L220.288 536.666V560.298L199.876 572.114ZM200.52 498.425L220.933 486.608L239.842 497.565L241.561 498.639L221.148 510.455L200.52 498.425ZM221.578 511.315L241.991 499.499V523.131L221.578 534.947V511.315ZM240.272 496.491L221.363 485.534V461.902L241.776 473.718V497.35L240.272 496.491ZM222.008 461.043L242.42 449.227L261.114 460.183L262.833 461.258L242.42 473.074L222.008 461.043ZM263.478 462.117V485.749L243.065 497.565V473.933L263.478 462.117ZM243.065 499.499L263.478 511.315V534.947L243.065 523.131V499.499ZM264.123 561.372L284.535 573.188L264.123 585.004L243.71 573.188L264.123 561.372ZM243.065 572.114V548.482L263.478 536.666V560.298L243.065 572.114ZM243.71 498.425L264.123 486.608L282.816 497.565L284.535 498.639L264.123 510.455L243.71 498.425ZM264.552 511.315L284.965 499.499V523.131L264.552 534.947V511.315ZM283.461 496.491L264.767 485.534V461.902L285.18 473.718V497.35L283.461 496.491ZM265.197 461.043L285.61 449.227L304.304 460.183L306.023 461.258L285.61 473.074L265.197 461.043ZM306.667 462.117V485.749L286.254 497.565V473.933L306.667 462.117ZM286.254 499.499L306.667 511.315V534.947L286.254 523.131V499.499ZM307.312 561.372L327.725 573.188L307.312 585.004L286.899 573.188L307.312 561.372ZM286.254 572.114V548.482L306.667 536.666V560.298L286.254 572.114ZM286.684 498.425L307.097 486.608L326.006 497.565L327.725 498.639L307.312 510.455L286.684 498.425ZM307.742 511.315L328.155 499.499V523.131L307.742 534.947V511.315ZM326.651 496.491L307.742 485.534V461.902L328.155 473.718V497.35L326.651 496.491ZM308.386 461.043L328.799 449.227L347.708 460.183L349.427 461.258L329.014 473.074L308.386 461.043ZM349.857 462.117V485.749L329.444 497.565V473.933L349.857 462.117ZM329.229 499.499L349.642 511.315V534.947L329.229 523.131V499.499ZM350.286 561.372L370.699 573.188L350.286 585.004L329.874 573.188L350.286 561.372ZM329.229 572.114V548.482L349.642 536.666V560.298L329.229 572.114ZM329.874 498.425L350.286 486.608L368.98 497.565L370.699 498.639L350.286 510.455L329.874 498.425ZM350.931 511.315L371.344 499.499V523.131L350.931 534.947V511.315ZM369.625 496.491L350.931 485.534V461.902L371.344 473.718V497.35L369.625 496.491ZM351.361 461.043L371.774 449.227L390.468 460.183L392.187 461.258L371.774 473.074L351.361 461.043ZM392.831 462.117V485.749L372.418 497.565V473.933L392.831 462.117ZM372.418 499.499L392.831 511.315V534.947L372.418 523.131V499.499ZM393.476 561.372L413.889 573.188L393.476 585.004L373.063 573.188L393.476 561.372ZM372.418 572.114V548.482L392.831 536.666V560.298L372.418 572.114ZM373.063 498.425L393.476 486.608L412.385 497.565L414.104 498.639L393.691 510.455L373.063 498.425ZM393.906 511.315L414.319 499.499V523.131L393.906 534.947V511.315ZM412.815 496.491L393.906 485.534V461.902L414.319 473.718V497.35L412.815 496.491ZM394.55 461.043L414.963 449.227L433.872 460.183L435.591 461.258L415.178 473.074L394.55 461.043ZM436.021 462.117V485.749L415.608 497.565V473.933L436.021 462.117ZM415.608 499.499L436.021 511.315V534.947L415.608 523.131V499.499ZM436.665 561.372L457.078 573.188L436.665 585.004L416.253 573.188L436.665 561.372ZM415.608 572.114V548.482L436.021 536.666V560.298L415.608 572.114ZM416.038 498.425L436.451 486.608L455.144 497.565L456.863 498.639L436.451 510.455L416.038 498.425ZM437.095 511.315L457.508 499.499V523.131L437.095 534.947V511.315ZM456.004 496.491L437.31 485.534V461.902L457.723 473.718V497.35L456.004 496.491ZM437.74 461.043L458.153 449.227L476.847 460.183L478.566 461.258L458.153 473.074L437.74 461.043ZM479.21 462.117V485.749L458.797 497.565V473.933L479.21 462.117ZM458.582 499.499L478.995 511.315V534.947L458.582 523.131V499.499ZM479.64 561.372L500.053 573.188L479.64 585.004L459.227 573.188L479.64 561.372ZM458.582 572.114V548.482L478.995 536.666V560.298L458.582 572.114ZM459.227 498.425L479.64 486.608L498.334 497.565L500.053 498.639L479.64 510.455L459.227 498.425ZM480.285 511.315L500.697 499.499V523.131L480.285 534.947V511.315ZM498.979 496.491L480.285 485.534V461.902L500.697 473.718V497.35L498.979 496.491ZM480.714 461.043L501.127 449.227L520.036 460.183L521.755 461.258L501.342 473.074L480.714 461.043ZM522.4 462.117V485.749L501.987 497.565V473.933L522.4 462.117ZM501.772 499.499L522.185 511.315V534.947L501.772 523.131V499.499ZM522.829 561.372L543.242 573.188L522.829 585.004L502.417 573.188L522.829 561.372ZM501.772 572.114V548.482L522.185 536.666V560.298L501.772 572.114ZM502.417 498.425L522.829 486.608L541.738 497.565L543.457 498.639L523.044 510.455L502.417 498.425ZM523.474 511.315L543.887 499.499V523.131L523.474 534.947V511.315ZM542.168 496.491L523.259 485.534V461.902L543.672 473.718V497.35L542.168 496.491ZM523.904 461.043L544.317 449.227L563.011 460.183L564.73 461.258L544.317 473.074L523.904 461.043ZM565.374 462.117V485.749L544.961 497.565V473.933L565.374 462.117ZM544.961 499.499L565.374 511.315V534.947L544.961 523.131V499.499ZM566.019 561.372L586.432 573.188L566.019 585.004L545.606 573.188L566.019 561.372ZM544.961 572.114V548.482L565.374 536.666V560.298L544.961 572.114ZM545.391 498.425L565.804 486.608L584.498 497.565L586.217 498.639L565.804 510.455L545.391 498.425ZM566.449 511.315L586.861 499.499V523.131L566.449 534.947V511.315ZM585.357 496.491L566.663 485.534V461.902L587.076 473.718V497.35L585.357 496.491ZM567.093 461.043L587.506 449.227L606.2 460.183L607.919 461.258L587.506 473.074L567.093 461.043ZM608.564 462.117V485.749L588.151 497.565V473.933L608.564 462.117ZM588.151 499.499L608.564 511.315V534.947L588.151 523.131V499.499ZM608.993 561.372L629.406 573.188L608.993 585.004L588.581 573.188L608.993 561.372ZM588.151 572.114V548.482L608.564 536.666V560.298L588.151 572.114ZM588.581 498.425L608.993 486.608L627.902 497.565L629.621 498.639L609.208 510.455L588.581 498.425ZM609.638 511.315L630.051 499.499V523.131L609.638 534.947V511.315ZM628.332 496.491L609.423 485.534V461.902L629.836 473.718V497.35L628.332 496.491ZM610.068 461.043L630.481 449.227L649.389 460.183L651.108 461.258L630.695 473.074L610.068 461.043ZM651.753 462.117V485.749L631.34 497.565V473.933L651.753 462.117ZM631.125 499.499L651.538 511.315V534.947L631.125 523.131V499.499ZM652.183 561.372L672.596 573.188L652.183 585.004L631.77 573.188L652.183 561.372ZM631.125 572.114V548.482L651.538 536.666V560.298L631.125 572.114ZM631.77 498.425L652.183 486.608L670.877 497.565L672.596 498.639L652.183 510.455L631.77 498.425ZM652.827 511.315L673.24 499.499V523.131L652.827 534.947V511.315ZM671.521 496.491L652.827 485.534V461.902L673.24 473.718V497.35L671.521 496.491ZM653.257 461.043L673.67 449.227L694.083 461.043L673.67 472.859L653.257 461.043ZM694.728 485.749L674.315 497.565V473.933L694.728 462.117V485.749ZM694.728 436.551V460.183L674.315 448.367V424.735L694.728 436.551ZM694.728 410.985L674.315 422.801V399.169L694.728 387.353V410.985ZM694.728 361.787V385.42L674.315 373.603V349.971L694.728 361.787ZM694.728 336.436L674.315 348.253V324.62L694.728 312.804V336.436ZM694.728 287.239V310.871L674.315 299.055V275.422L694.728 287.239ZM694.728 261.673L674.315 273.489V249.857L694.728 238.041V261.673ZM694.728 212.475V236.107L674.315 224.291V200.659L694.728 212.475ZM694.728 186.909L674.315 198.725V175.093L694.728 163.277V186.909ZM694.728 137.926V161.558L674.315 149.742V126.11L694.728 137.926ZM694.728 112.36L674.315 124.176V100.544L694.728 88.728V112.36ZM677.967 53.4945L694.728 63.1622V86.7944L674.315 74.9783V51.3461L677.967 53.4945ZM673.67 1.28879L694.728 13.3197V37.5965L674.315 49.4126V25.1358L653.257 13.1049L673.67 1.28879ZM652.827 13.9642L673.24 25.7803V49.4126L652.827 37.5965V13.9642ZM652.183 38.6706L672.596 50.4867L652.183 62.3029L635.423 52.6351L631.77 50.4867L652.183 38.6706ZM651.753 37.5965L631.34 49.4126V25.7803L651.753 13.9642V37.5965ZM630.695 1.28879L651.108 13.1049L630.695 24.921L610.283 13.1049L630.695 1.28879ZM609.638 13.9642L630.051 25.7803V49.4126L609.638 37.5965V13.9642ZM608.993 38.6706L629.406 50.4867L608.993 62.3029L592.233 52.6351L588.581 50.4867L608.993 38.6706ZM608.564 37.5965L588.151 49.4126V25.7803L608.564 13.9642V37.5965ZM587.506 1.28879L607.919 13.1049L587.506 24.921L567.093 13.1049L587.506 1.28879ZM566.449 13.9642L587.076 25.7803V49.4126L566.663 37.5965V13.9642H566.449ZM566.019 38.6706L586.432 50.4867L566.019 62.3029L549.259 52.6351L545.606 50.4867L566.019 38.6706ZM565.374 37.5965L544.961 49.4126V25.7803L565.374 13.9642V37.5965ZM544.317 1.28879L564.73 13.1049L544.317 24.921L523.904 13.1049L544.317 1.28879ZM523.474 13.9642L543.887 25.7803V49.4126L523.474 37.5965V13.9642ZM522.829 38.6706L543.242 50.4867L522.829 62.3029L506.069 52.6351L502.417 50.4867L522.829 38.6706ZM522.4 37.5965L501.987 49.4126V25.7803L522.4 13.9642V37.5965ZM501.342 1.28879L521.755 13.1049L501.342 24.921L480.929 13.1049L501.342 1.28879ZM480.285 13.9642L500.697 25.7803V49.4126L480.285 37.5965V13.9642ZM479.64 38.6706L500.053 50.4867L479.64 62.3029L462.88 52.6351L459.227 50.4867L479.64 38.6706ZM479.21 37.5965L458.797 49.4126V25.7803L479.21 13.9642V37.5965ZM458.153 1.28879L478.566 13.1049L458.153 24.921L437.74 13.1049L458.153 1.28879ZM437.095 13.9642L457.508 25.7803V49.4126L437.095 37.5965V13.9642ZM436.665 38.6706L457.078 50.4867L436.665 62.3029L419.905 52.6351L416.253 50.4867L436.665 38.6706ZM436.021 37.5965L415.608 49.4126V25.7803L436.021 13.9642V37.5965ZM414.963 1.28879L435.376 13.1049L414.963 24.921L394.55 13.1049L414.963 1.28879ZM393.906 13.9642L414.319 25.7803V49.4126L393.906 37.5965V13.9642ZM393.476 38.6706L413.889 50.4867L393.476 62.3029L376.716 52.6351L373.063 50.4867L393.476 38.6706ZM392.831 37.5965L372.418 49.4126V25.7803L392.831 13.9642V37.5965ZM371.989 1.28879L392.402 13.1049L371.989 24.921L351.576 13.1049L371.989 1.28879ZM350.931 13.9642L371.344 25.7803V49.4126L350.931 37.5965V13.9642ZM350.286 38.6706L370.699 50.4867L350.286 62.3029L333.526 52.6351L329.874 50.4867L350.286 38.6706ZM349.857 37.5965L329.229 49.4126V25.7803L349.642 13.9642V37.5965H349.857ZM328.799 1.28879L349.212 13.1049L328.799 24.921L308.386 13.1049L328.799 1.28879ZM307.742 13.9642L328.155 25.7803V49.4126L307.742 37.5965V13.9642ZM307.312 38.6706L327.725 50.4867L307.312 62.3029L290.552 52.6351L286.899 50.4867L307.312 38.6706ZM306.667 37.5965L286.254 49.4126V25.7803L306.667 13.9642V37.5965ZM285.61 1.28879L306.023 13.1049L285.61 24.921L265.197 13.1049L285.61 1.28879ZM264.552 13.9642L284.965 25.7803V49.4126L264.552 37.5965V13.9642ZM264.123 38.6706L284.535 50.4867L264.123 62.3029L247.362 52.6351L243.71 50.4867L264.123 38.6706ZM263.478 37.5965L243.065 49.4126V25.7803L263.478 13.9642V37.5965ZM242.635 1.28879L263.048 13.1049L242.635 24.921L222.222 13.1049L242.635 1.28879ZM221.578 13.9642L241.991 25.7803V49.4126L221.578 37.5965V13.9642ZM220.933 38.6706L241.346 50.4867L220.933 62.3029L204.173 52.6351L200.52 50.4867L220.933 38.6706ZM220.503 37.5965L200.09 49.4126V25.7803L220.503 13.9642V37.5965ZM199.446 1.28879L219.859 13.1049L199.446 24.921L179.033 13.1049L199.446 1.28879ZM178.388 13.9642L198.801 25.7803V49.4126L178.388 37.5965V13.9642ZM177.959 38.6706L198.371 50.4867L177.959 62.3029L161.198 52.6351L157.546 50.4867L177.959 38.6706ZM177.314 37.5965L156.901 49.4126V25.7803L177.314 13.9642V37.5965ZM156.256 1.28879L176.669 13.1049L156.256 24.921L135.844 13.1049L156.256 1.28879ZM135.199 13.9642L155.612 25.7803V49.4126L135.199 37.5965V13.9642ZM134.769 38.6706L155.182 50.4867L134.769 62.3029L118.009 52.6351L114.356 50.4867L134.769 38.6706ZM134.125 37.5965L113.712 49.4126V25.7803L134.125 13.9642V37.5965ZM113.282 1.28879L133.695 13.1049L113.282 24.921L92.8689 13.1049L113.282 1.28879ZM92.2243 13.9642L112.637 25.7803V49.4126L92.2243 37.5965V13.9642ZM91.5797 38.6706L111.993 50.4867L91.5797 62.3029L74.8196 52.6351L71.1667 50.4867L91.5797 38.6706ZM91.1499 37.5965L70.737 49.4126V25.7803L91.1499 13.9642V37.5965ZM70.0924 1.28879L90.5053 13.1049L70.0924 24.921L49.6795 13.1049L70.0924 1.28879ZM49.0349 13.9642L69.4478 25.7803V49.4126L49.0349 37.5965V13.9642ZM48.3903 38.6706L68.8032 50.4867L48.3903 62.3029L31.6302 52.6351L27.9774 50.4867L48.3903 38.6706ZM47.9605 37.5965L27.5476 49.4126V25.7803L47.9605 13.9642V37.5965ZM26.903 1.28879L47.3159 13.1049L26.903 24.921L6.49008 13.1049L26.903 1.28879ZM5.84546 13.9642L26.2584 25.7803V49.4126L5.84546 37.5965V13.9642ZM5.41571 38.6706L25.8286 50.4867L5.41571 62.3029L-11.3444 52.6351L-14.9972 50.4867L5.41571 38.6706ZM4.77109 37.5965L-15.6418 49.4126V25.7803L4.77109 13.9642V37.5965ZM-16.2865 1.28879L4.12646 13.1049L-16.2865 24.921L-36.6994 13.1049L-16.2865 1.28879ZM-37.1291 13.9642L-16.7162 25.7803V49.4126L-37.1291 37.5965V13.9642ZM-37.7737 38.6706L-17.3608 50.4867L-37.7737 62.3029L-54.5338 52.6351L-58.1866 50.4867L-37.7737 38.6706ZM-38.2035 37.5965L-58.6164 49.4126V25.7803L-38.2035 13.9642V37.5965ZM-59.261 1.28879L-38.8481 13.1049L-59.261 24.921L-79.6739 13.1049L-59.261 1.28879ZM-80.3185 13.9642L-59.9056 25.7803V49.4126L-80.3185 37.5965V13.9642ZM-80.9631 38.6706L-60.5502 50.4867L-80.9631 62.3029L-97.7232 52.6351L-101.376 50.4867L-80.9631 38.6706ZM-81.3929 37.5965L-101.806 49.4126V25.7803L-81.3929 13.9642V37.5965ZM-102.45 1.28879L-82.0375 13.1049L-102.45 24.921L-122.863 13.1049L-102.45 1.28879ZM-123.508 13.9642L-103.095 25.7803V49.4126L-123.508 37.5965V13.9642ZM-123.938 38.6706L-103.525 50.4867L-123.938 62.3029L-140.698 52.6351L-144.351 50.4867L-123.938 38.6706ZM-124.582 37.5965L-144.995 49.4126V25.7803L-124.582 13.9642V37.5965ZM-145.64 1.28879L-125.227 13.1049L-145.64 24.921L-166.053 13.1049L-145.64 1.28879ZM-166.483 13.9642L-146.07 25.7803V49.4126L-166.483 37.5965V13.9642ZM-167.127 38.6706L-146.714 50.4867L-167.127 62.3029L-183.887 52.6351L-187.54 50.4867L-167.127 38.6706ZM-167.557 37.5965L-188.185 49.4126V25.7803L-167.772 13.9642V37.5965H-167.557ZM-188.614 1.28879L-168.202 13.1049L-188.614 24.921L-209.027 13.1049L-188.614 1.28879ZM-209.672 13.9642L-189.259 25.7803V49.4126L-209.672 37.5965V13.9642ZM-210.317 38.6706L-189.904 50.4867L-210.317 62.3029L-227.077 52.6351L-230.729 50.4867L-210.317 38.6706ZM-210.746 37.5965L-231.159 49.4126V25.7803L-210.746 13.9642V37.5965ZM-231.804 1.28879L-211.391 13.1049L-231.804 24.921L-252.217 13.1049L-231.804 1.28879ZM-252.861 13.9642L-232.448 25.7803V49.4126L-252.861 37.5965V13.9642ZM-253.291 38.6706L-232.878 50.4867L-253.291 62.3029L-270.266 52.4203L-273.919 50.2719L-253.291 38.6706ZM-253.936 37.5965L-274.349 49.4126V25.7803L-253.936 13.9642V37.5965ZM-274.993 1.28879L-254.58 13.1049L-274.993 24.921L-295.406 13.1049L-274.993 1.28879ZM-295.836 13.9642L-275.423 25.7803V49.4126L-295.836 37.5965V13.9642ZM-296.481 38.6706L-276.068 50.4867L-296.481 62.3029L-313.241 52.4203L-316.893 50.2719L-296.481 38.6706ZM-296.91 37.5965L-317.538 49.4126V25.7803L-297.125 13.9642V37.5965H-296.91ZM-317.968 1.28879L-297.555 13.1049L-317.968 24.921L-338.381 13.1049L-317.968 1.28879ZM-339.025 13.9642L-318.612 25.7803V49.4126L-339.025 37.5965V13.9642ZM-339.67 38.6706L-319.257 50.4867L-339.67 62.3029L-356.43 52.6351L-360.083 50.4867L-339.67 38.6706ZM-360.513 25.7803L-340.1 13.9642V37.5965L-360.513 49.4126V25.7803ZM-360.513 51.3461L-356.86 53.4945L-340.1 63.1622V86.7944L-360.513 74.9783V51.3461ZM-381.57 87.6538L-361.157 75.8377L-340.744 87.6538L-361.157 99.4699L-381.57 87.6538ZM-381.57 162.417L-361.157 150.601L-341.819 161.773L-340.529 162.417L-360.942 174.234L-381.57 162.417ZM-381.57 237.181L-361.157 225.365L-340.744 237.181L-361.157 248.997L-381.57 237.181ZM-381.57 311.73L-361.157 299.914L-340.744 311.73L-361.157 323.546L-381.57 311.73ZM-381.57 386.494L-361.157 374.678L-340.744 386.494L-361.157 398.31L-381.57 386.494ZM-381.57 461.043L-361.157 449.227L-342.463 460.183L-340.744 461.258L-361.157 473.074L-381.57 461.043ZM-381.57 535.806L-361.157 523.99L-340.744 535.806L-361.157 547.622L-381.57 535.806ZM-318.612 597.68L-339.67 609.711L-360.728 597.68V574.048L-339.67 586.078L-318.612 574.048V597.68ZM-318.612 572.114L-339.025 560.298V536.666L-318.612 548.482V572.114ZM-338.596 535.806L-318.183 523.99L-297.77 535.806L-318.183 547.622L-338.596 535.806ZM-275.423 597.68L-296.481 609.711L-317.538 597.68V574.048L-296.481 586.078L-275.423 574.048V597.68ZM-275.423 572.114L-295.836 560.298V536.666L-275.423 548.482V572.114ZM-295.406 535.806L-274.993 523.99L-254.58 535.806L-274.993 547.622L-295.406 535.806ZM-232.234 597.68L-253.291 609.711L-274.349 597.68V574.048L-253.291 586.078L-232.234 574.048V597.68ZM-232.234 572.114L-252.647 560.298V536.666L-232.234 548.482V572.114ZM-252.217 535.806L-231.804 523.99L-211.391 535.806L-231.804 547.622L-252.217 535.806ZM-189.259 597.68L-210.317 609.711L-231.374 597.68V574.048L-210.317 586.078L-189.259 574.048V597.68ZM-189.259 572.114L-209.672 560.298V536.666L-189.259 548.482V572.114ZM-209.242 535.806L-188.829 523.99L-168.416 535.806L-188.829 547.622L-209.242 535.806ZM-146.07 597.68L-167.127 609.711L-188.185 597.68V574.048L-167.127 586.078L-146.07 574.048V597.68ZM-146.07 572.114L-166.483 560.298V536.666L-146.07 548.482V572.114ZM-166.053 535.806L-145.64 523.99L-125.227 535.806L-145.64 547.622L-166.053 535.806ZM-102.88 597.68L-123.938 609.711L-144.995 597.68V574.048L-123.938 586.078L-102.88 574.048V597.68ZM-102.88 572.114L-123.293 560.298V536.666L-102.88 548.482V572.114ZM-122.863 535.806L-102.45 523.99L-82.0375 535.806L-102.45 547.622L-122.863 535.806ZM-59.9056 597.68L-80.9631 609.711L-102.021 597.68V574.048L-80.9631 586.078L-59.9056 574.048V597.68ZM-59.9056 572.114L-80.3185 560.298V536.666L-59.9056 548.482V572.114ZM-79.8888 535.806L-59.4759 523.99L-39.063 535.806L-59.4759 547.622L-79.8888 535.806ZM-16.7162 597.68L-37.7737 609.711L-58.8313 597.68V574.048L-37.7737 586.078L-16.7162 574.048V597.68ZM-16.7162 572.114L-37.1291 560.298V536.666L-16.7162 548.482V572.114ZM-36.6994 535.806L-16.2865 523.99L4.12646 535.806L-16.2865 547.622L-36.6994 535.806ZM26.4732 597.68L5.41571 609.711L-15.6418 597.68V574.048L5.41571 586.078L26.4732 574.048V597.68ZM26.4732 572.114L6.06033 560.298V536.666L26.4732 548.482V572.114ZM6.49008 535.806L26.903 523.99L47.3159 535.806L26.903 547.622L6.49008 535.806ZM69.4478 597.68L48.3903 609.711L27.3327 597.68V574.048L48.3903 586.078L69.4478 574.048V597.68ZM69.4478 572.114L49.0349 560.298V536.666L69.4478 548.482V572.114ZM49.6795 535.806L70.0924 523.99L90.5053 535.806L70.0924 547.622L49.6795 535.806ZM112.637 597.68L91.5797 609.711L70.5222 597.68V574.048L91.5797 586.078L112.637 574.048V597.68ZM112.637 572.114L92.2243 560.298V536.666L112.637 548.482V572.114ZM92.6541 535.806L113.067 523.99L133.48 535.806L113.067 547.622L92.6541 535.806ZM155.827 597.68L134.769 609.711L113.712 597.68V574.048L134.769 586.078L155.827 574.048V597.68ZM155.827 572.114L135.414 560.298V536.666L155.827 548.482V572.114ZM135.844 535.806L156.256 523.99L176.669 535.806L156.256 547.622L135.844 535.806ZM198.801 597.68L177.744 609.711L156.686 597.68V574.048L177.744 586.078L198.801 574.048V597.68ZM198.801 572.114L178.388 560.298V536.666L198.801 548.482V572.114ZM179.033 535.806L199.446 523.99L219.859 535.806L199.446 547.622L179.033 535.806ZM241.991 597.68L220.933 609.711L199.876 597.68V574.048L220.933 586.078L241.991 574.048V597.68ZM241.991 572.114L221.578 560.298V536.666L241.991 548.482V572.114ZM222.008 535.806L242.42 523.99L262.833 535.806L242.42 547.622L222.008 535.806ZM285.18 597.68L264.123 609.711L243.065 597.68V574.048L264.123 586.078L285.18 574.048V597.68ZM285.18 572.114L264.767 560.298V536.666L285.18 548.482V572.114ZM265.197 535.806L285.61 523.99L306.023 535.806L285.61 547.622L265.197 535.806ZM328.155 597.68L307.097 609.711L286.04 597.68V574.048L307.097 586.078L328.155 574.048V597.68ZM328.155 572.114L307.742 560.298V536.666L328.155 548.482V572.114ZM308.386 535.806L328.799 523.99L349.212 535.806L328.799 547.622L308.386 535.806ZM371.344 597.68L350.286 609.711L329.229 597.68V574.048L350.286 586.078L371.344 574.048V597.68ZM371.344 572.114L350.931 560.298V536.666L371.344 548.482V572.114ZM351.361 535.806L371.774 523.99L392.187 535.806L371.774 547.622L351.361 535.806ZM414.534 597.68L393.476 609.711L372.418 597.68V574.048L393.476 586.078L414.534 574.048V597.68ZM414.534 572.114L394.121 560.298V536.666L414.534 548.482V572.114ZM394.55 535.806L414.963 523.99L435.376 535.806L414.963 547.622L394.55 535.806ZM457.508 597.68L436.451 609.711L415.393 597.68V574.048L436.451 586.078L457.508 574.048V597.68ZM457.508 572.114L437.095 560.298V536.666L457.508 548.482V572.114ZM437.74 535.806L458.153 523.99L478.566 535.806L458.153 547.622L437.74 535.806ZM500.697 597.68L479.64 609.711L458.582 597.68V574.048L479.64 586.078L500.697 574.048V597.68ZM500.697 572.114L480.285 560.298V536.666L500.697 548.482V572.114ZM480.714 535.806L501.127 523.99L521.54 535.806L501.127 547.622L480.714 535.806ZM543.887 597.68L522.829 609.711L501.772 597.68V574.048L522.829 586.078L543.887 574.048V597.68ZM543.887 572.114L523.474 560.298V536.666L543.887 548.482V572.114ZM523.904 535.806L544.317 523.99L564.73 535.806L544.317 547.622L523.904 535.806ZM587.076 597.68L566.019 609.711L544.961 597.68V574.048L566.019 586.078L587.076 574.048V597.68ZM587.076 572.114L566.663 560.298V536.666L587.076 548.482V572.114ZM567.093 535.806L587.506 523.99L607.919 535.806L587.506 547.622L567.093 535.806ZM630.051 597.68L608.993 609.711L587.936 597.68V574.048L608.993 586.078L630.051 574.048V597.68ZM630.051 572.114L609.638 560.298V536.666L630.051 548.482V572.114ZM610.068 535.806L630.481 523.99L650.894 535.806L630.481 547.622L610.068 535.806ZM673.24 597.68L652.183 609.711L631.125 597.68V574.048L652.183 586.078L673.24 574.048V597.68ZM673.24 572.114L652.827 560.298V536.666L673.24 548.482V572.114ZM673.67 547.622L653.257 535.806L673.67 523.99L694.083 535.806L673.67 547.622ZM674.315 548.482L694.728 536.666V560.298L674.315 572.114V548.482Z" fill="url(#paint0_linear)"/>
<defs>
<linearGradient id="paint0_linear" x1="167" y1="-0.000244141" x2="167" y2="611" gradientUnits="userSpaceOnUse">
<stop offset="0.085021" stop-color="white" stop-opacity="0"/>
<stop offset="0.477305" stop-color="white" stop-opacity="0.05"/>
<stop offset="1" stop-color="white" stop-opacity="0.1"/>
</linearGradient>
</defs>
</svg>
