<svg width="13" height="24" viewBox="0 0 13 24" fill="none" xmlns="http://www.w3.org/2000/svg">
<path d="M8.41885 24.0002C6.83745 24.0002 5.33358 24.0002 3.77544 24.0002C3.77544 20.4344 3.77544 16.8756 3.77544 13.2883C2.49637 13.2883 1.26381 13.2883 0.000244141 13.2883C0.000244141 11.852 0.000244141 10.4513 0.000244141 9.00783C1.24831 9.00783 2.49637 9.00783 3.77544 9.00783C3.77544 8.32181 3.75218 7.67867 3.78319 7.04267C3.8297 6.02079 3.78319 4.98461 3.98474 3.98416C4.48862 1.51877 6.38009 0.189609 9.00024 0.02525C10.3181 -0.0533566 11.6514 0.0752723 13.0002 0.111003C13.0002 1.43302 13.0002 2.68358 13.0002 3.99131C12.3801 3.99131 11.7677 3.97702 11.1553 3.99845C10.6282 4.01989 10.0933 4.04133 9.58939 4.14137C8.94598 4.27 8.51962 4.71306 8.49637 5.29903C8.43435 6.52101 8.48086 7.74298 8.48086 9.00783C9.82195 9.00783 11.194 9.00783 12.6204 9.00783C12.4266 10.4513 12.2328 11.852 12.039 13.2812C10.8375 13.2812 9.65141 13.2812 8.41885 13.2812C8.41885 16.8613 8.41885 20.4129 8.41885 24.0002Z" fill="white"/>
</svg>
