<svg width="20" height="20" viewBox="0 0 20 20" fill="none" xmlns="http://www.w3.org/2000/svg">
<path d="M19.9517 5.87892C19.8741 4.26918 19.5054 2.85338 18.341 1.68972C17.1767 0.52605 15.7406 0.157555 14.1493 0.0799769C12.7715 -0.0169954 11.3937 0.00239908 10.0159 0.00239908C8.63805 0.00239908 7.26023 -0.0169954 5.88241 0.0605825C4.27171 0.13816 2.85508 0.506655 1.69072 1.68972C0.526361 2.85338 0.157648 4.28857 0.0800242 5.87892C-0.0170056 7.25593 0.00240036 8.63293 0.00240036 10.0099C0.00240036 11.3869 -0.0170056 12.764 0.0606182 14.141C0.138242 15.7507 0.506956 17.1665 1.67131 18.3302C2.83567 19.4938 4.27171 19.8623 5.863 19.9399C7.24082 20.0175 8.61865 19.9981 9.99647 19.9981C11.3743 19.9981 12.7521 20.0175 14.1299 19.9399C15.7406 19.8623 17.1573 19.4938 18.3216 18.3302C19.486 17.1665 19.8547 15.7313 19.9323 14.141C20.0099 12.764 19.9905 11.3869 19.9905 10.0099C19.9905 8.63293 20.0294 7.25593 19.9517 5.87892ZM17.8171 15.9059C17.6424 16.3713 17.4095 16.701 17.0602 17.0501C16.7109 17.3992 16.3616 17.632 15.9153 17.8065C14.5957 18.3302 11.4713 18.2138 10.0159 18.2138C8.56043 18.2138 5.43607 18.3302 4.11646 17.8065C3.65072 17.632 3.32082 17.3992 2.97151 17.0501C2.62221 16.701 2.38933 16.3519 2.21468 15.9059C1.69072 14.587 1.80715 11.4645 1.80715 10.0099C1.80715 8.55536 1.69072 5.43285 2.21468 4.11403C2.38933 3.64856 2.62221 3.31885 2.97151 2.96975C3.32082 2.62065 3.67013 2.38792 4.11646 2.21337C5.43607 1.68972 8.56043 1.80608 10.0159 1.80608C11.4713 1.80608 14.5957 1.68972 15.9153 2.21337C16.381 2.38792 16.7109 2.62065 17.0602 2.96975C17.4095 3.31885 17.6424 3.66795 17.8171 4.11403C18.341 5.43285 18.2246 8.55536 18.2246 10.0099C18.2246 11.4645 18.341 14.587 17.8171 15.9059Z" fill="white"/>
<path d="M15.3525 3.47401C14.6927 3.47401 14.1493 4.01705 14.1493 4.67646C14.1493 5.33588 14.6927 5.87892 15.3525 5.87892C16.0123 5.87892 16.5557 5.33588 16.5557 4.67646C16.5557 3.99766 16.0317 3.47401 15.3525 3.47401Z" fill="white"/>
<path d="M10.0159 4.87041C7.18261 4.87041 4.8733 7.15895 4.8733 10.0099C4.8733 12.8609 7.1632 15.1495 10.0159 15.1495C12.8686 15.1495 15.1585 12.8609 15.1585 10.0099C15.1585 7.15895 12.8491 4.87041 10.0159 4.87041ZM10.0159 13.3458C8.17231 13.3458 6.67805 11.8524 6.67805 10.0099C6.67805 8.16747 8.17231 6.67409 10.0159 6.67409C11.8594 6.67409 13.3537 8.16747 13.3537 10.0099C13.3537 11.8524 11.8594 13.3458 10.0159 13.3458Z" fill="white"/>
</svg>
