<svg width="173" height="116" viewBox="0 0 173 116" fill="none" xmlns="http://www.w3.org/2000/svg">
<path d="M83.5916 104.167C83.194 104.167 82.6971 104.167 82.2995 104.167C82.2995 102.179 82.2995 100.29 82.2995 98.3024C80.7092 98.3024 79.1189 98.3024 77.5285 98.3024C77.5285 102.477 77.4291 106.552 77.5285 110.627C77.6279 111.919 77.4291 113.311 77.5285 114.603C79.1189 114.603 80.7092 114.603 82.2995 114.603C82.2995 112.615 82.2995 110.528 82.2995 108.54C82.7965 108.54 83.194 108.441 83.691 108.441C83.5916 106.95 83.5916 105.558 83.5916 104.167Z" fill="white"/>
<path d="M72.6578 100.489C70.9681 98.8987 68.5826 98.4018 66.396 98.3024C64.1099 98.3024 61.8238 98.3024 59.5377 98.3024C59.4383 98.6006 59.4383 98.8987 59.4383 99.1969C59.4383 103.57 59.4383 107.844 59.4383 112.218C59.4383 113.013 59.4383 113.907 59.5377 114.703C61.128 114.703 62.7183 114.703 64.3087 114.703C64.3087 110.826 64.3087 106.95 64.3087 103.073C65.7002 103.073 67.0917 102.974 68.3839 103.471C69.4772 103.868 70.173 105.061 70.0736 106.155C70.173 107.347 69.7754 108.639 68.7814 109.236C67.6881 109.932 66.2966 109.932 65.0044 109.932C65.0044 111.522 65.0044 113.112 65.0044 114.603C67.7875 115.001 70.8687 114.305 72.8566 112.218C74.6457 110.429 75.2421 107.745 75.0433 105.26C74.8445 103.471 74.0494 101.682 72.6578 100.489Z" fill="white"/>
<path d="M56.5562 104.067C56.5562 102.378 56.1586 100.588 54.9659 99.3957C53.6737 98.1036 51.6858 97.8054 49.8967 98.0042C48.6046 98.1036 47.2131 98.7 46.3185 99.6939C45.2252 100.787 44.7282 102.378 44.7282 103.968C44.7282 107.546 44.7282 111.124 44.7282 114.703C46.3185 114.703 48.0082 114.703 49.5985 114.703C49.5985 111.224 49.5985 107.745 49.5985 104.365C49.5985 103.968 49.5985 103.471 49.8967 103.173C50.1949 102.775 50.6919 102.875 51.1889 102.974C51.6858 103.272 51.7852 103.868 51.7852 104.365C51.7852 107.844 51.7852 111.323 51.7852 114.703C53.3755 114.703 55.0653 114.703 56.6556 114.703C56.5562 111.124 56.5562 107.546 56.5562 104.067Z" fill="white"/>
<path d="M7.9519 105.459C7.9519 106.652 7.9519 107.944 7.9519 109.136C8.54827 109.136 9.04524 109.136 9.64161 109.136C9.8404 109.435 9.74101 109.832 9.64161 110.13C8.54827 110.329 7.45492 110.23 6.46097 109.633C5.16884 108.739 4.67186 106.95 5.06944 105.558C5.36763 104.266 6.46097 103.173 7.75311 102.775C8.74706 102.576 9.9398 102.676 10.8344 103.173C10.8344 101.582 10.8344 99.8927 10.8344 98.3024C9.14464 97.9048 7.35553 97.8054 5.66581 98.3024C3.18094 99.0975 1.19304 101.085 0.397878 103.57C-0.0990973 105.359 -0.0990973 107.347 0.397878 109.236C0.994248 111.124 2.18699 112.715 3.67791 113.808C5.46702 115.001 7.75311 115.398 9.8404 114.802C11.2319 114.404 12.4247 113.41 13.2198 112.218C14.512 110.13 14.1144 107.347 12.5241 105.558C11.0331 105.459 9.44282 105.459 7.9519 105.459Z" fill="white"/>
<path d="M42.1437 103.869C42.0443 102.278 41.8455 100.489 40.6528 99.1969C39.3607 97.9048 37.3728 97.706 35.683 97.9048C34.1921 98.0042 32.6018 98.6006 31.6079 99.7933C30.6139 100.986 30.2163 102.477 30.2163 104.067C30.2163 107.546 30.2163 111.124 30.2163 114.603C31.8066 114.603 33.4964 114.603 35.0867 114.603C35.0867 113.311 35.0867 112.019 35.0867 110.727C35.5836 110.727 35.9812 110.727 36.4782 110.727C36.4782 109.236 36.4782 107.844 36.4782 106.353C35.9812 106.353 35.5836 106.353 35.0867 106.353C35.0867 105.558 35.0867 104.862 35.0867 104.067C35.0867 103.57 35.2855 103.073 35.7824 102.775C36.0806 102.676 36.4782 102.676 36.7764 102.775C37.2734 103.073 37.2734 103.67 37.2734 104.167C37.2734 107.646 37.2734 111.124 37.2734 114.504C38.8637 114.504 40.5534 114.603 42.1437 114.404C42.2431 111.025 42.1437 107.447 42.1437 103.869Z" fill="white"/>
<path d="M27.7316 106.155C29.0238 103.968 28.328 100.887 26.3401 99.3957C25.048 98.5012 23.4576 98.203 21.9667 98.203C19.9788 98.203 18.0903 98.203 16.1024 98.203C16.1024 103.67 16.1024 109.136 16.1024 114.504C17.6927 114.504 19.283 114.504 20.8734 114.504C20.8734 110.528 20.8734 106.552 20.8734 102.576C21.5691 102.576 22.3643 102.477 23.0601 102.875C23.7558 103.272 23.6564 104.465 22.9607 104.862C22.5631 105.061 22.0661 105.061 21.6685 105.161C21.6685 106.453 21.6685 107.745 21.6685 109.136C21.6685 109.633 21.9667 110.13 22.1655 110.627C22.7619 111.92 23.3582 113.311 23.9546 114.603C25.6443 114.603 27.334 114.603 29.0238 114.603C28.1292 112.317 27.1353 110.13 26.2407 107.944C26.7377 107.347 27.334 106.85 27.7316 106.155Z" fill="white"/>
<path d="M130.208 99.0975C128.518 98.4018 126.729 98.203 124.84 98.3024C122.952 98.3024 121.063 98.3024 119.175 98.3024C119.175 103.769 119.175 109.236 119.175 114.703C120.765 114.703 122.355 114.703 123.946 114.703C123.946 111.621 123.946 108.441 123.946 105.359C123.946 104.564 123.846 103.868 124.045 103.073C125.437 103.073 126.928 102.974 128.22 103.57C129.015 103.868 129.611 104.664 129.711 105.558C129.909 106.85 129.711 108.341 128.617 109.136C127.524 109.932 126.033 109.932 124.741 109.932C124.741 111.522 124.741 113.112 124.741 114.703C125.635 114.703 126.53 114.802 127.524 114.703C129.512 114.504 131.4 113.609 132.792 112.019C134.68 109.932 135.277 106.751 134.482 104.067C133.985 101.781 132.295 99.9921 130.208 99.0975Z" fill="white"/>
<path d="M141.936 98.3024C140.346 98.3024 138.756 98.3024 137.066 98.3024C137.066 103.769 137.066 109.236 137.066 114.703C138.656 114.703 140.247 114.703 141.837 114.703C141.936 109.136 141.936 103.67 141.936 98.3024Z" fill="white"/>
<path d="M89.257 98.3024C87.6667 98.3024 86.0764 98.3024 84.3866 98.3024C84.3866 103.769 84.3866 109.236 84.3866 114.603C85.977 114.603 87.5673 114.603 89.257 114.603C89.257 109.136 89.257 103.67 89.257 98.3024Z" fill="white"/>
<path d="M171.159 105.558C169.568 105.459 168.077 105.558 166.487 105.558C166.487 106.751 166.487 108.043 166.487 109.236C167.083 109.236 167.68 109.236 168.375 109.335C168.375 109.733 168.475 110.23 167.978 110.329C166.586 110.627 164.996 110.23 164.201 109.037C163.505 108.043 163.406 106.85 163.605 105.658C163.903 104.067 165.394 102.875 166.984 102.875C167.878 102.775 168.674 102.974 169.469 103.372C169.469 101.781 169.469 100.091 169.469 98.5012C167.58 98.0042 165.493 97.9048 163.605 98.7C162.014 99.2963 160.722 100.489 159.827 101.881C158.237 104.365 158.138 107.546 159.231 110.23C159.827 111.721 161.02 113.112 162.312 114.007C164.797 115.696 168.375 115.697 170.662 113.709C171.854 112.715 172.451 111.124 172.55 109.633V109.335C172.55 107.944 172.053 106.552 171.159 105.558Z" fill="white"/>
<path d="M154.957 99.2963C153.566 98.0042 151.578 97.8054 149.789 98.0042C148.496 98.1036 147.204 98.7994 146.31 99.7933C145.216 100.887 144.819 102.477 144.819 103.968C144.819 107.546 144.819 111.124 144.819 114.703C146.409 114.703 147.999 114.703 149.59 114.703C149.59 111.323 149.59 107.844 149.59 104.465C149.59 103.968 149.689 103.471 149.987 103.073C150.286 102.676 150.783 102.775 151.18 102.875C151.677 103.173 151.777 103.769 151.777 104.266C151.777 107.745 151.777 111.224 151.777 114.603C153.367 114.603 155.057 114.603 156.647 114.603C156.647 111.124 156.647 107.546 156.647 104.067C156.647 102.378 156.249 100.489 154.957 99.2963Z" fill="white"/>
<path d="M104.763 99.1969C103.073 98.1036 100.986 97.706 99.0971 98.0042C96.6123 98.3024 94.3262 99.7933 92.9346 101.881C91.8413 103.57 91.3443 105.757 91.6425 107.745C91.9407 110.13 93.4316 112.218 95.4195 113.609C97.308 114.901 99.7929 115.299 102.079 114.802C104.266 114.404 106.055 112.913 107.347 111.224C108.639 109.236 109.037 106.751 108.44 104.465C107.943 102.278 106.552 100.39 104.763 99.1969ZM102.576 109.136C101.582 110.13 99.9917 110.429 98.6996 109.932C97.2086 109.236 96.2147 107.546 96.5129 105.956C96.7117 104.564 97.7056 103.372 99.0971 102.875C100.19 102.676 101.383 102.775 102.278 103.471C104.067 104.763 104.166 107.646 102.576 109.136Z" fill="white"/>
<path d="M117.684 109.832C117.087 109.932 116.392 109.932 115.895 109.534C115.497 109.136 115.497 108.639 115.497 108.142C115.497 104.862 115.497 101.582 115.497 98.3024C113.907 98.3024 112.217 98.3024 110.627 98.3024C110.627 101.881 110.627 105.459 110.627 108.938C110.627 110.727 111.223 112.516 112.714 113.609C114.106 114.603 115.895 114.703 117.485 114.603C117.386 113.112 117.584 111.522 117.386 110.031C117.584 110.031 117.584 110.329 117.584 110.429C117.684 111.82 117.584 113.212 117.584 114.504C117.684 112.913 117.783 111.423 117.684 109.832Z" fill="white"/>
<path d="M128.12 0.298917C127.922 0.298917 127.723 0.298917 127.723 0.000732422C101.98 0.000732422 76.1369 0.000732422 50.3936 0.000732422C50.3936 0.298917 50.0954 0.199522 49.8966 0.298917C45.8214 1.29287 43.1378 4.6723 43.1378 8.84689C43.1378 33.5962 43.1378 58.3456 43.1378 83.0949C43.1378 83.6913 43.2371 84.3871 43.3365 84.9835C44.2311 89.0586 47.7099 91.9411 51.8845 91.9411C76.6339 91.9411 101.383 91.9411 126.133 91.9411C126.729 91.9411 127.325 91.8417 127.922 91.7423C132.196 90.9472 134.979 87.1701 134.979 83.0949C134.979 58.3456 134.979 33.5962 134.979 8.84689C134.979 4.77169 132.096 1.09408 128.12 0.298917ZM123.25 51.1892C123.449 52.7795 123.648 54.2704 123.747 55.8607C123.747 56.3577 124.145 56.2583 124.343 56.1589C125.834 55.9601 127.325 55.5625 128.617 54.8668C128.816 54.7674 128.916 54.7674 129.114 54.5686C129.114 54.8668 129.114 55.0656 129.114 55.2643C129.114 64.4087 129.114 73.553 129.114 82.7968C129.114 84.8841 128.021 86.0768 125.934 86.0768C122.654 86.0768 119.274 86.0768 115.994 85.9774C114.404 85.9774 113.211 85.0828 112.515 83.5919C112.018 82.598 111.82 81.5046 111.621 80.3119C111.621 80.0137 111.522 79.9143 111.223 80.0137C109.633 80.2125 108.142 80.3119 106.552 80.1131C106.055 80.0137 105.856 80.2125 105.856 80.7095C105.856 81.3058 105.657 82.0016 105.458 82.598C104.763 84.7847 103.272 85.9774 100.886 85.9774C97.9044 85.9774 94.9225 85.9774 91.8413 85.9774C91.4437 85.9774 91.3443 85.9774 91.4437 85.4804C91.7419 84.5859 91.7419 83.5919 91.8413 82.6974C91.8413 74.05 91.8413 65.4026 91.8413 56.7553C91.8413 53.674 90.9467 51.0898 88.4619 49.2013C86.8716 47.9091 84.983 47.4121 82.9951 47.4121C78.6218 47.4121 74.149 47.4121 69.7756 47.4121C66.7938 47.4121 64.3089 48.5055 62.5198 50.891C61.5258 52.1831 61.0289 53.674 60.9295 55.3637C60.8301 57.3516 60.6313 59.2401 61.1282 61.228C61.9234 64.7069 64.6071 67.1917 68.1853 67.7881C68.6823 67.8875 69.2786 67.9869 69.7756 67.9869C71.0677 68.0863 71.8629 68.7821 72.1611 69.9748C72.2605 70.3724 72.2605 70.9688 72.5587 71.1675C72.8569 71.3663 73.3538 71.0682 73.8508 70.9688C75.1429 70.77 76.3357 70.4718 77.6278 70.273C78.0254 70.1736 78.1248 70.0742 78.0254 69.6766C77.8266 68.6827 77.5284 67.6887 77.1308 66.6948C75.8387 63.9117 73.4532 62.6196 70.5708 62.1226C70.0738 62.0232 69.4774 62.0232 68.9805 61.8244C67.7877 61.5262 66.8932 60.6317 66.7938 59.4389C66.6944 58.1468 66.6944 56.7553 66.7938 55.4631C66.8932 54.2704 67.8871 53.2765 69.1792 53.0777C69.5768 53.0777 70.0738 52.9783 70.4714 52.9783C74.5466 52.9783 78.6218 52.9783 82.697 52.9783C83.0945 52.9783 83.4921 52.9783 83.8897 53.0777C85.2812 53.2765 86.1758 54.2704 86.2752 55.6619C86.3746 56.6559 86.2752 57.5504 86.2752 58.5444C86.2752 66.3966 86.2752 74.3482 86.2752 82.2004C86.2752 82.598 86.2752 82.8962 86.2752 83.2937C86.1758 84.1883 85.7782 84.9835 84.8837 85.381C84.0885 85.7786 83.2933 85.9774 82.3988 85.9774C72.2605 85.9774 62.2216 85.9774 52.0833 85.9774C50.0954 85.9774 48.9027 84.7847 48.9027 82.7968C48.9027 58.1468 48.9027 33.4968 48.9027 8.84689C48.9027 6.85899 50.0954 5.66625 52.0833 5.66625C62.6192 5.66625 73.0556 5.66625 83.5915 5.66625C84.7842 5.66625 85.977 5.96443 87.2691 6.26262C88.2631 6.46141 88.8594 7.05778 89.0582 8.05173C89.3564 9.24447 89.5552 10.4372 89.5552 11.7293C89.5552 19.7803 89.5552 27.8313 89.5552 35.8823C89.5552 37.8702 89.1576 38.4666 87.1697 38.9636C86.1758 39.2618 86.1758 39.2618 86.3746 40.2557C86.5734 41.6472 86.8715 43.0388 87.0703 44.5297C87.1697 44.8279 87.2691 44.9273 87.5673 44.8279C88.6607 44.6291 89.754 44.3309 90.8474 43.8339C93.7298 42.4424 95.2207 40.0569 95.3201 36.8763C95.4195 33.3974 95.3201 29.8192 95.3201 26.3404C95.3201 21.5694 95.3201 16.6991 95.3201 11.9281C95.3201 10.0396 95.0219 8.15112 94.525 6.36201C94.4256 5.96443 94.4256 5.86504 94.9225 5.86504C105.458 5.86504 115.994 5.86504 126.63 5.86504C128.22 5.86504 129.413 7.15717 129.413 8.74749C129.413 20.7743 129.413 32.7017 129.413 44.7285C129.413 48.1079 127.524 50.0958 123.946 50.5928C123.25 50.5928 123.151 50.7916 123.25 51.1892Z" fill="white"/>
<path d="M70.3719 22.8616C68.7816 22.8616 67.4894 24.1537 67.4894 25.744C67.4894 27.4337 68.7816 28.6265 70.3719 28.6265C71.9622 28.6265 73.3537 27.235 73.3537 25.744C73.2543 24.2531 71.9622 22.8616 70.3719 22.8616Z" fill="white"/>
</svg>
