<svg width="18" height="18" viewBox="0 0 18 18" fill="none" xmlns="http://www.w3.org/2000/svg">
<path d="M0.501869 2.30697C0.52187 2.28697 0.521872 2.28698 0.541872 2.26698L2.68187 0.386948C2.98187 0.106948 3.40187 -0.0330326 3.84187 0.00696741C4.24187 0.0469674 4.60187 0.206948 4.88187 0.486948C4.90187 0.506948 4.92187 0.526958 4.94187 0.546958L7.06187 3.20697C7.62187 3.80697 7.60186 4.72697 7.02186 5.30697C6.98186 5.34697 6.94187 5.38697 6.90187 5.40697L5.82187 6.12699C5.90187 6.50699 6.46187 7.58698 8.44187 9.56698C10.4219 11.547 11.5019 12.1069 11.8819 12.1869L12.6019 11.107C12.6219 11.067 12.6619 11.0269 12.7019 10.9869C13.2819 10.4069 14.2019 10.407 14.8019 10.947L17.4619 13.067C17.4819 13.087 17.5019 13.107 17.5219 13.127C18.1219 13.727 18.1619 14.727 17.6219 15.307L15.7419 17.447C15.7219 17.467 15.7219 17.4669 15.7019 17.4869C15.3419 17.847 14.7819 17.9869 14.1619 17.9869C13.0619 17.9869 11.8019 17.5469 11.1419 17.2869C9.86187 16.7869 7.36187 15.5669 4.88187 13.0869C3.04187 11.2469 1.56187 9.02699 0.681873 6.82699C0.301874 5.82699 -0.538132 3.34697 0.501869 2.30697ZM6.02186 11.9869C9.72186 15.6869 13.8819 16.707 14.5819 16.347L16.4019 14.267L13.8019 12.207L13.1019 13.267C13.0819 13.287 13.0819 13.307 13.0619 13.327C12.8219 13.627 12.4819 13.787 12.0819 13.807C11.7019 13.827 10.5219 13.887 7.34187 10.707C6.56187 9.92697 4.16187 7.52698 4.24187 5.96698C4.26187 5.56698 4.44186 5.22695 4.72186 4.98695C4.74187 4.96695 4.76187 4.94696 4.78187 4.94696L5.84187 4.24696L3.78187 1.64696L1.70187 3.46698C1.30187 4.12698 2.32187 8.28695 6.02186 11.9869Z" fill="white"/>
</svg>
