<svg width="25" height="12" viewBox="0 0 25 12" fill="none" xmlns="http://www.w3.org/2000/svg">
<path d="M23.0264 4.09571C20.5062 6.91541 20.2348 6.65463 22.3091 8.28452C24.3059 9.84921 24.7324 10.599 24.7905 10.6967C24.7905 10.6967 25.6242 11.9192 23.86 11.9355L20.5256 11.9844C19.8083 12.0985 18.8583 11.5606 18.8583 11.5606C17.6176 10.8271 16.4351 8.96907 15.5239 9.19725C15.5239 9.19725 14.5934 9.44174 14.6128 11.1368C14.6321 11.4954 14.4189 11.691 14.4189 11.691C14.4189 11.691 14.1863 11.9029 13.721 11.9355H12.2282C8.93258 12.1147 6.02465 9.55583 6.02465 9.55583C6.02465 9.55583 2.86468 6.80132 0.0730636 1.29231C-0.101413 0.933733 0.0924499 0.754446 0.0924499 0.754446C0.0924499 0.754446 0.286313 0.542561 0.829128 0.542561L4.3962 0.526262C4.72577 0.575158 4.97779 0.721848 4.97779 0.721848C4.97779 0.721848 5.19104 0.83594 5.28797 1.06412C5.86955 2.28654 6.62562 3.41116 6.62562 3.41116C7.9245 5.6604 8.81627 6.05157 9.32031 5.82339C9.32031 5.82339 9.97944 5.48111 9.84374 2.75921C9.78558 1.78127 9.4754 1.32491 9.4754 1.32491C9.18461 0.98263 8.6224 0.884837 8.37038 0.852239C8.17652 0.83594 8.50609 0.428469 8.93258 0.26548C9.55294 0.00469842 10.6773 -0.0116004 12.0344 0.00469842C13.0812 0.0209973 13.3914 0.0698938 13.7985 0.151388C15.0393 0.395871 14.6128 1.3738 14.6128 3.68824C14.6128 4.43799 14.4383 5.46482 15.078 5.80709C15.3494 5.95378 16.028 5.82339 17.6952 3.44376C17.6952 3.44376 18.4706 2.30284 19.091 0.98263C19.1879 0.738147 19.4206 0.640354 19.4206 0.640354C19.4206 0.640354 19.6338 0.542561 19.9246 0.575158L23.6468 0.55886C24.7712 0.444768 24.965 0.868538 24.965 0.868538C25.1589 1.32491 24.5579 2.36803 23.0264 4.09571Z" fill="white"/>
</svg>
