<svg width="40" height="40" viewBox="0 0 40 40" fill="none" xmlns="http://www.w3.org/2000/svg">
<path d="M39.5781 2.07507C38.9873 0.877267 37.7215 0.202446 36.4388 0H3.5443C2.58228 0.202446 1.62025 0.573598 0.978903 1.34964C0.421941 1.95698 0.151899 2.74989 0 3.52594V36.609C0.185654 37.4019 0.455696 38.2286 1.04641 38.8191C1.65401 39.4939 2.51477 39.8819 3.39241 40H36.6413C38.4641 39.8144 40.0338 38.178 39.9831 36.3222C39.9831 25.6938 39.9831 15.0654 39.9831 4.43695C40.0169 3.64403 39.9831 2.80051 39.5781 2.07507ZM37.4852 36.3222C37.519 36.9464 36.962 37.5032 36.3376 37.4863C34.9873 37.52 33.6203 37.4863 32.27 37.5032C31.7468 37.5032 31.1392 37.4863 30.7342 37.0983C30.0928 36.5584 29.9916 35.6643 29.8397 34.8882C29.0295 35.0063 28.2025 35.0063 27.3755 34.922C27.308 35.7149 27.1899 36.6428 26.4641 37.1151C26.0591 37.4357 25.519 37.4863 25.0295 37.4863C23.7131 37.4863 22.3966 37.4863 21.0802 37.4863C21.1983 37.0645 21.2827 36.6259 21.2827 36.1873C21.2827 32.5938 21.2827 29.0004 21.2827 25.3901C21.2827 24.6816 21.3333 23.9393 21.0802 23.2476C20.7089 22.1004 19.7468 21.1556 18.5654 20.852C18.0253 20.717 17.4515 20.6833 16.8945 20.6833C15.0717 20.6833 13.2658 20.6664 11.443 20.7001C10.3629 20.717 9.26582 21.1556 8.59072 22.0329C7.96624 22.7246 7.71308 23.6862 7.71308 24.5972C7.71308 25.3564 7.64557 26.1324 7.88186 26.8579C8.18565 27.9713 9.04641 28.9161 10.1266 29.3041C10.8354 29.5234 11.5949 29.5403 12.3207 29.7933C12.5232 30.1814 12.6751 30.6031 12.7595 31.0418C13.5865 30.9405 14.3797 30.6875 15.2067 30.6031C15.0211 29.8102 14.8354 28.9835 14.2785 28.3425C13.789 27.7351 13.0633 27.3471 12.3038 27.1953C11.7468 27.0941 11.1224 27.0941 10.6329 26.7735C10.0928 26.2843 10.211 25.5082 10.211 24.8503C10.2278 24.4454 10.1603 23.9561 10.481 23.6356C10.7679 23.2138 11.3249 23.1632 11.7975 23.1464C13.6203 23.1464 15.443 23.1295 17.2489 23.1464C17.7215 23.1632 18.2616 23.2644 18.5316 23.6862C18.7342 23.9393 18.7342 24.2767 18.7342 24.5803C18.7342 28.3931 18.7342 32.2058 18.7342 36.0186C18.7173 36.3391 18.7511 36.744 18.4641 36.9802C18.0759 37.3682 17.5021 37.4357 16.9789 37.4525C12.5738 37.4525 8.18565 37.4525 3.78059 37.4525C3.07173 37.52 2.44726 36.8621 2.51477 36.1535C2.51477 25.3564 2.51477 14.5593 2.51477 3.76213C2.46413 3.0873 3.08861 2.47997 3.76371 2.53058C8.25316 2.53058 12.7426 2.53058 17.2321 2.53058C18.0253 2.54745 18.8523 2.59806 19.5781 2.95234C20.0844 3.39097 20.0169 4.15015 20.135 4.77436C20.1688 8.33404 20.135 11.8937 20.1519 15.4534C20.1519 15.8245 20.1688 16.2294 19.9494 16.5331C19.6118 16.8705 19.1392 16.9717 18.6835 17.073C18.8017 17.8996 19.0211 18.7094 19.1055 19.5361C20.2532 19.2999 21.4684 18.8612 22.1097 17.8153C22.5485 17.1573 22.6329 16.3475 22.6329 15.5884C22.6329 12.1974 22.6329 8.82328 22.6329 5.43231C22.616 4.45382 22.5654 3.45846 22.211 2.54745C26.8692 2.54745 31.5105 2.54745 36.1688 2.54745C36.8439 2.47997 37.4852 3.10418 37.4346 3.779C37.4346 8.94137 37.4346 14.1038 37.4346 19.2661C37.4346 19.9578 37.2827 20.6664 36.8101 21.1894C36.2869 21.7292 35.5274 21.8979 34.8186 22.0329C34.8861 22.8596 35.0042 23.6862 35.1055 24.496C35.8987 24.361 36.7257 24.2261 37.4346 23.7874C37.4852 27.9882 37.4852 32.1552 37.4852 36.3222Z" fill="white"/>
<path d="M11.46 10.0717C11.0212 10.2572 10.5992 10.6621 10.6161 11.1683C10.5486 11.8768 11.2068 12.5516 11.9157 12.5179C12.6077 12.5348 13.1984 11.8599 13.1478 11.1851C13.1646 10.3753 12.2026 9.73426 11.46 10.0717Z" fill="white"/>
</svg>
