<svg width="1920" height="931" viewBox="0 0 1920 931" fill="none" xmlns="http://www.w3.org/2000/svg">
<path d="M1969.56 1118.31L1930.53 1095.72L1970.38 1072.72L1970.79 1072.31V1025.9L2009 1048.08V1045.61L1972.02 1024.26L2009 1002.9V1000.44L1970.79 1022.62V977.44L2009 955.263V952.799L1969.97 975.387L1930.94 952.799L1969.97 930.211L2009 952.799V950.335L1970.79 928.158V882.982L2009 905.159V902.695L1972.02 881.339L2009 859.983V857.519L1970.79 879.696V834.52L2009 812.343V809.879L1969.97 832.467L1930.94 809.879L1969.97 787.291L2009 809.879V807.415L1970.79 785.238V740.062L2009 762.239V759.775L1972.02 738.419L2009 717.063V714.599L1970.79 736.776V691.601L2009 669.423V666.959L1969.97 689.547L1930.94 666.959L1969.97 644.371L2009 666.959V664.495L1970.79 642.318V597.142L2009 619.319V616.855L1972.02 595.499L2009 574.143V571.679L1970.79 593.857V548.681L2009 526.503V524.039L1969.97 546.627L1937.92 528.146L1930.94 524.039L1969.97 501.451L2009 524.039V521.575L1970.79 499.398V454.222L2009 476.399V473.935L1972.02 452.579L2009 431.224V428.759L1970.79 450.937V405.761L2009 383.584V381.941L1969.97 404.529L1930.94 381.941L1969.97 359.353L2009 381.941V379.477L1970.79 357.3V312.124L2009 334.301V331.837L1972.02 310.481L2009 289.125V286.661L1970.79 308.838V263.662L2009 241.485V239.021L1969.97 261.609L1930.94 239.021L1969.97 216.433L2009 239.021V236.557L1970.79 214.38V169.204L2009 191.381V188.917L1972.02 167.561L2009 146.205V143.741L1970.79 165.918V120.743L2009 98.5654V96.1013L1969.97 118.689L1937.92 100.208L1930.94 96.1013L1969.97 73.5134L2009 96.1013V93.6371L1970.79 71.4599V26.2841L2009 48.4613V45.9972L1970.79 23.82L1968.74 22.5879L1928.06 0L1887.8 22.9986H1885.75L1845.9 0L1805.63 22.9986H1803.58L1763.32 0L1723.05 22.9986H1721L1680.74 0L1640.47 22.9986H1638.42L1598.57 0L1558.3 22.9986H1556.25L1515.99 0L1475.73 22.9986H1473.67L1433.41 0L1393.15 22.9986H1391.09L1351.24 0L1310.98 22.9986H1308.92L1268.66 0L1228.4 22.9986H1226.34L1186.08 0L1145.82 22.9986H1143.76L1103.91 0L1063.65 22.9986H1061.59L1021.33 0L981.069 22.9986H979.015L938.753 0L898.49 22.9986H896.436L856.584 0L816.321 22.9986H814.267L774.004 0L733.742 22.9986H731.687L691.425 0L651.162 22.9986H649.108L608.845 0L568.582 22.9986H566.528L526.676 0L486.414 22.9986H484.36L444.097 0L403.834 22.9986H401.78L361.517 0L321.255 22.9986H319.2L279.349 0L239.086 22.9986H237.032L196.769 0L156.506 22.9986H154.452L114.189 0L73.9268 22.9986H71.8726L32.0208 0L-8.24192 22.9986H-10.2961L-50.5588 0L-90.4106 22.9986V25.4627L-50.5588 2.46414L-11.5287 25.052L-51.3805 48.0506L-51.7913 48.4613V94.4585L-90.4106 72.2813V74.7454L-52.613 96.512L-90.4106 118.278V120.743L-51.3805 98.1547V143.331L-90.4106 165.918V170.025L-51.3805 192.613V237.789L-53.8456 236.557L-90.4106 214.79V217.255L-55.0781 237.789L-52.613 239.021L-90.4106 260.788V263.252L-51.3805 240.664V285.84L-90.4106 308.428V312.534L-51.3805 335.122V380.298L-54.6673 378.245L-90.4106 357.71V360.174L-55.8998 380.298L-52.613 381.941L-90.4106 403.707V406.172L-51.3805 383.584V428.759L-90.4106 451.347V455.454L-51.3805 478.042V523.218L-90.4106 500.219V502.684L-52.613 524.45L-90.4106 546.627V549.091L-51.3805 526.503V571.679L-90.4106 593.857V597.963L-51.3805 620.551V665.727L-90.4106 643.139V645.603L-52.613 667.37L-90.4106 689.136V691.601L-51.3805 669.013V714.188L-90.4106 736.776V740.883L-51.3805 763.471V808.647L-58.3648 804.54L-90.4106 786.059V788.523L-55.0781 809.058L-52.613 810.29L-90.4106 832.056V834.52L-51.3805 811.932V857.108L-90.4106 879.696V883.803L-51.3805 906.391V951.567L-54.6673 949.513L-90.4106 928.979V931.443L-55.8998 951.567L-52.613 953.62L-90.4106 974.565V977.029L-51.3805 954.442V999.617L-90.4106 1022.21V1026.31L-51.3805 1048.9V1094.08L-90.4106 1071.49V1073.95L-52.613 1095.72L-90.4106 1117.49V1119.95L-51.3805 1097.36V1143.77L-11.1178 1166.77L-9.06361 1168L-7.00939 1166.77L32.0208 1144.18L71.0509 1166.77L73.1051 1168L75.1593 1166.77L114.189 1144.18L153.22 1166.77L155.274 1168L157.328 1166.77L196.358 1144.18L235.388 1166.77L237.443 1168L239.497 1166.77L278.527 1144.18L317.557 1166.77L319.611 1168L321.665 1166.77L360.696 1144.18L399.726 1166.77L401.78 1168L403.834 1166.77L442.864 1144.18L481.895 1166.77L483.949 1168L486.003 1166.77L525.033 1144.18L564.063 1166.77L566.117 1168L568.172 1166.77L607.202 1144.18L646.232 1166.77L648.286 1168L650.34 1166.77L689.371 1144.18L728.401 1166.77L730.455 1168L732.509 1166.77L771.539 1144.18L810.569 1166.77L812.624 1168L814.678 1166.77L853.708 1144.18L892.738 1166.77L894.792 1168L896.847 1166.77L935.877 1144.18L974.907 1166.77L976.961 1168L979.015 1166.77L1018.05 1144.18L1057.08 1166.77L1059.13 1168L1061.18 1166.77L1100.21 1144.18L1139.24 1166.77L1141.3 1168L1143.35 1166.77L1182.38 1144.18L1221.41 1166.77L1223.47 1168L1225.52 1166.77L1264.55 1144.18L1303.58 1166.77L1305.64 1168L1307.69 1166.77L1346.72 1144.18L1385.75 1166.77L1387.8 1168L1389.86 1166.77L1428.89 1144.18L1467.92 1166.77L1469.97 1168L1472.03 1166.77L1511.06 1144.18L1550.09 1166.77L1552.14 1168L1554.2 1166.77L1593.23 1144.18L1632.26 1166.77L1634.31 1168L1636.36 1166.77L1675.4 1144.18L1714.43 1166.77L1716.48 1168L1718.53 1166.77L1757.56 1144.18L1796.59 1166.77L1798.65 1168L1800.7 1166.77L1839.73 1144.18L1878.76 1166.77L1880.82 1168L1882.87 1166.77L1922.72 1143.77L1923.13 1143.36V1096.95L1963.4 1119.95L2002.43 1097.36V1094.9L1969.56 1118.31ZM1968.33 977.44V1022.62L1929.3 1000.03V954.852L1968.33 977.44ZM1854.93 528.557L1847.95 524.45L1886.98 501.862L1926.01 524.45L1886.98 547.038L1854.93 528.557ZM1886.16 549.091V594.267L1847.13 571.679V526.503L1886.16 549.091ZM1846.72 522.807V477.632L1885.75 455.044V500.219L1846.72 522.807ZM1886.16 451.347L1847.13 428.759V383.584L1886.16 406.172V451.347ZM1884.93 453.401L1845.9 475.989L1806.87 453.401L1845.9 430.813L1884.93 453.401ZM1844.66 428.759L1805.63 451.347V406.172L1844.66 383.584V428.759ZM1844.66 477.632V522.807L1805.63 500.219V455.044L1844.66 477.632ZM1843.84 524.45L1804.81 547.038L1772.77 528.557L1765.78 524.45L1804.81 501.862L1843.84 524.45ZM1844.66 526.503V571.679L1805.63 594.267V549.091L1844.66 526.503ZM1803.58 549.091V594.267L1764.55 571.679V526.503L1803.58 549.091ZM1764.55 522.807V477.632L1803.58 455.044V500.219L1764.55 522.807ZM1803.58 451.347L1764.55 428.759V383.584L1803.58 406.172V451.347ZM1802.35 453.401L1763.32 475.989L1724.29 453.401L1763.32 430.813L1802.35 453.401ZM1762.49 428.759L1723.46 451.347V406.172L1762.49 383.584V428.759ZM1762.49 477.632V522.807L1723.46 500.219V455.044L1762.49 477.632ZM1761.26 524.45L1722.23 547.038L1690.19 528.557L1683.2 524.45L1722.23 501.862L1761.26 524.45ZM1762.49 526.503V571.679L1723.46 594.267V549.091L1762.49 526.503ZM1721 549.091V594.267L1681.97 571.679V526.503L1721 549.091ZM1681.97 522.807V477.632L1721 455.044V500.219L1681.97 522.807ZM1721 451.347L1681.97 428.759V383.584L1721 406.172V451.347ZM1720.18 453.401L1681.15 475.989L1642.12 453.401L1681.15 430.813L1720.18 453.401ZM1679.91 428.759L1640.88 451.347V406.172L1679.91 383.584V428.759ZM1679.91 477.632V522.807L1640.88 500.219V455.044L1679.91 477.632ZM1678.68 524.45L1639.65 547.038L1607.61 528.557L1600.62 524.45L1639.65 501.862L1678.68 524.45ZM1679.91 526.503V571.679L1640.88 594.267V549.091L1679.91 526.503ZM1638.83 549.091V594.267L1599.8 571.679V526.503L1638.83 549.091ZM1599.39 522.807V477.632L1638.42 455.044V500.219L1599.39 522.807ZM1638.83 451.347L1599.8 428.759V383.584L1638.83 406.172V451.347ZM1637.6 453.401L1598.57 475.989L1559.54 453.401L1598.57 430.813L1637.6 453.401ZM1597.33 428.759L1558.3 451.347V406.172L1597.33 383.584V428.759ZM1597.33 477.632V522.807L1558.3 500.219V455.044L1597.33 477.632ZM1596.51 524.45L1557.48 547.038L1525.44 528.557L1518.45 524.45L1557.48 501.862L1596.51 524.45ZM1597.33 526.503V571.679L1558.3 594.267V549.091L1597.33 526.503ZM1556.25 549.091V594.267L1517.22 571.679V526.503L1556.25 549.091ZM1516.81 522.807V477.632L1555.84 455.044V500.219L1516.81 522.807ZM1556.25 451.347L1517.22 428.759V383.584L1556.25 406.172V451.347ZM1555.02 453.401L1515.99 475.989L1476.96 453.401L1515.99 430.813L1555.02 453.401ZM1514.76 428.759L1475.73 451.347V406.172L1514.76 383.584V428.759ZM1514.76 477.632V522.807L1475.73 500.219V455.044L1514.76 477.632ZM1513.93 524.45L1474.9 547.038L1442.86 528.557L1435.87 524.45L1474.9 501.862L1513.93 524.45ZM1514.76 526.503V571.679L1475.73 594.267V549.091L1514.76 526.503ZM1473.67 549.091V594.267L1434.64 571.679V526.503L1473.67 549.091ZM1434.64 522.807V477.632L1473.67 455.044V500.219L1434.64 522.807ZM1473.67 451.347L1434.64 428.759V383.584L1473.67 406.172V451.347ZM1472.85 453.401L1433.82 475.989L1394.79 453.401L1433.82 430.813L1472.85 453.401ZM1432.59 428.759L1393.56 451.347V406.172L1432.59 383.584V428.759ZM1432.59 477.632V522.807L1393.56 500.219V455.044L1432.59 477.632ZM1431.35 524.45L1392.32 547.038L1360.28 528.557L1353.29 524.45L1392.32 501.862L1431.35 524.45ZM1432.59 526.503V571.679L1393.56 594.267V549.091L1432.59 526.503ZM1391.09 549.091V594.267L1352.06 571.679V526.503L1391.09 549.091ZM1352.06 522.807V477.632L1391.09 455.044V500.219L1352.06 522.807ZM1391.09 451.347L1352.06 428.759V383.584L1391.09 406.172V451.347ZM1390.27 453.401L1351.24 475.989L1312.21 453.401L1351.24 430.813L1390.27 453.401ZM1350.01 428.759L1310.98 451.347V406.172L1350.01 383.584V428.759ZM1350.01 477.632V522.807L1310.98 500.219V455.044L1350.01 477.632ZM1349.19 524.45L1310.16 547.038L1278.11 528.557L1271.12 524.45L1310.16 501.862L1349.19 524.45ZM1350.01 526.503V571.679L1310.98 594.267V549.091L1350.01 526.503ZM1308.92 549.091V594.267L1269.89 571.679V526.503L1308.92 549.091ZM1269.48 522.807V477.632L1308.51 455.044V500.219L1269.48 522.807ZM1308.92 451.347L1269.89 428.759V383.584L1308.92 406.172V451.347ZM1307.69 453.401L1268.66 475.989L1229.63 453.401L1268.66 430.813L1307.69 453.401ZM1267.43 428.759L1228.4 451.347V406.172L1267.43 383.584V428.759ZM1267.43 477.632V522.807L1228.4 500.219V455.044L1267.43 477.632ZM1266.61 524.45L1227.58 547.038L1195.53 528.557L1188.55 524.45L1227.58 501.862L1266.61 524.45ZM1267.43 526.503V571.679L1228.4 594.267V549.091L1267.43 526.503ZM1226.34 549.091V594.267L1187.31 571.679V526.503L1226.34 549.091ZM1187.31 522.807V477.632L1226.34 455.044V500.219L1187.31 522.807ZM1226.34 451.347L1187.31 428.759V383.584L1226.34 406.172V451.347ZM1225.52 453.401L1186.49 475.989L1147.46 453.401L1186.49 430.813L1225.52 453.401ZM1185.26 428.759L1146.23 451.347V406.172L1185.26 383.584V428.759ZM1185.26 477.632V522.807L1146.23 500.219V455.044L1185.26 477.632ZM1184.03 524.45L1145 547.038L1112.95 528.557L1105.97 524.45L1145 501.862L1184.03 524.45ZM1185.26 526.503V571.679L1146.23 594.267V549.091L1185.26 526.503ZM1143.76 549.091V594.267L1104.73 571.679V526.503L1143.76 549.091ZM1104.73 522.807V477.632L1143.76 455.044V500.219L1104.73 522.807ZM1143.76 451.347L1104.73 428.759V383.584L1143.76 406.172V451.347ZM1142.94 453.401L1103.91 475.989L1064.88 453.401L1103.91 430.813L1142.94 453.401ZM1102.68 428.759L1063.65 451.347V406.172L1102.68 383.584V428.759ZM1102.68 477.632V522.807L1063.65 500.219V455.044L1102.68 477.632ZM1101.86 524.45L1062.83 547.038L1030.78 528.557L1023.8 524.45L1062.83 501.862L1101.86 524.45ZM1102.68 526.503V571.679L1063.65 594.267V549.091L1102.68 526.503ZM1061.59 549.091V594.267L1022.56 571.679V526.503L1061.59 549.091ZM1022.15 522.807V477.632L1061.18 455.044V500.219L1022.15 522.807ZM1061.59 451.347L1022.56 428.759V383.584L1061.59 406.172V451.347ZM1060.36 453.401L1021.33 475.989L982.302 453.401L1021.33 430.813L1060.36 453.401ZM1020.1 428.759L981.069 451.347V406.172L1020.1 383.584V428.759ZM1020.1 477.632V522.807L981.069 500.219V455.044L1020.1 477.632ZM1019.28 524.45L980.248 547.038L948.202 528.557L941.218 524.45L980.248 501.862L1019.28 524.45ZM1020.1 526.503V571.679L981.069 594.267V549.091L1020.1 526.503ZM979.015 549.091V594.267L939.985 571.679V526.503L979.015 549.091ZM939.985 522.807V477.632L979.015 455.044V500.219L939.985 522.807ZM979.015 451.347L939.985 428.759V383.584L979.015 406.172V451.347ZM978.194 453.401L939.163 475.989L900.133 453.401L939.163 430.813L978.194 453.401ZM937.931 428.759L898.901 451.347V406.172L937.931 383.584V428.759ZM937.931 477.632V522.807L898.901 500.219V455.044L937.931 477.632ZM936.698 524.45L897.668 547.038L865.622 528.557L858.638 524.45L897.668 501.862L936.698 524.45ZM937.931 526.503V571.679L898.901 594.267V549.091L937.931 526.503ZM896.436 549.091V594.267L857.406 571.679V526.503L896.436 549.091ZM857.406 522.807V477.632L896.436 455.044V500.219L857.406 522.807ZM896.436 451.347L857.406 428.759V383.584L896.436 406.172V451.347ZM895.614 453.401L856.584 475.989L817.554 453.401L856.584 430.813L895.614 453.401ZM855.351 428.759L816.321 451.347V406.172L855.351 383.584V428.759ZM855.351 477.632V522.807L816.321 500.219V455.044L855.351 477.632ZM854.53 524.45L815.5 547.038L783.454 528.557L776.469 524.45L815.5 501.862L854.53 524.45ZM855.351 526.503V571.679L816.321 594.267V549.091L855.351 526.503ZM814.267 549.091V594.267L775.237 571.679V526.503L814.267 549.091ZM774.826 522.807V477.632L813.856 455.044V500.219L774.826 522.807ZM814.267 451.347L775.237 428.759V383.584L814.267 406.172V451.347ZM813.034 453.401L774.004 475.989L734.974 453.401L774.004 430.813L813.034 453.401ZM772.772 428.759L733.742 451.347V406.172L772.772 383.584V428.759ZM772.772 477.632V522.807L733.742 500.219V455.044L772.772 477.632ZM771.95 524.45L732.92 547.038L700.874 528.557L693.89 524.45L732.92 501.862L771.95 524.45ZM772.772 526.503V571.679L733.742 594.267V549.091L772.772 526.503ZM731.687 549.091V594.267L692.657 571.679V526.503L731.687 549.091ZM692.657 522.807V477.632L731.687 455.044V500.219L692.657 522.807ZM731.687 451.347L692.657 428.759V383.584L731.687 406.172V451.347ZM730.866 453.401L691.836 475.989L652.805 453.401L691.836 430.813L730.866 453.401ZM690.603 428.759L651.573 451.347V406.172L690.603 383.584V428.759ZM690.603 477.632V522.807L651.573 500.219V455.044L690.603 477.632ZM689.371 524.45L650.34 547.038L618.295 528.557L611.31 524.45L650.34 501.862L689.371 524.45ZM690.603 526.503V571.679L651.573 594.267V549.091L690.603 526.503ZM649.108 549.091V594.267L610.078 571.679V526.503L649.108 549.091ZM610.078 522.807V477.632L649.108 455.044V500.219L610.078 522.807ZM649.108 451.347L610.078 428.759V383.584L649.108 406.172V451.347ZM648.286 453.401L609.256 475.989L570.226 453.401L609.256 430.813L648.286 453.401ZM608.023 428.759L568.993 451.347V406.172L608.023 383.584V428.759ZM608.023 477.632V522.807L568.993 500.219V455.044L608.023 477.632ZM606.791 524.45L567.761 547.038L535.715 528.557L528.731 524.45L567.761 501.862L606.791 524.45ZM608.023 526.503V571.679L568.993 594.267V549.091L608.023 526.503ZM566.939 549.091V594.267L527.909 571.679V526.503L566.939 549.091ZM527.498 522.807V477.632L566.528 455.044V500.219L527.498 522.807ZM566.939 451.347L527.909 428.759V383.584L566.939 406.172V451.347ZM565.707 453.401L526.676 475.989L487.646 453.401L526.676 430.813L565.707 453.401ZM525.444 428.759L486.414 451.347V406.172L525.444 383.584V428.759ZM525.444 477.632V522.807L486.414 500.219V455.044L525.444 477.632ZM524.622 524.45L485.592 547.038L453.546 528.557L446.562 524.45L485.592 501.862L524.622 524.45ZM525.444 526.503V571.679L486.414 594.267V549.091L525.444 526.503ZM484.36 549.091V594.267L445.329 571.679V526.503L484.36 549.091ZM445.329 522.807V477.632L484.36 455.044V500.219L445.329 522.807ZM484.36 451.347L445.329 428.759V383.584L484.36 406.172V451.347ZM483.127 453.401L444.097 475.989L405.067 453.401L444.097 430.813L483.127 453.401ZM443.275 428.759L404.245 451.347V406.172L443.275 383.584V428.759ZM443.275 477.632V522.807L404.245 500.219V455.044L443.275 477.632ZM442.043 524.45L403.013 547.038L370.967 528.557L363.982 524.45L403.013 501.862L442.043 524.45ZM443.275 526.503V571.679L404.245 594.267V549.091L443.275 526.503ZM401.78 549.091V594.267L362.75 571.679V526.503L401.78 549.091ZM362.75 522.807V477.632L401.78 455.044V500.219L362.75 522.807ZM401.78 451.347L362.75 428.759V383.584L401.78 406.172V451.347ZM400.958 453.401L361.928 475.989L322.898 453.401L361.928 430.813L400.958 453.401ZM360.696 428.759L321.665 451.347V406.172L360.696 383.584V428.759ZM360.696 477.632V522.807L321.665 500.219V455.044L360.696 477.632ZM359.463 524.45L320.433 547.038L288.387 528.557L281.403 524.45L320.433 501.862L359.463 524.45ZM360.696 526.503V571.679L321.665 594.267V549.091L360.696 526.503ZM319.611 549.091V594.267L280.581 571.679V526.503L319.611 549.091ZM280.17 522.807V477.632L319.2 455.044V500.219L280.17 522.807ZM319.611 451.347L280.581 428.759V383.584L319.611 406.172V451.347ZM318.379 453.401L279.349 475.989L240.318 453.401L279.349 430.813L318.379 453.401ZM278.116 428.759L239.086 451.347V406.172L278.116 383.584V428.759ZM278.116 477.632V522.807L239.086 500.219V455.044L278.116 477.632ZM277.294 524.45L238.264 547.038L206.218 528.557L199.234 524.45L238.264 501.862L277.294 524.45ZM278.116 526.503V571.679L239.086 594.267V549.091L278.116 526.503ZM237.032 549.091V594.267L198.002 571.679V526.503L237.032 549.091ZM198.002 522.807V477.632L237.032 455.044V500.219L198.002 522.807ZM237.032 451.347L198.002 428.759V383.584L237.032 406.172V451.347ZM235.799 453.401L196.769 475.989L157.739 453.401L196.769 430.813L235.799 453.401ZM195.947 428.759L156.917 451.347V406.172L195.947 383.584V428.759ZM195.947 477.632V522.807L156.917 500.219V455.044L195.947 477.632ZM194.715 524.45L155.685 547.038L123.639 528.557L116.655 524.45L155.685 501.862L194.715 524.45ZM195.947 526.503V571.679L156.917 594.267V549.091L195.947 526.503ZM154.452 549.091V594.267L115.422 571.679V526.503L154.452 549.091ZM115.422 522.807V477.632L154.452 455.044V500.219L115.422 522.807ZM154.452 451.347L115.422 428.759V383.584L154.452 406.172V451.347ZM153.63 453.401L114.6 475.989L75.5702 453.401L114.6 430.813L153.63 453.401ZM113.368 428.759L74.3376 451.347V406.172L113.368 383.584V428.759ZM113.368 477.632V522.807L74.3376 500.219V455.044L113.368 477.632ZM112.135 524.45L73.1051 547.038L41.0593 528.557L34.075 524.45L73.1051 501.862L112.135 524.45ZM113.368 526.503V571.679L74.3376 594.267V549.091L113.368 526.503ZM72.2834 549.091V594.267L33.2533 571.679V526.503L72.2834 549.091ZM32.8424 522.807V477.632L71.8726 455.044V500.219L32.8424 522.807ZM72.2834 451.347L33.2533 428.759V383.584L72.2834 406.172V451.347ZM71.0509 453.401L32.0208 475.989L-7.00939 453.401L32.0208 430.813L71.0509 453.401ZM30.7882 428.759L-8.24192 451.347V406.172L30.7882 383.584V428.759ZM30.7882 477.632V522.807L-8.24192 500.219V455.044L30.7882 477.632ZM-0.435898 600.017L-7.42023 595.91L31.6099 573.322L70.6401 595.91L31.6099 618.498L-0.435898 600.017ZM30.7882 620.551V665.727L-8.24192 643.139V597.963L-1.25758 602.07L30.7882 620.551ZM-8.24192 594.267V549.091L30.7882 526.503V571.679L-8.24192 594.267ZM72.2834 597.963V643.139L33.2533 665.727V620.551L72.2834 597.963ZM32.8424 669.013L71.8726 691.601V736.776L32.8424 714.188V669.013ZM34.075 667.37L73.1051 644.782L112.135 667.37L73.1051 689.958L34.075 667.37ZM74.3376 691.601L113.368 669.013V714.188L74.3376 736.776V691.601ZM74.3376 643.139V597.963L81.322 602.07L113.368 620.551V665.727L74.3376 643.139ZM82.1437 600.017L75.1593 595.91L114.189 573.322L153.22 595.91L114.189 618.498L82.1437 600.017ZM154.452 597.963V643.139L115.422 665.727V620.551L154.452 597.963ZM115.422 669.013L154.452 691.601V736.776L115.422 714.188V669.013ZM116.244 667.37L155.274 644.782L194.304 667.37L155.274 689.958L116.244 667.37ZM156.506 691.601L195.536 669.013V714.188L156.506 736.776V691.601ZM156.506 643.139V597.963L163.491 602.07L195.536 620.551V665.727L156.506 643.139ZM164.723 600.017L157.739 595.91L196.769 573.322L235.799 595.91L196.769 618.498L164.723 600.017ZM237.032 597.963V643.139L198.002 665.727V620.551L237.032 597.963ZM198.002 669.013L237.032 691.601V736.776L198.002 714.188V669.013ZM198.823 667.37L237.853 644.782L276.884 667.37L237.853 689.958L198.823 667.37ZM239.086 691.601L278.116 669.013V714.188L239.086 736.776V691.601ZM239.086 643.139V597.963L246.07 602.07L278.116 620.551V665.727L239.086 643.139ZM246.892 600.017L239.908 595.91L278.938 573.322L317.968 595.91L278.938 618.498L246.892 600.017ZM319.611 597.963V643.139L280.581 665.727V620.551L319.611 597.963ZM280.17 669.013L319.2 691.601V736.776L280.17 714.188V669.013ZM281.403 667.37L320.433 644.782L359.463 667.37L320.433 689.958L281.403 667.37ZM321.665 691.601L360.696 669.013V714.188L321.665 736.776V691.601ZM321.665 643.139V597.963L328.65 602.07L360.696 620.551V665.727L321.665 643.139ZM329.472 600.017L322.487 595.91L361.517 573.322L400.547 595.91L361.517 618.498L329.472 600.017ZM401.78 597.963V643.139L362.75 665.727V620.551L401.78 597.963ZM362.75 669.013L401.78 691.601V736.776L362.75 714.188V669.013ZM363.572 667.37L402.602 644.782L441.632 667.37L402.602 689.958L363.572 667.37ZM403.834 691.601L442.864 669.013V714.188L403.834 736.776V691.601ZM403.834 643.139V597.963L410.819 602.07L442.864 620.551V665.727L403.834 643.139ZM412.051 600.017L405.067 595.91L444.097 573.322L483.127 595.91L444.097 618.498L412.051 600.017ZM484.36 597.963V643.139L445.329 665.727V620.551L484.36 597.963ZM445.329 669.013L484.36 691.601V736.776L445.329 714.188V669.013ZM446.151 667.37L485.181 644.782L524.211 667.37L485.181 689.958L446.151 667.37ZM486.414 691.601L525.444 669.013V714.188L486.414 736.776V691.601ZM486.414 643.139V597.963L493.398 602.07L525.444 620.551V665.727L486.414 643.139ZM494.22 600.017L487.235 595.91L526.266 573.322L565.296 595.91L526.266 618.498L494.22 600.017ZM566.939 597.963V643.139L527.909 665.727V620.551L566.939 597.963ZM527.498 669.013L566.528 691.601V736.776L527.498 714.188V669.013ZM528.731 667.37L567.761 644.782L606.791 667.37L567.761 689.958L528.731 667.37ZM568.993 691.601L608.023 669.013V714.188L568.993 736.776V691.601ZM568.993 643.139V597.963L575.978 602.07L608.023 620.551V665.727L568.993 643.139ZM576.799 600.017L569.815 595.91L608.845 573.322L647.875 595.91L608.845 618.498L576.799 600.017ZM649.108 597.963V643.139L610.078 665.727V620.551L649.108 597.963ZM610.078 669.013L649.108 691.601V736.776L610.078 714.188V669.013ZM610.899 667.37L649.93 644.782L688.96 667.37L649.93 689.958L610.899 667.37ZM651.162 691.601L690.192 669.013V714.188L651.162 736.776V691.601ZM651.162 643.139V597.963L658.146 602.07L690.192 620.551V665.727L651.162 643.139ZM659.379 600.017L652.395 595.91L691.425 573.322L730.455 595.91L691.425 618.498L659.379 600.017ZM731.687 597.963V643.139L692.657 665.727V620.551L731.687 597.963ZM692.657 669.013L731.687 691.601V736.776L692.657 714.188V669.013ZM693.479 667.37L732.509 644.782L771.539 667.37L732.509 689.958L693.479 667.37ZM733.742 691.601L772.772 669.013V714.188L733.742 736.776V691.601ZM733.742 643.139V597.963L740.726 602.07L772.772 620.551V665.727L733.742 643.139ZM741.959 600.017L734.974 595.91L774.004 573.322L813.034 595.91L774.004 618.498L741.959 600.017ZM814.267 597.963V643.139L775.237 665.727V620.551L814.267 597.963ZM774.826 669.013L813.856 691.601V736.776L774.826 714.188V669.013ZM776.059 667.37L815.089 644.782L854.119 667.37L815.089 689.958L776.059 667.37ZM816.321 691.601L855.351 669.013V714.188L816.321 736.776V691.601ZM816.321 643.139V597.963L823.306 602.07L855.351 620.551V665.727L816.321 643.139ZM824.127 600.017L817.143 595.91L856.173 573.322L895.203 595.91L856.173 618.498L824.127 600.017ZM896.436 597.963V643.139L857.406 665.727V620.551L896.436 597.963ZM857.406 669.013L896.436 691.601V736.776L857.406 714.188V669.013ZM858.638 667.37L897.668 644.782L936.698 667.37L897.668 689.958L858.638 667.37ZM898.49 691.601L937.52 669.013V714.188L898.49 736.776V691.601ZM898.49 643.139V597.963L905.474 602.07L937.52 620.551V665.727L898.49 643.139ZM906.707 600.017L899.722 595.91L938.753 573.322L977.783 595.91L938.753 618.498L906.707 600.017ZM979.015 597.963V643.139L939.985 665.727V620.551L979.015 597.963ZM939.985 669.013L979.015 691.601V736.776L939.985 714.188V669.013ZM940.807 667.37L979.837 644.782L1018.87 667.37L979.837 689.958L940.807 667.37ZM981.069 691.601L1020.1 669.013V714.188L981.069 736.776V691.601ZM981.069 643.139V597.963L988.054 602.07L1020.1 620.551V665.727L981.069 643.139ZM989.286 600.017L982.302 595.91L1021.33 573.322L1060.36 595.91L1021.33 618.498L989.286 600.017ZM1061.59 597.963V643.139L1022.56 665.727V620.551L1061.59 597.963ZM1022.15 669.013L1061.18 691.601V736.776L1022.15 714.188V669.013ZM1023.39 667.37L1062.42 644.782L1101.45 667.37L1062.42 689.958L1023.39 667.37ZM1063.65 691.601L1102.68 669.013V714.188L1063.65 736.776V691.601ZM1063.65 643.139V597.963L1070.63 602.07L1102.68 620.551V665.727L1063.65 643.139ZM1071.46 600.017L1064.47 595.91L1103.5 573.322L1142.53 595.91L1103.5 618.498L1071.46 600.017ZM1143.76 597.963V643.139L1104.73 665.727V620.551L1143.76 597.963ZM1104.73 669.013L1143.76 691.601V736.776L1104.73 714.188V669.013ZM1105.97 667.37L1145 644.782L1184.03 667.37L1145 689.958L1105.97 667.37ZM1145.82 691.601L1184.85 669.013V714.188L1145.82 736.776V691.601ZM1145.82 643.139V597.963L1152.8 602.07L1184.85 620.551V665.727L1145.82 643.139ZM1154.03 600.017L1147.05 595.91L1186.08 573.322L1225.11 595.91L1186.08 618.498L1154.03 600.017ZM1226.34 597.963V643.139L1187.31 665.727V620.551L1226.34 597.963ZM1187.31 669.013L1226.34 691.601V736.776L1187.31 714.188V669.013ZM1188.13 667.37L1227.16 644.782L1266.2 667.37L1227.16 689.958L1188.13 667.37ZM1228.4 691.601L1267.43 669.013V714.188L1228.4 736.776V691.601ZM1228.4 643.139V597.963L1235.38 602.07L1267.43 620.551V665.727L1228.4 643.139ZM1236.61 600.017L1229.63 595.91L1268.66 573.322L1307.69 595.91L1268.66 618.498L1236.61 600.017ZM1308.92 597.963V643.139L1269.89 665.727V620.551L1308.92 597.963ZM1269.48 669.013L1308.51 691.601V736.776L1269.48 714.188V669.013ZM1270.71 667.37L1309.74 644.782L1348.77 667.37L1309.74 689.958L1270.71 667.37ZM1310.98 691.601L1350.01 669.013V714.188L1310.98 736.776V691.601ZM1310.98 643.139V597.963L1317.96 602.07L1350.01 620.551V665.727L1310.98 643.139ZM1318.78 600.017L1311.8 595.91L1350.83 573.322L1389.86 595.91L1350.83 618.498L1318.78 600.017ZM1391.09 597.963V643.139L1352.06 665.727V620.551L1391.09 597.963ZM1352.06 669.013L1391.09 691.601V736.776L1352.06 714.188V669.013ZM1353.29 667.37L1392.32 644.782L1431.35 667.37L1392.32 689.958L1353.29 667.37ZM1393.15 691.601L1432.18 669.013V714.188L1393.15 736.776V691.601ZM1393.15 643.139V597.963L1400.13 602.07L1432.18 620.551V665.727L1393.15 643.139ZM1401.36 600.017L1394.38 595.91L1433.41 573.322L1472.44 595.91L1433.41 618.498L1401.36 600.017ZM1473.67 597.963V643.139L1434.64 665.727V620.551L1473.67 597.963ZM1434.64 669.013L1473.67 691.601V736.776L1434.64 714.188V669.013ZM1435.46 667.37L1474.49 644.782L1513.52 667.37L1474.9 689.958L1435.46 667.37ZM1475.73 691.601L1514.76 669.013V714.188L1475.73 736.776V691.601ZM1475.73 643.139V597.963L1482.71 602.07L1514.76 620.551V665.727L1475.73 643.139ZM1483.94 600.017L1476.96 595.91L1515.99 573.322L1555.02 595.91L1515.99 618.498L1483.94 600.017ZM1556.25 597.963V643.139L1517.22 665.727V620.551L1556.25 597.963ZM1516.81 669.013L1555.84 691.601V736.776L1516.81 714.188V669.013ZM1518.04 667.37L1557.07 644.782L1596.1 667.37L1557.07 689.958L1518.04 667.37ZM1558.3 691.601L1597.33 669.013V714.188L1558.3 736.776V691.601ZM1558.3 643.139V597.963L1565.29 602.07L1597.33 620.551V665.727L1558.3 643.139ZM1566.11 600.017L1559.13 595.91L1598.16 573.322L1637.19 595.91L1598.16 618.498L1566.11 600.017ZM1638.83 597.963V643.139L1599.8 665.727V620.551L1638.83 597.963ZM1599.39 669.013L1638.42 691.601V736.776L1599.39 714.188V669.013ZM1600.62 667.37L1639.65 644.782L1678.68 667.37L1639.65 689.958L1600.62 667.37ZM1640.88 691.601L1679.91 669.013V714.188L1640.88 736.776V691.601ZM1640.88 643.139V597.963L1647.87 602.07L1679.91 620.551V665.727L1640.88 643.139ZM1648.69 600.017L1641.71 595.91L1680.74 573.322L1719.77 595.91L1680.74 618.498L1648.69 600.017ZM1721 597.963V643.139L1681.97 665.727V620.551L1721 597.963ZM1681.97 669.013L1721 691.601V736.776L1681.97 714.188V669.013ZM1682.79 667.37L1721.82 644.782L1760.85 667.37L1721.82 689.958L1682.79 667.37ZM1723.05 691.601L1762.08 669.013V714.188L1723.05 736.776V691.601ZM1723.05 643.139V597.963L1730.04 602.07L1762.08 620.551V665.727L1723.05 643.139ZM1731.27 600.017L1724.29 595.91L1763.32 573.322L1802.35 595.91L1763.32 618.498L1731.27 600.017ZM1803.58 597.963V643.139L1764.55 665.727V620.551L1803.58 597.963ZM1764.55 669.013L1803.58 691.601V736.776L1764.55 714.188V669.013ZM1765.37 667.37L1804.4 644.782L1843.43 667.37L1804.4 689.958L1765.37 667.37ZM1805.63 691.601L1844.66 669.013V714.188L1805.63 736.776V691.601ZM1805.63 643.139V597.963L1812.62 602.07L1844.66 620.551V665.727L1805.63 643.139ZM1813.44 600.017L1806.45 595.91L1845.48 573.322L1884.51 595.91L1845.48 618.498L1813.44 600.017ZM1886.16 597.963V643.139L1847.13 665.727V620.551L1886.16 597.963ZM1846.72 669.013L1885.75 691.601V736.776L1846.72 714.188V669.013ZM1847.95 667.37L1886.98 644.782L1926.01 667.37L1886.98 689.958L1847.95 667.37ZM1888.21 691.601L1927.24 669.013V714.188L1888.21 736.776V691.601ZM1888.21 643.139V597.963L1895.2 602.07L1927.24 620.551V665.727L1888.21 643.139ZM1888.21 549.091L1927.24 526.503V571.679L1888.21 594.267V549.091ZM1888.21 500.219V455.044L1927.24 477.632V522.807L1888.21 500.219ZM1923.13 379.887L1926.42 381.941L1887.39 404.529L1848.36 381.941L1887.39 359.353L1923.13 379.887ZM1888.21 357.3V312.124L1927.24 334.712V379.887L1923.96 377.834L1888.21 357.3ZM1927.24 383.584V428.759L1888.21 451.347V406.172L1927.24 383.584ZM1846.72 379.887V334.712L1885.75 312.124V357.3L1846.72 379.887ZM1886.16 308.838L1879.17 304.731L1847.13 286.25V241.075L1886.16 263.662V308.838ZM1882.46 309.249L1884.93 310.481L1845.9 333.069L1806.87 310.481L1845.9 287.893L1882.46 309.249ZM1844.66 286.25L1805.63 308.838V263.662L1844.66 241.075V286.25ZM1844.66 334.712V379.887L1841.38 377.834L1805.22 356.889V312.124L1844.66 334.712ZM1840.55 379.887L1843.84 381.941L1804.81 404.529L1765.78 381.941L1804.81 359.353L1840.55 379.887ZM1764.55 379.887V334.712L1803.58 312.124V357.3L1764.55 379.887ZM1803.58 308.838L1796.59 304.731L1764.55 286.25V241.075L1803.58 263.662V308.838ZM1800.29 309.249L1802.76 310.481L1763.73 333.069L1724.7 310.481L1763.73 287.893L1800.29 309.249ZM1762.49 286.25L1723.46 308.838V263.662L1762.49 241.075V286.25ZM1762.49 334.712V379.887L1759.21 377.834L1723.46 356.889V312.124L1762.49 334.712ZM1757.97 379.887L1761.26 381.941L1722.23 404.529L1683.2 381.941L1722.23 359.353L1757.97 379.887ZM1681.97 379.887V334.712L1721 312.124V357.3L1681.97 379.887ZM1721 308.838L1714.01 304.731L1681.97 286.25V241.075L1721 263.662V308.838ZM1717.71 309.249L1720.18 310.481L1681.15 333.069L1642.12 310.481L1681.15 287.893L1717.71 309.249ZM1679.91 286.25L1640.88 308.838V263.662L1679.91 241.075V286.25ZM1679.91 334.712V379.887L1676.63 377.834L1640.47 356.889V312.124L1679.91 334.712ZM1675.81 379.887L1679.09 381.941L1640.06 404.529L1601.03 381.941L1640.06 359.353L1675.81 379.887ZM1599.39 379.887V334.712L1638.42 312.124V357.3L1599.39 379.887ZM1638.83 308.838L1631.85 304.731L1599.8 286.25V241.075L1638.83 263.662V308.838ZM1635.13 309.249L1637.6 310.481L1598.57 333.069L1559.54 310.481L1598.57 287.893L1635.13 309.249ZM1597.33 286.25L1558.3 308.838V263.662L1597.33 241.075V286.25ZM1597.33 334.712V379.887L1594.05 377.834L1558.3 356.889V312.124L1597.33 334.712ZM1593.23 379.887L1596.51 381.941L1557.48 404.529L1518.45 381.941L1557.48 359.353L1593.23 379.887ZM1516.81 379.887V334.712L1555.84 312.124V357.3L1516.81 379.887ZM1556.25 308.838L1549.27 304.731L1517.22 286.25V241.075L1556.25 263.662V308.838ZM1552.96 309.249L1555.43 310.481L1516.4 333.069L1477.37 310.481L1516.4 287.893L1552.96 309.249ZM1514.76 286.25L1475.73 308.838V263.662L1514.76 241.075V286.25ZM1514.76 334.712V379.887L1511.47 377.834L1475.73 356.889V312.124L1514.76 334.712ZM1510.65 379.887L1513.93 381.941L1474.9 404.529L1435.87 381.941L1474.9 359.353L1510.65 379.887ZM1434.64 379.887V334.712L1473.67 312.124V357.3L1434.64 379.887ZM1473.67 308.838L1466.69 304.731L1434.64 286.25V241.075L1473.67 263.662V308.838ZM1470.38 309.249L1472.85 310.481L1433.82 333.069L1394.79 310.481L1433.82 287.893L1470.38 309.249ZM1432.59 286.25L1393.56 308.838V263.662L1432.59 241.075V286.25ZM1432.59 334.712V379.887L1429.3 377.834L1393.15 356.889V312.124L1432.59 334.712ZM1428.07 379.887L1431.35 381.941L1392.32 404.529L1353.29 381.941L1392.32 359.353L1428.07 379.887ZM1352.06 379.887V334.712L1391.09 312.124V357.3L1352.06 379.887ZM1391.09 308.838L1384.11 304.731L1352.06 286.25V241.075L1391.09 263.662V308.838ZM1387.8 309.249L1390.27 310.481L1351.24 333.069L1312.21 310.481L1351.24 287.893L1387.8 309.249ZM1350.01 286.25L1310.98 308.838V263.662L1350.01 241.075V286.25ZM1350.01 334.712V379.887L1346.72 377.834L1310.98 356.889V312.124L1350.01 334.712ZM1345.9 379.887L1349.19 381.941L1310.16 404.529L1271.12 381.941L1310.16 359.353L1345.9 379.887ZM1269.48 379.887V334.712L1308.51 312.124V357.3L1269.48 379.887ZM1308.92 308.838L1301.94 304.731L1269.89 286.25V241.075L1308.92 263.662V308.838ZM1305.64 309.249L1308.1 310.481L1269.07 333.069L1230.04 310.481L1269.07 287.893L1305.64 309.249ZM1267.43 286.25L1228.4 308.838V263.662L1267.43 241.075V286.25ZM1267.43 334.712V379.887L1264.14 377.834L1228.4 357.3V312.124L1267.43 334.712ZM1263.32 379.887L1266.61 381.941L1227.58 404.529L1188.55 381.941L1227.58 359.353L1263.32 379.887ZM1187.31 379.887V334.712L1226.34 312.124V357.3L1187.31 379.887ZM1226.34 308.838L1219.36 304.731L1187.31 286.25V241.075L1226.34 263.662V308.838ZM1223.06 309.249L1225.52 310.481L1186.49 333.069L1147.46 310.481L1186.49 287.893L1223.06 309.249ZM1185.26 286.25L1146.23 308.838V263.662L1185.26 241.075V286.25ZM1185.26 334.712V379.887L1181.97 377.834L1146.23 356.889V312.124L1185.26 334.712ZM1180.74 379.887L1184.03 381.941L1145 404.529L1105.97 381.941L1145 359.353L1180.74 379.887ZM1104.73 379.887V334.712L1143.76 312.124V357.3L1104.73 379.887ZM1143.76 308.838L1136.78 304.731L1104.73 286.25V241.075L1143.76 263.662V308.838ZM1140.48 309.249L1142.94 310.481L1103.91 333.069L1064.88 310.481L1103.91 287.893L1140.48 309.249ZM1102.68 286.25L1063.65 308.838V263.662L1102.68 241.075V286.25ZM1102.68 334.712V379.887L1099.39 377.834L1063.24 356.889V312.124L1102.68 334.712ZM1098.57 379.887L1101.86 381.941L1062.83 404.529L1023.8 381.941L1062.83 359.353L1098.57 379.887ZM1022.15 379.887V334.712L1061.18 312.124V357.3L1022.15 379.887ZM1061.59 308.838L1054.61 304.731L1022.56 286.25V241.075L1061.59 263.662V308.838ZM1058.31 309.249L1060.77 310.481L1021.74 333.069L982.713 310.481L1021.74 287.893L1058.31 309.249ZM1020.1 286.25L981.069 308.838V263.662L1020.1 241.075V286.25ZM1020.1 334.712V379.887L1016.81 377.834L981.069 356.889V312.124L1020.1 334.712ZM1015.99 379.887L1019.28 381.941L980.248 404.529L940.807 381.941L979.837 359.353L1015.99 379.887ZM939.985 379.887V334.712L979.015 312.124V357.3L939.985 379.887ZM979.015 308.838L972.031 304.731L939.985 286.25V241.075L979.015 263.662V308.838ZM975.729 309.249L978.194 310.481L939.163 333.069L900.133 310.481L939.163 287.893L975.729 309.249ZM937.931 286.25L898.901 308.838V263.662L937.931 241.075V286.25ZM937.931 334.712V379.887L934.644 377.834L898.901 356.889V312.124L937.931 334.712ZM933.412 379.887L936.698 381.941L897.668 404.529L858.638 381.941L897.668 359.353L933.412 379.887ZM857.406 379.887V334.712L896.436 312.124V357.3L857.406 379.887ZM896.436 308.838L889.451 304.731L857.406 286.25V241.075L896.436 263.662V308.838ZM893.149 309.249L895.614 310.481L856.584 333.069L817.554 310.481L856.584 287.893L893.149 309.249ZM855.351 286.25L816.321 308.838V263.662L855.351 241.075V286.25ZM855.351 334.712V379.887L852.065 377.834L815.91 356.889V312.124L855.351 334.712ZM851.243 379.887L854.53 381.941L815.5 404.529L776.469 381.941L815.5 359.353L851.243 379.887ZM774.826 379.887V334.712L813.856 312.124V357.3L774.826 379.887ZM814.267 308.838L807.283 304.731L775.237 286.25V241.075L814.267 263.662V308.838ZM810.569 309.249L813.034 310.481L774.004 333.069L734.974 310.481L774.004 287.893L810.569 309.249ZM772.772 286.25L733.742 308.838V263.662L772.772 241.075V286.25ZM772.772 334.712V379.887L769.485 377.834L733.742 356.889V312.124L772.772 334.712ZM768.663 379.887L771.95 381.941L732.92 404.529L693.89 381.941L732.92 359.353L768.663 379.887ZM692.657 379.887V334.712L731.687 312.124V357.3L692.657 379.887ZM731.687 308.838L724.703 304.731L692.657 286.25V241.075L731.687 263.662V308.838ZM728.401 309.249L730.866 310.481L691.836 333.069L652.805 310.481L691.836 287.893L728.401 309.249ZM690.603 286.25L651.573 308.838V263.662L690.603 241.075V286.25ZM690.603 334.712V379.887L687.316 377.834L651.162 356.889V312.124L690.603 334.712ZM686.084 379.887L689.371 381.941L650.34 404.529L611.31 381.941L650.34 359.353L686.084 379.887ZM610.078 379.887V334.712L649.108 312.124V357.3L610.078 379.887ZM649.108 308.838L642.124 304.731L610.078 286.25V241.075L649.108 263.662V308.838ZM645.821 309.249L648.286 310.481L609.256 333.069L570.226 310.481L609.256 287.893L645.821 309.249ZM608.023 286.25L568.993 308.838V263.662L608.023 241.075V286.25ZM608.023 334.712V379.887L604.737 377.834L568.993 356.889V312.124L608.023 334.712ZM603.915 379.887L607.202 381.941L568.172 404.529L529.142 381.941L568.172 359.353L603.915 379.887ZM527.498 379.887V334.712L566.939 312.124V357.3L527.498 379.887ZM566.939 308.838L559.955 304.731L527.909 286.25V241.075L566.939 263.662V308.838ZM563.242 309.249L565.707 310.481L526.676 333.069L487.646 310.481L526.676 287.893L563.242 309.249ZM525.444 286.25L486.414 308.838V263.662L525.444 241.075V286.25ZM525.444 334.712V379.887L522.157 377.834L486.414 356.889V312.124L525.444 334.712ZM521.335 379.887L524.622 381.941L485.592 404.529L446.562 381.941L485.592 359.353L521.335 379.887ZM445.329 379.887V334.712L484.36 312.124V357.3L445.329 379.887ZM484.36 308.838L477.375 304.731L445.329 286.25V241.075L484.36 263.662V308.838ZM481.073 309.249L483.538 310.481L444.508 333.069L405.478 310.481L444.508 287.893L481.073 309.249ZM443.275 286.25L404.245 308.838V263.662L443.275 241.075V286.25ZM443.275 334.712V379.887L439.988 377.834L403.834 356.889V312.124L443.275 334.712ZM438.756 379.887L442.043 381.941L403.013 404.529L363.982 381.941L403.013 359.353L438.756 379.887ZM362.75 379.887V334.712L401.78 312.124V357.3L362.75 379.887ZM401.78 308.838L394.796 304.731L362.75 286.25V241.075L401.78 263.662V308.838ZM398.493 309.249L400.958 310.481L361.928 333.069L322.898 310.481L361.928 287.893L398.493 309.249ZM360.696 286.25L321.665 308.838V263.662L360.696 241.075V286.25ZM360.696 334.712V379.887L357.409 377.834L321.665 356.889V312.124L360.696 334.712ZM356.587 379.887L359.874 381.941L320.844 404.529L281.403 381.941L320.433 359.353L356.587 379.887ZM280.17 379.887V334.712L319.2 312.124V357.3L280.17 379.887ZM319.611 308.838L312.627 304.731L280.581 286.25V241.075L319.611 263.662V308.838ZM315.914 309.249L318.379 310.481L279.349 333.069L240.318 310.481L279.349 287.893L315.914 309.249ZM278.116 286.25L239.086 308.838V263.662L278.116 241.075V286.25ZM278.116 334.712V379.887L274.829 377.834L239.086 357.3V312.124L278.116 334.712ZM274.008 379.887L277.294 381.941L238.264 404.529L198.823 381.941L237.853 359.353L274.008 379.887ZM198.002 379.887V334.712L237.032 312.124V357.3L198.002 379.887ZM237.032 308.838L230.047 304.731L198.002 286.25V241.075L237.032 263.662V308.838ZM233.745 309.249L236.21 310.481L197.18 333.069L158.15 310.481L197.18 287.893L233.745 309.249ZM195.947 286.25L156.917 308.838V263.662L195.947 241.075V286.25ZM195.947 334.712V379.887L192.661 377.834L156.506 357.3V312.124L195.947 334.712ZM191.428 379.887L194.715 381.941L155.685 404.529L116.244 381.941L155.274 359.353L191.428 379.887ZM115.422 379.887V334.712L154.452 312.124V357.3L115.422 379.887ZM154.452 308.838L147.468 304.731L115.422 286.25V241.075L154.452 263.662V308.838ZM151.165 309.249L153.63 310.481L114.6 333.069L75.5702 310.481L114.6 287.893L151.165 309.249ZM113.368 286.25L74.3376 308.838V263.662L113.368 241.075V286.25ZM113.368 334.712V379.887L110.081 377.834L74.3376 357.3V312.124L113.368 334.712ZM109.259 379.887L112.546 381.941L73.516 404.529L34.075 381.941L73.1051 359.353L109.259 379.887ZM32.8424 379.887V334.712L71.8726 312.124V357.3L32.8424 379.887ZM72.2834 308.838L65.2991 304.731L32.8424 286.25V241.075L71.8726 263.662V308.838H72.2834ZM68.5858 309.249L71.0509 310.481L32.0208 333.069L-7.00939 310.481L32.0208 287.893L68.5858 309.249ZM30.7882 286.25L-8.24192 308.838V263.662L30.7882 241.075V286.25ZM30.7882 334.712V379.887L27.5015 377.834L-8.24192 357.3V312.124L30.7882 334.712ZM26.6798 379.887L29.9665 381.941L-9.06361 404.529L-48.5046 381.941L-9.47445 359.353L26.6798 379.887ZM29.9665 524.45L-9.06361 547.038L-41.1094 528.557L-48.0938 524.45L-9.06361 501.862L29.9665 524.45ZM29.9665 667.37L-9.06361 689.958L-48.0938 667.37L-9.06361 644.782L29.9665 667.37ZM30.7882 669.013V714.188L-8.24192 736.776V691.601L30.7882 669.013ZM27.5015 808.647L29.9665 809.879L-9.06361 832.467L-48.0938 809.879L-9.06361 787.291L27.5015 808.647ZM-8.24192 834.52L30.7882 811.932V857.108L-8.24192 879.696V834.52ZM23.8039 804.129L-8.24192 785.648V740.473L30.7882 763.06V808.236L23.8039 804.129ZM-7.42023 738.83L31.6099 716.242L70.6401 738.83L31.6099 761.418L-7.42023 738.83ZM72.2834 740.473V785.648L33.2533 808.236V763.06L72.2834 740.473ZM32.8424 811.932L71.8726 834.52V879.696L68.5858 877.643L32.4316 856.698V811.932H32.8424ZM34.075 810.29L73.1051 787.702L110.081 809.058L112.546 810.29L73.516 832.878L34.075 810.29ZM74.3376 834.52L113.368 811.932V857.108L74.3376 879.696V834.52ZM106.383 804.129L74.3376 785.648V740.473L113.368 763.06V808.236L106.383 804.129ZM75.1593 738.83L114.189 716.242L153.22 738.83L114.189 761.418L75.1593 738.83ZM154.452 740.473V785.648L115.422 808.236V763.06L154.452 740.473ZM115.422 811.932L154.452 834.52V879.696L151.165 877.643L115.422 856.698V811.932ZM116.244 810.29L155.274 787.702L192.25 809.058L194.715 810.29L155.685 832.878L116.244 810.29ZM156.506 834.52L195.536 811.932V857.108L156.506 879.696V834.52ZM188.552 804.129L156.506 785.648V740.473L195.536 763.06V808.236L188.552 804.129ZM157.739 738.83L196.769 716.242L235.799 738.83L196.769 761.418L157.739 738.83ZM237.032 740.473V785.648L198.002 808.236V763.06L237.032 740.473ZM198.002 811.932L237.032 834.52V879.696L233.745 877.643L197.591 856.698V811.932H198.002ZM198.823 810.29L237.853 787.702L274.829 809.058L277.294 810.29L238.264 832.878L198.823 810.29ZM239.086 834.52L278.116 811.932V857.108L239.086 879.696V834.52ZM271.132 804.129L239.086 785.648V740.473L278.116 763.06V808.236L271.132 804.129ZM239.908 738.83L278.938 716.242L317.968 738.83L278.938 761.418L239.908 738.83ZM319.611 740.473V785.648L280.581 808.236V763.06L319.611 740.473ZM280.17 811.932L319.2 834.52V879.696L315.914 877.643L280.17 856.698V811.932ZM281.403 810.29L320.433 787.702L357.409 809.058L359.874 810.29L320.844 832.878L281.403 810.29ZM321.665 834.52L360.696 811.932V857.108L321.665 879.696V834.52ZM353.711 804.129L321.665 785.648V740.473L360.696 763.06V808.236L353.711 804.129ZM322.487 738.83L361.517 716.242L400.547 738.83L361.517 761.418L322.487 738.83ZM401.78 740.473V785.648L362.75 808.236V763.06L401.78 740.473ZM362.75 811.932L401.78 834.52V879.696L398.493 877.643L362.75 856.698V811.932ZM363.572 810.29L402.602 787.702L439.578 809.058L442.043 810.29L403.013 832.878L363.572 810.29ZM403.834 834.52L442.864 811.932V857.108L403.834 879.696V834.52ZM436.291 804.129L404.245 785.648V740.473L443.275 763.06V808.236L436.291 804.129ZM405.067 738.83L444.097 716.242L483.127 738.83L444.097 761.418L405.067 738.83ZM484.36 740.473V785.648L445.329 808.236V763.06L484.36 740.473ZM445.329 811.932L484.36 834.52V879.696L481.073 877.643L444.919 856.698V811.932H445.329ZM446.151 810.29L485.181 787.702L522.157 809.058L524.622 810.29L485.592 832.878L446.151 810.29ZM486.414 834.52L525.444 811.932V857.108L486.414 879.696V834.52ZM518.46 804.129L486.414 785.648V740.473L525.444 763.06V808.236L518.46 804.129ZM487.235 738.83L526.266 716.242L565.296 738.83L526.266 761.418L487.235 738.83ZM566.939 740.473V785.648L527.909 808.236V763.06L566.939 740.473ZM527.498 811.932L566.528 834.52V879.696L563.242 877.643L527.498 856.698V811.932ZM528.731 810.29L567.761 787.702L604.737 809.058L607.202 810.29L568.172 832.878L528.731 810.29ZM568.993 834.52L608.023 811.932V857.108L568.993 879.696V834.52ZM601.039 804.129L568.993 785.648V740.473L608.023 763.06V808.236L601.039 804.129ZM569.815 738.83L608.845 716.242L647.875 738.83L608.845 761.418L569.815 738.83ZM649.108 740.473V785.648L610.078 808.236V763.06L649.108 740.473ZM610.078 811.932L649.108 834.52V879.696L645.821 877.643L609.667 856.698V811.932H610.078ZM610.899 810.29L649.93 787.702L686.905 809.058L689.371 810.29L650.34 832.878L610.899 810.29ZM651.162 834.52L690.192 811.932V857.108L651.162 879.696V834.52ZM683.619 804.129L651.573 785.648V740.473L690.603 763.06V808.236L683.619 804.129ZM652.395 738.83L691.425 716.242L730.455 738.83L691.425 761.418L652.395 738.83ZM731.687 740.473V785.648L692.657 808.236V763.06L731.687 740.473ZM692.657 811.932L731.687 834.52V879.696L728.401 877.643L692.657 856.698V811.932ZM693.479 810.29L732.509 787.702L769.485 809.058L771.95 810.29L732.92 832.878L693.479 810.29ZM733.742 834.52L772.772 811.932V857.108L733.742 879.696V834.52ZM765.787 804.129L733.742 785.648V740.473L772.772 763.06V808.236L765.787 804.129ZM734.974 738.83L774.004 716.242L813.034 738.83L774.004 761.418L734.974 738.83ZM814.267 740.473V785.648L775.237 808.236V763.06L814.267 740.473ZM774.826 811.932L813.856 834.52V879.696L810.569 877.643L774.826 856.698V811.932ZM776.059 810.29L815.089 787.702L852.065 809.058L854.53 810.29L815.5 832.878L776.059 810.29ZM816.321 834.52L855.351 811.932V857.108L816.321 879.696V834.52ZM848.367 804.129L816.321 785.648V740.473L855.351 763.06V808.236L848.367 804.129ZM817.143 738.83L856.173 716.242L895.203 738.83L856.173 761.418L817.143 738.83ZM896.436 740.473V785.648L857.406 808.236V763.06L896.436 740.473ZM857.406 811.932L896.436 834.52V879.696L893.149 877.643L856.995 856.698V811.932H857.406ZM858.638 810.29L897.668 787.702L934.644 809.058L937.109 810.29L898.079 832.878L858.638 810.29ZM898.49 834.52L937.52 811.932V857.108L898.49 879.696V834.52ZM930.947 804.129L898.901 785.648V740.473L937.931 763.06V808.236L930.947 804.129ZM899.722 738.83L938.753 716.242L977.783 738.83L938.753 761.418L899.722 738.83ZM979.015 740.473V785.648L939.985 808.236V763.06L979.015 740.473ZM939.985 811.932L979.015 834.52V879.696L975.729 877.643L939.985 856.698V811.932ZM940.807 810.29L979.837 787.702L1016.81 809.058L1019.28 810.29L980.248 832.878L940.807 810.29ZM981.069 834.52L1020.1 811.932V857.108L981.069 879.696V834.52ZM1013.12 804.129L981.069 785.648V740.473L1020.1 763.06V808.236L1013.12 804.129ZM982.302 738.83L1021.33 716.242L1060.36 738.83L1021.33 761.418L982.302 738.83ZM1061.59 740.473V785.648L1022.56 808.236V763.06L1061.59 740.473ZM1022.15 811.932L1061.18 834.52V879.696L1057.9 877.643L1021.74 856.698V811.932H1022.15ZM1023.39 810.29L1062.42 787.702L1099.39 809.058L1101.86 810.29L1062.83 832.878L1023.39 810.29ZM1063.65 834.52L1102.68 811.932V857.108L1063.65 879.696V834.52ZM1095.69 804.129L1063.65 785.648V740.473L1102.68 763.06V808.236L1095.69 804.129ZM1064.47 738.83L1103.5 716.242L1142.53 738.83L1103.5 761.418L1064.47 738.83ZM1143.76 740.473V785.648L1104.73 808.236V763.06L1143.76 740.473ZM1104.73 811.932L1143.76 834.52V879.696L1140.48 877.643L1104.73 856.698V811.932ZM1105.97 810.29L1145 787.702L1181.97 809.058L1184.44 810.29L1145.41 832.878L1105.97 810.29ZM1145.82 834.52L1184.85 811.932V857.108L1145.82 879.696V834.52ZM1178.27 804.129L1146.23 785.648V740.473L1185.26 763.06V808.236L1178.27 804.129ZM1147.05 738.83L1186.08 716.242L1225.11 738.83L1186.08 761.418L1147.05 738.83ZM1226.34 740.473V785.648L1187.31 808.236V763.06L1226.34 740.473ZM1187.31 811.932L1226.34 834.52V879.696L1223.06 877.643L1187.31 856.698V811.932ZM1188.13 810.29L1227.16 787.702L1264.14 809.058L1266.61 810.29L1227.58 832.878L1188.13 810.29ZM1228.4 834.52L1267.43 811.932V857.108L1228.4 879.696V834.52ZM1260.44 804.129L1228.4 785.648V740.473L1267.43 763.06V808.236L1260.44 804.129ZM1229.63 738.83L1268.66 716.242L1307.69 738.83L1268.66 761.418L1229.63 738.83ZM1308.92 740.473V785.648L1269.89 808.236V763.06L1308.92 740.473ZM1269.48 811.932L1308.51 834.52V879.696L1305.23 877.643L1269.07 856.698V811.932H1269.48ZM1270.71 810.29L1309.74 787.702L1346.72 809.058L1349.19 810.29L1310.16 832.878L1270.71 810.29ZM1310.98 834.52L1350.01 811.932V857.108L1310.98 879.696V834.52ZM1343.02 804.129L1310.98 785.648V740.473L1350.01 763.06V808.236L1343.02 804.129ZM1311.8 738.83L1350.83 716.242L1389.86 738.83L1350.83 761.418L1311.8 738.83ZM1391.09 740.473V785.648L1352.06 808.236V763.06L1391.09 740.473ZM1352.06 811.932L1391.09 834.52V879.696L1387.8 877.643L1352.06 856.698V811.932ZM1353.29 810.29L1392.32 787.702L1429.3 809.058L1431.76 810.29L1392.73 832.878L1353.29 810.29ZM1393.15 834.52L1432.18 811.932V857.108L1393.15 879.696V834.52ZM1425.6 804.129L1393.56 785.648V740.473L1432.59 763.06V808.236L1425.6 804.129ZM1394.38 738.83L1433.41 716.242L1472.44 738.83L1433.41 761.418L1394.38 738.83ZM1473.67 740.473V785.648L1434.64 808.236V763.06L1473.67 740.473ZM1434.64 811.932L1473.67 834.52V879.696L1470.38 877.643L1434.23 856.698V811.932H1434.64ZM1435.46 810.29L1474.49 787.702L1511.47 809.058L1513.93 810.29L1474.9 832.878L1435.46 810.29ZM1475.73 834.52L1514.76 811.932V857.108L1475.73 879.696V834.52ZM1507.77 804.129L1475.73 785.648V740.473L1514.76 763.06V808.236L1507.77 804.129ZM1476.96 738.83L1515.99 716.242L1555.02 738.83L1515.99 761.418L1476.96 738.83ZM1556.25 740.473V785.648L1517.22 808.236V763.06L1556.25 740.473ZM1516.81 811.932L1555.84 834.52V879.696L1552.55 877.643L1516.81 856.698V811.932ZM1518.04 810.29L1557.07 787.702L1594.05 809.058L1596.51 810.29L1557.48 832.878L1518.04 810.29ZM1558.3 834.52L1597.33 811.932V857.108L1558.3 879.696V834.52ZM1590.35 804.129L1558.3 785.648V740.473L1597.33 763.06V808.236L1590.35 804.129ZM1559.13 738.83L1598.16 716.242L1637.19 738.83L1598.16 761.418L1559.13 738.83ZM1638.83 740.473V785.648L1599.8 808.236V763.06L1638.83 740.473ZM1599.39 811.932L1638.42 834.52V879.696L1635.13 877.643L1598.98 856.698V811.932H1599.39ZM1600.62 810.29L1639.65 787.702L1676.63 809.058L1679.09 810.29L1640.06 832.878L1600.62 810.29ZM1640.88 834.52L1679.91 811.932V857.108L1640.88 879.696V834.52ZM1672.93 804.129L1640.88 785.648V740.473L1679.91 763.06V808.236L1672.93 804.129ZM1641.71 738.83L1680.74 716.242L1719.77 738.83L1680.74 761.418L1641.71 738.83ZM1721 740.473V785.648L1681.97 808.236V763.06L1721 740.473ZM1681.97 811.932L1721 834.52V879.696L1717.71 877.643L1681.97 856.698V811.932ZM1682.79 810.29L1721.82 787.702L1758.8 809.058L1761.26 810.29L1722.23 832.878L1682.79 810.29ZM1723.05 834.52L1762.08 811.932V857.108L1723.05 879.696V834.52ZM1755.1 804.129L1723.05 785.648V740.473L1762.08 763.06V808.236L1755.1 804.129ZM1724.29 738.83L1763.32 716.242L1802.35 738.83L1763.32 761.418L1724.29 738.83ZM1803.58 740.473V785.648L1764.55 808.236V763.06L1803.58 740.473ZM1764.55 811.932L1803.58 834.52V879.696L1800.29 877.643L1764.55 856.698V811.932ZM1765.37 810.29L1804.4 787.702L1841.38 809.058L1843.84 810.29L1804.81 832.878L1765.37 810.29ZM1805.63 834.52L1844.66 811.932V857.108L1805.63 879.696V834.52ZM1837.68 804.129L1805.63 785.648V740.473L1844.66 763.06V808.236L1837.68 804.129ZM1806.45 738.83L1845.48 716.242L1884.51 738.83L1845.48 761.418L1806.45 738.83ZM1886.16 740.473V785.648L1847.13 808.236V763.06L1886.16 740.473ZM1846.72 811.932L1885.75 834.52V879.696L1882.46 877.643L1846.31 856.698V811.932H1846.72ZM1847.95 810.29L1886.98 787.702L1923.96 809.058L1926.42 810.29L1887.39 832.878L1847.95 810.29ZM1888.21 834.52L1927.24 811.932V857.108L1888.21 879.696V834.52ZM1920.26 804.129L1888.21 785.648V740.473L1927.24 763.06V808.236L1920.26 804.129ZM1889.03 738.83L1928.06 716.242L1967.09 738.83L1928.06 761.418L1889.03 738.83ZM1896.02 600.017L1889.03 595.91L1928.06 573.322L1967.09 595.91L1928.06 618.498L1896.02 600.017ZM1889.03 453.401L1928.06 430.813L1967.09 453.401L1928.06 475.989L1889.03 453.401ZM1889.03 310.481L1928.06 287.893L1967.09 310.481L1928.06 333.069L1889.03 310.481ZM1888.21 308.838V263.662L1927.24 241.075V286.25L1888.21 308.838ZM1889.03 167.561L1928.06 144.973L1967.09 167.561L1928.06 190.149L1889.03 167.561ZM1927.24 143.331L1888.21 165.918V120.743L1927.24 98.1547V143.331ZM1927.24 192.203V237.378L1924.78 236.146L1887.8 214.79V169.615L1927.24 192.203ZM1923.96 237.789L1926.42 239.021L1887.39 261.609L1848.36 239.021L1887.39 216.433L1923.96 237.789ZM1846.72 237.378V192.203L1885.75 169.615V214.79L1846.72 237.378ZM1886.16 165.918L1847.13 143.331V98.1547L1854.11 102.262L1886.16 120.743V165.918ZM1884.93 167.561L1845.9 190.149L1806.87 167.561L1845.9 144.973L1884.93 167.561ZM1844.66 143.331L1805.63 165.918V120.743L1844.66 98.1547V143.331ZM1844.66 192.203V237.378L1842.2 236.146L1805.22 214.79V169.615L1844.66 192.203ZM1841.38 237.789L1843.84 239.021L1804.81 261.609L1765.78 239.021L1804.81 216.433L1841.38 237.789ZM1764.55 237.378V192.203L1803.58 169.615V214.79L1764.55 237.378ZM1803.58 165.918L1764.55 143.331V98.1547L1771.53 102.262L1803.58 120.743V165.918ZM1802.35 167.561L1763.32 190.149L1724.29 167.561L1763.32 144.973L1802.35 167.561ZM1762.49 143.331L1723.46 165.918V120.743L1762.49 98.1547V143.331ZM1762.49 192.203V237.378L1760.03 236.146L1723.05 214.79V169.615L1762.49 192.203ZM1758.8 237.789L1761.26 239.021L1722.23 261.609L1683.2 239.021L1722.23 216.433L1758.8 237.789ZM1681.97 237.378V192.203L1721 169.615V214.79L1681.97 237.378ZM1721 165.918L1681.97 143.331V98.1547L1688.95 102.262L1721 120.743V165.918ZM1720.18 167.561L1681.15 190.149L1642.12 167.561L1681.15 144.973L1720.18 167.561ZM1679.91 143.331L1640.88 165.918V120.743L1679.91 98.1547V143.331ZM1679.91 192.203V237.378L1677.45 236.146L1640.47 214.79V169.615L1679.91 192.203ZM1676.63 237.789L1679.09 239.021L1640.06 261.609L1601.03 239.021L1640.06 216.433L1676.63 237.789ZM1599.39 237.378V192.203L1638.42 169.615V214.79L1599.39 237.378ZM1638.83 165.918L1599.8 143.331V98.1547L1606.78 102.262L1638.83 120.743V165.918ZM1637.6 167.561L1598.57 190.149L1559.54 167.561L1598.57 144.973L1637.6 167.561ZM1597.33 143.331L1558.3 165.918V120.743L1597.33 98.1547V143.331ZM1597.33 192.203V237.378L1594.87 236.146L1557.89 214.79V169.615L1597.33 192.203ZM1594.05 237.789L1596.51 239.021L1557.48 261.609L1518.45 239.021L1557.48 216.433L1594.05 237.789ZM1516.81 237.378V192.203L1555.84 169.615V214.79L1516.81 237.378ZM1556.25 165.918L1517.22 143.331V98.1547L1524.2 102.262L1556.25 120.743V165.918ZM1555.02 167.561L1515.99 190.149L1476.96 167.561L1515.99 144.973L1555.02 167.561ZM1514.76 143.331L1475.73 165.918V120.743L1514.76 98.1547V143.331ZM1514.76 192.203V237.378L1512.29 236.146L1475.31 214.79V169.615L1514.76 192.203ZM1511.47 237.789L1513.93 239.021L1474.9 261.609L1435.87 239.021L1474.9 216.433L1511.47 237.789ZM1434.64 237.378V192.203L1473.67 169.615V214.79L1434.64 237.378ZM1473.67 165.918L1434.64 143.331V98.1547L1441.63 102.262L1473.67 120.743V165.918ZM1472.85 167.561L1433.82 190.149L1394.79 167.561L1433.82 144.973L1472.85 167.561ZM1432.59 143.331L1393.56 165.918V120.743L1432.59 98.1547V143.331ZM1432.59 192.203V237.378L1430.12 236.146L1393.15 214.79V169.615L1432.59 192.203ZM1429.3 237.789L1431.76 239.021L1392.73 261.609L1353.7 239.021L1392.73 216.433L1429.3 237.789ZM1352.06 237.378V192.203L1391.09 169.615V214.79L1352.06 237.378ZM1391.09 165.918L1352.06 143.331V98.1547L1359.05 102.262L1391.09 120.743V165.918ZM1390.27 167.561L1351.24 190.149L1312.21 167.561L1351.24 144.973L1390.27 167.561ZM1350.01 143.331L1310.98 165.918V120.743L1350.01 98.1547V143.331ZM1350.01 192.203V237.378L1347.54 236.146L1310.57 214.79V169.615L1350.01 192.203ZM1346.72 237.789L1349.19 239.021L1310.16 261.609L1271.12 239.021L1310.16 216.433L1346.72 237.789ZM1269.48 237.378V192.203L1308.51 169.615V214.79L1269.48 237.378ZM1308.92 165.918L1269.89 143.331V98.1547L1276.88 102.262L1308.92 120.743V165.918ZM1307.69 167.561L1268.66 190.149L1229.63 167.561L1268.66 144.973L1307.69 167.561ZM1267.43 143.331L1228.4 165.918V120.743L1267.43 98.1547V143.331ZM1267.43 192.203V237.378L1264.96 236.146L1227.99 214.79V169.615L1267.43 192.203ZM1264.14 237.789L1266.61 239.021L1227.58 261.609L1188.55 239.021L1227.58 216.433L1264.14 237.789ZM1187.31 237.378V192.203L1226.34 169.615V214.79L1187.31 237.378ZM1226.34 165.918L1187.31 143.331V98.1547L1194.3 102.262L1226.34 120.743V165.918ZM1225.52 167.561L1186.49 190.149L1147.46 167.561L1186.49 144.973L1225.52 167.561ZM1185.26 143.331L1146.23 165.918V120.743L1185.26 98.1547V143.331ZM1185.26 192.203V237.378L1182.79 236.146L1145.82 214.79V169.615L1185.26 192.203ZM1181.97 237.789L1184.44 239.021L1145.41 261.609L1106.38 239.021L1145.41 216.433L1181.97 237.789ZM1104.73 237.378V192.203L1143.76 169.615V214.79L1104.73 237.378ZM1143.76 165.918L1104.73 143.331V98.1547L1111.72 102.262L1143.76 120.743V165.918ZM1142.94 167.561L1103.91 190.149L1064.88 167.561L1103.91 144.973L1142.94 167.561ZM1102.68 143.331L1063.65 165.918V120.743L1102.68 98.1547V143.331ZM1102.68 192.203V237.378L1100.21 236.146L1063.24 214.79V169.615L1102.68 192.203ZM1099.39 237.789L1101.86 239.021L1062.83 261.609L1023.8 239.021L1062.83 216.433L1099.39 237.789ZM1022.15 237.378V192.203L1061.18 169.615V214.79L1022.15 237.378ZM1061.59 165.918L1022.56 143.331V98.1547L1029.55 102.262L1061.59 120.743V165.918ZM1060.36 167.561L1021.33 190.149L982.302 167.561L1021.33 144.973L1060.36 167.561ZM1020.1 143.331L981.069 165.918V120.743L1020.1 98.1547V143.331ZM1020.1 192.203V237.378L1017.63 236.146L980.659 214.79V169.615L1020.1 192.203ZM1016.81 237.789L1019.28 239.021L980.248 261.609L941.218 239.021L980.248 216.433L1016.81 237.789ZM939.985 237.378V192.203L979.015 169.615V214.79L939.985 237.378ZM979.015 165.918L939.985 143.331V98.1547L946.969 102.262L979.015 120.743V165.918ZM978.194 167.561L939.163 190.149L900.133 167.561L939.163 144.973L978.194 167.561ZM937.931 143.331L898.901 165.918V120.743L937.931 98.1547V143.331ZM937.931 192.203V237.378L935.466 236.146L898.49 214.79V169.615L937.931 192.203ZM934.644 237.789L937.109 239.021L898.079 261.609L859.049 239.021L898.079 216.433L934.644 237.789ZM857.406 237.378V192.203L896.436 169.615V214.79L857.406 237.378ZM896.436 165.918L857.406 143.331V98.1547L864.39 102.262L896.436 120.743V165.918ZM895.614 167.561L856.584 190.149L817.554 167.561L856.584 144.973L895.614 167.561ZM855.351 143.331L816.321 165.918V120.743L855.351 98.1547V143.331ZM855.351 192.203V237.378L852.886 236.146L815.91 214.79V169.615L855.351 192.203ZM852.065 237.789L854.53 239.021L815.5 261.609L776.469 239.021L815.5 216.433L852.065 237.789ZM774.826 237.378V192.203L813.856 169.615V214.79L774.826 237.378ZM814.267 165.918L775.237 143.331V98.1547L782.221 102.262L814.267 120.743V165.918ZM813.034 167.561L774.004 190.149L734.974 167.561L774.004 144.973L813.034 167.561ZM772.772 143.331L733.742 165.918V120.743L772.772 98.1547V143.331ZM772.772 192.203V237.378L770.307 236.146L733.331 214.79V169.615L772.772 192.203ZM769.485 237.789L771.95 239.021L732.92 261.609L693.89 239.021L732.92 216.433L769.485 237.789ZM692.657 237.378V192.203L731.687 169.615V214.79L692.657 237.378ZM731.687 165.918L692.657 143.331V98.1547L699.642 102.262L731.687 120.743V165.918ZM730.866 167.561L691.836 190.149L652.805 167.561L691.836 144.973L730.866 167.561ZM690.603 143.331L651.573 165.918V120.743L690.603 98.1547V143.331ZM690.603 192.203V237.378L688.138 236.146L651.162 214.79V169.615L690.603 192.203ZM686.905 237.789L689.371 239.021L650.34 261.609L611.31 239.021L650.34 216.433L686.905 237.789ZM610.078 237.378V192.203L649.108 169.615V214.79L610.078 237.378ZM649.108 165.918L610.078 143.331V98.1547L617.062 102.262L649.108 120.743V165.918ZM648.286 167.561L609.256 190.149L570.226 167.561L609.256 144.973L648.286 167.561ZM608.023 143.331L568.993 165.918V120.743L608.023 98.1547V143.331ZM608.023 192.203V237.378L605.558 236.146L568.582 214.79V169.615L608.023 192.203ZM604.737 237.789L607.202 239.021L568.172 261.609L529.142 239.021L568.172 216.433L604.737 237.789ZM527.498 237.378V192.203L566.528 169.615V214.79L527.498 237.378ZM566.939 165.918L527.909 143.331V98.1547L534.893 102.262L566.939 120.743V165.918ZM565.707 167.561L526.676 190.149L487.646 167.561L526.676 144.973L565.707 167.561ZM525.444 143.331L486.414 165.918V120.743L525.444 98.1547V143.331ZM525.444 192.203V237.378L522.979 236.146L486.003 214.79V169.615L525.444 192.203ZM522.157 237.789L524.622 239.021L485.592 261.609L446.562 239.021L485.592 216.433L522.157 237.789ZM445.329 237.378V192.203L484.36 169.615V214.79L445.329 237.378ZM484.36 165.918L445.329 143.331V98.1547L452.314 102.262L484.36 120.743V165.918ZM483.127 167.561L444.097 190.149L405.067 167.561L444.097 144.973L483.127 167.561ZM443.275 143.331L404.245 165.918V120.743L443.275 98.1547V143.331ZM443.275 192.203V237.378L440.81 236.146L403.834 214.79V169.615L443.275 192.203ZM439.578 237.789L442.043 239.021L403.013 261.609L363.982 239.021L403.013 216.433L439.578 237.789ZM362.75 237.378V192.203L401.78 169.615V214.79L362.75 237.378ZM401.78 165.918L362.75 143.331V98.1547L369.734 102.262L401.78 120.743V165.918ZM400.958 167.561L361.928 190.149L322.898 167.561L361.928 144.973L400.958 167.561ZM360.696 143.331L321.665 165.918V120.743L360.696 98.1547V143.331ZM360.696 192.203V237.378L358.231 236.146L321.255 214.79V169.615L360.696 192.203ZM357.409 237.789L359.874 239.021L320.844 261.609L281.814 239.021L320.844 216.433L357.409 237.789ZM280.17 237.378V192.203L319.2 169.615V214.79L280.17 237.378ZM319.611 165.918L280.581 143.331V98.1547L287.565 102.262L319.611 120.743V165.918ZM318.379 167.561L279.349 190.149L240.318 167.561L279.349 144.973L318.379 167.561ZM278.116 143.331L239.086 165.918V120.743L278.116 98.1547V143.331ZM278.116 192.203V237.378L275.651 236.146L238.675 214.79V169.615L278.116 192.203ZM274.829 237.789L277.294 239.021L238.264 261.609L199.234 239.021L238.264 216.433L274.829 237.789ZM198.002 237.378V192.203L237.032 169.615V214.79L198.002 237.378ZM237.032 165.918L198.002 143.331V98.1547L204.986 102.262L237.032 120.743V165.918ZM235.799 167.561L196.769 190.149L157.739 167.561L196.769 144.973L235.799 167.561ZM195.947 143.331L156.917 165.918V120.743L195.947 98.1547V143.331ZM195.947 192.203V237.378L193.482 236.146L156.506 214.79V169.615L195.947 192.203ZM192.25 237.789L194.715 239.021L155.685 261.609L116.655 239.021L155.685 216.433L192.25 237.789ZM115.422 237.378V192.203L154.452 169.615V214.79L115.422 237.378ZM154.452 165.918L115.422 143.331V98.1547L122.406 102.262L154.452 120.743V165.918ZM153.63 167.561L114.6 190.149L75.5702 167.561L114.6 144.973L153.63 167.561ZM113.368 143.331L74.3376 165.918V120.743L113.368 98.1547V143.331ZM113.368 192.203V237.378L110.903 236.146L73.9268 214.79V169.615L113.368 192.203ZM110.081 237.789L112.546 239.021L73.516 261.609L34.4858 239.021L73.516 216.433L110.081 237.789ZM32.8424 237.378V192.203L71.8726 169.615V214.79L32.8424 237.378ZM72.2834 165.918L32.8424 143.331V98.1547L39.8268 102.262L71.8726 120.743V165.918H72.2834ZM71.0509 167.561L32.0208 190.149L-7.00939 167.561L32.0208 144.973L71.0509 167.561ZM30.7882 143.331L-8.24192 165.918V120.743L30.7882 98.1547V143.331ZM30.7882 192.203V237.378L28.734 236.146L-8.24192 214.79V169.615L30.7882 192.203ZM27.5015 237.789L29.9665 239.021L-9.06361 261.609L-48.0938 239.021L-9.06361 216.433L27.5015 237.789ZM-10.2961 214.79L-49.3263 237.378V192.203L-10.2961 169.615V214.79ZM-10.2961 263.662V308.838L-17.2805 304.731L-49.3263 286.25V241.075L-10.2961 263.662ZM-10.2961 357.3L-49.3263 379.887V334.712L-10.2961 312.124V357.3ZM-10.2961 406.172V451.347L-49.3263 428.759V383.584L-10.2961 406.172ZM-10.2961 500.219L-49.3263 522.807V477.632L-10.2961 455.044V500.219ZM-10.2961 549.091V594.267L-49.3263 571.679V526.503L-10.2961 549.091ZM-10.2961 643.139L-49.3263 665.727V620.551L-10.2961 597.963V643.139ZM-10.2961 691.601V736.776L-49.3263 714.188V669.013L-10.2961 691.601ZM-10.2961 785.648L-49.3263 808.236V763.06L-10.2961 740.473V785.648ZM-10.2961 834.52V879.696L-13.5829 877.643L-49.3263 856.698V811.522L-10.2961 834.52ZM-9.47445 1073.13L29.5557 1095.72L-9.47445 1118.31L-48.5046 1095.72L-9.47445 1073.13ZM-49.3263 1093.67V1048.49L-10.2961 1025.9V1071.08L-49.3263 1093.67ZM-49.3263 1000.03V954.852L-10.2961 977.44V1022.62L-49.3263 1000.03ZM-48.5046 952.799L-9.47445 930.211L26.6798 951.156L29.9665 953.21L-9.06361 975.797L-48.5046 952.799ZM-49.3263 951.156V905.98L-10.2961 883.392V928.568L-49.3263 951.156ZM-8.24192 977.44L30.7882 954.852V1000.03L-8.24192 1022.62V977.44ZM27.5015 949.103L-8.65277 928.158V882.982L30.3774 905.57V950.745L27.5015 949.103ZM-7.42023 881.339L31.6099 858.751L67.7641 879.696L71.0509 881.75L32.0208 904.338L-7.42023 881.339ZM72.2834 883.392V928.568L33.2533 951.156V905.98L72.2834 883.392ZM32.8424 954.852L71.8726 977.44V1022.62L32.8424 1000.03V954.852ZM73.1051 1073.13L112.135 1095.72L73.1051 1118.31L34.075 1095.72L73.1051 1073.13ZM32.8424 1093.67V1048.49L71.8726 1025.9V1071.08L32.8424 1093.67ZM34.075 952.799L73.1051 930.211L108.849 951.156L112.135 953.21L73.1051 975.797L34.075 952.799ZM74.3376 977.44L113.368 954.852V1000.03L74.3376 1022.62V977.44ZM110.081 949.103L74.3376 928.158V882.982L113.368 905.57V950.745L110.081 949.103ZM75.1593 881.339L114.189 858.751L149.933 879.696L153.22 881.75L114.189 904.338L75.1593 881.339ZM154.452 883.392V928.568L115.422 951.156V905.98L154.452 883.392ZM115.422 954.852L154.452 977.44V1022.62L115.422 1000.03V954.852ZM155.685 1073.13L194.715 1095.72L155.685 1118.31L116.655 1095.72L155.685 1073.13ZM115.422 1093.67V1048.49L154.452 1025.9V1071.08L115.422 1093.67ZM116.244 952.799L155.274 930.211L191.017 951.156L194.304 953.21L155.274 975.797L116.244 952.799ZM156.506 977.44L195.536 954.852V1000.03L156.506 1022.62V977.44ZM192.661 949.103L156.917 928.158V882.982L195.947 905.57V950.745L192.661 949.103ZM157.739 881.339L196.769 858.751L232.923 879.696L236.21 881.75L197.18 904.338L157.739 881.339ZM237.032 883.392V928.568L198.002 951.156V905.98L237.032 883.392ZM198.002 954.852L237.032 977.44V1022.62L198.002 1000.03V954.852ZM237.853 1073.13L276.884 1095.72L237.853 1118.31L198.823 1095.72L237.853 1073.13ZM198.002 1093.67V1048.49L237.032 1025.9V1071.08L198.002 1093.67ZM198.823 952.799L237.853 930.211L274.008 951.156L277.294 953.21L238.264 975.797L198.823 952.799ZM239.086 977.44L278.116 954.852V1000.03L239.086 1022.62V977.44ZM274.829 949.103L238.675 928.158V882.982L277.705 905.57V950.745L274.829 949.103ZM239.908 881.339L278.938 858.751L314.681 879.696L317.968 881.75L278.938 904.338L239.908 881.339ZM319.611 883.392V928.568L280.581 951.156V905.98L319.611 883.392ZM280.17 954.852L319.2 977.44V1022.62L280.17 1000.03V954.852ZM320.433 1073.13L359.463 1095.72L320.433 1118.31L281.403 1095.72L320.433 1073.13ZM280.17 1093.67V1048.49L319.2 1025.9V1071.08L280.17 1093.67ZM281.403 952.799L320.433 930.211L356.176 951.156L359.463 953.21L320.433 975.797L281.403 952.799ZM321.665 977.44L360.696 954.852V1000.03L321.665 1022.62V977.44ZM357.409 949.103L321.665 928.158V882.982L360.696 905.57V950.745L357.409 949.103ZM322.487 881.339L361.517 858.751L397.261 879.696L400.547 881.75L361.517 904.338L322.487 881.339ZM401.78 883.392V928.568L362.75 951.156V905.98L401.78 883.392ZM362.75 954.852L401.78 977.44V1022.62L362.75 1000.03V954.852ZM403.013 1073.13L442.043 1095.72L403.013 1118.31L363.982 1095.72L403.013 1073.13ZM362.75 1093.67V1048.49L401.78 1025.9V1071.08L362.75 1093.67ZM363.572 952.799L402.602 930.211L438.756 951.156L442.043 953.21L403.013 975.797L363.572 952.799ZM403.834 977.44L442.864 954.852V1000.03L403.834 1022.62V977.44ZM439.988 949.103L403.834 928.158V882.982L442.864 905.57V950.745L439.988 949.103ZM405.067 881.339L444.097 858.751L480.251 879.696L483.538 881.75L444.508 904.338L405.067 881.339ZM484.36 883.392V928.568L445.329 951.156V905.98L484.36 883.392ZM445.329 954.852L484.36 977.44V1022.62L445.329 1000.03V954.852ZM485.181 1073.13L524.211 1095.72L485.181 1118.31L446.151 1095.72L485.181 1073.13ZM445.329 1093.67V1048.49L484.36 1025.9V1071.08L445.329 1093.67ZM446.151 952.799L485.181 930.211L520.925 951.156L524.211 953.21L485.181 975.797L446.151 952.799ZM486.414 977.44L525.444 954.852V1000.03L486.414 1022.62V977.44ZM522.157 949.103L486.414 928.158V882.982L525.444 905.57V950.745L522.157 949.103ZM487.235 881.339L526.266 858.751L562.009 879.696L565.296 881.75L526.266 904.338L487.235 881.339ZM566.939 883.392V928.568L527.909 951.156V905.98L566.939 883.392ZM527.498 954.852L566.528 977.44V1022.62L527.498 1000.03V954.852ZM567.761 1073.13L606.791 1095.72L567.761 1118.31L528.731 1095.72L567.761 1073.13ZM527.498 1093.67V1048.49L566.528 1025.9V1071.08L527.498 1093.67ZM528.731 952.799L567.761 930.211L603.504 951.156L606.791 953.21L567.761 975.797L528.731 952.799ZM568.993 977.44L608.023 954.852V1000.03L568.993 1022.62V977.44ZM604.737 949.103L568.993 928.158V882.982L608.023 905.57V950.745L604.737 949.103ZM569.815 881.339L608.845 858.751L644.999 879.696L648.286 881.75L609.256 904.338L569.815 881.339ZM649.108 883.392V928.568L610.078 951.156V905.98L649.108 883.392ZM610.078 954.852L649.108 977.44V1022.62L610.078 1000.03V954.852ZM650.34 1073.13L689.371 1095.72L650.34 1118.31L611.31 1095.72L650.34 1073.13ZM610.078 1093.67V1048.49L649.108 1025.9V1071.08L610.078 1093.67ZM610.899 952.799L649.93 930.211L686.084 951.156L689.371 953.21L650.34 975.797L610.899 952.799ZM651.162 977.44L690.192 954.852V1000.03L651.162 1022.62V977.44ZM687.316 949.103L651.162 928.158V882.982L690.192 905.57V950.745L687.316 949.103ZM652.395 881.339L691.425 858.751L727.168 879.696L730.455 881.75L691.425 904.338L652.395 881.339ZM731.687 883.392V928.568L692.657 951.156V905.98L731.687 883.392ZM692.657 954.852L731.687 977.44V1022.62L692.657 1000.03V954.852ZM732.509 1073.13L771.539 1095.72L732.509 1118.31L693.479 1095.72L732.509 1073.13ZM692.657 1093.67V1048.49L731.687 1025.9V1071.08L692.657 1093.67ZM693.479 952.799L732.509 930.211L768.253 951.156L771.539 953.21L732.509 975.797L693.479 952.799ZM733.742 977.44L772.772 954.852V1000.03L733.742 1022.62V977.44ZM769.485 949.103L733.742 928.158V882.982L772.772 905.57V950.745L769.485 949.103ZM734.974 881.339L774.004 858.751L809.748 879.696L813.034 881.75L774.004 904.338L734.974 881.339ZM814.267 883.392V928.568L775.237 951.156V905.98L814.267 883.392ZM774.826 954.852L813.856 977.44V1022.62L774.826 1000.03V954.852ZM815.089 1073.13L854.119 1095.72L815.089 1118.31L776.059 1095.72L815.089 1073.13ZM774.826 1093.67V1048.49L813.856 1025.9V1071.08L774.826 1093.67ZM776.059 952.799L815.089 930.211L851.243 951.156L854.53 953.21L815.5 975.797L776.059 952.799ZM816.321 977.44L855.351 954.852V1000.03L816.321 1022.62V977.44ZM852.065 949.103L815.91 928.158V882.982L854.941 905.57V950.745L852.065 949.103ZM817.143 881.339L856.173 858.751L892.327 879.696L895.614 881.75L856.584 904.338L817.143 881.339ZM896.436 883.392V928.568L857.406 951.156V905.98L896.436 883.392ZM857.406 954.852L896.436 977.44V1022.62L857.406 1000.03V954.852ZM897.668 1073.13L936.698 1095.72L897.668 1118.31L858.638 1095.72L897.668 1073.13ZM857.406 1093.67V1048.49L896.436 1025.9V1071.08L857.406 1093.67ZM858.638 952.799L897.668 930.211L933.412 951.156L936.698 953.21L897.668 975.797L858.638 952.799ZM898.49 977.44L937.52 954.852V1000.03L898.49 1022.62V977.44ZM934.644 949.103L898.901 928.158V882.982L937.931 905.57V950.745L934.644 949.103ZM899.722 881.339L938.753 858.751L974.496 879.696L977.783 881.75L938.753 904.338L899.722 881.339ZM979.015 883.392V928.568L939.985 951.156V905.98L979.015 883.392ZM939.985 954.852L979.015 977.44V1022.62L939.985 1000.03V954.852ZM980.248 1073.13L1019.28 1095.72L980.248 1118.31L941.218 1095.72L980.248 1073.13ZM939.985 1093.67V1048.49L979.015 1025.9V1071.08L939.985 1093.67ZM940.807 952.799L979.837 930.211L1015.58 951.156L1018.87 953.21L979.837 975.797L940.807 952.799ZM981.069 977.44L1020.1 954.852V1000.03L981.069 1022.62V977.44ZM1017.22 949.103L981.48 928.158V882.982L1020.51 905.57V950.745L1017.22 949.103ZM982.302 881.339L1021.33 858.751L1057.49 879.696L1060.77 881.75L1021.74 904.338L982.302 881.339ZM1061.59 883.392V928.568L1022.56 951.156V905.98L1061.59 883.392ZM1022.15 954.852L1061.18 977.44V1022.62L1022.15 1000.03V954.852ZM1062.42 1073.13L1101.45 1095.72L1062.42 1118.31L1023.39 1095.72L1062.42 1073.13ZM1022.15 1093.67V1048.49L1061.18 1025.9V1071.08L1022.15 1093.67ZM1023.39 952.799L1062.42 930.211L1098.57 951.156L1101.86 953.21L1062.83 975.797L1023.39 952.799ZM1063.65 977.44L1102.68 954.852V1000.03L1063.65 1022.62V977.44ZM1099.39 949.103L1063.24 928.158V882.982L1102.27 905.57V950.745L1099.39 949.103ZM1064.47 881.339L1103.5 858.751L1139.24 879.696L1142.53 881.75L1103.5 904.338L1064.47 881.339ZM1143.76 883.392V928.568L1104.73 951.156V905.98L1143.76 883.392ZM1104.73 954.852L1143.76 977.44V1022.62L1104.73 1000.03V954.852ZM1145 1073.13L1184.03 1095.72L1145 1118.31L1105.97 1095.72L1145 1073.13ZM1104.73 1093.67V1048.49L1143.76 1025.9V1071.08L1104.73 1093.67ZM1105.97 952.799L1145 930.211L1180.74 951.156L1184.03 953.21L1145 975.797L1105.97 952.799ZM1145.82 977.44L1184.85 954.852V1000.03L1145.82 1022.62V977.44ZM1181.97 949.103L1146.23 928.158V882.982L1185.26 905.57V950.745L1181.97 949.103ZM1147.05 881.339L1186.08 858.751L1221.82 879.696L1225.11 881.75L1186.08 904.338L1147.05 881.339ZM1226.34 883.392V928.568L1187.31 951.156V905.98L1226.34 883.392ZM1187.31 954.852L1226.34 977.44V1022.62L1187.31 1000.03V954.852ZM1227.58 1073.13L1266.61 1095.72L1227.58 1118.31L1188.55 1095.72L1227.58 1073.13ZM1187.31 1093.67V1048.49L1226.34 1025.9V1071.08L1187.31 1093.67ZM1188.13 952.799L1227.16 930.211L1263.32 951.156L1266.61 953.21L1227.58 975.797L1188.13 952.799ZM1228.4 977.44L1267.43 954.852V1000.03L1228.4 1022.62V977.44ZM1264.55 949.103L1228.4 928.158V882.982L1267.43 905.57V950.745L1264.55 949.103ZM1229.63 881.339L1268.66 858.751L1304.81 879.696L1308.1 881.75L1269.07 904.338L1229.63 881.339ZM1308.92 883.392V928.568L1269.89 951.156V905.98L1308.92 883.392ZM1269.48 954.852L1308.51 977.44V1022.62L1269.48 1000.03V954.852ZM1309.74 1073.13L1348.77 1095.72L1309.74 1118.31L1270.71 1095.72L1309.74 1073.13ZM1269.48 1093.67V1048.49L1308.51 1025.9V1071.08L1269.48 1093.67ZM1270.71 952.799L1309.74 930.211L1345.49 951.156L1348.77 953.21L1309.74 975.797L1270.71 952.799ZM1310.98 977.44L1350.01 954.852V1000.03L1310.98 1022.62V977.44ZM1346.72 949.103L1310.98 928.158V882.982L1350.01 905.57V950.745L1346.72 949.103ZM1311.8 881.339L1350.83 858.751L1386.57 879.696L1389.86 881.75L1350.83 904.338L1311.8 881.339ZM1391.09 883.392V928.568L1352.06 951.156V905.98L1391.09 883.392ZM1352.06 954.852L1391.09 977.44V1022.62L1352.06 1000.03V954.852ZM1392.32 1073.13L1431.35 1095.72L1392.32 1118.31L1353.29 1095.72L1392.32 1073.13ZM1352.06 1093.67V1048.49L1391.09 1025.9V1071.08L1352.06 1093.67ZM1353.29 952.799L1392.32 930.211L1428.48 951.156L1431.76 953.21L1392.73 975.797L1353.29 952.799ZM1393.15 977.44L1432.18 954.852V1000.03L1393.15 1022.62V977.44ZM1429.3 949.103L1393.15 928.158V882.982L1432.18 905.57V950.745L1429.3 949.103ZM1394.38 881.339L1433.41 858.751L1469.56 879.696L1472.85 881.75L1433.82 904.338L1394.38 881.339ZM1473.67 883.392V928.568L1434.64 951.156V905.98L1473.67 883.392ZM1434.64 954.852L1473.67 977.44V1022.62L1434.64 1000.03V954.852ZM1474.9 1073.13L1513.93 1095.72L1474.9 1118.31L1435.87 1095.72L1474.9 1073.13ZM1434.64 1093.67V1048.49L1473.67 1025.9V1071.08L1434.64 1093.67ZM1435.46 952.799L1474.49 930.211L1510.24 951.156L1513.52 953.21L1474.49 975.797L1435.46 952.799ZM1475.73 977.44L1514.76 954.852V1000.03L1475.73 1022.62V977.44ZM1511.88 949.103L1476.14 928.158V882.982L1515.17 905.57V950.745L1511.88 949.103ZM1476.96 881.339L1515.99 858.751L1551.73 879.696L1555.02 881.75L1515.99 904.338L1476.96 881.339ZM1556.25 883.392V928.568L1517.22 951.156V905.98L1556.25 883.392ZM1516.81 954.852L1555.84 977.44V1022.62L1516.81 1000.03V954.852ZM1557.07 1073.13L1596.1 1095.72L1557.07 1118.31L1518.04 1095.72L1557.07 1073.13ZM1516.81 1093.67V1048.49L1555.84 1025.9V1071.08L1516.81 1093.67ZM1518.04 952.799L1557.07 930.211L1592.82 951.156L1596.1 953.21L1557.07 975.797L1518.04 952.799ZM1558.3 977.44L1597.33 954.852V1000.03L1558.3 1022.62V977.44ZM1594.05 949.103L1558.3 928.158V882.982L1597.33 905.57V950.745L1594.05 949.103ZM1559.13 881.339L1598.16 858.751L1634.31 879.696L1637.6 881.75L1598.57 904.338L1559.13 881.339ZM1638.83 883.392V928.568L1599.8 951.156V905.98L1638.83 883.392ZM1599.39 954.852L1638.42 977.44V1022.62L1599.39 1000.03V954.852ZM1639.65 1073.13L1678.68 1095.72L1639.65 1118.31L1600.62 1095.72L1639.65 1073.13ZM1599.39 1093.67V1048.49L1638.42 1025.9V1071.08L1599.39 1093.67ZM1600.62 952.799L1639.65 930.211L1675.81 951.156L1679.09 953.21L1640.06 975.797L1600.62 952.799ZM1640.88 977.44L1679.91 954.852V1000.03L1640.88 1022.62V977.44ZM1676.63 949.103L1640.47 928.158V882.982L1679.5 905.57V950.745L1676.63 949.103ZM1641.71 881.339L1680.74 858.751L1716.48 879.696L1719.77 881.75L1680.74 904.338L1641.71 881.339ZM1721 883.392V928.568L1681.97 951.156V905.98L1721 883.392ZM1681.97 954.852L1721 977.44V1022.62L1681.97 1000.03V954.852ZM1722.23 1073.13L1761.26 1095.72L1722.23 1118.31L1683.2 1095.72L1722.23 1073.13ZM1681.97 1093.67V1048.49L1721 1025.9V1071.08L1681.97 1093.67ZM1682.79 952.799L1721.82 930.211L1757.56 951.156L1760.85 953.21L1721.82 975.797L1682.79 952.799ZM1723.05 977.44L1762.08 954.852V1000.03L1723.05 1022.62V977.44ZM1759.21 949.103L1723.46 928.158V882.982L1762.49 905.57V950.745L1759.21 949.103ZM1724.29 881.339L1763.32 858.751L1799.06 879.696L1802.35 881.75L1763.32 904.338L1724.29 881.339ZM1803.58 883.392V928.568L1764.55 951.156V905.98L1803.58 883.392ZM1764.55 954.852L1803.58 977.44V1022.62L1764.55 1000.03V954.852ZM1804.4 1073.13L1843.43 1095.72L1804.4 1118.31L1765.37 1095.72L1804.4 1073.13ZM1764.55 1093.67V1048.49L1803.58 1025.9V1071.08L1764.55 1093.67ZM1765.37 952.799L1804.4 930.211L1840.55 951.156L1843.84 953.21L1804.81 975.797L1765.37 952.799ZM1805.63 977.44L1844.66 954.852V1000.03L1805.63 1022.62V977.44ZM1841.38 949.103L1805.22 928.158V882.982L1844.25 905.57V950.745L1841.38 949.103ZM1806.45 881.339L1845.48 858.751L1881.64 879.696L1884.93 881.75L1845.9 904.338L1806.45 881.339ZM1886.16 883.392V928.568L1847.13 951.156V905.98L1886.16 883.392ZM1846.72 954.852L1885.75 977.44V1022.62L1846.72 1000.03V954.852ZM1886.98 1073.13L1926.01 1095.72L1886.98 1118.31L1847.95 1095.72L1886.98 1073.13ZM1846.72 1093.67V1048.49L1885.75 1025.9V1071.08L1846.72 1093.67ZM1847.95 952.799L1886.98 930.211L1922.72 951.156L1926.01 953.21L1886.98 975.797L1847.95 952.799ZM1888.21 977.44L1927.24 954.852V1000.03L1888.21 1022.62V977.44ZM1923.96 949.103L1888.21 928.158V882.982L1927.24 905.57V950.745L1923.96 949.103ZM1889.03 881.339L1928.06 858.751L1967.09 881.339L1928.06 903.927L1889.03 881.339ZM1968.33 928.568L1929.3 951.156V905.98L1968.33 883.392V928.568ZM1968.33 834.52V879.696L1929.3 857.108V811.932L1968.33 834.52ZM1968.33 785.648L1929.3 808.236V763.06L1968.33 740.473V785.648ZM1968.33 691.601V736.776L1929.3 714.188V669.013L1968.33 691.601ZM1968.33 643.139L1929.3 665.727V620.551L1968.33 597.963V643.139ZM1968.33 549.091V594.267L1929.3 571.679V526.503L1968.33 549.091ZM1968.33 500.219L1929.3 522.807V477.632L1968.33 455.044V500.219ZM1968.33 406.172V451.347L1929.3 428.759V383.584L1968.33 406.172ZM1968.33 357.3L1929.3 379.887V334.712L1968.33 312.124V357.3ZM1968.33 263.662V308.838L1929.3 286.25V241.075L1968.33 263.662ZM1968.33 214.79L1929.3 237.378V192.203L1968.33 169.615V214.79ZM1936.28 102.262L1968.33 120.743V165.918L1929.3 143.331V98.1547L1936.28 102.262ZM1928.06 2.46414L1968.33 25.4627V71.8706L1929.3 94.4585V48.0506L1889.03 25.052L1928.06 2.46414ZM1888.21 26.6948L1927.24 49.2827V94.4585L1888.21 71.8706V26.6948ZM1886.98 73.924L1926.01 96.512L1886.98 119.1L1854.93 100.619L1847.95 96.512L1886.98 73.924ZM1886.16 71.8706L1847.13 94.4585V49.2827L1886.16 26.6948V71.8706ZM1845.9 2.46414L1884.93 25.052L1845.9 47.6399L1806.87 25.052L1845.9 2.46414ZM1805.63 26.6948L1844.66 49.2827V94.4585L1805.63 71.8706V26.6948ZM1804.4 73.924L1843.43 96.512L1804.4 119.1L1772.35 100.619L1765.37 96.512L1804.4 73.924ZM1803.58 71.8706L1764.55 94.4585V49.2827L1803.58 26.6948V71.8706ZM1763.32 2.46414L1802.35 25.052L1763.32 47.6399L1724.29 25.052L1763.32 2.46414ZM1723.05 26.6948L1762.49 49.2827V94.4585L1723.46 71.8706V26.6948H1723.05ZM1722.23 73.924L1761.26 96.512L1722.23 119.1L1690.19 100.619L1683.2 96.512L1722.23 73.924ZM1721 71.8706L1681.97 94.4585V49.2827L1721 26.6948V71.8706ZM1680.74 2.46414L1719.77 25.052L1680.74 47.6399L1641.71 25.052L1680.74 2.46414ZM1640.88 26.6948L1679.91 49.2827V94.4585L1640.88 71.8706V26.6948ZM1639.65 73.924L1678.68 96.512L1639.65 119.1L1607.61 100.619L1600.62 96.512L1639.65 73.924ZM1638.83 71.8706L1599.8 94.4585V49.2827L1638.83 26.6948V71.8706ZM1598.57 2.46414L1637.6 25.052L1598.57 47.6399L1559.54 25.052L1598.57 2.46414ZM1558.3 26.6948L1597.33 49.2827V94.4585L1558.3 71.8706V26.6948ZM1557.07 73.924L1596.1 96.512L1557.07 119.1L1525.03 100.619L1518.04 96.512L1557.07 73.924ZM1556.25 71.8706L1517.22 94.4585V49.2827L1556.25 26.6948V71.8706ZM1515.99 2.46414L1555.02 25.052L1515.99 47.6399L1476.96 25.052L1515.99 2.46414ZM1475.73 26.6948L1514.76 49.2827V94.4585L1475.73 71.8706V26.6948ZM1474.9 73.924L1513.93 96.512L1474.9 119.1L1442.86 100.619L1435.87 96.512L1474.9 73.924ZM1473.67 71.8706L1434.64 94.4585V49.2827L1473.67 26.6948V71.8706ZM1433.41 2.46414L1472.44 25.052L1433.41 47.6399L1394.38 25.052L1433.41 2.46414ZM1393.15 26.6948L1432.18 49.2827V94.4585L1393.15 71.8706V26.6948ZM1392.32 73.924L1431.35 96.512L1392.32 119.1L1360.28 100.619L1353.29 96.512L1392.32 73.924ZM1391.09 71.8706L1352.06 94.4585V49.2827L1391.09 26.6948V71.8706ZM1351.24 2.46414L1390.27 25.052L1351.24 47.6399L1312.21 25.052L1351.24 2.46414ZM1310.98 26.6948L1350.01 49.2827V94.4585L1310.98 71.8706V26.6948ZM1309.74 73.924L1348.77 96.512L1309.74 119.1L1277.7 100.619L1270.71 96.512L1309.74 73.924ZM1308.92 71.8706L1269.48 94.4585V49.2827L1308.51 26.6948V71.8706H1308.92ZM1268.66 2.46414L1307.69 25.052L1268.66 47.6399L1229.63 25.052L1268.66 2.46414ZM1228.4 26.6948L1267.43 49.2827V94.4585L1228.4 71.8706V26.6948ZM1227.58 73.924L1266.61 96.512L1227.58 119.1L1195.53 100.619L1188.55 96.512L1227.58 73.924ZM1226.34 71.8706L1187.31 94.4585V49.2827L1226.34 26.6948V71.8706ZM1186.08 2.46414L1225.11 25.052L1186.08 47.6399L1147.05 25.052L1186.08 2.46414ZM1145.82 26.6948L1184.85 49.2827V94.4585L1145.82 71.8706V26.6948ZM1145 73.924L1184.03 96.512L1145 119.1L1112.95 100.619L1105.97 96.512L1145 73.924ZM1143.76 71.8706L1104.73 94.4585V49.2827L1143.76 26.6948V71.8706ZM1103.91 2.46414L1142.94 25.052L1103.91 47.6399L1064.88 25.052L1103.91 2.46414ZM1063.65 26.6948L1102.68 49.2827V94.4585L1063.65 71.8706V26.6948ZM1062.42 73.924L1101.45 96.512L1062.42 119.1L1030.37 100.619L1023.39 96.512L1062.42 73.924ZM1061.59 71.8706L1022.56 94.4585V49.2827L1061.59 26.6948V71.8706ZM1021.33 2.46414L1060.36 25.052L1021.33 47.6399L982.302 25.052L1021.33 2.46414ZM981.069 26.6948L1020.1 49.2827V94.4585L981.069 71.8706V26.6948ZM980.248 73.924L1019.28 96.512L980.248 119.1L948.202 100.619L941.218 96.512L980.248 73.924ZM979.015 71.8706L939.985 94.4585V49.2827L979.015 26.6948V71.8706ZM938.753 2.46414L977.783 25.052L938.753 47.6399L899.722 25.052L938.753 2.46414ZM898.49 26.6948L937.52 49.2827V94.4585L898.49 71.8706V26.6948ZM897.668 73.924L936.698 96.512L897.668 119.1L865.622 100.619L858.638 96.512L897.668 73.924ZM896.436 71.8706L857.406 94.4585V49.2827L896.436 26.6948V71.8706ZM856.584 2.46414L895.614 25.052L856.584 47.6399L817.554 25.052L856.584 2.46414ZM816.321 26.6948L855.351 49.2827V94.4585L816.321 71.8706V26.6948ZM815.089 73.924L854.119 96.512L815.089 119.1L783.043 100.619L776.059 96.512L815.089 73.924ZM814.267 71.8706L775.237 94.4585V49.2827L814.267 26.6948V71.8706ZM774.004 2.46414L813.034 25.052L774.004 47.6399L734.974 25.052L774.004 2.46414ZM733.742 26.6948L772.772 49.2827V94.4585L733.742 71.8706V26.6948ZM732.509 73.924L771.539 96.512L732.509 119.1L700.463 100.619L693.479 96.512L732.509 73.924ZM731.687 71.8706L692.657 94.4585V49.2827L731.687 26.6948V71.8706ZM691.425 2.46414L730.455 25.052L691.425 47.6399L652.395 25.052L691.425 2.46414ZM651.162 26.6948L690.192 49.2827V94.4585L651.162 71.8706V26.6948ZM650.34 73.924L689.371 96.512L650.34 119.1L618.295 100.619L611.31 96.512L650.34 73.924ZM649.108 71.8706L610.078 94.4585V49.2827L649.108 26.6948V71.8706ZM608.845 2.46414L647.875 25.052L608.845 47.6399L569.815 25.052L608.845 2.46414ZM568.993 26.6948L608.023 49.2827V94.4585L568.993 71.8706V26.6948ZM567.761 73.924L606.791 96.512L567.761 119.1L535.715 100.619L528.731 96.512L567.761 73.924ZM566.939 71.8706L527.909 94.4585V49.2827L566.939 26.6948V71.8706ZM526.676 2.46414L565.707 25.052L526.676 47.6399L487.646 25.052L526.676 2.46414ZM486.414 26.6948L525.444 49.2827V94.4585L486.414 71.8706V26.6948ZM485.181 73.924L524.211 96.512L485.181 119.1L453.135 100.619L446.151 96.512L485.181 73.924ZM484.36 71.8706L445.329 94.4585V49.2827L484.36 26.6948V71.8706ZM444.097 2.46414L483.127 25.052L444.097 47.6399L405.067 25.052L444.097 2.46414ZM403.834 26.6948L442.864 49.2827V94.4585L403.834 71.8706V26.6948ZM403.013 73.924L442.043 96.512L403.013 119.1L370.967 100.619L363.982 96.512L403.013 73.924ZM401.78 71.8706L362.75 94.4585V49.2827L401.78 26.6948V71.8706ZM361.517 2.46414L400.547 25.052L361.517 47.6399L322.487 25.052L361.517 2.46414ZM321.665 26.6948L360.696 49.2827V94.4585L321.665 71.8706V26.6948ZM320.433 73.924L359.463 96.512L320.433 119.1L288.387 100.619L281.403 96.512L320.433 73.924ZM319.611 71.8706L280.17 94.4585V49.2827L319.2 26.6948V71.8706H319.611ZM279.349 2.46414L318.379 25.052L279.349 47.6399L240.318 25.052L279.349 2.46414ZM239.086 26.6948L278.116 49.2827V94.4585L239.086 71.8706V26.6948ZM237.853 73.924L276.884 96.512L237.853 119.1L205.808 100.619L198.823 96.512L237.853 73.924ZM237.032 71.8706L198.002 94.4585V49.2827L237.032 26.6948V71.8706ZM196.769 2.46414L235.799 25.052L196.769 47.6399L157.739 25.052L196.769 2.46414ZM156.506 26.6948L195.536 49.2827V94.4585L156.506 71.8706V26.6948ZM155.685 73.924L194.715 96.512L155.685 119.1L123.228 100.208L116.244 96.1013L155.685 73.924ZM154.452 71.8706L115.422 94.4585V49.2827L154.452 26.6948V71.8706ZM114.189 2.46414L153.22 25.052L114.189 47.6399L75.1593 25.052L114.189 2.46414ZM74.3376 26.6948L113.368 49.2827V94.4585L74.3376 71.8706V26.6948ZM73.1051 73.924L112.135 96.512L73.1051 119.1L41.0593 100.208L34.075 96.1013L73.1051 73.924ZM72.2834 71.8706L32.8424 94.4585V49.2827L71.8726 26.6948V71.8706H72.2834ZM32.0208 2.46414L71.0509 25.052L32.0208 47.6399L-7.00939 25.052L32.0208 2.46414ZM-8.24192 26.6948L30.7882 49.2827V94.4585L-8.24192 71.8706V26.6948ZM-9.47445 73.924L29.5557 96.512L-9.47445 119.1L-41.5203 100.619L-48.5046 96.512L-9.47445 73.924ZM-49.3263 49.2827L-10.2961 26.6948V71.8706L-49.3263 94.4585V49.2827ZM-49.3263 98.1547L-42.3419 102.262L-10.2961 120.743V165.918L-49.3263 143.331V98.1547ZM-89.589 167.561L-50.5588 144.973L-11.5287 167.561L-50.5588 190.149L-89.589 167.561ZM-89.589 310.481L-50.5588 287.893L-13.5829 309.249L-11.1178 310.481L-50.148 333.069L-89.589 310.481ZM-89.589 453.401L-50.5588 430.813L-11.5287 453.401L-50.5588 475.989L-89.589 453.401ZM-89.589 595.91L-50.5588 573.322L-11.5287 595.91L-50.5588 618.498L-89.589 595.91ZM-89.589 738.83L-50.5588 716.242L-11.5287 738.83L-50.5588 761.418L-89.589 738.83ZM-89.589 881.339L-50.5588 858.751L-14.8154 879.696L-11.5287 881.75L-50.5588 904.338L-89.589 881.339ZM-89.589 1024.26L-50.5588 1001.67L-11.5287 1024.26L-50.5588 1046.85L-89.589 1024.26ZM30.7882 1142.54L-9.47445 1165.54L-49.7371 1142.54V1097.36L-9.47445 1120.36L30.7882 1097.36V1142.54ZM30.7882 1093.67L-8.24192 1071.08V1025.9L30.7882 1048.49V1093.67ZM-7.42023 1024.26L31.6099 1001.67L70.6401 1024.26L31.6099 1046.85L-7.42023 1024.26ZM113.368 1142.54L73.1051 1165.54L32.8424 1142.54V1097.36L73.1051 1120.36L113.368 1097.36V1142.54ZM113.368 1093.67L74.3376 1071.08V1025.9L113.368 1048.49V1093.67ZM75.1593 1024.26L114.189 1001.67L153.22 1024.26L114.189 1046.85L75.1593 1024.26ZM195.947 1142.54L155.685 1165.54L115.422 1142.54V1097.36L155.685 1120.36L195.947 1097.36V1142.54ZM195.947 1093.67L156.917 1071.08V1025.9L195.947 1048.49V1093.67ZM157.739 1024.26L196.769 1001.67L235.799 1024.26L196.769 1046.85L157.739 1024.26ZM278.116 1142.54L237.853 1165.54L197.591 1142.54V1097.36L237.853 1120.36L278.116 1097.36V1142.54ZM278.116 1093.67L239.086 1071.08V1025.9L278.116 1048.49V1093.67ZM239.908 1024.26L278.938 1001.67L317.968 1024.26L278.938 1046.85L239.908 1024.26ZM360.696 1142.54L320.433 1165.54L280.17 1142.54V1097.36L320.433 1120.36L360.696 1097.36V1142.54ZM360.696 1093.67L321.665 1071.08V1025.9L360.696 1048.49V1093.67ZM322.487 1024.26L361.517 1001.67L400.547 1024.26L361.517 1046.85L322.487 1024.26ZM443.275 1142.54L403.013 1165.54L362.75 1142.54V1097.36L403.013 1120.36L443.275 1097.36V1142.54ZM443.275 1093.67L404.245 1071.08V1025.9L443.275 1048.49V1093.67ZM405.067 1024.26L444.097 1001.67L483.127 1024.26L444.097 1046.85L405.067 1024.26ZM525.444 1142.54L485.181 1165.54L444.919 1142.54V1097.36L485.181 1120.36L525.444 1097.36V1142.54ZM525.444 1093.67L486.414 1071.08V1025.9L525.444 1048.49V1093.67ZM487.235 1024.26L526.266 1001.67L565.296 1024.26L526.266 1046.85L487.235 1024.26ZM608.023 1142.54L567.761 1165.54L527.498 1142.54V1097.36L567.761 1120.36L608.023 1097.36V1142.54ZM608.023 1093.67L568.993 1071.08V1025.9L608.023 1048.49V1093.67ZM569.815 1024.26L608.845 1001.67L647.875 1024.26L608.845 1046.85L569.815 1024.26ZM690.603 1142.54L650.34 1165.54L610.078 1142.54V1097.36L650.34 1120.36L690.603 1097.36V1142.54ZM690.603 1093.67L651.573 1071.08V1025.9L690.603 1048.49V1093.67ZM652.395 1024.26L691.425 1001.67L730.455 1024.26L691.425 1046.85L652.395 1024.26ZM772.772 1142.54L732.509 1165.54L692.246 1142.54V1097.36L732.509 1120.36L772.772 1097.36V1142.54ZM772.772 1093.67L733.742 1071.08V1025.9L772.772 1048.49V1093.67ZM734.974 1024.26L774.004 1001.67L813.034 1024.26L774.004 1046.85L734.974 1024.26ZM855.351 1142.54L815.089 1165.54L774.826 1142.54V1097.36L815.089 1120.36L855.351 1097.36V1142.54ZM855.351 1093.67L816.321 1071.08V1025.9L855.351 1048.49V1093.67ZM817.143 1024.26L856.173 1001.67L895.203 1024.26L856.173 1046.85L817.143 1024.26ZM937.931 1142.54L897.668 1165.54L857.406 1142.54V1097.36L897.668 1120.36L937.931 1097.36V1142.54ZM937.931 1093.67L898.901 1071.08V1025.9L937.931 1048.49V1093.67ZM899.722 1024.26L938.753 1001.67L977.783 1024.26L938.753 1046.85L899.722 1024.26ZM1020.1 1142.54L979.837 1165.54L939.574 1142.54V1097.36L979.837 1120.36L1020.1 1097.36V1142.54ZM1020.1 1093.67L981.069 1071.08V1025.9L1020.1 1048.49V1093.67ZM982.302 1024.26L1021.33 1001.67L1060.36 1024.26L1021.33 1046.85L982.302 1024.26ZM1102.68 1142.54L1062.42 1165.54L1022.15 1142.54V1097.36L1062.42 1120.36L1102.68 1097.36V1142.54ZM1102.68 1093.67L1063.65 1071.08V1025.9L1102.68 1048.49V1093.67ZM1064.47 1024.26L1103.5 1001.67L1142.53 1024.26L1103.5 1046.85L1064.47 1024.26ZM1185.26 1142.54L1145 1165.54L1104.73 1142.54V1097.36L1145 1120.36L1185.26 1097.36V1142.54ZM1185.26 1093.67L1146.23 1071.08V1025.9L1185.26 1048.49V1093.67ZM1147.05 1024.26L1186.08 1001.67L1225.11 1024.26L1186.08 1046.85L1147.05 1024.26ZM1267.43 1142.54L1227.16 1165.54L1186.9 1142.54V1097.36L1227.16 1120.36L1267.43 1097.36V1142.54ZM1267.43 1093.67L1228.4 1071.08V1025.9L1267.43 1048.49V1093.67ZM1229.63 1024.26L1268.66 1001.67L1307.69 1024.26L1268.66 1046.85L1229.63 1024.26ZM1350.01 1142.54L1309.74 1165.54L1269.48 1142.54V1097.36L1309.74 1120.36L1350.01 1097.36V1142.54ZM1350.01 1093.67L1310.98 1071.08V1025.9L1350.01 1048.49V1093.67ZM1311.8 1024.26L1350.83 1001.67L1389.86 1024.26L1350.83 1046.85L1311.8 1024.26ZM1432.59 1142.54L1392.32 1165.54L1352.06 1142.54V1097.36L1392.32 1120.36L1432.59 1097.36V1142.54ZM1432.59 1093.67L1393.56 1071.08V1025.9L1432.59 1048.49V1093.67ZM1394.38 1024.26L1433.41 1001.67L1472.44 1024.26L1433.41 1046.85L1394.38 1024.26ZM1514.76 1142.54L1474.49 1165.54L1434.23 1142.54V1097.36L1474.49 1120.36L1514.76 1097.36V1142.54ZM1514.76 1093.67L1475.73 1071.08V1025.9L1514.76 1048.49V1093.67ZM1476.96 1024.26L1515.99 1001.67L1555.02 1024.26L1515.99 1046.85L1476.96 1024.26ZM1597.33 1142.54L1557.07 1165.54L1516.81 1142.54V1097.36L1557.07 1120.36L1597.33 1097.36V1142.54ZM1597.33 1093.67L1558.3 1071.08V1025.9L1597.33 1048.49V1093.67ZM1559.13 1024.26L1598.16 1001.67L1637.19 1024.26L1598.16 1046.85L1559.13 1024.26ZM1679.91 1142.54L1639.65 1165.54L1599.39 1142.54V1097.36L1639.65 1120.36L1679.91 1097.36V1142.54ZM1679.91 1093.67L1640.88 1071.08V1025.9L1679.91 1048.49V1093.67ZM1641.71 1024.26L1680.74 1001.67L1719.77 1024.26L1680.74 1046.85L1641.71 1024.26ZM1762.49 1142.54L1722.23 1165.54L1681.97 1142.54V1097.36L1722.23 1120.36L1762.49 1097.36V1142.54ZM1762.49 1093.67L1723.46 1071.08V1025.9L1762.49 1048.49V1093.67ZM1724.29 1024.26L1763.32 1001.67L1802.35 1024.26L1763.32 1046.85L1724.29 1024.26ZM1844.66 1142.54L1804.4 1165.54L1764.14 1142.54V1097.36L1804.4 1120.36L1844.66 1097.36V1142.54ZM1844.66 1093.67L1805.63 1071.08V1025.9L1844.66 1048.49V1093.67ZM1806.45 1024.26L1845.48 1001.67L1884.51 1024.26L1845.48 1046.85L1806.45 1024.26ZM1927.24 1142.54L1886.98 1165.54L1846.72 1142.54V1097.36L1886.98 1120.36L1927.24 1097.36V1142.54ZM1927.24 1093.67L1888.21 1071.08V1025.9L1927.24 1048.49V1093.67ZM1928.06 1046.85L1889.03 1024.26L1928.06 1001.67L1967.09 1024.26L1928.06 1046.85ZM1929.3 1048.49L1968.33 1025.9V1071.08L1929.3 1093.67V1048.49Z" fill="url(#paint0_linear)"/>
<defs>
<linearGradient id="paint0_linear" x1="959.295" y1="0" x2="959.295" y2="1168" gradientUnits="userSpaceOnUse">
<stop stop-color="white" stop-opacity="0"/>
<stop offset="0.477305" stop-color="#E8EEFF"/>
<stop offset="1" stop-color="#DFE8FF"/>
</linearGradient>
</defs>
</svg>
