<svg width="320" height="960" viewBox="0 0 320 960" fill="none" xmlns="http://www.w3.org/2000/svg">
<path d="M1038.71 971.816L1004.79 952.187L1039.43 932.201L1039.79 931.844V891.516L1073 910.788V908.646L1040.86 890.088L1073 871.53V869.388L1039.79 888.66V849.402L1073 830.13V827.989L1039.07 847.618L1005.14 827.989L1039.07 808.36L1073 827.989V825.847L1039.79 806.575V767.317L1073 786.589V784.448L1040.86 765.89L1073 747.331V745.19L1039.79 764.462V725.204L1073 705.932V703.79L1039.07 723.419L1005.14 703.79L1039.07 684.161L1073 703.79V701.649L1039.79 682.377V643.119L1073 662.391V660.25L1040.86 641.691L1073 623.133V620.992L1039.79 640.264V601.006L1073 581.733V579.592L1039.07 599.221L1005.14 579.592L1039.07 559.963L1073 579.592V577.451L1039.79 558.179V518.921L1073 538.193V536.051L1040.86 517.493L1073 498.935V496.793L1039.79 516.065V476.807L1073 457.535V455.394L1039.07 475.023L1011.21 458.963L1005.14 455.394L1039.07 435.765L1073 455.394V453.252L1039.79 433.98V394.722L1073 413.994V411.853L1040.86 393.295L1073 374.736V372.595L1039.79 391.867V352.609L1073 333.337V331.909L1039.07 351.538L1005.14 331.909L1039.07 312.28L1073 331.909V329.768L1039.79 310.496V271.238L1073 290.51V288.368L1040.86 269.81L1073 251.252V249.11L1039.79 268.383V229.124L1073 209.852V207.711L1039.07 227.34L1005.14 207.711L1039.07 188.082L1073 207.711V205.57L1039.79 186.297V147.039L1073 166.312V164.17L1040.86 145.612L1073 127.053V124.912L1039.79 144.184V104.926L1073 85.654V83.5127L1039.07 103.142L1011.21 87.0816L1005.14 83.5127L1039.07 63.8836L1073 83.5127V81.3713L1039.79 62.0992V22.8411L1073 42.1132V39.9719L1039.79 20.6997L1038 19.629L1002.64 0L967.643 19.9859H965.857L931.214 0L896.214 19.9859H894.429L859.429 0L824.429 19.9859H822.643L787.643 0L752.643 19.9859H750.857L716.214 0L681.214 19.9859H679.428L644.429 0L609.429 19.9859H607.643L572.643 0L537.643 19.9859H535.857L501.214 0L466.214 19.9859H464.429L429.428 0L394.429 19.9859H392.643L357.643 0L322.643 19.9859H320.857L286.214 0L251.214 19.9859H249.429L214.429 0L179.429 19.9859H177.643L142.643 0L107.643 19.9859H105.857L71.2143 0L36.2143 19.9859H34.4285L-0.571472 0L-35.5714 19.9859H-37.3571L-72.3571 0L-107.357 19.9859H-109.143L-144.143 0L-179.143 19.9859H-180.929L-215.571 0L-250.571 19.9859H-252.357L-287.357 0L-322.357 19.9859H-324.143L-359.143 0L-394.143 19.9859H-395.929L-430.571 0L-465.571 19.9859H-467.357L-502.357 0L-537.357 19.9859H-539.143L-574.143 0L-609.143 19.9859H-610.929L-645.571 0L-680.571 19.9859H-682.357L-717.357 0L-752 19.9859V22.1273L-717.357 2.14135L-683.429 21.7704L-718.071 41.7563L-718.429 42.1132V82.0851L-752 62.8129V64.9543L-719.143 83.8696L-752 102.785V104.926L-718.071 85.2971V124.555L-752 144.184V147.753L-718.071 167.382V206.64L-720.214 205.57L-752 186.654V188.796L-721.286 206.64L-719.143 207.711L-752 226.626V228.768L-718.071 209.139V248.397L-752 268.026V271.595L-718.071 291.224V330.482L-720.929 328.697L-752 310.853V312.994L-722 330.482L-719.143 331.909L-752 350.825V352.966L-718.071 333.337V372.595L-752 392.224V395.793L-718.071 415.422V454.68L-752 434.694V436.835L-719.143 455.751L-752 475.023V477.164L-718.071 457.535V496.793L-752 516.065V519.634L-718.071 539.263V578.521L-752 558.892V561.034L-719.143 579.949L-752 598.864V601.006L-718.071 581.377V620.635L-752 640.264V643.833L-718.071 663.462V702.72L-724.143 699.151L-752 683.091V685.232L-721.286 703.077L-719.143 704.147L-752 723.063V725.204L-718.071 705.575V744.833L-752 764.462V768.031L-718.071 787.66V826.918L-720.929 825.134L-752 807.289V809.43L-722 826.918L-719.143 828.703L-752 846.904V849.045L-718.071 829.416V868.674L-752 888.303V891.872L-718.071 911.501V950.759L-752 931.13V933.272L-719.143 952.187L-752 971.102V973.244L-718.071 953.615V993.943L-683.071 1013.93L-681.286 1015L-679.5 1013.93L-645.571 994.3L-611.643 1013.93L-609.857 1015L-608.071 1013.93L-574.143 994.3L-540.214 1013.93L-538.429 1015L-536.643 1013.93L-502.714 994.3L-468.786 1013.93L-467 1015L-465.214 1013.93L-431.286 994.3L-397.357 1013.93L-395.571 1015L-393.786 1013.93L-359.857 994.3L-325.929 1013.93L-324.143 1015L-322.357 1013.93L-288.429 994.3L-254.5 1013.93L-252.714 1015L-250.929 1013.93L-217 994.3L-183.071 1013.93L-181.286 1015L-179.5 1013.93L-145.571 994.3L-111.643 1013.93L-109.857 1015L-108.071 1013.93L-74.1428 994.3L-40.2143 1013.93L-38.4286 1015L-36.6429 1013.93L-2.71429 994.3L31.2143 1013.93L33 1015L34.7857 1013.93L68.7143 994.3L102.643 1013.93L104.429 1015L106.214 1013.93L140.143 994.3L174.071 1013.93L175.857 1015L177.643 1013.93L211.571 994.3L245.5 1013.93L247.286 1015L249.071 1013.93L283 994.3L316.928 1013.93L318.714 1015L320.5 1013.93L354.428 994.3L388.357 1013.93L390.143 1015L391.928 1013.93L425.857 994.3L459.786 1013.93L461.571 1015L463.357 1013.93L497.286 994.3L531.214 1013.93L533 1015L534.786 1013.93L568.714 994.3L602.643 1013.93L604.428 1015L606.214 1013.93L640.143 994.3L674.071 1013.93L675.857 1015L677.643 1013.93L711.571 994.3L745.5 1013.93L747.286 1015L749.071 1013.93L783 994.3L816.928 1013.93L818.714 1015L820.5 1013.93L854.428 994.3L888.357 1013.93L890.143 1015L891.928 1013.93L925.857 994.3L959.786 1013.93L961.571 1015L963.357 1013.93L998 993.943L998.357 993.586V953.258L1033.36 973.244L1067.29 953.615V951.473L1038.71 971.816ZM1037.64 849.402V888.66L1003.71 869.031V829.773L1037.64 849.402ZM939.071 459.32L933 455.751L966.928 436.122L1000.86 455.751L966.928 475.38L939.071 459.32ZM966.214 477.164V516.422L932.286 496.793V457.535L966.214 477.164ZM931.929 454.323V415.065L965.857 395.436V434.694L931.929 454.323ZM966.214 392.224L932.286 372.595V333.337L966.214 352.966V392.224ZM965.143 394.008L931.214 413.637L897.286 394.008L931.214 374.379L965.143 394.008ZM930.143 372.595L896.214 392.224V352.966L930.143 333.337V372.595ZM930.143 415.065V454.323L896.214 434.694V395.436L930.143 415.065ZM929.428 455.751L895.5 475.38L867.643 459.32L861.571 455.751L895.5 436.122L929.428 455.751ZM930.143 457.535V496.793L896.214 516.422V477.164L930.143 457.535ZM894.429 477.164V516.422L860.5 496.793V457.535L894.429 477.164ZM860.5 454.323V415.065L894.429 395.436V434.694L860.5 454.323ZM894.429 392.224L860.5 372.595V333.337L894.429 352.966V392.224ZM893.357 394.008L859.429 413.637L825.5 394.008L859.429 374.379L893.357 394.008ZM858.714 372.595L824.786 392.224V352.966L858.714 333.337V372.595ZM858.714 415.065V454.323L824.786 434.694V395.436L858.714 415.065ZM857.643 455.751L823.714 475.38L795.857 459.32L789.786 455.751L823.714 436.122L857.643 455.751ZM858.714 457.535V496.793L824.786 516.422V477.164L858.714 457.535ZM822.643 477.164V516.422L788.714 496.793V457.535L822.643 477.164ZM788.714 454.323V415.065L822.643 395.436V434.694L788.714 454.323ZM822.643 392.224L788.714 372.595V333.337L822.643 352.966V392.224ZM821.929 394.008L788 413.637L754.071 394.008L788 374.379L821.929 394.008ZM786.929 372.595L753 392.224V352.966L786.929 333.337V372.595ZM786.929 415.065V454.323L753 434.694V395.436L786.929 415.065ZM785.857 455.751L751.929 475.38L724.071 459.32L718 455.751L751.929 436.122L785.857 455.751ZM786.929 457.535V496.793L753 516.422V477.164L786.929 457.535ZM751.214 477.164V516.422L717.286 496.793V457.535L751.214 477.164ZM716.928 454.323V415.065L750.857 395.436V434.694L716.928 454.323ZM751.214 392.224L717.286 372.595V333.337L751.214 352.966V392.224ZM750.143 394.008L716.214 413.637L682.286 394.008L716.214 374.379L750.143 394.008ZM715.143 372.595L681.214 392.224V352.966L715.143 333.337V372.595ZM715.143 415.065V454.323L681.214 434.694V395.436L715.143 415.065ZM714.429 455.751L680.5 475.38L652.643 459.32L646.571 455.751L680.5 436.122L714.429 455.751ZM715.143 457.535V496.793L681.214 516.422V477.164L715.143 457.535ZM679.428 477.164V516.422L645.5 496.793V457.535L679.428 477.164ZM645.143 454.323V415.065L679.071 395.436V434.694L645.143 454.323ZM679.428 392.224L645.5 372.595V333.337L679.428 352.966V392.224ZM678.357 394.008L644.429 413.637L610.5 394.008L644.429 374.379L678.357 394.008ZM643.357 372.595L609.429 392.224V352.966L643.357 333.337V372.595ZM643.357 415.065V454.323L609.429 434.694V395.436L643.357 415.065ZM642.643 455.751L608.714 475.38L580.857 459.32L574.786 455.751L608.714 436.122L642.643 455.751ZM643.357 457.535V496.793L609.429 516.422V477.164L643.357 457.535ZM607.643 477.164V516.422L573.714 496.793V457.535L607.643 477.164ZM573.714 454.323V415.065L607.643 395.436V434.694L573.714 454.323ZM607.643 392.224L573.714 372.595V333.337L607.643 352.966V392.224ZM606.929 394.008L573 413.637L539.071 394.008L573 374.379L606.929 394.008ZM571.929 372.595L538 392.224V352.966L571.929 333.337V372.595ZM571.929 415.065V454.323L538 434.694V395.436L571.929 415.065ZM570.857 455.751L536.929 475.38L509.071 459.32L503 455.751L536.929 436.122L570.857 455.751ZM571.929 457.535V496.793L538 516.422V477.164L571.929 457.535ZM535.857 477.164V516.422L501.929 496.793V457.535L535.857 477.164ZM501.929 454.323V415.065L535.857 395.436V434.694L501.929 454.323ZM535.857 392.224L501.929 372.595V333.337L535.857 352.966V392.224ZM535.143 394.008L501.214 413.637L467.286 394.008L501.214 374.379L535.143 394.008ZM500.143 372.595L466.214 392.224V352.966L500.143 333.337V372.595ZM500.143 415.065V454.323L466.214 434.694V395.436L500.143 415.065ZM499.429 455.751L465.5 475.38L437.643 459.32L431.571 455.751L465.5 436.122L499.429 455.751ZM500.143 457.535V496.793L466.214 516.422V477.164L500.143 457.535ZM464.429 477.164V516.422L430.5 496.793V457.535L464.429 477.164ZM430.143 454.323V415.065L464.071 395.436V434.694L430.143 454.323ZM464.429 392.224L430.5 372.595V333.337L464.429 352.966V392.224ZM463.357 394.008L429.428 413.637L395.5 394.008L429.428 374.379L463.357 394.008ZM428.357 372.595L394.429 392.224V352.966L428.357 333.337V372.595ZM428.357 415.065V454.323L394.429 434.694V395.436L428.357 415.065ZM427.643 455.751L393.714 475.38L365.857 459.32L359.786 455.751L393.714 436.122L427.643 455.751ZM428.357 457.535V496.793L394.429 516.422V477.164L428.357 457.535ZM392.643 477.164V516.422L358.714 496.793V457.535L392.643 477.164ZM358.714 454.323V415.065L392.643 395.436V434.694L358.714 454.323ZM392.643 392.224L358.714 372.595V333.337L392.643 352.966V392.224ZM391.928 394.008L358 413.637L324.071 394.008L358 374.379L391.928 394.008ZM356.929 372.595L323 392.224V352.966L356.929 333.337V372.595ZM356.929 415.065V454.323L323 434.694V395.436L356.929 415.065ZM355.857 455.751L321.929 475.38L294.071 459.32L288 455.751L321.929 436.122L355.857 455.751ZM356.929 457.535V496.793L323 516.422V477.164L356.929 457.535ZM320.857 477.164V516.422L286.929 496.793V457.535L320.857 477.164ZM286.929 454.323V415.065L320.857 395.436V434.694L286.929 454.323ZM320.857 392.224L286.929 372.595V333.337L320.857 352.966V392.224ZM320.143 394.008L286.214 413.637L252.286 394.008L286.214 374.379L320.143 394.008ZM285.143 372.595L251.214 392.224V352.966L285.143 333.337V372.595ZM285.143 415.065V454.323L251.214 434.694V395.436L285.143 415.065ZM284.429 455.751L250.5 475.38L222.643 459.32L216.571 455.751L250.5 436.122L284.429 455.751ZM285.143 457.535V496.793L251.214 516.422V477.164L285.143 457.535ZM249.429 477.164V516.422L215.5 496.793V457.535L249.429 477.164ZM215.143 454.323V415.065L249.071 395.436V434.694L215.143 454.323ZM249.429 392.224L215.5 372.595V333.337L249.429 352.966V392.224ZM248.357 394.008L214.429 413.637L180.5 394.008L214.429 374.379L248.357 394.008ZM213.357 372.595L179.429 392.224V352.966L213.357 333.337V372.595ZM213.357 415.065V454.323L179.429 434.694V395.436L213.357 415.065ZM212.643 455.751L178.714 475.38L150.857 459.32L144.786 455.751L178.714 436.122L212.643 455.751ZM213.357 457.535V496.793L179.429 516.422V477.164L213.357 457.535ZM177.643 477.164V516.422L143.714 496.793V457.535L177.643 477.164ZM143.714 454.323V415.065L177.643 395.436V434.694L143.714 454.323ZM177.643 392.224L143.714 372.595V333.337L177.643 352.966V392.224ZM176.929 394.008L143 413.637L109.071 394.008L143 374.379L176.929 394.008ZM141.929 372.595L108 392.224V352.966L141.929 333.337V372.595ZM141.929 415.065V454.323L108 434.694V395.436L141.929 415.065ZM140.857 455.751L106.929 475.38L79.0714 459.32L73 455.751L106.929 436.122L140.857 455.751ZM141.929 457.535V496.793L108 516.422V477.164L141.929 457.535ZM105.857 477.164V516.422L71.9285 496.793V457.535L105.857 477.164ZM71.9285 454.323V415.065L105.857 395.436V434.694L71.9285 454.323ZM105.857 392.224L71.9285 372.595V333.337L105.857 352.966V392.224ZM105.143 394.008L71.2143 413.637L37.2857 394.008L71.2143 374.379L105.143 394.008ZM70.1428 372.595L36.2143 392.224V352.966L70.1428 333.337V372.595ZM70.1428 415.065V454.323L36.2143 434.694V395.436L70.1428 415.065ZM69.4286 455.751L35.5 475.38L7.64282 459.32L1.57141 455.751L35.5 436.122L69.4286 455.751ZM70.1428 457.535V496.793L36.2143 516.422V477.164L70.1428 457.535ZM34.4285 477.164V516.422L0.5 496.793V457.535L34.4285 477.164ZM0.142883 454.323V415.065L34.0715 395.436V434.694L0.142883 454.323ZM34.4285 392.224L0.5 372.595V333.337L34.4285 352.966V392.224ZM33.3571 394.008L-0.571472 413.637L-34.5 394.008L-0.571472 374.379L33.3571 394.008ZM-1.64282 372.595L-35.5714 392.224V352.966L-1.64282 333.337V372.595ZM-1.64282 415.065V454.323L-35.5714 434.694V395.436L-1.64282 415.065ZM-2.35718 455.751L-36.2858 475.38L-64.1428 459.32L-70.2143 455.751L-36.2858 436.122L-2.35718 455.751ZM-1.64282 457.535V496.793L-35.5714 516.422V477.164L-1.64282 457.535ZM-37.3571 477.164V516.422L-71.2857 496.793V457.535L-37.3571 477.164ZM-71.2857 454.323V415.065L-37.3571 395.436V434.694L-71.2857 454.323ZM-37.3571 392.224L-71.2857 372.595V333.337L-37.3571 352.966V392.224ZM-38.0715 394.008L-72 413.637L-105.929 394.008L-72 374.379L-38.0715 394.008ZM-73.0714 372.595L-107 392.224V352.966L-73.0714 333.337V372.595ZM-73.0714 415.065V454.323L-107 434.694V395.436L-73.0714 415.065ZM-74.1428 455.751L-108.071 475.38L-135.929 459.32L-142 455.751L-108.071 436.122L-74.1428 455.751ZM-73.0714 457.535V496.793L-107 516.422V477.164L-73.0714 457.535ZM-109.143 477.164V516.422L-143.071 496.793V457.535L-109.143 477.164ZM-143.071 454.323V415.065L-109.143 395.436V434.694L-143.071 454.323ZM-109.143 392.224L-143.071 372.595V333.337L-109.143 352.966V392.224ZM-109.857 394.008L-143.786 413.637L-177.714 394.008L-143.786 374.379L-109.857 394.008ZM-144.857 372.595L-178.786 392.224V352.966L-144.857 333.337V372.595ZM-144.857 415.065V454.323L-178.786 434.694V395.436L-144.857 415.065ZM-145.929 455.751L-179.857 475.38L-207.714 459.32L-213.786 455.751L-179.857 436.122L-145.929 455.751ZM-144.857 457.535V496.793L-178.786 516.422V477.164L-144.857 457.535ZM-180.571 477.164V516.422L-214.5 496.793V457.535L-180.571 477.164ZM-214.857 454.323V415.065L-180.929 395.436V434.694L-214.857 454.323ZM-180.571 392.224L-214.5 372.595V333.337L-180.571 352.966V392.224ZM-181.643 394.008L-215.571 413.637L-249.5 394.008L-215.571 374.379L-181.643 394.008ZM-216.643 372.595L-250.571 392.224V352.966L-216.643 333.337V372.595ZM-216.643 415.065V454.323L-250.571 434.694V395.436L-216.643 415.065ZM-217.357 455.751L-251.286 475.38L-279.143 459.32L-285.214 455.751L-251.286 436.122L-217.357 455.751ZM-216.643 457.535V496.793L-250.571 516.422V477.164L-216.643 457.535ZM-252.357 477.164V516.422L-286.286 496.793V457.535L-252.357 477.164ZM-286.286 454.323V415.065L-252.357 395.436V434.694L-286.286 454.323ZM-252.357 392.224L-286.286 372.595V333.337L-252.357 352.966V392.224ZM-253.429 394.008L-287.357 413.637L-321.286 394.008L-287.357 374.379L-253.429 394.008ZM-288.071 372.595L-322 392.224V352.966L-288.071 333.337V372.595ZM-288.071 415.065V454.323L-322 434.694V395.436L-288.071 415.065ZM-289.143 455.751L-323.071 475.38L-350.929 459.32L-357 455.751L-323.071 436.122L-289.143 455.751ZM-288.071 457.535V496.793L-322 516.422V477.164L-288.071 457.535ZM-324.143 477.164V516.422L-358.071 496.793V457.535L-324.143 477.164ZM-358.071 454.323V415.065L-324.143 395.436V434.694L-358.071 454.323ZM-324.143 392.224L-358.071 372.595V333.337L-324.143 352.966V392.224ZM-324.857 394.008L-358.786 413.637L-392.714 394.008L-358.786 374.379L-324.857 394.008ZM-359.857 372.595L-393.786 392.224V352.966L-359.857 333.337V372.595ZM-359.857 415.065V454.323L-393.786 434.694V395.436L-359.857 415.065ZM-360.929 455.751L-394.857 475.38L-422.714 459.32L-428.786 455.751L-394.857 436.122L-360.929 455.751ZM-359.857 457.535V496.793L-393.786 516.422V477.164L-359.857 457.535ZM-395.571 477.164V516.422L-429.5 496.793V457.535L-395.571 477.164ZM-429.857 454.323V415.065L-395.929 395.436V434.694L-429.857 454.323ZM-395.571 392.224L-429.5 372.595V333.337L-395.571 352.966V392.224ZM-396.643 394.008L-430.571 413.637L-464.5 394.008L-430.571 374.379L-396.643 394.008ZM-431.643 372.595L-465.571 392.224V352.966L-431.643 333.337V372.595ZM-431.643 415.065V454.323L-465.571 434.694V395.436L-431.643 415.065ZM-432.357 455.751L-466.286 475.38L-494.143 459.32L-500.214 455.751L-466.286 436.122L-432.357 455.751ZM-431.643 457.535V496.793L-465.571 516.422V477.164L-431.643 457.535ZM-467.357 477.164V516.422L-501.286 496.793V457.535L-467.357 477.164ZM-501.286 454.323V415.065L-467.357 395.436V434.694L-501.286 454.323ZM-467.357 392.224L-501.286 372.595V333.337L-467.357 352.966V392.224ZM-468.429 394.008L-502.357 413.637L-536.286 394.008L-502.357 374.379L-468.429 394.008ZM-503.071 372.595L-537 392.224V352.966L-503.071 333.337V372.595ZM-503.071 415.065V454.323L-537 434.694V395.436L-503.071 415.065ZM-504.143 455.751L-538.071 475.38L-565.929 459.32L-572 455.751L-538.071 436.122L-504.143 455.751ZM-503.071 457.535V496.793L-537 516.422V477.164L-503.071 457.535ZM-539.143 477.164V516.422L-573.071 496.793V457.535L-539.143 477.164ZM-573.071 454.323V415.065L-539.143 395.436V434.694L-573.071 454.323ZM-539.143 392.224L-573.071 372.595V333.337L-539.143 352.966V392.224ZM-539.857 394.008L-573.786 413.637L-607.714 394.008L-573.786 374.379L-539.857 394.008ZM-574.857 372.595L-608.786 392.224V352.966L-574.857 333.337V372.595ZM-574.857 415.065V454.323L-608.786 434.694V395.436L-574.857 415.065ZM-575.929 455.751L-609.857 475.38L-637.714 459.32L-643.786 455.751L-609.857 436.122L-575.929 455.751ZM-574.857 457.535V496.793L-608.786 516.422V477.164L-574.857 457.535ZM-610.571 477.164V516.422L-644.5 496.793V457.535L-610.571 477.164ZM-644.857 454.323V415.065L-610.929 395.436V434.694L-644.857 454.323ZM-610.571 392.224L-644.5 372.595V333.337L-610.571 352.966V392.224ZM-611.643 394.008L-645.571 413.637L-679.5 394.008L-645.571 374.379L-611.643 394.008ZM-646.643 372.595L-680.571 392.224V352.966L-646.643 333.337V372.595ZM-646.643 415.065V454.323L-680.571 434.694V395.436L-646.643 415.065ZM-673.786 521.419L-679.857 517.85L-645.929 498.221L-612 517.85L-645.929 537.479L-673.786 521.419ZM-646.643 539.263V578.521L-680.571 558.892V519.634L-674.5 523.203L-646.643 539.263ZM-680.571 516.422V477.164L-646.643 457.535V496.793L-680.571 516.422ZM-610.571 519.634V558.892L-644.5 578.521V539.263L-610.571 519.634ZM-644.857 581.377L-610.929 601.006V640.264L-644.857 620.635V581.377ZM-643.786 579.949L-609.857 560.32L-575.929 579.949L-609.857 599.578L-643.786 579.949ZM-608.786 601.006L-574.857 581.377V620.635L-608.786 640.264V601.006ZM-608.786 558.892V519.634L-602.714 523.203L-574.857 539.263V578.521L-608.786 558.892ZM-602 521.419L-608.071 517.85L-574.143 498.221L-540.214 517.85L-574.143 537.479L-602 521.419ZM-539.143 519.634V558.892L-573.071 578.521V539.263L-539.143 519.634ZM-573.071 581.377L-539.143 601.006V640.264L-573.071 620.635V581.377ZM-572.357 579.949L-538.429 560.32L-504.5 579.949L-538.429 599.578L-572.357 579.949ZM-537.357 601.006L-503.429 581.377V620.635L-537.357 640.264V601.006ZM-537.357 558.892V519.634L-531.286 523.203L-503.429 539.263V578.521L-537.357 558.892ZM-530.214 521.419L-536.286 517.85L-502.357 498.221L-468.429 517.85L-502.357 537.479L-530.214 521.419ZM-467.357 519.634V558.892L-501.286 578.521V539.263L-467.357 519.634ZM-501.286 581.377L-467.357 601.006V640.264L-501.286 620.635V581.377ZM-500.571 579.949L-466.643 560.32L-432.714 579.949L-466.643 599.578L-500.571 579.949ZM-465.571 601.006L-431.643 581.377V620.635L-465.571 640.264V601.006ZM-465.571 558.892V519.634L-459.5 523.203L-431.643 539.263V578.521L-465.571 558.892ZM-458.786 521.419L-464.857 517.85L-430.929 498.221L-397 517.85L-430.929 537.479L-458.786 521.419ZM-395.571 519.634V558.892L-429.5 578.521V539.263L-395.571 519.634ZM-429.857 581.377L-395.929 601.006V640.264L-429.857 620.635V581.377ZM-428.786 579.949L-394.857 560.32L-360.929 579.949L-394.857 599.578L-428.786 579.949ZM-393.786 601.006L-359.857 581.377V620.635L-393.786 640.264V601.006ZM-393.786 558.892V519.634L-387.714 523.203L-359.857 539.263V578.521L-393.786 558.892ZM-387 521.419L-393.071 517.85L-359.143 498.221L-325.214 517.85L-359.143 537.479L-387 521.419ZM-324.143 519.634V558.892L-358.071 578.521V539.263L-324.143 519.634ZM-358.071 581.377L-324.143 601.006V640.264L-358.071 620.635V581.377ZM-357.357 579.949L-323.429 560.32L-289.5 579.949L-323.429 599.578L-357.357 579.949ZM-322.357 601.006L-288.429 581.377V620.635L-322.357 640.264V601.006ZM-322.357 558.892V519.634L-316.286 523.203L-288.429 539.263V578.521L-322.357 558.892ZM-315.214 521.419L-321.286 517.85L-287.357 498.221L-253.429 517.85L-287.357 537.479L-315.214 521.419ZM-252.357 519.634V558.892L-286.286 578.521V539.263L-252.357 519.634ZM-286.286 581.377L-252.357 601.006V640.264L-286.286 620.635V581.377ZM-285.571 579.949L-251.643 560.32L-217.714 579.949L-251.643 599.578L-285.571 579.949ZM-250.571 601.006L-216.643 581.377V620.635L-250.571 640.264V601.006ZM-250.571 558.892V519.634L-244.5 523.203L-216.643 539.263V578.521L-250.571 558.892ZM-243.786 521.419L-249.857 517.85L-215.929 498.221L-182 517.85L-215.929 537.479L-243.786 521.419ZM-180.571 519.634V558.892L-214.5 578.521V539.263L-180.571 519.634ZM-214.857 581.377L-180.929 601.006V640.264L-214.857 620.635V581.377ZM-213.786 579.949L-179.857 560.32L-145.929 579.949L-179.857 599.578L-213.786 579.949ZM-178.786 601.006L-144.857 581.377V620.635L-178.786 640.264V601.006ZM-178.786 558.892V519.634L-172.714 523.203L-144.857 539.263V578.521L-178.786 558.892ZM-172 521.419L-178.071 517.85L-144.143 498.221L-110.214 517.85L-144.143 537.479L-172 521.419ZM-109.143 519.634V558.892L-143.071 578.521V539.263L-109.143 519.634ZM-143.071 581.377L-109.143 601.006V640.264L-143.071 620.635V581.377ZM-142.357 579.949L-108.429 560.32L-74.5 579.949L-108.429 599.578L-142.357 579.949ZM-107.357 601.006L-73.4286 581.377V620.635L-107.357 640.264V601.006ZM-107.357 558.892V519.634L-101.286 523.203L-73.4286 539.263V578.521L-107.357 558.892ZM-100.214 521.419L-106.286 517.85L-72.3571 498.221L-38.4286 517.85L-72.3571 537.479L-100.214 521.419ZM-37.3571 519.634V558.892L-71.2857 578.521V539.263L-37.3571 519.634ZM-71.2857 581.377L-37.3571 601.006V640.264L-71.2857 620.635V581.377ZM-70.5714 579.949L-36.6429 560.32L-2.71429 579.949L-36.6429 599.578L-70.5714 579.949ZM-35.5714 601.006L-1.64282 581.377V620.635L-35.5714 640.264V601.006ZM-35.5714 558.892V519.634L-29.5 523.203L-1.64282 539.263V578.521L-35.5714 558.892ZM-28.4285 521.419L-34.5 517.85L-0.571472 498.221L33.3571 517.85L-0.571472 537.479L-28.4285 521.419ZM34.4285 519.634V558.892L0.5 578.521V539.263L34.4285 519.634ZM0.142883 581.377L34.0715 601.006V640.264L0.142883 620.635V581.377ZM1.21423 579.949L35.1428 560.32L69.0714 579.949L35.1428 599.578L1.21423 579.949ZM36.2143 601.006L70.1428 581.377V620.635L36.2143 640.264V601.006ZM36.2143 558.892V519.634L42.2857 523.203L70.1428 539.263V578.521L36.2143 558.892ZM43 521.419L36.9285 517.85L70.8571 498.221L104.786 517.85L70.8571 537.479L43 521.419ZM105.857 519.634V558.892L71.9285 578.521V539.263L105.857 519.634ZM71.9285 581.377L105.857 601.006V640.264L71.9285 620.635V581.377ZM73 579.949L106.929 560.32L140.857 579.949L106.929 599.578L73 579.949ZM107.643 601.006L141.571 581.377V620.635L107.643 640.264V601.006ZM107.643 558.892V519.634L113.714 523.203L141.571 539.263V578.521L107.643 558.892ZM114.786 521.419L108.714 517.85L142.643 498.221L176.571 517.85L142.643 537.479L114.786 521.419ZM177.643 519.634V558.892L143.714 578.521V539.263L177.643 519.634ZM143.714 581.377L177.643 601.006V640.264L143.714 620.635V581.377ZM144.429 579.949L178.357 560.32L212.286 579.949L178.357 599.578L144.429 579.949ZM179.429 601.006L213.357 581.377V620.635L179.429 640.264V601.006ZM179.429 558.892V519.634L185.5 523.203L213.357 539.263V578.521L179.429 558.892ZM186.571 521.419L180.5 517.85L214.429 498.221L248.357 517.85L214.429 537.479L186.571 521.419ZM249.429 519.634V558.892L215.5 578.521V539.263L249.429 519.634ZM215.143 581.377L249.071 601.006V640.264L215.143 620.635V581.377ZM216.214 579.949L250.143 560.32L284.071 579.949L250.143 599.578L216.214 579.949ZM251.214 601.006L285.143 581.377V620.635L251.214 640.264V601.006ZM251.214 558.892V519.634L257.286 523.203L285.143 539.263V578.521L251.214 558.892ZM258 521.419L251.929 517.85L285.857 498.221L319.786 517.85L285.857 537.479L258 521.419ZM320.857 519.634V558.892L286.929 578.521V539.263L320.857 519.634ZM286.929 581.377L320.857 601.006V640.264L286.929 620.635V581.377ZM288 579.949L321.929 560.32L355.857 579.949L321.929 599.578L288 579.949ZM322.643 601.006L356.571 581.377V620.635L322.643 640.264V601.006ZM322.643 558.892V519.634L328.714 523.203L356.571 539.263V578.521L322.643 558.892ZM329.786 521.419L323.714 517.85L357.643 498.221L391.571 517.85L357.643 537.479L329.786 521.419ZM392.643 519.634V558.892L358.714 578.521V539.263L392.643 519.634ZM358.714 581.377L392.643 601.006V640.264L358.714 620.635V581.377ZM359.429 579.949L393.357 560.32L427.286 579.949L393.357 599.578L359.429 579.949ZM394.429 601.006L428.357 581.377V620.635L394.429 640.264V601.006ZM394.429 558.892V519.634L400.5 523.203L428.357 539.263V578.521L394.429 558.892ZM401.571 521.419L395.5 517.85L429.428 498.221L463.357 517.85L429.428 537.479L401.571 521.419ZM464.429 519.634V558.892L430.5 578.521V539.263L464.429 519.634ZM430.143 581.377L464.071 601.006V640.264L430.143 620.635V581.377ZM431.214 579.949L465.143 560.32L499.071 579.949L465.143 599.578L431.214 579.949ZM466.214 601.006L500.143 581.377V620.635L466.214 640.264V601.006ZM466.214 558.892V519.634L472.286 523.203L500.143 539.263V578.521L466.214 558.892ZM473 521.419L466.928 517.85L500.857 498.221L534.786 517.85L500.857 537.479L473 521.419ZM535.857 519.634V558.892L501.929 578.521V539.263L535.857 519.634ZM501.929 581.377L535.857 601.006V640.264L501.929 620.635V581.377ZM503 579.949L536.929 560.32L570.857 579.949L536.929 599.578L503 579.949ZM537.643 601.006L571.571 581.377V620.635L537.643 640.264V601.006ZM537.643 558.892V519.634L543.714 523.203L571.571 539.263V578.521L537.643 558.892ZM544.786 521.419L538.714 517.85L572.643 498.221L606.571 517.85L572.643 537.479L544.786 521.419ZM607.643 519.634V558.892L573.714 578.521V539.263L607.643 519.634ZM573.714 581.377L607.643 601.006V640.264L573.714 620.635V581.377ZM574.429 579.949L608.357 560.32L642.286 579.949L608.714 599.578L574.429 579.949ZM609.429 601.006L643.357 581.377V620.635L609.429 640.264V601.006ZM609.429 558.892V519.634L615.5 523.203L643.357 539.263V578.521L609.429 558.892ZM616.571 521.419L610.5 517.85L644.429 498.221L678.357 517.85L644.429 537.479L616.571 521.419ZM679.428 519.634V558.892L645.5 578.521V539.263L679.428 519.634ZM645.143 581.377L679.071 601.006V640.264L645.143 620.635V581.377ZM646.214 579.949L680.143 560.32L714.071 579.949L680.143 599.578L646.214 579.949ZM681.214 601.006L715.143 581.377V620.635L681.214 640.264V601.006ZM681.214 558.892V519.634L687.286 523.203L715.143 539.263V578.521L681.214 558.892ZM688 521.419L681.929 517.85L715.857 498.221L749.786 517.85L715.857 537.479L688 521.419ZM751.214 519.634V558.892L717.286 578.521V539.263L751.214 519.634ZM716.928 581.377L750.857 601.006V640.264L716.928 620.635V581.377ZM718 579.949L751.929 560.32L785.857 579.949L751.929 599.578L718 579.949ZM753 601.006L786.929 581.377V620.635L753 640.264V601.006ZM753 558.892V519.634L759.071 523.203L786.929 539.263V578.521L753 558.892ZM759.786 521.419L753.714 517.85L787.643 498.221L821.571 517.85L787.643 537.479L759.786 521.419ZM822.643 519.634V558.892L788.714 578.521V539.263L822.643 519.634ZM788.714 581.377L822.643 601.006V640.264L788.714 620.635V581.377ZM789.429 579.949L823.357 560.32L857.286 579.949L823.357 599.578L789.429 579.949ZM824.429 601.006L858.357 581.377V620.635L824.429 640.264V601.006ZM824.429 558.892V519.634L830.5 523.203L858.357 539.263V578.521L824.429 558.892ZM831.571 521.419L825.5 517.85L859.429 498.221L893.357 517.85L859.429 537.479L831.571 521.419ZM894.429 519.634V558.892L860.5 578.521V539.263L894.429 519.634ZM860.5 581.377L894.429 601.006V640.264L860.5 620.635V581.377ZM861.214 579.949L895.143 560.32L929.071 579.949L895.143 599.578L861.214 579.949ZM896.214 601.006L930.143 581.377V620.635L896.214 640.264V601.006ZM896.214 558.892V519.634L902.286 523.203L930.143 539.263V578.521L896.214 558.892ZM903 521.419L896.929 517.85L930.857 498.221L964.786 517.85L930.857 537.479L903 521.419ZM966.214 519.634V558.892L932.286 578.521V539.263L966.214 519.634ZM931.929 581.377L965.857 601.006V640.264L931.929 620.635V581.377ZM933 579.949L966.928 560.32L1000.86 579.949L966.928 599.578L933 579.949ZM968 601.006L1001.93 581.377V620.635L968 640.264V601.006ZM968 558.892V519.634L974.071 523.203L1001.93 539.263V578.521L968 558.892ZM968 477.164L1001.93 457.535V496.793L968 516.422V477.164ZM968 434.694V395.436L1001.93 415.065V454.323L968 434.694ZM998.357 330.125L1001.21 331.909L967.286 351.538L933.357 331.909L967.286 312.28L998.357 330.125ZM968 310.496V271.238L1001.93 290.867V330.125L999.071 328.34L968 310.496ZM1001.93 333.337V372.595L968 392.224V352.966L1001.93 333.337ZM931.929 330.125V290.867L965.857 271.238V310.496L931.929 330.125ZM966.214 268.383L960.143 264.814L932.286 248.754V209.495L966.214 229.124V268.383ZM963 268.739L965.143 269.81L931.214 289.439L897.286 269.81L931.214 250.181L963 268.739ZM930.143 248.754L896.214 268.383V229.124L930.143 209.495V248.754ZM930.143 290.867V330.125L927.286 328.34L895.857 310.139V271.238L930.143 290.867ZM926.571 330.125L929.428 331.909L895.5 351.538L861.571 331.909L895.5 312.28L926.571 330.125ZM860.5 330.125V290.867L894.429 271.238V310.496L860.5 330.125ZM894.429 268.383L888.357 264.814L860.5 248.754V209.495L894.429 229.124V268.383ZM891.571 268.739L893.714 269.81L859.786 289.439L825.857 269.81L859.786 250.181L891.571 268.739ZM858.714 248.754L824.786 268.383V229.124L858.714 209.495V248.754ZM858.714 290.867V330.125L855.857 328.34L824.786 310.139V271.238L858.714 290.867ZM854.786 330.125L857.643 331.909L823.714 351.538L789.786 331.909L823.714 312.28L854.786 330.125ZM788.714 330.125V290.867L822.643 271.238V310.496L788.714 330.125ZM822.643 268.383L816.571 264.814L788.714 248.754V209.495L822.643 229.124V268.383ZM819.786 268.739L821.929 269.81L788 289.439L754.071 269.81L788 250.181L819.786 268.739ZM786.929 248.754L753 268.383V229.124L786.929 209.495V248.754ZM786.929 290.867V330.125L784.071 328.34L752.643 310.139V271.238L786.929 290.867ZM783.357 330.125L786.214 331.909L752.286 351.538L718.357 331.909L752.286 312.28L783.357 330.125ZM716.928 330.125V290.867L750.857 271.238V310.496L716.928 330.125ZM751.214 268.383L745.143 264.814L717.286 248.754V209.495L751.214 229.124V268.383ZM748 268.739L750.143 269.81L716.214 289.439L682.286 269.81L716.214 250.181L748 268.739ZM715.143 248.754L681.214 268.383V229.124L715.143 209.495V248.754ZM715.143 290.867V330.125L712.286 328.34L681.214 310.139V271.238L715.143 290.867ZM711.571 330.125L714.429 331.909L680.5 351.538L646.571 331.909L680.5 312.28L711.571 330.125ZM645.143 330.125V290.867L679.071 271.238V310.496L645.143 330.125ZM679.428 268.383L673.357 264.814L645.5 248.754V209.495L679.428 229.124V268.383ZM676.571 268.739L678.714 269.81L644.786 289.439L610.857 269.81L644.786 250.181L676.571 268.739ZM643.357 248.754L609.429 268.383V229.124L643.357 209.495V248.754ZM643.357 290.867V330.125L640.5 328.34L609.429 310.139V271.238L643.357 290.867ZM639.786 330.125L642.643 331.909L608.714 351.538L574.786 331.909L608.714 312.28L639.786 330.125ZM573.714 330.125V290.867L607.643 271.238V310.496L573.714 330.125ZM607.643 268.383L601.571 264.814L573.714 248.754V209.495L607.643 229.124V268.383ZM604.786 268.739L606.929 269.81L573 289.439L539.071 269.81L573 250.181L604.786 268.739ZM571.929 248.754L538 268.383V229.124L571.929 209.495V248.754ZM571.929 290.867V330.125L569.071 328.34L537.643 310.139V271.238L571.929 290.867ZM568 330.125L570.857 331.909L536.929 351.538L503 331.909L536.929 312.28L568 330.125ZM501.929 330.125V290.867L535.857 271.238V310.496L501.929 330.125ZM535.857 268.383L529.786 264.814L501.929 248.754V209.495L535.857 229.124V268.383ZM533 268.739L535.143 269.81L501.214 289.439L467.286 269.81L501.214 250.181L533 268.739ZM500.143 248.754L466.214 268.383V229.124L500.143 209.495V248.754ZM500.143 290.867V330.125L497.286 328.34L466.214 310.139V271.238L500.143 290.867ZM496.571 330.125L499.429 331.909L465.5 351.538L431.571 331.909L465.5 312.28L496.571 330.125ZM430.143 330.125V290.867L464.071 271.238V310.496L430.143 330.125ZM464.429 268.383L458.357 264.814L430.5 248.754V209.495L464.429 229.124V268.383ZM461.571 268.739L463.714 269.81L429.786 289.439L395.857 269.81L429.786 250.181L461.571 268.739ZM428.357 248.754L394.429 268.383V229.124L428.357 209.495V248.754ZM428.357 290.867V330.125L425.5 328.34L394.429 310.496V271.238L428.357 290.867ZM424.786 330.125L427.643 331.909L393.714 351.538L359.786 331.909L393.714 312.28L424.786 330.125ZM358.714 330.125V290.867L392.643 271.238V310.496L358.714 330.125ZM392.643 268.383L386.571 264.814L358.714 248.754V209.495L392.643 229.124V268.383ZM389.786 268.739L391.928 269.81L358 289.439L324.071 269.81L358 250.181L389.786 268.739ZM356.929 248.754L323 268.383V229.124L356.929 209.495V248.754ZM356.929 290.867V330.125L354.071 328.34L323 310.139V271.238L356.929 290.867ZM353 330.125L355.857 331.909L321.929 351.538L288 331.909L321.929 312.28L353 330.125ZM286.929 330.125V290.867L320.857 271.238V310.496L286.929 330.125ZM320.857 268.383L314.786 264.814L286.929 248.754V209.495L320.857 229.124V268.383ZM318 268.739L320.143 269.81L286.214 289.439L252.286 269.81L286.214 250.181L318 268.739ZM285.143 248.754L251.214 268.383V229.124L285.143 209.495V248.754ZM285.143 290.867V330.125L282.286 328.34L250.857 310.139V271.238L285.143 290.867ZM281.571 330.125L284.429 331.909L250.5 351.538L216.571 331.909L250.5 312.28L281.571 330.125ZM215.143 330.125V290.867L249.071 271.238V310.496L215.143 330.125ZM249.429 268.383L243.357 264.814L215.5 248.754V209.495L249.429 229.124V268.383ZM246.571 268.739L248.714 269.81L214.786 289.439L180.857 269.81L214.786 250.181L246.571 268.739ZM213.357 248.754L179.429 268.383V229.124L213.357 209.495V248.754ZM213.357 290.867V330.125L210.5 328.34L179.429 310.139V271.238L213.357 290.867ZM209.786 330.125L212.643 331.909L178.714 351.538L144.429 331.909L178.357 312.28L209.786 330.125ZM143.714 330.125V290.867L177.643 271.238V310.496L143.714 330.125ZM177.643 268.383L171.571 264.814L143.714 248.754V209.495L177.643 229.124V268.383ZM174.786 268.739L176.929 269.81L143 289.439L109.071 269.81L143 250.181L174.786 268.739ZM141.929 248.754L108 268.383V229.124L141.929 209.495V248.754ZM141.929 290.867V330.125L139.071 328.34L108 310.139V271.238L141.929 290.867ZM138 330.125L140.857 331.909L106.929 351.538L73 331.909L106.929 312.28L138 330.125ZM71.9285 330.125V290.867L105.857 271.238V310.496L71.9285 330.125ZM105.857 268.383L99.7857 264.814L71.9285 248.754V209.495L105.857 229.124V268.383ZM103 268.739L105.143 269.81L71.2143 289.439L37.2857 269.81L71.2143 250.181L103 268.739ZM70.1428 248.754L36.2143 268.383V229.124L70.1428 209.495V248.754ZM70.1428 290.867V330.125L67.2857 328.34L35.8572 310.139V271.238L70.1428 290.867ZM66.5714 330.125L69.4286 331.909L35.5 351.538L1.57141 331.909L35.5 312.28L66.5714 330.125ZM0.142883 330.125V290.867L34.0715 271.238V310.496L0.142883 330.125ZM34.4285 268.383L28.3571 264.814L0.5 248.754V209.495L34.4285 229.124V268.383ZM31.2143 268.739L33.3571 269.81L-0.571472 289.439L-34.5 269.81L-0.571472 250.181L31.2143 268.739ZM-1.64282 248.754L-35.5714 268.383V229.124L-1.64282 209.495V248.754ZM-1.64282 290.867V330.125L-4.5 328.34L-35.5714 310.139V271.238L-1.64282 290.867ZM-5.21429 330.125L-2.35718 331.909L-36.2858 351.538L-70.2143 331.909L-36.2858 312.28L-5.21429 330.125ZM-71.2857 330.125V290.867L-37.3571 271.238V310.496L-71.2857 330.125ZM-37.3571 268.383L-43.4286 264.814L-71.2857 248.754V209.495L-37.3571 229.124V268.383ZM-40.2143 268.739L-38.0715 269.81L-72 289.439L-105.929 269.81L-72 250.181L-40.2143 268.739ZM-73.0714 248.754L-107 268.383V229.124L-73.0714 209.495V248.754ZM-73.0714 290.867V330.125L-75.9286 328.34L-107.357 310.139V271.238L-73.0714 290.867ZM-77 330.125L-74.1428 331.909L-108.071 351.538L-142 331.909L-108.071 312.28L-77 330.125ZM-143.071 330.125V290.867L-109.143 271.238V310.496L-143.071 330.125ZM-109.143 268.383L-115.214 264.814L-143.071 248.754V209.495L-109.143 229.124V268.383ZM-112 268.739L-109.857 269.81L-143.786 289.439L-177.714 269.81L-143.786 250.181L-112 268.739ZM-144.857 248.754L-178.786 268.383V229.124L-144.857 209.495V248.754ZM-144.857 290.867V330.125L-147.714 328.34L-178.786 310.139V271.238L-144.857 290.867ZM-148.429 330.125L-145.571 331.909L-179.5 351.538L-213.429 331.909L-179.5 312.28L-148.429 330.125ZM-214.857 330.125V290.867L-180.571 271.238V310.496L-214.857 330.125ZM-180.571 268.383L-186.643 264.814L-214.5 248.754V209.495L-180.571 229.124V268.383ZM-183.786 268.739L-181.643 269.81L-215.571 289.439L-249.5 269.81L-215.571 250.181L-183.786 268.739ZM-216.643 248.754L-250.571 268.383V229.124L-216.643 209.495V248.754ZM-216.643 290.867V330.125L-219.5 328.34L-250.571 310.139V271.238L-216.643 290.867ZM-220.214 330.125L-217.357 331.909L-251.286 351.538L-285.214 331.909L-251.286 312.28L-220.214 330.125ZM-286.286 330.125V290.867L-252.357 271.238V310.496L-286.286 330.125ZM-252.357 268.383L-258.429 264.814L-286.286 248.754V209.495L-252.357 229.124V268.383ZM-255.214 268.739L-253.071 269.81L-287 289.439L-320.929 269.81L-287 250.181L-255.214 268.739ZM-288.071 248.754L-322 268.383V229.124L-288.071 209.495V248.754ZM-288.071 290.867V330.125L-290.929 328.34L-322.357 310.139V271.238L-288.071 290.867ZM-292 330.125L-289.143 331.909L-323.071 351.538L-357 331.909L-323.071 312.28L-292 330.125ZM-358.071 330.125V290.867L-324.143 271.238V310.496L-358.071 330.125ZM-324.143 268.383L-330.214 264.814L-358.071 248.754V209.495L-324.143 229.124V268.383ZM-327 268.739L-324.857 269.81L-358.786 289.439L-392.714 269.81L-358.786 250.181L-327 268.739ZM-359.857 248.754L-393.786 268.383V229.124L-359.857 209.495V248.754ZM-359.857 290.867V330.125L-362.714 328.34L-393.786 310.139V271.238L-359.857 290.867ZM-363.429 330.125L-360.571 331.909L-394.5 351.538L-428.786 331.909L-394.857 312.28L-363.429 330.125ZM-429.857 330.125V290.867L-395.929 271.238V310.496L-429.857 330.125ZM-395.571 268.383L-401.643 264.814L-429.5 248.754V209.495L-395.571 229.124V268.383ZM-398.786 268.739L-396.643 269.81L-430.571 289.439L-464.5 269.81L-430.571 250.181L-398.786 268.739ZM-431.643 248.754L-465.571 268.383V229.124L-431.643 209.495V248.754ZM-431.643 290.867V330.125L-434.5 328.34L-465.571 310.496V271.238L-431.643 290.867ZM-435.214 330.125L-432.357 331.909L-466.286 351.538L-500.571 331.909L-466.643 312.28L-435.214 330.125ZM-501.286 330.125V290.867L-467.357 271.238V310.496L-501.286 330.125ZM-467.357 268.383L-473.429 264.814L-501.286 248.754V209.495L-467.357 229.124V268.383ZM-470.214 268.739L-468.071 269.81L-502 289.439L-535.929 269.81L-502 250.181L-470.214 268.739ZM-503.071 248.754L-537 268.383V229.124L-503.071 209.495V248.754ZM-503.071 290.867V330.125L-505.929 328.34L-537.357 310.496V271.238L-503.071 290.867ZM-507 330.125L-504.143 331.909L-538.071 351.538L-572.357 331.909L-538.429 312.28L-507 330.125ZM-573.071 330.125V290.867L-539.143 271.238V310.496L-573.071 330.125ZM-539.143 268.383L-545.214 264.814L-573.071 248.754V209.495L-539.143 229.124V268.383ZM-542 268.739L-539.857 269.81L-573.786 289.439L-607.714 269.81L-573.786 250.181L-542 268.739ZM-574.857 248.754L-608.786 268.383V229.124L-574.857 209.495V248.754ZM-574.857 290.867V330.125L-577.714 328.34L-608.786 310.496V271.238L-574.857 290.867ZM-578.429 330.125L-575.571 331.909L-609.5 351.538L-643.786 331.909L-609.857 312.28L-578.429 330.125ZM-644.857 330.125V290.867L-610.929 271.238V310.496L-644.857 330.125ZM-610.571 268.383L-616.643 264.814L-644.857 248.754V209.495L-610.929 229.124V268.383H-610.571ZM-613.786 268.739L-611.643 269.81L-645.571 289.439L-679.5 269.81L-645.571 250.181L-613.786 268.739ZM-646.643 248.754L-680.571 268.383V229.124L-646.643 209.495V248.754ZM-646.643 290.867V330.125L-649.5 328.34L-680.571 310.496V271.238L-646.643 290.867ZM-650.214 330.125L-647.357 331.909L-681.286 351.538L-715.571 331.909L-681.643 312.28L-650.214 330.125ZM-647.357 455.751L-681.286 475.38L-709.143 459.32L-715.214 455.751L-681.286 436.122L-647.357 455.751ZM-647.357 579.949L-681.286 599.578L-715.214 579.949L-681.286 560.32L-647.357 579.949ZM-646.643 581.377V620.635L-680.571 640.264V601.006L-646.643 581.377ZM-649.5 702.72L-647.357 703.79L-681.286 723.419L-715.214 703.79L-681.286 684.161L-649.5 702.72ZM-680.571 725.204L-646.643 705.575V744.833L-680.571 764.462V725.204ZM-652.714 698.794L-680.571 682.734V643.476L-646.643 663.105V702.363L-652.714 698.794ZM-679.857 642.048L-645.929 622.419L-612 642.048L-645.929 661.677L-679.857 642.048ZM-610.571 643.476V682.734L-644.5 702.363V663.105L-610.571 643.476ZM-644.857 705.575L-610.929 725.204V764.462L-613.786 762.678L-645.214 744.476V705.575H-644.857ZM-643.786 704.147L-609.857 684.518L-577.714 703.077L-575.571 704.147L-609.5 723.776L-643.786 704.147ZM-608.786 725.204L-574.857 705.575V744.833L-608.786 764.462V725.204ZM-580.929 698.794L-608.786 682.734V643.476L-574.857 663.105V702.363L-580.929 698.794ZM-608.071 642.048L-574.143 622.419L-540.214 642.048L-574.143 661.677L-608.071 642.048ZM-539.143 643.476V682.734L-573.071 702.363V663.105L-539.143 643.476ZM-573.071 705.575L-539.143 725.204V764.462L-542 762.678L-573.071 744.476V705.575ZM-572.357 704.147L-538.429 684.518L-506.286 703.077L-504.143 704.147L-538.071 723.776L-572.357 704.147ZM-537.357 725.204L-503.429 705.575V744.833L-537.357 764.462V725.204ZM-509.5 698.794L-537.357 682.734V643.476L-503.429 663.105V702.363L-509.5 698.794ZM-536.286 642.048L-502.357 622.419L-468.429 642.048L-502.357 661.677L-536.286 642.048ZM-467.357 643.476V682.734L-501.286 702.363V663.105L-467.357 643.476ZM-501.286 705.575L-467.357 725.204V764.462L-470.214 762.678L-501.643 744.476V705.575H-501.286ZM-500.571 704.147L-466.643 684.518L-434.5 703.077L-432.357 704.147L-466.286 723.776L-500.571 704.147ZM-465.571 725.204L-431.643 705.575V744.833L-465.571 764.462V725.204ZM-437.714 698.794L-465.571 682.734V643.476L-431.643 663.105V702.363L-437.714 698.794ZM-464.857 642.048L-430.929 622.419L-397 642.048L-430.929 661.677L-464.857 642.048ZM-395.571 643.476V682.734L-429.5 702.363V663.105L-395.571 643.476ZM-429.857 705.575L-395.929 725.204V764.462L-398.786 762.678L-429.857 744.476V705.575ZM-428.786 704.147L-394.857 684.518L-362.714 703.077L-360.571 704.147L-394.5 723.776L-428.786 704.147ZM-393.786 725.204L-359.857 705.575V744.833L-393.786 764.462V725.204ZM-365.929 698.794L-393.786 682.734V643.476L-359.857 663.105V702.363L-365.929 698.794ZM-393.071 642.048L-359.143 622.419L-325.214 642.048L-359.143 661.677L-393.071 642.048ZM-324.143 643.476V682.734L-358.071 702.363V663.105L-324.143 643.476ZM-358.071 705.575L-324.143 725.204V764.462L-327 762.678L-358.071 744.476V705.575ZM-357.357 704.147L-323.429 684.518L-291.286 703.077L-289.143 704.147L-323.071 723.776L-357.357 704.147ZM-322.357 725.204L-288.429 705.575V744.833L-322.357 764.462V725.204ZM-294.143 698.794L-322 682.734V643.476L-288.071 663.105V702.363L-294.143 698.794ZM-321.286 642.048L-287.357 622.419L-253.429 642.048L-287.357 661.677L-321.286 642.048ZM-252.357 643.476V682.734L-286.286 702.363V663.105L-252.357 643.476ZM-286.286 705.575L-252.357 725.204V764.462L-255.214 762.678L-286.643 744.476V705.575H-286.286ZM-285.571 704.147L-251.643 684.518L-219.5 703.077L-217.357 704.147L-251.286 723.776L-285.571 704.147ZM-250.571 725.204L-216.643 705.575V744.833L-250.571 764.462V725.204ZM-222.714 698.794L-250.571 682.734V643.476L-216.643 663.105V702.363L-222.714 698.794ZM-249.857 642.048L-215.929 622.419L-182 642.048L-215.929 661.677L-249.857 642.048ZM-180.571 643.476V682.734L-214.5 702.363V663.105L-180.571 643.476ZM-214.857 705.575L-180.929 725.204V764.462L-183.786 762.678L-214.857 744.476V705.575ZM-213.786 704.147L-179.857 684.518L-147.714 703.077L-145.571 704.147L-179.5 723.776L-213.786 704.147ZM-178.786 725.204L-144.857 705.575V744.833L-178.786 764.462V725.204ZM-150.929 698.794L-178.786 682.734V643.476L-144.857 663.105V702.363L-150.929 698.794ZM-178.071 642.048L-144.143 622.419L-110.214 642.048L-144.143 661.677L-178.071 642.048ZM-109.143 643.476V682.734L-143.071 702.363V663.105L-109.143 643.476ZM-143.071 705.575L-109.143 725.204V764.462L-112 762.678L-143.429 744.476V705.575H-143.071ZM-142.357 704.147L-108.429 684.518L-76.2857 703.077L-74.1428 704.147L-108.071 723.776L-142.357 704.147ZM-107.357 725.204L-73.4286 705.575V744.833L-107.357 764.462V725.204ZM-79.1429 698.794L-107 682.734V643.476L-73.0714 663.105V702.363L-79.1429 698.794ZM-106.286 642.048L-72.3571 622.419L-38.4286 642.048L-72.3571 661.677L-106.286 642.048ZM-37.3571 643.476V682.734L-71.2857 702.363V663.105L-37.3571 643.476ZM-71.2857 705.575L-37.3571 725.204V764.462L-40.2143 762.678L-71.2857 744.476V705.575ZM-70.5714 704.147L-36.6429 684.518L-4.5 703.077L-2.35718 704.147L-36.2858 723.776L-70.5714 704.147ZM-35.5714 725.204L-1.64282 705.575V744.833L-35.5714 764.462V725.204ZM-7.71429 698.794L-35.5714 682.734V643.476L-1.64282 663.105V702.363L-7.71429 698.794ZM-34.5 642.048L-0.571472 622.419L33.3571 642.048L-0.571472 661.677L-34.5 642.048ZM34.4285 643.476V682.734L0.5 702.363V663.105L34.4285 643.476ZM0.142883 705.575L34.0715 725.204V764.462L31.2143 762.678L0.142883 744.476V705.575ZM1.21423 704.147L35.1428 684.518L67.2857 703.077L69.4286 704.147L35.5 723.776L1.21423 704.147ZM36.2143 725.204L70.1428 705.575V744.833L36.2143 764.462V725.204ZM64.0714 698.794L36.2143 682.734V643.476L70.1428 663.105V702.363L64.0714 698.794ZM36.9285 642.048L70.8571 622.419L104.786 642.048L70.8571 661.677L36.9285 642.048ZM105.857 643.476V682.734L71.9285 702.363V663.105L105.857 643.476ZM71.9285 705.575L105.857 725.204V764.462L103 762.678L71.5715 744.476V705.575H71.9285ZM73 704.147L106.929 684.518L139.071 703.077L141.214 704.147L107.286 723.776L73 704.147ZM107.643 725.204L141.571 705.575V744.833L107.643 764.462V725.204ZM135.857 698.794L108 682.734V643.476L141.929 663.105V702.363L135.857 698.794ZM108.714 642.048L142.643 622.419L176.571 642.048L142.643 661.677L108.714 642.048ZM177.643 643.476V682.734L143.714 702.363V663.105L177.643 643.476ZM143.714 705.575L177.643 725.204V764.462L174.786 762.678L143.714 744.476V705.575ZM144.429 704.147L178.357 684.518L210.5 703.077L212.643 704.147L178.714 723.776L144.429 704.147ZM179.429 725.204L213.357 705.575V744.833L179.429 764.462V725.204ZM207.286 698.794L179.429 682.734V643.476L213.357 663.105V702.363L207.286 698.794ZM180.5 642.048L214.429 622.419L248.357 642.048L214.429 661.677L180.5 642.048ZM249.429 643.476V682.734L215.5 702.363V663.105L249.429 643.476ZM215.143 705.575L249.071 725.204V764.462L246.214 762.678L214.786 744.476V705.575H215.143ZM216.214 704.147L250.143 684.518L282.286 703.077L284.429 704.147L250.5 723.776L216.214 704.147ZM251.214 725.204L285.143 705.575V744.833L251.214 764.462V725.204ZM279.071 698.794L251.214 682.734V643.476L285.143 663.105V702.363L279.071 698.794ZM251.929 642.048L285.857 622.419L319.786 642.048L285.857 661.677L251.929 642.048ZM320.857 643.476V682.734L286.929 702.363V663.105L320.857 643.476ZM286.929 705.575L320.857 725.204V764.462L318 762.678L286.929 744.476V705.575ZM288 704.147L321.929 684.518L354.071 703.077L356.214 704.147L322.286 723.776L288 704.147ZM322.643 725.204L356.571 705.575V744.833L322.643 764.462V725.204ZM350.857 698.794L323 682.734V643.476L356.929 663.105V702.363L350.857 698.794ZM323.714 642.048L357.643 622.419L391.571 642.048L357.643 661.677L323.714 642.048ZM392.643 643.476V682.734L358.714 702.363V663.105L392.643 643.476ZM358.714 705.575L392.643 725.204V764.462L389.786 762.678L358.714 744.476V705.575ZM359.429 704.147L393.357 684.518L425.5 703.077L427.643 704.147L393.714 723.776L359.429 704.147ZM394.429 725.204L428.357 705.575V744.833L394.429 764.462V725.204ZM422.286 698.794L394.429 682.734V643.476L428.357 663.105V702.363L422.286 698.794ZM395.5 642.048L429.428 622.419L463.357 642.048L429.428 661.677L395.5 642.048ZM464.429 643.476V682.734L430.5 702.363V663.105L464.429 643.476ZM430.143 705.575L464.071 725.204V764.462L461.214 762.678L429.786 744.476V705.575H430.143ZM431.214 704.147L465.143 684.518L497.286 703.077L499.429 704.147L465.5 723.776L431.214 704.147ZM466.214 725.204L500.143 705.575V744.833L466.214 764.462V725.204ZM494.071 698.794L466.214 682.734V643.476L500.143 663.105V702.363L494.071 698.794ZM466.928 642.048L500.857 622.419L534.786 642.048L500.857 661.677L466.928 642.048ZM535.857 643.476V682.734L501.929 702.363V663.105L535.857 643.476ZM501.929 705.575L535.857 725.204V764.462L533 762.678L501.929 744.476V705.575ZM503 704.147L536.929 684.518L569.071 703.077L571.214 704.147L537.286 723.776L503 704.147ZM537.643 725.204L571.571 705.575V744.833L537.643 764.462V725.204ZM565.857 698.794L538 682.734V643.476L571.929 663.105V702.363L565.857 698.794ZM538.714 642.048L572.643 622.419L606.571 642.048L572.643 661.677L538.714 642.048ZM607.643 643.476V682.734L573.714 702.363V663.105L607.643 643.476ZM573.714 705.575L607.643 725.204V764.462L604.786 762.678L573.357 744.476V705.575H573.714ZM574.429 704.147L608.357 684.518L640.5 703.077L642.643 704.147L608.714 723.776L574.429 704.147ZM609.429 725.204L643.357 705.575V744.833L609.429 764.462V725.204ZM637.286 698.794L609.429 682.734V643.476L643.357 663.105V702.363L637.286 698.794ZM610.5 642.048L644.429 622.419L678.357 642.048L644.429 661.677L610.5 642.048ZM679.428 643.476V682.734L645.5 702.363V663.105L679.428 643.476ZM645.143 705.575L679.071 725.204V764.462L676.214 762.678L645.143 744.476V705.575ZM646.214 704.147L680.143 684.518L712.286 703.077L714.429 704.147L680.5 723.776L646.214 704.147ZM681.214 725.204L715.143 705.575V744.833L681.214 764.462V725.204ZM709.071 698.794L681.214 682.734V643.476L715.143 663.105V702.363L709.071 698.794ZM681.929 642.048L715.857 622.419L749.786 642.048L715.857 661.677L681.929 642.048ZM751.214 643.476V682.734L717.286 702.363V663.105L751.214 643.476ZM716.928 705.575L750.857 725.204V764.462L748 762.678L716.571 744.476V705.575H716.928ZM718 704.147L751.929 684.518L784.071 703.077L786.214 704.147L752.286 723.776L718 704.147ZM753 725.204L786.929 705.575V744.833L753 764.462V725.204ZM780.857 698.794L753 682.734V643.476L786.929 663.105V702.363L780.857 698.794ZM753.714 642.048L787.643 622.419L821.571 642.048L787.643 661.677L753.714 642.048ZM822.643 643.476V682.734L788.714 702.363V663.105L822.643 643.476ZM788.714 705.575L822.643 725.204V764.462L819.786 762.678L788.714 744.476V705.575ZM789.429 704.147L823.357 684.518L855.5 703.077L857.643 704.147L823.714 723.776L789.429 704.147ZM824.429 725.204L858.357 705.575V744.833L824.429 764.462V725.204ZM852.286 698.794L824.429 682.734V643.476L858.357 663.105V702.363L852.286 698.794ZM825.5 642.048L859.429 622.419L893.357 642.048L859.429 661.677L825.5 642.048ZM894.429 643.476V682.734L860.5 702.363V663.105L894.429 643.476ZM860.5 705.575L894.429 725.204V764.462L891.571 762.678L860.5 744.476V705.575ZM861.214 704.147L895.143 684.518L927.286 703.077L929.428 704.147L895.5 723.776L861.214 704.147ZM896.214 725.204L930.143 705.575V744.833L896.214 764.462V725.204ZM924.071 698.794L896.214 682.734V643.476L930.143 663.105V702.363L924.071 698.794ZM896.929 642.048L930.857 622.419L964.786 642.048L930.857 661.677L896.929 642.048ZM966.214 643.476V682.734L932.286 702.363V663.105L966.214 643.476ZM931.929 705.575L965.857 725.204V764.462L963 762.678L931.571 744.476V705.575H931.929ZM933 704.147L966.928 684.518L999.071 703.077L1001.21 704.147L967.286 723.776L933 704.147ZM968 725.204L1001.93 705.575V744.833L968 764.462V725.204ZM995.857 698.794L968 682.734V643.476L1001.93 663.105V702.363L995.857 698.794ZM968.714 642.048L1002.64 622.419L1036.57 642.048L1002.64 661.677L968.714 642.048ZM974.786 521.419L968.714 517.85L1002.64 498.221L1036.57 517.85L1002.64 537.479L974.786 521.419ZM968.714 394.008L1002.64 374.379L1036.57 394.008L1002.64 413.637L968.714 394.008ZM968.714 269.81L1002.64 250.181L1036.57 269.81L1002.64 289.439L968.714 269.81ZM968 268.383V229.124L1001.93 209.495V248.754L968 268.383ZM968.714 145.612L1002.64 125.983L1036.57 145.612L1002.64 165.241L968.714 145.612ZM1001.93 124.555L968 144.184V104.926L1001.93 85.2971V124.555ZM1001.93 167.025V206.283L999.786 205.213L967.643 186.654V147.396L1001.93 167.025ZM999.071 206.64L1001.21 207.711L967.286 227.34L933.357 207.711L967.286 188.082L999.071 206.64ZM931.929 206.283V167.025L965.857 147.396V186.654L931.929 206.283ZM966.214 144.184L932.286 124.555V85.2971L938.357 88.866L966.214 104.926V144.184ZM965.143 145.612L931.214 165.241L897.286 145.612L931.214 125.983L965.143 145.612ZM930.143 124.555L896.214 144.184V104.926L930.143 85.2971V124.555ZM930.143 167.025V206.283L928 205.213L895.857 186.654V147.396L930.143 167.025ZM927.286 206.64L929.428 207.711L895.5 227.34L861.571 207.711L895.5 188.082L927.286 206.64ZM860.5 206.283V167.025L894.429 147.396V186.654L860.5 206.283ZM894.429 144.184L860.5 124.555V85.2971L866.571 88.866L894.429 104.926V144.184ZM893.357 145.612L859.429 165.241L825.5 145.612L859.429 125.983L893.357 145.612ZM858.714 124.555L824.786 144.184V104.926L858.714 85.2971V124.555ZM858.714 167.025V206.283L856.571 205.213L824.429 186.654V147.396L858.714 167.025ZM855.5 206.64L857.643 207.711L823.714 227.34L789.786 207.711L823.714 188.082L855.5 206.64ZM788.714 206.283V167.025L822.643 147.396V186.654L788.714 206.283ZM822.643 144.184L788.714 124.555V85.2971L794.786 88.866L822.643 104.926V144.184ZM821.929 145.612L788 165.241L754.071 145.612L788 125.983L821.929 145.612ZM786.929 124.555L753 144.184V104.926L786.929 85.2971V124.555ZM786.929 167.025V206.283L784.786 205.213L752.643 186.654V147.396L786.929 167.025ZM784.071 206.64L786.214 207.711L752.286 227.34L718.357 207.711L752.286 188.082L784.071 206.64ZM716.928 206.283V167.025L750.857 147.396V186.654L716.928 206.283ZM751.214 144.184L717.286 124.555V85.2971L723.357 88.866L751.214 104.926V144.184ZM750.143 145.612L716.214 165.241L682.286 145.612L716.214 125.983L750.143 145.612ZM715.143 124.555L681.214 144.184V104.926L715.143 85.2971V124.555ZM715.143 167.025V206.283L713 205.213L680.857 186.654V147.396L715.143 167.025ZM712.286 206.64L714.429 207.711L680.5 227.34L646.571 207.711L680.5 188.082L712.286 206.64ZM645.143 206.283V167.025L679.071 147.396V186.654L645.143 206.283ZM679.428 144.184L645.5 124.555V85.2971L651.571 88.866L679.428 104.926V144.184ZM678.357 145.612L644.429 165.241L610.5 145.612L644.429 125.983L678.357 145.612ZM643.357 124.555L609.429 144.184V104.926L643.357 85.2971V124.555ZM643.357 167.025V206.283L641.214 205.213L609.071 186.654V147.396L643.357 167.025ZM640.5 206.64L642.643 207.711L608.714 227.34L574.786 207.711L608.714 188.082L640.5 206.64ZM573.714 206.283V167.025L607.643 147.396V186.654L573.714 206.283ZM607.643 144.184L573.714 124.555V85.2971L579.786 88.866L607.643 104.926V144.184ZM606.929 145.612L573 165.241L539.071 145.612L573 125.983L606.929 145.612ZM571.929 124.555L538 144.184V104.926L571.929 85.2971V124.555ZM571.929 167.025V206.283L569.786 205.213L537.643 186.654V147.396L571.929 167.025ZM569.071 206.64L571.214 207.711L537.286 227.34L503.357 207.711L537.286 188.082L569.071 206.64ZM501.929 206.283V167.025L535.857 147.396V186.654L501.929 206.283ZM535.857 144.184L501.929 124.555V85.2971L508 88.866L535.857 104.926V144.184ZM535.143 145.612L501.214 165.241L467.286 145.612L501.214 125.983L535.143 145.612ZM500.143 124.555L466.214 144.184V104.926L500.143 85.2971V124.555ZM500.143 167.025V206.283L498 205.213L465.857 186.654V147.396L500.143 167.025ZM497.286 206.64L499.429 207.711L465.5 227.34L431.571 207.711L465.5 188.082L497.286 206.64ZM430.143 206.283V167.025L464.071 147.396V186.654L430.143 206.283ZM464.429 144.184L430.5 124.555V85.2971L436.571 88.866L464.429 104.926V144.184ZM463.357 145.612L429.428 165.241L395.5 145.612L429.428 125.983L463.357 145.612ZM428.357 124.555L394.429 144.184V104.926L428.357 85.2971V124.555ZM428.357 167.025V206.283L426.214 205.213L394.071 186.654V147.396L428.357 167.025ZM425.5 206.64L427.643 207.711L393.714 227.34L359.786 207.711L393.714 188.082L425.5 206.64ZM358.714 206.283V167.025L392.643 147.396V186.654L358.714 206.283ZM392.643 144.184L358.714 124.555V85.2971L364.786 88.866L392.643 104.926V144.184ZM391.928 145.612L358 165.241L324.071 145.612L358 125.983L391.928 145.612ZM356.929 124.555L323 144.184V104.926L356.929 85.2971V124.555ZM356.929 167.025V206.283L354.786 205.213L322.643 186.654V147.396L356.929 167.025ZM354.071 206.64L356.214 207.711L322.286 227.34L288.357 207.711L322.286 188.082L354.071 206.64ZM286.929 206.283V167.025L320.857 147.396V186.654L286.929 206.283ZM320.857 144.184L286.929 124.555V85.2971L293 88.866L320.857 104.926V144.184ZM320.143 145.612L286.214 165.241L252.286 145.612L286.214 125.983L320.143 145.612ZM285.143 124.555L251.214 144.184V104.926L285.143 85.2971V124.555ZM285.143 167.025V206.283L283 205.213L250.857 186.654V147.396L285.143 167.025ZM282.286 206.64L284.429 207.711L250.5 227.34L216.571 207.711L250.5 188.082L282.286 206.64ZM215.143 206.283V167.025L249.071 147.396V186.654L215.143 206.283ZM249.429 144.184L215.5 124.555V85.2971L221.571 88.866L249.429 104.926V144.184ZM248.357 145.612L214.429 165.241L180.5 145.612L214.429 125.983L248.357 145.612ZM213.357 124.555L179.429 144.184V104.926L213.357 85.2971V124.555ZM213.357 167.025V206.283L211.214 205.213L179.071 186.654V147.396L213.357 167.025ZM210.5 206.64L212.643 207.711L178.714 227.34L144.786 207.711L178.714 188.082L210.5 206.64ZM143.714 206.283V167.025L177.643 147.396V186.654L143.714 206.283ZM177.643 144.184L143.714 124.555V85.2971L149.786 88.866L177.643 104.926V144.184ZM176.929 145.612L143 165.241L109.071 145.612L143 125.983L176.929 145.612ZM141.929 124.555L108 144.184V104.926L141.929 85.2971V124.555ZM141.929 167.025V206.283L139.786 205.213L107.643 186.654V147.396L141.929 167.025ZM139.071 206.64L141.214 207.711L107.286 227.34L73.3572 207.711L107.286 188.082L139.071 206.64ZM71.9285 206.283V167.025L105.857 147.396V186.654L71.9285 206.283ZM105.857 144.184L71.9285 124.555V85.2971L78 88.866L105.857 104.926V144.184ZM105.143 145.612L71.2143 165.241L37.2857 145.612L71.2143 125.983L105.143 145.612ZM70.1428 124.555L36.2143 144.184V104.926L70.1428 85.2971V124.555ZM70.1428 167.025V206.283L68 205.213L35.8572 186.654V147.396L70.1428 167.025ZM67.2857 206.64L69.4286 207.711L35.5 227.34L1.57141 207.711L35.5 188.082L67.2857 206.64ZM0.142883 206.283V167.025L34.0715 147.396V186.654L0.142883 206.283ZM34.4285 144.184L0.5 124.555V85.2971L6.57141 88.866L34.4285 104.926V144.184ZM33.3571 145.612L-0.571472 165.241L-34.5 145.612L-0.571472 125.983L33.3571 145.612ZM-1.64282 124.555L-35.5714 144.184V104.926L-1.64282 85.2971V124.555ZM-1.64282 167.025V206.283L-3.78571 205.213L-35.9286 186.654V147.396L-1.64282 167.025ZM-4.5 206.64L-2.35718 207.711L-36.2858 227.34L-70.2143 207.711L-36.2858 188.082L-4.5 206.64ZM-71.2857 206.283V167.025L-37.3571 147.396V186.654L-71.2857 206.283ZM-37.3571 144.184L-71.2857 124.555V85.2971L-65.2143 88.866L-37.3571 104.926V144.184ZM-38.0715 145.612L-72 165.241L-105.929 145.612L-72 125.983L-38.0715 145.612ZM-73.0714 124.555L-107 144.184V104.926L-73.0714 85.2971V124.555ZM-73.0714 167.025V206.283L-75.2143 205.213L-107.357 186.654V147.396L-73.0714 167.025ZM-76.2857 206.64L-74.1428 207.711L-108.071 227.34L-142 207.711L-108.071 188.082L-76.2857 206.64ZM-143.071 206.283V167.025L-109.143 147.396V186.654L-143.071 206.283ZM-109.143 144.184L-143.071 124.555V85.2971L-137 88.866L-109.143 104.926V144.184ZM-109.857 145.612L-143.786 165.241L-177.714 145.612L-143.786 125.983L-109.857 145.612ZM-144.857 124.555L-178.786 144.184V104.926L-144.857 85.2971V124.555ZM-144.857 167.025V206.283L-147 205.213L-179.143 186.654V147.396L-144.857 167.025ZM-147.714 206.64L-145.571 207.711L-179.5 227.34L-213.429 207.711L-179.5 188.082L-147.714 206.64ZM-214.857 206.283V167.025L-180.929 147.396V186.654L-214.857 206.283ZM-180.571 144.184L-214.5 124.555V85.2971L-208.429 88.866L-180.571 104.926V144.184ZM-181.643 145.612L-215.571 165.241L-249.5 145.612L-215.571 125.983L-181.643 145.612ZM-216.643 124.555L-250.571 144.184V104.926L-216.643 85.2971V124.555ZM-216.643 167.025V206.283L-218.786 205.213L-250.929 186.654V147.396L-216.643 167.025ZM-219.5 206.64L-217.357 207.711L-251.286 227.34L-285.214 207.711L-251.286 188.082L-219.5 206.64ZM-286.286 206.283V167.025L-252.357 147.396V186.654L-286.286 206.283ZM-252.357 144.184L-286.286 124.555V85.2971L-280.214 88.866L-252.357 104.926V144.184ZM-253.429 145.612L-287.357 165.241L-321.286 145.612L-287.357 125.983L-253.429 145.612ZM-288.071 124.555L-322 144.184V104.926L-288.071 85.2971V124.555ZM-288.071 167.025V206.283L-290.214 205.213L-322.357 186.654V147.396L-288.071 167.025ZM-291.286 206.64L-289.143 207.711L-323.071 227.34L-357 207.711L-323.071 188.082L-291.286 206.64ZM-358.071 206.283V167.025L-324.143 147.396V186.654L-358.071 206.283ZM-324.143 144.184L-358.071 124.555V85.2971L-352 88.866L-324.143 104.926V144.184ZM-324.857 145.612L-358.786 165.241L-392.714 145.612L-358.786 125.983L-324.857 145.612ZM-359.857 124.555L-393.786 144.184V104.926L-359.857 85.2971V124.555ZM-359.857 167.025V206.283L-362 205.213L-394.143 186.654V147.396L-359.857 167.025ZM-362.714 206.64L-360.571 207.711L-394.5 227.34L-428.429 207.711L-394.5 188.082L-362.714 206.64ZM-429.857 206.283V167.025L-395.929 147.396V186.654L-429.857 206.283ZM-395.571 144.184L-429.5 124.555V85.2971L-423.429 88.866L-395.571 104.926V144.184ZM-396.643 145.612L-430.571 165.241L-464.5 145.612L-430.571 125.983L-396.643 145.612ZM-431.643 124.555L-465.571 144.184V104.926L-431.643 85.2971V124.555ZM-431.643 167.025V206.283L-433.786 205.213L-465.929 186.654V147.396L-431.643 167.025ZM-434.5 206.64L-432.357 207.711L-466.286 227.34L-500.214 207.711L-466.286 188.082L-434.5 206.64ZM-501.286 206.283V167.025L-467.357 147.396V186.654L-501.286 206.283ZM-467.357 144.184L-501.286 124.555V85.2971L-495.214 88.866L-467.357 104.926V144.184ZM-468.429 145.612L-502.357 165.241L-536.286 145.612L-502.357 125.983L-468.429 145.612ZM-503.071 124.555L-537 144.184V104.926L-503.071 85.2971V124.555ZM-503.071 167.025V206.283L-505.214 205.213L-537.357 186.654V147.396L-503.071 167.025ZM-506.286 206.64L-504.143 207.711L-538.071 227.34L-572 207.711L-538.071 188.082L-506.286 206.64ZM-573.071 206.283V167.025L-539.143 147.396V186.654L-573.071 206.283ZM-539.143 144.184L-573.071 124.555V85.2971L-567 88.866L-539.143 104.926V144.184ZM-539.857 145.612L-573.786 165.241L-607.714 145.612L-573.786 125.983L-539.857 145.612ZM-574.857 124.555L-608.786 144.184V104.926L-574.857 85.2971V124.555ZM-574.857 167.025V206.283L-577 205.213L-609.143 186.654V147.396L-574.857 167.025ZM-577.714 206.64L-575.571 207.711L-609.5 227.34L-643.429 207.711L-609.5 188.082L-577.714 206.64ZM-644.857 206.283V167.025L-610.929 147.396V186.654L-644.857 206.283ZM-610.571 144.184L-644.857 124.555V85.2971L-638.786 88.866L-610.929 104.926V144.184H-610.571ZM-611.643 145.612L-645.571 165.241L-679.5 145.612L-645.571 125.983L-611.643 145.612ZM-646.643 124.555L-680.571 144.184V104.926L-646.643 85.2971V124.555ZM-646.643 167.025V206.283L-648.429 205.213L-680.571 186.654V147.396L-646.643 167.025ZM-649.5 206.64L-647.357 207.711L-681.286 227.34L-715.214 207.711L-681.286 188.082L-649.5 206.64ZM-682.357 186.654L-716.286 206.283V167.025L-682.357 147.396V186.654ZM-682.357 229.124V268.383L-688.429 264.814L-716.286 248.754V209.495L-682.357 229.124ZM-682.357 310.496L-716.286 330.125V290.867L-682.357 271.238V310.496ZM-682.357 352.966V392.224L-716.286 372.595V333.337L-682.357 352.966ZM-682.357 434.694L-716.286 454.323V415.065L-682.357 395.436V434.694ZM-682.357 477.164V516.422L-716.286 496.793V457.535L-682.357 477.164ZM-682.357 558.892L-716.286 578.521V539.263L-682.357 519.634V558.892ZM-682.357 601.006V640.264L-716.286 620.635V581.377L-682.357 601.006ZM-682.357 682.734L-716.286 702.363V663.105L-682.357 643.476V682.734ZM-682.357 725.204V764.462L-685.214 762.678L-716.286 744.476V705.218L-682.357 725.204ZM-681.643 932.558L-647.714 952.187L-681.643 971.816L-715.571 952.187L-681.643 932.558ZM-716.286 950.403V911.145L-682.357 891.516V930.773L-716.286 950.403ZM-716.286 869.031V829.773L-682.357 849.402V888.66L-716.286 869.031ZM-715.571 827.989L-681.643 808.36L-650.214 826.561L-647.357 828.346L-681.286 847.975L-715.571 827.989ZM-716.286 826.561V787.303L-682.357 767.674V806.932L-716.286 826.561ZM-680.571 849.402L-646.643 829.773V869.031L-680.571 888.66V849.402ZM-649.5 824.777L-680.929 806.575V767.317L-647 786.946V826.204L-649.5 824.777ZM-679.857 765.89L-645.929 746.261L-614.5 764.462L-611.643 766.246L-645.571 785.876L-679.857 765.89ZM-610.571 767.674V806.932L-644.5 826.561V787.303L-610.571 767.674ZM-644.857 829.773L-610.929 849.402V888.66L-644.857 869.031V829.773ZM-609.857 932.558L-575.929 952.187L-609.857 971.816L-643.786 952.187L-609.857 932.558ZM-644.857 950.403V911.145L-610.929 891.516V930.773L-644.857 950.403ZM-643.786 827.989L-609.857 808.36L-578.786 826.561L-575.929 828.346L-609.857 847.975L-643.786 827.989ZM-608.786 849.402L-574.857 829.773V869.031L-608.786 888.66V849.402ZM-577.714 824.777L-608.786 806.575V767.317L-574.857 786.946V826.204L-577.714 824.777ZM-608.071 765.89L-574.143 746.261L-543.071 764.462L-540.214 766.246L-574.143 785.876L-608.071 765.89ZM-539.143 767.674V806.932L-573.071 826.561V787.303L-539.143 767.674ZM-573.071 829.773L-539.143 849.402V888.66L-573.071 869.031V829.773ZM-538.071 932.558L-504.143 952.187L-538.071 971.816L-572 952.187L-538.071 932.558ZM-573.071 950.403V911.145L-539.143 891.516V930.773L-573.071 950.403ZM-572.357 827.989L-538.429 808.36L-507.357 826.561L-504.5 828.346L-538.429 847.975L-572.357 827.989ZM-537.357 849.402L-503.429 829.773V869.031L-537.357 888.66V849.402ZM-505.929 824.777L-537 806.575V767.317L-503.071 786.946V826.204L-505.929 824.777ZM-536.286 765.89L-502.357 746.261L-470.929 764.462L-468.071 766.246L-502 785.876L-536.286 765.89ZM-467.357 767.674V806.932L-501.286 826.561V787.303L-467.357 767.674ZM-501.286 829.773L-467.357 849.402V888.66L-501.286 869.031V829.773ZM-466.643 932.558L-432.714 952.187L-466.643 971.816L-500.571 952.187L-466.643 932.558ZM-501.286 950.403V911.145L-467.357 891.516V930.773L-501.286 950.403ZM-500.571 827.989L-466.643 808.36L-435.214 826.561L-432.357 828.346L-466.286 847.975L-500.571 827.989ZM-465.571 849.402L-431.643 829.773V869.031L-465.571 888.66V849.402ZM-434.5 824.777L-465.929 806.575V767.317L-432 786.946V826.204L-434.5 824.777ZM-464.857 765.89L-430.929 746.261L-399.857 764.462L-397 766.246L-430.929 785.876L-464.857 765.89ZM-395.571 767.674V806.932L-429.5 826.561V787.303L-395.571 767.674ZM-429.857 829.773L-395.929 849.402V888.66L-429.857 869.031V829.773ZM-394.857 932.558L-360.929 952.187L-394.857 971.816L-428.786 952.187L-394.857 932.558ZM-429.857 950.403V911.145L-395.929 891.516V930.773L-429.857 950.403ZM-428.786 827.989L-394.857 808.36L-363.786 826.561L-360.929 828.346L-394.857 847.975L-428.786 827.989ZM-393.786 849.402L-359.857 829.773V869.031L-393.786 888.66V849.402ZM-362.714 824.777L-393.786 806.575V767.317L-359.857 786.946V826.204L-362.714 824.777ZM-393.071 765.89L-359.143 746.261L-328.071 764.462L-325.214 766.246L-359.143 785.876L-393.071 765.89ZM-324.143 767.674V806.932L-358.071 826.561V787.303L-324.143 767.674ZM-358.071 829.773L-324.143 849.402V888.66L-358.071 869.031V829.773ZM-323.071 932.558L-289.143 952.187L-323.071 971.816L-357 952.187L-323.071 932.558ZM-358.071 950.403V911.145L-324.143 891.516V930.773L-358.071 950.403ZM-357.357 827.989L-323.429 808.36L-292 826.561L-289.143 828.346L-323.071 847.975L-357.357 827.989ZM-322.357 849.402L-288.429 829.773V869.031L-322.357 888.66V849.402ZM-290.929 824.777L-322.357 806.575V767.317L-288.429 786.946V826.204L-290.929 824.777ZM-321.286 765.89L-287.357 746.261L-255.929 764.462L-253.071 766.246L-287 785.876L-321.286 765.89ZM-252.357 767.674V806.932L-286.286 826.561V787.303L-252.357 767.674ZM-286.286 829.773L-252.357 849.402V888.66L-286.286 869.031V829.773ZM-251.643 932.558L-217.714 952.187L-251.643 971.816L-285.571 952.187L-251.643 932.558ZM-286.286 950.403V911.145L-252.357 891.516V930.773L-286.286 950.403ZM-285.571 827.989L-251.643 808.36L-220.571 826.561L-217.714 828.346L-251.643 847.975L-285.571 827.989ZM-250.571 849.402L-216.643 829.773V869.031L-250.571 888.66V849.402ZM-219.5 824.777L-250.571 806.575V767.317L-216.643 786.946V826.204L-219.5 824.777ZM-249.857 765.89L-215.929 746.261L-184.857 764.462L-182 766.246L-215.929 785.876L-249.857 765.89ZM-180.571 767.674V806.932L-214.5 826.561V787.303L-180.571 767.674ZM-214.857 829.773L-180.929 849.402V888.66L-214.857 869.031V829.773ZM-179.857 932.558L-145.929 952.187L-179.857 971.816L-213.786 952.187L-179.857 932.558ZM-214.857 950.403V911.145L-180.929 891.516V930.773L-214.857 950.403ZM-213.786 827.989L-179.857 808.36L-148.786 826.561L-145.929 828.346L-179.857 847.975L-213.786 827.989ZM-178.786 849.402L-144.857 829.773V869.031L-178.786 888.66V849.402ZM-147.714 824.777L-178.786 806.575V767.317L-144.857 786.946V826.204L-147.714 824.777ZM-178.071 765.89L-144.143 746.261L-112.714 764.462L-109.857 766.246L-143.786 785.876L-178.071 765.89ZM-109.143 767.674V806.932L-143.071 826.561V787.303L-109.143 767.674ZM-143.071 829.773L-109.143 849.402V888.66L-143.071 869.031V829.773ZM-108.071 932.558L-74.1428 952.187L-108.071 971.816L-142 952.187L-108.071 932.558ZM-143.071 950.403V911.145L-109.143 891.516V930.773L-143.071 950.403ZM-142.357 827.989L-108.429 808.36L-77 826.561L-74.1428 828.346L-108.071 847.975L-142.357 827.989ZM-107.357 849.402L-73.4286 829.773V869.031L-107.357 888.66V849.402ZM-75.9286 824.777L-107.357 806.575V767.317L-73.4286 786.946V826.204L-75.9286 824.777ZM-106.286 765.89L-72.3571 746.261L-41.2857 764.462L-38.4286 766.246L-72.3571 785.876L-106.286 765.89ZM-37.3571 767.674V806.932L-71.2857 826.561V787.303L-37.3571 767.674ZM-71.2857 829.773L-37.3571 849.402V888.66L-71.2857 869.031V829.773ZM-36.6429 932.558L-2.71429 952.187L-36.6429 971.816L-70.5714 952.187L-36.6429 932.558ZM-71.2857 950.403V911.145L-37.3571 891.516V930.773L-71.2857 950.403ZM-70.5714 827.989L-36.6429 808.36L-5.57141 826.561L-2.71429 828.346L-36.6429 847.975L-70.5714 827.989ZM-35.5714 849.402L-1.64282 829.773V869.031L-35.5714 888.66V849.402ZM-4.5 824.777L-35.5714 806.575V767.317L-1.64282 786.946V826.204L-4.5 824.777ZM-34.5 765.89L-0.571472 746.261L30.5 764.462L33.3571 766.246L-0.571472 785.876L-34.5 765.89ZM34.4285 767.674V806.932L0.5 826.561V787.303L34.4285 767.674ZM0.142883 829.773L34.0715 849.402V888.66L0.142883 869.031V829.773ZM35.1428 932.558L69.0714 952.187L35.1428 971.816L1.21423 952.187L35.1428 932.558ZM0.142883 950.403V911.145L34.0715 891.516V930.773L0.142883 950.403ZM1.21423 827.989L35.1428 808.36L66.5714 826.561L69.4286 828.346L35.5 847.975L1.21423 827.989ZM36.2143 849.402L70.1428 829.773V869.031L36.2143 888.66V849.402ZM67.2857 824.777L35.8572 806.575V767.317L69.7857 786.946V826.204L67.2857 824.777ZM36.9285 765.89L70.8571 746.261L102.286 764.462L105.143 766.246L71.2143 785.876L36.9285 765.89ZM105.857 767.674V806.932L71.9285 826.561V787.303L105.857 767.674ZM71.9285 829.773L105.857 849.402V888.66L71.9285 869.031V829.773ZM106.929 932.558L140.857 952.187L106.929 971.816L73 952.187L106.929 932.558ZM71.9285 950.403V911.145L105.857 891.516V930.773L71.9285 950.403ZM73 827.989L106.929 808.36L138 826.561L140.857 828.346L106.929 847.975L73 827.989ZM107.643 849.402L141.571 829.773V869.031L107.643 888.66V849.402ZM139.071 824.777L108 806.575V767.317L141.929 786.946V826.204L139.071 824.777ZM108.714 765.89L142.643 746.261L173.714 764.462L176.571 766.246L142.643 785.876L108.714 765.89ZM177.643 767.674V806.932L143.714 826.561V787.303L177.643 767.674ZM143.714 829.773L177.643 849.402V888.66L143.714 869.031V829.773ZM178.714 932.558L212.643 952.187L178.714 971.816L144.786 952.187L178.714 932.558ZM143.714 950.403V911.145L177.643 891.516V930.773L143.714 950.403ZM144.429 827.989L178.357 808.36L209.429 826.561L212.286 828.346L178.357 847.975L144.429 827.989ZM179.429 849.402L213.357 829.773V869.031L179.429 888.66V849.402ZM210.857 824.777L179.786 806.575V767.317L213.714 786.946V826.204L210.857 824.777ZM180.5 765.89L214.429 746.261L245.857 764.462L248.714 766.246L214.786 785.876L180.5 765.89ZM249.429 767.674V806.932L215.5 826.561V787.303L249.429 767.674ZM215.143 829.773L249.071 849.402V888.66L215.143 869.031V829.773ZM250.143 932.558L284.071 952.187L250.143 971.816L216.214 952.187L250.143 932.558ZM215.143 950.403V911.145L249.071 891.516V930.773L215.143 950.403ZM216.214 827.989L250.143 808.36L281.571 826.561L284.429 828.346L250.5 847.975L216.214 827.989ZM251.214 849.402L285.143 829.773V869.031L251.214 888.66V849.402ZM282.286 824.777L250.857 806.575V767.317L284.786 786.946V826.204L282.286 824.777ZM251.929 765.89L285.857 746.261L316.928 764.462L319.786 766.246L285.857 785.876L251.929 765.89ZM320.857 767.674V806.932L286.929 826.561V787.303L320.857 767.674ZM286.929 829.773L320.857 849.402V888.66L286.929 869.031V829.773ZM321.929 932.558L355.857 952.187L321.929 971.816L288 952.187L321.929 932.558ZM286.929 950.403V911.145L320.857 891.516V930.773L286.929 950.403ZM288 827.989L321.929 808.36L353 826.561L355.857 828.346L321.929 847.975L288 827.989ZM322.643 849.402L356.571 829.773V869.031L322.643 888.66V849.402ZM354.071 824.777L323 806.575V767.317L356.929 786.946V826.204L354.071 824.777ZM323.714 765.89L357.643 746.261L388.714 764.462L391.571 766.246L357.643 785.876L323.714 765.89ZM392.643 767.674V806.932L358.714 826.561V787.303L392.643 767.674ZM358.714 829.773L392.643 849.402V888.66L358.714 869.031V829.773ZM393.714 932.558L427.643 952.187L393.714 971.816L359.786 952.187L393.714 932.558ZM358.714 950.403V911.145L392.643 891.516V930.773L358.714 950.403ZM359.429 827.989L393.357 808.36L424.786 826.561L427.643 828.346L393.714 847.975L359.429 827.989ZM394.429 849.402L428.357 829.773V869.031L394.429 888.66V849.402ZM425.857 824.777L394.429 806.575V767.317L428.357 786.946V826.204L425.857 824.777ZM395.5 765.89L429.428 746.261L460.857 764.462L463.714 766.246L429.786 785.876L395.5 765.89ZM464.429 767.674V806.932L430.5 826.561V787.303L464.429 767.674ZM430.143 829.773L464.071 849.402V888.66L430.143 869.031V829.773ZM465.143 932.558L499.071 952.187L465.143 971.816L431.214 952.187L465.143 932.558ZM430.143 950.403V911.145L464.071 891.516V930.773L430.143 950.403ZM431.214 827.989L465.143 808.36L496.214 826.561L499.071 828.346L465.143 847.975L431.214 827.989ZM466.214 849.402L500.143 829.773V869.031L466.214 888.66V849.402ZM497.286 824.777L466.214 806.575V767.317L500.143 786.946V826.204L497.286 824.777ZM466.928 765.89L500.857 746.261L531.929 764.462L534.786 766.246L500.857 785.876L466.928 765.89ZM535.857 767.674V806.932L501.929 826.561V787.303L535.857 767.674ZM501.929 829.773L535.857 849.402V888.66L501.929 869.031V829.773ZM536.929 932.558L570.857 952.187L536.929 971.816L503 952.187L536.929 932.558ZM501.929 950.403V911.145L535.857 891.516V930.773L501.929 950.403ZM503 827.989L536.929 808.36L568.357 826.561L571.214 828.346L537.286 847.975L503 827.989ZM537.643 849.402L571.571 829.773V869.031L537.643 888.66V849.402ZM569.071 824.777L537.643 806.575V767.317L571.571 786.946V826.204L569.071 824.777ZM538.714 765.89L572.643 746.261L604.071 764.462L606.929 766.246L573 785.876L538.714 765.89ZM607.643 767.674V806.932L573.714 826.561V787.303L607.643 767.674ZM573.714 829.773L607.643 849.402V888.66L573.714 869.031V829.773ZM608.714 932.558L642.643 952.187L608.714 971.816L574.786 952.187L608.714 932.558ZM573.714 950.403V911.145L607.643 891.516V930.773L573.714 950.403ZM574.429 827.989L608.357 808.36L639.429 826.561L642.286 828.346L608.357 847.975L574.429 827.989ZM609.429 849.402L643.357 829.773V869.031L609.429 888.66V849.402ZM640.857 824.777L609.786 806.575V767.317L643.714 786.946V826.204L640.857 824.777ZM610.5 765.89L644.429 746.261L675.5 764.462L678.357 766.246L644.429 785.876L610.5 765.89ZM679.428 767.674V806.932L645.5 826.561V787.303L679.428 767.674ZM645.143 829.773L679.071 849.402V888.66L645.143 869.031V829.773ZM680.143 932.558L714.071 952.187L680.143 971.816L646.214 952.187L680.143 932.558ZM645.143 950.403V911.145L679.071 891.516V930.773L645.143 950.403ZM646.214 827.989L680.143 808.36L711.214 826.561L714.071 828.346L680.143 847.975L646.214 827.989ZM681.214 849.402L715.143 829.773V869.031L681.214 888.66V849.402ZM712.286 824.777L681.214 806.575V767.317L715.143 786.946V826.204L712.286 824.777ZM681.929 765.89L715.857 746.261L747.286 764.462L750.143 766.246L716.214 785.876L681.929 765.89ZM751.214 767.674V806.932L717.286 826.561V787.303L751.214 767.674ZM716.928 829.773L750.857 849.402V888.66L716.928 869.031V829.773ZM751.929 932.558L785.857 952.187L751.929 971.816L718 952.187L751.929 932.558ZM716.928 950.403V911.145L750.857 891.516V930.773L716.928 950.403ZM718 827.989L751.929 808.36L783.357 826.561L786.214 828.346L752.286 847.975L718 827.989ZM753 849.402L786.929 829.773V869.031L753 888.66V849.402ZM784.071 824.777L752.643 806.575V767.317L786.571 786.946V826.204L784.071 824.777ZM753.714 765.89L787.643 746.261L818.714 764.462L821.571 766.246L787.643 785.876L753.714 765.89ZM822.643 767.674V806.932L788.714 826.561V787.303L822.643 767.674ZM788.714 829.773L822.643 849.402V888.66L788.714 869.031V829.773ZM823.714 932.558L857.643 952.187L823.714 971.816L789.786 952.187L823.714 932.558ZM788.714 950.403V911.145L822.643 891.516V930.773L788.714 950.403ZM789.429 827.989L823.357 808.36L854.428 826.561L857.286 828.346L823.357 847.975L789.429 827.989ZM824.429 849.402L858.357 829.773V869.031L824.429 888.66V849.402ZM855.857 824.777L824.786 806.575V767.317L858.714 786.946V826.204L855.857 824.777ZM825.5 765.89L859.429 746.261L890.5 764.462L893.357 766.246L859.429 785.876L825.5 765.89ZM894.429 767.674V806.932L860.5 826.561V787.303L894.429 767.674ZM860.5 829.773L894.429 849.402V888.66L860.5 869.031V829.773ZM895.143 932.558L929.071 952.187L895.143 971.816L861.214 952.187L895.143 932.558ZM860.5 950.403V911.145L894.429 891.516V930.773L860.5 950.403ZM861.214 827.989L895.143 808.36L926.571 826.561L929.428 828.346L895.5 847.975L861.214 827.989ZM896.214 849.402L930.143 829.773V869.031L896.214 888.66V849.402ZM927.286 824.777L895.857 806.575V767.317L929.786 786.946V826.204L927.286 824.777ZM896.929 765.89L930.857 746.261L962.286 764.462L965.143 766.246L931.214 785.876L896.929 765.89ZM966.214 767.674V806.932L932.286 826.561V787.303L966.214 767.674ZM931.929 829.773L965.857 849.402V888.66L931.929 869.031V829.773ZM966.928 932.558L1000.86 952.187L966.928 971.816L933 952.187L966.928 932.558ZM931.929 950.403V911.145L965.857 891.516V930.773L931.929 950.403ZM933 827.989L966.928 808.36L998 826.561L1000.86 828.346L966.928 847.975L933 827.989ZM968 849.402L1001.93 829.773V869.031L968 888.66V849.402ZM999.071 824.777L968 806.575V767.317L1001.93 786.946V826.204L999.071 824.777ZM968.714 765.89L1002.64 746.261L1036.57 765.89L1002.64 785.519L968.714 765.89ZM1037.64 806.932L1003.71 826.561V787.303L1037.64 767.674V806.932ZM1037.64 725.204V764.462L1003.71 744.833V705.575L1037.64 725.204ZM1037.64 682.734L1003.71 702.363V663.105L1037.64 643.476V682.734ZM1037.64 601.006V640.264L1003.71 620.635V581.377L1037.64 601.006ZM1037.64 558.892L1003.71 578.521V539.263L1037.64 519.634V558.892ZM1037.64 477.164V516.422L1003.71 496.793V457.535L1037.64 477.164ZM1037.64 434.694L1003.71 454.323V415.065L1037.64 395.436V434.694ZM1037.64 352.966V392.224L1003.71 372.595V333.337L1037.64 352.966ZM1037.64 310.496L1003.71 330.125V290.867L1037.64 271.238V310.496ZM1037.64 229.124V268.383L1003.71 248.754V209.495L1037.64 229.124ZM1037.64 186.654L1003.71 206.283V167.025L1037.64 147.396V186.654ZM1009.79 88.866L1037.64 104.926V144.184L1003.71 124.555V85.2971L1009.79 88.866ZM1002.64 2.14135L1037.64 22.1273V62.456L1003.71 82.0851V41.7563L968.714 21.7704L1002.64 2.14135ZM968 23.198L1001.93 42.827V82.0851L968 62.456V23.198ZM966.928 64.2405L1000.86 83.8696L966.928 103.499L939.071 87.4385L933 83.8696L966.928 64.2405ZM966.214 62.456L932.286 82.0851V42.827L966.214 23.198V62.456ZM931.214 2.14135L965.143 21.7704L931.214 41.3994L897.286 21.7704L931.214 2.14135ZM896.214 23.198L930.143 42.827V82.0851L896.214 62.456V23.198ZM895.143 64.2405L929.071 83.8696L895.143 103.499L867.286 87.4385L861.214 83.8696L895.143 64.2405ZM894.429 62.456L860.5 82.0851V42.827L894.429 23.198V62.456ZM859.429 2.14135L893.357 21.7704L859.429 41.3994L825.5 21.7704L859.429 2.14135ZM824.429 23.198L858.714 42.827V82.0851L824.786 62.456V23.198H824.429ZM823.714 64.2405L857.643 83.8696L823.714 103.499L795.857 87.4385L789.786 83.8696L823.714 64.2405ZM822.643 62.456L788.714 82.0851V42.827L822.643 23.198V62.456ZM787.643 2.14135L821.571 21.7704L787.643 41.3994L753.714 21.7704L787.643 2.14135ZM753 23.198L786.929 42.827V82.0851L753 62.456V23.198ZM751.929 64.2405L785.857 83.8696L751.929 103.499L724.071 87.4385L718 83.8696L751.929 64.2405ZM751.214 62.456L717.286 82.0851V42.827L751.214 23.198V62.456ZM716.214 2.14135L750.143 21.7704L716.214 41.3994L682.286 21.7704L716.214 2.14135ZM681.214 23.198L715.143 42.827V82.0851L681.214 62.456V23.198ZM680.143 64.2405L714.071 83.8696L680.143 103.499L652.286 87.4385L646.214 83.8696L680.143 64.2405ZM679.428 62.456L645.5 82.0851V42.827L679.428 23.198V62.456ZM644.429 2.14135L678.357 21.7704L644.429 41.3994L610.5 21.7704L644.429 2.14135ZM609.429 23.198L643.357 42.827V82.0851L609.429 62.456V23.198ZM608.714 64.2405L642.643 83.8696L608.714 103.499L580.857 87.4385L574.786 83.8696L608.714 64.2405ZM607.643 62.456L573.714 82.0851V42.827L607.643 23.198V62.456ZM572.643 2.14135L606.571 21.7704L572.643 41.3994L538.714 21.7704L572.643 2.14135ZM537.643 23.198L571.571 42.827V82.0851L537.643 62.456V23.198ZM536.929 64.2405L570.857 83.8696L536.929 103.499L509.071 87.4385L503 83.8696L536.929 64.2405ZM535.857 62.456L501.929 82.0851V42.827L535.857 23.198V62.456ZM501.214 2.14135L535.143 21.7704L501.214 41.3994L467.286 21.7704L501.214 2.14135ZM466.214 23.198L500.143 42.827V82.0851L466.214 62.456V23.198ZM465.143 64.2405L499.071 83.8696L465.143 103.499L437.286 87.4385L431.214 83.8696L465.143 64.2405ZM464.429 62.456L430.143 82.0851V42.827L464.071 23.198V62.456H464.429ZM429.428 2.14135L463.357 21.7704L429.428 41.3994L395.5 21.7704L429.428 2.14135ZM394.429 23.198L428.357 42.827V82.0851L394.429 62.456V23.198ZM393.714 64.2405L427.643 83.8696L393.714 103.499L365.857 87.4385L359.786 83.8696L393.714 64.2405ZM392.643 62.456L358.714 82.0851V42.827L392.643 23.198V62.456ZM357.643 2.14135L391.571 21.7704L357.643 41.3994L323.714 21.7704L357.643 2.14135ZM322.643 23.198L356.571 42.827V82.0851L322.643 62.456V23.198ZM321.929 64.2405L355.857 83.8696L321.929 103.499L294.071 87.4385L288 83.8696L321.929 64.2405ZM320.857 62.456L286.929 82.0851V42.827L320.857 23.198V62.456ZM286.214 2.14135L320.143 21.7704L286.214 41.3994L252.286 21.7704L286.214 2.14135ZM251.214 23.198L285.143 42.827V82.0851L251.214 62.456V23.198ZM250.143 64.2405L284.071 83.8696L250.143 103.499L222.286 87.4385L216.214 83.8696L250.143 64.2405ZM249.429 62.456L215.5 82.0851V42.827L249.429 23.198V62.456ZM214.429 2.14135L248.357 21.7704L214.429 41.3994L180.5 21.7704L214.429 2.14135ZM179.429 23.198L213.357 42.827V82.0851L179.429 62.456V23.198ZM178.714 64.2405L212.643 83.8696L178.714 103.499L150.857 87.4385L144.786 83.8696L178.714 64.2405ZM177.643 62.456L143.714 82.0851V42.827L177.643 23.198V62.456ZM142.643 2.14135L176.571 21.7704L142.643 41.3994L108.714 21.7704L142.643 2.14135ZM107.643 23.198L141.571 42.827V82.0851L107.643 62.456V23.198ZM106.929 64.2405L140.857 83.8696L106.929 103.499L79.0714 87.4385L73 83.8696L106.929 64.2405ZM105.857 62.456L71.9285 82.0851V42.827L105.857 23.198V62.456ZM71.2143 2.14135L105.143 21.7704L71.2143 41.3994L37.2857 21.7704L71.2143 2.14135ZM36.2143 23.198L70.1428 42.827V82.0851L36.2143 62.456V23.198ZM35.1428 64.2405L69.0714 83.8696L35.1428 103.499L7.28571 87.4385L1.21423 83.8696L35.1428 64.2405ZM34.4285 62.456L0.5 82.0851V42.827L34.4285 23.198V62.456ZM-0.571472 2.14135L33.3571 21.7704L-0.571472 41.3994L-34.5 21.7704L-0.571472 2.14135ZM-35.5714 23.198L-1.64282 42.827V82.0851L-35.5714 62.456V23.198ZM-36.6429 64.2405L-2.71429 83.8696L-36.6429 103.499L-64.5 87.4385L-70.5714 83.8696L-36.6429 64.2405ZM-37.3571 62.456L-71.2857 82.0851V42.827L-37.3571 23.198V62.456ZM-72.3571 2.14135L-38.4286 21.7704L-72.3571 41.3994L-106.286 21.7704L-72.3571 2.14135ZM-107.357 23.198L-73.4286 42.827V82.0851L-107.357 62.456V23.198ZM-108.071 64.2405L-74.1428 83.8696L-108.071 103.499L-135.929 87.4385L-142 83.8696L-108.071 64.2405ZM-109.143 62.456L-143.071 82.0851V42.827L-109.143 23.198V62.456ZM-144.143 2.14135L-110.214 21.7704L-144.143 41.3994L-178.071 21.7704L-144.143 2.14135ZM-178.786 23.198L-144.857 42.827V82.0851L-178.786 62.456V23.198ZM-179.857 64.2405L-145.929 83.8696L-179.857 103.499L-207.714 87.4385L-213.786 83.8696L-179.857 64.2405ZM-180.571 62.456L-214.5 82.0851V42.827L-180.571 23.198V62.456ZM-215.571 2.14135L-181.643 21.7704L-215.571 41.3994L-249.5 21.7704L-215.571 2.14135ZM-250.571 23.198L-216.643 42.827V82.0851L-250.571 62.456V23.198ZM-251.643 64.2405L-217.714 83.8696L-251.643 103.499L-279.5 87.4385L-285.571 83.8696L-251.643 64.2405ZM-252.357 62.456L-286.286 82.0851V42.827L-252.357 23.198V62.456ZM-287.357 2.14135L-253.429 21.7704L-287.357 41.3994L-321.286 21.7704L-287.357 2.14135ZM-322.357 23.198L-288.429 42.827V82.0851L-322.357 62.456V23.198ZM-323.071 64.2405L-289.143 83.8696L-323.071 103.499L-350.929 87.4385L-357 83.8696L-323.071 64.2405ZM-324.143 62.456L-358.071 82.0851V42.827L-324.143 23.198V62.456ZM-359.143 2.14135L-325.214 21.7704L-359.143 41.3994L-393.071 21.7704L-359.143 2.14135ZM-393.786 23.198L-359.857 42.827V82.0851L-393.786 62.456V23.198ZM-394.857 64.2405L-360.929 83.8696L-394.857 103.499L-422.714 87.4385L-428.786 83.8696L-394.857 64.2405ZM-395.571 62.456L-429.857 82.0851V42.827L-395.929 23.198V62.456H-395.571ZM-430.571 2.14135L-396.643 21.7704L-430.571 41.3994L-464.5 21.7704L-430.571 2.14135ZM-465.571 23.198L-431.643 42.827V82.0851L-465.571 62.456V23.198ZM-466.643 64.2405L-432.714 83.8696L-466.643 103.499L-494.5 87.4385L-500.571 83.8696L-466.643 64.2405ZM-467.357 62.456L-501.286 82.0851V42.827L-467.357 23.198V62.456ZM-502.357 2.14135L-468.429 21.7704L-502.357 41.3994L-536.286 21.7704L-502.357 2.14135ZM-537.357 23.198L-503.429 42.827V82.0851L-537.357 62.456V23.198ZM-538.071 64.2405L-504.143 83.8696L-538.071 103.499L-566.286 87.0816L-572.357 83.5127L-538.071 64.2405ZM-539.143 62.456L-573.071 82.0851V42.827L-539.143 23.198V62.456ZM-574.143 2.14135L-540.214 21.7704L-574.143 41.3994L-608.071 21.7704L-574.143 2.14135ZM-608.786 23.198L-574.857 42.827V82.0851L-608.786 62.456V23.198ZM-609.857 64.2405L-575.929 83.8696L-609.857 103.499L-637.714 87.0816L-643.786 83.5127L-609.857 64.2405ZM-610.571 62.456L-644.857 82.0851V42.827L-610.929 23.198V62.456H-610.571ZM-645.571 2.14135L-611.643 21.7704L-645.571 41.3994L-679.5 21.7704L-645.571 2.14135ZM-680.571 23.198L-646.643 42.827V82.0851L-680.571 62.456V23.198ZM-681.643 64.2405L-647.714 83.8696L-681.643 103.499L-709.5 87.4385L-715.571 83.8696L-681.643 64.2405ZM-716.286 42.827L-682.357 23.198V62.456L-716.286 82.0851V42.827ZM-716.286 85.2971L-710.214 88.866L-682.357 104.926V144.184L-716.286 124.555V85.2971ZM-751.286 145.612L-717.357 125.983L-683.429 145.612L-717.357 165.241L-751.286 145.612ZM-751.286 269.81L-717.357 250.181L-685.214 268.739L-683.071 269.81L-717 289.439L-751.286 269.81ZM-751.286 394.008L-717.357 374.379L-683.429 394.008L-717.357 413.637L-751.286 394.008ZM-751.286 517.85L-717.357 498.221L-683.429 517.85L-717.357 537.479L-751.286 517.85ZM-751.286 642.048L-717.357 622.419L-683.429 642.048L-717.357 661.677L-751.286 642.048ZM-751.286 765.89L-717.357 746.261L-686.286 764.462L-683.429 766.246L-717.357 785.876L-751.286 765.89ZM-751.286 890.088L-717.357 870.459L-683.429 890.088L-717.357 909.717L-751.286 890.088ZM-646.643 992.873L-681.643 1012.86L-716.643 992.873V953.615L-681.643 973.601L-646.643 953.615V992.873ZM-646.643 950.403L-680.571 930.773V891.516L-646.643 911.145V950.403ZM-679.857 890.088L-645.929 870.459L-612 890.088L-645.929 909.717L-679.857 890.088ZM-574.857 992.873L-609.857 1012.86L-644.857 992.873V953.615L-609.857 973.601L-574.857 953.615V992.873ZM-574.857 950.403L-608.786 930.773V891.516L-574.857 911.145V950.403ZM-608.071 890.088L-574.143 870.459L-540.214 890.088L-574.143 909.717L-608.071 890.088ZM-503.071 992.873L-538.071 1012.86L-573.071 992.873V953.615L-538.071 973.601L-503.071 953.615V992.873ZM-503.071 950.403L-537 930.773V891.516L-503.071 911.145V950.403ZM-536.286 890.088L-502.357 870.459L-468.429 890.088L-502.357 909.717L-536.286 890.088ZM-431.643 992.873L-466.643 1012.86L-501.643 992.873V953.615L-466.643 973.601L-431.643 953.615V992.873ZM-431.643 950.403L-465.571 930.773V891.516L-431.643 911.145V950.403ZM-464.857 890.088L-430.929 870.459L-397 890.088L-430.929 909.717L-464.857 890.088ZM-359.857 992.873L-394.857 1012.86L-429.857 992.873V953.615L-394.857 973.601L-359.857 953.615V992.873ZM-359.857 950.403L-393.786 930.773V891.516L-359.857 911.145V950.403ZM-393.071 890.088L-359.143 870.459L-325.214 890.088L-359.143 909.717L-393.071 890.088ZM-288.071 992.873L-323.071 1012.86L-358.071 992.873V953.615L-323.071 973.601L-288.071 953.615V992.873ZM-288.071 950.403L-322 930.773V891.516L-288.071 911.145V950.403ZM-321.286 890.088L-287.357 870.459L-253.429 890.088L-287.357 909.717L-321.286 890.088ZM-216.643 992.873L-251.643 1012.86L-286.643 992.873V953.615L-251.643 973.601L-216.643 953.615V992.873ZM-216.643 950.403L-250.571 930.773V891.516L-216.643 911.145V950.403ZM-249.857 890.088L-215.929 870.459L-182 890.088L-215.929 909.717L-249.857 890.088ZM-144.857 992.873L-179.857 1012.86L-214.857 992.873V953.615L-179.857 973.601L-144.857 953.615V992.873ZM-144.857 950.403L-178.786 930.773V891.516L-144.857 911.145V950.403ZM-178.071 890.088L-144.143 870.459L-110.214 890.088L-144.143 909.717L-178.071 890.088ZM-73.0714 992.873L-108.071 1012.86L-143.071 992.873V953.615L-108.071 973.601L-73.0714 953.615V992.873ZM-73.0714 950.403L-107 930.773V891.516L-73.0714 911.145V950.403ZM-106.286 890.088L-72.3571 870.459L-38.4286 890.088L-72.3571 909.717L-106.286 890.088ZM-1.64282 992.873L-36.6429 1012.86L-71.6429 992.873V953.615L-36.6429 973.601L-1.64282 953.615V992.873ZM-1.64282 950.403L-35.5714 930.773V891.516L-1.64282 911.145V950.403ZM-34.5 890.088L-0.571472 870.459L33.3571 890.088L-0.571472 909.717L-34.5 890.088ZM70.1428 992.873L35.1428 1012.86L0.142883 992.873V953.615L35.1428 973.601L70.1428 953.615V992.873ZM70.1428 950.403L36.2143 930.773V891.516L70.1428 911.145V950.403ZM36.9285 890.088L70.8571 870.459L104.786 890.088L70.8571 909.717L36.9285 890.088ZM141.929 992.873L106.929 1012.86L71.9285 992.873V953.615L106.929 973.601L141.929 953.615V992.873ZM141.929 950.403L108 930.773V891.516L141.929 911.145V950.403ZM108.714 890.088L142.643 870.459L176.571 890.088L142.643 909.717L108.714 890.088ZM213.357 992.873L178.357 1012.86L143.357 992.873V953.615L178.357 973.601L213.357 953.615V992.873ZM213.357 950.403L179.429 930.773V891.516L213.357 911.145V950.403ZM180.5 890.088L214.429 870.459L248.357 890.088L214.429 909.717L180.5 890.088ZM285.143 992.873L250.143 1012.86L215.143 992.873V953.615L250.143 973.601L285.143 953.615V992.873ZM285.143 950.403L251.214 930.773V891.516L285.143 911.145V950.403ZM251.929 890.088L285.857 870.459L319.786 890.088L285.857 909.717L251.929 890.088ZM356.929 992.873L321.929 1012.86L286.929 992.873V953.615L321.929 973.601L356.929 953.615V992.873ZM356.929 950.403L323 930.773V891.516L356.929 911.145V950.403ZM323.714 890.088L357.643 870.459L391.571 890.088L357.643 909.717L323.714 890.088ZM428.357 992.873L393.357 1012.86L358.357 992.873V953.615L393.357 973.601L428.357 953.615V992.873ZM428.357 950.403L394.429 930.773V891.516L428.357 911.145V950.403ZM395.5 890.088L429.428 870.459L463.357 890.088L429.428 909.717L395.5 890.088ZM500.143 992.873L465.143 1012.86L430.143 992.873V953.615L465.143 973.601L500.143 953.615V992.873ZM500.143 950.403L466.214 930.773V891.516L500.143 911.145V950.403ZM466.928 890.088L500.857 870.459L534.786 890.088L500.857 909.717L466.928 890.088ZM571.929 992.873L536.929 1012.86L501.929 992.873V953.615L536.929 973.601L571.929 953.615V992.873ZM571.929 950.403L538 930.773V891.516L571.929 911.145V950.403ZM538.714 890.088L572.643 870.459L606.571 890.088L572.643 909.717L538.714 890.088ZM643.357 992.873L608.357 1012.86L573.357 992.873V953.615L608.357 973.601L643.357 953.615V992.873ZM643.357 950.403L609.429 930.773V891.516L643.357 911.145V950.403ZM610.5 890.088L644.429 870.459L678.357 890.088L644.429 909.717L610.5 890.088ZM715.143 992.873L680.143 1012.86L645.143 992.873V953.615L680.143 973.601L715.143 953.615V992.873ZM715.143 950.403L681.214 930.773V891.516L715.143 911.145V950.403ZM681.929 890.088L715.857 870.459L749.786 890.088L715.857 909.717L681.929 890.088ZM786.929 992.873L751.929 1012.86L716.928 992.873V953.615L751.929 973.601L786.929 953.615V992.873ZM786.929 950.403L753 930.773V891.516L786.929 911.145V950.403ZM753.714 890.088L787.643 870.459L821.571 890.088L787.643 909.717L753.714 890.088ZM858.714 992.873L823.714 1012.86L788.714 992.873V953.615L823.714 973.601L858.714 953.615V992.873ZM858.714 950.403L824.786 930.773V891.516L858.714 911.145V950.403ZM825.5 890.088L859.429 870.459L893.357 890.088L859.429 909.717L825.5 890.088ZM930.143 992.873L895.143 1012.86L860.143 992.873V953.615L895.143 973.601L930.143 953.615V992.873ZM930.143 950.403L896.214 930.773V891.516L930.143 911.145V950.403ZM896.929 890.088L930.857 870.459L964.786 890.088L930.857 909.717L896.929 890.088ZM1001.93 992.873L966.928 1012.86L931.929 992.873V953.615L966.928 973.601L1001.93 953.615V992.873ZM1001.93 950.403L968 930.773V891.516L1001.93 911.145V950.403ZM1002.64 909.717L968.714 890.088L1002.64 870.459L1036.57 890.088L1002.64 909.717ZM1003.71 911.145L1037.64 891.516V930.773L1003.71 950.403V911.145Z" fill="url(#paint0_linear)"/>
<defs>
<linearGradient id="paint0_linear" x1="160.5" y1="0" x2="160.5" y2="1015" gradientUnits="userSpaceOnUse">
<stop stop-color="white" stop-opacity="0"/>
<stop offset="0.477305" stop-color="#E8EEFF"/>
<stop offset="1" stop-color="#DFE8FF"/>
</linearGradient>
</defs>
</svg>
