<svg width="23" height="18" viewBox="0 0 23 18" fill="none" xmlns="http://www.w3.org/2000/svg">
<path d="M14.5946 12.5757V17.027C14.5946 17.5622 14.2054 18 13.6703 18H0.972973C0.437838 18 0 17.5622 0 17.027V0.972973C0 0.437838 0.437838 0 0.972973 0H13.6703C14.2054 0 14.5946 0.437838 14.5946 0.972973V5.42434C14.5946 5.95947 14.1568 6.39731 13.6216 6.39731C13.0865 6.39731 12.6486 5.95947 12.6486 5.42434V1.94595H1.94595V16.0541H12.6486V12.5757C12.6486 12.0405 13.0865 11.6027 13.6216 11.6027C14.1568 11.6027 14.5946 12.0405 14.5946 12.5757ZM22.0865 8.27027L18.2676 4.42702C17.8784 4.03783 17.2702 4.03783 16.8811 4.42702C16.4919 4.8162 16.4919 5.4243 16.8811 5.81349L19.046 8.00268L7.24866 8.02703C6.71353 8.02703 6.27569 8.46486 6.27569 9C6.27569 9.53514 6.71353 9.97297 7.24866 9.97297L19.046 9.94863L16.8811 12.1378C16.4919 12.527 16.5162 13.1352 16.8811 13.5243C17.0757 13.7189 17.3189 13.8162 17.5622 13.8162C17.8054 13.8162 18.073 13.7189 18.2432 13.5243L22.0622 9.68109C22.4757 9.26758 22.4757 8.65946 22.0865 8.27027Z" fill="white"/>
</svg>
