<svg width="30" height="30" viewBox="0 0 30 30" fill="none" xmlns="http://www.w3.org/2000/svg">
<path d="M23.277 2.5C21.2529 1.09375 18.9953 0.3125 16.4262 0.078125C15.7256 0 15.1807 0 14.7136 0C14.4022 0 14.0908 0.390625 14.1686 0.78125C14.1686 1.17187 14.48 1.48437 14.8693 1.5625C15.025 1.5625 15.1807 1.5625 15.3363 1.5625C19.151 1.71875 22.3428 3.20312 24.9118 6.01562C27.3252 8.67187 28.5708 12.1875 28.3372 15.8594C28.1037 19.4531 26.4688 22.7344 23.8219 25.0781C20.0852 28.2812 15.8034 29.2187 11.1325 27.8125C7.24 26.7187 4.43742 24.2187 2.72473 20.4687C1.94624 18.8281 1.55699 17.0312 1.55699 15C1.55699 14.5312 1.24559 14.2187 0.778495 14.1406C0.311398 14.1406 0 14.5312 0 15C0 15.3906 0 15.7812 0.0778495 16.1719C0.233548 18.5938 1.01204 20.7812 2.17979 22.7344C5.06022 27.2656 9.18624 29.6875 14.4022 30H14.48C18.7617 30 22.265 28.6719 25.1454 26.0156C28.8822 22.5781 30.4392 18.2812 29.8942 13.2031C29.2714 8.82812 27.0916 5.15625 23.277 2.5Z" fill="white"/>
<path d="M5.76086 15.8594C8.71914 15.8594 11.7553 15.8594 14.7136 15.8594C15.4142 15.8594 15.7256 15.5469 15.7256 14.8437C15.7256 13.6719 15.7256 12.4219 15.7256 11.25V8.04688C15.7256 7.26562 15.7256 6.5625 15.7256 5.78125C15.7256 5.39062 15.5699 5.07812 15.2585 4.92188C15.025 4.76562 14.7136 4.76562 14.48 4.92188C14.2465 5.07812 14.0908 5.39062 14.0908 5.70312C14.0908 7.5 14.0908 9.21875 14.0908 11.0156V13.5937C14.0908 13.9062 13.8572 14.2187 13.468 14.2187H8.64129C7.62925 14.2187 6.61721 14.2187 5.60516 14.2187C5.29377 14.2187 5.06022 14.2969 4.90452 14.5312C4.74882 14.6875 4.67097 14.9219 4.74882 15.1562C4.82667 15.5469 5.21592 15.8594 5.76086 15.8594Z" fill="white"/>
<path d="M2.64688 8.67188C3.11398 8.67188 3.42538 8.28125 3.42538 7.89062C3.42538 7.42187 3.11398 7.10937 2.64688 7.10937C2.41333 7.10937 2.25764 7.1875 2.10194 7.34375C1.94624 7.5 1.86839 7.73437 1.86839 7.96875C1.86839 8.20312 1.94624 8.35937 2.10194 8.51562C2.25764 8.59375 2.41333 8.67188 2.64688 8.67188Z" fill="white"/>
<path d="M7.78495 3.51562C8.25205 3.51562 8.56344 3.20312 8.56344 2.73437C8.56344 2.5 8.48559 2.34375 8.3299 2.1875C8.1742 2.03125 8.0185 1.95312 7.78495 1.95312C7.31785 1.95312 6.9286 2.26562 6.9286 2.73437C7.00645 3.125 7.31785 3.51562 7.78495 3.51562Z" fill="white"/>
</svg>
