<svg width="30" height="36" viewBox="0 0 30 36" fill="none" xmlns="http://www.w3.org/2000/svg">
<path d="M22.875 14.3617C21.8437 14.3617 21 15.1902 21 16.2029C21 17.3077 21.8437 18.1362 22.875 18.1362C23.9062 18.1362 24.75 17.3077 24.75 16.295C24.8437 15.1902 24 14.3617 22.875 14.3617ZM22.9687 16.8474C22.5937 16.8474 22.3125 16.5712 22.3125 16.2029C22.3125 15.8347 22.5937 15.5585 22.9687 15.5585C23.3437 15.5585 23.625 15.8347 23.625 16.2029C23.5312 16.5712 23.25 16.8474 22.9687 16.8474Z" fill="white"/>
<path d="M29.9062 13.349C29.9062 12.2443 29.3438 11.6919 28.2188 11.5998C28.125 11.5998 28.0312 11.5998 27.9375 11.5998C27.9375 11.4157 27.9375 11.2316 27.9375 11.0474C27.9375 7.18084 27.9375 6.26022 27.9375 2.39361C27.9375 1.19681 27.2812 0.276186 26.1562 0C25.9687 0 25.6875 0 25.5 0C18.2812 0 11.7187 0 2.4375 0C0.9375 0 0 0.920621 0 2.39361C0 13.4411 0 18.6886 0 29.644C0 31.117 0.84375 32.0376 2.4375 32.0376C2.8125 32.0376 3.09375 32.0376 3.5625 32.0376C3.5625 32.9582 3.5625 33.8788 3.5625 34.7995C3.5625 35.2598 3.65625 35.628 4.125 35.9042C4.59375 36.0883 4.96875 35.9963 5.34375 35.7201C6 35.1677 6.75 34.6153 7.40625 34.063C8.0625 34.6153 8.71875 35.0756 9.28125 35.536C9.65625 35.9042 10.125 36.0883 10.6875 35.9042C11.25 35.628 11.3438 35.1677 11.3438 34.6153C11.3438 33.7868 11.3438 32.9582 11.3438 32.0376C11.625 32.0376 11.8125 32.0376 12 32.0376C18 32.0376 21.375 32.0376 25.4062 32.0376C26.4375 32.0376 27.2812 31.7614 27.75 30.7487C27.9375 30.3805 27.9375 29.9202 27.9375 29.5519C27.9375 25.7774 27.9375 24.8568 27.9375 21.0822C27.9375 20.8981 27.9375 20.714 27.9375 20.5298C28.125 20.5298 28.2187 20.5298 28.4062 20.5298C29.3437 20.5298 30 19.9775 30 18.9648C30 17.6759 30 16.295 30 15.0061C29.9062 14.5458 29.9062 13.9014 29.9062 13.349ZM25.125 1.38093C25.2187 1.38093 25.2188 1.38093 25.3125 1.38093C26.3438 1.38093 26.5312 1.65712 26.5312 2.57774C26.5312 6.35228 26.5312 7.2729 26.5312 11.0474C26.5312 11.2316 26.5312 11.4157 26.5312 11.5998C25.6875 11.5998 25.9687 11.5998 25.125 11.5998C25.125 7.2729 25.125 5.79991 25.125 1.38093ZM9.9375 34.3391C9.28125 33.8788 8.8125 33.4185 8.25 32.9582C7.59375 32.4979 7.3125 32.4979 6.65625 32.9582C6.09375 33.4185 5.53125 33.7868 4.96875 34.3391C4.96875 33.6027 4.96875 32.8662 4.96875 32.2217C6.65625 32.2217 8.25 32.2217 9.9375 32.2217C9.9375 32.8662 9.9375 33.6027 9.9375 34.3391ZM23.7187 30.7487C23.5312 30.7487 23.3438 30.7487 23.25 30.7487C16.125 30.7487 9.75 30.7487 2.625 30.7487C1.6875 30.7487 1.5 30.5646 1.5 29.644C1.5 18.6886 1.5 13.5331 1.5 2.57774C1.5 1.65712 1.78125 1.38093 2.71875 1.38093C9.75 1.38093 16.2188 1.38093 23.25 1.38093C23.4375 1.38093 23.625 1.38093 23.8125 1.38093C23.8125 5.79991 23.8125 7.2729 23.8125 11.5998C20.3437 11.3236 18.4688 13.8093 18.375 16.0188C18.375 17.0315 18.6562 17.9521 19.2188 18.7807C20.3438 20.2537 21.9375 20.714 23.7187 20.6219C23.7187 24.9488 23.7187 26.4218 23.7187 30.7487ZM26.4375 30.1964C26.3438 30.3805 26.0625 30.6567 25.875 30.7487C25.3125 30.8408 25.6875 30.7487 25.0312 30.7487C25.0312 26.4218 25.0312 24.9488 25.0312 20.714C25.875 20.714 25.5938 20.714 26.4375 20.714C26.4375 20.8981 26.4375 20.9902 26.4375 21.1743C26.4375 24.9488 26.4375 25.8694 26.4375 29.644C26.5312 29.8281 26.5312 30.0122 26.4375 30.1964ZM28.4062 19.0568C25.9687 19.0568 24.6562 19.1489 22.3125 19.0568C21.0938 19.0568 19.9688 17.768 19.875 16.5712C19.6875 14.7299 21 13.2569 22.875 13.2569C24.9375 13.2569 26.0625 13.2569 28.2188 13.2569C28.3125 13.2569 28.4062 13.2569 28.5 13.2569C28.4062 15.1902 28.4062 17.1235 28.4062 19.0568Z" fill="white"/>
<path d="M11.0625 8.65384C8.4375 8.00941 5.71875 9.02209 4.3125 11.2316C2.8125 13.4411 3 16.295 4.78125 18.3204C5.53125 19.241 6.28125 20.1616 7.125 20.9902C7.875 21.9108 8.71875 22.8314 9.5625 23.8441C9.65625 23.752 9.65625 23.66 9.75 23.5679C11.25 21.8187 12.8437 19.9775 14.3437 18.2283C15.375 17.0315 15.75 15.6506 15.6562 14.0855C15.4688 11.5078 13.5937 9.29827 11.0625 8.65384ZM13.4062 17.0315C12.1875 18.5965 10.875 20.0695 9.46875 21.7267C8.53125 20.714 7.6875 19.7013 6.84375 18.6886C6.5625 18.3204 6.1875 17.9521 5.90625 17.5839C4.59375 16.1109 4.3125 14.0855 5.25 12.4284C6.1875 10.6792 7.78125 9.75858 9.84375 9.85065C11.625 9.94271 12.9375 10.8633 13.6875 12.3363C14.5312 13.9934 14.5312 15.5585 13.4062 17.0315Z" fill="white"/>
<path d="M9.56249 11.5078C7.96874 11.5078 6.74999 12.7046 6.74999 14.2696C6.74999 15.8347 7.96874 17.0315 9.56249 17.0315C11.1562 17.0315 12.375 15.7426 12.375 14.2696C12.2812 12.7046 11.0625 11.5078 9.56249 11.5078ZM9.46874 15.6506C8.71874 15.6506 8.06249 15.0061 8.06249 14.2696C8.06249 13.5331 8.71874 12.8887 9.46874 12.8887C10.2187 12.8887 10.7812 13.5331 10.7812 14.2696C10.875 15.0061 10.3125 15.6506 9.46874 15.6506Z" fill="white"/>
</svg>
