<svg width="30" height="30" viewBox="0 0 30 30" fill="none" xmlns="http://www.w3.org/2000/svg">
<path d="M29.9254 13.6973C29.9254 12.7295 29.4776 12.2084 28.4328 12.0596C28.0597 11.9851 27.6119 11.9851 27.2388 11.9107C26.8657 11.8362 26.5672 11.8362 26.194 11.7618C26.0448 11.7618 25.9701 11.6873 25.8955 11.5385C25.6716 10.8685 25.3731 10.273 25.0746 9.60298C25 9.45409 25 9.30521 25.1493 9.15633C25.6716 8.48635 26.194 7.89082 26.5672 7.29529C27.0896 6.62531 27.0149 5.88089 26.4925 5.28536C25.8955 4.76427 25.2239 4.09429 24.4776 3.42432C23.8806 2.82878 23.1343 2.82878 22.4627 3.34988C21.8657 3.79653 21.194 4.31762 20.597 4.76427C20.4478 4.91315 20.3731 4.91315 20.1493 4.83871C19.5522 4.54094 18.9552 4.31762 18.2836 4.09429C18.1343 4.01985 18.0597 3.94541 18.0597 3.79653C17.9851 2.90323 17.8358 2.15881 17.7612 1.41439C17.6119 0.44665 17.0896 0 16.2687 0C15.4478 0 14.5522 0 13.5821 0C12.6866 0 12.0896 0.521092 12.0149 1.41439C11.9403 1.7866 11.9403 2.15881 11.8657 2.53102C11.791 2.97767 11.7164 3.34988 11.7164 3.72208C11.7164 3.87097 11.6418 3.94541 11.4925 4.01985C10.8209 4.31762 10.1493 4.54094 9.55224 4.83871C9.40298 4.91315 9.32836 4.91315 9.1791 4.83871C8.73134 4.4665 8.20895 4.09429 7.68657 3.72208L7.31343 3.34988C6.56716 2.75434 5.89552 2.82878 5.22388 3.42432C4.62687 4.01985 3.95522 4.68983 3.28358 5.3598C2.68657 5.95534 2.61194 6.69975 3.20896 7.36973L3.35821 7.51861C3.80597 8.11414 4.25373 8.63524 4.70149 9.23077C4.77612 9.37965 4.77612 9.45409 4.70149 9.60298C4.40299 10.273 4.10448 10.8685 3.95522 11.464C3.8806 11.6873 3.80597 11.7618 3.58209 11.7618C2.83582 11.8362 2.08955 11.9107 1.41791 12.0596H1.34328C0.522388 12.2084 0 12.7295 0 13.4739C0 14.4417 0 15.4094 0 16.3772C0 17.1216 0.447761 17.6427 1.26866 17.7916C2.01493 17.9404 2.76119 18.0149 3.65672 18.0893C3.80597 18.0893 3.8806 18.1638 3.95522 18.3127C4.10448 18.6849 4.25373 18.9826 4.40299 19.3548C4.55224 19.6526 4.70149 19.9504 4.77612 20.3226C4.77612 20.397 4.77612 20.5459 4.77612 20.6203C4.55224 20.9181 4.32836 21.2159 4.10448 21.5136C3.80597 21.8859 3.58209 22.2581 3.28358 22.6303C3.13433 22.7792 3.0597 23.0025 2.98507 23.2258C2.91045 23.3002 2.91045 23.3747 2.83582 23.5236C2.91045 23.9702 3.0597 24.268 3.35821 24.5658L3.50746 24.7146C4.10448 25.3102 4.70149 25.9057 5.29851 26.5012C5.97015 27.0968 6.64179 27.1712 7.38806 26.6501L7.76119 26.4268C8.28358 26.0546 8.73134 25.6824 9.25373 25.3102C9.40299 25.1613 9.47761 25.1613 9.70149 25.2357C10.3731 25.5335 10.9701 25.8313 11.4925 25.9802C11.7164 26.0546 11.791 26.129 11.8657 26.4268C11.9403 27.3945 12.0896 28.139 12.1642 28.8834C12.3134 29.5534 12.7612 30 13.4328 30C13.9552 30 14.4776 30 15 30C15.5224 30 16.0448 30 16.5672 30C17.2388 30 17.7612 29.5534 17.8358 28.8089C17.9104 28.0645 18.0597 27.3201 18.1343 26.3524C18.1343 26.129 18.209 26.129 18.3582 26.0546C18.9552 25.8313 19.5522 25.5335 20.2985 25.2357C20.4478 25.1613 20.5224 25.1613 20.6716 25.3102C21.2687 25.7568 21.8657 26.2035 22.4627 26.6501L22.5373 26.7246C23.209 27.2457 23.9552 27.2457 24.5522 26.6501C25.2239 26.0546 25.8955 25.3846 26.4925 24.7146C27.0896 24.1191 27.0896 23.3747 26.5672 22.7047L26.4179 22.3325C26.0448 21.8114 25.597 21.2159 25.1493 20.6948C25.0746 20.5459 25.0746 20.4715 25.1493 20.3226C25.4478 19.6526 25.7463 18.9826 25.9701 18.3871C26.0448 18.2382 26.1194 18.1638 26.2687 18.1638C27.0149 18.0893 27.7612 18.0149 28.5821 17.866C29.5522 17.7171 30 17.196 30 16.2283C29.9254 15.335 29.9254 14.5161 29.9254 13.6973ZM28.5075 16.3027C28.5075 16.4516 28.5075 16.5261 28.2836 16.5261C27.8358 16.6005 27.3881 16.6749 26.9403 16.6749C26.4179 16.7494 25.9701 16.8238 25.4478 16.8983C25.0746 16.9727 24.8507 17.1216 24.7015 17.5682C24.403 18.3871 24.0298 19.2804 23.6567 20.0993C23.4328 20.5459 23.5075 20.8437 23.7313 21.2159C24.0299 21.5881 24.3284 21.9603 24.6269 22.3325C24.8507 22.7047 25.1493 23.0025 25.4478 23.3747C25.597 23.5236 25.597 23.598 25.4478 23.7469C24.8507 24.3424 24.2537 24.938 23.6567 25.5335C23.5075 25.6824 23.4328 25.6824 23.2836 25.5335C22.9851 25.3102 22.6866 25.0869 22.3881 24.8635C21.9403 24.5658 21.5672 24.1935 21.1194 23.8958C20.7463 23.598 20.4478 23.598 19.9254 23.8213C19.1045 24.1935 18.209 24.5658 17.3881 24.8635C16.9403 25.0124 16.791 25.2357 16.7164 25.6079C16.6418 26.129 16.5672 26.6501 16.4925 27.1712C16.4179 27.5434 16.4179 27.9901 16.3433 28.3623C16.3433 28.5112 16.2687 28.5856 16.1194 28.5856C15.6716 28.5856 15.2985 28.5856 14.8507 28.5856C14.403 28.5856 14.0298 28.5856 13.5821 28.5856C13.4328 28.5856 13.3582 28.5112 13.3582 28.3623C13.2836 27.8412 13.209 27.3201 13.1343 26.799C13.0597 26.4268 13.0597 25.9802 12.9851 25.6079C12.9104 25.0869 12.7612 25.0124 12.3134 24.7891C11.5672 24.4913 10.6716 24.1191 9.77612 23.7469C9.32836 23.5236 9.02985 23.598 8.73134 23.8213C8.35821 24.1191 7.98507 24.4169 7.61194 24.7146C7.23881 24.938 6.9403 25.2357 6.56716 25.5335C6.41791 25.6824 6.26866 25.6824 6.1194 25.5335C5.59701 24.938 5 24.4169 4.32836 23.7469C4.1791 23.598 4.1791 23.5236 4.32836 23.3747C4.62687 23.0025 4.92537 22.5558 5.22388 22.1836C5.52239 21.8114 5.74627 21.5136 6.04478 21.1414C6.34328 20.7692 6.26866 20.4715 6.1194 20.1737C5.67164 19.206 5.37313 18.3871 5.07463 17.5682C4.92537 17.196 4.70149 16.9727 4.25373 16.8983C3.50746 16.8238 2.83582 16.7494 2.08955 16.6005C1.79104 16.5261 1.56716 16.5261 1.26866 16.4516V13.4739L1.79104 13.3995C2.23881 13.3251 2.68657 13.2506 3.13433 13.2506C3.50746 13.1762 3.95522 13.1762 4.32836 13.1017C4.70149 13.0273 4.92537 12.8784 5.07463 12.5062C5.29851 11.5385 5.67164 10.6452 6.19403 9.8263C6.41791 9.52854 6.34328 9.15633 6.1194 8.85856C5.89552 8.56079 5.59701 8.18859 5.37313 7.89082C5 7.44417 4.62687 7.07196 4.32836 6.62531C4.1791 6.47643 4.1791 6.40199 4.32836 6.2531C4.77612 5.80645 5.29851 5.3598 5.74627 4.83871L6.26866 4.31762L6.49254 4.4665C6.71642 4.61538 6.86567 4.76427 7.08955 4.91315L7.38806 5.13648C7.83582 5.50869 8.28358 5.88089 8.80597 6.17866C9.10448 6.40199 9.40298 6.40199 9.77612 6.2531C10.597 5.73201 11.4925 5.3598 12.4627 5.13648C12.8358 5.06204 12.9851 4.83871 13.0597 4.39206C13.209 3.49876 13.2836 2.53102 13.4328 1.63772C13.4328 1.56328 13.5075 1.41439 13.5821 1.41439C14.3284 1.41439 15.1493 1.41439 15.9701 1.41439H16.4925L16.5672 1.71216C16.6418 2.30769 16.7164 2.82878 16.791 3.42432C16.791 3.5732 16.8657 3.79653 16.8657 3.94541C16.8657 4.16873 16.9403 4.31762 16.9403 4.54094C17.0149 4.83871 17.1642 5.06204 17.4627 5.21092C18.4328 5.43424 19.403 5.88089 20.2239 6.32754C20.5224 6.47643 20.8209 6.47643 21.1194 6.2531C21.6418 5.80645 22.2388 5.43424 22.7612 4.98759L23.2836 4.4665C23.3582 4.39206 23.3582 4.39206 23.4328 4.31762L23.5075 4.24318L23.806 4.54094C24.1045 4.83871 24.403 5.21092 24.7015 5.50869L24.7761 5.58313C25 5.80645 25.1493 6.02978 25.3731 6.17866C25.5224 6.32754 25.5224 6.40199 25.3731 6.55087C25.0746 6.92308 24.7761 7.29529 24.5522 7.66749C24.3284 8.0397 24.0299 8.41191 23.7313 8.78412C23.5075 9.08189 23.4328 9.37965 23.6567 9.8263C24.0298 10.6452 24.403 11.5385 24.7015 12.4318C24.8507 12.804 25.0746 13.0273 25.5224 13.1017C26.0448 13.1762 26.6418 13.2506 27.1642 13.3251C27.5373 13.3995 27.9104 13.3995 28.2836 13.4739C28.4328 13.4739 28.5075 13.5484 28.5075 13.6973C28.5075 14.4417 28.5075 15.335 28.5075 16.3027Z" fill="white"/>
<path d="M14.6269 6.99752C10.2985 7.1464 6.86567 10.7196 6.86567 14.9628C6.86567 17.1216 7.76119 19.2804 9.25373 20.7692C10.7463 22.1836 12.6866 23.0025 14.7761 23.0025C14.8507 23.0025 15 23.0025 15.0746 23.0025C19.403 22.8536 22.7612 19.3548 22.7612 15.1117C22.7612 12.8784 21.8657 10.794 20.3731 9.30521C18.8806 7.74194 16.791 6.99752 14.6269 6.99752ZM12.9104 14.2184C12.9104 13.7717 13.0597 13.3251 13.4328 12.9529C13.806 12.5806 14.2537 12.3573 14.7761 12.3573H14.8507C15.8955 12.3573 16.791 13.1762 16.791 14.2928C16.791 14.7395 16.6418 15.1861 16.2687 15.5583C15.8955 15.9305 15.4478 16.1538 14.9254 16.2283C13.806 16.2283 12.9851 15.335 12.9104 14.2184ZM18.209 13.7717C18.0597 12.8784 17.6866 12.2084 17.0149 11.6129C15.7463 10.5707 13.806 10.5707 12.6119 11.6873C11.9403 12.2829 11.5672 13.1762 11.4925 14.0695C11.4925 14.665 11.6418 15.6328 12.3881 16.5261C11.2687 16.8983 10.2239 17.4938 9.25373 18.3127C8.0597 16.6005 7.53731 13.1017 10.1493 10.4218C12.6119 7.89082 16.4925 7.74194 19.1045 10.0496C21.7164 12.3573 21.9403 16.0794 20.4478 18.3127C19.403 17.4938 18.4328 16.8983 17.3134 16.5261C18.0597 15.7072 18.3582 14.8139 18.209 13.7717ZM19.5522 19.5037C18.5075 20.7692 16.791 21.5136 15 21.5136C14.9254 21.5136 14.9254 21.5136 14.8507 21.5136C13.0597 21.5136 11.3433 20.7692 10.1493 19.5037C11.2687 18.3127 12.9851 17.6427 14.8507 17.5682C16.7164 17.5682 18.4328 18.2382 19.5522 19.5037Z" fill="white"/>
</svg>
