<svg width="30" height="30" viewBox="0 0 30 30" fill="none" xmlns="http://www.w3.org/2000/svg">
<path d="M15.5172 28.5961C15.4433 28.5961 15.2956 28.5961 15.1478 28.5961H12.6355C12.1921 28.5961 12.1182 28.5222 12.1182 28.0788V27.1921C12.1182 26.2315 12.1182 25.2709 12.1182 24.3842C12.1182 23.9409 11.8966 23.6453 11.5271 23.5714C11.4532 23.5714 11.3793 23.4975 11.3054 23.4975H11.2315C10.7143 23.2759 10.4926 23.3498 10.1232 23.7192L7.53695 26.3054C7.24138 26.601 7.0936 26.601 6.87192 26.3054C5.91133 25.1232 4.80296 24.0148 3.76847 22.9803C3.47291 22.6847 3.47291 22.6108 3.76847 22.3153L4.50739 21.5764C5.17241 20.9113 5.76355 20.2463 6.42857 19.6552C6.72414 19.3596 6.79803 19.064 6.65025 18.6946C6.65025 18.6207 6.57635 18.5468 6.57635 18.4729V18.399C6.2069 17.8079 6.05911 17.734 5.46798 17.734H1.84729C1.40394 17.734 1.33005 17.6601 1.33005 17.2167C1.33005 15.665 1.33005 14.1872 1.33005 12.6355C1.33005 12.1921 1.40394 12.1182 1.84729 12.1182H5.24631C6.2069 12.1182 6.28079 12.0443 6.57635 11.1576C6.72414 10.7882 6.65025 10.4926 6.35468 10.197C5.68966 9.53202 4.95074 8.86699 4.28571 8.12808L3.69458 7.53695C3.62069 7.53695 3.5468 7.38916 3.5468 7.31527C3.5468 7.24138 3.62069 7.0936 3.76847 6.94581C4.80296 5.83744 5.91133 4.80296 6.94581 3.76847C7.24138 3.47291 7.31527 3.47291 7.61084 3.76847L8.27586 4.4335C8.94089 5.09852 9.60591 5.76355 10.197 6.42857C10.4926 6.79803 10.8621 6.87192 11.3054 6.65025C11.3793 6.65025 11.3793 6.57635 11.4532 6.57635H11.5271C12.0443 6.35468 12.1182 6.2069 12.1182 5.68966V1.99507C12.1182 1.55172 12.1921 1.47783 12.6355 1.47783C14.1872 1.47783 15.665 1.47783 17.2167 1.47783C17.6601 1.47783 17.734 1.55172 17.734 1.99507V5.39409C17.734 6.28079 17.8079 6.35468 18.6207 6.72414C19.064 6.87192 19.3596 6.79803 19.6552 6.50246C20.2463 5.83744 20.9113 5.24631 21.5025 4.58128L22.2414 3.84236C22.3892 3.69458 22.5369 3.62069 22.6108 3.62069C22.6847 3.62069 22.8325 3.69458 22.9803 3.84236C24.0148 4.87685 25.1232 5.98522 26.1576 7.0197C26.3054 7.16749 26.3793 7.31527 26.3793 7.38916C26.3793 7.46305 26.3054 7.61084 26.1576 7.75862L23.7931 10.1232C23.6453 10.2709 23.5714 10.3448 23.4236 10.4926C23.2759 10.7143 23.202 11.0099 23.3498 11.2315C23.4236 11.4532 23.6453 11.601 23.867 11.601C24.0887 11.601 24.3103 11.4532 24.532 11.3054C25.2709 10.5665 26.0099 9.90148 26.6749 9.16256L27.1921 8.64532C28.0049 7.83251 28.0049 6.87192 27.1921 6.05911C26.0837 4.95074 25.0493 3.91626 23.9409 2.80788C23.0542 1.92118 22.1675 1.92118 21.2808 2.80788L19.064 5.02463V4.06404C19.064 3.32512 19.064 2.58621 19.064 1.84729C19.064 0.738916 18.399 0.0738916 17.2906 0C15.7389 0 14.1872 0 12.6355 0C11.5271 0 10.8621 0.665025 10.8621 1.84729V5.02463L8.64532 2.80788C7.83251 1.99507 6.87192 1.99507 6.05911 2.80788C4.95074 3.84236 3.84236 4.95074 2.73399 6.05911C1.92118 6.87192 1.92118 7.83251 2.73399 8.57143L5.02463 10.8621H4.28571C3.47291 10.8621 2.6601 10.8621 1.84729 10.8621C0.665025 10.8621 0 11.5271 0 12.5616C0 14.2611 0 15.8867 0 17.2906C0 18.3251 0.665025 18.9901 1.7734 18.9901C2.51232 18.9901 3.17734 18.9901 3.91626 18.9901H5.09852L4.50739 19.5813C3.91626 20.1724 3.32512 20.6897 2.73399 21.2808C1.99507 22.0197 1.99507 22.9803 2.73399 23.7931C3.84236 24.9015 4.87685 25.936 5.98522 27.0443C6.79803 27.8571 7.75862 27.8571 8.64532 27.0443L10.8621 24.8276V25.7882C10.8621 26.5271 10.8621 27.3399 10.8621 28.0788C10.8621 29.1133 11.5271 29.7783 12.4877 29.7783C12.931 29.7783 13.3744 29.7783 13.8177 29.7783C14.1872 29.7783 14.6305 29.7783 15 29.7783H15.4433C15.8128 29.7783 16.1084 29.4828 16.1084 29.1133C16.1823 28.9655 15.8867 28.67 15.5172 28.5961Z" fill="white"/>
<path d="M29.9261 19.064C29.9261 17.5862 29.9261 16.1084 29.9261 14.6305C29.9261 12.931 28.8177 11.8227 27.1182 11.8227C24.532 11.8227 21.9458 11.8227 19.3596 11.8227C19.5074 11.7488 19.6552 11.5271 19.6552 11.3793C19.6552 11.1576 19.5813 10.8621 19.3596 10.7143C18.1773 9.53202 16.6995 8.94089 14.8522 8.86699C13.2266 8.94089 11.7488 9.60591 10.6404 10.7143C8.64532 12.7833 8.34975 15.7389 9.82759 18.1773C11.0099 20.0246 12.7094 20.9852 14.9261 21.0591C15.1478 21.0591 15.2956 20.9852 15.4433 20.8374C15.5911 20.6897 15.665 20.5419 15.665 20.3941C15.665 20.2463 15.5911 20.0246 15.4433 19.9507C15.2956 19.803 15.1478 19.7291 14.8522 19.7291C14.1872 19.7291 13.5222 19.5813 12.8571 19.2118C10.936 18.3251 9.90148 16.0345 10.3448 13.9655C10.8621 11.6749 12.7833 10.4187 14.335 10.2709C15.8867 10.0493 17.2167 10.4926 18.2512 11.5271C18.399 11.6749 18.4729 11.7488 18.6207 11.8227C16.9212 11.8227 15.8128 13.0049 15.8128 14.7044V27.1182C15.8128 28.8177 16.9212 30 18.6946 30C19.9507 30 21.133 30 22.3892 30C23.9409 30 25.5665 30 27.1182 30C27.4877 30 27.8571 29.9261 28.1527 29.8522C29.2611 29.4828 29.9261 28.5222 30 27.1921C30 25.7143 30 24.3103 30 22.8325V20.9852L29.9261 19.064ZM17.1429 14.6305C17.1429 13.67 17.6601 13.1527 18.6207 13.1527H21.0591C23.0542 13.1527 25.1232 13.1527 27.1182 13.1527C27.5616 13.1527 27.931 13.3005 28.2266 13.5961C28.5222 13.8916 28.67 14.2611 28.67 14.6305C28.67 16.1084 28.67 17.6601 28.67 19.064C28.67 19.6552 28.67 20.2463 28.67 20.8374C28.67 21.4286 28.67 22.0197 28.67 22.6108C28.67 24.0887 28.67 25.5665 28.67 27.0443C28.67 27.4877 28.5222 27.8571 28.3005 28.0788C28.0049 28.3744 27.6355 28.5222 27.266 28.5222C25.8621 28.5222 24.4581 28.5222 23.0542 28.5222C21.6502 28.5222 20.1724 28.5222 18.7685 28.5222C18.3251 28.5222 17.9557 28.3744 17.734 28.0788C17.4384 27.7833 17.2906 27.4138 17.2906 27.0443C17.2906 24.0887 17.2906 21.133 17.2906 18.2512L17.1429 14.6305Z" fill="white"/>
<path d="M19.5074 20.0985C19.9507 20.0985 20.3941 20.0985 20.8374 20.0985C21.2069 20.0985 21.5025 20.0985 21.8719 20.0985H23.7931C24.6059 20.0985 25.4187 20.0985 26.2315 20.0985C27.266 20.0985 28.0049 19.4335 28.0049 18.3251C28.0049 17.3645 28.0049 16.4778 28.0049 15.5172C28.0049 14.4828 27.3399 13.7438 26.2315 13.7438C24.0148 13.7438 21.7241 13.7438 19.5074 13.7438C18.4729 13.7438 17.8079 14.4089 17.734 15.4433C17.734 16.4039 17.734 17.2906 17.734 18.2512C17.734 19.3596 18.4729 20.0985 19.5074 20.0985ZM26.1576 15.1478C26.4532 15.1478 26.601 15.2217 26.601 15.5172C26.601 16.4039 26.601 17.3645 26.601 18.3251C26.601 18.5468 26.5271 18.6946 26.1576 18.6946C25.3448 18.6946 24.6059 18.6946 23.7931 18.6946H19.5074C19.1379 18.6946 19.064 18.6207 19.064 18.2512C19.064 17.3645 19.064 16.4778 19.064 15.5911C19.064 15.2217 19.1379 15.1478 19.5074 15.1478C21.7241 15.1478 23.9409 15.1478 26.1576 15.1478Z" fill="white"/>
<path d="M27.931 22.3892C27.931 21.6502 27.5616 21.133 26.8966 20.8374C26.3793 20.6158 25.8621 20.6897 25.4187 20.9852C24.9015 21.2808 24.6798 21.8719 24.6059 22.4631C24.6059 23.5714 24.6059 24.8276 24.6059 26.1576C24.6059 26.3793 24.6059 26.601 24.7537 26.8966C24.9754 27.4877 25.6404 27.931 26.3054 27.931C26.3793 27.931 26.5271 27.931 26.601 27.931C27.3399 27.7833 27.931 27.1182 27.931 26.3054C27.931 25.8621 27.931 25.4187 27.931 24.9015V23.6453C27.931 23.2759 27.931 22.8325 27.931 22.3892ZM26.601 24.7537C26.601 25.197 26.601 25.6404 26.601 26.0837C26.601 26.2315 26.601 26.3054 26.601 26.3793C26.5271 26.5271 26.4532 26.601 26.3054 26.601C26.0099 26.601 26.0099 26.4532 26.0099 26.3793C26.0099 26.0837 26.0099 25.8621 26.0099 25.5665V25.4187C26.0099 24.4581 26.0099 23.4236 26.0099 22.4631C26.0099 22.3153 26.0837 22.1675 26.0837 22.0936C26.1576 22.0197 26.1576 22.0197 26.3054 22.0197C26.5271 22.0197 26.601 22.1675 26.601 22.4631C26.601 22.9064 26.601 23.3498 26.601 23.7192V24.7537Z" fill="white"/>
<path d="M19.4335 20.6897C18.4729 20.6897 17.734 21.4286 17.734 22.3153C17.734 22.7586 17.8818 23.202 18.1773 23.4975C18.4729 23.7931 18.9163 24.0148 19.3596 24.0148C20.2463 24.0148 20.9852 23.2759 20.9852 22.3892C20.9852 21.9458 20.8374 21.5025 20.5419 21.2069C20.2463 20.8374 19.8768 20.6897 19.4335 20.6897ZM19.4335 22.0936C19.5813 22.0936 19.7291 22.2414 19.7291 22.3892C19.7291 22.5369 19.5813 22.6847 19.4335 22.6847C19.3596 22.6847 19.2857 22.6847 19.2118 22.6108C19.1379 22.5369 19.1379 22.4631 19.1379 22.3892C19.1379 22.1675 19.2118 22.0936 19.4335 22.0936Z" fill="white"/>
<path d="M19.4335 24.6059C18.5468 24.6059 17.8079 25.3448 17.8079 26.2315C17.8079 27.1182 18.5468 27.8571 19.4335 27.931C19.8768 27.931 20.2463 27.7833 20.6158 27.4877C20.9113 27.1921 21.133 26.7488 21.133 26.3054C21.133 25.8621 20.9852 25.4187 20.6158 25.1232C20.2463 24.8276 19.803 24.6059 19.4335 24.6059ZM19.4335 26.601C19.3596 26.601 19.2857 26.601 19.2118 26.5271C19.1379 26.4532 19.1379 26.3793 19.1379 26.3054C19.1379 26.1576 19.2857 26.0099 19.4335 26.0099C19.5813 26.0099 19.7291 26.1576 19.7291 26.3054C19.7291 26.4532 19.5813 26.601 19.4335 26.601Z" fill="white"/>
<path d="M22.8325 24.0148C23.2759 24.0148 23.7192 23.867 24.0148 23.5714C24.3103 23.2759 24.532 22.8325 24.532 22.3892C24.532 21.9458 24.3842 21.5025 24.0148 21.2069C23.7192 20.9113 23.2759 20.6897 22.8325 20.6897C21.9458 20.6897 21.2069 21.4286 21.2069 22.3153C21.2069 23.2759 21.8719 24.0148 22.8325 24.0148ZM22.8325 22.6847C22.7586 22.6847 22.6847 22.6847 22.6108 22.6108C22.5369 22.5369 22.5369 22.4631 22.5369 22.3892C22.5369 22.3153 22.5369 22.2414 22.6108 22.1675C22.6847 22.0936 22.7586 22.0936 22.8325 22.0936C22.9803 22.0936 23.1281 22.2414 23.1281 22.3892C23.1281 22.4631 22.9803 22.6108 22.8325 22.6847Z" fill="white"/>
<path d="M22.8325 24.6059C22.3892 24.6059 21.9458 24.7537 21.6502 25.1232C21.3547 25.4187 21.133 25.8621 21.133 26.3054C21.133 26.7488 21.3547 27.1921 21.6502 27.4877C21.9458 27.7833 22.3892 27.931 22.8325 27.931C23.7192 27.931 24.4581 27.1921 24.4581 26.2315C24.532 25.3448 23.7192 24.6059 22.8325 24.6059ZM22.5369 26.3054C22.5369 26.1576 22.6847 26.0099 22.8325 26.0099C22.9803 26.0099 23.1281 26.1576 23.1281 26.3054C23.1281 26.3793 23.1281 26.4532 23.0542 26.5271C22.9803 26.5271 22.9064 26.601 22.8325 26.601C22.6847 26.601 22.5369 26.4532 22.5369 26.3054Z" fill="white"/>
</svg>
