<svg width="30" height="36" viewBox="0 0 30 36" fill="none" xmlns="http://www.w3.org/2000/svg">
<path d="M30 8.41206C30 7.9598 29.9077 7.50754 29.5385 7.14573C27.5077 4.70352 25.8462 2.62312 24.2769 0.633166C23.9077 0.180905 23.4462 0 22.8 0C17.7231 0 12.7385 0 7.66154 0C6.92308 0 6.73846 0.271357 6.73846 0.904523C6.73846 1.53769 6.73846 2.17085 6.73846 2.80402V3.70854H6C5.53846 3.70854 5.07692 3.70854 4.61538 3.70854C4.06154 3.70854 3.78462 3.9799 3.69231 4.52261C3.69231 4.88442 3.69231 5.24623 3.69231 5.60804C3.69231 5.78894 3.69231 5.8794 3.69231 6.0603V7.77889H1.10769C0.184615 7.77889 0 8.05025 0 8.95477V35.005C0 35.0955 0 35.2764 0 35.3668C0 35.7286 0.276923 35.9095 0.646154 36C0.830769 36 1.01538 36 1.2 36C8.03077 36 14.7692 36 21.6 36H21.7846C21.9692 36 22.1538 36 22.3385 36C23.0769 36 23.2615 35.7286 23.2615 35.005C23.2615 34.3719 23.2615 33.8291 23.2615 33.196V31.8392H23.8154C24 31.8392 24.2769 31.8392 24.4615 31.8392C24.8308 31.8392 25.2923 31.8392 25.6615 31.8392C26.4 31.8392 26.5846 31.5678 26.5846 30.9347C26.5846 30.5729 26.5846 30.2111 26.5846 29.8492V28.2211H26.8615C27.5077 28.2211 28.2462 28.2211 28.8923 28.2211C29.7231 28.2211 30 27.9498 30 27.1357V23.2462C30 18.3618 30 13.3869 30 8.41206ZM24.1846 2.98492L27.7846 7.41709H24.1846V2.98492ZM24.3692 11.0352H21.2308V6.69347L24.3692 11.0352ZM8.21538 1.53769H22.6154V5.8794L22.4308 5.69849C22.3385 5.51759 22.1538 5.42714 22.0615 5.33668C21.7846 5.06533 21.5077 4.79397 21.3231 4.52261C20.8615 3.9799 20.4 3.70854 19.5692 3.70854C19.5692 3.70854 19.5692 3.70854 19.4769 3.70854C16.8923 3.70854 14.2154 3.70854 11.6308 3.70854C10.7077 3.70854 9.69231 3.70854 8.76923 3.70854H8.21538V1.53769ZM21.0462 15.196H17.4462V10.402L21.0462 15.196ZM5.26154 5.15578H19.6615V10.8543L19.4769 10.6734C19.2923 10.402 19.1077 10.2211 18.9231 9.94975C18.4615 9.40703 18 8.86432 17.6308 8.41206C17.3538 8.05025 16.9846 7.86935 16.4308 7.86935C13.7538 7.86935 11.1692 7.86935 8.49231 7.86935H5.26154V5.15578ZM21.7846 34.5528H1.47692V9.31658H15.8769V10.9447C15.8769 12.4824 15.8769 14.0201 15.8769 15.5578C15.8769 15.7387 15.8769 15.9196 15.8769 16.0101C15.9692 16.4623 16.1538 16.5528 16.6154 16.5528C17.7231 16.5528 18.8308 16.5528 19.9385 16.5528H21.6923V34.5528H21.7846ZM23.2615 30.392V26.5025C23.2615 23.0653 23.2615 19.6281 23.2615 16.1005C23.2615 15.4673 23.0769 14.9246 22.7077 14.4724C22.3385 14.1106 22.0615 13.6583 21.6923 13.2965C21.5077 13.1156 21.4154 12.9347 21.2308 12.6633L21.1385 12.4824H25.2V30.392H23.2615ZM28.5231 26.6834H26.6769V22.6131C26.6769 19.2663 26.6769 15.7387 26.6769 12.3015C26.6769 11.4874 26.4923 10.8543 25.9385 10.3116C25.7538 10.0402 25.4769 9.76884 25.2923 9.49749C25.2 9.31658 25.1077 9.22613 25.0154 9.04523L24.9231 8.86432H28.5231V26.6834Z" fill="white"/>
<path d="M4.15382 17.4573C4.15382 18.0904 4.43074 18.3618 4.98459 18.3618C6.73843 18.3618 8.30766 18.3618 9.78459 18.3618C10.3384 18.3618 10.6154 18.0904 10.6154 17.5477C10.6154 15.9196 10.6154 14.3819 10.6154 12.8442C10.6154 12.211 10.3384 11.9397 9.69228 11.9397C8.86151 11.9397 8.03074 11.9397 7.19997 11.9397C6.46151 11.9397 5.72305 11.9397 4.98459 11.9397C4.33843 11.9397 4.06151 12.211 4.06151 12.8442C4.06151 13.3869 4.06151 13.9296 4.06151 14.4723V15.8291C4.15382 16.3718 4.15382 16.9146 4.15382 17.4573ZM5.72305 13.3869H9.23074V16.8241H5.72305V13.3869Z" fill="white"/>
<path d="M18.7385 30.392C17.0769 30.392 15.4154 30.392 13.7538 30.392H8.76923C8.30769 30.392 7.84615 30.392 7.38461 30.392C6.55385 30.392 5.81538 30.392 4.98462 30.392C4.70769 30.392 4.52308 30.4824 4.33846 30.6633C4.24615 30.8442 4.15385 31.0251 4.15385 31.206C4.15385 31.7487 4.70769 31.8392 5.07692 31.8392C8.58461 31.8392 12.0923 31.8392 15.6 31.8392C15.8769 31.8392 16.1538 31.8392 16.4308 31.8392C17.1692 31.8392 17.9077 31.8392 18.5538 31.8392C18.8308 31.8392 19.1077 31.7487 19.2923 31.5678C19.4769 31.3869 19.5692 31.1156 19.3846 30.8442C19.2923 30.5729 19.1077 30.392 18.7385 30.392Z" fill="white"/>
<path d="M5.07692 22.0704C6.46154 22.0704 7.93846 22.0704 9.32308 22.0704H14.4923C15.8769 22.0704 17.3538 22.0704 18.7385 22.0704C19.0154 22.0704 19.2923 21.9799 19.3846 21.799C19.4769 21.6181 19.5692 21.4372 19.5692 21.2563C19.5692 20.8945 19.2 20.6231 18.6462 20.6231C14.4923 20.6231 10.3385 20.6231 6.09231 20.6231C5.81538 20.6231 5.63077 20.6231 5.35385 20.6231C5.16923 20.6231 4.98462 20.6231 4.89231 20.6231C4.43077 20.6231 4.15385 20.9849 4.15385 21.3467C4.24615 21.799 4.52308 22.0704 5.07692 22.0704Z" fill="white"/>
<path d="M5.07692 28.5829C6.73846 28.5829 8.30769 28.5829 9.96923 28.5829H14.9538C16.2462 28.5829 17.5385 28.5829 18.7385 28.5829C19.0154 28.5829 19.2 28.4925 19.3846 28.3116C19.4769 28.1307 19.5692 27.9498 19.5692 27.7688C19.5692 27.3166 19.2 27.1357 18.6462 27.1357C14.1231 27.1357 9.69231 27.1357 5.16923 27.1357H5.07692C4.98462 27.1357 4.89231 27.1357 4.8 27.1357C4.43077 27.2261 4.15385 27.4975 4.15385 27.7688C4.15385 28.0402 4.24615 28.2211 4.33846 28.3116C4.52308 28.4925 4.8 28.5829 5.07692 28.5829Z" fill="white"/>
<path d="M18.6462 23.8794C16.9846 23.8794 15.2308 23.8794 13.5692 23.8794H7.38462C7.10769 23.8794 6.73846 23.8794 6.46154 23.8794C6 23.8794 5.44615 23.8794 4.98462 23.8794C4.70769 23.8794 4.52308 23.9699 4.33846 24.1508C4.24615 24.3317 4.15385 24.5126 4.15385 24.7839C4.24615 25.2362 4.70769 25.3266 5.07692 25.3266C8.49231 25.3266 11.8154 25.3266 15.2308 25.3266H18.6462C18.7385 25.3266 18.8308 25.3266 18.9231 25.3266C19.3846 25.3266 19.5692 24.9648 19.5692 24.603C19.4769 24.1508 19.2 23.8794 18.6462 23.8794Z" fill="white"/>
</svg>
