<svg width="100" height="23" viewBox="0 0 100 23" fill="none" xmlns="http://www.w3.org/2000/svg">
<path d="M23.0128 1.19317C22.6693 0.504429 21.9333 0.116407 21.1874 0H2.06084C1.50147 0.116407 0.9421 0.329819 0.569185 0.776044C0.245339 1.12526 0.0883219 1.58119 0 2.02741V21.0502C0.107949 21.5061 0.264966 21.9814 0.60844 22.321C0.961727 22.709 1.46222 22.9321 1.97252 23H21.3052C22.3651 22.8933 23.2777 21.9523 23.2483 20.8853C23.2483 14.7739 23.2483 8.66259 23.2483 2.55124C23.2679 2.09532 23.2483 1.61029 23.0128 1.19317ZM21.7959 20.8853C21.8155 21.2442 21.4917 21.5643 21.1286 21.5546C20.3435 21.574 19.5486 21.5546 18.7635 21.5643C18.4593 21.5643 18.106 21.5546 17.8705 21.3315C17.4975 21.0211 17.4387 20.507 17.3503 20.0607C16.8793 20.1286 16.3984 20.1286 15.9176 20.0801C15.8783 20.5361 15.8096 21.0696 15.3876 21.3412C15.1521 21.5255 14.8381 21.5546 14.5535 21.5546C13.788 21.5546 13.0226 21.5546 12.2571 21.5546C12.3258 21.3121 12.3749 21.0599 12.3749 20.8077C12.3749 18.7415 12.3749 16.6752 12.3749 14.5993C12.3749 14.1919 12.4043 13.7651 12.2571 13.3674C12.0412 12.7077 11.4818 12.1645 10.7949 11.9899C10.4809 11.9123 10.1472 11.8929 9.82336 11.8929C8.76349 11.8929 7.71344 11.8832 6.65358 11.9026C6.02552 11.9123 5.38764 12.1645 4.99509 12.6689C4.63199 13.0666 4.48479 13.6196 4.48479 14.1434C4.48479 14.5799 4.44553 15.0261 4.58292 15.4433C4.75957 16.0835 5.26006 16.6267 5.88813 16.8499C6.30029 16.976 6.7419 16.9857 7.16389 17.1312C7.28165 17.3543 7.36997 17.5968 7.41904 17.849C7.8999 17.7908 8.36114 17.6453 8.842 17.5968C8.73405 17.1409 8.6261 16.6655 8.30226 16.2969C8.01766 15.9477 7.59568 15.7246 7.15407 15.6373C6.83023 15.5791 6.46712 15.5791 6.18253 15.3948C5.8685 15.1135 5.93719 14.6672 5.93719 14.2889C5.94701 14.0561 5.90775 13.7748 6.09421 13.5905C6.26104 13.348 6.58489 13.3189 6.85967 13.3092C7.91953 13.3092 8.97939 13.2995 10.0294 13.3092C10.3042 13.3189 10.6183 13.3771 10.7753 13.6196C10.893 13.7651 10.893 13.9591 10.893 14.1337C10.893 16.326 10.893 18.5183 10.893 20.7107C10.8832 20.895 10.9028 21.1278 10.736 21.2636C10.5103 21.4867 10.1766 21.5255 9.87242 21.5352C7.31109 21.5352 4.75957 21.5352 2.19823 21.5352C1.78606 21.574 1.42296 21.1957 1.46222 20.7883C1.46222 14.5799 1.46222 8.37157 1.46222 2.16322C1.43278 1.7752 1.79588 1.42598 2.18842 1.45508C4.79882 1.45508 7.40922 1.45508 10.0196 1.45508C10.4809 1.46478 10.9617 1.49388 11.3837 1.6976C11.6781 1.94981 11.6389 2.38633 11.7076 2.74525C11.7272 4.79207 11.7076 6.83889 11.7174 8.8857C11.7174 9.09911 11.7272 9.33193 11.5996 9.50654C11.4033 9.70055 11.1286 9.75875 10.8636 9.81695C10.9323 10.2923 11.0599 10.7579 11.1089 11.2332C11.7763 11.0974 12.4828 10.8452 12.8557 10.2438C13.1109 9.86546 13.16 9.39983 13.16 8.96331C13.16 7.0135 13.16 5.07339 13.16 3.12358C13.1501 2.56094 13.1207 1.98861 12.9146 1.46478C15.6232 1.46478 18.3219 1.46478 21.0304 1.46478C21.423 1.42598 21.7959 1.7849 21.7664 2.17292C21.7664 5.14129 21.7664 8.10966 21.7664 11.078C21.7664 11.4757 21.6781 11.8832 21.4033 12.1839C21.0991 12.4943 20.6575 12.5913 20.2453 12.6689C20.2846 13.1442 20.3533 13.6196 20.4122 14.0852C20.8734 14.0076 21.3543 13.93 21.7664 13.6778C21.7959 16.0932 21.7959 18.4892 21.7959 20.8853Z" fill="white"/>
<path d="M6.6634 5.79123C6.40824 5.89793 6.1629 6.13075 6.17272 6.42176C6.13346 6.82919 6.51619 7.21721 6.92836 7.19781C7.33072 7.20751 7.67419 6.81949 7.64475 6.43146C7.65456 5.96584 7.09519 5.59722 6.6634 5.79123Z" fill="white"/>
<path d="M61.0599 12.1742C60.8636 12.1936 60.6673 12.213 60.4612 12.2227C60.4612 13.1054 60.4612 13.9785 60.4612 14.8612C59.7645 14.8612 59.0677 14.8612 58.3709 14.8612C58.2924 14.2889 58.4004 13.7166 58.3513 13.1442C58.3317 11.3593 58.3709 9.57444 58.3709 7.78954C59.0677 7.77984 59.7645 7.78954 60.4612 7.78954C60.471 8.63349 60.4612 9.47744 60.4711 10.3311C60.6673 10.3311 60.8636 10.3311 61.0599 10.3311C61.0599 10.9422 61.0599 11.5534 61.0599 12.1742ZM56.2905 8.75959C55.5643 8.06116 54.524 7.85744 53.5525 7.79924C52.5515 7.77984 51.5505 7.80894 50.5594 7.78954C50.5299 7.91565 50.5103 8.05145 50.5103 8.18726C50.5201 10.0595 50.5103 11.9317 50.5103 13.8039C50.5103 14.1628 50.4907 14.5217 50.5397 14.8709C51.2365 14.8612 51.9333 14.8709 52.63 14.8709C52.6398 13.1927 52.6202 11.5146 52.6398 9.83636C53.2385 9.83636 53.8567 9.78785 54.4259 10.0304C54.8871 10.2147 55.1914 10.6997 55.1619 11.1847C55.2012 11.6795 55.0442 12.2421 54.5927 12.5234C54.1021 12.8241 53.5034 12.8241 52.9441 12.8338C52.9441 13.5129 52.9441 14.1919 52.9441 14.8709C54.1609 15.0456 55.5152 14.7545 56.3592 13.833C57.1639 13.0666 57.419 11.8929 57.3111 10.8258C57.2522 10.0304 56.8891 9.27372 56.2905 8.75959ZM48.5182 8.25517C47.9392 7.69253 47.0756 7.56643 46.3101 7.66343C45.7311 7.72164 45.1521 7.96415 44.7596 8.39097C44.2787 8.876 44.0726 9.55504 44.0726 10.2244C44.0726 11.7668 44.0726 13.3092 44.0726 14.8515C44.7792 14.8515 45.4858 14.8612 46.1923 14.8515C46.1923 13.3577 46.1923 11.8638 46.1923 10.3699C46.1923 10.1953 46.1923 10.0013 46.3101 9.85576C46.4279 9.69085 46.6732 9.71025 46.8597 9.75875C47.0756 9.87516 47.0952 10.1468 47.0952 10.3699C47.0952 11.8638 47.0952 13.3674 47.0952 14.8612C47.8018 14.8612 48.5083 14.8709 49.2149 14.8612C49.2149 13.3383 49.2149 11.825 49.2149 10.302C49.2149 9.56474 49.0481 8.7984 48.5182 8.25517ZM27.949 10.9034C27.949 11.4369 27.9392 11.9705 27.9588 12.5137C28.2041 12.5137 28.4495 12.5137 28.6948 12.5234C28.7733 12.6592 28.7439 12.8047 28.6752 12.9405C28.2139 13.0278 27.6938 12.9987 27.3013 12.7271C26.7321 12.3488 26.5358 11.5825 26.6928 10.9422C26.8106 10.3699 27.3013 9.89456 27.8803 9.75875C28.3317 9.68115 28.8126 9.71995 29.2345 9.91396C29.2247 9.20582 29.2542 8.49768 29.2149 7.78954C28.4789 7.60523 27.6938 7.55673 26.948 7.77984C25.8685 8.10966 24.9853 8.99241 24.6516 10.0595C24.4161 10.8452 24.4161 11.7086 24.6418 12.4943C24.8871 13.2898 25.4073 13.9979 26.0942 14.4732C26.8695 14.997 27.8803 15.162 28.7831 14.9097C29.4014 14.7448 29.9313 14.3277 30.265 13.7942C30.8145 12.892 30.6379 11.6795 29.9411 10.9034C29.2934 10.884 28.6163 10.9131 27.949 10.9034ZM42.9441 10.2244C42.9146 9.52594 42.7969 8.74989 42.2866 8.21636C41.7174 7.67313 40.8734 7.58583 40.1178 7.64403C39.4504 7.68283 38.7733 7.94475 38.3415 8.46858C37.9097 8.97301 37.7331 9.65205 37.7233 10.302C37.7233 11.8153 37.7233 13.3383 37.7233 14.8515C38.4298 14.8709 39.1364 14.8515 39.843 14.8612C39.843 14.2986 39.843 13.7457 39.843 13.183C40.0393 13.183 40.2453 13.183 40.4416 13.183C40.4416 12.5525 40.4514 11.922 40.4318 11.3011C40.2355 11.3011 40.0294 11.3011 39.8332 11.3011C39.8332 10.9713 39.8234 10.6318 39.843 10.302C39.8528 10.0886 39.9411 9.86546 40.1276 9.75875C40.2748 9.71995 40.4318 9.71995 40.579 9.75875C40.7753 9.88486 40.7851 10.1565 40.7949 10.3699C40.7949 11.8638 40.7949 13.3577 40.7949 14.8612C41.5015 14.8418 42.208 14.8903 42.9146 14.8418C42.9539 13.2995 42.9342 11.7571 42.9441 10.2244ZM36.6045 11.2138C37.1639 10.2729 36.8793 8.9439 35.9961 8.29397C35.4465 7.89625 34.7301 7.78954 34.0628 7.78954C33.209 7.79924 32.3454 7.77984 31.4917 7.79924C31.4917 10.1565 31.4917 12.5137 31.4917 14.8612C32.1884 14.8612 32.895 14.8612 33.5918 14.8612C33.6016 13.1345 33.5918 11.4175 33.5918 9.69085C33.9058 9.70055 34.2493 9.65205 34.5339 9.80725C34.8381 9.99156 34.8086 10.496 34.5044 10.6706C34.3278 10.7676 34.1217 10.7676 33.9254 10.7773C33.9254 11.3496 33.9156 11.9123 33.9254 12.4846C33.9254 12.7174 34.0726 12.9114 34.1609 13.1248C34.4063 13.7069 34.6811 14.2695 34.9362 14.8515C35.6722 14.8612 36.4181 14.8515 37.1541 14.8515C36.7713 13.8815 36.3494 12.9211 35.947 11.9608C36.1923 11.7377 36.4377 11.5048 36.6045 11.2138ZM81.4426 8.14846C80.7066 7.85744 79.9019 7.77014 79.107 7.78954C78.2826 7.78954 77.4583 7.78954 76.634 7.78954C76.6143 10.1468 76.6241 12.504 76.634 14.8612C77.3307 14.8612 78.0275 14.8612 78.7242 14.8612C78.734 13.5129 78.7242 12.1548 78.7242 10.8064C78.7242 10.4766 78.6948 10.1468 78.7635 9.82666C79.3719 9.83636 80.0098 9.78785 80.579 10.0401C80.9323 10.1953 81.1874 10.5348 81.2463 10.9034C81.3445 11.4466 81.2561 12.1063 80.7753 12.4555C80.2846 12.795 79.6663 12.8047 79.0873 12.8144C79.0972 13.5032 79.0873 14.1822 79.0873 14.8709C79.4897 14.8806 79.8921 14.8903 80.2846 14.8709C81.1482 14.7739 81.9921 14.3859 82.5712 13.7263C83.4053 12.8047 83.6408 11.4466 83.3268 10.2729C83.0913 9.31253 82.3553 8.51708 81.4426 8.14846ZM84.475 7.78954C84.4553 10.1468 84.475 12.504 84.4652 14.8612C85.1717 14.8612 85.8685 14.8612 86.5751 14.8612C86.6045 12.504 86.5849 10.1468 86.5849 7.78954C85.8783 7.78954 85.1717 7.78954 84.475 7.78954ZM63.5427 7.78954C62.8361 7.78954 62.1295 7.78954 61.423 7.78954C61.4033 10.1468 61.423 12.504 61.4131 14.8612C62.1197 14.8612 62.8263 14.8612 63.5231 14.8612C63.5623 12.504 63.5427 10.1468 63.5427 7.78954ZM99.3719 10.9325C98.6948 10.8743 98.0078 10.9228 97.3209 10.9131C97.3307 11.4466 97.3209 11.9705 97.3209 12.504C97.5859 12.504 97.8606 12.5137 98.1256 12.5331C98.1256 12.6883 98.1649 12.9017 97.9686 12.9502C97.3798 13.086 96.683 12.892 96.3297 12.3779C96.0255 11.9608 95.9961 11.4175 96.0844 10.9325C96.2218 10.2632 96.8695 9.73935 97.5662 9.72965C97.9391 9.70055 98.3023 9.78785 98.6457 9.92366C98.6359 9.22522 98.6555 8.51708 98.6359 7.80894C97.8018 7.58583 96.8891 7.54703 96.0746 7.88655C95.3974 8.14846 94.8381 8.65289 94.4357 9.24462C93.7586 10.3117 93.6997 11.7086 94.1708 12.8726C94.4455 13.5323 94.9362 14.1046 95.525 14.512C96.6045 15.2299 98.1845 15.259 99.1855 14.3859C99.7056 13.9494 99.9804 13.2898 100 12.6204V12.5816C99.9902 11.9802 99.7743 11.3787 99.3719 10.9325ZM92.2866 8.22606C91.6977 7.67313 90.8243 7.56643 90.0393 7.66343C89.4603 7.72164 88.9107 7.99325 88.5182 8.42008C88.0569 8.8954 87.8705 9.57444 87.8606 10.2147C87.8606 11.7571 87.8606 13.2995 87.8606 14.8515C88.5574 14.8612 89.2542 14.8515 89.9509 14.8515C89.9509 13.3771 89.9509 11.9026 89.9509 10.4281C89.9607 10.2244 89.9706 10.011 90.1079 9.84606C90.2257 9.68115 90.471 9.70055 90.6477 9.74905C90.8636 9.86546 90.893 10.1371 90.893 10.3602C90.893 11.8541 90.893 13.348 90.893 14.8515C91.5996 14.8612 92.316 14.8612 93.0226 14.8515C93.0226 13.3286 93.0226 11.8153 93.0226 10.2923C93.0226 9.55504 92.8459 8.75959 92.2866 8.22606ZM71.9333 10.4378C72.1786 11.4272 72.0118 12.5234 71.4426 13.3771C70.9028 14.1434 70.0981 14.7642 69.156 14.9485C68.1649 15.162 67.0756 15.0067 66.2316 14.4344C65.3778 13.8524 64.7301 12.9211 64.5927 11.8929C64.4554 11.0101 64.6418 10.0789 65.1423 9.34163C65.7311 8.43948 66.7321 7.78954 67.8214 7.67313C68.6752 7.55673 69.5878 7.71194 70.314 8.18726C71.0991 8.71109 71.7272 9.50654 71.9333 10.4378ZM69.2444 10.0401C68.8616 9.71025 68.3219 9.67145 67.8508 9.76845C67.262 9.95276 66.8106 10.4863 66.7321 11.0974C66.6143 11.8056 67.0363 12.5428 67.684 12.8338C68.2532 13.0763 68.9598 12.9502 69.3817 12.504C70.0785 11.8541 70.0098 10.6124 69.2444 10.0401ZM75.9764 12.7853C75.7115 12.8047 75.3974 12.8338 75.1815 12.6495C75.0245 12.4943 75.0245 12.2518 75.0147 12.0481C75.0147 10.6318 75.0147 9.20582 75.0147 7.78954C74.3082 7.78954 73.6016 7.78954 72.895 7.78954C72.8852 9.33193 72.8852 10.8743 72.895 12.407C72.9048 13.1636 73.1796 13.9688 73.8273 14.4247C74.4259 14.8515 75.2012 14.8806 75.9176 14.8515C75.8979 14.1919 75.9666 13.5129 75.8783 12.8629C75.9568 12.8823 75.9666 12.9696 75.9764 13.0375C76.0059 13.6293 75.9764 14.221 75.9961 14.8127C75.9568 14.1434 76.0059 13.4644 75.9764 12.7853Z" fill="white"/>
</svg>
