<svg width="320" height="338" viewBox="0 0 320 338" fill="none" xmlns="http://www.w3.org/2000/svg">
<mask id="mask0" mask-type="alpha" maskUnits="userSpaceOnUse" x="0" y="0" width="320" height="338">
<rect width="320" height="338" fill="white"/>
</mask>
<g mask="url(#mask0)">
<path d="M641.213 470.676L622.622 459.917L641.605 448.962L641.8 448.767V426.662L660 437.225V436.051L642.388 425.879L660 415.707V414.533L641.8 425.097V403.578L660 393.015V391.841L641.409 402.6L622.818 391.841L641.409 381.082L660 391.841V390.667L641.8 380.104V358.585L660 369.149V367.975L642.388 357.803L660 347.631V346.457L641.8 357.021V335.502L660 324.939V323.765L641.409 334.524L622.818 323.765L641.409 313.006L660 323.765V322.591L641.8 312.028V290.509L660 301.073V299.899L642.388 289.727L660 279.555V278.381L641.8 288.944V267.426L660 256.862V255.689L641.409 266.448L622.818 255.689L641.409 244.93L660 255.689V254.515L641.8 243.951V222.433L660 232.997V231.823L642.388 221.651L660 211.478V210.305L641.8 220.868V199.35L660 188.786V187.613L641.409 198.372L626.145 189.569L622.818 187.613L641.409 176.853L660 187.613V186.439L641.8 175.875V154.357L660 164.921V163.747L642.388 153.575L660 143.402V142.228L641.8 152.792V131.274L660 120.71V119.928L641.409 130.687L622.818 119.928L641.409 109.169L660 119.928V118.754L641.8 108.19V86.6721L660 97.2356V96.0619L642.388 85.8896L660 75.7173V74.5436L641.8 85.1071V63.5888L660 53.0252V51.8515L641.409 62.6107L622.818 51.8515L641.409 41.0924L660 51.8515V50.6778L641.8 40.1142V18.5959L660 29.1595V27.9857L642.388 17.8134L660 7.64113V6.46741L641.8 17.031V-4.48738L660 -15.0509V-16.2247L641.409 -5.46548L626.145 -14.2684L622.818 -16.2247L641.409 -26.9838L660 -16.2247V-17.3984L641.8 -27.9619V-49.4802L660 -38.9167V-40.0904L641.8 -50.654L640.822 -51.2408L621.448 -62L602.27 -51.0452H601.292L582.309 -62L563.131 -51.0452H562.153L542.975 -62L523.797 -51.0452H522.818L503.64 -62L484.462 -51.0452H483.483L464.501 -62L445.323 -51.0452H444.344L425.166 -62L405.988 -51.0452H405.01L385.832 -62L366.654 -51.0452H365.675L346.693 -62L327.515 -51.0452H326.536L307.358 -62L288.18 -51.0452H287.202L268.023 -62L248.845 -51.0452H247.867L228.885 -62L209.706 -51.0452H208.728L189.55 -62L170.372 -51.0452H169.393L150.215 -62L131.037 -51.0452H130.059L111.076 -62L91.8983 -51.0452H90.9198L71.7417 -62L52.5636 -51.0452H51.5851L32.4071 -62L13.229 -51.0452H12.2505L-6.92758 -62L-26.1057 -51.0452H-27.0842L-46.0665 -62L-65.2446 -51.0452H-66.2231L-85.4012 -62L-104.579 -51.0452H-105.558L-124.736 -62L-143.914 -51.0452H-144.892L-163.875 -62L-183.053 -51.0452H-184.031L-203.209 -62L-222.387 -51.0452H-223.366L-242.544 -62L-261.722 -51.0452H-262.701L-281.683 -62L-300.861 -51.0452H-301.84L-321.018 -62L-340 -51.0452V-49.8715L-321.018 -60.8263L-302.427 -50.0671L-321.409 -39.1123L-321.605 -38.9167V-17.0071L-340 -27.5707V-26.3969L-321.996 -16.029L-340 -5.66111V-4.48738L-321.409 -15.2465V6.27179L-340 17.031V18.9872L-321.409 29.7463V51.2647L-322.583 50.6778L-340 40.3099V41.4836L-323.17 51.2647L-321.996 51.8515L-340 62.2194V63.3932L-321.409 52.634V74.1523L-340 84.9115V86.8677L-321.409 97.6269V119.145L-322.975 118.167L-340 108.386V109.56L-323.562 119.145L-321.996 119.928L-340 130.296V131.469L-321.409 120.71V142.228L-340 152.988V154.944L-321.409 165.703V187.221L-340 176.267V177.44L-321.996 187.808L-340 198.372V199.545L-321.409 188.786V210.305L-340 220.868V222.824L-321.409 233.584V255.102L-340 244.343V245.516L-321.996 255.884L-340 266.252V267.426L-321.409 256.667V278.185L-340 288.944V290.901L-321.409 301.66V323.178L-324.736 321.222L-340 312.419V313.593L-323.17 323.374L-321.996 323.961L-340 334.328V335.502L-321.409 324.743V346.261L-340 357.021V358.977L-321.409 369.736V391.254L-322.975 390.276L-340 380.495V381.669L-323.562 391.254L-321.996 392.232L-340 402.209V403.383L-321.409 392.624V414.142L-340 424.901V426.857L-321.409 437.616V459.135L-340 448.376V449.549L-321.996 459.917L-340 470.285V471.459L-321.409 460.7V482.805L-302.231 493.76L-301.252 494.347L-300.274 493.76L-281.683 483.001L-263.092 493.76L-262.114 494.347L-261.135 493.76L-242.544 483.001L-223.953 493.76L-222.975 494.347L-221.996 493.76L-203.405 483.001L-184.814 493.76L-183.836 494.347L-182.857 493.76L-164.266 483.001L-145.675 493.76L-144.697 494.347L-143.718 493.76L-125.127 483.001L-106.536 493.76L-105.558 494.347L-104.579 493.76L-85.9883 483.001L-67.3972 493.76L-66.4188 494.347L-65.4403 493.76L-46.8493 483.001L-28.2583 493.76L-27.2798 494.347L-26.3014 493.76L-7.71036 483.001L10.8806 493.76L11.8591 494.347L12.8376 493.76L31.4286 483.001L50.0196 493.76L50.998 494.347L51.9765 493.76L70.5675 483.001L89.1585 493.76L90.137 494.347L91.1155 493.76L109.706 483.001L128.297 493.76L129.276 494.347L130.254 493.76L148.845 483.001L167.436 493.76L168.415 494.347L169.393 493.76L187.984 483.001L206.575 493.76L207.554 494.347L208.532 493.76L227.123 483.001L245.714 493.76L246.693 494.347L247.671 493.76L266.262 483.001L284.853 493.76L285.832 494.347L286.81 493.76L305.401 483.001L323.992 493.76L324.971 494.347L325.949 493.76L344.54 483.001L363.131 493.76L364.11 494.347L365.088 493.76L383.679 483.001L402.27 493.76L403.249 494.347L404.227 493.76L422.818 483.001L441.409 493.76L442.387 494.347L443.366 493.76L461.957 483.001L480.548 493.76L481.526 494.347L482.505 493.76L501.096 483.001L519.687 493.76L520.665 494.347L521.644 493.76L540.235 483.001L558.826 493.76L559.804 494.347L560.783 493.76L579.374 483.001L597.965 493.76L598.943 494.347L599.922 493.76L618.904 482.805L619.1 482.609V460.504L638.278 471.459L656.869 460.7V459.526L641.213 470.676ZM640.626 403.578V425.097L622.035 414.338V392.819L640.626 403.578ZM586.615 189.764L583.288 187.808L601.879 177.049L620.47 187.808L601.879 198.567L586.615 189.764ZM601.487 199.545V221.064L582.896 210.305V188.786L601.487 199.545ZM582.701 187.026V165.507L601.292 154.748V176.267L582.701 187.026ZM601.487 152.988L582.896 142.228V120.71L601.487 131.469V152.988ZM600.9 153.966L582.309 164.725L563.718 153.966L582.309 143.207L600.9 153.966ZM581.722 142.228L563.131 152.988V131.469L581.722 120.71V142.228ZM581.722 165.507V187.026L563.131 176.267V154.748L581.722 165.507ZM581.331 187.808L562.74 198.567L547.476 189.764L544.149 187.808L562.74 177.049L581.331 187.808ZM581.722 188.786V210.305L563.131 221.064V199.545L581.722 188.786ZM562.153 199.545V221.064L543.562 210.305V188.786L562.153 199.545ZM543.562 187.026V165.507L562.153 154.748V176.267L543.562 187.026ZM562.153 152.988L543.562 142.228V120.71L562.153 131.469V152.988ZM561.566 153.966L542.975 164.725L524.384 153.966L542.975 143.207L561.566 153.966ZM542.583 142.228L523.992 152.988V131.469L542.583 120.71V142.228ZM542.583 165.507V187.026L523.992 176.267V154.748L542.583 165.507ZM541.996 187.808L523.405 198.567L508.141 189.764L504.814 187.808L523.405 177.049L541.996 187.808ZM542.583 188.786V210.305L523.992 221.064V199.545L542.583 188.786ZM522.818 199.545V221.064L504.227 210.305V188.786L522.818 199.545ZM504.227 187.026V165.507L522.818 154.748V176.267L504.227 187.026ZM522.818 152.988L504.227 142.228V120.71L522.818 131.469V152.988ZM522.427 153.966L503.836 164.725L485.245 153.966L503.836 143.207L522.427 153.966ZM503.249 142.228L484.658 152.988V131.469L503.249 120.71V142.228ZM503.249 165.507V187.026L484.658 176.267V154.748L503.249 165.507ZM502.661 187.808L484.07 198.567L468.806 189.764L465.479 187.808L484.07 177.049L502.661 187.808ZM503.249 188.786V210.305L484.658 221.064V199.545L503.249 188.786ZM483.679 199.545V221.064L465.088 210.305V188.786L483.679 199.545ZM464.892 187.026V165.507L483.483 154.748V176.267L464.892 187.026ZM483.679 152.988L465.088 142.228V120.71L483.679 131.469V152.988ZM483.092 153.966L464.501 164.725L445.91 153.966L464.501 143.207L483.092 153.966ZM463.914 142.228L445.323 152.988V131.469L463.914 120.71V142.228ZM463.914 165.507V187.026L445.323 176.267V154.748L463.914 165.507ZM463.523 187.808L444.932 198.567L429.667 189.764L426.341 187.808L444.932 177.049L463.523 187.808ZM463.914 188.786V210.305L445.323 221.064V199.545L463.914 188.786ZM444.344 199.545V221.064L425.753 210.305V188.786L444.344 199.545ZM425.558 187.026V165.507L444.149 154.748V176.267L425.558 187.026ZM444.344 152.988L425.753 142.228V120.71L444.344 131.469V152.988ZM443.757 153.966L425.166 164.725L406.575 153.966L425.166 143.207L443.757 153.966ZM424.579 142.228L405.988 152.988V131.469L424.579 120.71V142.228ZM424.579 165.507V187.026L405.988 176.267V154.748L424.579 165.507ZM424.188 187.808L405.597 198.567L390.333 189.764L387.006 187.808L405.597 177.049L424.188 187.808ZM424.579 188.786V210.305L405.988 221.064V199.545L424.579 188.786ZM405.01 199.545V221.064L386.419 210.305V188.786L405.01 199.545ZM386.419 187.026V165.507L405.01 154.748V176.267L386.419 187.026ZM405.01 152.988L386.419 142.228V120.71L405.01 131.469V152.988ZM404.618 153.966L386.027 164.725L367.436 153.966L386.027 143.207L404.618 153.966ZM385.44 142.228L366.849 152.988V131.469L385.44 120.71V142.228ZM385.44 165.507V187.026L366.849 176.267V154.748L385.44 165.507ZM384.853 187.808L366.262 198.567L350.998 189.764L347.671 187.808L366.262 177.049L384.853 187.808ZM385.44 188.786V210.305L366.849 221.064V199.545L385.44 188.786ZM365.675 199.545V221.064L347.084 210.305V188.786L365.675 199.545ZM347.084 187.026V165.507L365.675 154.748V176.267L347.084 187.026ZM365.675 152.988L347.084 142.228V120.71L365.675 131.469V152.988ZM365.284 153.966L346.693 164.725L328.102 153.966L346.693 143.207L365.284 153.966ZM346.106 142.228L327.515 152.988V131.469L346.106 120.71V142.228ZM346.106 165.507V187.026L327.515 176.267V154.748L346.106 165.507ZM345.714 187.808L327.123 198.567L311.859 189.764L308.532 187.808L327.123 177.049L345.714 187.808ZM346.106 188.786V210.305L327.515 221.064V199.545L346.106 188.786ZM326.536 199.545V221.064L307.945 210.305V188.786L326.536 199.545ZM307.75 187.026V165.507L326.341 154.748V176.267L307.75 187.026ZM326.536 152.988L307.945 142.228V120.71L326.536 131.469V152.988ZM325.949 153.966L307.358 164.725L288.767 153.966L307.358 143.207L325.949 153.966ZM306.771 142.228L288.18 152.988V131.469L306.771 120.71V142.228ZM306.771 165.507V187.026L288.18 176.267V154.748L306.771 165.507ZM306.38 187.808L287.789 198.567L272.524 189.764L269.198 187.808L287.789 177.049L306.38 187.808ZM306.771 188.786V210.305L288.18 221.064V199.545L306.771 188.786ZM287.202 199.545V221.064L268.611 210.305V188.786L287.202 199.545ZM268.611 187.026V165.507L287.202 154.748V176.267L268.611 187.026ZM287.202 152.988L268.611 142.228V120.71L287.202 131.469V152.988ZM286.81 153.966L268.219 164.725L249.628 153.966L268.219 143.207L286.81 153.966ZM267.632 142.228L249.041 152.988V131.469L267.632 120.71V142.228ZM267.632 165.507V187.026L249.041 176.267V154.748L267.632 165.507ZM267.045 187.808L248.454 198.567L233.19 189.764L229.863 187.808L248.454 177.049L267.045 187.808ZM267.632 188.786V210.305L249.041 221.064V199.545L267.632 188.786ZM247.867 199.545V221.064L229.276 210.305V188.786L247.867 199.545ZM229.276 187.026V165.507L247.867 154.748V176.267L229.276 187.026ZM247.867 152.988L229.276 142.228V120.71L247.867 131.469V152.988ZM247.476 153.966L228.885 164.725L210.294 153.966L228.885 143.207L247.476 153.966ZM228.297 142.228L209.706 152.988V131.469L228.297 120.71V142.228ZM228.297 165.507V187.026L209.706 176.267V154.748L228.297 165.507ZM227.906 187.808L209.315 198.567L194.051 189.764L190.724 187.808L209.315 177.049L227.906 187.808ZM228.297 188.786V210.305L209.706 221.064V199.545L228.297 188.786ZM208.728 199.545V221.064L190.137 210.305V188.786L208.728 199.545ZM189.941 187.026V165.507L208.532 154.748V176.267L189.941 187.026ZM208.728 152.988L190.137 142.228V120.71L208.728 131.469V152.988ZM208.141 153.966L189.55 164.725L170.959 153.966L189.55 143.207L208.141 153.966ZM188.963 142.228L170.372 152.988V131.469L188.963 120.71V142.228ZM188.963 165.507V187.026L170.372 176.267V154.748L188.963 165.507ZM188.571 187.808L169.98 198.567L154.716 189.764L151.389 187.808L169.98 177.049L188.571 187.808ZM188.963 188.786V210.305L170.372 221.064V199.545L188.963 188.786ZM169.393 199.545V221.064L150.802 210.305V188.786L169.393 199.545ZM150.802 187.026V165.507L169.393 154.748V176.267L150.802 187.026ZM169.393 152.988L150.802 142.228V120.71L169.393 131.469V152.988ZM169.002 153.966L150.411 164.725L131.82 153.966L150.411 143.207L169.002 153.966ZM149.824 142.228L131.233 152.988V131.469L149.824 120.71V142.228ZM149.824 165.507V187.026L131.233 176.267V154.748L149.824 165.507ZM149.237 187.808L130.646 198.567L115.382 189.764L112.055 187.808L130.646 177.049L149.237 187.808ZM149.824 188.786V210.305L131.233 221.064V199.545L149.824 188.786ZM130.059 199.545V221.064L111.468 210.305V188.786L130.059 199.545ZM111.468 187.026V165.507L130.059 154.748V176.267L111.468 187.026ZM130.059 152.988L111.468 142.228V120.71L130.059 131.469V152.988ZM129.667 153.966L111.076 164.725L92.4853 153.966L111.076 143.207L129.667 153.966ZM110.489 142.228L91.8983 152.988V131.469L110.489 120.71V142.228ZM110.489 165.507V187.026L91.8983 176.267V154.748L110.489 165.507ZM110.098 187.808L91.5069 198.567L76.2427 189.764L72.9159 187.808L91.5069 177.049L110.098 187.808ZM110.489 188.786V210.305L91.8983 221.064V199.545L110.489 188.786ZM90.9198 199.545V221.064L72.3288 210.305V188.786L90.9198 199.545ZM72.1331 187.026V165.507L90.7241 154.748V176.267L72.1331 187.026ZM90.9198 152.988L72.3288 142.228V120.71L90.9198 131.469V152.988ZM90.3327 153.966L71.7417 164.725L53.1507 153.966L71.7417 143.207L90.3327 153.966ZM71.1546 142.228L52.5636 152.988V131.469L71.1546 120.71V142.228ZM71.1546 165.507V187.026L52.5636 176.267V154.748L71.1546 165.507ZM70.7632 187.808L52.1722 198.567L36.9081 189.764L33.5812 187.808L52.1722 177.049L70.7632 187.808ZM71.1546 188.786V210.305L52.5636 221.064V199.545L71.1546 188.786ZM51.5851 199.545V221.064L32.9941 210.305V188.786L51.5851 199.545ZM32.9941 187.026V165.507L51.5851 154.748V176.267L32.9941 187.026ZM51.5851 152.988L32.9941 142.228V120.71L51.5851 131.469V152.988ZM51.1937 153.966L32.6027 164.725L14.0117 153.966L32.6027 143.207L51.1937 153.966ZM32.0157 142.228L13.4247 152.988V131.469L32.0157 120.71V142.228ZM32.0157 165.507V187.026L13.4247 176.267V154.748L32.0157 165.507ZM31.4286 187.808L12.8376 198.567L-2.42661 189.764L-5.75342 187.808L12.8376 177.049L31.4286 187.808ZM32.0157 188.786V210.305L13.4247 221.064V199.545L32.0157 188.786ZM12.2505 199.545V221.064L-6.34052 210.305V188.786L12.2505 199.545ZM-6.34052 187.026V165.507L12.2505 154.748V176.267L-6.34052 187.026ZM12.2505 152.988L-6.34052 142.228V120.71L12.2505 131.469V152.988ZM11.8591 153.966L-6.73187 164.725L-25.3229 153.966L-6.73187 143.207L11.8591 153.966ZM-7.31897 142.228L-25.91 152.988V131.469L-7.31897 120.71V142.228ZM-7.31897 165.507V187.026L-25.91 176.267V154.748L-7.31897 165.507ZM-7.90607 187.808L-26.4971 198.567L-41.7613 189.764L-45.0881 187.808L-26.4971 177.049L-7.90607 187.808ZM-7.31897 188.786V210.305L-25.91 221.064V199.545L-7.31897 188.786ZM-26.8885 199.545V221.064L-45.4794 210.305V188.786L-26.8885 199.545ZM-45.6751 187.026V165.507L-27.0842 154.748V176.267L-45.6751 187.026ZM-26.8885 152.988L-45.4794 142.228V120.71L-26.8885 131.469V152.988ZM-27.4755 153.966L-46.0665 164.725L-64.6575 153.966L-46.0665 143.207L-27.4755 153.966ZM-46.6536 142.228L-65.2446 152.988V131.469L-46.6536 120.71V142.228ZM-46.6536 165.507V187.026L-65.2446 176.267V154.748L-46.6536 165.507ZM-47.045 187.808L-65.636 198.567L-80.9002 189.764L-84.227 187.808L-65.636 177.049L-47.045 187.808ZM-46.6536 188.786V210.305L-65.2446 221.064V199.545L-46.6536 188.786ZM-66.2231 199.545V221.064L-84.8141 210.305V188.786L-66.2231 199.545ZM-84.8141 187.026V165.507L-66.2231 154.748V176.267L-84.8141 187.026ZM-66.2231 152.988L-84.8141 142.228V120.71L-66.2231 131.469V152.988ZM-66.8102 153.966L-85.4012 164.725L-103.992 153.966L-85.4012 143.207L-66.8102 153.966ZM-85.7926 142.228L-104.384 152.988V131.469L-85.7926 120.71V142.228ZM-85.7926 165.507V187.026L-104.384 176.267V154.748L-85.7926 165.507ZM-86.3796 187.808L-104.971 198.567L-120.235 189.764L-123.562 187.808L-104.971 177.049L-86.3796 187.808ZM-85.7926 188.786V210.305L-104.384 221.064V199.545L-85.7926 188.786ZM-105.558 199.545V221.064L-124.149 210.305V188.786L-105.558 199.545ZM-124.149 187.026V165.507L-105.558 154.748V176.267L-124.149 187.026ZM-105.558 152.988L-124.149 142.228V120.71L-105.558 131.469V152.988ZM-105.949 153.966L-124.54 164.725L-143.131 153.966L-124.54 143.207L-105.949 153.966ZM-125.127 142.228L-143.718 152.988V131.469L-125.127 120.71V142.228ZM-125.127 165.507V187.026L-143.718 176.267V154.748L-125.127 165.507ZM-125.714 187.808L-144.305 198.567L-159.569 189.764L-162.896 187.808L-144.305 177.049L-125.714 187.808ZM-125.127 188.786V210.305L-143.718 221.064V199.545L-125.127 188.786ZM-144.697 199.545V221.064L-163.288 210.305V188.786L-144.697 199.545ZM-163.483 187.026V165.507L-144.892 154.748V176.267L-163.483 187.026ZM-144.697 152.988L-163.288 142.228V120.71L-144.697 131.469V152.988ZM-145.284 153.966L-163.875 164.725L-182.466 153.966L-163.875 143.207L-145.284 153.966ZM-164.462 142.228L-183.053 152.988V131.469L-164.462 120.71V142.228ZM-164.462 165.507V187.026L-183.053 176.267V154.748L-164.462 165.507ZM-164.853 187.808L-183.444 198.567L-198.708 189.764L-202.035 187.808L-183.444 177.049L-164.853 187.808ZM-164.462 188.786V210.305L-183.053 221.064V199.545L-164.462 188.786ZM-184.031 199.545V221.064L-202.622 210.305V188.786L-184.031 199.545ZM-202.622 187.026V165.507L-184.031 154.748V176.267L-202.622 187.026ZM-184.031 152.988L-202.622 142.228V120.71L-184.031 131.469V152.988ZM-184.618 153.966L-203.209 164.725L-221.8 153.966L-203.209 143.207L-184.618 153.966ZM-203.601 142.228L-222.192 152.988V131.469L-203.601 120.71V142.228ZM-203.601 165.507V187.026L-222.192 176.267V154.748L-203.601 165.507ZM-204.188 187.808L-222.779 198.567L-238.043 189.764L-241.37 187.808L-222.779 177.049L-204.188 187.808ZM-203.601 188.786V210.305L-222.192 221.064V199.545L-203.601 188.786ZM-223.366 199.545V221.064L-241.957 210.305V188.786L-223.366 199.545ZM-241.957 187.026V165.507L-223.366 154.748V176.267L-241.957 187.026ZM-223.366 152.988L-241.957 142.228V120.71L-223.366 131.469V152.988ZM-223.757 153.966L-242.348 164.725L-260.939 153.966L-242.348 143.207L-223.757 153.966ZM-242.935 142.228L-261.526 152.988V131.469L-242.935 120.71V142.228ZM-242.935 165.507V187.026L-261.526 176.267V154.748L-242.935 165.507ZM-243.523 187.808L-262.114 198.567L-277.378 189.764L-280.705 187.808L-262.114 177.049L-243.523 187.808ZM-242.935 188.786V210.305L-261.526 221.064V199.545L-242.935 188.786ZM-262.505 199.545V221.064L-281.096 210.305V188.786L-262.505 199.545ZM-281.292 187.026V165.507L-262.701 154.748V176.267L-281.292 187.026ZM-262.505 152.988L-281.096 142.228V120.71L-262.505 131.469V152.988ZM-263.092 153.966L-281.683 164.725L-300.274 153.966L-281.683 143.207L-263.092 153.966ZM-282.27 142.228L-300.861 152.988V131.469L-282.27 120.71V142.228ZM-282.27 165.507V187.026L-300.861 176.267V154.748L-282.27 165.507ZM-297.143 223.803L-300.47 221.846L-281.879 211.087L-263.288 221.846L-281.879 232.605L-297.143 223.803ZM-282.27 233.584V255.102L-300.861 244.343V222.824L-297.534 224.781L-282.27 233.584ZM-300.861 221.064V199.545L-282.27 188.786V210.305L-300.861 221.064ZM-262.505 222.824V244.343L-281.096 255.102V233.584L-262.505 222.824ZM-281.292 256.667L-262.701 267.426V288.944L-281.292 278.185V256.667ZM-280.705 255.884L-262.114 245.125L-243.523 255.884L-262.114 266.644L-280.705 255.884ZM-261.526 267.426L-242.935 256.667V278.185L-261.526 288.944V267.426ZM-261.526 244.343V222.824L-258.2 224.781L-242.935 233.584V255.102L-261.526 244.343ZM-257.808 223.803L-261.135 221.846L-242.544 211.087L-223.953 221.846L-242.544 232.605L-257.808 223.803ZM-223.366 222.824V244.343L-241.957 255.102V233.584L-223.366 222.824ZM-241.957 256.667L-223.366 267.426V288.944L-241.957 278.185V256.667ZM-241.566 255.884L-222.975 245.125L-204.384 255.884L-222.975 266.644L-241.566 255.884ZM-222.387 267.426L-203.796 256.667V278.185L-222.387 288.944V267.426ZM-222.387 244.343V222.824L-219.061 224.781L-203.796 233.584V255.102L-222.387 244.343ZM-218.474 223.803L-221.8 221.846L-203.209 211.087L-184.618 221.846L-203.209 232.605L-218.474 223.803ZM-184.031 222.824V244.343L-202.622 255.102V233.584L-184.031 222.824ZM-202.622 256.667L-184.031 267.426V288.944L-202.622 278.185V256.667ZM-202.231 255.884L-183.64 245.125L-165.049 255.884L-183.64 266.644L-202.231 255.884ZM-183.053 267.426L-164.462 256.667V278.185L-183.053 288.944V267.426ZM-183.053 244.343V222.824L-179.726 224.781L-164.462 233.584V255.102L-183.053 244.343ZM-179.335 223.803L-182.661 221.846L-164.07 211.087L-145.479 221.846L-164.07 232.605L-179.335 223.803ZM-144.697 222.824V244.343L-163.288 255.102V233.584L-144.697 222.824ZM-163.483 256.667L-144.892 267.426V288.944L-163.483 278.185V256.667ZM-162.896 255.884L-144.305 245.125L-125.714 255.884L-144.305 266.644L-162.896 255.884ZM-143.718 267.426L-125.127 256.667V278.185L-143.718 288.944V267.426ZM-143.718 244.343V222.824L-140.391 224.781L-125.127 233.584V255.102L-143.718 244.343ZM-140 223.803L-143.327 221.846L-124.736 211.087L-106.145 221.846L-124.736 232.605L-140 223.803ZM-105.558 222.824V244.343L-124.149 255.102V233.584L-105.558 222.824ZM-124.149 256.667L-105.558 267.426V288.944L-124.149 278.185V256.667ZM-123.757 255.884L-105.166 245.125L-86.5753 255.884L-105.166 266.644L-123.757 255.884ZM-104.579 267.426L-85.9883 256.667V278.185L-104.579 288.944V267.426ZM-104.579 244.343V222.824L-101.252 224.781L-85.9883 233.584V255.102L-104.579 244.343ZM-100.665 223.803L-103.992 221.846L-85.4012 211.087L-66.8102 221.846L-85.4012 232.605L-100.665 223.803ZM-66.2231 222.824V244.343L-84.8141 255.102V233.584L-66.2231 222.824ZM-84.8141 256.667L-66.2231 267.426V288.944L-84.8141 278.185V256.667ZM-84.4227 255.884L-65.8317 245.125L-47.2407 255.884L-65.8317 266.644L-84.4227 255.884ZM-65.2446 267.426L-46.6536 256.667V278.185L-65.2446 288.944V267.426ZM-65.2446 244.343V222.824L-61.9178 224.781L-46.6536 233.584V255.102L-65.2446 244.343ZM-61.5264 223.803L-64.8532 221.846L-46.2622 211.087L-27.6712 221.846L-46.2622 232.605L-61.5264 223.803ZM-26.8885 222.824V244.343L-45.4794 255.102V233.584L-26.8885 222.824ZM-45.6751 256.667L-27.0842 267.426V288.944L-45.6751 278.185V256.667ZM-45.0881 255.884L-26.4971 245.125L-7.90607 255.884L-26.4971 266.644L-45.0881 255.884ZM-25.91 267.426L-7.31897 256.667V278.185L-25.91 288.944V267.426ZM-25.91 244.343V222.824L-22.5832 224.781L-7.31897 233.584V255.102L-25.91 244.343ZM-22.1918 223.803L-25.5186 221.846L-6.92758 211.087L11.6634 221.846L-6.92758 232.605L-22.1918 223.803ZM12.2505 222.824V244.343L-6.34052 255.102V233.584L12.2505 222.824ZM-6.34052 256.667L12.2505 267.426V288.944L-6.34052 278.185V256.667ZM-5.94913 255.884L12.6419 245.125L31.2329 255.884L12.6419 266.644L-5.94913 255.884ZM13.229 267.426L31.82 256.667V278.185L13.229 288.944V267.426ZM13.229 244.343V222.824L16.5558 224.781L31.82 233.584V255.102L13.229 244.343ZM17.1429 223.803L13.8161 221.846L32.4071 211.087L50.998 221.846L32.4071 232.605L17.1429 223.803ZM51.5851 222.824V244.343L32.9941 255.102V233.584L51.5851 222.824ZM32.9941 256.667L51.5851 267.426V288.944L32.9941 278.185V256.667ZM33.3855 255.884L51.9765 245.125L70.5675 255.884L51.9765 266.644L33.3855 255.884ZM52.5636 267.426L71.1546 256.667V278.185L52.5636 288.944V267.426ZM52.5636 244.343V222.824L55.8904 224.781L71.1546 233.584V255.102L52.5636 244.343ZM56.4775 223.803L53.1507 221.846L71.7417 211.087L90.3327 221.846L71.7417 232.605L56.4775 223.803ZM90.9198 222.824V244.343L72.3288 255.102V233.584L90.9198 222.824ZM72.1331 256.667L90.7241 267.426V288.944L72.1331 278.185V256.667ZM72.7202 255.884L91.3112 245.125L109.902 255.884L91.3112 266.644L72.7202 255.884ZM91.8983 267.426L110.489 256.667V278.185L91.8983 288.944V267.426ZM91.8983 244.343V222.824L95.225 224.781L110.489 233.584V255.102L91.8983 244.343ZM95.6165 223.803L92.2896 221.846L110.881 211.087L129.472 221.846L110.881 232.605L95.6165 223.803ZM130.059 222.824V244.343L111.468 255.102V233.584L130.059 222.824ZM111.468 256.667L130.059 267.426V288.944L111.468 278.185V256.667ZM112.055 255.884L130.646 245.125L149.237 255.884L130.646 266.644L112.055 255.884ZM131.037 267.426L149.628 256.667V278.185L131.037 288.944V267.426ZM131.037 244.343V222.824L134.364 224.781L149.628 233.584V255.102L131.037 244.343ZM134.951 223.803L131.624 221.846L150.215 211.087L168.806 221.846L150.215 232.605L134.951 223.803ZM169.393 222.824V244.343L150.802 255.102V233.584L169.393 222.824ZM150.802 256.667L169.393 267.426V288.944L150.802 278.185V256.667ZM151.194 255.884L169.785 245.125L188.376 255.884L169.785 266.644L151.194 255.884ZM170.372 267.426L188.963 256.667V278.185L170.372 288.944V267.426ZM170.372 244.343V222.824L173.699 224.781L188.963 233.584V255.102L170.372 244.343ZM174.286 223.803L170.959 221.846L189.55 211.087L208.141 221.846L189.55 232.605L174.286 223.803ZM208.728 222.824V244.343L190.137 255.102V233.584L208.728 222.824ZM189.941 256.667L208.532 267.426V288.944L189.941 278.185V256.667ZM190.528 255.884L209.119 245.125L227.71 255.884L209.119 266.644L190.528 255.884ZM209.706 267.426L228.297 256.667V278.185L209.706 288.944V267.426ZM209.706 244.343V222.824L213.033 224.781L228.297 233.584V255.102L209.706 244.343ZM213.425 223.803L210.098 221.846L228.689 211.087L247.28 221.846L228.689 232.605L213.425 223.803ZM247.867 222.824V244.343L229.276 255.102V233.584L247.867 222.824ZM229.276 256.667L247.867 267.426V288.944L229.276 278.185V256.667ZM229.863 255.884L248.454 245.125L267.045 255.884L248.454 266.644L229.863 255.884ZM248.845 267.426L267.436 256.667V278.185L248.845 288.944V267.426ZM248.845 244.343V222.824L252.172 224.781L267.436 233.584V255.102L248.845 244.343ZM252.759 223.803L249.432 221.846L268.023 211.087L286.615 221.846L268.023 232.605L252.759 223.803ZM287.202 222.824V244.343L268.611 255.102V233.584L287.202 222.824ZM268.611 256.667L287.202 267.426V288.944L268.611 278.185V256.667ZM269.002 255.884L287.593 245.125L306.184 255.884L287.593 266.644L269.002 255.884ZM288.18 267.426L306.771 256.667V278.185L288.18 288.944V267.426ZM288.18 244.343V222.824L291.507 224.781L306.771 233.584V255.102L288.18 244.343ZM292.094 223.803L288.767 221.846L307.358 211.087L325.949 221.846L307.358 232.605L292.094 223.803ZM326.536 222.824V244.343L307.945 255.102V233.584L326.536 222.824ZM307.75 256.667L326.341 267.426V288.944L307.75 278.185V256.667ZM308.337 255.884L326.928 245.125L345.519 255.884L326.928 266.644L308.337 255.884ZM327.515 267.426L346.106 256.667V278.185L327.515 288.944V267.426ZM327.515 244.343V222.824L330.841 224.781L346.106 233.584V255.102L327.515 244.343ZM331.233 223.803L327.906 221.846L346.497 211.087L365.088 221.846L346.497 232.605L331.233 223.803ZM365.675 222.824V244.343L347.084 255.102V233.584L365.675 222.824ZM347.084 256.667L365.675 267.426V288.944L347.084 278.185V256.667ZM347.671 255.884L366.262 245.125L384.853 255.884L366.262 266.644L347.671 255.884ZM366.654 267.426L385.245 256.667V278.185L366.654 288.944V267.426ZM366.654 244.343V222.824L369.98 224.781L385.245 233.584V255.102L366.654 244.343ZM370.568 223.803L367.241 221.846L385.832 211.087L404.423 221.846L385.832 232.605L370.568 223.803ZM405.01 222.824V244.343L386.419 255.102V233.584L405.01 222.824ZM386.419 256.667L405.01 267.426V288.944L386.419 278.185V256.667ZM386.81 255.884L405.401 245.125L423.992 255.884L405.597 266.644L386.81 255.884ZM405.988 267.426L424.579 256.667V278.185L405.988 288.944V267.426ZM405.988 244.343V222.824L409.315 224.781L424.579 233.584V255.102L405.988 244.343ZM409.902 223.803L406.575 221.846L425.166 211.087L443.757 221.846L425.166 232.605L409.902 223.803ZM444.344 222.824V244.343L425.753 255.102V233.584L444.344 222.824ZM425.558 256.667L444.149 267.426V288.944L425.558 278.185V256.667ZM426.145 255.884L444.736 245.125L463.327 255.884L444.736 266.644L426.145 255.884ZM445.323 267.426L463.914 256.667V278.185L445.323 288.944V267.426ZM445.323 244.343V222.824L448.65 224.781L463.914 233.584V255.102L445.323 244.343ZM449.041 223.803L445.714 221.846L464.305 211.087L482.896 221.846L464.305 232.605L449.041 223.803ZM483.679 222.824V244.343L465.088 255.102V233.584L483.679 222.824ZM464.892 256.667L483.483 267.426V288.944L464.892 278.185V256.667ZM465.479 255.884L484.07 245.125L502.661 255.884L484.07 266.644L465.479 255.884ZM484.658 267.426L503.249 256.667V278.185L484.658 288.944V267.426ZM484.658 244.343V222.824L487.984 224.781L503.249 233.584V255.102L484.658 244.343ZM488.376 223.803L485.049 221.846L503.64 211.087L522.231 221.846L503.64 232.605L488.376 223.803ZM522.818 222.824V244.343L504.227 255.102V233.584L522.818 222.824ZM504.227 256.667L522.818 267.426V288.944L504.227 278.185V256.667ZM504.618 255.884L523.209 245.125L541.8 255.884L523.209 266.644L504.618 255.884ZM523.797 267.426L542.388 256.667V278.185L523.797 288.944V267.426ZM523.797 244.343V222.824L527.123 224.781L542.388 233.584V255.102L523.797 244.343ZM527.71 223.803L524.384 221.846L542.975 211.087L561.566 221.846L542.975 232.605L527.71 223.803ZM562.153 222.824V244.343L543.562 255.102V233.584L562.153 222.824ZM543.562 256.667L562.153 267.426V288.944L543.562 278.185V256.667ZM543.953 255.884L562.544 245.125L581.135 255.884L562.544 266.644L543.953 255.884ZM563.131 267.426L581.722 256.667V278.185L563.131 288.944V267.426ZM563.131 244.343V222.824L566.458 224.781L581.722 233.584V255.102L563.131 244.343ZM566.849 223.803L563.523 221.846L582.114 211.087L600.705 221.846L582.114 232.605L566.849 223.803ZM601.487 222.824V244.343L582.896 255.102V233.584L601.487 222.824ZM582.701 256.667L601.292 267.426V288.944L582.701 278.185V256.667ZM583.288 255.884L601.879 245.125L620.47 255.884L601.879 266.644L583.288 255.884ZM602.466 267.426L621.057 256.667V278.185L602.466 288.944V267.426ZM602.466 244.343V222.824L605.793 224.781L621.057 233.584V255.102L602.466 244.343ZM602.466 199.545L621.057 188.786V210.305L602.466 221.064V199.545ZM602.466 176.267V154.748L621.057 165.507V187.026L602.466 176.267ZM619.1 118.95L620.665 119.928L602.074 130.687L583.483 119.928L602.074 109.169L619.1 118.95ZM602.466 108.19V86.6721L621.057 97.4312V118.95L619.491 117.971L602.466 108.19ZM621.057 120.71V142.228L602.466 152.988V131.469L621.057 120.71ZM582.701 118.95V97.4312L601.292 86.6721V108.19L582.701 118.95ZM601.487 85.1071L598.16 83.1509L582.896 74.3479V52.8296L601.487 63.5888V85.1071ZM599.726 85.3027L600.9 85.8896L582.309 96.6488L563.718 85.8896L582.309 75.1304L599.726 85.3027ZM581.722 74.3479L563.131 85.1071V63.5888L581.722 52.8296V74.3479ZM581.722 97.4312V118.95L580.157 117.971L562.935 107.995V86.6721L581.722 97.4312ZM579.765 118.95L581.331 119.928L562.74 130.687L544.149 119.928L562.74 109.169L579.765 118.95ZM543.562 118.95V97.4312L562.153 86.6721V108.19L543.562 118.95ZM562.153 85.1071L558.826 83.1509L543.562 74.3479V52.8296L562.153 63.5888V85.1071ZM560.587 85.3027L561.761 85.8896L543.17 96.6488L524.579 85.8896L543.17 75.1304L560.587 85.3027ZM542.583 74.3479L523.992 85.1071V63.5888L542.583 52.8296V74.3479ZM542.583 97.4312V118.95L541.018 117.971L523.992 107.995V86.6721L542.583 97.4312ZM540.431 118.95L541.996 119.928L523.405 130.687L504.814 119.928L523.405 109.169L540.431 118.95ZM504.227 118.95V97.4312L522.818 86.6721V108.19L504.227 118.95ZM522.818 85.1071L519.491 83.1509L504.227 74.3479V52.8296L522.818 63.5888V85.1071ZM521.253 85.3027L522.427 85.8896L503.836 96.6488L485.245 85.8896L503.836 75.1304L521.253 85.3027ZM503.249 74.3479L484.658 85.1071V63.5888L503.249 52.8296V74.3479ZM503.249 97.4312V118.95L501.683 117.971L484.462 107.995V86.6721L503.249 97.4312ZM501.292 118.95L502.857 119.928L484.266 130.687L465.675 119.928L484.266 109.169L501.292 118.95ZM464.892 118.95V97.4312L483.483 86.6721V108.19L464.892 118.95ZM483.679 85.1071L480.352 83.1509L465.088 74.3479V52.8296L483.679 63.5888V85.1071ZM481.918 85.3027L483.092 85.8896L464.501 96.6488L445.91 85.8896L464.501 75.1304L481.918 85.3027ZM463.914 74.3479L445.323 85.1071V63.5888L463.914 52.8296V74.3479ZM463.914 97.4312V118.95L462.348 117.971L445.323 107.995V86.6721L463.914 97.4312ZM461.957 118.95L463.523 119.928L444.932 130.687L426.341 119.928L444.932 109.169L461.957 118.95ZM425.558 118.95V97.4312L444.149 86.6721V108.19L425.558 118.95ZM444.344 85.1071L441.018 83.1509L425.753 74.3479V52.8296L444.344 63.5888V85.1071ZM442.779 85.3027L443.953 85.8896L425.362 96.6488L406.771 85.8896L425.362 75.1304L442.779 85.3027ZM424.579 74.3479L405.988 85.1071V63.5888L424.579 52.8296V74.3479ZM424.579 97.4312V118.95L423.014 117.971L405.988 107.995V86.6721L424.579 97.4312ZM422.622 118.95L424.188 119.928L405.597 130.687L387.006 119.928L405.597 109.169L422.622 118.95ZM386.419 118.95V97.4312L405.01 86.6721V108.19L386.419 118.95ZM405.01 85.1071L401.683 83.1509L386.419 74.3479V52.8296L405.01 63.5888V85.1071ZM403.444 85.3027L404.618 85.8896L386.027 96.6488L367.436 85.8896L386.027 75.1304L403.444 85.3027ZM385.44 74.3479L366.849 85.1071V63.5888L385.44 52.8296V74.3479ZM385.44 97.4312V118.95L383.875 117.971L366.654 107.995V86.6721L385.44 97.4312ZM383.288 118.95L384.853 119.928L366.262 130.687L347.671 119.928L366.262 109.169L383.288 118.95ZM347.084 118.95V97.4312L365.675 86.6721V108.19L347.084 118.95ZM365.675 85.1071L362.348 83.1509L347.084 74.3479V52.8296L365.675 63.5888V85.1071ZM364.11 85.3027L365.284 85.8896L346.693 96.6488L328.102 85.8896L346.693 75.1304L364.11 85.3027ZM346.106 74.3479L327.515 85.1071V63.5888L346.106 52.8296V74.3479ZM346.106 97.4312V118.95L344.54 117.971L327.515 107.995V86.6721L346.106 97.4312ZM344.149 118.95L345.714 119.928L327.123 130.687L308.532 119.928L327.123 109.169L344.149 118.95ZM307.75 118.95V97.4312L326.341 86.6721V108.19L307.75 118.95ZM326.536 85.1071L323.209 83.1509L307.945 74.3479V52.8296L326.536 63.5888V85.1071ZM324.971 85.3027L326.145 85.8896L307.554 96.6488L288.963 85.8896L307.554 75.1304L324.971 85.3027ZM306.771 74.3479L288.18 85.1071V63.5888L306.771 52.8296V74.3479ZM306.771 97.4312V118.95L305.206 117.971L288.18 108.19V86.6721L306.771 97.4312ZM304.814 118.95L306.38 119.928L287.789 130.687L269.198 119.928L287.789 109.169L304.814 118.95ZM268.611 118.95V97.4312L287.202 86.6721V108.19L268.611 118.95ZM287.202 85.1071L283.875 83.1509L268.611 74.3479V52.8296L287.202 63.5888V85.1071ZM285.636 85.3027L286.81 85.8896L268.219 96.6488L249.628 85.8896L268.219 75.1304L285.636 85.3027ZM267.632 74.3479L249.041 85.1071V63.5888L267.632 52.8296V74.3479ZM267.632 97.4312V118.95L266.067 117.971L249.041 107.995V86.6721L267.632 97.4312ZM265.479 118.95L267.045 119.928L248.454 130.687L229.863 119.928L248.454 109.169L265.479 118.95ZM229.276 118.95V97.4312L247.867 86.6721V108.19L229.276 118.95ZM247.867 85.1071L244.54 83.1509L229.276 74.3479V52.8296L247.867 63.5888V85.1071ZM246.301 85.3027L247.476 85.8896L228.885 96.6488L210.294 85.8896L228.885 75.1304L246.301 85.3027ZM228.297 74.3479L209.706 85.1071V63.5888L228.297 52.8296V74.3479ZM228.297 97.4312V118.95L226.732 117.971L209.511 107.995V86.6721L228.297 97.4312ZM226.341 118.95L227.906 119.928L209.315 130.687L190.724 119.928L209.315 109.169L226.341 118.95ZM189.941 118.95V97.4312L208.532 86.6721V108.19L189.941 118.95ZM208.728 85.1071L205.401 83.1509L190.137 74.3479V52.8296L208.728 63.5888V85.1071ZM207.162 85.3027L208.337 85.8896L189.746 96.6488L171.155 85.8896L189.746 75.1304L207.162 85.3027ZM188.963 74.3479L170.372 85.1071V63.5888L188.963 52.8296V74.3479ZM188.963 97.4312V118.95L187.397 117.971L170.372 107.995V86.6721L188.963 97.4312ZM187.006 118.95L188.571 119.928L169.98 130.687L151.194 119.928L169.785 109.169L187.006 118.95ZM150.802 118.95V97.4312L169.393 86.6721V108.19L150.802 118.95ZM169.393 85.1071L166.067 83.1509L150.802 74.3479V52.8296L169.393 63.5888V85.1071ZM167.828 85.3027L169.002 85.8896L150.411 96.6488L131.82 85.8896L150.411 75.1304L167.828 85.3027ZM149.824 74.3479L131.233 85.1071V63.5888L149.824 52.8296V74.3479ZM149.824 97.4312V118.95L148.258 117.971L131.233 107.995V86.6721L149.824 97.4312ZM147.671 118.95L149.237 119.928L130.646 130.687L112.055 119.928L130.646 109.169L147.671 118.95ZM111.468 118.95V97.4312L130.059 86.6721V108.19L111.468 118.95ZM130.059 85.1071L126.732 83.1509L111.468 74.3479V52.8296L130.059 63.5888V85.1071ZM128.493 85.3027L129.667 85.8896L111.076 96.6488L92.4853 85.8896L111.076 75.1304L128.493 85.3027ZM110.489 74.3479L91.8983 85.1071V63.5888L110.489 52.8296V74.3479ZM110.489 97.4312V118.95L108.924 117.971L91.7026 107.995V86.6721L110.489 97.4312ZM108.532 118.95L110.098 119.928L91.5069 130.687L72.9159 119.928L91.5069 109.169L108.532 118.95ZM72.1331 118.95V97.4312L90.7241 86.6721V108.19L72.1331 118.95ZM90.9198 85.1071L87.593 83.1509L72.3288 74.3479V52.8296L90.9198 63.5888V85.1071ZM89.1585 85.3027L90.3327 85.8896L71.7417 96.6488L53.1507 85.8896L71.7417 75.1304L89.1585 85.3027ZM71.1546 74.3479L52.5636 85.1071V63.5888L71.1546 52.8296V74.3479ZM71.1546 97.4312V118.95L69.5891 117.971L52.5636 107.995V86.6721L71.1546 97.4312ZM69.1977 118.95L70.7632 119.928L52.1722 130.687L33.5812 119.928L52.1722 109.169L69.1977 118.95ZM32.9941 118.95V97.4312L51.5851 86.6721V108.19L32.9941 118.95ZM51.5851 85.1071L48.2583 83.1509L32.9941 74.3479V52.8296L51.5851 63.5888V85.1071ZM50.0196 85.3027L51.1937 85.8896L32.6027 96.6488L14.0117 85.8896L32.6027 75.1304L50.0196 85.3027ZM32.0157 74.3479L13.4247 85.1071V63.5888L32.0157 52.8296V74.3479ZM32.0157 97.4312V118.95L30.4501 117.971L13.229 107.995V86.6721L32.0157 97.4312ZM29.863 118.95L31.4286 119.928L12.8376 130.687L-5.75342 119.928L12.8376 109.169L29.863 118.95ZM-6.34052 118.95V97.4312L12.2505 86.6721V108.19L-6.34052 118.95ZM12.2505 85.1071L8.92371 83.1509L-6.34052 74.3479V52.8296L12.2505 63.5888V85.1071ZM10.6849 85.3027L11.8591 85.8896L-6.73187 96.6488L-25.3229 85.8896L-6.73187 75.1304L10.6849 85.3027ZM-7.31897 74.3479L-25.91 85.1071V63.5888L-7.31897 52.8296V74.3479ZM-7.31897 97.4312V118.95L-8.88455 117.971L-25.91 107.995V86.6721L-7.31897 97.4312ZM-9.27591 118.95L-7.71036 119.928L-26.3014 130.687L-44.8924 119.928L-26.3014 109.169L-9.27591 118.95ZM-45.6751 118.95V97.4312L-26.8885 86.6721V108.19L-45.6751 118.95ZM-26.8885 85.1071L-30.2152 83.1509L-45.4794 74.3479V52.8296L-26.8885 63.5888V85.1071ZM-28.6497 85.3027L-27.4755 85.8896L-46.0665 96.6488L-64.6575 85.8896L-46.0665 75.1304L-28.6497 85.3027ZM-46.6536 74.3479L-65.2446 85.1071V63.5888L-46.6536 52.8296V74.3479ZM-46.6536 97.4312V118.95L-48.2191 117.971L-65.2446 107.995V86.6721L-46.6536 97.4312ZM-48.6106 118.95L-47.045 119.928L-65.636 130.687L-84.227 119.928L-65.636 109.169L-48.6106 118.95ZM-84.8141 118.95V97.4312L-66.2231 86.6721V108.19L-84.8141 118.95ZM-66.2231 85.1071L-69.5499 83.1509L-84.8141 74.3479V52.8296L-66.2231 63.5888V85.1071ZM-67.7886 85.3027L-66.6145 85.8896L-85.2055 96.6488L-103.796 85.8896L-85.2055 75.1304L-67.7886 85.3027ZM-85.7926 74.3479L-104.384 85.1071V63.5888L-85.7926 52.8296V74.3479ZM-85.7926 97.4312V118.95L-87.3581 117.971L-104.579 107.995V86.6721L-85.7926 97.4312ZM-87.9452 118.95L-86.3796 119.928L-104.971 130.687L-123.562 119.928L-104.971 109.169L-87.9452 118.95ZM-124.149 118.95V97.4312L-105.558 86.6721V108.19L-124.149 118.95ZM-105.558 85.1071L-108.885 83.1509L-124.149 74.3479V52.8296L-105.558 63.5888V85.1071ZM-107.123 85.3027L-105.949 85.8896L-124.54 96.6488L-143.131 85.8896L-124.54 75.1304L-107.123 85.3027ZM-125.127 74.3479L-143.718 85.1071V63.5888L-125.127 52.8296V74.3479ZM-125.127 97.4312V118.95L-126.693 117.971L-143.718 107.995V86.6721L-125.127 97.4312ZM-127.084 118.95L-125.519 119.928L-144.11 130.687L-162.896 119.928L-144.305 109.169L-127.084 118.95ZM-163.483 118.95V97.4312L-144.892 86.6721V108.19L-163.483 118.95ZM-144.697 85.1071L-148.023 83.1509L-163.288 74.3479V52.8296L-144.697 63.5888V85.1071ZM-146.458 85.3027L-145.284 85.8896L-163.875 96.6488L-182.466 85.8896L-163.875 75.1304L-146.458 85.3027ZM-164.462 74.3479L-183.053 85.1071V63.5888L-164.462 52.8296V74.3479ZM-164.462 97.4312V118.95L-166.027 117.971L-183.053 108.19V86.6721L-164.462 97.4312ZM-166.419 118.95L-164.853 119.928L-183.444 130.687L-202.231 119.928L-183.64 109.169L-166.419 118.95ZM-202.622 118.95V97.4312L-184.031 86.6721V108.19L-202.622 118.95ZM-184.031 85.1071L-187.358 83.1509L-202.622 74.3479V52.8296L-184.031 63.5888V85.1071ZM-185.597 85.3027L-184.423 85.8896L-203.014 96.6488L-221.605 85.8896L-203.014 75.1304L-185.597 85.3027ZM-203.601 74.3479L-222.192 85.1071V63.5888L-203.601 52.8296V74.3479ZM-203.601 97.4312V118.95L-205.166 117.971L-222.387 108.19V86.6721L-203.601 97.4312ZM-205.753 118.95L-204.188 119.928L-222.779 130.687L-241.566 119.928L-222.975 109.169L-205.753 118.95ZM-241.957 118.95V97.4312L-223.366 86.6721V108.19L-241.957 118.95ZM-223.366 85.1071L-226.693 83.1509L-241.957 74.3479V52.8296L-223.366 63.5888V85.1071ZM-224.932 85.3027L-223.757 85.8896L-242.348 96.6488L-260.939 85.8896L-242.348 75.1304L-224.932 85.3027ZM-242.935 74.3479L-261.526 85.1071V63.5888L-242.935 52.8296V74.3479ZM-242.935 97.4312V118.95L-244.501 117.971L-261.526 108.19V86.6721L-242.935 97.4312ZM-244.892 118.95L-243.327 119.928L-261.918 130.687L-280.705 119.928L-262.114 109.169L-244.892 118.95ZM-281.292 118.95V97.4312L-262.701 86.6721V108.19L-281.292 118.95ZM-262.505 85.1071L-265.832 83.1509L-281.292 74.3479V52.8296L-262.701 63.5888V85.1071H-262.505ZM-264.266 85.3027L-263.092 85.8896L-281.683 96.6488L-300.274 85.8896L-281.683 75.1304L-264.266 85.3027ZM-282.27 74.3479L-300.861 85.1071V63.5888L-282.27 52.8296V74.3479ZM-282.27 97.4312V118.95L-283.836 117.971L-300.861 108.19V86.6721L-282.27 97.4312ZM-284.227 118.95L-282.661 119.928L-301.252 130.687L-320.039 119.928L-301.448 109.169L-284.227 118.95ZM-282.661 187.808L-301.252 198.567L-316.517 189.764L-319.843 187.808L-301.252 177.049L-282.661 187.808ZM-282.661 255.884L-301.252 266.644L-319.843 255.884L-301.252 245.125L-282.661 255.884ZM-282.27 256.667V278.185L-300.861 288.944V267.426L-282.27 256.667ZM-283.836 323.178L-282.661 323.765L-301.252 334.524L-319.843 323.765L-301.252 313.006L-283.836 323.178ZM-300.861 335.502L-282.27 324.743V346.261L-300.861 357.021V335.502ZM-285.597 321.026L-300.861 312.223V290.705L-282.27 301.464V322.982L-285.597 321.026ZM-300.47 289.922L-281.879 279.163L-263.288 289.922L-281.879 300.682L-300.47 289.922ZM-262.505 290.705V312.223L-281.096 322.982V301.464L-262.505 290.705ZM-281.292 324.743L-262.701 335.502V357.021L-264.266 356.042L-281.487 346.066V324.743H-281.292ZM-280.705 323.961L-262.114 313.201L-244.501 323.374L-243.327 323.961L-261.918 334.72L-280.705 323.961ZM-261.526 335.502L-242.935 324.743V346.261L-261.526 357.021V335.502ZM-246.262 321.026L-261.526 312.223V290.705L-242.935 301.464V322.982L-246.262 321.026ZM-261.135 289.922L-242.544 279.163L-223.953 289.922L-242.544 300.682L-261.135 289.922ZM-223.366 290.705V312.223L-241.957 322.982V301.464L-223.366 290.705ZM-241.957 324.743L-223.366 335.502V357.021L-224.932 356.042L-241.957 346.066V324.743ZM-241.566 323.961L-222.975 313.201L-205.362 323.374L-204.188 323.961L-222.779 334.72L-241.566 323.961ZM-222.387 335.502L-203.796 324.743V346.261L-222.387 357.021V335.502ZM-207.123 321.026L-222.387 312.223V290.705L-203.796 301.464V322.982L-207.123 321.026ZM-221.8 289.922L-203.209 279.163L-184.618 289.922L-203.209 300.682L-221.8 289.922ZM-184.031 290.705V312.223L-202.622 322.982V301.464L-184.031 290.705ZM-202.622 324.743L-184.031 335.502V357.021L-185.597 356.042L-202.818 346.066V324.743H-202.622ZM-202.231 323.961L-183.64 313.201L-166.027 323.374L-164.853 323.961L-183.444 334.72L-202.231 323.961ZM-183.053 335.502L-164.462 324.743V346.261L-183.053 357.021V335.502ZM-167.789 321.026L-183.053 312.223V290.705L-164.462 301.464V322.982L-167.789 321.026ZM-182.661 289.922L-164.07 279.163L-145.479 289.922L-164.07 300.682L-182.661 289.922ZM-144.697 290.705V312.223L-163.288 322.982V301.464L-144.697 290.705ZM-163.483 324.743L-144.892 335.502V357.021L-146.458 356.042L-163.483 346.066V324.743ZM-162.896 323.961L-144.305 313.201L-126.693 323.374L-125.519 323.961L-144.11 334.72L-162.896 323.961ZM-143.718 335.502L-125.127 324.743V346.261L-143.718 357.021V335.502ZM-128.454 321.026L-143.718 312.223V290.705L-125.127 301.464V322.982L-128.454 321.026ZM-143.327 289.922L-124.736 279.163L-106.145 289.922L-124.736 300.682L-143.327 289.922ZM-105.558 290.705V312.223L-124.149 322.982V301.464L-105.558 290.705ZM-124.149 324.743L-105.558 335.502V357.021L-107.123 356.042L-124.149 346.066V324.743ZM-123.757 323.961L-105.166 313.201L-87.5538 323.374L-86.3796 323.961L-104.971 334.72L-123.757 323.961ZM-104.579 335.502L-85.9883 324.743V346.261L-104.579 357.021V335.502ZM-89.1194 321.026L-104.384 312.223V290.705L-85.7926 301.464V322.982L-89.1194 321.026ZM-103.992 289.922L-85.4012 279.163L-66.8102 289.922L-85.4012 300.682L-103.992 289.922ZM-66.2231 290.705V312.223L-84.8141 322.982V301.464L-66.2231 290.705ZM-84.8141 324.743L-66.2231 335.502V357.021L-67.7886 356.042L-85.0098 346.066V324.743H-84.8141ZM-84.4227 323.961L-65.8317 313.201L-48.2191 323.374L-47.045 323.961L-65.636 334.72L-84.4227 323.961ZM-65.2446 335.502L-46.6536 324.743V346.261L-65.2446 357.021V335.502ZM-49.9804 321.026L-65.2446 312.223V290.705L-46.6536 301.464V322.982L-49.9804 321.026ZM-64.8532 289.922L-46.2622 279.163L-27.6712 289.922L-46.2622 300.682L-64.8532 289.922ZM-26.8885 290.705V312.223L-45.4794 322.982V301.464L-26.8885 290.705ZM-45.6751 324.743L-27.0842 335.502V357.021L-28.6497 356.042L-45.6751 346.066V324.743ZM-45.0881 323.961L-26.4971 313.201L-8.88455 323.374L-7.71036 323.961L-26.3014 334.72L-45.0881 323.961ZM-25.91 335.502L-7.31897 324.743V346.261L-25.91 357.021V335.502ZM-10.6458 321.026L-25.91 312.223V290.705L-7.31897 301.464V322.982L-10.6458 321.026ZM-25.5186 289.922L-6.92758 279.163L11.6634 289.922L-6.92758 300.682L-25.5186 289.922ZM12.2505 290.705V312.223L-6.34052 322.982V301.464L12.2505 290.705ZM-6.34052 324.743L12.2505 335.502V357.021L10.6849 356.042L-6.53619 346.066V324.743H-6.34052ZM-5.94913 323.961L12.6419 313.201L30.2544 323.374L31.4286 323.961L12.8376 334.72L-5.94913 323.961ZM13.229 335.502L31.82 324.743V346.261L13.229 357.021V335.502ZM28.6888 321.026L13.4247 312.223V290.705L32.0157 301.464V322.982L28.6888 321.026ZM13.8161 289.922L32.4071 279.163L50.998 289.922L32.4071 300.682L13.8161 289.922ZM51.5851 290.705V312.223L32.9941 322.982V301.464L51.5851 290.705ZM32.9941 324.743L51.5851 335.502V357.021L50.0196 356.042L32.9941 346.066V324.743ZM33.3855 323.961L51.9765 313.201L69.5891 323.374L70.7632 323.961L52.1722 334.72L33.3855 323.961ZM52.5636 335.502L71.1546 324.743V346.261L52.5636 357.021V335.502ZM67.8278 321.026L52.5636 312.223V290.705L71.1546 301.464V322.982L67.8278 321.026ZM53.1507 289.922L71.7417 279.163L90.3327 289.922L71.7417 300.682L53.1507 289.922ZM90.9198 290.705V312.223L72.3288 322.982V301.464L90.9198 290.705ZM72.1331 324.743L90.7241 335.502V357.021L89.1585 356.042L72.1331 346.066V324.743ZM72.7202 323.961L91.3112 313.201L108.924 323.374L110.098 323.961L91.5069 334.72L72.7202 323.961ZM91.8983 335.502L110.489 324.743V346.261L91.8983 357.021V335.502ZM107.162 321.026L91.8983 312.223V290.705L110.489 301.464V322.982L107.162 321.026ZM92.2896 289.922L110.881 279.163L129.472 289.922L110.881 300.682L92.2896 289.922ZM130.059 290.705V312.223L111.468 322.982V301.464L130.059 290.705ZM111.468 324.743L130.059 335.502V357.021L128.493 356.042L111.272 346.066V324.743H111.468ZM112.055 323.961L130.646 313.201L148.258 323.374L149.432 323.961L130.842 334.72L112.055 323.961ZM131.037 335.502L149.628 324.743V346.261L131.037 357.021V335.502ZM146.497 321.026L131.233 312.223V290.705L149.824 301.464V322.982L146.497 321.026ZM131.624 289.922L150.215 279.163L168.806 289.922L150.215 300.682L131.624 289.922ZM169.393 290.705V312.223L150.802 322.982V301.464L169.393 290.705ZM150.802 324.743L169.393 335.502V357.021L167.828 356.042L150.802 346.066V324.743ZM151.194 323.961L169.785 313.201L187.397 323.374L188.571 323.961L169.98 334.72L151.194 323.961ZM170.372 335.502L188.963 324.743V346.261L170.372 357.021V335.502ZM185.636 321.026L170.372 312.223V290.705L188.963 301.464V322.982L185.636 321.026ZM170.959 289.922L189.55 279.163L208.141 289.922L189.55 300.682L170.959 289.922ZM208.728 290.705V312.223L190.137 322.982V301.464L208.728 290.705ZM189.941 324.743L208.532 335.502V357.021L206.967 356.042L189.746 346.066V324.743H189.941ZM190.528 323.961L209.119 313.201L226.732 323.374L227.906 323.961L209.315 334.72L190.528 323.961ZM209.706 335.502L228.297 324.743V346.261L209.706 357.021V335.502ZM224.971 321.026L209.706 312.223V290.705L228.297 301.464V322.982L224.971 321.026ZM210.098 289.922L228.689 279.163L247.28 289.922L228.689 300.682L210.098 289.922ZM247.867 290.705V312.223L229.276 322.982V301.464L247.867 290.705ZM229.276 324.743L247.867 335.502V357.021L246.301 356.042L229.276 346.066V324.743ZM229.863 323.961L248.454 313.201L266.067 323.374L267.241 323.961L248.65 334.72L229.863 323.961ZM248.845 335.502L267.436 324.743V346.261L248.845 357.021V335.502ZM264.305 321.026L249.041 312.223V290.705L267.632 301.464V322.982L264.305 321.026ZM249.432 289.922L268.023 279.163L286.615 289.922L268.023 300.682L249.432 289.922ZM287.202 290.705V312.223L268.611 322.982V301.464L287.202 290.705ZM268.611 324.743L287.202 335.502V357.021L285.636 356.042L268.611 346.066V324.743ZM269.002 323.961L287.593 313.201L305.206 323.374L306.38 323.961L287.789 334.72L269.002 323.961ZM288.18 335.502L306.771 324.743V346.261L288.18 357.021V335.502ZM303.444 321.026L288.18 312.223V290.705L306.771 301.464V322.982L303.444 321.026ZM288.767 289.922L307.358 279.163L325.949 289.922L307.358 300.682L288.767 289.922ZM326.536 290.705V312.223L307.945 322.982V301.464L326.536 290.705ZM307.75 324.743L326.341 335.502V357.021L324.775 356.042L307.554 346.066V324.743H307.75ZM308.337 323.961L326.928 313.201L344.54 323.374L345.714 323.961L327.123 334.72L308.337 323.961ZM327.515 335.502L346.106 324.743V346.261L327.515 357.021V335.502ZM342.779 321.026L327.515 312.223V290.705L346.106 301.464V322.982L342.779 321.026ZM327.906 289.922L346.497 279.163L365.088 289.922L346.497 300.682L327.906 289.922ZM365.675 290.705V312.223L347.084 322.982V301.464L365.675 290.705ZM347.084 324.743L365.675 335.502V357.021L364.11 356.042L347.084 346.066V324.743ZM347.671 323.961L366.262 313.201L383.875 323.374L385.049 323.961L366.458 334.72L347.671 323.961ZM366.654 335.502L385.245 324.743V346.261L366.654 357.021V335.502ZM382.114 321.026L366.849 312.223V290.705L385.44 301.464V322.982L382.114 321.026ZM367.241 289.922L385.832 279.163L404.423 289.922L385.832 300.682L367.241 289.922ZM405.01 290.705V312.223L386.419 322.982V301.464L405.01 290.705ZM386.419 324.743L405.01 335.502V357.021L403.444 356.042L386.223 346.066V324.743H386.419ZM386.81 323.961L405.401 313.201L423.014 323.374L424.188 323.961L405.597 334.72L386.81 323.961ZM405.988 335.502L424.579 324.743V346.261L405.988 357.021V335.502ZM421.252 321.026L405.988 312.223V290.705L424.579 301.464V322.982L421.252 321.026ZM406.575 289.922L425.166 279.163L443.757 289.922L425.166 300.682L406.575 289.922ZM444.344 290.705V312.223L425.753 322.982V301.464L444.344 290.705ZM425.558 324.743L444.149 335.502V357.021L442.583 356.042L425.558 346.066V324.743ZM426.145 323.961L444.736 313.201L462.348 323.374L463.523 323.961L444.932 334.72L426.145 323.961ZM445.323 335.502L463.914 324.743V346.261L445.323 357.021V335.502ZM460.587 321.026L445.323 312.223V290.705L463.914 301.464V322.982L460.587 321.026ZM445.714 289.922L464.305 279.163L482.896 289.922L464.305 300.682L445.714 289.922ZM483.679 290.705V312.223L465.088 322.982V301.464L483.679 290.705ZM464.892 324.743L483.483 335.502V357.021L481.918 356.042L464.697 346.066V324.743H464.892ZM465.479 323.961L484.07 313.201L501.683 323.374L502.857 323.961L484.266 334.72L465.479 323.961ZM484.658 335.502L503.249 324.743V346.261L484.658 357.021V335.502ZM499.922 321.026L484.658 312.223V290.705L503.249 301.464V322.982L499.922 321.026ZM485.049 289.922L503.64 279.163L522.231 289.922L503.64 300.682L485.049 289.922ZM522.818 290.705V312.223L504.227 322.982V301.464L522.818 290.705ZM504.227 324.743L522.818 335.502V357.021L521.253 356.042L504.227 346.066V324.743ZM504.618 323.961L523.209 313.201L540.822 323.374L541.996 323.961L523.405 334.72L504.618 323.961ZM523.797 335.502L542.388 324.743V346.261L523.797 357.021V335.502ZM539.061 321.026L523.797 312.223V290.705L542.388 301.464V322.982L539.061 321.026ZM524.384 289.922L542.975 279.163L561.566 289.922L542.975 300.682L524.384 289.922ZM562.153 290.705V312.223L543.562 322.982V301.464L562.153 290.705ZM543.562 324.743L562.153 335.502V357.021L560.587 356.042L543.562 346.066V324.743ZM543.953 323.961L562.544 313.201L580.157 323.374L581.331 323.961L562.74 334.72L543.953 323.961ZM563.131 335.502L581.722 324.743V346.261L563.131 357.021V335.502ZM578.395 321.026L563.131 312.223V290.705L581.722 301.464V322.982L578.395 321.026ZM563.523 289.922L582.114 279.163L600.705 289.922L582.114 300.682L563.523 289.922ZM601.487 290.705V312.223L582.896 322.982V301.464L601.487 290.705ZM582.701 324.743L601.292 335.502V357.021L599.726 356.042L582.505 346.066V324.743H582.701ZM583.288 323.961L601.879 313.201L619.491 323.374L620.665 323.961L602.074 334.72L583.288 323.961ZM602.466 335.502L621.057 324.743V346.261L602.466 357.021V335.502ZM617.73 321.026L602.466 312.223V290.705L621.057 301.464V322.982L617.73 321.026ZM602.857 289.922L621.448 279.163L640.039 289.922L621.448 300.682L602.857 289.922ZM606.184 223.803L602.857 221.846L621.448 211.087L640.039 221.846L621.448 232.605L606.184 223.803ZM602.857 153.966L621.448 143.207L640.039 153.966L621.448 164.725L602.857 153.966ZM602.857 85.8896L621.448 75.1304L640.039 85.8896L621.448 96.6488L602.857 85.8896ZM602.466 85.1071V63.5888L621.057 52.8296V74.3479L602.466 85.1071ZM602.857 17.8134L621.448 7.05427L640.039 17.8134L621.448 28.5726L602.857 17.8134ZM621.057 6.27179L602.466 17.031V-4.48738L621.057 -15.2465V6.27179ZM621.057 29.5507V51.069L619.883 50.4822L602.27 40.3099V18.7915L621.057 29.5507ZM619.491 51.2647L620.665 51.8515L602.074 62.6107L583.483 51.8515L602.074 41.0924L619.491 51.2647ZM582.701 51.069V29.5507L601.292 18.7915V40.3099L582.701 51.069ZM601.487 17.031L582.896 6.27179V-15.2465L586.223 -13.2903L601.487 -4.48738V17.031ZM600.9 17.8134L582.309 28.5726L563.718 17.8134L582.309 7.05427L600.9 17.8134ZM581.722 6.27179L563.131 17.031V-4.48738L581.722 -15.2465V6.27179ZM581.722 29.5507V51.069L580.548 50.4822L562.935 40.3099V18.7915L581.722 29.5507ZM580.157 51.2647L581.331 51.8515L562.74 62.6107L544.149 51.8515L562.74 41.0924L580.157 51.2647ZM543.562 51.069V29.5507L562.153 18.7915V40.3099L543.562 51.069ZM562.153 17.031L543.562 6.27179V-15.2465L546.888 -13.2903L562.153 -4.48738V17.031ZM561.566 17.8134L542.975 28.5726L524.384 17.8134L542.975 7.05427L561.566 17.8134ZM542.583 6.27179L523.992 17.031V-4.48738L542.583 -15.2465V6.27179ZM542.583 29.5507V51.069L541.409 50.4822L523.797 40.3099V18.7915L542.583 29.5507ZM540.822 51.2647L541.996 51.8515L523.405 62.6107L504.814 51.8515L523.405 41.0924L540.822 51.2647ZM504.227 51.069V29.5507L522.818 18.7915V40.3099L504.227 51.069ZM522.818 17.031L504.227 6.27179V-15.2465L507.554 -13.2903L522.818 -4.48738V17.031ZM522.427 17.8134L503.836 28.5726L485.245 17.8134L503.836 7.05427L522.427 17.8134ZM503.249 6.27179L484.658 17.031V-4.48738L503.249 -15.2465V6.27179ZM503.249 29.5507V51.069L502.074 50.4822L484.462 40.3099V18.7915L503.249 29.5507ZM501.683 51.2647L502.857 51.8515L484.266 62.6107L465.675 51.8515L484.266 41.0924L501.683 51.2647ZM464.892 51.069V29.5507L483.483 18.7915V40.3099L464.892 51.069ZM483.679 17.031L465.088 6.27179V-15.2465L468.415 -13.2903L483.679 -4.48738V17.031ZM483.092 17.8134L464.501 28.5726L445.91 17.8134L464.501 7.05427L483.092 17.8134ZM463.914 6.27179L445.323 17.031V-4.48738L463.914 -15.2465V6.27179ZM463.914 29.5507V51.069L462.74 50.4822L445.127 40.3099V18.7915L463.914 29.5507ZM462.348 51.2647L463.523 51.8515L444.932 62.6107L426.341 51.8515L444.932 41.0924L462.348 51.2647ZM425.558 51.069V29.5507L444.149 18.7915V40.3099L425.558 51.069ZM444.344 17.031L425.753 6.27179V-15.2465L429.08 -13.2903L444.344 -4.48738V17.031ZM443.757 17.8134L425.166 28.5726L406.575 17.8134L425.166 7.05427L443.757 17.8134ZM424.579 6.27179L405.988 17.031V-4.48738L424.579 -15.2465V6.27179ZM424.579 29.5507V51.069L423.405 50.4822L405.793 40.3099V18.7915L424.579 29.5507ZM423.014 51.2647L424.188 51.8515L405.597 62.6107L387.006 51.8515L405.597 41.0924L423.014 51.2647ZM386.419 51.069V29.5507L405.01 18.7915V40.3099L386.419 51.069ZM405.01 17.031L386.419 6.27179V-15.2465L389.746 -13.2903L405.01 -4.48738V17.031ZM404.618 17.8134L386.027 28.5726L367.436 17.8134L386.027 7.05427L404.618 17.8134ZM385.44 6.27179L366.849 17.031V-4.48738L385.44 -15.2465V6.27179ZM385.44 29.5507V51.069L384.266 50.4822L366.654 40.3099V18.7915L385.44 29.5507ZM383.875 51.2647L385.049 51.8515L366.458 62.6107L347.867 51.8515L366.458 41.0924L383.875 51.2647ZM347.084 51.069V29.5507L365.675 18.7915V40.3099L347.084 51.069ZM365.675 17.031L347.084 6.27179V-15.2465L350.411 -13.2903L365.675 -4.48738V17.031ZM365.284 17.8134L346.693 28.5726L328.102 17.8134L346.693 7.05427L365.284 17.8134ZM346.106 6.27179L327.515 17.031V-4.48738L346.106 -15.2465V6.27179ZM346.106 29.5507V51.069L344.932 50.4822L327.319 40.3099V18.7915L346.106 29.5507ZM344.54 51.2647L345.714 51.8515L327.123 62.6107L308.532 51.8515L327.123 41.0924L344.54 51.2647ZM307.75 51.069V29.5507L326.341 18.7915V40.3099L307.75 51.069ZM326.536 17.031L307.945 6.27179V-15.2465L311.272 -13.2903L326.536 -4.48738V17.031ZM325.949 17.8134L307.358 28.5726L288.767 17.8134L307.358 7.05427L325.949 17.8134ZM306.771 6.27179L288.18 17.031V-4.48738L306.771 -15.2465V6.27179ZM306.771 29.5507V51.069L305.597 50.4822L287.984 40.3099V18.7915L306.771 29.5507ZM305.206 51.2647L306.38 51.8515L287.789 62.6107L269.198 51.8515L287.789 41.0924L305.206 51.2647ZM268.611 51.069V29.5507L287.202 18.7915V40.3099L268.611 51.069ZM287.202 17.031L268.611 6.27179V-15.2465L271.937 -13.2903L287.202 -4.48738V17.031ZM286.81 17.8134L268.219 28.5726L249.628 17.8134L268.219 7.05427L286.81 17.8134ZM267.632 6.27179L249.041 17.031V-4.48738L267.632 -15.2465V6.27179ZM267.632 29.5507V51.069L266.458 50.4822L248.845 40.3099V18.7915L267.632 29.5507ZM266.067 51.2647L267.241 51.8515L248.65 62.6107L230.059 51.8515L248.65 41.0924L266.067 51.2647ZM229.276 51.069V29.5507L247.867 18.7915V40.3099L229.276 51.069ZM247.867 17.031L229.276 6.27179V-15.2465L232.603 -13.2903L247.867 -4.48738V17.031ZM247.476 17.8134L228.885 28.5726L210.294 17.8134L228.885 7.05427L247.476 17.8134ZM228.297 6.27179L209.706 17.031V-4.48738L228.297 -15.2465V6.27179ZM228.297 29.5507V51.069L227.123 50.4822L209.511 40.3099V18.7915L228.297 29.5507ZM226.732 51.2647L227.906 51.8515L209.315 62.6107L190.724 51.8515L209.315 41.0924L226.732 51.2647ZM189.941 51.069V29.5507L208.532 18.7915V40.3099L189.941 51.069ZM208.728 17.031L190.137 6.27179V-15.2465L193.464 -13.2903L208.728 -4.48738V17.031ZM208.141 17.8134L189.55 28.5726L170.959 17.8134L189.55 7.05427L208.141 17.8134ZM188.963 6.27179L170.372 17.031V-4.48738L188.963 -15.2465V6.27179ZM188.963 29.5507V51.069L187.789 50.4822L170.176 40.3099V18.7915L188.963 29.5507ZM187.397 51.2647L188.571 51.8515L169.98 62.6107L151.389 51.8515L169.98 41.0924L187.397 51.2647ZM150.802 51.069V29.5507L169.393 18.7915V40.3099L150.802 51.069ZM169.393 17.031L150.802 6.27179V-15.2465L154.129 -13.2903L169.393 -4.48738V17.031ZM169.002 17.8134L150.411 28.5726L131.82 17.8134L150.411 7.05427L169.002 17.8134ZM149.824 6.27179L131.233 17.031V-4.48738L149.824 -15.2465V6.27179ZM149.824 29.5507V51.069L148.65 50.4822L131.037 40.3099V18.7915L149.824 29.5507ZM148.258 51.2647L149.432 51.8515L130.842 62.6107L112.251 51.8515L130.842 41.0924L148.258 51.2647ZM111.468 51.069V29.5507L130.059 18.7915V40.3099L111.468 51.069ZM130.059 17.031L111.468 6.27179V-15.2465L114.795 -13.2903L130.059 -4.48738V17.031ZM129.667 17.8134L111.076 28.5726L92.4853 17.8134L111.076 7.05427L129.667 17.8134ZM110.489 6.27179L91.8983 17.031V-4.48738L110.489 -15.2465V6.27179ZM110.489 29.5507V51.069L109.315 50.4822L91.7026 40.3099V18.7915L110.489 29.5507ZM108.924 51.2647L110.098 51.8515L91.5069 62.6107L72.9159 51.8515L91.5069 41.0924L108.924 51.2647ZM72.1331 51.069V29.5507L90.7241 18.7915V40.3099L72.1331 51.069ZM90.9198 17.031L72.3288 6.27179V-15.2465L75.6556 -13.2903L90.9198 -4.48738V17.031ZM90.3327 17.8134L71.7417 28.5726L53.1507 17.8134L71.7417 7.05427L90.3327 17.8134ZM71.1546 6.27179L52.5636 17.031V-4.48738L71.1546 -15.2465V6.27179ZM71.1546 29.5507V51.069L69.9804 50.4822L52.3679 40.3099V18.7915L71.1546 29.5507ZM69.5891 51.2647L70.7632 51.8515L52.1722 62.6107L33.5812 51.8515L52.1722 41.0924L69.5891 51.2647ZM32.9941 51.069V29.5507L51.5851 18.7915V40.3099L32.9941 51.069ZM51.5851 17.031L32.9941 6.27179V-15.2465L36.321 -13.2903L51.5851 -4.48738V17.031ZM51.1937 17.8134L32.6027 28.5726L14.0117 17.8134L32.6027 7.05427L51.1937 17.8134ZM32.0157 6.27179L13.4247 17.031V-4.48738L32.0157 -15.2465V6.27179ZM32.0157 29.5507V51.069L30.8415 50.4822L13.229 40.3099V18.7915L32.0157 29.5507ZM30.2544 51.2647L31.4286 51.8515L12.8376 62.6107L-5.75342 51.8515L12.8376 41.0924L30.2544 51.2647ZM-6.34052 51.069V29.5507L12.2505 18.7915V40.3099L-6.34052 51.069ZM12.2505 17.031L-6.34052 6.27179V-15.2465L-3.0137 -13.2903L12.2505 -4.48738V17.031ZM11.8591 17.8134L-6.73187 28.5726L-25.3229 17.8134L-6.73187 7.05427L11.8591 17.8134ZM-7.31897 6.27179L-25.91 17.031V-4.48738L-7.31897 -15.2465V6.27179ZM-7.31897 29.5507V51.069L-8.49316 50.4822L-26.1057 40.3099V18.7915L-7.31897 29.5507ZM-8.88455 51.2647L-7.71036 51.8515L-26.3014 62.6107L-44.8924 51.8515L-26.3014 41.0924L-8.88455 51.2647ZM-45.6751 51.069V29.5507L-27.0842 18.7915V40.3099L-45.6751 51.069ZM-26.8885 17.031L-45.4794 6.27179V-15.2465L-42.1526 -13.2903L-26.8885 -4.48738V17.031ZM-27.4755 17.8134L-46.0665 28.5726L-64.6575 17.8134L-46.0665 7.05427L-27.4755 17.8134ZM-46.6536 6.27179L-65.2446 17.031V-4.48738L-46.6536 -15.2465V6.27179ZM-46.6536 29.5507V51.069L-47.8278 50.4822L-65.4403 40.3099V18.7915L-46.6536 29.5507ZM-48.2191 51.2647L-47.045 51.8515L-65.636 62.6107L-84.227 51.8515L-65.636 41.0924L-48.2191 51.2647ZM-84.8141 51.069V29.5507L-66.2231 18.7915V40.3099L-84.8141 51.069ZM-66.2231 17.031L-84.8141 6.27179V-15.2465L-81.4873 -13.2903L-66.2231 -4.48738V17.031ZM-66.8102 17.8134L-85.4012 28.5726L-103.992 17.8134L-85.4012 7.05427L-66.8102 17.8134ZM-85.7926 6.27179L-104.384 17.031V-4.48738L-85.7926 -15.2465V6.27179ZM-85.7926 29.5507V51.069L-86.9667 50.4822L-104.579 40.3099V18.7915L-85.7926 29.5507ZM-87.5538 51.2647L-86.3796 51.8515L-104.971 62.6107L-123.562 51.8515L-104.971 41.0924L-87.5538 51.2647ZM-124.149 51.069V29.5507L-105.558 18.7915V40.3099L-124.149 51.069ZM-105.558 17.031L-124.149 6.27179V-15.2465L-120.822 -13.2903L-105.558 -4.48738V17.031ZM-105.949 17.8134L-124.54 28.5726L-143.131 17.8134L-124.54 7.05427L-105.949 17.8134ZM-125.127 6.27179L-143.718 17.031V-4.48738L-125.127 -15.2465V6.27179ZM-125.127 29.5507V51.069L-126.301 50.4822L-143.914 40.3099V18.7915L-125.127 29.5507ZM-126.693 51.2647L-125.519 51.8515L-144.11 62.6107L-162.701 51.8515L-144.11 41.0924L-126.693 51.2647ZM-163.483 51.069V29.5507L-144.892 18.7915V40.3099L-163.483 51.069ZM-144.697 17.031L-163.288 6.27179V-15.2465L-159.961 -13.2903L-144.697 -4.48738V17.031ZM-145.284 17.8134L-163.875 28.5726L-182.466 17.8134L-163.875 7.05427L-145.284 17.8134ZM-164.462 6.27179L-183.053 17.031V-4.48738L-164.462 -15.2465V6.27179ZM-164.462 29.5507V51.069L-165.636 50.4822L-183.249 40.3099V18.7915L-164.462 29.5507ZM-166.027 51.2647L-164.853 51.8515L-183.444 62.6107L-202.035 51.8515L-183.444 41.0924L-166.027 51.2647ZM-202.622 51.069V29.5507L-184.031 18.7915V40.3099L-202.622 51.069ZM-184.031 17.031L-202.622 6.27179V-15.2465L-199.295 -13.2903L-184.031 -4.48738V17.031ZM-184.618 17.8134L-203.209 28.5726L-221.8 17.8134L-203.209 7.05427L-184.618 17.8134ZM-203.601 6.27179L-222.192 17.031V-4.48738L-203.601 -15.2465V6.27179ZM-203.601 29.5507V51.069L-204.775 50.4822L-222.387 40.3099V18.7915L-203.601 29.5507ZM-205.362 51.2647L-204.188 51.8515L-222.779 62.6107L-241.37 51.8515L-222.779 41.0924L-205.362 51.2647ZM-241.957 51.069V29.5507L-223.366 18.7915V40.3099L-241.957 51.069ZM-223.366 17.031L-241.957 6.27179V-15.2465L-238.63 -13.2903L-223.366 -4.48738V17.031ZM-223.757 17.8134L-242.348 28.5726L-260.939 17.8134L-242.348 7.05427L-223.757 17.8134ZM-242.935 6.27179L-261.526 17.031V-4.48738L-242.935 -15.2465V6.27179ZM-242.935 29.5507V51.069L-244.11 50.4822L-261.722 40.3099V18.7915L-242.935 29.5507ZM-244.501 51.2647L-243.327 51.8515L-261.918 62.6107L-280.509 51.8515L-261.918 41.0924L-244.501 51.2647ZM-281.292 51.069V29.5507L-262.701 18.7915V40.3099L-281.292 51.069ZM-262.505 17.031L-281.292 6.27179V-15.2465L-277.965 -13.2903L-262.701 -4.48738V17.031H-262.505ZM-263.092 17.8134L-281.683 28.5726L-300.274 17.8134L-281.683 7.05427L-263.092 17.8134ZM-282.27 6.27179L-300.861 17.031V-4.48738L-282.27 -15.2465V6.27179ZM-282.27 29.5507V51.069L-283.249 50.4822L-300.861 40.3099V18.7915L-282.27 29.5507ZM-283.836 51.2647L-282.661 51.8515L-301.252 62.6107L-319.843 51.8515L-301.252 41.0924L-283.836 51.2647ZM-301.84 40.3099L-320.431 51.069V29.5507L-301.84 18.7915V40.3099ZM-301.84 63.5888V85.1071L-305.166 83.1509L-320.431 74.3479V52.8296L-301.84 63.5888ZM-301.84 108.19L-320.431 118.95V97.4312L-301.84 86.6721V108.19ZM-301.84 131.469V152.988L-320.431 142.228V120.71L-301.84 131.469ZM-301.84 176.267L-320.431 187.026V165.507L-301.84 154.748V176.267ZM-301.84 199.545V221.064L-320.431 210.305V188.786L-301.84 199.545ZM-301.84 244.343L-320.431 255.102V233.584L-301.84 222.824V244.343ZM-301.84 267.426V288.944L-320.431 278.185V256.667L-301.84 267.426ZM-301.84 312.223L-320.431 322.982V301.464L-301.84 290.705V312.223ZM-301.84 335.502V357.021L-303.405 356.042L-320.431 346.066V324.547L-301.84 335.502ZM-301.448 449.158L-282.857 459.917L-301.448 470.676L-320.039 459.917L-301.448 449.158ZM-320.431 458.939V437.421L-301.84 426.662V448.18L-320.431 458.939ZM-320.431 414.338V392.819L-301.84 403.578V425.097L-320.431 414.338ZM-320.039 391.841L-301.448 381.082L-284.227 391.059L-282.661 392.037L-301.252 402.796L-320.039 391.841ZM-320.431 391.059V369.54L-301.84 358.781V380.299L-320.431 391.059ZM-300.861 403.578L-282.27 392.819V414.338L-300.861 425.097V403.578ZM-283.836 390.081L-301.057 380.104V358.585L-282.466 369.345V390.863L-283.836 390.081ZM-300.47 357.803L-281.879 347.044L-264.658 357.021L-263.092 357.999L-281.683 368.758L-300.47 357.803ZM-262.505 358.781V380.299L-281.096 391.059V369.54L-262.505 358.781ZM-281.292 392.819L-262.701 403.578V425.097L-281.292 414.338V392.819ZM-262.114 449.158L-243.523 459.917L-262.114 470.676L-280.705 459.917L-262.114 449.158ZM-281.292 458.939V437.421L-262.701 426.662V448.18L-281.292 458.939ZM-280.705 391.841L-262.114 381.082L-245.088 391.059L-243.523 392.037L-262.114 402.796L-280.705 391.841ZM-261.526 403.578L-242.935 392.819V414.338L-261.526 425.097V403.578ZM-244.501 390.081L-261.526 380.104V358.585L-242.935 369.345V390.863L-244.501 390.081ZM-261.135 357.803L-242.544 347.044L-225.519 357.021L-223.953 357.999L-242.544 368.758L-261.135 357.803ZM-223.366 358.781V380.299L-241.957 391.059V369.54L-223.366 358.781ZM-241.957 392.819L-223.366 403.578V425.097L-241.957 414.338V392.819ZM-222.779 449.158L-204.188 459.917L-222.779 470.676L-241.37 459.917L-222.779 449.158ZM-241.957 458.939V437.421L-223.366 426.662V448.18L-241.957 458.939ZM-241.566 391.841L-222.975 381.082L-205.949 391.059L-204.384 392.037L-222.975 402.796L-241.566 391.841ZM-222.387 403.578L-203.796 392.819V414.338L-222.387 425.097V403.578ZM-205.166 390.081L-222.192 380.104V358.585L-203.601 369.345V390.863L-205.166 390.081ZM-221.8 357.803L-203.209 347.044L-185.988 357.021L-184.423 357.999L-203.014 368.758L-221.8 357.803ZM-184.031 358.781V380.299L-202.622 391.059V369.54L-184.031 358.781ZM-202.622 392.819L-184.031 403.578V425.097L-202.622 414.338V392.819ZM-183.64 449.158L-165.049 459.917L-183.64 470.676L-202.231 459.917L-183.64 449.158ZM-202.622 458.939V437.421L-184.031 426.662V448.18L-202.622 458.939ZM-202.231 391.841L-183.64 381.082L-166.419 391.059L-164.853 392.037L-183.444 402.796L-202.231 391.841ZM-183.053 403.578L-164.462 392.819V414.338L-183.053 425.097V403.578ZM-166.027 390.081L-183.249 380.104V358.585L-164.658 369.345V390.863L-166.027 390.081ZM-182.661 357.803L-164.07 347.044L-147.045 357.021L-145.479 357.999L-164.07 368.758L-182.661 357.803ZM-144.697 358.781V380.299L-163.288 391.059V369.54L-144.697 358.781ZM-163.483 392.819L-144.892 403.578V425.097L-163.483 414.338V392.819ZM-144.305 449.158L-125.714 459.917L-144.305 470.676L-162.896 459.917L-144.305 449.158ZM-163.483 458.939V437.421L-144.892 426.662V448.18L-163.483 458.939ZM-162.896 391.841L-144.305 381.082L-127.28 391.059L-125.714 392.037L-144.305 402.796L-162.896 391.841ZM-143.718 403.578L-125.127 392.819V414.338L-143.718 425.097V403.578ZM-126.693 390.081L-143.718 380.104V358.585L-125.127 369.345V390.863L-126.693 390.081ZM-143.327 357.803L-124.736 347.044L-107.71 357.021L-106.145 357.999L-124.736 368.758L-143.327 357.803ZM-105.558 358.781V380.299L-124.149 391.059V369.54L-105.558 358.781ZM-124.149 392.819L-105.558 403.578V425.097L-124.149 414.338V392.819ZM-104.971 449.158L-86.3796 459.917L-104.971 470.676L-123.562 459.917L-104.971 449.158ZM-124.149 458.939V437.421L-105.558 426.662V448.18L-124.149 458.939ZM-123.757 391.841L-105.166 381.082L-87.9452 391.059L-86.3796 392.037L-104.971 402.796L-123.757 391.841ZM-104.579 403.578L-85.9883 392.819V414.338L-104.579 425.097V403.578ZM-87.3581 390.081L-104.579 380.104V358.585L-85.9883 369.345V390.863L-87.3581 390.081ZM-103.992 357.803L-85.4012 347.044L-68.1801 357.021L-66.6145 357.999L-85.2055 368.758L-103.992 357.803ZM-66.2231 358.781V380.299L-84.8141 391.059V369.54L-66.2231 358.781ZM-84.8141 392.819L-66.2231 403.578V425.097L-84.8141 414.338V392.819ZM-65.8317 449.158L-47.2407 459.917L-65.8317 470.676L-84.4227 459.917L-65.8317 449.158ZM-84.8141 458.939V437.421L-66.2231 426.662V448.18L-84.8141 458.939ZM-84.4227 391.841L-65.8317 381.082L-48.8062 391.059L-47.2407 392.037L-65.8317 402.796L-84.4227 391.841ZM-65.2446 403.578L-46.6536 392.819V414.338L-65.2446 425.097V403.578ZM-48.2191 390.081L-65.2446 380.104V358.585L-46.6536 369.345V390.863L-48.2191 390.081ZM-64.8532 357.803L-46.2622 347.044L-29.2368 357.021L-27.6712 357.999L-46.2622 368.758L-64.8532 357.803ZM-26.8885 358.781V380.299L-45.4794 391.059V369.54L-26.8885 358.781ZM-45.6751 392.819L-27.0842 403.578V425.097L-45.6751 414.338V392.819ZM-26.4971 449.158L-7.90607 459.917L-26.4971 470.676L-45.0881 459.917L-26.4971 449.158ZM-45.6751 458.939V437.421L-27.0842 426.662V448.18L-45.6751 458.939ZM-45.0881 391.841L-26.4971 381.082L-9.47162 391.059L-7.90607 392.037L-26.4971 402.796L-45.0881 391.841ZM-25.91 403.578L-7.31897 392.819V414.338L-25.91 425.097V403.578ZM-8.88455 390.081L-25.91 380.104V358.585L-7.31897 369.345V390.863L-8.88455 390.081ZM-25.5186 357.803L-6.92758 347.044L10.2935 357.021L11.8591 357.999L-6.73187 368.758L-25.5186 357.803ZM12.2505 358.781V380.299L-6.34052 391.059V369.54L12.2505 358.781ZM-6.34052 392.819L12.2505 403.578V425.097L-6.34052 414.338V392.819ZM12.8376 449.158L31.4286 459.917L12.8376 470.676L-5.75342 459.917L12.8376 449.158ZM-6.34052 458.939V437.421L12.2505 426.662V448.18L-6.34052 458.939ZM-5.94913 391.841L12.6419 381.082L29.863 391.059L31.4286 392.037L12.8376 402.796L-5.94913 391.841ZM13.229 403.578L31.82 392.819V414.338L13.229 425.097V403.578ZM30.4501 390.081L13.229 380.104V358.585L31.82 369.345V390.863L30.4501 390.081ZM13.8161 357.803L32.4071 347.044L49.4325 357.021L50.998 357.999L32.4071 368.758L13.8161 357.803ZM51.5851 358.781V380.299L32.9941 391.059V369.54L51.5851 358.781ZM32.9941 392.819L51.5851 403.578V425.097L32.9941 414.338V392.819ZM51.9765 449.158L70.5675 459.917L51.9765 470.676L33.3855 459.917L51.9765 449.158ZM32.9941 458.939V437.421L51.5851 426.662V448.18L32.9941 458.939ZM33.3855 391.841L51.9765 381.082L69.002 391.059L70.5675 392.037L51.9765 402.796L33.3855 391.841ZM52.5636 403.578L71.1546 392.819V414.338L52.5636 425.097V403.578ZM69.5891 390.081L52.5636 380.104V358.585L71.1546 369.345V390.863L69.5891 390.081ZM53.1507 357.803L71.7417 347.044L88.7672 357.021L90.3327 357.999L71.7417 368.758L53.1507 357.803ZM90.9198 358.781V380.299L72.3288 391.059V369.54L90.9198 358.781ZM72.1331 392.819L90.7241 403.578V425.097L72.1331 414.338V392.819ZM91.3112 449.158L109.902 459.917L91.3112 470.676L72.7202 459.917L91.3112 449.158ZM72.1331 458.939V437.421L90.7241 426.662V448.18L72.1331 458.939ZM72.7202 391.841L91.3112 381.082L108.532 391.059L110.098 392.037L91.5069 402.796L72.7202 391.841ZM91.8983 403.578L110.489 392.819V414.338L91.8983 425.097V403.578ZM108.924 390.081L91.7026 380.104V358.585L110.294 369.345V390.863L108.924 390.081ZM92.2896 357.803L110.881 347.044L128.102 357.021L129.667 357.999L111.076 368.758L92.2896 357.803ZM130.059 358.781V380.299L111.468 391.059V369.54L130.059 358.781ZM111.468 392.819L130.059 403.578V425.097L111.468 414.338V392.819ZM130.646 449.158L149.237 459.917L130.646 470.676L112.055 459.917L130.646 449.158ZM111.468 458.939V437.421L130.059 426.662V448.18L111.468 458.939ZM112.055 391.841L130.646 381.082L147.671 391.059L149.237 392.037L130.646 402.796L112.055 391.841ZM131.037 403.578L149.628 392.819V414.338L131.037 425.097V403.578ZM148.258 390.081L131.233 380.104V358.585L149.824 369.345V390.863L148.258 390.081ZM131.624 357.803L150.215 347.044L167.241 357.021L168.806 357.999L150.215 368.758L131.624 357.803ZM169.393 358.781V380.299L150.802 391.059V369.54L169.393 358.781ZM150.802 392.819L169.393 403.578V425.097L150.802 414.338V392.819ZM169.98 449.158L188.571 459.917L169.98 470.676L151.389 459.917L169.98 449.158ZM150.802 458.939V437.421L169.393 426.662V448.18L150.802 458.939ZM151.194 391.841L169.785 381.082L186.81 391.059L188.376 392.037L169.785 402.796L151.194 391.841ZM170.372 403.578L188.963 392.819V414.338L170.372 425.097V403.578ZM187.593 390.081L170.568 380.104V358.585L189.159 369.345V390.863L187.593 390.081ZM170.959 357.803L189.55 347.044L206.771 357.021L208.337 357.999L189.746 368.758L170.959 357.803ZM208.728 358.781V380.299L190.137 391.059V369.54L208.728 358.781ZM189.941 392.819L208.532 403.578V425.097L189.941 414.338V392.819ZM209.119 449.158L227.71 459.917L209.119 470.676L190.528 459.917L209.119 449.158ZM189.941 458.939V437.421L208.532 426.662V448.18L189.941 458.939ZM190.528 391.841L209.119 381.082L226.341 391.059L227.906 392.037L209.315 402.796L190.528 391.841ZM209.706 403.578L228.297 392.819V414.338L209.706 425.097V403.578ZM226.732 390.081L209.511 380.104V358.585L228.102 369.345V390.863L226.732 390.081ZM210.098 357.803L228.689 347.044L245.714 357.021L247.28 357.999L228.689 368.758L210.098 357.803ZM247.867 358.781V380.299L229.276 391.059V369.54L247.867 358.781ZM229.276 392.819L247.867 403.578V425.097L229.276 414.338V392.819ZM248.454 449.158L267.045 459.917L248.454 470.676L229.863 459.917L248.454 449.158ZM229.276 458.939V437.421L247.867 426.662V448.18L229.276 458.939ZM229.863 391.841L248.454 381.082L265.479 391.059L267.045 392.037L248.454 402.796L229.863 391.841ZM248.845 403.578L267.436 392.819V414.338L248.845 425.097V403.578ZM266.067 390.081L249.041 380.104V358.585L267.632 369.345V390.863L266.067 390.081ZM249.432 357.803L268.023 347.044L285.049 357.021L286.615 357.999L268.023 368.758L249.432 357.803ZM287.202 358.781V380.299L268.611 391.059V369.54L287.202 358.781ZM268.611 392.819L287.202 403.578V425.097L268.611 414.338V392.819ZM287.789 449.158L306.38 459.917L287.789 470.676L269.198 459.917L287.789 449.158ZM268.611 458.939V437.421L287.202 426.662V448.18L268.611 458.939ZM269.002 391.841L287.593 381.082L304.814 391.059L306.38 392.037L287.789 402.796L269.002 391.841ZM288.18 403.578L306.771 392.819V414.338L288.18 425.097V403.578ZM305.401 390.081L288.18 380.104V358.585L306.771 369.345V390.863L305.401 390.081ZM288.767 357.803L307.358 347.044L324.579 357.021L326.145 357.999L307.554 368.758L288.767 357.803ZM326.536 358.781V380.299L307.945 391.059V369.54L326.536 358.781ZM307.75 392.819L326.341 403.578V425.097L307.75 414.338V392.819ZM326.928 449.158L345.519 459.917L326.928 470.676L308.337 459.917L326.928 449.158ZM307.75 458.939V437.421L326.341 426.662V448.18L307.75 458.939ZM308.337 391.841L326.928 381.082L343.953 391.059L345.519 392.037L326.928 402.796L308.337 391.841ZM327.515 403.578L346.106 392.819V414.338L327.515 425.097V403.578ZM344.54 390.081L327.515 380.104V358.585L346.106 369.345V390.863L344.54 390.081ZM327.906 357.803L346.497 347.044L363.523 357.021L365.088 357.999L346.497 368.758L327.906 357.803ZM365.675 358.781V380.299L347.084 391.059V369.54L365.675 358.781ZM347.084 392.819L365.675 403.578V425.097L347.084 414.338V392.819ZM366.262 449.158L384.853 459.917L366.262 470.676L347.671 459.917L366.262 449.158ZM347.084 458.939V437.421L365.675 426.662V448.18L347.084 458.939ZM347.671 391.841L366.262 381.082L383.483 391.059L385.049 392.037L366.458 402.796L347.671 391.841ZM366.654 403.578L385.245 392.819V414.338L366.654 425.097V403.578ZM383.875 390.081L366.654 380.104V358.585L385.245 369.345V390.863L383.875 390.081ZM367.241 357.803L385.832 347.044L403.053 357.021L404.618 357.999L386.027 368.758L367.241 357.803ZM405.01 358.781V380.299L386.419 391.059V369.54L405.01 358.781ZM386.419 392.819L405.01 403.578V425.097L386.419 414.338V392.819ZM405.597 449.158L424.188 459.917L405.597 470.676L387.006 459.917L405.597 449.158ZM386.419 458.939V437.421L405.01 426.662V448.18L386.419 458.939ZM386.81 391.841L405.401 381.082L422.427 391.059L423.992 392.037L405.401 402.796L386.81 391.841ZM405.988 403.578L424.579 392.819V414.338L405.988 425.097V403.578ZM423.209 390.081L406.184 380.104V358.585L424.775 369.345V390.863L423.209 390.081ZM406.575 357.803L425.166 347.044L442.192 357.021L443.757 357.999L425.166 368.758L406.575 357.803ZM444.344 358.781V380.299L425.753 391.059V369.54L444.344 358.781ZM425.558 392.819L444.149 403.578V425.097L425.558 414.338V392.819ZM444.736 449.158L463.327 459.917L444.736 470.676L426.145 459.917L444.736 449.158ZM425.558 458.939V437.421L444.149 426.662V448.18L425.558 458.939ZM426.145 391.841L444.736 381.082L461.761 391.059L463.327 392.037L444.736 402.796L426.145 391.841ZM445.323 403.578L463.914 392.819V414.338L445.323 425.097V403.578ZM462.348 390.081L445.323 380.104V358.585L463.914 369.345V390.863L462.348 390.081ZM445.714 357.803L464.305 347.044L481.526 357.021L483.092 357.999L464.501 368.758L445.714 357.803ZM483.679 358.781V380.299L465.088 391.059V369.54L483.679 358.781ZM464.892 392.819L483.483 403.578V425.097L464.892 414.338V392.819ZM484.07 449.158L502.661 459.917L484.07 470.676L465.479 459.917L484.07 449.158ZM464.892 458.939V437.421L483.483 426.662V448.18L464.892 458.939ZM465.479 391.841L484.07 381.082L501.292 391.059L502.857 392.037L484.266 402.796L465.479 391.841ZM484.658 403.578L503.249 392.819V414.338L484.658 425.097V403.578ZM501.683 390.081L484.462 380.104V358.585L503.053 369.345V390.863L501.683 390.081ZM485.049 357.803L503.64 347.044L520.665 357.021L522.231 357.999L503.64 368.758L485.049 357.803ZM522.818 358.781V380.299L504.227 391.059V369.54L522.818 358.781ZM504.227 392.819L522.818 403.578V425.097L504.227 414.338V392.819ZM523.405 449.158L541.996 459.917L523.405 470.676L504.814 459.917L523.405 449.158ZM504.227 458.939V437.421L522.818 426.662V448.18L504.227 458.939ZM504.618 391.841L523.209 381.082L540.235 391.059L541.8 392.037L523.209 402.796L504.618 391.841ZM523.797 403.578L542.388 392.819V414.338L523.797 425.097V403.578ZM541.018 390.081L523.992 380.104V358.585L542.583 369.345V390.863L541.018 390.081ZM524.384 357.803L542.975 347.044L560 357.021L561.566 357.999L542.975 368.758L524.384 357.803ZM562.153 358.781V380.299L543.562 391.059V369.54L562.153 358.781ZM543.562 392.819L562.153 403.578V425.097L543.562 414.338V392.819ZM562.544 449.158L581.135 459.917L562.544 470.676L543.953 459.917L562.544 449.158ZM543.562 458.939V437.421L562.153 426.662V448.18L543.562 458.939ZM543.953 391.841L562.544 381.082L579.765 391.059L581.331 392.037L562.74 402.796L543.953 391.841ZM563.131 403.578L581.722 392.819V414.338L563.131 425.097V403.578ZM580.157 390.081L562.935 380.104V358.585L581.526 369.345V390.863L580.157 390.081ZM563.523 357.803L582.114 347.044L599.335 357.021L600.9 357.999L582.309 368.758L563.523 357.803ZM601.487 358.781V380.299L582.896 391.059V369.54L601.487 358.781ZM582.701 392.819L601.292 403.578V425.097L582.701 414.338V392.819ZM601.879 449.158L620.47 459.917L601.879 470.676L583.288 459.917L601.879 449.158ZM582.701 458.939V437.421L601.292 426.662V448.18L582.701 458.939ZM583.288 391.841L601.879 381.082L618.904 391.059L620.47 392.037L601.879 402.796L583.288 391.841ZM602.466 403.578L621.057 392.819V414.338L602.466 425.097V403.578ZM619.491 390.081L602.466 380.104V358.585L621.057 369.345V390.863L619.491 390.081ZM602.857 357.803L621.448 347.044L640.039 357.803L621.448 368.562L602.857 357.803ZM640.626 380.299L622.035 391.059V369.54L640.626 358.781V380.299ZM640.626 335.502V357.021L622.035 346.261V324.743L640.626 335.502ZM640.626 312.223L622.035 322.982V301.464L640.626 290.705V312.223ZM640.626 267.426V288.944L622.035 278.185V256.667L640.626 267.426ZM640.626 244.343L622.035 255.102V233.584L640.626 222.824V244.343ZM640.626 199.545V221.064L622.035 210.305V188.786L640.626 199.545ZM640.626 176.267L622.035 187.026V165.507L640.626 154.748V176.267ZM640.626 131.469V152.988L622.035 142.228V120.71L640.626 131.469ZM640.626 108.19L622.035 118.95V97.4312L640.626 86.6721V108.19ZM640.626 63.5888V85.1071L622.035 74.3479V52.8296L640.626 63.5888ZM640.626 40.3099L622.035 51.069V29.5507L640.626 18.7915V40.3099ZM625.362 -13.2903L640.626 -4.48738V17.031L622.035 6.27179V-15.2465L625.362 -13.2903ZM621.448 -60.8263L640.626 -49.8715V-27.7663L622.035 -17.0071V-39.1123L602.857 -50.0671L621.448 -60.8263ZM602.466 -49.2846L621.057 -38.5255V-17.0071L602.466 -27.7663V-49.2846ZM601.879 -26.7882L620.47 -16.029L601.879 -5.26986L586.615 -14.0728L583.288 -16.029L601.879 -26.7882ZM601.487 -27.7663L582.896 -17.0071V-38.5255L601.487 -49.2846V-27.7663ZM582.309 -60.8263L600.9 -50.0671L582.309 -39.3079L563.718 -50.0671L582.309 -60.8263ZM563.131 -49.2846L581.722 -38.5255V-17.0071L563.131 -27.7663V-49.2846ZM562.544 -26.7882L581.135 -16.029L562.544 -5.26986L547.28 -14.0728L543.953 -16.029L562.544 -26.7882ZM562.153 -27.7663L543.562 -17.0071V-38.5255L562.153 -49.2846V-27.7663ZM542.975 -60.8263L561.566 -50.0671L542.975 -39.3079L524.384 -50.0671L542.975 -60.8263ZM523.797 -49.2846L542.583 -38.5255V-17.0071L523.992 -27.7663V-49.2846H523.797ZM523.405 -26.7882L541.996 -16.029L523.405 -5.26986L508.141 -14.0728L504.814 -16.029L523.405 -26.7882ZM522.818 -27.7663L504.227 -17.0071V-38.5255L522.818 -49.2846V-27.7663ZM503.64 -60.8263L522.231 -50.0671L503.64 -39.3079L485.049 -50.0671L503.64 -60.8263ZM484.658 -49.2846L503.249 -38.5255V-17.0071L484.658 -27.7663V-49.2846ZM484.07 -26.7882L502.661 -16.029L484.07 -5.26986L468.806 -14.0728L465.479 -16.029L484.07 -26.7882ZM483.679 -27.7663L465.088 -17.0071V-38.5255L483.679 -49.2846V-27.7663ZM464.501 -60.8263L483.092 -50.0671L464.501 -39.3079L445.91 -50.0671L464.501 -60.8263ZM445.323 -49.2846L463.914 -38.5255V-17.0071L445.323 -27.7663V-49.2846ZM444.736 -26.7882L463.327 -16.029L444.736 -5.26986L429.472 -14.0728L426.145 -16.029L444.736 -26.7882ZM444.344 -27.7663L425.753 -17.0071V-38.5255L444.344 -49.2846V-27.7663ZM425.166 -60.8263L443.757 -50.0671L425.166 -39.3079L406.575 -50.0671L425.166 -60.8263ZM405.988 -49.2846L424.579 -38.5255V-17.0071L405.988 -27.7663V-49.2846ZM405.597 -26.7882L424.188 -16.029L405.597 -5.26986L390.333 -14.0728L387.006 -16.029L405.597 -26.7882ZM405.01 -27.7663L386.419 -17.0071V-38.5255L405.01 -49.2846V-27.7663ZM385.832 -60.8263L404.423 -50.0671L385.832 -39.3079L367.241 -50.0671L385.832 -60.8263ZM366.654 -49.2846L385.245 -38.5255V-17.0071L366.654 -27.7663V-49.2846ZM366.262 -26.7882L384.853 -16.029L366.262 -5.26986L350.998 -14.0728L347.671 -16.029L366.262 -26.7882ZM365.675 -27.7663L347.084 -17.0071V-38.5255L365.675 -49.2846V-27.7663ZM346.693 -60.8263L365.284 -50.0671L346.693 -39.3079L328.102 -50.0671L346.693 -60.8263ZM327.515 -49.2846L346.106 -38.5255V-17.0071L327.515 -27.7663V-49.2846ZM326.928 -26.7882L345.519 -16.029L326.928 -5.26986L311.663 -14.0728L308.337 -16.029L326.928 -26.7882ZM326.536 -27.7663L307.75 -17.0071V-38.5255L326.341 -49.2846V-27.7663H326.536ZM307.358 -60.8263L325.949 -50.0671L307.358 -39.3079L288.767 -50.0671L307.358 -60.8263ZM288.18 -49.2846L306.771 -38.5255V-17.0071L288.18 -27.7663V-49.2846ZM287.789 -26.7882L306.38 -16.029L287.789 -5.26986L272.524 -14.0728L269.198 -16.029L287.789 -26.7882ZM287.202 -27.7663L268.611 -17.0071V-38.5255L287.202 -49.2846V-27.7663ZM268.023 -60.8263L286.615 -50.0671L268.023 -39.3079L249.432 -50.0671L268.023 -60.8263ZM248.845 -49.2846L267.436 -38.5255V-17.0071L248.845 -27.7663V-49.2846ZM248.454 -26.7882L267.045 -16.029L248.454 -5.26986L233.19 -14.0728L229.863 -16.029L248.454 -26.7882ZM247.867 -27.7663L229.276 -17.0071V-38.5255L247.867 -49.2846V-27.7663ZM228.885 -60.8263L247.476 -50.0671L228.885 -39.3079L210.294 -50.0671L228.885 -60.8263ZM209.706 -49.2846L228.297 -38.5255V-17.0071L209.706 -27.7663V-49.2846ZM209.119 -26.7882L227.71 -16.029L209.119 -5.26986L193.855 -14.0728L190.528 -16.029L209.119 -26.7882ZM208.728 -27.7663L190.137 -17.0071V-38.5255L208.728 -49.2846V-27.7663ZM189.55 -60.8263L208.141 -50.0671L189.55 -39.3079L170.959 -50.0671L189.55 -60.8263ZM170.372 -49.2846L188.963 -38.5255V-17.0071L170.372 -27.7663V-49.2846ZM169.98 -26.7882L188.571 -16.029L169.98 -5.26986L154.716 -14.0728L151.389 -16.029L169.98 -26.7882ZM169.393 -27.7663L150.802 -17.0071V-38.5255L169.393 -49.2846V-27.7663ZM150.215 -60.8263L168.806 -50.0671L150.215 -39.3079L131.624 -50.0671L150.215 -60.8263ZM131.037 -49.2846L149.628 -38.5255V-17.0071L131.037 -27.7663V-49.2846ZM130.646 -26.7882L149.237 -16.029L130.646 -5.26986L115.382 -14.0728L112.055 -16.029L130.646 -26.7882ZM130.059 -27.7663L111.468 -17.0071V-38.5255L130.059 -49.2846V-27.7663ZM111.076 -60.8263L129.667 -50.0671L111.076 -39.3079L92.4853 -50.0671L111.076 -60.8263ZM91.8983 -49.2846L110.489 -38.5255V-17.0071L91.8983 -27.7663V-49.2846ZM91.3112 -26.7882L109.902 -16.029L91.3112 -5.26986L76.047 -14.0728L72.7202 -16.029L91.3112 -26.7882ZM90.9198 -27.7663L72.3288 -17.0071V-38.5255L90.9198 -49.2846V-27.7663ZM71.7417 -60.8263L90.3327 -50.0671L71.7417 -39.3079L53.1507 -50.0671L71.7417 -60.8263ZM52.5636 -49.2846L71.1546 -38.5255V-17.0071L52.5636 -27.7663V-49.2846ZM51.9765 -26.7882L70.5675 -16.029L51.9765 -5.26986L36.7123 -14.0728L33.3855 -16.029L51.9765 -26.7882ZM51.5851 -27.7663L32.9941 -17.0071V-38.5255L51.5851 -49.2846V-27.7663ZM32.4071 -60.8263L50.998 -50.0671L32.4071 -39.3079L13.8161 -50.0671L32.4071 -60.8263ZM13.229 -49.2846L31.82 -38.5255V-17.0071L13.229 -27.7663V-49.2846ZM12.8376 -26.7882L31.4286 -16.029L12.8376 -5.26986L-2.42661 -14.0728L-5.75342 -16.029L12.8376 -26.7882ZM12.2505 -27.7663L-6.34052 -17.0071V-38.5255L12.2505 -49.2846V-27.7663ZM-6.92758 -60.8263L11.6634 -50.0671L-6.92758 -39.3079L-25.5186 -50.0671L-6.92758 -60.8263ZM-25.91 -49.2846L-7.31897 -38.5255V-17.0071L-25.91 -27.7663V-49.2846ZM-26.4971 -26.7882L-7.90607 -16.029L-26.4971 -5.26986L-41.7613 -14.0728L-45.0881 -16.029L-26.4971 -26.7882ZM-26.8885 -27.7663L-45.4794 -17.0071V-38.5255L-26.8885 -49.2846V-27.7663ZM-46.0665 -60.8263L-27.4755 -50.0671L-46.0665 -39.3079L-64.6575 -50.0671L-46.0665 -60.8263ZM-65.2446 -49.2846L-46.6536 -38.5255V-17.0071L-65.2446 -27.7663V-49.2846ZM-65.8317 -26.7882L-47.2407 -16.029L-65.8317 -5.26986L-81.0959 -14.0728L-84.4227 -16.029L-65.8317 -26.7882ZM-66.2231 -27.7663L-84.8141 -17.0071V-38.5255L-66.2231 -49.2846V-27.7663ZM-85.4012 -60.8263L-66.8102 -50.0671L-85.4012 -39.3079L-103.992 -50.0671L-85.4012 -60.8263ZM-104.579 -49.2846L-85.9883 -38.5255V-17.0071L-104.579 -27.7663V-49.2846ZM-104.971 -26.7882L-86.3796 -16.029L-104.971 -5.26986L-120.235 -14.0728L-123.562 -16.029L-104.971 -26.7882ZM-105.558 -27.7663L-124.149 -17.0071V-38.5255L-105.558 -49.2846V-27.7663ZM-124.736 -60.8263L-106.145 -50.0671L-124.736 -39.3079L-143.327 -50.0671L-124.736 -60.8263ZM-143.718 -49.2846L-125.127 -38.5255V-17.0071L-143.718 -27.7663V-49.2846ZM-144.305 -26.7882L-125.714 -16.029L-144.305 -5.26986L-159.569 -14.0728L-162.896 -16.029L-144.305 -26.7882ZM-144.697 -27.7663L-163.483 -17.0071V-38.5255L-144.892 -49.2846V-27.7663H-144.697ZM-163.875 -60.8263L-145.284 -50.0671L-163.875 -39.3079L-182.466 -50.0671L-163.875 -60.8263ZM-183.053 -49.2846L-164.462 -38.5255V-17.0071L-183.053 -27.7663V-49.2846ZM-183.64 -26.7882L-165.049 -16.029L-183.64 -5.26986L-198.904 -14.0728L-202.231 -16.029L-183.64 -26.7882ZM-184.031 -27.7663L-202.622 -17.0071V-38.5255L-184.031 -49.2846V-27.7663ZM-203.209 -60.8263L-184.618 -50.0671L-203.209 -39.3079L-221.8 -50.0671L-203.209 -60.8263ZM-222.387 -49.2846L-203.796 -38.5255V-17.0071L-222.387 -27.7663V-49.2846ZM-222.779 -26.7882L-204.188 -16.029L-222.779 -5.26986L-238.239 -14.2684L-241.566 -16.2247L-222.779 -26.7882ZM-223.366 -27.7663L-241.957 -17.0071V-38.5255L-223.366 -49.2846V-27.7663ZM-242.544 -60.8263L-223.953 -50.0671L-242.544 -39.3079L-261.135 -50.0671L-242.544 -60.8263ZM-261.526 -49.2846L-242.935 -38.5255V-17.0071L-261.526 -27.7663V-49.2846ZM-262.114 -26.7882L-243.523 -16.029L-262.114 -5.26986L-277.378 -14.2684L-280.705 -16.2247L-262.114 -26.7882ZM-262.505 -27.7663L-281.292 -17.0071V-38.5255L-262.701 -49.2846V-27.7663H-262.505ZM-281.683 -60.8263L-263.092 -50.0671L-281.683 -39.3079L-300.274 -50.0671L-281.683 -60.8263ZM-300.861 -49.2846L-282.27 -38.5255V-17.0071L-300.861 -27.7663V-49.2846ZM-301.448 -26.7882L-282.857 -16.029L-301.448 -5.26986L-316.712 -14.0728L-320.039 -16.029L-301.448 -26.7882ZM-320.431 -38.5255L-301.84 -49.2846V-27.7663L-320.431 -17.0071V-38.5255ZM-320.431 -15.2465L-317.104 -13.2903L-301.84 -4.48738V17.031L-320.431 6.27179V-15.2465ZM-339.609 17.8134L-321.018 7.05427L-302.427 17.8134L-321.018 28.5726L-339.609 17.8134ZM-339.609 85.8896L-321.018 75.1304L-303.405 85.3027L-302.231 85.8896L-320.822 96.6488L-339.609 85.8896ZM-339.609 153.966L-321.018 143.207L-302.427 153.966L-321.018 164.725L-339.609 153.966ZM-339.609 221.846L-321.018 211.087L-302.427 221.846L-321.018 232.605L-339.609 221.846ZM-339.609 289.922L-321.018 279.163L-302.427 289.922L-321.018 300.682L-339.609 289.922ZM-339.609 357.803L-321.018 347.044L-303.992 357.021L-302.427 357.999L-321.018 368.758L-339.609 357.803ZM-339.609 425.879L-321.018 415.12L-302.427 425.879L-321.018 436.638L-339.609 425.879ZM-282.27 482.218L-301.448 493.173L-320.626 482.218V460.7L-301.448 471.654L-282.27 460.7V482.218ZM-282.27 458.939L-300.861 448.18V426.662L-282.27 437.421V458.939ZM-300.47 425.879L-281.879 415.12L-263.288 425.879L-281.879 436.638L-300.47 425.879ZM-242.935 482.218L-262.114 493.173L-281.292 482.218V460.7L-262.114 471.654L-242.935 460.7V482.218ZM-242.935 458.939L-261.526 448.18V426.662L-242.935 437.421V458.939ZM-261.135 425.879L-242.544 415.12L-223.953 425.879L-242.544 436.638L-261.135 425.879ZM-203.601 482.218L-222.779 493.173L-241.957 482.218V460.7L-222.779 471.654L-203.601 460.7V482.218ZM-203.601 458.939L-222.192 448.18V426.662L-203.601 437.421V458.939ZM-221.8 425.879L-203.209 415.12L-184.618 425.879L-203.209 436.638L-221.8 425.879ZM-164.462 482.218L-183.64 493.173L-202.818 482.218V460.7L-183.64 471.654L-164.462 460.7V482.218ZM-164.462 458.939L-183.053 448.18V426.662L-164.462 437.421V458.939ZM-182.661 425.879L-164.07 415.12L-145.479 425.879L-164.07 436.638L-182.661 425.879ZM-125.127 482.218L-144.305 493.173L-163.483 482.218V460.7L-144.305 471.654L-125.127 460.7V482.218ZM-125.127 458.939L-143.718 448.18V426.662L-125.127 437.421V458.939ZM-143.327 425.879L-124.736 415.12L-106.145 425.879L-124.736 436.638L-143.327 425.879ZM-85.7926 482.218L-104.971 493.173L-124.149 482.218V460.7L-104.971 471.654L-85.7926 460.7V482.218ZM-85.7926 458.939L-104.384 448.18V426.662L-85.7926 437.421V458.939ZM-103.992 425.879L-85.4012 415.12L-66.8102 425.879L-85.4012 436.638L-103.992 425.879ZM-46.6536 482.218L-65.8317 493.173L-85.0098 482.218V460.7L-65.8317 471.654L-46.6536 460.7V482.218ZM-46.6536 458.939L-65.2446 448.18V426.662L-46.6536 437.421V458.939ZM-64.8532 425.879L-46.2622 415.12L-27.6712 425.879L-46.2622 436.638L-64.8532 425.879ZM-7.31897 482.218L-26.4971 493.173L-45.6751 482.218V460.7L-26.4971 471.654L-7.31897 460.7V482.218ZM-7.31897 458.939L-25.91 448.18V426.662L-7.31897 437.421V458.939ZM-25.5186 425.879L-6.92758 415.12L11.6634 425.879L-6.92758 436.638L-25.5186 425.879ZM32.0157 482.218L12.8376 493.173L-6.34052 482.218V460.7L12.8376 471.654L32.0157 460.7V482.218ZM32.0157 458.939L13.4247 448.18V426.662L32.0157 437.421V458.939ZM13.8161 425.879L32.4071 415.12L50.998 425.879L32.4071 436.638L13.8161 425.879ZM71.1546 482.218L51.9765 493.173L32.7984 482.218V460.7L51.9765 471.654L71.1546 460.7V482.218ZM71.1546 458.939L52.5636 448.18V426.662L71.1546 437.421V458.939ZM53.1507 425.879L71.7417 415.12L90.3327 425.879L71.7417 436.638L53.1507 425.879ZM110.489 482.218L91.3112 493.173L72.1331 482.218V460.7L91.3112 471.654L110.489 460.7V482.218ZM110.489 458.939L91.8983 448.18V426.662L110.489 437.421V458.939ZM92.2896 425.879L110.881 415.12L129.472 425.879L110.881 436.638L92.2896 425.879ZM149.824 482.218L130.646 493.173L111.468 482.218V460.7L130.646 471.654L149.824 460.7V482.218ZM149.824 458.939L131.233 448.18V426.662L149.824 437.421V458.939ZM131.624 425.879L150.215 415.12L168.806 425.879L150.215 436.638L131.624 425.879ZM188.963 482.218L169.785 493.173L150.607 482.218V460.7L169.785 471.654L188.963 460.7V482.218ZM188.963 458.939L170.372 448.18V426.662L188.963 437.421V458.939ZM170.959 425.879L189.55 415.12L208.141 425.879L189.55 436.638L170.959 425.879ZM228.297 482.218L209.119 493.173L189.941 482.218V460.7L209.119 471.654L228.297 460.7V482.218ZM228.297 458.939L209.706 448.18V426.662L228.297 437.421V458.939ZM210.098 425.879L228.689 415.12L247.28 425.879L228.689 436.638L210.098 425.879ZM267.632 482.218L248.454 493.173L229.276 482.218V460.7L248.454 471.654L267.632 460.7V482.218ZM267.632 458.939L249.041 448.18V426.662L267.632 437.421V458.939ZM249.432 425.879L268.023 415.12L286.615 425.879L268.023 436.638L249.432 425.879ZM306.771 482.218L287.593 493.173L268.415 482.218V460.7L287.593 471.654L306.771 460.7V482.218ZM306.771 458.939L288.18 448.18V426.662L306.771 437.421V458.939ZM288.767 425.879L307.358 415.12L325.949 425.879L307.358 436.638L288.767 425.879ZM346.106 482.218L326.928 493.173L307.75 482.218V460.7L326.928 471.654L346.106 460.7V482.218ZM346.106 458.939L327.515 448.18V426.662L346.106 437.421V458.939ZM327.906 425.879L346.497 415.12L365.088 425.879L346.497 436.638L327.906 425.879ZM385.44 482.218L366.262 493.173L347.084 482.218V460.7L366.262 471.654L385.44 460.7V482.218ZM385.44 458.939L366.849 448.18V426.662L385.44 437.421V458.939ZM367.241 425.879L385.832 415.12L404.423 425.879L385.832 436.638L367.241 425.879ZM424.579 482.218L405.401 493.173L386.223 482.218V460.7L405.401 471.654L424.579 460.7V482.218ZM424.579 458.939L405.988 448.18V426.662L424.579 437.421V458.939ZM406.575 425.879L425.166 415.12L443.757 425.879L425.166 436.638L406.575 425.879ZM463.914 482.218L444.736 493.173L425.558 482.218V460.7L444.736 471.654L463.914 460.7V482.218ZM463.914 458.939L445.323 448.18V426.662L463.914 437.421V458.939ZM445.714 425.879L464.305 415.12L482.896 425.879L464.305 436.638L445.714 425.879ZM503.249 482.218L484.07 493.173L464.892 482.218V460.7L484.07 471.654L503.249 460.7V482.218ZM503.249 458.939L484.658 448.18V426.662L503.249 437.421V458.939ZM485.049 425.879L503.64 415.12L522.231 425.879L503.64 436.638L485.049 425.879ZM542.583 482.218L523.405 493.173L504.227 482.218V460.7L523.405 471.654L542.583 460.7V482.218ZM542.583 458.939L523.992 448.18V426.662L542.583 437.421V458.939ZM524.384 425.879L542.975 415.12L561.566 425.879L542.975 436.638L524.384 425.879ZM581.722 482.218L562.544 493.173L543.366 482.218V460.7L562.544 471.654L581.722 460.7V482.218ZM581.722 458.939L563.131 448.18V426.662L581.722 437.421V458.939ZM563.523 425.879L582.114 415.12L600.705 425.879L582.114 436.638L563.523 425.879ZM621.057 482.218L601.879 493.173L582.701 482.218V460.7L601.879 471.654L621.057 460.7V482.218ZM621.057 458.939L602.466 448.18V426.662L621.057 437.421V458.939ZM621.448 436.638L602.857 425.879L621.448 415.12L640.039 425.879L621.448 436.638ZM622.035 437.421L640.626 426.662V448.18L622.035 458.939V437.421Z" fill="url(#paint0_linear)"/>
</g>
<defs>
<linearGradient id="paint0_linear" x1="160" y1="-62" x2="160" y2="494.347" gradientUnits="userSpaceOnUse">
<stop stop-color="white" stop-opacity="0"/>
<stop offset="0.477305" stop-color="#E8EEFF"/>
<stop offset="1" stop-color="#DFE8FF"/>
</linearGradient>
</defs>
</svg>
