<svg width="215" height="50" viewBox="0 0 215 50" fill="none" xmlns="http://www.w3.org/2000/svg">
<path d="M49.4517 2.59384C48.7136 1.09658 47.132 0.253058 45.5293 0H4.42851C3.22649 0.253058 2.02446 0.716997 1.22311 1.68705C0.527204 2.44623 0.189793 3.43737 0 4.40742V45.7613C0.23197 46.7524 0.56938 47.7857 1.30747 48.5238C2.06664 49.3674 3.14213 49.8524 4.23872 50H45.7824C48.0599 49.768 50.0211 47.7225 49.9578 45.4028C49.9578 32.1173 49.9578 18.8317 49.9578 5.54618C50 4.55504 49.9578 3.50063 49.4517 2.59384ZM46.8368 45.4028C46.879 46.183 46.183 46.879 45.4028 46.8579C43.7157 46.9 42.0076 46.8579 40.3205 46.879C39.6668 46.879 38.9076 46.8579 38.4015 46.3728C37.6002 45.698 37.4736 44.5803 37.2838 43.6103C36.2716 43.7579 35.2383 43.7579 34.205 43.6525C34.1206 44.6436 33.973 45.8035 33.0662 46.3939C32.5601 46.7946 31.8853 46.8579 31.2737 46.8579C29.6288 46.8579 27.984 46.8579 26.3391 46.8579C26.4867 46.3307 26.5922 45.7824 26.5922 45.2341C26.5922 40.7423 26.5922 36.2505 26.5922 31.7377C26.5922 30.852 26.6554 29.9241 26.3391 29.0595C25.8752 27.6255 24.6731 26.4445 23.197 26.065C22.5221 25.8962 21.8051 25.8541 21.1092 25.8541C18.8317 25.8541 16.5753 25.833 14.2978 25.8752C12.9481 25.8962 11.5774 26.4445 10.7339 27.5411C9.95361 28.4057 9.63728 29.6078 9.63728 30.7465C9.63728 31.6955 9.55293 32.6655 9.84817 33.5723C10.2278 34.9641 11.3032 36.1451 12.6529 36.6301C13.5386 36.9043 14.4876 36.9254 15.3943 37.2417C15.6474 37.7267 15.8372 38.2539 15.9426 38.8022C16.976 38.6757 17.9671 38.3593 19.0004 38.2539C18.7685 37.2628 18.5365 36.2294 17.8406 35.4281C17.229 34.6689 16.3222 34.1839 15.3733 33.9941C14.6774 33.8676 13.8971 33.8676 13.2855 33.4669C12.6107 32.8553 12.7583 31.8853 12.7583 31.0628C12.7794 30.5567 12.6951 29.9452 13.0957 29.5445C13.4542 29.0173 14.1501 28.954 14.7406 28.9329C17.0181 28.9329 19.2957 28.9119 21.5521 28.9329C22.1426 28.954 22.8174 29.0806 23.1548 29.6078C23.4078 29.9241 23.4078 30.3458 23.4078 30.7254C23.4078 35.4914 23.4078 40.2573 23.4078 45.0232C23.3868 45.4239 23.4289 45.93 23.0704 46.2252C22.5854 46.7102 21.8684 46.7946 21.2147 46.8157C15.7107 46.8157 10.2278 46.8157 4.72375 46.8157C3.83804 46.9 3.05778 46.0776 3.14213 45.1919C3.14213 31.6955 3.14213 18.1991 3.14213 4.70266C3.07887 3.85913 3.85913 3.09996 4.70266 3.16322C10.3121 3.16322 15.9216 3.16322 21.531 3.16322C22.5221 3.18431 23.5555 3.24757 24.4623 3.69043C25.0949 4.23872 25.0105 5.18768 25.1582 5.96795C25.2003 10.4175 25.1582 14.8671 25.1793 19.3167C25.1793 19.7807 25.2003 20.2868 24.9262 20.6664C24.5044 21.0881 23.914 21.2147 23.3446 21.3412C23.4922 22.3745 23.7663 23.3868 23.8718 24.4201C25.3058 24.1248 26.8241 23.5765 27.6255 22.2691C28.1738 21.4466 28.2792 20.4344 28.2792 19.4854C28.2792 15.2467 28.2792 11.0291 28.2792 6.79038C28.2581 5.56727 28.1949 4.32307 27.752 3.18431C33.5723 3.18431 39.3716 3.18431 45.1919 3.18431C46.0354 3.09996 46.8368 3.88022 46.7735 4.72375C46.7735 11.1767 46.7735 17.6297 46.7735 24.0827C46.7735 24.9473 46.5837 25.833 45.9933 26.4867C45.3395 27.1615 44.3906 27.3724 43.5049 27.5411C43.5892 28.5744 43.7368 29.6078 43.8633 30.62C44.8545 30.4513 45.8878 30.2826 46.7735 29.7343C46.8368 34.9852 46.8368 40.194 46.8368 45.4028Z" fill="white"/>
<path d="M14.3189 12.5896C13.7706 12.8216 13.2434 13.3277 13.2644 13.9604C13.1801 14.8461 14.0025 15.6896 14.8882 15.6474C15.7528 15.6685 16.4909 14.825 16.4277 13.9814C16.4488 12.9692 15.2467 12.1679 14.3189 12.5896Z" fill="white"/>
<path d="M131.21 26.4656C130.789 26.5078 130.367 26.55 129.924 26.5711C129.924 28.4901 129.924 30.388 129.924 32.307C128.427 32.307 126.93 32.307 125.432 32.307C125.264 31.0628 125.496 29.8186 125.39 28.5744C125.348 24.6942 125.432 20.814 125.432 16.9338C126.93 16.9127 128.427 16.9338 129.924 16.9338C129.945 18.7685 129.924 20.6031 129.945 22.4589C130.367 22.4589 130.789 22.4589 131.21 22.4589C131.21 23.7874 131.21 25.116 131.21 26.4656ZM120.962 19.0426C119.401 17.5243 117.166 17.0814 115.078 16.9549C112.927 16.9127 110.776 16.976 108.646 16.9338C108.583 17.2079 108.541 17.5032 108.541 17.7984C108.562 21.8684 108.541 25.9384 108.541 30.0084C108.541 30.7887 108.499 31.569 108.604 32.3281C110.101 32.307 111.598 32.3281 113.096 32.3281C113.117 28.6799 113.075 25.0316 113.117 21.3834C114.403 21.3834 115.732 21.2779 116.955 21.8051C117.946 22.2058 118.6 23.2602 118.536 24.3146C118.621 25.3901 118.283 26.6132 117.313 27.2248C116.259 27.8785 114.973 27.8785 113.771 27.8996C113.771 29.3758 113.771 30.852 113.771 32.3281C116.385 32.7077 119.296 32.0751 121.109 30.0717C122.838 28.4057 123.387 25.8541 123.155 23.5344C123.028 21.8051 122.248 20.1603 120.962 19.0426ZM104.26 17.946C103.016 16.7229 101.16 16.4488 99.515 16.6596C98.2708 16.7862 97.0266 17.3134 96.183 18.2412C95.1497 19.2957 94.7069 20.7718 94.7069 22.2269C94.7069 25.5799 94.7069 28.9329 94.7069 32.286C96.2252 32.286 97.7436 32.307 99.2619 32.286C99.2619 29.0384 99.2619 25.7908 99.2619 22.5432C99.2619 22.1636 99.2619 21.7419 99.515 21.4256C99.768 21.0671 100.295 21.1092 100.696 21.2147C101.16 21.4677 101.202 22.0582 101.202 22.5432C101.202 25.7908 101.202 29.0595 101.202 32.307C102.72 32.307 104.239 32.3281 105.757 32.307C105.757 28.9962 105.757 25.7065 105.757 22.3956C105.757 20.7929 105.399 19.127 104.26 17.946ZM60.059 23.7031C60.059 24.8629 60.038 26.0228 60.0801 27.2037C60.6073 27.2037 61.1345 27.2037 61.6617 27.2248C61.8305 27.52 61.7672 27.8364 61.6196 28.1316C60.6284 28.3214 59.5108 28.2581 58.6672 27.6677C57.4441 26.8452 57.0224 25.1793 57.3598 23.7874C57.6128 22.5432 58.6672 21.5099 59.9114 21.2147C60.8815 21.046 61.9148 21.1303 62.8216 21.5521C62.8005 20.0127 62.8638 18.4732 62.7794 16.9338C61.1978 16.5331 59.5108 16.4277 57.9081 16.9127C55.5884 17.6297 53.6904 19.5487 52.9734 21.8684C52.4673 23.5765 52.4673 25.4534 52.9523 27.1615C53.4795 28.8908 54.5972 30.4302 56.0734 31.4635C57.7393 32.6023 59.9114 32.9608 61.8515 32.4125C63.1801 32.054 64.3189 31.1472 65.0359 29.9873C66.2168 28.0261 65.8372 25.3901 64.3399 23.7031C62.9481 23.6609 61.493 23.7242 60.059 23.7031ZM92.2817 22.2269C92.2185 20.7086 91.9654 19.0215 90.8688 17.8617C89.6457 16.6807 87.8321 16.4909 86.2084 16.6175C84.7744 16.7018 83.3193 17.2712 82.3914 18.41C81.4635 19.5065 81.0839 20.9827 81.0628 22.3956C81.0628 25.6854 81.0628 28.9962 81.0628 32.286C82.5812 32.3281 84.0995 32.286 85.6179 32.307C85.6179 31.0839 85.6179 29.8819 85.6179 28.6588C86.0396 28.6588 86.4825 28.6588 86.9043 28.6588C86.9043 27.2881 86.9253 25.9173 86.8832 24.5677C86.4614 24.5677 86.0186 24.5677 85.5968 24.5677C85.5968 23.8507 85.5757 23.1126 85.6179 22.3956C85.639 21.9317 85.8288 21.4466 86.2294 21.2147C86.5458 21.1303 86.8832 21.1303 87.1995 21.2147C87.6213 21.4888 87.6423 22.0793 87.6634 22.5432C87.6634 25.7908 87.6634 29.0384 87.6634 32.307C89.1818 32.2649 90.7001 32.3703 92.2185 32.2649C92.3028 28.9119 92.2607 25.5588 92.2817 22.2269ZM78.6588 24.3779C79.8608 22.3323 79.2493 19.4433 77.3513 18.0304C76.1704 17.1658 74.631 16.9338 73.197 16.9338C71.3623 16.9549 69.5065 16.9127 67.6719 16.9549C67.6719 22.0793 67.6719 27.2037 67.6719 32.307C69.1691 32.307 70.6875 32.307 72.1847 32.307C72.2058 28.5534 72.1847 24.8208 72.1847 21.0671C72.8596 21.0881 73.5976 20.9827 74.2092 21.3201C74.8629 21.7208 74.7997 22.8174 74.1459 23.197C73.7663 23.4078 73.3235 23.4078 72.9017 23.4289C72.9017 24.6731 72.8806 25.8962 72.9017 27.1404C72.9017 27.6466 73.2181 28.0683 73.4078 28.5323C73.9351 29.7976 74.5255 31.0207 75.0738 32.286C76.6554 32.307 78.2581 32.286 79.8397 32.286C79.0173 30.1771 78.1105 28.0894 77.2459 26.0017C77.7731 25.5167 78.3003 25.0105 78.6588 24.3779ZM175.011 17.714C173.429 17.0814 171.7 16.8916 169.992 16.9338C168.22 16.9338 166.449 16.9338 164.677 16.9338C164.635 22.0582 164.656 27.1826 164.677 32.307C166.175 32.307 167.672 32.307 169.169 32.307C169.19 29.3758 169.169 26.4235 169.169 23.4922C169.169 22.7752 169.106 22.0582 169.253 21.3623C170.561 21.3834 171.932 21.2779 173.155 21.8262C173.914 22.1636 174.462 22.9017 174.589 23.7031C174.8 24.884 174.61 26.318 173.577 27.0772C172.522 27.8153 171.194 27.8364 169.949 27.8574C169.97 29.3547 169.949 30.8309 169.949 32.3281C170.814 32.3492 171.679 32.3703 172.522 32.3281C174.378 32.1173 176.191 31.2737 177.436 29.8397C179.228 27.8364 179.734 24.884 179.059 22.3323C178.553 20.2446 176.972 18.5154 175.011 17.714ZM181.527 16.9338C181.485 22.0582 181.527 27.1826 181.506 32.307C183.024 32.307 184.521 32.307 186.04 32.307C186.103 27.1826 186.061 22.0582 186.061 16.9338C184.542 16.9338 183.024 16.9338 181.527 16.9338ZM136.546 16.9338C135.027 16.9338 133.509 16.9338 131.991 16.9338C131.949 22.0582 131.991 27.1826 131.97 32.307C133.488 32.307 135.006 32.307 136.504 32.307C136.588 27.1826 136.546 22.0582 136.546 16.9338ZM213.539 23.7663C212.084 23.6398 210.607 23.7453 209.131 23.7242C209.152 24.884 209.131 26.0228 209.131 27.1826C209.701 27.1826 210.291 27.2037 210.86 27.2459C210.86 27.5833 210.945 28.0472 210.523 28.1527C209.258 28.4479 207.76 28.0261 207.001 26.9085C206.348 26.0017 206.284 24.8208 206.474 23.7663C206.769 22.3113 208.161 21.1725 209.658 21.1514C210.46 21.0882 211.24 21.2779 211.978 21.5732C211.957 20.0548 211.999 18.5154 211.957 16.976C210.164 16.4909 208.203 16.4066 206.453 17.1447C204.998 17.714 203.796 18.8106 202.931 20.097C201.476 22.4167 201.35 25.4534 202.362 27.984C202.952 29.418 204.007 30.6622 205.272 31.5479C207.592 33.1084 210.987 33.1717 213.138 31.2737C214.256 30.3248 214.846 28.8908 214.888 27.4357V27.3513C214.867 26.0439 214.403 24.7364 213.539 23.7663ZM198.313 17.8828C197.048 16.6807 195.171 16.4488 193.484 16.6596C192.24 16.7862 191.059 17.3766 190.215 18.3045C189.224 19.3378 188.823 20.814 188.802 22.2058C188.802 25.5588 188.802 28.9119 188.802 32.286C190.299 32.307 191.797 32.286 193.294 32.286C193.294 29.0806 193.294 25.8752 193.294 22.6698C193.315 22.2269 193.336 21.763 193.631 21.4045C193.884 21.046 194.412 21.0881 194.791 21.1936C195.255 21.4466 195.318 22.0371 195.318 22.5221C195.318 25.7697 195.318 29.0173 195.318 32.286C196.837 32.307 198.376 32.307 199.895 32.286C199.895 28.9751 199.895 25.6854 199.895 22.3745C199.895 20.7718 199.515 19.0426 198.313 17.8828ZM154.576 22.6908C155.103 24.8418 154.745 27.2248 153.522 29.0806C152.362 30.7465 150.633 32.0962 148.608 32.4968C146.478 32.9608 144.137 32.6234 142.324 31.3792C140.489 30.1139 139.097 28.0894 138.802 25.8541C138.507 23.935 138.908 21.9106 139.983 20.3079C141.248 18.3467 143.399 16.9338 145.74 16.6807C147.575 16.4277 149.536 16.7651 151.097 17.7984C152.784 18.9372 154.133 20.6664 154.576 22.6908ZM148.798 21.8262C147.976 21.1092 146.816 21.0249 145.803 21.2358C144.538 21.6364 143.568 22.7963 143.399 24.1248C143.146 25.6643 144.053 27.267 145.445 27.8996C146.668 28.4268 148.186 28.1527 149.093 27.1826C150.59 25.7697 150.443 23.0704 148.798 21.8262ZM163.264 27.7942C162.695 27.8364 162.02 27.8996 161.556 27.4989C161.219 27.1615 161.219 26.6343 161.198 26.1915C161.198 23.1126 161.198 20.0127 161.198 16.9338C159.679 16.9338 158.161 16.9338 156.643 16.9338C156.622 20.2868 156.622 23.6398 156.643 26.9717C156.664 28.6166 157.254 30.3669 158.646 31.3581C159.933 32.286 161.598 32.3492 163.138 32.286C163.096 30.852 163.243 29.3758 163.054 27.9629C163.222 28.0051 163.243 28.1949 163.264 28.3425C163.328 29.6288 163.264 30.9152 163.307 32.2016C163.222 30.7465 163.328 29.2704 163.264 27.7942Z" fill="white"/>
</svg>
