<svg width="18" height="18" viewBox="0 0 18 18" fill="none" xmlns="http://www.w3.org/2000/svg">
<path d="M0.501381 2.30672C0.521381 2.28672 0.521383 2.28673 0.541384 2.26673L2.68139 0.386704C2.98139 0.106704 3.40138 -0.0332767 3.84138 0.00672327C4.24138 0.0467233 4.60139 0.206704 4.88139 0.486704C4.90139 0.506704 4.92138 0.526714 4.94138 0.546714L7.06138 3.20672C7.62138 3.80672 7.60138 4.72672 7.02138 5.30672C6.98138 5.34672 6.94138 5.38672 6.90138 5.40672L5.82138 6.12674C5.90138 6.50674 6.46138 7.58673 8.44138 9.56673C10.4214 11.5467 11.5014 12.1067 11.8814 12.1867L12.6014 11.1067C12.6214 11.0667 12.6614 11.0267 12.7014 10.9867C13.2814 10.4067 14.2014 10.4067 14.8014 10.9467L17.4614 13.0667C17.4814 13.0867 17.5014 13.1067 17.5214 13.1267C18.1214 13.7267 18.1614 14.7267 17.6214 15.3067L15.7414 17.4467C15.7214 17.4667 15.7214 17.4667 15.7014 17.4867C15.3414 17.8467 14.7814 17.9867 14.1614 17.9867C13.0614 17.9867 11.8014 17.5467 11.1414 17.2867C9.86138 16.7867 7.36139 15.5667 4.88139 13.0867C3.04139 11.2467 1.56138 9.02674 0.681385 6.82674C0.301386 5.82674 -0.53862 3.34672 0.501381 2.30672ZM6.02138 11.9867C9.72138 15.6867 13.8814 16.7067 14.5814 16.3467L16.4014 14.2667L13.8014 12.2067L13.1014 13.2667C13.0814 13.2867 13.0814 13.3067 13.0614 13.3267C12.8214 13.6267 12.4814 13.7867 12.0814 13.8067C11.7014 13.8267 10.5214 13.8867 7.34138 10.7067C6.56138 9.92672 4.16138 7.52673 4.24138 5.96673C4.26138 5.56673 4.44138 5.2267 4.72138 4.9867C4.74138 4.9667 4.76139 4.94671 4.78139 4.94671L5.84138 4.24671L3.78139 1.64671L1.70138 3.46673C1.30138 4.12673 2.32138 8.28671 6.02138 11.9867Z" fill="#2153DA"/>
</svg>
