<svg width="168" height="131" viewBox="0 0 168 131" fill="none" xmlns="http://www.w3.org/2000/svg">
<path d="M44.1583 4.33966C52.0551 2.97481 59.9647 1.68348 67.8489 0.245119C70.9907 -0.297884 73.2191 0.45256 74.9375 2.80531C84.2508 15.2014 93.5641 27.5975 102.962 39.979C104.447 41.9935 104.778 43.9048 104.055 46.3009C99.4172 60.9568 94.7921 75.6862 90.2646 90.4745C89.3634 93.3557 87.4438 94.8988 84.0473 95.4858C68.4107 98.1126 52.7868 100.813 37.0906 103.602C33.8639 104.159 31.5378 103.35 29.7346 101.012C20.3109 88.4834 10.8873 75.9549 1.39149 63.5147C0.139825 61.8383 -0.152395 60.1476 0.464016 58.1484C5.0764 43.3454 9.7737 28.5278 14.3012 13.7395C15.2619 10.6966 17.1433 8.93304 20.8073 8.3755C28.7168 7.08416 36.4312 5.67516 44.1583 4.33966ZM89.7761 40.5924C89.4324 40.1219 89.1991 39.7837 88.9784 39.519C81.8375 30.0785 74.6965 20.6381 67.6278 11.1094C67.0635 10.3742 66.6135 10.3005 65.6795 10.4619C54.1314 12.4579 42.4983 14.4684 30.9502 16.4643C30.5256 16.5377 30.1011 16.6111 29.6892 16.758C29.9353 17.1697 30.1559 17.4344 30.3893 17.7726C37.4326 27.1542 44.5608 36.5212 51.6168 45.9763C52.1938 46.7851 52.7668 47.0646 53.9556 46.8591C65.3212 44.8191 76.7971 42.9113 88.1754 40.9448C88.5873 40.7979 89.0968 40.7098 89.7761 40.5924ZM33.0432 87.267C33.1749 87.0171 33.1622 86.9436 33.2344 86.8554C36.6013 75.9774 39.9681 65.0993 43.335 54.2213C43.5135 53.7362 43.3142 53.0893 42.9833 52.6923C36.3685 43.7665 29.6816 34.9289 22.982 26.0179C22.7613 25.7532 22.5534 25.562 22.32 25.2238C22.1542 25.7824 22.0352 26.1058 21.844 26.5174C18.558 36.8515 15.3697 47.2444 12.0837 57.5785C11.8116 58.534 11.841 59.2103 12.503 60.0044C19.3979 69.0331 26.1229 78.0912 33.0432 87.267Z" fill="#DFE8FF"/>
<path d="M99.5446 77.7292C103.129 74.8528 106.739 72.0096 110.296 69.1C111.722 67.9556 113.047 67.7119 114.559 68.4113C122.655 72.0245 130.75 75.6377 138.884 79.2199C140.185 79.815 140.879 80.6793 141.178 82.0785C142.9 90.6976 144.649 99.3499 146.463 108.005C146.807 109.696 146.27 111.001 144.729 112.238C137.611 117.896 130.52 123.587 123.417 129.342C121.953 130.517 120.563 130.759 119.012 130.09C110.825 126.442 102.638 122.793 94.4387 119.208C93.3478 118.718 92.7342 117.953 92.4912 116.782C90.7159 108.096 88.9791 99.3798 87.1652 90.7252C86.8066 88.9362 87.2631 87.5315 88.9469 86.2347C92.5575 83.3916 96.0377 80.5438 99.5446 77.7292ZM132.439 83.1899C132.137 83.05 131.927 82.9456 131.743 82.8745C125.553 80.1363 119.364 77.398 113.187 74.5955C112.7 74.3846 112.454 74.4727 112.03 74.8129C106.789 79.0193 101.51 83.2566 96.2687 87.463C96.076 87.6176 95.8834 87.7723 95.7174 87.9602C95.9545 88.0978 96.1383 88.1689 96.3487 88.2732C102.473 91.0092 108.636 93.7142 114.786 96.4834C115.299 96.7276 115.664 96.7083 116.203 96.2752C121.341 92.0975 126.57 87.9553 131.734 83.8108C131.9 83.6229 132.131 83.4373 132.439 83.1899ZM116.875 122.296C116.873 122.135 116.846 122.101 116.858 122.037C115.542 115.661 114.226 109.285 112.91 102.908C112.865 102.616 112.587 102.348 112.311 102.241C106.528 99.614 100.733 97.0512 94.9108 94.4551C94.7271 94.384 94.57 94.3462 94.3595 94.2418C94.4306 94.5673 94.4603 94.7621 94.478 95.0211C95.6843 101.103 96.9558 107.187 98.1621 113.269C98.2895 113.822 98.4911 114.153 99.0424 114.366C104.995 116.966 110.87 119.629 116.875 122.296Z" fill="#DFE8FF"/>
<path d="M139.693 40.7479C141.814 39.0451 143.952 37.362 146.058 35.6395C146.902 34.962 147.686 34.8178 148.581 35.2318C153.374 37.3708 158.166 39.5098 162.981 41.6304C163.752 41.9827 164.162 42.4944 164.34 43.3227C165.359 48.4251 166.394 53.5472 167.468 58.6707C167.671 59.6721 167.354 60.4446 166.441 61.177C162.228 64.5264 158.03 67.8954 153.825 71.3024C152.958 71.9982 152.135 72.1411 151.218 71.7453C146.371 69.5853 141.524 67.4253 136.67 65.3032C136.024 65.0127 135.661 64.5601 135.517 63.8668C134.466 58.725 133.438 53.5649 132.364 48.4414C132.152 47.3824 132.422 46.5508 133.419 45.7832C135.557 44.1 137.617 42.4141 139.693 40.7479ZM159.166 43.9806C158.987 43.8978 158.863 43.836 158.754 43.7939C155.09 42.1729 151.426 40.5519 147.769 38.8928C147.481 38.7679 147.335 38.8201 147.084 39.0215C143.982 41.5117 140.856 44.0201 137.754 46.5103C137.639 46.6018 137.525 46.6934 137.427 46.8046C137.567 46.886 137.676 46.9281 137.801 46.9899C141.426 48.6096 145.075 50.2109 148.716 51.8503C149.019 51.9949 149.235 51.9834 149.555 51.727C152.596 49.2538 155.692 46.8017 158.749 44.3482C158.847 44.2369 158.984 44.1271 159.166 43.9806ZM149.953 67.1312C149.951 67.0356 149.935 67.0159 149.942 66.9779C149.163 63.2032 148.384 59.4284 147.605 55.6537C147.579 55.4807 147.414 55.3219 147.25 55.2587C143.827 53.7036 140.396 52.1864 136.95 50.6495C136.841 50.6075 136.748 50.585 136.623 50.5233C136.665 50.7159 136.683 50.8313 136.693 50.9846C137.408 54.585 138.16 58.1867 138.874 61.7871C138.95 62.1148 139.069 62.3102 139.396 62.4365C142.919 63.9761 146.397 65.5523 149.953 67.1312Z" fill="#DFE8FF"/>
</svg>
