<svg width="255" height="272" viewBox="0 0 255 272" fill="none" xmlns="http://www.w3.org/2000/svg">
<path d="M254.994 104.656C254.994 120.501 254.847 136.346 254.994 152.191C254.994 158.495 252.78 162.584 247.612 165.14C220.298 179.111 192.983 193.082 165.669 207.224C161.239 209.439 157.401 209.439 152.971 207.224C125.952 193.253 98.7852 179.282 71.4707 165.481C66.1555 162.755 63.7932 158.495 63.7932 151.68C63.9408 120.33 63.9408 88.9806 63.7932 57.4604C63.7932 50.986 66.1555 46.7265 71.3231 44.0005C98.9329 29.859 126.543 15.7175 154.005 1.40563C157.696 -0.468543 161.092 -0.468543 164.783 1.40563C192.097 15.3767 219.412 29.5182 246.726 43.3189C252.337 46.2154 255.142 50.4749 254.994 57.8012C254.847 73.6465 254.994 89.151 254.994 104.656ZM168.917 181.326C169.95 180.815 170.689 180.474 171.279 180.134C192.097 169.4 212.915 158.666 233.881 148.102C235.505 147.25 235.801 146.398 235.801 144.524C235.801 121.353 235.801 98.0107 235.801 74.8391C235.801 73.9872 235.801 73.1353 235.653 72.2834C234.767 72.6242 234.176 72.965 233.438 73.3057C212.768 83.8692 192.097 94.6031 171.279 105.167C169.508 106.019 168.769 107.041 168.769 109.426C168.917 132.257 168.769 155.258 168.769 178.089C168.917 178.941 168.917 179.963 168.917 181.326ZM97.0135 55.0751C97.4564 55.4159 97.604 55.4159 97.7517 55.5863C117.832 65.809 137.911 76.0318 157.991 86.2545C158.877 86.7657 160.206 86.5953 161.092 86.0842C180.729 76.2022 200.218 66.1498 219.855 56.0974C220.445 55.7566 220.888 55.4159 221.627 55.0751C220.593 54.564 220.002 54.2232 219.264 53.7121C200.218 43.8301 181.024 34.1185 161.978 24.2365C160.206 23.3846 158.877 23.2142 157.105 24.2365C137.173 34.6296 117.241 44.682 97.0135 55.0751Z" fill="#E8EEFF"/>
<path d="M110.05 190.778C114.452 198.73 118.78 206.722 123.255 214.632C125.007 217.796 125.035 220.459 123.162 223.169C113.386 237.725 103.611 252.281 93.8833 266.922C92.2841 269.257 90.3648 270.318 87.535 270.43C70.1454 270.882 52.6819 271.376 35.192 271.995C31.7773 272.095 29.413 270.611 27.5198 267.191C18.885 251.418 10.1763 235.687 1.34651 219.91C-0.452014 216.661 -0.454173 213.871 1.37216 211.076C11.2477 196.353 21.1232 181.63 30.8776 166.863C32.2024 164.903 33.9002 163.965 36.2662 163.886C53.8035 163.351 71.3881 162.903 88.878 162.283C92.4877 162.187 95.0735 163.549 97.0348 167.266C101.363 175.258 105.743 182.998 110.05 190.778ZM88.3132 253.029C88.6879 252.487 88.9624 252.112 89.163 251.778C96.5895 240.641 104.016 229.504 111.564 218.412C112.139 217.536 112.05 217.027 111.529 216.087C105.092 204.459 98.6083 192.746 92.1715 181.118C91.9349 180.691 91.6982 180.263 91.3878 179.876C91.0395 180.292 90.8389 180.626 90.5645 181.001C83.1645 192.012 75.8118 203.108 68.3379 214.159C67.6888 215.076 67.6037 215.793 68.2663 216.99C74.6823 228.406 80.998 239.989 87.3401 251.446C87.6506 251.832 87.9346 252.345 88.3132 253.029ZM17.2928 209.537C17.6089 209.586 17.6828 209.545 17.8039 209.59C30.6829 209.173 43.5618 208.756 56.4408 208.339C57.0257 208.351 57.6427 207.899 57.9436 207.398C65.0162 197.014 71.9677 186.587 78.993 176.118C79.1936 175.784 79.3204 175.49 79.5948 175.116C78.9361 175.145 78.5462 175.137 78.0351 175.084C65.7675 175.386 53.4734 175.815 41.2059 176.117C40.0834 176.179 39.3717 176.461 38.7699 177.463C31.6916 188.184 24.5187 198.734 17.2928 209.537Z" fill="#E8EEFF"/>
</svg>
