<svg width="36" height="32" viewBox="0 0 36 32" fill="none" xmlns="http://www.w3.org/2000/svg">
<mask id="path-1-inside-1" fill="white">
<path d="M35.0933 22.9333C34.9867 21.3333 34.56 19.9467 33.6 18.88C32.8533 17.92 31.8933 17.1733 30.6133 16.5333C30.08 16.2133 29.44 16 28.8 15.7867L28.3733 15.5733C27.4133 15.1467 27.0933 14.6133 26.9867 13.5467V13.12C26.9867 12.8 26.9867 12.48 26.9867 12.2667C26.9867 11.9467 27.0933 11.7333 27.3067 11.52C27.9467 10.88 28.3733 10.24 28.5867 9.38667C29.0133 7.78667 28.9067 6.18667 28.8 4.8C28.6933 3.2 28.0533 1.92 26.88 1.06667C25.92 0.32 24.8533 0 23.5733 0C23.2533 0 23.04 0 22.72 0.106667C20.3733 0.426667 18.4533 2.56 18.24 4.90667C18.1333 5.97333 18.1333 7.04 18.24 8C18.24 9.06667 18.56 10.0267 19.2 10.88C19.3067 10.9867 19.4133 11.0933 19.52 11.2C19.7333 11.4133 19.9467 11.6267 20.0533 12.0533C20.0533 12.3733 20.0533 12.6933 20.0533 13.0133C20.0533 13.12 20.0533 13.2267 20.0533 13.3333C20.0533 14.5067 19.6267 15.04 18.56 15.4667L18.4533 15.5733C17.8133 15.8933 17.1733 16.1067 16.5333 16.4267C16.5333 16.32 16.64 16.1067 16.64 16C17.0667 14.4 16.96 12.8 16.8533 11.4133C16.64 9.92 16 8.74667 14.8267 7.78667C13.8667 7.04 12.8 6.72 11.52 6.72C11.2 6.72 10.9867 6.72 10.6667 6.82667C8.32 7.14667 6.4 9.28 6.18667 11.6267C6.08 12.6933 6.08 13.76 6.18667 14.72C6.18667 15.7867 6.50667 16.7467 7.14667 17.6C7.25333 17.7067 7.36 17.8133 7.46667 17.92C7.68 18.1333 7.89333 18.3467 8 18.7733C8 19.0933 8 19.4133 8 19.7333C8 19.84 8 20.0533 8 20.16C8 21.3333 7.57333 21.8667 6.50667 22.2933L6.4 22.4C5.76 22.72 5.01333 22.9333 4.26667 23.36C1.81333 24.64 0.426667 26.4533 0 29.0133C0 29.44 0 29.8667 0 30.4C0.106667 31.36 0.746667 32 1.81333 32C3.2 32 4.58667 32 5.86667 32C6.29333 32 6.82667 32 7.25333 32H21.2267C21.3333 32 21.44 32 21.5467 32C22.08 31.8933 22.5067 31.68 22.8267 31.1467C23.04 30.72 23.04 30.1867 23.04 29.6533C22.9333 28.0533 22.5067 26.6667 21.5467 25.6C21.44 25.4933 21.3333 25.3867 21.2267 25.1733H33.28C33.3867 25.1733 33.4933 25.1733 33.7067 25.1733C34.24 25.0667 34.6667 24.8533 34.9867 24.32C35.2 24 35.2 23.4667 35.0933 22.9333ZM20.3733 4.58667C20.6933 2.98667 22.08 1.92 23.68 1.92C25.3867 1.92 26.7733 3.2 26.88 4.8C26.9867 5.86667 26.9867 7.04 26.88 8.21333C26.7733 9.81333 25.28 11.0933 23.68 11.0933C22.08 11.0933 20.5867 9.92 20.3733 8.32C20.2667 8 20.2667 6.18667 20.2667 5.97333C20.2667 5.44 20.2667 5.01333 20.3733 4.58667ZM8.32 11.3067C8.64 9.70667 10.0267 8.64 11.6267 8.64C13.3333 8.64 14.72 9.92 14.8267 11.52C14.9333 12.5867 14.9333 13.76 14.8267 14.9333C14.72 16.5333 13.2267 17.8133 11.6267 17.8133C10.0267 17.8133 8.53333 16.64 8.32 15.04C8.21333 14.6133 8.21333 12.8 8.21333 12.5867C8.21333 12.2667 8.21333 11.84 8.32 11.3067ZM21.0133 29.8667C21.0133 29.8667 20.9067 29.9733 20.8 29.9733H2.24C2.13333 29.9733 2.13333 29.9733 2.02667 29.8667C2.02667 29.8667 1.92 29.76 1.92 29.6533C2.02667 28.2667 2.56 27.0933 3.41333 26.24C4.48 25.28 5.65333 24.64 6.93333 24.1067C7.46667 24 8 23.7867 8.53333 23.4667C9.49333 22.72 10.0267 21.76 10.0267 20.3733V20.0533C10.0267 19.9467 10.1333 19.84 10.24 19.84H12.9067C12.9067 19.84 12.9067 19.84 13.0133 19.84C13.0133 19.84 13.12 19.84 13.12 19.9467C13.12 19.9467 13.2267 20.0533 13.2267 20.16V20.2667C13.2267 21.2267 13.44 21.9733 13.9733 22.6133L14.1867 22.8267C14.1867 22.9333 14.1867 22.9333 14.2933 23.04C14.2933 23.04 14.4 23.1467 14.5067 23.1467L14.72 23.36C15.04 23.5733 15.4667 23.7867 15.8933 24C16.4267 24.2133 17.0667 24.5333 17.8133 24.8533C17.92 24.8533 18.0267 24.96 18.0267 24.96C18.1333 24.96 18.24 25.0667 18.24 25.0667C18.56 25.28 18.88 25.4933 19.2 25.7067C20.3733 26.6667 21.0133 27.9467 21.12 29.5467C21.12 29.76 21.12 29.8667 21.0133 29.8667ZM33.0667 23.1467C33.0667 23.1467 32.96 23.2533 32.8533 23.2533H18.6667C18.1333 22.9333 17.4933 22.72 16.8533 22.5067L16.4267 22.2933C15.4667 21.8667 15.1467 21.3333 15.04 20.2667V20.16C15.1467 19.9467 15.36 19.7333 15.4667 19.6267C16.5333 18.6667 17.7067 18.0267 18.9867 17.4933C19.52 17.28 20.0533 17.0667 20.5867 16.64C21.5467 15.8933 22.08 14.9333 22.08 13.5467V13.2267C22.08 13.12 22.1867 13.0133 22.2933 13.0133H24.96C25.0667 13.0133 25.1733 13.12 25.1733 13.2267V13.44C25.1733 15.2533 26.1333 16.64 27.84 17.28C28.8 17.6 30.08 18.1333 31.1467 19.0933C32.32 20.0533 32.96 21.3333 33.0667 22.9333C33.1733 23.04 33.1733 23.1467 33.0667 23.1467Z"/>
</mask>
<path d="M35.0933 22.9333C34.9867 21.3333 34.56 19.9467 33.6 18.88C32.8533 17.92 31.8933 17.1733 30.6133 16.5333C30.08 16.2133 29.44 16 28.8 15.7867L28.3733 15.5733C27.4133 15.1467 27.0933 14.6133 26.9867 13.5467V13.12C26.9867 12.8 26.9867 12.48 26.9867 12.2667C26.9867 11.9467 27.0933 11.7333 27.3067 11.52C27.9467 10.88 28.3733 10.24 28.5867 9.38667C29.0133 7.78667 28.9067 6.18667 28.8 4.8C28.6933 3.2 28.0533 1.92 26.88 1.06667C25.92 0.32 24.8533 0 23.5733 0C23.2533 0 23.04 0 22.72 0.106667C20.3733 0.426667 18.4533 2.56 18.24 4.90667C18.1333 5.97333 18.1333 7.04 18.24 8C18.24 9.06667 18.56 10.0267 19.2 10.88C19.3067 10.9867 19.4133 11.0933 19.52 11.2C19.7333 11.4133 19.9467 11.6267 20.0533 12.0533C20.0533 12.3733 20.0533 12.6933 20.0533 13.0133C20.0533 13.12 20.0533 13.2267 20.0533 13.3333C20.0533 14.5067 19.6267 15.04 18.56 15.4667L18.4533 15.5733C17.8133 15.8933 17.1733 16.1067 16.5333 16.4267C16.5333 16.32 16.64 16.1067 16.64 16C17.0667 14.4 16.96 12.8 16.8533 11.4133C16.64 9.92 16 8.74667 14.8267 7.78667C13.8667 7.04 12.8 6.72 11.52 6.72C11.2 6.72 10.9867 6.72 10.6667 6.82667C8.32 7.14667 6.4 9.28 6.18667 11.6267C6.08 12.6933 6.08 13.76 6.18667 14.72C6.18667 15.7867 6.50667 16.7467 7.14667 17.6C7.25333 17.7067 7.36 17.8133 7.46667 17.92C7.68 18.1333 7.89333 18.3467 8 18.7733C8 19.0933 8 19.4133 8 19.7333C8 19.84 8 20.0533 8 20.16C8 21.3333 7.57333 21.8667 6.50667 22.2933L6.4 22.4C5.76 22.72 5.01333 22.9333 4.26667 23.36C1.81333 24.64 0.426667 26.4533 0 29.0133C0 29.44 0 29.8667 0 30.4C0.106667 31.36 0.746667 32 1.81333 32C3.2 32 4.58667 32 5.86667 32C6.29333 32 6.82667 32 7.25333 32H21.2267C21.3333 32 21.44 32 21.5467 32C22.08 31.8933 22.5067 31.68 22.8267 31.1467C23.04 30.72 23.04 30.1867 23.04 29.6533C22.9333 28.0533 22.5067 26.6667 21.5467 25.6C21.44 25.4933 21.3333 25.3867 21.2267 25.1733H33.28C33.3867 25.1733 33.4933 25.1733 33.7067 25.1733C34.24 25.0667 34.6667 24.8533 34.9867 24.32C35.2 24 35.2 23.4667 35.0933 22.9333ZM20.3733 4.58667C20.6933 2.98667 22.08 1.92 23.68 1.92C25.3867 1.92 26.7733 3.2 26.88 4.8C26.9867 5.86667 26.9867 7.04 26.88 8.21333C26.7733 9.81333 25.28 11.0933 23.68 11.0933C22.08 11.0933 20.5867 9.92 20.3733 8.32C20.2667 8 20.2667 6.18667 20.2667 5.97333C20.2667 5.44 20.2667 5.01333 20.3733 4.58667ZM8.32 11.3067C8.64 9.70667 10.0267 8.64 11.6267 8.64C13.3333 8.64 14.72 9.92 14.8267 11.52C14.9333 12.5867 14.9333 13.76 14.8267 14.9333C14.72 16.5333 13.2267 17.8133 11.6267 17.8133C10.0267 17.8133 8.53333 16.64 8.32 15.04C8.21333 14.6133 8.21333 12.8 8.21333 12.5867C8.21333 12.2667 8.21333 11.84 8.32 11.3067ZM21.0133 29.8667C21.0133 29.8667 20.9067 29.9733 20.8 29.9733H2.24C2.13333 29.9733 2.13333 29.9733 2.02667 29.8667C2.02667 29.8667 1.92 29.76 1.92 29.6533C2.02667 28.2667 2.56 27.0933 3.41333 26.24C4.48 25.28 5.65333 24.64 6.93333 24.1067C7.46667 24 8 23.7867 8.53333 23.4667C9.49333 22.72 10.0267 21.76 10.0267 20.3733V20.0533C10.0267 19.9467 10.1333 19.84 10.24 19.84H12.9067C12.9067 19.84 12.9067 19.84 13.0133 19.84C13.0133 19.84 13.12 19.84 13.12 19.9467C13.12 19.9467 13.2267 20.0533 13.2267 20.16V20.2667C13.2267 21.2267 13.44 21.9733 13.9733 22.6133L14.1867 22.8267C14.1867 22.9333 14.1867 22.9333 14.2933 23.04C14.2933 23.04 14.4 23.1467 14.5067 23.1467L14.72 23.36C15.04 23.5733 15.4667 23.7867 15.8933 24C16.4267 24.2133 17.0667 24.5333 17.8133 24.8533C17.92 24.8533 18.0267 24.96 18.0267 24.96C18.1333 24.96 18.24 25.0667 18.24 25.0667C18.56 25.28 18.88 25.4933 19.2 25.7067C20.3733 26.6667 21.0133 27.9467 21.12 29.5467C21.12 29.76 21.12 29.8667 21.0133 29.8667ZM33.0667 23.1467C33.0667 23.1467 32.96 23.2533 32.8533 23.2533H18.6667C18.1333 22.9333 17.4933 22.72 16.8533 22.5067L16.4267 22.2933C15.4667 21.8667 15.1467 21.3333 15.04 20.2667V20.16C15.1467 19.9467 15.36 19.7333 15.4667 19.6267C16.5333 18.6667 17.7067 18.0267 18.9867 17.4933C19.52 17.28 20.0533 17.0667 20.5867 16.64C21.5467 15.8933 22.08 14.9333 22.08 13.5467V13.2267C22.08 13.12 22.1867 13.0133 22.2933 13.0133H24.96C25.0667 13.0133 25.1733 13.12 25.1733 13.2267V13.44C25.1733 15.2533 26.1333 16.64 27.84 17.28C28.8 17.6 30.08 18.1333 31.1467 19.0933C32.32 20.0533 32.96 21.3333 33.0667 22.9333C33.1733 23.04 33.1733 23.1467 33.0667 23.1467Z" fill="url(#paint0_linear)" stroke="white" stroke-width="0.4" mask="url(#path-1-inside-1)"/>
<defs>
<linearGradient id="paint0_linear" x1="35.1465" y1="16" x2="0" y2="16" gradientUnits="userSpaceOnUse">
<stop stop-color="#2153DA"/>
<stop offset="1" stop-color="#072C8D"/>
</linearGradient>
</defs>
</svg>
