<svg width="37" height="32" viewBox="0 0 37 32" fill="none" xmlns="http://www.w3.org/2000/svg">
<path d="M32.9 22.4595C32.9 22.8595 33 23.2595 33 23.6595C33 25.5595 33 27.3595 33 29.2595C33 30.6595 31.7 31.7595 30.3 31.8595C30.2 31.8595 30.1 31.8595 30 31.8595C21 31.8595 12 31.8595 3.1 31.8595C2 31.8595 1.1 31.3595 0.5 30.4595C0.1 29.9595 0 29.3595 0 28.7595C0 23.9595 0 19.0595 0 14.2595C0 11.5595 0 8.85946 0 6.25946C0 4.75946 0.8 3.65946 2.2 3.25946C2.5 3.15946 2.9 3.15946 3.3 3.15946C7.7 3.15946 12 3.15946 16.4 3.15946C16.6 3.15946 16.8 3.15946 17 3.05946C19.1 2.05946 21.1 1.15946 23.2 0.159457C23.9 -0.140543 24.3 -0.0405427 24.7 0.659457C25 1.35946 25.4 2.05946 25.8 2.85946C25.9 3.05946 26 3.15946 26.2 3.15946C27.5 3.15946 28.7 3.15946 30 3.15946C31.8 2.95946 33 4.55946 33 5.95946C33 7.85946 33 9.85946 33 11.7595C33 12.0595 32.9 12.2595 32.9 12.5595C33.1 12.5595 33.4 12.5595 33.6 12.5595C34.9 12.6595 36.1 13.5595 36.4 14.7595C36.4 14.8595 36.4 15.0595 36.4 15.1595C36.4 16.5595 36.4 18.0595 36.4 19.4595C36.5 20.7595 35.3 22.2595 33.7 22.3595C33.5 22.4595 33.2 22.4595 32.9 22.4595ZM12.8 4.95946C12.7 4.85946 12.6 4.85946 12.6 4.85946C9.4 4.85946 6.3 4.85946 3.2 4.85946C2.3 4.85946 1.8 5.35946 1.8 6.25946C1.8 13.7595 1.8 21.2595 1.8 28.7595C1.8 29.6595 2.3 30.1595 3.2 30.1595C12.1 30.1595 21 30.1595 29.8 30.1595C30.7 30.1595 31.2 29.6595 31.2 28.7595C31.2 27.1595 31.2 25.5595 31.2 24.0595C31.2 22.9595 30.8 22.5595 29.7 22.5595C28.5 22.5595 27.3 22.5595 26.1 22.5595C24.7 22.4595 23.6 21.4595 23.5 20.0595C23.4 18.4595 23.4 16.8595 23.5 15.1595C23.5 13.9595 24.2 13.2595 25.4 12.9595C25.8 12.8595 26.2 12.7595 26.5 12.7595C27.6 12.6595 28.8 12.6595 29.9 12.6595C30.9 12.6595 31.3 12.2595 31.3 11.2595C31.3 10.4595 31.3 9.65946 31.3 8.85946C31.3 8.75946 31.3 8.65946 31.3 8.55946C31.1 8.55946 31 8.55946 30.8 8.55946C22.2 8.55946 13.5 8.55946 4.9 8.55946C4.7 8.55946 4.6 8.55946 4.4 8.55946C4 8.25946 3.6 7.95946 3.6 7.55946C3.6 7.15946 3.8 6.75946 4.3 6.55946C4.5 6.45946 4.7 6.45946 4.9 6.45946C6.3 6.45946 7.7 6.45946 9.1 6.45946C9.4 6.45946 9.7 6.35946 10 6.25946C10.9 5.85946 11.8 5.45946 12.8 4.95946ZM30 20.6595C31.1 20.6595 32.2 20.6595 33.3 20.6595C34.2 20.6595 34.7 20.1595 34.7 19.2595C34.7 18.0595 34.7 16.8595 34.7 15.6595C34.7 14.7595 34.3 14.3595 33.4 14.3595C32.8 14.3595 32.1 14.3595 31.5 14.3595C29.9 14.3595 28.3 14.3595 26.6 14.3595C25.8 14.3595 25.4 14.6595 25.4 15.4595C25.4 16.8595 25.4 18.1595 25.4 19.5595C25.4 20.3595 25.8 20.6595 26.6 20.6595C27.7 20.6595 28.8 20.6595 30 20.6595ZM25.6 6.45946C24.8 4.95946 24.1 3.45946 23.3 1.95946C20.1 3.45946 17 4.95946 13.8 6.45946C13.8 6.45946 13.8 6.45946 13.8 6.55946C17.7 6.45946 21.6 6.45946 25.6 6.45946ZM26.8 4.95946C27 5.35946 27.3 5.85946 27.5 6.25946C27.6 6.45946 27.7 6.55946 27.9 6.55946C28.9 6.55946 29.9 6.55946 31 6.55946C31.1 6.55946 31.2 6.55946 31.3 6.55946C31.4 5.65946 31 5.05946 30.2 4.95946C29.1 4.85946 27.9 4.95946 26.8 4.95946ZM27.2 17.5595C27.2 18.3595 27.8 18.9595 28.6 18.9595C29.4 18.9595 30 18.3595 30 17.5595C30 16.7595 29.4 16.1595 28.6 16.1595C27.8 16.1595 27.2 16.7595 27.2 17.5595Z" fill="url(#paint0_linear)"/>
<defs>
<linearGradient id="paint0_linear" x1="36.4233" y1="15.8595" x2="0" y2="15.8595" gradientUnits="userSpaceOnUse">
<stop stop-color="#2153DA"/>
<stop offset="1" stop-color="#072C8D"/>
</linearGradient>
</defs>
</svg>
