<svg width="34" height="32" viewBox="0 0 34 32" fill="none" xmlns="http://www.w3.org/2000/svg">
<path d="M0.344421 26.1003C0.918457 24.3602 2.75536 23.0552 4.82188 23.0552C6.42918 23.0552 8.15128 23.0552 9.75857 23.0552C10.7918 23.0552 11.8251 23.0552 12.8583 23.0552C13.2028 23.0552 13.4324 23.0552 13.662 22.9465C15.2693 22.6202 16.4174 21.3152 16.4174 19.7927C16.3025 18.1614 15.0397 16.9652 13.4324 16.7477C12.9732 16.7477 12.5139 16.7477 12.0547 16.7477C11.5955 16.7477 11.3659 16.5302 11.3659 16.0952C11.3659 15.6602 11.5955 15.4426 11.9399 15.4426C12.9732 15.3339 13.7768 15.4426 14.5805 15.6602C16.8766 16.4214 18.1395 18.4877 17.795 20.6627C17.4506 22.729 15.6137 24.3602 13.4324 24.3602C11.9399 24.3602 10.3326 24.3602 8.84012 24.3602C8.15128 24.3602 7.34763 24.3602 6.65879 24.3602H6.08476C5.62553 24.3602 5.1663 24.3602 4.70708 24.3602C3.78862 24.469 2.87017 24.904 2.29613 25.5565C1.7221 26.3178 1.49249 27.1878 1.7221 28.0578C2.06652 29.5803 3.4442 30.559 5.1663 30.559H21.2392C21.6985 30.559 21.9281 30.8853 21.9281 31.3203C21.9281 31.5378 21.6985 31.9728 21.2392 31.9728C19.1727 31.9728 17.221 31.9728 15.1545 31.9728H4.59227C4.47746 31.9728 4.24785 31.9728 4.13304 31.9728C2.75536 31.7553 1.6073 30.9941 0.918457 29.9065C0.114807 28.819 -0.114803 27.514 0.344421 26.1003Z" fill="url(#paint0_linear)"/>
<path d="M22.1577 17.9439C23.4206 16.6389 25.3723 15.7689 27.324 15.7689H27.5536C27.7832 15.7689 28.0128 15.7689 28.3573 15.8777C31.3422 16.3127 33.868 18.9227 33.9828 21.859C34.0976 23.3815 33.6384 24.904 32.6051 26.5353C31.457 28.384 29.8497 30.124 27.7832 31.7553C27.4388 32.0816 26.9796 32.0816 26.6352 31.7553C24.9131 30.3415 23.4206 28.9278 22.2725 27.2965C21.1244 25.6653 20.5504 24.2515 20.4356 22.729C20.206 20.989 20.8948 19.3577 22.1577 17.9439ZM22.0429 23.9252C22.5021 25.4477 23.4206 26.8615 24.7982 28.2753C25.2575 28.819 25.7167 29.254 26.2907 29.689C26.5203 29.9065 26.75 30.124 26.9796 30.3415L27.0944 30.559L27.324 30.3415C29.1609 28.7103 30.9978 26.9703 32.0311 24.469C32.7199 22.8377 32.7199 21.3152 31.9163 19.9014C30.883 17.9439 28.7017 16.8564 26.4055 17.1827C24.7982 17.4002 23.4206 18.2702 22.6169 19.4664C21.8133 20.8802 21.5837 22.4027 22.0429 23.9252Z" fill="url(#paint1_linear)"/>
<path d="M7.46244 15.9864C7.11802 16.3127 6.7736 16.3127 6.31437 15.9864C4.13304 14.2464 2.52575 12.5064 1.37768 10.6576C0.459229 9.13509 0 7.72133 0 6.41631V5.65506C0.344421 3.58878 1.37768 1.95752 3.09978 0.97876C4.24785 0.326253 5.51072 0 6.7736 0C8.72531 0 10.5622 0.761257 11.9399 2.28377C12.9732 3.37128 13.4324 4.6763 13.5472 6.19881C13.7768 7.61257 13.3176 9.13509 12.3991 10.7664C11.1363 12.6151 9.64376 14.3551 7.46244 15.9864ZM11.2511 3.58878C10.4474 2.50127 9.18454 1.74002 7.80686 1.52251C4.93669 1.08751 2.29613 2.61003 1.60729 5.3288C1.37768 6.41631 1.49249 7.50382 1.95171 8.70008C2.52575 10.0051 3.4442 11.3101 4.70708 12.6151C5.1663 13.0501 5.62553 13.4851 5.96995 13.9201L6.7736 14.6814L7.00321 14.4639C8.38089 13.2676 9.52896 12.1801 10.3326 10.9839C11.3659 9.7876 11.9399 8.59133 12.1695 7.39507C12.3991 6.09006 12.1695 4.6763 11.2511 3.58878Z" fill="url(#paint2_linear)"/>
<path d="M27.2092 19.6839C28.0128 19.6839 28.7017 20.0102 29.1609 20.4452C29.6201 20.8802 29.9645 21.5327 29.9645 22.294C29.9645 23.0552 29.6201 23.7077 29.1609 24.1427C28.5869 24.5777 27.898 24.904 27.0944 24.904C25.6019 24.7952 24.4538 23.599 24.4538 22.1852C24.4538 20.8802 25.7167 19.6839 27.2092 19.6839ZM27.2092 23.4902C27.5536 23.4902 27.898 23.3815 28.1276 23.164C28.3573 22.9465 28.4721 22.6202 28.4721 22.294C28.4721 21.9677 28.3573 21.6415 28.1276 21.424C27.898 21.2065 27.5536 21.0977 27.2092 21.0977C26.5203 21.0977 25.9463 21.6415 25.9463 22.4027C25.9463 23.0552 26.5203 23.4902 27.2092 23.4902Z" fill="url(#paint3_linear)"/>
<path d="M6.8884 9.02634C6.19956 9.02634 5.51073 8.70008 4.93669 8.26508C4.47746 7.83008 4.13304 7.17757 4.13304 6.41631C4.13304 5.76381 4.47746 5.1113 4.93669 4.56754C5.51073 4.13254 6.08476 3.80629 6.8884 3.80629C8.38089 3.80629 9.64376 5.00255 9.64376 6.41631C9.64376 7.93883 8.38089 9.02634 6.8884 9.02634ZM6.8884 5.22005C6.54398 5.22005 6.19956 5.3288 5.96995 5.65506C5.74034 5.87256 5.62553 6.19881 5.62553 6.52506C5.62553 7.17757 6.19956 7.72132 6.8884 7.72132C6.8884 7.72132 6.8884 7.72132 7.00321 7.72132C7.69205 7.72132 8.26608 7.17757 8.26608 6.41631C8.15128 5.76381 7.57724 5.22005 6.8884 5.22005Z" fill="url(#paint4_linear)"/>
<defs>
<linearGradient id="paint0_linear" x1="0.000400513" y1="24" x2="33.9818" y2="24.5227" gradientUnits="userSpaceOnUse">
<stop stop-color="#072C8D"/>
<stop offset="1" stop-color="#2153DA"/>
</linearGradient>
<linearGradient id="paint1_linear" x1="0.000400513" y1="24" x2="33.9818" y2="24.5227" gradientUnits="userSpaceOnUse">
<stop stop-color="#072C8D"/>
<stop offset="1" stop-color="#2153DA"/>
</linearGradient>
<linearGradient id="paint2_linear" x1="0.000400513" y1="24" x2="33.9818" y2="24.5227" gradientUnits="userSpaceOnUse">
<stop stop-color="#072C8D"/>
<stop offset="1" stop-color="#2153DA"/>
</linearGradient>
<linearGradient id="paint3_linear" x1="0.000400513" y1="24" x2="33.9818" y2="24.5227" gradientUnits="userSpaceOnUse">
<stop stop-color="#072C8D"/>
<stop offset="1" stop-color="#2153DA"/>
</linearGradient>
<linearGradient id="paint4_linear" x1="0.000400513" y1="24" x2="33.9818" y2="24.5227" gradientUnits="userSpaceOnUse">
<stop stop-color="#072C8D"/>
<stop offset="1" stop-color="#2153DA"/>
</linearGradient>
</defs>
</svg>
