<svg width="32" height="32" viewBox="0 0 32 32" fill="none" xmlns="http://www.w3.org/2000/svg">
<path d="M31.7725 14.2107C32.3517 19.5061 30.6141 24.0569 26.7253 27.7802C23.6639 30.5934 20.0233 32 15.3898 32H15.307C9.76341 31.7518 5.37815 29.1041 2.31674 24.3051C0.99289 22.2366 0.248222 19.9198 0.0827408 17.3549C0.0827408 16.9412 0 16.5275 0 16.1138C0 15.6173 0.330963 15.2036 0.827408 15.2036C1.32385 15.2036 1.65482 15.5346 1.65482 16.1138C1.65482 18.265 2.06852 20.1681 2.89593 21.9056C4.71623 25.8772 7.69489 28.5249 11.7492 29.6833C16.7136 31.1726 21.2644 30.1797 25.2359 26.7873C28.1319 24.3051 29.7867 20.83 30.0349 17.0239C30.2831 13.1351 28.9593 9.49451 26.3943 6.59858C23.8293 3.53717 20.437 1.88235 16.3827 1.71687C16.2172 1.71687 16.0517 1.71687 15.8862 1.71687C15.4725 1.71687 15.1416 1.30317 15.1416 0.889464C15.1416 0.47576 15.3898 0.0620556 15.7208 0.0620556C16.2172 -0.0206852 16.7964 -0.0206852 17.541 0.0620556C20.2715 0.310278 22.671 1.22043 24.8222 2.62702C28.8765 5.52295 31.1933 9.41177 31.7725 14.2107ZM6.20556 16.8584C9.34971 16.8584 12.5766 16.8584 15.7208 16.8584C16.4654 16.8584 16.7964 16.5275 16.7964 15.7828C16.7964 14.5417 16.7964 13.2178 16.7964 11.9767V8.58436C16.7964 7.75695 16.7964 7.01228 16.7964 6.18487C16.7964 5.77117 16.6309 5.44021 16.2999 5.27473C16.0517 5.10924 15.7208 5.10924 15.4725 5.27473C15.2243 5.44021 15.0588 5.77117 15.0588 6.10213C15.0588 8.00517 15.0588 9.82547 15.0588 11.7285V14.459C15.0588 14.7899 14.8106 15.1209 14.3969 15.1209H9.26697C8.19134 15.1209 7.11571 15.1209 6.04008 15.1209C5.70912 15.1209 5.46089 15.2036 5.29541 15.4518C5.12993 15.6173 5.04719 15.8655 5.12993 16.1138C5.21267 16.5275 5.62637 16.8584 6.20556 16.8584ZM2.89593 9.24628C3.39237 9.24628 3.72334 8.83258 3.72334 8.41888C3.72334 7.92243 3.39237 7.59147 2.89593 7.59147C2.64771 7.59147 2.48222 7.67421 2.31674 7.83969C2.15126 8.00517 2.06852 8.25339 2.06852 8.50162C2.06852 8.74984 2.15126 8.91532 2.31674 9.0808C2.48222 9.16354 2.64771 9.24628 2.89593 9.24628ZM8.35682 3.78539C8.85327 3.78539 9.18423 3.45443 9.18423 2.95798C9.18423 2.70976 9.10149 2.54428 8.93601 2.3788C8.77052 2.21332 8.60504 2.13058 8.35682 2.13058C7.86038 2.13058 7.44667 2.46154 7.44667 2.95798C7.52941 3.37169 7.86038 3.78539 8.35682 3.78539Z" fill="url(#paint0_linear)"/>
<defs>
<linearGradient id="paint0_linear" x1="31.8544" y1="15.9901" x2="0" y2="15.9901" gradientUnits="userSpaceOnUse">
<stop stop-color="#2153DA"/>
<stop offset="1" stop-color="#072C8D"/>
</linearGradient>
</defs>
</svg>
