<svg width="33" height="32" viewBox="0 0 33 32" fill="none" xmlns="http://www.w3.org/2000/svg">
<path d="M0 22.7181C0 21.1163 0 19.5145 0 17.9127C0 17.4321 0.16018 17.1118 0.64072 16.9516C2.96333 15.9104 5.20585 14.8693 7.44837 13.8281C7.76873 13.6679 7.84882 13.5077 7.84882 13.1874C7.84882 10.3041 7.84882 7.42089 7.84882 4.61774C7.84882 4.05711 8.009 3.73675 8.56963 3.49648C10.9723 2.37522 13.375 1.25396 15.7777 0.132698C16.1782 -0.0274826 16.4985 -0.0274826 16.8189 0.0526075C19.2216 1.17387 21.6243 2.29513 24.027 3.41639C24.5076 3.65666 24.7478 3.97702 24.7478 4.53765C24.7478 7.42089 24.7478 10.3041 24.7478 13.1073C24.7478 13.5077 24.8279 13.6679 25.1483 13.8281C27.3908 14.8693 29.6333 15.9104 31.9559 16.9516C32.4365 17.1919 32.6767 17.5122 32.6767 17.9928C32.6767 21.1163 32.6767 24.3199 32.6767 27.4434C32.6767 28.004 32.5166 28.3244 31.9559 28.4846C29.5532 29.6058 27.0704 30.7271 24.6677 31.8484C24.2673 32.0085 23.9469 32.0085 23.6266 31.8484C21.304 30.7271 18.9813 29.6859 16.6587 28.6448C16.4185 28.5647 16.2583 28.5647 16.0981 28.6448C13.7755 29.6859 11.4529 30.8072 9.13027 31.8484C8.72981 32.0085 8.40945 32.0886 7.92891 31.8484C5.52621 30.7271 3.12351 29.6058 0.64072 28.4846C0.16018 28.2443 0 28.004 0 27.4434C0 25.8416 0 24.3199 0 22.7181ZM24.7478 30.1665C24.908 30.0864 24.9881 30.0864 25.0682 30.0063C26.9903 29.1253 28.8324 28.2443 30.7546 27.3633C30.9948 27.2832 31.0749 27.123 31.0749 26.8828C31.0749 24.3199 31.0749 21.757 31.0749 19.2742C31.0749 19.1941 31.0749 19.0339 31.0749 18.8738C30.9148 18.9539 30.8347 18.9539 30.7546 19.0339C28.8324 19.9149 26.9103 20.7959 25.0682 21.5968C24.8279 21.6769 24.7478 21.8371 24.7478 22.0774C24.7478 24.6403 24.7478 27.2031 24.7478 29.766C24.7478 29.9262 24.7478 30.0063 24.7478 30.1665ZM23.2261 30.0864C23.2261 30.0063 23.2261 29.9262 23.2261 29.8461C23.2261 27.2031 23.2261 24.6403 23.2261 21.9973C23.2261 21.757 23.146 21.6769 22.9858 21.5968C21.0637 20.7158 19.1415 19.8349 17.1393 18.9539C17.0592 18.8738 16.9791 18.8738 16.8189 18.8738C16.8189 21.5968 16.8189 24.3199 16.8189 26.9629C16.8189 27.043 16.9791 27.2031 17.0592 27.2832C18.0203 27.7638 18.9013 28.1642 19.8623 28.5647C20.9836 29.0452 22.1049 29.5257 23.2261 30.0864ZM16.8189 16.6312C16.9791 16.5512 17.0592 16.5512 17.2194 16.4711C19.1415 15.5901 20.9836 14.7091 22.9058 13.8281C23.2261 13.748 23.2261 13.5878 23.2261 13.2675C23.2261 10.7847 23.2261 8.22179 23.2261 5.739C23.2261 5.65891 23.2261 5.49873 23.2261 5.33855C23.146 5.33855 23.0659 5.33855 23.0659 5.41864C21.0637 6.29963 19.0614 7.26071 17.0592 8.1417C16.8189 8.30188 16.8189 8.46206 16.8189 8.62224C16.8189 9.66341 16.8189 10.7847 16.8189 11.8258C16.8189 13.4276 16.8189 14.9494 16.8189 16.6312ZM7.84882 30.1665C7.84882 30.0864 7.84882 30.0063 7.84882 29.9262C7.84882 27.2832 7.84882 24.6403 7.84882 21.9973C7.84882 21.757 7.76873 21.6769 7.52846 21.5968C5.6063 20.7158 3.68414 19.8349 1.84207 18.9539C1.76198 18.8738 1.6018 18.8738 1.52171 18.7937C1.52171 18.9539 1.52171 19.0339 1.52171 19.114C1.52171 21.6769 1.52171 24.2398 1.52171 26.8027C1.52171 27.043 1.6018 27.123 1.84207 27.2832C3.76423 28.1642 5.68639 29.0452 7.60855 29.9262C7.60855 30.0864 7.76873 30.0864 7.84882 30.1665ZM9.37053 30.0864C9.53071 30.0063 9.6909 29.9262 9.85108 29.9262C11.6131 29.1253 13.375 28.3244 15.0569 27.5235C15.2972 27.4434 15.3773 27.2832 15.3773 27.043C15.3773 24.4801 15.3773 21.9973 15.3773 19.4344C15.3773 19.3543 15.3773 19.1941 15.3773 19.114C15.2171 19.1941 15.137 19.1941 15.0569 19.2742C13.2949 20.0751 11.4529 20.876 9.6909 21.6769C9.45063 21.757 9.37053 21.9172 9.37053 22.1575C9.37053 24.7203 9.37053 27.2031 9.37053 29.766C9.37053 29.766 9.37053 29.9262 9.37053 30.0864ZM9.37053 5.41864C9.37053 5.57882 9.37053 5.57882 9.37053 5.65891C9.37053 8.22179 9.37053 10.8648 9.37053 13.4276C9.37053 13.6679 9.53072 13.748 9.6909 13.8281C11.4529 14.629 13.2149 15.4299 14.9768 16.3109C15.0569 16.391 15.2171 16.391 15.2972 16.4711C15.2972 16.391 15.2972 16.391 15.2972 16.3109C15.2972 13.6679 15.2972 11.105 15.2972 8.46206C15.2972 8.38197 15.137 8.1417 15.0569 8.1417C14.3361 7.82134 13.6153 7.50098 12.9746 7.18062C11.8533 6.5399 10.652 5.97927 9.37053 5.41864ZM30.0338 17.6724C29.9537 17.5923 29.8736 17.5923 29.7935 17.5923C27.9514 16.7113 26.1094 15.9104 24.2673 15.0294C24.1071 14.9494 23.8668 14.9494 23.7067 15.0294C21.9447 15.8303 20.1026 16.7113 18.3406 17.5122C18.2605 17.5923 18.1804 17.5923 18.0203 17.6724C18.1004 17.7525 18.1004 17.7525 18.1004 17.7525C20.0225 18.6335 21.8646 19.5145 23.7867 20.3154C23.8668 20.3955 24.027 20.3154 24.1071 20.3154C26.1094 19.5145 28.0315 18.6335 30.0338 17.6724ZM2.56288 17.6724C2.64297 17.6724 2.64297 17.7525 2.64297 17.7525C4.56513 18.6335 6.4072 19.5145 8.32936 20.3154C8.48954 20.3955 8.64972 20.3154 8.80991 20.2353C10.4918 19.4344 12.2538 18.7136 13.9357 17.9127C14.0958 17.8326 14.3361 17.7525 14.4963 17.6724C14.4162 17.5923 14.256 17.5923 14.1759 17.5122C12.6542 16.7914 11.1325 16.1507 9.6909 15.4299C8.89 15.0294 8.24927 14.9494 7.52846 15.4299C7.44837 15.51 7.28819 15.51 7.2081 15.5901C5.6063 16.3109 4.08459 16.9516 2.56288 17.6724ZM22.1849 4.21729C22.1049 4.1372 22.0248 4.1372 21.9447 4.05711C20.1026 3.25621 18.3406 2.37522 16.4986 1.57432C16.4185 1.49423 16.1782 1.57432 16.0981 1.57432C15.0569 2.05486 14.0958 2.5354 13.0547 2.93585C12.1737 3.3363 11.2927 3.73675 10.4117 4.1372C12.1737 4.9381 13.9357 5.739 15.6976 6.61999C16.1782 6.86026 16.4986 6.86026 16.9791 6.61999C18.661 5.81909 20.423 5.09828 22.1849 4.21729Z" fill="url(#paint0_linear)"/>
<defs>
<linearGradient id="paint0_linear" x1="32.6349" y1="15.9907" x2="0" y2="15.9907" gradientUnits="userSpaceOnUse">
<stop stop-color="#2153DA"/>
<stop offset="1" stop-color="#072C8D"/>
</linearGradient>
</defs>
</svg>
