<svg width="50" height="50" viewBox="0 0 50 50" fill="none" xmlns="http://www.w3.org/2000/svg">
<rect width="50" height="50" rx="10" fill="#DFE8FF"/>
<path d="M36.2 31.0025C36.1 27.7025 33.5 25.1025 30.2 25.0025C26.1 25.0025 24.4 25.0025 20.1 25.0025C16.9 25.0025 14.2 27.6025 14.1 30.7025C14 32.7025 14 34.6025 14 36.5025C14 37.3025 14 38.0025 14 38.8025C14 39.5025 14.4 39.9025 15.1 40.0025C15.2 40.0025 15.3 40.0025 15.5 40.0025C15.5 40.0025 15.6 40.0025 15.7 40.0025H34.8C35 40.0025 35.1 40.0025 35.3 40.0025C36 39.9025 36.3 39.6025 36.3 38.9025V36.7025C36.2 34.8025 36.2 32.9025 36.2 31.0025ZM34.2 37.9025C34.1 38.0025 34.1 38.0025 34.2 37.9025C31.5 38.0025 29.6 38.0025 27.4 38.0025H22.7C20.5 38.0025 18.6 38.0025 16.1 38.0025H16V37.9025C16 36.4025 16 35.0025 16 33.5025V31.1025C16 29.3025 17.3 27.7025 19 27.2025C19.4 27.1025 19.8 27.0025 20.3 27.0025C21.5 27.0025 22.5 27.0025 23.4 27.0025C23.9 27.0025 24.3 27.0025 24.7 27.0025C26.2 27.0025 27.7 27.0025 29.8 27.0025C31.9 27.0025 33.3 28.3025 33.7 29.6025C33.9 30.2025 34 30.8025 34 31.5025C34 32.8025 34 34.0025 34 35.3025C34.2 36.2025 34.2 37.0025 34.2 37.9025Z" fill="#2153DA"/>
<path d="M25.1 23.3025C25.2 23.3025 25.2 23.3025 25.3 23.3025C27.1 23.3025 28.8 22.5025 30 21.3025C31.2 20.0025 31.9 18.3025 31.9 16.6025C31.7 12.8025 28.7 9.90251 25 10.0025C21.3 10.1025 18.4 13.1025 18.5 16.7025C18.5 18.5025 19.3 20.3025 20.6 21.5025C21.9 22.7025 23.4 23.3025 25.1 23.3025ZM25.2 12.0025C27.7 12.0025 29.7 14.0025 29.8 16.6025C29.9 19.1025 27.8 21.2025 25.3 21.3025C22.8 21.4025 20.6 19.4025 20.6 16.7025C20.6 15.5025 21 14.4025 21.8 13.5025C22.6 12.6025 23.8 12.0025 25.1 12.0025H25.2Z" fill="#2153DA"/>
<path d="M30.5 31.0025C30.1 31.0025 29.7 31.0025 29.3 31.0025H28.3C27.9 31.0025 27.5 31.0025 27.1 31.0025C26.7 31.0025 26.4 31.1025 26.2 31.3025C26 31.5025 25.9 31.7025 25.9 32.0025C25.9 32.6025 26.4 33.0025 27 33.0025C27.6 33.0025 28.1 33.0025 28.7 33.0025C29.3 33.0025 29.8 33.0025 30.4 33.0025C31.1 33.0025 31.5 32.6025 31.5 32.0025C31.5 31.7025 31.4 31.5025 31.2 31.3025C31.2 31.1025 30.9 31.0025 30.5 31.0025Z" fill="#2153DA"/>
</svg>
