<svg width="30" height="30" viewBox="0 0 30 30" fill="none" xmlns="http://www.w3.org/2000/svg">
<path d="M0 21.2982C0 19.7965 0 18.2948 0 16.7931C0 16.3426 0.147059 16.0423 0.588235 15.8921C2.72059 14.916 4.77941 13.9399 6.83824 12.9638C7.13235 12.8137 7.20588 12.6635 7.20588 12.3632C7.20588 9.66013 7.20588 6.95709 7.20588 4.32913C7.20588 3.80354 7.35294 3.5032 7.86765 3.27795C10.0735 2.22677 12.2794 1.17559 14.4853 0.124404C14.8529 -0.0257649 15.1471 -0.0257649 15.4412 0.0493195C17.6471 1.1005 19.8529 2.15168 22.0588 3.20287C22.5 3.42812 22.7206 3.72846 22.7206 4.25405C22.7206 6.95709 22.7206 9.66013 22.7206 12.2881C22.7206 12.6635 22.7941 12.8137 23.0882 12.9638C25.1471 13.9399 27.2059 14.916 29.3382 15.8921C29.7794 16.1174 30 16.4177 30 16.8682C30 19.7965 30 22.7999 30 25.7282C30 26.2538 29.8529 26.5541 29.3382 26.7043C27.1324 27.7555 24.8529 28.8067 22.6471 29.8578C22.2794 30.008 21.9853 30.008 21.6912 29.8578C19.5588 28.8067 17.4265 27.8306 15.2941 26.8545C15.0735 26.7794 14.9265 26.7794 14.7794 26.8545C12.6471 27.8306 10.5147 28.8817 8.38235 29.8578C8.01471 30.008 7.72059 30.0831 7.27941 29.8578C5.07353 28.8067 2.86765 27.7555 0.588235 26.7043C0.147059 26.479 0 26.2538 0 25.7282C0 24.2265 0 22.7999 0 21.2982ZM22.7206 28.2811C22.8676 28.206 22.9412 28.206 23.0147 28.1309C24.7794 27.305 26.4706 26.479 28.2353 25.6531C28.4559 25.578 28.5294 25.4279 28.5294 25.2026C28.5294 22.7999 28.5294 20.3972 28.5294 18.0696C28.5294 17.9945 28.5294 17.8443 28.5294 17.6942C28.3824 17.7692 28.3088 17.7692 28.2353 17.8443C26.4706 18.6703 24.7059 19.4962 23.0147 20.247C22.7941 20.3221 22.7206 20.4723 22.7206 20.6975C22.7206 23.1002 22.7206 25.5029 22.7206 27.9056C22.7206 28.0558 22.7206 28.1309 22.7206 28.2811ZM21.3235 28.206C21.3235 28.1309 21.3235 28.0558 21.3235 27.9807C21.3235 25.5029 21.3235 23.1002 21.3235 20.6225C21.3235 20.3972 21.25 20.3221 21.1029 20.247C19.3382 19.4211 17.5735 18.5952 15.7353 17.7692C15.6618 17.6942 15.5882 17.6942 15.4412 17.6942C15.4412 20.247 15.4412 22.7999 15.4412 25.2777C15.4412 25.3528 15.5882 25.5029 15.6618 25.578C16.5441 26.0285 17.3529 26.404 18.2353 26.7794C19.2647 27.2299 20.2941 27.6804 21.3235 28.206ZM15.4412 15.5918C15.5882 15.5167 15.6618 15.5167 15.8088 15.4416C17.5735 14.6157 19.2647 13.7898 21.0294 12.9638C21.3235 12.8888 21.3235 12.7386 21.3235 12.4383C21.3235 10.1106 21.3235 7.70793 21.3235 5.38031C21.3235 5.30523 21.3235 5.15506 21.3235 5.00489C21.25 5.00489 21.1765 5.00489 21.1765 5.07998C19.3382 5.90591 17.5 6.80692 15.6618 7.63285C15.4412 7.78302 15.4412 7.93318 15.4412 8.08335C15.4412 9.05945 15.4412 10.1106 15.4412 11.0867C15.4412 12.5884 15.4412 14.015 15.4412 15.5918ZM7.20588 28.2811C7.20588 28.206 7.20588 28.1309 7.20588 28.0558C7.20588 25.578 7.20588 23.1002 7.20588 20.6225C7.20588 20.3972 7.13235 20.3221 6.91176 20.247C5.14706 19.4211 3.38235 18.5952 1.69118 17.7692C1.61765 17.6942 1.47059 17.6942 1.39706 17.6191C1.39706 17.7692 1.39706 17.8443 1.39706 17.9194C1.39706 20.3221 1.39706 22.7248 1.39706 25.1275C1.39706 25.3528 1.47059 25.4279 1.69118 25.578C3.45588 26.404 5.22059 27.2299 6.98529 28.0558C6.98529 28.206 7.13235 28.206 7.20588 28.2811ZM8.60294 28.206C8.75 28.1309 8.89706 28.0558 9.04412 28.0558C10.6618 27.305 12.2794 26.5541 13.8235 25.8033C14.0441 25.7282 14.1176 25.578 14.1176 25.3528C14.1176 22.9501 14.1176 20.6225 14.1176 18.2197C14.1176 18.1447 14.1176 17.9945 14.1176 17.9194C13.9706 17.9945 13.8971 17.9945 13.8235 18.0696C12.2059 18.8204 10.5147 19.5713 8.89706 20.3221C8.67647 20.3972 8.60294 20.5474 8.60294 20.7726C8.60294 23.1753 8.60294 25.5029 8.60294 27.9056C8.60294 27.9056 8.60294 28.0558 8.60294 28.206ZM8.60294 5.07998C8.60294 5.23015 8.60294 5.23014 8.60294 5.30523C8.60294 7.70793 8.60294 10.1857 8.60294 12.5884C8.60294 12.8137 8.75 12.8888 8.89706 12.9638C10.5147 13.7147 12.1324 14.4655 13.75 15.2915C13.8235 15.3665 13.9706 15.3665 14.0441 15.4416C14.0441 15.3665 14.0441 15.3665 14.0441 15.2915C14.0441 12.8137 14.0441 10.411 14.0441 7.93318C14.0441 7.8581 13.8971 7.63285 13.8235 7.63285C13.1618 7.33251 12.5 7.03217 11.9118 6.73183C10.8824 6.13116 9.77941 5.60557 8.60294 5.07998ZM27.5735 16.5679C27.5 16.4928 27.4265 16.4928 27.3529 16.4928C25.6618 15.6669 23.9706 14.916 22.2794 14.0901C22.1324 14.015 21.9118 14.015 21.7647 14.0901C20.1471 14.841 18.4559 15.6669 16.8382 16.4177C16.7647 16.4928 16.6912 16.4928 16.5441 16.5679C16.6176 16.643 16.6176 16.643 16.6176 16.643C18.3824 17.4689 20.0735 18.2948 21.8382 19.0457C21.9118 19.1208 22.0588 19.0457 22.1324 19.0457C23.9706 18.2948 25.7353 17.4689 27.5735 16.5679ZM2.35294 16.5679C2.42647 16.5679 2.42647 16.643 2.42647 16.643C4.19118 17.4689 5.88235 18.2948 7.64706 19.0457C7.79412 19.1208 7.94118 19.0457 8.08824 18.9706C9.63235 18.2197 11.25 17.544 12.7941 16.7931C12.9412 16.7181 13.1618 16.643 13.3088 16.5679C13.2353 16.4928 13.0882 16.4928 13.0147 16.4177C11.6176 15.742 10.2206 15.1413 8.89706 14.4655C8.16177 14.0901 7.57353 14.015 6.91176 14.4655C6.83824 14.5406 6.69118 14.5406 6.61765 14.6157C5.14706 15.2915 3.75 15.8921 2.35294 16.5679ZM20.3676 3.95371C20.2941 3.87863 20.2206 3.87863 20.1471 3.80354C18.4559 3.0527 16.8382 2.22677 15.1471 1.47592C15.0735 1.40084 14.8529 1.47592 14.7794 1.47592C13.8235 1.92643 12.9412 2.37694 11.9853 2.75236C11.1765 3.12778 10.3676 3.5032 9.55882 3.87863C11.1765 4.62947 12.7941 5.38031 14.4118 6.20624C14.8529 6.4315 15.1471 6.4315 15.5882 6.20624C17.1324 5.4554 18.75 4.77964 20.3676 3.95371Z" fill="#2153DA"/>
</svg>
