<svg width="20" height="15" viewBox="0 0 20 15" fill="none" xmlns="http://www.w3.org/2000/svg">
<path d="M19.9131 0.826099C19.9131 0.804359 19.9131 0.760876 19.9131 0.739137C19.9131 0.717398 19.9131 0.695648 19.9131 0.673909C19.9131 0.652169 19.8913 0.630452 19.8913 0.586973C19.8913 0.565234 19.8696 0.52175 19.8696 0.500011C19.8696 0.478272 19.8479 0.456522 19.8261 0.434783C19.8044 0.413044 19.8043 0.36956 19.7826 0.347821V0.326087C19.7609 0.304348 19.7609 0.304359 19.7391 0.28262C19.7174 0.260881 19.6957 0.239131 19.6739 0.217392C19.6522 0.195652 19.6305 0.173924 19.6087 0.173924C19.587 0.152185 19.5652 0.13043 19.5435 0.13043C19.5218 0.10869 19.5 0.108701 19.4783 0.0869619C19.4565 0.0652228 19.4348 0.0652334 19.4131 0.0434942C19.3913 0.0434942 19.3479 0.0217339 19.3261 0.0217339C19.3044 0.0217339 19.2826 0 19.2391 0C19.2174 0 19.1739 0 19.1522 0C19.1305 0 19.1087 0 19.087 0H0.826072C0.804333 0 0.78261 0 0.760871 0C0.739131 0 0.695648 0 0.673909 0C0.652169 0 0.630425 0.0217339 0.586947 0.0217339C0.565207 0.0217339 0.521724 0.0434942 0.499985 0.0434942C0.478246 0.0434942 0.456522 0.0652228 0.434783 0.0869619C0.413044 0.108701 0.391294 0.10869 0.369555 0.13043C0.347816 0.152169 0.326093 0.152185 0.304354 0.173924C0.282614 0.195663 0.260865 0.217392 0.239125 0.217392C0.217386 0.239131 0.195637 0.260881 0.173897 0.28262C0.152158 0.304359 0.152169 0.304348 0.13043 0.326087V0.347821C0.10869 0.36956 0.0869619 0.413044 0.0869619 0.434783C0.0652228 0.456522 0.0652069 0.478272 0.0434677 0.500011C0.0217285 0.52175 0.0217339 0.543495 0.0217339 0.586973C0.0217339 0.608712 0 0.63043 0 0.673909C0 0.695648 0 0.717398 0 0.739137C0 0.760876 0 0.804359 0 0.826099V13.8478C0 14.3261 0.391305 14.7174 0.869566 14.7174H19.1304C19.6087 14.7174 20 14.3261 20 13.8478L19.9131 0.826099ZM16.413 1.7174L9.91305 6.54348L3.41304 1.7174H16.413ZM1.65217 12.9783V2.58697L9.39131 8.32611C9.54348 8.4348 9.7174 8.50001 9.91305 8.50001C10.1087 8.50001 10.2826 8.4348 10.4348 8.32611L18.1739 2.58697V12.9783H1.65217Z" fill="#2153DA"/>
</svg>
